<svg id="logo" xmlns="http://www.w3.org/2000/svg" viewBox="0 0 1133.86 566.93"><defs><style>.cls-1{fill:#706f6f;}.cls-2{fill:#1e1e1c;}.cls-3{fill:#e20717;}.cls-4,.cls-5{fill:#cb9d3f;}.cls-5{fill-rule:evenodd;}.cls-6{fill:#004884;}.cls-7{fill:#c7c6c5;}.cls-8{fill:#fff;}.cls-9{fill:#feeb17;}</style></defs><title>imago-usach-color</title><g id="_Group_" data-name="&lt;Group&gt;"><path id="_Path_" data-name="&lt;Path&gt;" class="cls-1" d="M472.3,517.64a3.07,3.07,0,0,1-3.2-2.94V133.58a3.21,3.21,0,0,1,6.39,0V514.7A3.07,3.07,0,0,1,472.3,517.64Z"/></g><g id="_Group_2" data-name="&lt;Group&gt;"><g id="_Group_3" data-name="&lt;Group&gt;"><g id="_Group_4" data-name="&lt;Group&gt;"><path id="_Path_2" data-name="&lt;Path&gt;" class="cls-2" d="M409.17,125.1l-2.36-1.49a12.11,12.11,0,0,0,2.43-2.47,12.39,12.39,0,0,0,2.35-7.28,11.19,11.19,0,0,0-.17-2.07A12.53,12.53,0,0,0,391.24,104l0,0h0l-.11,0a1.2,1.2,0,0,0-.44.94,1.26,1.26,0,0,0,.22.7,1.21,1.21,0,0,0,1.65.28,4.8,4.8,0,0,1,6.58,6.79,4.94,4.94,0,0,1-6.76,1.06l-17.08-12.22,12.52-17.44c.29-.39,3-3.82,7.9-.35a4.62,4.62,0,0,1,2.08,3.19c.16,1.56-.63,3.36-2.29,5.21a1.11,1.11,0,0,0-.24,1.19,1.15,1.15,0,0,0,.92.78c.23,0,5.7.86,10-4.88,4.14-5.57-.18-13.4-.35-13.72a32.09,32.09,0,0,1-1.9-20.58,1.2,1.2,0,0,0-1.8-1.3A32.28,32.28,0,0,1,382,58.58c-.64-.12-9.19-1.56-13.06,4.06-4,5.9-1.5,10.82-1.39,11a1.18,1.18,0,0,0,1,.62,1.21,1.21,0,0,0,1.06-.61c1.21-2.18,2.65-3.52,4.18-3.86a4.49,4.49,0,0,1,3.67,1c1.82,1.3,2.85,2.71,3.07,4.2a3.34,3.34,0,0,1,.06.62,4.77,4.77,0,0,1-.89,2.71s-11.28,15.74-12.53,17.5c-1.74-1.26-17-12.24-17-12.24a5.18,5.18,0,0,1-2.06-4,4.66,4.66,0,0,1,.87-2.7,4.78,4.78,0,0,1,3.15-1.94,4.8,4.8,0,0,1,5.39,6,1.17,1.17,0,0,0,.79,1.45,1.19,1.19,0,0,0,1.47-.71.53.53,0,0,0,0-.16h0a12.27,12.27,0,0,0,.77-4.2,12.54,12.54,0,0,0-22.74-7.33A12.45,12.45,0,0,0,336.23,73l-2.17-1.76c-6.32-4.53-14.49-7.3-17.22-3.54a4,4,0,0,0-.72,2.38c0,3.87,4.45,9.1,9.6,12.79,0,0,1.27.79,2.36,1.49a13.34,13.34,0,0,0-2.44,2.48,12.54,12.54,0,0,0,18.42,16.77,1.19,1.19,0,0,0-1.22-2,5.61,5.61,0,0,1-4.9-1.11,4.93,4.93,0,0,1-1.14-6.75,4.72,4.72,0,0,1,3.11-2,4.86,4.86,0,0,1,3.6.83l3,2.15s11.6,8.3,13.77,9.87c-5.67,4.18-14.69,4.14-14.78,4.14a1.18,1.18,0,0,0-.88.37,1.14,1.14,0,0,0-.33.89c.43,6.8-5.37,16-8.58,20.65H132.86l-10.41-13.91c1.43-1.72,3.32-4,3.32-4l.9-1.16c1.17-1.49,1.56-4.16-1.06-6.74a4.88,4.88,0,0,0-3.74-1.3,4.13,4.13,0,0,0-3.1,1.51l-.07.08-1.84-2.56-2.36-3.28-1.93-2.65,2.57-3.19a4.07,4.07,0,0,0,.82-2.56c0-.19,0-.4,0-.62a5.61,5.61,0,0,0-2-3.71A5.36,5.36,0,0,0,110,85.47a4.22,4.22,0,0,0-2.2.9c.82-4.69-1.45-9.22-7-16.49C98,66.24,96.56,62.3,94.13,54.26A1.22,1.22,0,0,0,93,53.42a1.18,1.18,0,0,0-1.14.86,79,79,0,0,0-2.26,9.56c-5.87-12.21-16.94-20-17.45-20.4a1.19,1.19,0,0,0-1.87,1,.77.77,0,0,0,0,.25,65.39,65.39,0,0,1,1.16,11.79c0,4.48-.59,9.39-2.62,13a23,23,0,0,0-3.08,9.62,45.36,45.36,0,0,1-1-5.11,1.21,1.21,0,0,0-2.25-.39,33.81,33.81,0,0,0-4.43,16A23.28,23.28,0,0,0,59,96.16a23.26,23.26,0,0,1-1.6-2.43A1.19,1.19,0,0,0,56,93.19a1.17,1.17,0,0,0-.84,1.23c.93,10,4,16.93,9.2,20.49a14.33,14.33,0,0,0,6.21,2.43,4.15,4.15,0,0,0-1.74,2.28,5.49,5.49,0,0,0,.35,4.06,5.86,5.86,0,0,0,3.29,2.66,4.3,4.3,0,0,0,3.27-.19l3.6-1.94,2.27,2.39,2.77,2.94,2.17,2.29-.07,0c-2.3,1.21-2.67,4.43-1.56,6.58A5.41,5.41,0,0,0,88.05,141a4.42,4.42,0,0,0,3.35-.19l1.42-.74,4.47-2.41L110,151.58V297.47a118.88,118.88,0,0,0,35,84.53c1.06,1.06,2.16,2.08,3.24,3.09l-1.16,1.67c-9.74,13.6-14.85,29.36-11.66,31.62a2.87,2.87,0,0,0,2.16.39c4.68-.78,15.45-9.65,24-21.63l.6-.87a119.68,119.68,0,0,0,131.93,1.85c10.3,13.24,22.94,23.07,26.72,20.38,3.57-2.61-2.11-18.83-11.06-32.35,1.49-1.34,2.93-2.73,4.36-4.15a118.86,118.86,0,0,0,35.07-84.53V147l.84-1.18c.06-.06.69-1,.69-1l.1-.14c2.3-3.4,10.45-14.65,18.21-16.77a1.2,1.2,0,0,0,.74-.6,1.16,1.16,0,0,0,.13-.54,1.44,1.44,0,0,0,0-.41,32.58,32.58,0,0,1-1.69-9.9,17.9,17.9,0,0,1,.87-5.41l16.75,12a4.85,4.85,0,0,1,2,3.92,4.66,4.66,0,0,1-.9,2.78,4.91,4.91,0,0,1-6.76,1.07,5.48,5.48,0,0,1-2.62-4.26,1.16,1.16,0,0,0-.94-1.21,1.18,1.18,0,0,0-1.36.69,12.53,12.53,0,0,0,21.78,12,11.93,11.93,0,0,0,1.58-3.1l2.16,1.76c5.21,3.74,10.81,5.79,14.27,5.22a4.32,4.32,0,0,0,2.94-1.69,3.87,3.87,0,0,0,.74-2.36C418.78,134,414.33,128.81,409.17,125.1Z"/><path id="_Path_3" data-name="&lt;Path&gt;" class="cls-3" d="M65.63,112.93c-3.66-2.56-6.09-7.25-7.37-13.82A9.27,9.27,0,0,0,62.11,102a1.18,1.18,0,0,0,1.32-.47,1.13,1.13,0,0,0,.21-.67,1.12,1.12,0,0,0-.25-.73c-.18-.26-3-3.94-3-10.53A30,30,0,0,1,63,78c.7,3.19,2,7.43,4,8.91a1.19,1.19,0,0,0,1.45,0,1.22,1.22,0,0,0,.43-1,1.33,1.33,0,0,0-.08-.47A12.36,12.36,0,0,1,68,80.73a20.42,20.42,0,0,1,2.87-10.12c2.28-4.06,3-9.4,3-14.22a64.44,64.44,0,0,0-.69-9.13c4.16,3.49,12.72,11.61,16.11,22.2a1.17,1.17,0,0,0,1.42.77,1.22,1.22,0,0,0,.9-1.16v-.23a3.87,3.87,0,0,1,0-.73A40.83,40.83,0,0,1,93,58.86c1.9,5.8,3.38,9.2,5.87,12.47,4.63,6.06,6.73,9.87,6.73,13.32,0,3-1.63,5.8-4.5,9.57a99.13,99.13,0,0,1-10.44,9.84A98.25,98.25,0,0,1,75,114.93,12.75,12.75,0,0,1,65.63,112.93Z"/><path id="_Path_4" data-name="&lt;Path&gt;" class="cls-4" d="M78.91,121.73l-1.32.7c-1.25.66-3,1.61-3,1.61a2.1,2.1,0,0,1-1.47,0,3.36,3.36,0,0,1-1.89-1.48,3.15,3.15,0,0,1-.17-2.24,1.69,1.69,0,0,1,.78-1c1.35-.72,2.64-1.4,3.9-2.11A100,100,0,0,0,92.16,106a104.49,104.49,0,0,0,10.76-10.13c2.15-2.37,4.13-4.75,6.2-7.39a1.7,1.7,0,0,1,1.16-.59,3.16,3.16,0,0,1,2.17.62h0a3.31,3.31,0,0,1,1.11,2.13,2,2,0,0,1-.29,1.42l-2.14,2.65c-.53.65-.91,1.15-.91,1.15L110,96c-1,1.2-2,2.37-3.07,3.53l-.2.21c-.48.51-1,1-1.44,1.53-.1.12-.21.22-.32.34-.46.47-.94,1-1.44,1.44,0,.07-.13.12-.19.19-2.28,2.25-4.76,4.46-7.64,6.85q-2.1,1.75-4.06,3.25a2.43,2.43,0,0,1-.25.2c-.4.3-.78.59-1.18.87s-.72.56-1.08.81-.54.38-.78.58c-.44.28-.86.58-1.28.87l-1,.72-.87.56C83.17,119.26,81.13,120.5,78.91,121.73Z"/><path id="_Path_5" data-name="&lt;Path&gt;" class="cls-4" d="M86.07,127.9,83.32,125,81.46,123a105.31,105.31,0,0,0,15.72-11A109.55,109.55,0,0,0,111,98.56l1.57,2.16,2.35,3.28,2.26,3.12-.9,1.12-.48.61c-.18.23-.36.47-.55.7s-.43.5-.65.77l-.41.51q-.52.63-1,1.23l0,0c-.21.25-.44.49-.65.74l0,0-.64.71a.2.2,0,0,1-.09.07c-.2.23-.42.46-.65.69,0,0-.08.07-.11.11-.2.22-.42.45-.65.67l-.17.16c-.2.2-.45.42-.66.64s-.15.13-.22.21l-.65.62c-.1.08-.2.18-.31.28l-.64.57a3.7,3.7,0,0,1-.42.37c-.21.18-.39.36-.61.54l-.63.56c-.13.12-.32.25-.45.38-.39.34-.8.67-1.21,1s-.83.69-1.23,1c-.25.22-.49.41-.74.61l-.41.31-.76.6a2.6,2.6,0,0,0-.31.25,9.51,9.51,0,0,0-.81.62l-.23.15-.8.6a1,1,0,0,0-.19.12c-.26.19-.51.38-.8.57l-.14.09-.79.53A.38.38,0,0,1,97,126c-.25.16-.5.34-.76.52l-.13.07c-.26.15-.52.32-.76.47l-.14.08-.76.46a.67.67,0,0,0-.11.07c-.26.14-.54.29-.79.44l-.09.07-.81.45-.09,0-.86.47h0c-.52.29-1.06.57-1.61.85-.39.22-.78.41-1.2.63l-.12.07Z"/><path id="_Path_6" data-name="&lt;Path&gt;" class="cls-4" d="M95.64,135.87c-1.8,1-3.91,2.11-3.91,2.11l-1.44.73a2,2,0,0,1-1.51,0A3.24,3.24,0,0,1,87,137.36c-.57-1.12-.46-2.86.54-3.38l1.3-.66.17-.1a75.86,75.86,0,0,0,16.74-10.86,77.48,77.48,0,0,0,13.87-14.49l0,0,.31-.41.19-.24h0l.47-.63A1.84,1.84,0,0,1,122,106a2.53,2.53,0,0,1,1.93.63,3.5,3.5,0,0,1,1.24,2.38,2,2,0,0,1-.42,1.19l-.88,1.14-2.9,3.56c-1,1.19-1.79,2.2-1.79,2.2a69.73,69.73,0,0,1-6.75,6.82c-1,.87-2,1.76-3.11,2.66l-.11.07c-1,.87-2.1,1.72-3.12,2.51a69.5,69.5,0,0,1-8,5.43Z"/><path id="_Path_7" data-name="&lt;Path&gt;" class="cls-4" d="M110,148c-3.23-3.49-8.61-9.41-10.57-11.53a80.83,80.83,0,0,0,11.31-8.08,79,79,0,0,0,10.13-9.69c1.83,2.41,6.33,8.43,9,12H110Z"/><path id="_Path_8" data-name="&lt;Path&gt;" class="cls-3" d="M159.73,395.76c-9.63,13.45-20.54,21-22.76,20.68a2,2,0,0,1-.12-.77c0-3.47,3.35-15.12,12.26-27.53,0,0,.45-.66,1-1.42a117.75,117.75,0,0,0,10.26,8.17Z"/><path id="_Path_9" data-name="&lt;Path&gt;" class="cls-4" d="M319.43,415.48a2.08,2.08,0,0,1-.14.87c-2.13.36-12.73-6.74-22.81-19.69a123.88,123.88,0,0,0,11.38-8.76C316.21,400.53,319.43,411.92,319.43,415.48Z"/><path id="_Path_10" data-name="&lt;Path&gt;" class="cls-3" d="M416.11,138.88a2.06,2.06,0,0,1-1.39.7c-2.36.39-7.13-.94-12.5-4.78l-3.37-2.74a1.24,1.24,0,0,0-2,.66,9.59,9.59,0,0,1-1.68,3.95,10.15,10.15,0,0,1-18.41-5.86s0-.06,0-.08a8.77,8.77,0,0,0,2.18,2.09,7.2,7.2,0,0,0,8.34-11.73l-18.11-13a1.19,1.19,0,0,0-1.77.49,19.11,19.11,0,0,0-1.52,7.88,34.69,34.69,0,0,0,1.47,9.55c-7.63,2.8-14.9,12.2-18.05,16.78v-12.1H338.6c3.29-4.89,7.87-12.84,8-19.54,3.09-.13,11.37-.91,16.47-5.67a1.19,1.19,0,0,0,.37-.86.19.19,0,0,0,0-.08,1.18,1.18,0,0,0-.48-.89l-15.1-10.84-3-2.12a7.18,7.18,0,0,0-10,1.67,6.94,6.94,0,0,0-1.32,4.08,7.53,7.53,0,0,0,2.93,5.9,8.08,8.08,0,0,0,2.56,1.39,10.1,10.1,0,0,1-11.43-15.49,9.88,9.88,0,0,1,3.23-2.91,1.22,1.22,0,0,0,.56-1,1.32,1.32,0,0,0-.58-1L327.09,81c-6.87-4.92-9.47-10.21-8.31-11.85s7-.83,13.89,4.1L336,76a1.26,1.26,0,0,0,1.19.22,1.2,1.2,0,0,0,.8-.86,10.1,10.1,0,0,1,19.65-.93c-.22-.2-.41-.42-.64-.6a7.11,7.11,0,0,0-5.34-1.25,7.19,7.19,0,0,0-3.11,12.91l18.14,13a1.22,1.22,0,0,0,.89.2,1.14,1.14,0,0,0,.77-.48l13.23-18.43a7.19,7.19,0,0,0,1.26-5.12c-.33-2.13-1.68-4.08-4-5.77a6.92,6.92,0,0,0-5.6-1.34,7.81,7.81,0,0,0-4.21,2.8c0-.24-.06-.47-.06-.74A9.7,9.7,0,0,1,370.88,64c3-4.43,10.63-3.06,10.7-3.06h0a34.27,34.27,0,0,0,19.51-3.86,32.52,32.52,0,0,0-.51,5.39,34,34,0,0,0,3.08,14.29,15.79,15.79,0,0,1,1.88,6.84,7.05,7.05,0,0,1-1.32,4.31,9.29,9.29,0,0,1-5.39,3.75,8.23,8.23,0,0,0,1.31-4.2,3.71,3.71,0,0,0,0-.67,6.81,6.81,0,0,0-3.06-4.87A8.82,8.82,0,0,0,390.46,80a7.56,7.56,0,0,0-4.6,2.81l-13.19,18.39a1.19,1.19,0,0,0,.28,1.67l18,12.91c3.57,2.26,7.85,1.54,10.11-1.61a7.11,7.11,0,0,0,1.34-4.17,7.21,7.21,0,0,0-3-5.87c-.26-.17-.55-.26-.82-.41a10,10,0,0,1,10.47,8.43,10.15,10.15,0,0,1-5,10.47,1.17,1.17,0,0,0-.56,1,1.2,1.2,0,0,0,.58,1.06l3.68,2.3C414.65,132,417.27,137.26,416.11,138.88Z"/><path id="_Path_11" data-name="&lt;Path&gt;" class="cls-2" d="M352,502l.09.05.2.08a36.22,36.22,0,0,0,4.23,2.2c4.57,2.59,11.49,6.8,16.45,9.89.44.28,11.05,7,19.31.43,14.86-11.88,3-53,.81-60a38.88,38.88,0,0,0,2.92-4.35c5.52-9.53,2.08-14.09.34-15.61,0,0,0,0,0,0l-25-24.24a10.15,10.15,0,0,0-1-1,14.45,14.45,0,0,0-1.18-.87,7.63,7.63,0,0,0-3.1-1.23,6.2,6.2,0,0,0-4.85,1.52c-3.84,3.13-5.26,12.52-5.74,17.41-11.34,8.86-31.78,19.74-68.25,28.17l-4.69-10.13a10.09,10.09,0,0,0-9.16-5.2l-2.63.31s-.49.15-.49.15a152.61,152.61,0,0,1-37.48,4.34h-6.37a151.9,151.9,0,0,1-37.56-4.37l-.38-.1s-2.7-.33-2.7-.33a10.11,10.11,0,0,0-9.1,5.16l-4.5,9.67c-35.14-8.35-55-19-66.11-27.67-.49-4.89-1.91-14.29-5.76-17.41a6.23,6.23,0,0,0-4.85-1.52,7.52,7.52,0,0,0-3.12,1.25,8.45,8.45,0,0,0-1,.76A9.61,9.61,0,0,0,90,410.62L65.15,434.68c-1.75,1.54-5.15,6.09.35,15.57a40.64,40.64,0,0,0,2.93,4.37c-2.18,7-14,48.15.82,60,8.27,6.62,18.87-.15,19.32-.45,4.94-3.07,21.19-12.41,21.45-12.57a10.58,10.58,0,0,0,3.35-3.31,10.42,10.42,0,0,0,.75-7.18,1.15,1.15,0,0,0-.67-.68,1,1,0,0,0-.93.07L101,497.45c-3.18-6.39,1-14.87,2-16.72A222,222,0,0,0,151.35,498c11.2,2.37,13.17-5.78,13.18-5.86l2.31-6.36.62-1.71.33.1c16.7,5.31,37.1,8.24,57.92,8.25h7.77c20.85,0,41.24-2.93,58-8.25l2.1-.69c.24.39.51.86.81,1.39l2.7,7.39a4.93,4.93,0,0,0,.5,1.3c1.11,2.19,4.34,6.19,12.64,4.45a222.92,222.92,0,0,0,48.4-17.31c1,1.89,5.19,10.33,2,16.71L349,490.53a1.1,1.1,0,0,0-.95-.07,1.06,1.06,0,0,0-.63.68,8.86,8.86,0,0,0,4.11,10.49A.79.79,0,0,0,352,502Z"/><path id="_Path_12" data-name="&lt;Path&gt;" class="cls-4" d="M112.23,493.23c0,.17,0,.28,0,.48a8.09,8.09,0,0,1-.84,3.63,8.67,8.67,0,0,1-3.11,2.79c-1.07.34-4.24,1.07-6.18-.88C106.11,496.88,110.84,494.07,112.23,493.23Z"/><path id="_Path_13" data-name="&lt;Path&gt;" class="cls-4" d="M97.58,492a14.16,14.16,0,0,0,1.49,6.52c.23.42.46.84.71,1.25.06.06.29.39.29.39l.18.18a6,6,0,0,0,3.5,2.14h0c-1,.59-2.1,1.22-3.22,1.89-5.59,3.27-12,7.27-13.16,8-.11.07-9.77,6.21-16.79.57-4.92-3.9-6.55-11.64-6.55-20.25,0-13.94,4.28-30.07,6-36,7.22,8.69,17.88,16.1,29.33,22.17.78.64,1.32,1.06,1.48,1.18A27.19,27.19,0,0,0,97.58,492Z"/><path id="_Path_14" data-name="&lt;Path&gt;" class="cls-4" d="M151.8,495.91a218.78,218.78,0,0,1-51.06-18.72,129.1,129.1,0,0,1-15.21-9.3c-2.36-1.87-4.71-3.73-6.84-5.44a58.28,58.28,0,0,1-8.84-9.53,42.61,42.61,0,0,1-2.48-3.75,17,17,0,0,1-2.7-8.22,5.84,5.84,0,0,1,1.93-4.67s17.91-17.36,23.51-22.77l1.19-1.15a3.35,3.35,0,0,0,.27,1.32l.48.84.23.41c2.39,3.8,6.61,8.84,14,14.35,11.78,8.75,31.62,18.67,65,26.63l-12.38,26.65-.19.43a4.73,4.73,0,0,0-.14.64c-.34,2.42,1.09,6.64,2.13,9.27a8.85,8.85,0,0,0,.45,1.09C159.72,495.51,157,497,151.8,495.91Z"/><path id="_Path_15" data-name="&lt;Path&gt;" class="cls-4" d="M164.89,484.86a9.32,9.32,0,0,0-.43,1.19c-1.19,3.3-2,5.51-2,5.51a.58.58,0,0,1,0,.13,44.47,44.47,0,0,1-1.83-7.39,1.46,1.46,0,0,1,0-.39,4,4,0,0,1,3.33-1l1.45.49C165.23,483.91,165.06,484.4,164.89,484.86Z"/><path id="_Path_16" data-name="&lt;Path&gt;" class="cls-4" d="M294.54,480.89c-.48.17-1,.31-1.44.48-.86.29-1.71.56-2.55.83-16.48,5.21-36.55,8.07-57.07,8.09l-2.46,0h-2.85l-2.45,0c-20.51,0-40.56-2.88-57-8.06-.17-.05-.32-.12-.49-.16l-2-.68-1.49-.5a5.1,5.1,0,0,0-2.62-.05c.07-.14.15-.34.24-.54,1.67-3.58,7-15.05,11.11-23.89l.91-2,4.23-9.12a8,8,0,0,1,7.24-4.05l2.18.26.29.1a154.36,154.36,0,0,0,38.17,4.45l3.2,0,3.17,0a153.69,153.69,0,0,0,38.11-4.45l.35-.1,2.14-.26a7.93,7.93,0,0,1,7.2,4s2,4.18,4.51,9.68c1,2.2,2.14,4.64,3.29,7.07,3.69,7.94,7.51,16.14,8.51,18.31a5.37,5.37,0,0,1,.25.54,5.86,5.86,0,0,0-2-.1A3.75,3.75,0,0,0,294.54,480.89Z"/><path id="_Path_17" data-name="&lt;Path&gt;" class="cls-4" d="M297.87,488.25l-1.94-5.4a4,4,0,0,1,2.67,1.1v0s0,0,0,.06a1.69,1.69,0,0,1,0,.25A17,17,0,0,1,297.87,488.25Z"/><path id="_Path_18" data-name="&lt;Path&gt;" class="cls-4" d="M309.75,495.91c-9.05,1.91-10.56-4-10.64-4.23a.25.25,0,0,0,0-.11,25.67,25.67,0,0,0,1.65-6.53c1.15-.33,2.21-.74,2.39-.8.41-.12,1.51-.34,3-.77.3-.09.49-.22.43-.37s-.2-.19-.43-.11a3.9,3.9,0,0,1-1.22.19c-.49,0-.92-.44-1.44-2l-2.77-8.48.09,0c.55.22,3.66,2.07,6.79,3.61s6.58,3.29,8.35,4.13a1.61,1.61,0,0,0,1,.18c.2-.07.31-.31.2-.78l-3.63-13.3c-.32-1.19-.25-1.6.3-2a1.9,1.9,0,0,1,.69-.26c.25-.08.36-.24.31-.35s-.27-.13-.58-.05c-1.1.33-1.93.63-2.18.69-.46.16-1.7.46-2.88.79-.33.11-.56.2-.5.38s.11.19.4.1a4.59,4.59,0,0,1,1.23-.2c.6,0,.91.34,1.31,1.62l3,9.24-.12,0c-.42-.17-4.28-2.26-6.25-3.27-4.19-2.1-8.55-4.45-8.91-4.65s-.9-.48-1.17-.4-.29.42-.17.83l3.42,12.5c.53,1.82.6,2.41.06,2.72a3.79,3.79,0,0,1-.68.3,5.08,5.08,0,0,0-.07-1v0a.43.43,0,0,0,0-.14.46.46,0,0,0,0-.19.31.31,0,0,0,0-.1s0,0,0-.08l0,0s-.23-.48-.25-.49l0-.06-1.05-2.29-11.09-23.8c34.62-8,55.06-18.19,67.1-27.13,7.4-5.51,11.59-10.54,14-14.35l.34-.52.42-.75a3.85,3.85,0,0,0,.26-1.29c.28.27.69.66,1.17,1.14C377,418.91,395,436.27,395,436.27a5.91,5.91,0,0,1,1.93,4.67,17.17,17.17,0,0,1-2.7,8.23,39.3,39.3,0,0,1-2.49,3.75,58.2,58.2,0,0,1-8.83,9.53c-2.14,1.72-4.51,3.59-6.89,5.49a131.84,131.84,0,0,1-15.18,9.28A218.62,218.62,0,0,1,309.75,495.91Z"/><path id="_Path_19" data-name="&lt;Path&gt;" class="cls-4" d="M361.3,500.38c.07-.09.17-.16.24-.25a1.28,1.28,0,0,0,.1-.17l.15-.25a.47.47,0,0,0-.06.09.58.58,0,0,1,.08-.1c.23-.38.45-.76.64-1.15A14,14,0,0,0,364,492a27.35,27.35,0,0,0-3.27-12,2.87,2.87,0,0,1-.15-.32l1.6-.83c11.45-6.08,22.14-13.5,29.36-22.2,1.71,5.91,6,22.05,6,36,0,8.61-1.63,16.34-6.54,20.25-7,5.64-16.7-.51-16.79-.56-1.15-.72-7.58-4.72-13.18-8-1.14-.66-2.25-1.32-3.27-1.9h.06A6.28,6.28,0,0,0,361.3,500.38Z"/><path id="_Path_20" data-name="&lt;Path&gt;" class="cls-4" d="M350.12,497.34a8.2,8.2,0,0,1-.84-3.65,3,3,0,0,1,0-.45l10.1,6c-2,1.93-5.13,1.2-6.2.87A8.66,8.66,0,0,1,350.12,497.34Z"/><path id="_Path_21" data-name="&lt;Path&gt;" class="cls-2" d="M321.46,460.6c-5.77,2.28-6.17,7.62-4.82,11.1s5.4,7.06,10.91,4.88c4.88-1.93,6.48-6.8,4.66-11.46S326.22,458.7,321.46,460.6Z"/><path id="_Path_22" data-name="&lt;Path&gt;" class="cls-4" d="M327.89,475.16c-3.58,1.42-7-1-8.68-5.2-2-5,0-7.23,2.1-8.07,3.06-1.21,6.58.58,8.37,5.08C332,472.75,329.22,474.65,327.89,475.16Z"/><path id="_Path_23" data-name="&lt;Path&gt;" class="cls-2" d="M240.92,476.93a5.77,5.77,0,0,1-1.18,0c-.67-.08-.85-.44-.94-1.1-.16-1-.28-2.94-.38-5.26l-.2-4.26c-.18-3.66-.19-4.35-.19-5.11s.17-1.2.78-1.35a2.79,2.79,0,0,1,.67-.12c.22,0,.34-.08.33-.29s-.18-.2-.46-.17c-.88,0-2.33.15-2.9.19s-2.19,0-3,.08c-.36,0-.53.1-.53.24s.16.27.4.26a2.39,2.39,0,0,1,.8.07c.48.15.75.42.82,1.24s.1,1.44.3,5.1l.17,4.27c.14,2.32.22,4.25.17,5.25,0,.72-.17,1.07-.61,1.2a3,3,0,0,1-.77.12c-.26,0-.35.16-.35.27s.17.25.43.25c.91-.06,2.45-.22,3-.24s2.15,0,3.64-.09c.26,0,.43-.11.43-.27A.32.32,0,0,0,240.92,476.93Z"/><path id="_Path_24" data-name="&lt;Path&gt;" class="cls-2" d="M255.8,457.3c-.08,0-.26.09-.61.2a8.2,8.2,0,0,1-1.51.28l-9.09,1.09a19.37,19.37,0,0,1-2.24.14,9.41,9.41,0,0,1-1-.16c-.13,0-.19.16-.21.48s-.18,2.58-.14,3,.12.39.24.37.2-.12.23-.32a2.73,2.73,0,0,1,.29-.88c.27-.56.79-.8,2.07-1l3.32-.49,1.14,9.71c.27,2.19.51,4.1.53,5.13,0,.71-.08,1.18-.53,1.34a2.07,2.07,0,0,1-.77.18c-.29,0-.33.18-.33.28s.2.26.46.23c.91-.1,2.41-.38,2.92-.44s2.15-.17,3.62-.35c.26,0,.43-.13.4-.29s-.13-.25-.37-.22a9.21,9.21,0,0,1-1.17,0c-.67,0-.84-.46-1-1.14-.23-1-.49-2.9-.75-5.13l-1.14-9.7,2.82-.28c2-.2,2.68.45,2.81,1.08l0,.25c.08.36.13.46.32.44s.14-.14.14-.42c-.06-.62-.22-2.4-.28-2.9S255.94,457.29,255.8,457.3Z"/><path id="_Path_25" data-name="&lt;Path&gt;" class="cls-2" d="M216.67,473.72c-.14,0-.2.1-.3.34-.24,1-.56,1.46-1.16,1.67a5.15,5.15,0,0,1-2.13.1l-5.27-.63a2.1,2.1,0,0,1-1.13-1.29c-.07-.19-.1-.38-.16-.57-.27-1.46-.71-3.82-1.2-6.28,0,0,8.52,1.25,8.89,1.36.83.16,1.08.58,1.14,1.06,0,.32,0,.61,0,.88a.17.17,0,0,0,.17.21c.22,0,.26-.3.29-.5s.17-1.12.28-1.6c.26-1.2.38-1.58.38-1.73a.52.52,0,0,0-.06-.27c-.2,0-.3.11-.5.27s-.56.26-1.1.26-9.74-1.32-9.74-1.32c-.58-2.9-1.1-5.73-1.38-7.17,1.77.3,9.84,1.44,10.18,1.53,1.12.23,1.26.6,1.39,1a2.39,2.39,0,0,1,.05.9c0,.2,0,.32.15.32s.27-.25.3-.37.26-1.3.3-1.56a7.91,7.91,0,0,1,.35-1.53c0-.1,0-.23-.12-.26a2.46,2.46,0,0,0-.4.09,5.75,5.75,0,0,1-.95,0c-.41,0-11.09-1.82-11.95-1.9h0c-.23-.05-.45.2-.82.82l-8.48,13.92c-.69,1.13-1.19,1.77-2.23,1.77l-.68-.08c-.16,0-.25,0-.28.2s.08.27.36.32c1.17.21,2.36.34,2.58.38.72.13,1.73.39,2.46.52.24.05.38,0,.4-.19s0-.24-.27-.31l-.33,0c-.69-.13-.85-.4-.77-.84a5,5,0,0,1,.59-1.38l1.77-3c.06-.15.11-.17.24-.15l5.19.94c.12,0,.18.07.22.22l.83,5.08a.38.38,0,0,1-.3.5c-.22,0-.29.06-.31.21s.19.23.61.31c1.12.17,3,.4,4,.52s2.06.27,2.88.36c1.16.15,2.63.34,4.28.52.86.09,1,.11,1.27-.49a16.42,16.42,0,0,0,.59-2.62C216.85,474.05,216.85,473.74,216.67,473.72Z"/><path id="_Path_26" data-name="&lt;Path&gt;" class="cls-4" d="M202.5,468.3l-4.3-.77c-.07,0-.11-.07,0-.19l3.22-5.63c0-.06.11-.21.17-.19l.07.25,1,6.41C202.63,468.27,202.6,468.33,202.5,468.3Z"/><path id="_Path_27" data-name="&lt;Path&gt;" class="cls-2" d="M231.92,459.55a4.3,4.3,0,0,0-.62.08,8.71,8.71,0,0,1-1.52.08l-9.16-.24a17.87,17.87,0,0,1-2.25-.17c-.56-.1-.79-.31-1-.31s-.2.13-.26.44-.55,2.52-.55,2.92,0,.41.19.41.21-.11.26-.31a3.4,3.4,0,0,1,.4-.82c.33-.52.9-.66,2.19-.66H223l-.25,9.77c0,2.2-.12,4.11-.24,5.14-.1.7-.24,1.14-.7,1.25a2.64,2.64,0,0,1-.81.07c-.27,0-.33.13-.33.24s.13.27.38.27c.91,0,2.45,0,3,0s2.16.14,3.65.17c.25,0,.42-.07.44-.24s-.1-.27-.34-.27a6.82,6.82,0,0,1-1.16-.11c-.67-.13-.8-.59-.84-1.29-.09-1-.06-2.94,0-5.18L226,461l2.82.15c2,.08,2.59.82,2.63,1.45l0,.27c0,.37,0,.49.22.49s.21-.14.24-.41c0-.62.13-2.41.13-2.91S232.08,459.55,231.92,459.55Z"/><path id="_Path_28" data-name="&lt;Path&gt;" class="cls-2" d="M191,469.63c-.18-.06-.27.07-.37.28a3.32,3.32,0,0,1-.94,1.22c-.74.47-1.58.23-2.75-.12-1.66-.51-2.45-.92-2.7-1.38s.1-2.05,1-5l1.24-4.08c1.09-3.48,1.28-4.14,1.56-4.85s.58-1.09,1.2-1a4.63,4.63,0,0,1,.84.17c.28.08.42,0,.47-.13s-.08-.24-.4-.35c-.83-.26-2.6-.74-3.11-.91s-2-.66-3-1c-.32-.1-.49-.1-.53.07s0,.27.26.35a3,3,0,0,1,.71.31c.62.43.72.73.54,1.55s-.39,1.38-1.47,4.88l-1.27,4.08c-.64,2.12-1.2,3.93-1.61,4.89-.27.66-.53,1.05-1,1a3.08,3.08,0,0,1-.78-.15c-.29-.08-.39,0-.41.14s.05.29.33.38l1.51.42c.52.13,1,.26,1.23.35.89.26,1.76.56,2.85.92s2.29.81,3.83,1.26c1.14.35,1.26.29,1.57-.18a21.61,21.61,0,0,0,1.14-2.57C191.15,469.93,191.18,469.67,191,469.63Z"/><path id="_Path_29" data-name="&lt;Path&gt;" class="cls-2" d="M285.36,469a7.55,7.55,0,0,1-.85.12c-.42,0-1.12-.13-2.48-2-2.26-3.22-8.31-11.92-9.15-13.08-.33-.47-.49-.67-.84-.59s-.33.38-.4,1.09l-2.08,16.17c-.16,1.32-.34,2.14-1.29,2.54l-.64.19-.07,0a.29.29,0,0,0-.35-.11,8.89,8.89,0,0,1-1.13.13c-.68,0-.9-.34-1.11-1-.28-1-.63-2.89-1.06-5.18l-.76-4.19c-.67-3.61-.8-4.27-.89-5.05s0-1.21.58-1.43a4,4,0,0,1,.67-.22c.21,0,.33-.12.28-.34s-.2-.17-.47-.12c-.87.17-2.29.49-2.84.58s-2.16.37-3,.51c-.35.07-.49.15-.45.28s.15.27.38.24a2.12,2.12,0,0,1,.83,0c.5.08.79.32,1,1.12s.27,1.42.95,5l.78,4.19c.43,2.29.78,4.19.85,5.17.06.72,0,1.09-.43,1.27a2.78,2.78,0,0,1-.77.25c-.28,0-.34.2-.31.31s.21.23.45.17c.9-.15,2.41-.54,2.89-.62s2.15-.3,3.58-.59a.61.61,0,0,0,.26-.09c.08.15.19.18.43.13,1.15-.29,2.3-.65,2.52-.73.7-.15,1.72-.32,2.46-.5.21-.06.32-.14.28-.35s-.11-.23-.38-.16l-.32.08c-.67.16-.94,0-1-.45a6.25,6.25,0,0,1,0-1.52l.42-3.43c0-.16,0-.18.14-.21l5.14-1.27a.2.2,0,0,1,.27.11l2.86,4.29a.41.41,0,0,1-.07.59c-.2.07-.25.17-.2.31s.29.1.68,0c1.87-.39,3.44-.79,4.2-1s.94-.3.9-.48S285.56,469,285.36,469Z"/><path id="_Path_30" data-name="&lt;Path&gt;" class="cls-4" d="M276.29,464.16l-4.23,1c-.07,0-.14,0-.1-.14l.64-6.45c0-.09,0-.24.06-.27s.1.14.14.21l3.56,5.44C276.39,464.08,276.39,464.14,276.29,464.16Z"/><path id="_Path_31" data-name="&lt;Path&gt;" class="cls-2" d="M365.7,453.74c.33.55.5,1,.16,1.34a2.78,2.78,0,0,1-.6.57c-.21.18-.19.32-.13.41s.28.07.49-.1c.73-.58,1.88-1.57,2.22-1.85s1.86-1.36,2.92-2.2c.24-.19.33-.35.24-.47a.25.25,0,0,0-.37,0,8.26,8.26,0,0,1-.95.65c-.63.35-1,.1-1.42-.36a43.14,43.14,0,0,1-3-3.58l-.19-.23a.16.16,0,0,1,.05-.25l1.66-1.27a.65.65,0,0,1,.44-.14c.46.08,2.14.63,3.59,1,2.08.52,3.66.84,4.73.59a4.3,4.3,0,0,0,2.09-1.16l.46-.53c.55-.57,1-1.07,1.16-1.27a.39.39,0,0,0,.13-.13c.52-.54,1.32-1.25,1.84-1.79.18-.15.23-.3.11-.42s-.21-.12-.42.09l-.25.24c-.48.51-.81.51-1.08.23a4.11,4.11,0,0,1-.72-1.17l-1.21-3c0-.14,0-.16.05-.24l3.87-4a.21.21,0,0,1,.27-.05l4.41,1.76a.35.35,0,0,1,.19.51c-.14.18-.13.27,0,.37s.31-.09.62-.37c1.43-1.38,2.63-2.61,3.21-3.2s.66-.75.53-.89-.24-.08-.39.09-.38.33-.65.56-1,.53-3.08-.21c-3.41-1.26-12.54-4.71-13.81-5.15-.5-.17-.74-.24-1,0s-.11.49.15,1.14l5.51,14a3.32,3.32,0,0,1,.34,2.05,6.25,6.25,0,0,1-2,.07c-1.95-.19-4.47-.72-7.63-1.37.69-2.81.56-4.54-.42-5.81a3.81,3.81,0,0,0-3.17-1.34,8.46,8.46,0,0,0-4.07,2c-.58.44-2.21,1.81-2.85,2.3-.36.28-1.6,1.18-2.55,1.94-.28.23-.39.38-.3.5s.27.09.45-.07.61-.43.8-.52a1.09,1.09,0,0,1,1.52.31c.46.52.83,1,2.9,3.6l2.36,3A41.69,41.69,0,0,1,365.7,453.74Z"/><path id="_Path_32" data-name="&lt;Path&gt;" class="cls-4" d="M377.17,437.51c-.07.05-.13.05-.17-.06L374.64,432c0-.08-.11-.18-.05-.25s.15.05.23.08l5.5,2.3c.08,0,.08.09,0,.17Z"/><path id="_Path_33" data-name="&lt;Path&gt;" class="cls-4" d="M359.91,441.37a.26.26,0,0,1,0-.37,7,7,0,0,1,1-.93,3.49,3.49,0,0,1,5.2.83,3.67,3.67,0,0,1,.82,3.48c-.14.47-.36.74-1.09,1.31a6.33,6.33,0,0,1-1.51.95c-.17.05-.26,0-.42-.18Z"/><path id="_Path_34" data-name="&lt;Path&gt;" class="cls-2" d="M339.64,459.86l-1.08,0c-2.37-.07-3.07-.6-3.51-1.46-.67-1.34.31-2.77,1.83-3.53a3.25,3.25,0,0,1,2.79-.26,2.48,2.48,0,0,1,1.21,1c.1.23.23.3.36.23s.18-.34,0-.75c-.77-1.54-1-2.12-1.09-2.38s-.21-.15-.42-.1a13.41,13.41,0,0,0-3.15,1.18c-2.92,1.45-4.53,4.18-3.33,6.57.86,1.73,2.34,2.63,5.5,2.78l1.57.08c2.39.12,3,.88,3.45,1.71.71,1.37.16,3-1.65,3.94-1.31.67-3.15,1-4.32-.24a3.46,3.46,0,0,1-.7-.94c-.08-.12-.17-.28-.37-.19s-.15.34,0,.63.66,1.58,1.19,2.66c.22.43.34.5.73.46a10.64,10.64,0,0,0,3.67-1.2,7,7,0,0,0,3.12-2.58,4.61,4.61,0,0,0,.27-4.69C344.76,461,343.18,459.94,339.64,459.86Z"/><path id="_Path_35" data-name="&lt;Path&gt;" class="cls-2" d="M359.67,459.33a8.7,8.7,0,0,1-1.07.58c-.63.26-1,0-1.35-.48-.6-.76-1.52-2.21-2.58-3.91L350,448l2.55-1.51c1.81-1.1,2.7-.84,3-.4l.15.19c.2.28.29.33.45.24s.09-.21,0-.43c-.3-.47-1.09-1.88-1.36-2.25s-.26-.39-.4-.31-.18.18-.47.42a14,14,0,0,1-1.32.93l-8.11,5c-.67.41-1.42.86-2,1.16s-.83.2-1,.31-.1.23,0,.5a25.66,25.66,0,0,0,1,2.51c.13.19.22.28.37.19s.12-.2.08-.38a2.42,2.42,0,0,1-.05-.84c.05-.6.43-1,1.55-1.75l2.95-1.92,4.65,7.51a44.16,44.16,0,0,1,2.36,4c.29.59.38,1,0,1.36a3,3,0,0,1-.67.5c-.26.15-.26.29-.2.38s.27.13.53,0c.76-.5,2.1-1.41,2.55-1.69s2-1.1,3.27-1.92c.24-.15.34-.3.26-.45S359.9,459.21,359.67,459.33Z"/><path id="_Path_36" data-name="&lt;Path&gt;" class="cls-4" d="M362.62,410.51a4,4,0,0,1,3.17-1,4.73,4.73,0,0,1,.9.22,2.47,2.47,0,0,1,1.33,3.1l-.26.44-.34.56a47,47,0,0,1-9.51,10.51C358.56,419.21,360,412.67,362.62,410.51Z"/><path id="_Path_37" data-name="&lt;Path&gt;" class="cls-2" d="M119,454.48c.63-1.21,1.09-3.74-2.81-5.79-.72-.35-1.6-.73-2.65-1.3-.4-.2-1.71-1-2.85-1.59-.32-.14-.48-.19-.57,0s0,.25.25.39a3.5,3.5,0,0,1,.78.51c.65.53.62,1,.26,1.75s-.66,1.38-2.47,4.83l-2.07,3.94c-1.07,2.09-2,3.86-2.62,4.75-.42.61-.77,1-1.27.91a2.94,2.94,0,0,1-.82-.31c-.24-.12-.35-.11-.43,0s0,.31.32.44,1,.48,1.49.75,1,.5,1.23.6,1,.52,1.58.91l1.46.86c3.94,2.06,7,.49,8.27-1.92,1.38-2.64.11-5.35-1.34-6.92C116.49,456.88,118.07,456.3,119,454.48Z"/><path id="_Path_38" data-name="&lt;Path&gt;" class="cls-4" d="M113,463.81c-1.21,2.35-3.12,2-4.09,1.53a4,4,0,0,1-1.41-1.08c-.55-.65-.39-1.09.37-2.56l2.8-5.35c.06-.1.12-.12.21-.07l.91.49a3.47,3.47,0,0,1,1.5,1.47A6.09,6.09,0,0,1,113,463.81Z"/><path id="_Path_39" data-name="&lt;Path&gt;" class="cls-4" d="M112.35,455.88a8.1,8.1,0,0,1-1-.6c-.06,0-.11-.13,0-.33l2.9-5.55c.14-.28.24-.31.42-.29a4.69,4.69,0,0,1,.72.31c1.84,1,1.65,3.41.83,4.91a3.43,3.43,0,0,1-2.11,1.94A2.37,2.37,0,0,1,112.35,455.88Z"/><path id="_Path_40" data-name="&lt;Path&gt;" class="cls-2" d="M101.54,462.38a3.36,3.36,0,0,1-.76-.64c-.39-.38-.77-1.06-.27-3.48.82-4.07,3.31-14.87,3.59-16.37.12-.61.12-.89-.06-1s-.48,0-1.12.49l-13.85,10c-1.11.78-2,1.24-3,.77-.2-.09-.47-.26-.66-.36s-.24-.13-.34,0,0,.28.25.44c1,.7,2.18,1.38,2.41,1.52.65.4,1.44,1,2.09,1.47.24.15.39.19.52,0s0-.21-.23-.36l-.3-.21c-.6-.41-.6-.8-.37-1.18a5,5,0,0,1,1.16-1.1l3.08-2.32c.14-.11.21-.11.29-.06l4.51,3a.21.21,0,0,1,.11.28l-1.34,5.57a.43.43,0,0,1-.51.37c-.23-.1-.32-.1-.42,0s.15.32.49.57c1.6,1.09,3.07,2.08,3.81,2.56s1,.57,1.06.39S101.7,462.51,101.54,462.38Z"/><path id="_Path_41" data-name="&lt;Path&gt;" class="cls-4" d="M98.83,451.67l-3.72-2.45c-.09-.05,0-.12,0-.2l5.3-4c.08-.08.18-.15.25-.1s0,.15,0,.24L99,451.63C99,451.69,98.93,451.74,98.83,451.67Z"/><path id="_Path_42" data-name="&lt;Path&gt;" class="cls-2" d="M131.92,455.43c-6.37-2.59-11,1.63-12.78,5.64s-1.57,10.18,4.52,12.64c5.38,2.18,10.62-.68,13-6S137.22,457.56,131.92,455.43Z"/><path id="_Path_43" data-name="&lt;Path&gt;" class="cls-4" d="M133.32,467.32c-3,6.79-6.78,6.2-8.26,5.58-4.06-1.65-4.82-6.49-2.67-11.38,2.55-5.83,6-6.21,8.43-5.22C134.28,457.71,135.61,462.07,133.32,467.32Z"/><path id="_Path_44" data-name="&lt;Path&gt;" class="cls-2" d="M152.06,483.25a3.32,3.32,0,0,1-.62-.26,4.69,4.69,0,0,1-2-2.48c-.9-1.95-1.78-4.6-3-8,3-1.25,4.2-2.67,4.8-4.46a4.37,4.37,0,0,0-.53-3.82,7.35,7.35,0,0,0-3.88-2.39c-.72-.24-2.48-.71-3.27-1-.49-.16-1.91-.69-3.15-1.09-.34-.11-.49-.11-.55.07s.06.24.31.34a3.9,3.9,0,0,1,.88.36c.69.41.75.87.55,1.7s-.44,1.47-1.6,5.14l-1.37,4.27c-.72,2.23-1.33,4.13-1.77,5.12-.34.65-.61,1.15-1.08,1.11a3.5,3.5,0,0,1-.89-.16c-.27-.1-.39-.05-.43.07s.09.3.39.4c.93.29,2.39.68,2.85.83s2,.72,3.33,1.14c.31.1.48.09.54-.09s0-.22-.21-.28a10,10,0,0,1-1.09-.46c-.65-.31-.62-.9-.46-1.61.2-1.06.83-3,1.53-5.22l.13-.36a.15.15,0,0,1,.22-.12l2,.69c.17.05.3.11.35.3.19.47.71,2.45,1.22,4.08.7,2.28,1.2,3.7,2,4.56a4.62,4.62,0,0,0,2.34,1.25l2.18.69c.28.1.46.1.51-.09S152.23,483.33,152.06,483.25Z"/><path id="_Path_45" data-name="&lt;Path&gt;" class="cls-4" d="M143.83,471.5a6,6,0,0,1-1.69-.79c-.12-.12-.14-.25,0-.5l2.37-7.36c0-.19.11-.29.31-.29a5.58,5.58,0,0,1,1.24.3c1.37.43,3.2,2.13,2.1,5.56-.64,2-1.66,2.89-2.52,3.2A2.31,2.31,0,0,1,143.83,471.5Z"/><path id="_Path_46" data-name="&lt;Path&gt;" class="cls-2" d="M86.76,448.34c-.15-.15-.3-.07-.47.07a3,3,0,0,1-1.55.63c-1,.07-1.73-.63-2.77-1.59-1.52-1.43-1.9-2-2-2.63s1.09-2,3.31-4.37l3.05-3.27c2.64-2.83,3.13-3.33,3.71-3.9s1.1-.8,1.72-.39a7.61,7.61,0,0,1,.81.64c.24.23.4.32.51.16s0-.27-.26-.54c-.77-.71-2.24-2-2.72-2.42s-1.69-1.7-2.6-2.55c-.3-.28-.48-.36-.58-.24s0,.28.16.48a4.7,4.7,0,0,1,.6.66c.52.74.4,1.17-.17,1.84s-1,1.15-3.63,4l-3,3.29c-1.6,1.69-3,3.16-3.8,3.85-.58.48-1.08.79-1.52.5a4.81,4.81,0,0,1-.77-.58c-.23-.22-.37-.24-.46-.16s0,.33.23.57.93.8,1.38,1.22l1.13,1c.8.75,1.49,1.42,2.31,2.29s1.86,1.8,3.27,3.13c1,1,1.19,1,1.69.64a20.62,20.62,0,0,0,2.29-1.86C86.83,448.57,86.9,448.47,86.76,448.34Z"/><path id="_Path_47" data-name="&lt;Path&gt;" class="cls-4" d="M94.84,409.71a4.69,4.69,0,0,1,.91-.24,4.08,4.08,0,0,1,3.21,1c2.62,2.16,4,8.7,4.69,13.81a47.27,47.27,0,0,1-9.52-10.54l-.26-.4-.34-.6a3.1,3.1,0,0,1-.19-.67v-.05A2.62,2.62,0,0,1,94.84,409.71Z"/><path id="_Path_48" data-name="&lt;Path&gt;" class="cls-5" d="M229.67,417h0C163.86,417,110,363.19,110,297.39V130.73H349.31q0,83.33,0,166.66C349.31,363.19,295.47,417,229.67,417Z"/><path id="_Path_49" data-name="&lt;Path&gt;" class="cls-6" d="M344.59,297.47a114.93,114.93,0,0,1-196.17,81.2A116.19,116.19,0,0,1,132,358c-2.46-4.09-4.64-8.15-6.55-12.07a114.68,114.68,0,0,1-10.72-48.47v-162H344.59Z"/><path id="_Path_50" data-name="&lt;Path&gt;" class="cls-7" d="M124.05,161.43c1.25-.93,7.2-5.24,7.2-5.24l7.26,5.25-2.77-8.53,7.22-5.25h-8.9l-2.78-8.58c-.47,1.49-2.79,8.58-2.79,8.58h-9l7.32,5.31S124.52,159.94,124.05,161.43Z"/><path id="_Path_51" data-name="&lt;Path&gt;" class="cls-7" d="M321,161.43c1.26-.93,7.19-5.24,7.19-5.24s6,4.35,7.27,5.26c-.47-1.49-2.75-8.54-2.75-8.54l7.2-5.25H331s-2.29-7.09-2.78-8.58l-2.77,8.58h-9l7.33,5.31Z"/><path id="_Path_52" data-name="&lt;Path&gt;" class="cls-7" d="M192.91,384.55s-2.29-7.11-2.78-8.6l-2.78,8.6h-9l7.34,5.3s-2.25,7-2.74,8.46l7.2-5.23s6,4.32,7.26,5.24l-2.75-8.53s5.94-4.32,7.21-5.26Z"/><path id="_Path_53" data-name="&lt;Path&gt;" class="cls-7" d="M271.93,384.55s-2.31-7.11-2.81-8.6c-.46,1.49-2.76,8.6-2.76,8.6h-9.05l7.34,5.3-2.75,8.46c1.28-.91,7.21-5.23,7.21-5.23s6,4.32,7.26,5.24c-.48-1.49-2.77-8.53-2.77-8.53s5.94-4.32,7.2-5.26Z"/><path id="_Path_54" data-name="&lt;Path&gt;" class="cls-7" d="M320.18,329l7.19-5.25,7.26,5.26c-.46-1.48-2.73-8.55-2.73-8.55l7.19-5.22h-8.9s-2.3-7.1-2.77-8.6l-2.81,8.6h-9.06l7.38,5.31S320.64,327.47,320.18,329Z"/><path id="_Path_55" data-name="&lt;Path&gt;" class="cls-4" d="M229.67,380.83a83.52,83.52,0,0,0,83.43-83.39l0-130.53H146.19V297.47A83.56,83.56,0,0,0,229.67,380.83Z"/><path id="_Path_56" data-name="&lt;Path&gt;" class="cls-8" d="M150.93,171.65H308.39V297.44a78.73,78.73,0,0,1-157.46,0Z"/><path id="_Path_57" data-name="&lt;Path&gt;" class="cls-7" d="M134.86,315.19s-2.3-7.09-2.78-8.59c-.48,1.5-2.78,8.59-2.78,8.59h-9.05c1.27.94,7.33,5.32,7.33,5.32s-2.27,7-2.74,8.45l7.2-5.26s6,4.37,7.28,5.28c-.49-1.49-2.76-8.55-2.76-8.55l7.21-5.24Z"/><path id="_Path_58" data-name="&lt;Path&gt;" class="cls-2" d="M174,267a5.93,5.93,0,0,0,4.48.25,5.45,5.45,0,0,0,3.17-2.79,5.83,5.83,0,0,0,.59-2.64,3,3,0,0,0,0-.42,14.52,14.52,0,0,1,7.05.84l.13,0,3,.91c1.64.49,4.26,1.23,7.36,1.88.8.21.8.21,1.63,1.63l1.13,1.87a7,7,0,0,0,8.09,3l1-.34a7.61,7.61,0,0,0,8.05,1.84l2.83-1.06-2.24-2a11.28,11.28,0,0,1-2.84-3.26,36.16,36.16,0,0,0,5.18-.67,33.28,33.28,0,0,0,11.63,9.63,48.71,48.71,0,0,1-11.26,3.62c-1.83.25-7.75,1.51-11.5,6.29-4-.28-6.79.81-7.89,3.19a6.32,6.32,0,0,0,.39,6.09c2.26,3.45-.8,8-.8,8a9.5,9.5,0,0,0,6.11-2.52c.18.66.38,1.34.63,2A33,33,0,0,0,216,313.13c1.35,1.65,2,2.51,2,3.49a4.75,4.75,0,0,1-.87,2.27,35.34,35.34,0,0,1-10.4,8.92,23.93,23.93,0,0,1-5.64,2.39c-3.19.8-4.25-.21-4.32-.51a5.65,5.65,0,0,0-6.16-4.64,5.78,5.78,0,0,0-3.78,2c-2,.33-3.53,1.45-3.9,3.13a3.34,3.34,0,0,0-.16,1.27,7.44,7.44,0,0,0,1.92,4.81,4.87,4.87,0,0,1,1.81-2.43,5.15,5.15,0,0,0,1,1.12,5.55,5.55,0,0,0-2.58,4.09,4.65,4.65,0,0,0-2,3.46c0,.14,0,.28,0,.42a6.19,6.19,0,0,0,3.85,5c0-.09.33-3,1.12-3.45a6,6,0,0,0,3.27.61l.7-.12V345a4.78,4.78,0,0,0,.33,1.34A4.91,4.91,0,0,0,192,348a3.33,3.33,0,0,0,.25,1.47c2,4.24,6.71,3.33,6.71,3.33s-1.37-1.75-1.17-3v0a2.42,2.42,0,0,0,.38,0,5.79,5.79,0,0,0,3.9-2.11,5.42,5.42,0,0,0,1.25-3.45,3.39,3.39,0,0,0,0-.55,5.83,5.83,0,0,0-1.07-2.83c1.19-1.26,5.1-3.08,9.12-3.32a15.56,15.56,0,0,1,3.55.4c2.94.55,6.58,1.23,10.41-1.39l3-2.09a5.47,5.47,0,0,0,2.47-2.23s.28-.49.55-.9a7.65,7.65,0,0,0,5.17-4s.38-.69.77-1.37a7.8,7.8,0,0,0,3.91-4.4l.07-.14a11,11,0,0,0,1.61.8,11.55,11.55,0,0,0,1.81.61,6.9,6.9,0,0,1,1.46.63c1.9,1.33,2.42,4.94,2.42,4.94a9.69,9.69,0,0,0,2.39-5.71,6.24,6.24,0,0,0-.25-1.88,32.64,32.64,0,0,0,4.51,1.65l2.05.59c4.88,1.54,7.2,2.61,7.2,4.58a2.36,2.36,0,0,1,0,.38c-.66,4.82-5.52,12.93-9.62,16.08-1.58,1.17-2.42,1.21-2.73,1.17a5.72,5.72,0,0,1-1.69-.39c-.79-1.33-2-3.3-4.53-3.63a5.62,5.62,0,0,0-3.54.68c-1.77-.34-3.32-.18-4.3.86-2.7,2.94-.95,7.72-.95,7.72a8.19,8.19,0,0,1,2.74-2,5.52,5.52,0,0,0,2.82,3.2,4.79,4.79,0,0,0-.84,2.18c0,.21,0,.41,0,.6a4.36,4.36,0,0,0-1.63,3.26v.13c.2,3.13,3.95,5.44,3.95,5.44a15.67,15.67,0,0,1,1.19-3.68,4.05,4.05,0,0,0,1.35.51,5.49,5.49,0,0,0,3-.45,5.69,5.69,0,0,0,2.56,3c0,.07,0,.12,0,.2a6.53,6.53,0,0,1-1.71,3.61s4.29,1.4,7.3-1.22a3.77,3.77,0,0,0,.93-2.8c0-.09,0-.21,0-.32a5.42,5.42,0,0,0,1.77-3.53,5,5,0,0,0,0-.77,5.39,5.39,0,0,0-2-4.22h0a3.42,3.42,0,0,1,.72-2c.86-1.15,2.44-1.78,4.58-1.82a11.38,11.38,0,0,1,1.62.19c3.16.5,9,1.43,12.34-4.86l.74-1.38a4.41,4.41,0,0,0,3.42-3.65s.05-.44.09-.71a5.9,5.9,0,0,0,3.33-4.81s.09-.63.14-1c4.32-1.55,4.63-8.64,4.63-8.64s-3.57,2.16-6.1,1.93c.08-.66.18-1.34.18-1.34a18.32,18.32,0,0,0,.31-2.71,4.14,4.14,0,0,0-.82-2.66c-1.14-1.5-3.28-2-6.15-2.27a18.61,18.61,0,0,1-3.3-.62l0,0,0-.06c-.63-.15-2.61-.84-3.17-2a1.46,1.46,0,0,1-.15-.68,2.94,2.94,0,0,1,.28-1.16,6.28,6.28,0,0,1,.95-1.42c7,2.48,10.57-1.17,11.81-3a4.08,4.08,0,0,0,.89-2.1,1.65,1.65,0,0,0-.51-1.22l-.09-.11a7.09,7.09,0,0,0,3.33-4.7l.7-3.42L285,298.76a9.3,9.3,0,0,1-3.79.61,22.92,22.92,0,0,0,.46-3.47c3.6,0,8.73-.63,12.56-3.95a13.46,13.46,0,0,0,4.5-10.5,18.5,18.5,0,0,0-2-8.38A9,9,0,0,0,298,268.7a7.49,7.49,0,0,0-2.48-5.54,13,13,0,0,0-3.25-2.23c-1.56-.81-2.27-1.2-2.63-4.14L289,252l-2.76,3.9a8.61,8.61,0,0,0-1.49,4.55c-5-4-6.77-7.36-6.77-12.91a9.67,9.67,0,0,1,2-5.63,12.89,12.89,0,0,0,8.5,1.8,11.54,11.54,0,0,0,8.05-4.69,29,29,0,0,0,2.64-5.4c1.41-3.5,2.56-6.19,7.05-8.31-2.34-2-7.12-1.73-9.85,0a25.64,25.64,0,0,0,.19-3.13c0-1-.06-2-.15-3,0-.12,0-.26,0-.38.08-4.56,6.1-9.52,6.1-9.52s-9.81-1.47-13.9,6.2A5.31,5.31,0,0,0,287.2,213s.18,3.82-7,7.15a12.67,12.67,0,0,0-6.91,7.14,10.24,10.24,0,0,0-.56,3.35,12.94,12.94,0,0,0,1.09,4.5,18.64,18.64,0,0,0-4.94,11.24,21.64,21.64,0,0,1-3.48-1.12c-1.74-.66-3.67-2-3.67-4.54a5.3,5.3,0,0,1,.12-.91c3.85,1.85,8.66-.17,8.66-.17s-4.9-2.74-5-6.5a4.57,4.57,0,0,1,.21-1.31l.8-2.09a5,5,0,0,1,.2-.49c.52,1.72.33.47.9,4.57a15.46,15.46,0,0,0,4.75-10.91,14,14,0,0,0-.32-2.94c2.78.45,6.39-1.49,6.39-1.49s-5.2-2.73-6.67-7.87c6.7.68,10.23-5.64,10.23-5.64s-5,.36-7.17-2a3.73,3.73,0,0,1-.84-2c4.05-1.25,8.12,1.87,8.12,1.87s-.7-6-7.22-11.11a15,15,0,0,0,3.19-8.38s-5.52,2.74-7.95,2.91a13.33,13.33,0,0,0,1.86-6.72,15,15,0,0,0-1.13-5.15,17.67,17.67,0,0,1-6.34,6.22,15.07,15.07,0,0,1-6.71,1.93s-1.14.14-2.28.25a6.88,6.88,0,0,0-3-.64,7.06,7.06,0,0,0-6,3.79c-5.43-1-9.21-1.05-11.2-.17-7.47-.64-11.92-.08-13.22,1.69a4,4,0,0,0-.73,2.3A4.55,4.55,0,0,0,222,192l.11.19a5.93,5.93,0,0,0-.69,2.73c0,.2,0,.4,0,.59a8.63,8.63,0,0,0,1.91,4.52,2.16,2.16,0,0,1-1.76-.32c-3.11-2.27-3.09-8.63-3.09-8.63s-5.62,4.44-4.74,10.57a7.27,7.27,0,0,0,4.22,5.82,8.61,8.61,0,0,0,4.08.76,8,8,0,0,0-.29,2.11,13.25,13.25,0,0,0,.75,4.06c-11.08-3-14.56,4.79-15.51,8a11.87,11.87,0,0,1-1.77-1.32v-9.8a.94.94,0,0,0-.35-.74l-5.15-3.69a1.1,1.1,0,0,0-.26-.14l-3.64-1.1-.19,0a6.05,6.05,0,0,0,.11-1.21,5.69,5.69,0,0,0-5.73-5.65,5.78,5.78,0,0,0-4.38,1.75,6,6,0,0,0-9.63.47,5.31,5.31,0,0,0-3.89-1.47,5.21,5.21,0,0,0-5.2,5.18c0,.08,0,.16,0,.24s-.35.08-.82.23a68.22,68.22,0,0,0-7.13,2.47,1,1,0,0,0-.4.31l.15-.15-5.48,4.21a.9.9,0,0,0-.35.72V249a.88.88,0,0,0,.89.9l15.09,0a4.58,4.58,0,0,0-.67.72,4.43,4.43,0,0,0-3.75,2.3,4.83,4.83,0,0,0-.58,2.4,9.31,9.31,0,0,0,1.27,4.26A7,7,0,0,1,168,256.9a6.14,6.14,0,0,0,2.52,2.29,6.24,6.24,0,0,0,.72.27l-.07.1a5.17,5.17,0,0,0-.43,1.33A4.56,4.56,0,0,0,169,263.6a3.32,3.32,0,0,0-.13,1,6.16,6.16,0,0,0,4.74,5.6c-.31-1.86-.43-2.47,0-3.45C173.69,266.81,173.82,266.9,174,267Z"/><path id="_Path_59" data-name="&lt;Path&gt;" class="cls-3" d="M229.56,326.26c.14.39,1.6.36,5.32.1-2.89,5.18-7.88,2.42-8.46,3.47,0,0-.57,1.12,2.77,1.39-2.23,3.63-6.09.32-8.52,2.07,0,0-.41,1.25,3.54,1.69-4.71,3.27-9.06.44-13,.68-4.59.28-9,2.36-10.51,4.06a1.54,1.54,0,0,0-.38,1.65,4.57,4.57,0,0,1,1.15,2.48,3.85,3.85,0,0,1-3.47,4.07,4.37,4.37,0,0,1-1.48-.12,2.48,2.48,0,0,0-.08,3.24c-2.7-1-3.11-3-2.09-4.74a3,3,0,0,1-.53-1.47,4.14,4.14,0,0,1,2.77-4,1.43,1.43,0,1,0-1.94-1.37,3.7,3.7,0,0,1-3.55,3.79,4.13,4.13,0,0,1-3.07-1c-1.36.42-2.31,2-2,2.76a3.62,3.62,0,0,1-1.1-2.35c-.14-1,.81-2,1.9-2.67V340a3.85,3.85,0,0,1,3.53-4.09c2.24-.22,2.39.84,3,.83a1.4,1.4,0,0,0,1.26-.58,1.42,1.42,0,0,0-.19-1.91,1.29,1.29,0,0,0-1.57-.18,2.13,2.13,0,0,1-1.23.43,3.86,3.86,0,0,1-4.2-3.13c-.92.06-2.39.94-2.51,1.76a5,5,0,0,1-.16-2.47c.3-1.24,1.74-1.82,3.13-1.85a3.92,3.92,0,0,1,3-1.88A3.79,3.79,0,0,1,195,330c.21,1.22,2,3.12,6.58,2a25.82,25.82,0,0,0,6.11-2.57v0a36.14,36.14,0,0,0,11-9.52c3.9-6.39-3-6.27-7.15-18.07a19.19,19.19,0,0,1-1.12-9.73c-1.06-.05-2.07.55-1.57,3.13.76,4-3.15,5.4-3.15,5.4,2.5-4.65-2.16-7.46-.54-11,1.09-2.42,4.77-2.36,7-2.06,2.71-4.12,7.59-5.89,10.93-6.38,5.95-.87,13-4.33,13-4.33s4.58,2.08,7,3.1c2.07.89,6.44,2.24,8.31,5.44s-.83,6.88-.83,6.88-6.73-2.42-9.12.41.91,5,.91,5-2.71,2.61-7.14-1c0,0-1.42,1.41,1.51,3.69,0,0-2.6,2.36-6.82,0,0,0-.19.36-.43,1a10.94,10.94,0,0,0,1.59,8.94c3.23,4.12,7.21,6,2.3,10.6,1,.54,2-.06,6-.1C236.67,327.52,230.92,322.84,229.56,326.26Z"/><path id="_Path_60" data-name="&lt;Path&gt;" class="cls-8" d="M241.45,310.29a8.24,8.24,0,0,0-3.25,3.41l-.06.16-.13.34a4.88,4.88,0,0,0-.29,1.73,5.68,5.68,0,0,0,.95,3l-1.57.08a5.1,5.1,0,0,0,.49-2.07c0-2.28-1.66-4.09-3.12-5.68l-1.81-2.09a8.38,8.38,0,0,1-1.54-4.94c0-.42,0-.87.08-1.37a7.2,7.2,0,0,0,6.86-1.14l1.49-1.35a7.23,7.23,0,0,0,2.41-.35,6.12,6.12,0,0,0,3.07-2.5s-2.47-.94-2.51-2.74c0-.1-.06-.41.42-1,1-1.21,4.61-.69,6.86.07a31,31,0,0,1-3,3.64c-2.77,2.87-5.38,7.22-5.38,11.61C241.38,309.52,241.43,309.9,241.45,310.29Z"/><path id="_Path_61" data-name="&lt;Path&gt;" class="cls-3" d="M276,235.39c-2.95-5.44-.41-11.24,5-13.62,6.12-2.71,6.53-5.48,6.53-5.48.46,5.48-1.39,6.55-2.57,7.59a9.05,9.05,0,0,0-2,2c1.94-.27,4.55-1.64,5.05-3.41,1.54-5.61,3.63-10.6,11.34-11.84,0,0-5.09,4.22-4.65,8.82.46,4.84-.09,10.9-4.26,14.24a8,8,0,0,0,2.76-2.46c3.31-6.23,10.5-5.75,10.5-5.75-5.31,1.52-5.48,7.92-8.59,12.56-2.83,4.24-10.38,5.68-15.37,1.39a12.2,12.2,0,0,0-3.52,8.14c0,6.49,2.26,10.32,7.95,14.76,1.94,1.5,3.95,3.07,5.81,4.82.25-.46.44-1.54-1.74-3.38-3.25-2.74-.4-6.77-.4-6.77.69,5.83,3.36,4.56,6.41,7.48,3.7,3.53,1.1,7.57.44,8.46a17,17,0,0,1,2.24,8.5,11.62,11.62,0,0,1-3.84,9.1c-4.2,3.63-10.43,3.64-13.16,3.44a20.32,20.32,0,0,1-.91,6.68c2.89,1.46,6.76-.23,6.76-.23-.89,4.38-6.3,5.09-9,5.18a5,5,0,0,0-.74.09c1.07.74,3.19,1.63,7,1.17,0,0-2.67,6.63-11.38,2.84a9.59,9.59,0,0,0-2.13,2.85c-2.17,4.88,4.3,6.37,4.3,6.37l0,0a21.2,21.2,0,0,0,3.64.69c7.3.73,5.13,2.65,4.61,8.67.07.67,2.81.54,5.91-.64-.84,6.34-7.47,3.2-8,7.06,0,0,1.48,1,3.65-.44-.8,5.88-8.64,3.25-8.92,5.27.35.32,2,1,5.49.24-.52,3.85-8,1.45-8.49,4.95a6.22,6.22,0,0,0,4.52-.52c-3.4,6.44-9.86,3.61-12.37,3.66-7.4.18-7.58,6.29-6.74,6.8a3.6,3.6,0,0,1,1.6,3.62,3.41,3.41,0,0,1-1.92,2.88c1.08,4.18-3.42,3.85-3.42,3.85a3.84,3.84,0,0,0,.43-3.71,3.72,3.72,0,0,1-2.55-4,3.57,3.57,0,0,1,1.86-2.7,1.19,1.19,0,0,0-.23-1.85,1.08,1.08,0,0,0-1.53.41c-.37.45-.07,1.3-.16,1.89a3.86,3.86,0,0,1-4.28,3.18,3.75,3.75,0,0,1-1.69-.66,2.84,2.84,0,0,0-1.66,2.84s-3.57-2.89.14-5.19a3.58,3.58,0,0,1,0-1.18c.26-2,2.12-3.3,5-3.07a1.17,1.17,0,0,0,1.24-1.73c-.72-1.13-1.86-.12-1.86-.12a3.92,3.92,0,0,1-3.38,1.23,3.8,3.8,0,0,1-3.24-4,3,3,0,0,0-3.1,1s-.66-5,4.42-3.5a3.81,3.81,0,0,1,2.93-.85c1.64.22,2.5,1.59,3.3,2.94.29.44,1,.84,2.93,1.09,5,.69,13.47-11.91,14.42-18.81.53-3.95-3.62-5.45-8.5-7-.65-.17-1.33-.36-2-.59A33.23,33.23,0,0,1,251.2,319a17.28,17.28,0,0,1-5-3.09c-.93.52-1.9,1.52.47,2.77,3.5,1.85,2.17,5.5,2.08,5.77v0a3.81,3.81,0,0,0-1.59-2.6,8.25,8.25,0,0,0-2.09-.89,8.23,8.23,0,0,1-1.55-.54,9.26,9.26,0,0,1-1.48-.73,6.31,6.31,0,0,1-1.22-1,3.75,3.75,0,0,1-1-4,1.5,1.5,0,0,1,.07-.2c0-.05,0-.1.06-.14a7.44,7.44,0,0,1,3.59-3.16c-1.23-4.82,2.06-9.82,4.61-12.46,4.41-4.6,5.68-8.17,5.68-8.17.88-2.91,2.83-7.85-13.07-14-9.85-3.79-14.82-8.69-17.31-12.64a33.24,33.24,0,0,1-5.92.88,6.11,6.11,0,0,1,1.66-2.77,4.36,4.36,0,0,1,3.18-.88,13.81,13.81,0,0,0,11.26-5.11,7.73,7.73,0,0,0,.9,3c.86,1.52,3,4.15,7.81,4.74l3.28.42-1.39-3a10.42,10.42,0,0,1-.92-3.72c0-1.06.34-1.29.46-1.36a18.86,18.86,0,0,0,4.3-3.65c3.86,6.78,12,5.32,12,5.32s-3.93-2.2-4.18-6.41a3,3,0,0,1,.16-1.12l.14-.19a13.92,13.92,0,0,0,1.22-2,7.38,7.38,0,0,0,1.81,1.19,6.08,6.08,0,0,0,.81.3,38.5,38.5,0,0,0,1.51,6.35c4.55,13.78,7.25,13,12.37,18.37a21.2,21.2,0,0,1,6,11.11,3.19,3.19,0,0,0,3.17,2.71c2.12-.16,4.57-.67,6.14-2a5.84,5.84,0,0,0,1.83-4.69c0-6.34-4.7-10.29-10.33-14.68-6-4.69-10.08-9.83-10.08-19.19C270.64,242.43,273,238.57,276,235.39Z"/><path id="_Path_62" data-name="&lt;Path&gt;" class="cls-8" d="M279.57,268.23c5.49,4.25,9.64,7.78,9.64,13.22a3.93,3.93,0,0,1-1.2,3.29,8.86,8.86,0,0,1-4.95,1.57,1.36,1.36,0,0,1-1.36-1.2A22.82,22.82,0,0,0,275.14,273a43.68,43.68,0,0,0-3.4-3.19c-3-2.58-5.18-4.46-8.45-14.4a35,35,0,0,1-1.36-5.43,9.87,9.87,0,0,0,6.88-2.86v.46C268.81,258.44,274.2,264,279.57,268.23Z"/><path id="_Path_63" data-name="&lt;Path&gt;" class="cls-3" d="M229,219.23c6.49,3.21,6.7-3.95,6.7-3.95,8.88,3.43,13.13-2.59,13.59-3.33a10.68,10.68,0,0,1-6.75,2.61h-.26l-.5,0c-.17,0-.34,0-.48,0s-.57-.08-.85-.13l-.18,0c-2.82-.51-6.07-1.94-9.66-2.79-4.49-1.05-5.27,4.71-5.27,4.71-4.29-8.84,1.12-10.76,1.12-10.76a4.06,4.06,0,0,0,.53.83h0a5.73,5.73,0,0,0,1.34,1.17,8.09,8.09,0,0,0,2.71,1c.19,0,.4.06.61.09a2.91,2.91,0,0,0,.31,0c.23,0,.45,0,.67,0,3.43.15,7.14-1.29,7.91-4.71-1.34-.85-5.43-2.75-11.9.46-7,3.45-11.79,2.31-13-3.21-.78-3.6,1.95-7,1.95-7s.65,8.82,6.32,7.6c5.48-1.19,11.17-4.62,16.78,1.05.2-5.68-5.45-6.78-10-5.7-4.94,1.18-4.07,3.66-4.07,3.66l-.08-.07c-.5-.43-3-2.72-3.23-5.39a4,4,0,0,1,2.93-4.42,9.44,9.44,0,0,0-2.61.12,2.52,2.52,0,0,1,0-2.61c1.34-1.88,12.1-.9,12.1-.9,2-1.46,9.61-.09,11.9.37a5.32,5.32,0,0,1,4.91-4,5.9,5.9,0,0,1,.39,11.72c2,1,6.9-1.34,7-5.72a7.24,7.24,0,0,0-2.06-5.63A16.73,16.73,0,0,0,270,178.2c.49,4-1.45,7.45-3.37,9.87,1.48.45,4.29.26,9.48-2.3a12.33,12.33,0,0,1-4.27,6.2,17.7,17.7,0,0,1,7.56,7.62c-3.05-1.78-7.42-.08-7.42-.08-.44,7,6.95,6.68,6.95,6.68-3,3.21-6.59,3.07-9.61,1.91a13.39,13.39,0,0,0,5.31,9.75c-1.46.26-3,.61-4.78-.58-.26.27-.2.88,0,1.44a13.85,13.85,0,0,1-1.29,11.21,9.11,9.11,0,0,0-2.93-6.59c.39,4-.7,4.71-1.71,7.9-1.41,4.48,2.62,7.27,2.62,7.27A5.38,5.38,0,0,1,260,235a11,11,0,0,1,.09,4.05c-.73,3.49.83,6.41,4.72,7.89h0a7.22,7.22,0,0,0,1.63.24c-7.68,3.47-9.76-3.41-9.76-3.41,0,3.3-2.15,5.37-2.31,5.9-1.25,4.06,2.11,6.77,2.11,6.77a10.1,10.1,0,0,1-7.29-5.85,18.4,18.4,0,0,1-.65-4.85c.17,4.16-2.25,6.63-5.76,8.91-2.82,1.82-.19,7.4-.19,7.4-6.5-.8-8-6-6.86-8.43s.1-6.26.1-6.26c-1.15,6.74-6.82,12.51-13.31,12.06s-6.82,6.37-6.82,6.37c-3-7.7,2.53-12.66,5.86-14.22s3.11-6.65,3.11-6.65c-1.44,2.45-5.34,4.13-10,4s-7.77,4.54-7.77,4.54c-.92-5.65,5.2-12.48,10.61-14a9.59,9.59,0,0,0,1.81-.75c-2.56-.81-6.43-.61-11.59,3.83a14.13,14.13,0,0,1,9-11.81,17.44,17.44,0,0,1-2.23-.59c-3.43-1.12-6.94.95-6.94.95a13.54,13.54,0,0,1,3-4.87h0l0,0a7.63,7.63,0,0,1,3.06-1.91c1.5-.5,4.85-.1,5.18-.22a14.78,14.78,0,0,0-1.42-2.28c-2.53-2.86-8.21-.78-8.21-.78C214.27,211.46,222.48,216,229,219.23Z"/><path id="_Path_64" data-name="&lt;Path&gt;" class="cls-8" d="M227.18,216.28a4.73,4.73,0,0,1,1.43-2.75,1.75,1.75,0,0,1,1.51-.18c1.28.3,2.51.7,3.73,1.08,0,.33,0,.78,0,.78,0,.71-.35,2.34-1.18,2.83s-2.12-.1-2.85-.46l-.69-.34Z"/><path id="_Path_65" data-name="&lt;Path&gt;" class="cls-8" d="M229.46,206c4-2,6.9-1.75,8.62-1.18-1.1,1.45-3.34,2.06-5.42,2l-.55-.05-.26,0-.53-.07A6.1,6.1,0,0,1,229.46,206Z"/><path id="_Path_66" data-name="&lt;Path&gt;" class="cls-8" d="M214.52,222.3a5.81,5.81,0,0,0-1.52.26,10.41,10.41,0,0,0-2.58,1.38,17.71,17.71,0,0,1-2.22-.93A10.2,10.2,0,0,1,214.52,222.3Z"/><path id="_Path_67" data-name="&lt;Path&gt;" class="cls-3" d="M205.27,223.86a17.56,17.56,0,0,0,3.36,1.77,16.45,16.45,0,0,0-3.36,7.2Z"/><path id="_Path_68" data-name="&lt;Path&gt;" class="cls-3" d="M205.27,234c.81-.47,3.77-2.12,6.08-2.28a16.94,16.94,0,0,0-5.07,9.51,6.74,6.74,0,0,1-.61-.54l-.4-.33Z"/><path id="_Path_69" data-name="&lt;Path&gt;" class="cls-8" d="M205.27,243.24l.71.48,0,2.54a5.56,5.56,0,0,1,1.16-.81,14.83,14.83,0,0,0-1.9,4.29Z"/><path id="_Path_70" data-name="&lt;Path&gt;" class="cls-8" d="M205.21,250c-.08.32-.14.63-.19.94a46,46,0,0,1-12.58.8,26.87,26.87,0,0,1-5.09-.82A13,13,0,0,1,185,250Z"/><path id="_Path_71" data-name="&lt;Path&gt;" class="cls-9" d="M199.62,245.73A.9.9,0,0,0,200,245V209.23c1.24.88,3.06,2.19,3.46,2.49V248.2H183.68a4.69,4.69,0,0,0,.21-1.48,5.91,5.91,0,0,0-.59-2.54c3.06-1,8.35-1.54,15.48,1.64A.9.9,0,0,0,199.62,245.73Z"/><path id="_Path_72" data-name="&lt;Path&gt;" class="cls-9" d="M195.11,207.24l.76.23,2.36.73v35.45c-7.09-2.8-12.85-2.3-16.08-1a5.85,5.85,0,0,0-1.49-1,3.22,3.22,0,0,0-.46-.21V214a1.33,1.33,0,0,0,1.12-.66c1.26-2.58,1.89-2.83,1.89-2.83l.14,0a6.13,6.13,0,0,0,2.55-1.9,7.06,7.06,0,0,0,1.52.83.89.89,0,0,1,.23.11,11.23,11.23,0,0,1,1.56,2.76.93.93,0,0,0,.71.65.84.84,0,0,0,.77-.24,1.69,1.69,0,0,0,.28-.49,11.14,11.14,0,0,1,1.49-2.62A4.79,4.79,0,0,0,195.11,207.24Z"/><path id="_Path_73" data-name="&lt;Path&gt;" class="cls-3" d="M172.16,201.18A3.22,3.22,0,0,1,175.4,203a.85.85,0,0,0,1.62-.08,4,4,0,0,1,4-2.93,3.86,3.86,0,0,1,3.82,2.39.84.84,0,0,0,.78.55.86.86,0,0,0,.79-.52,3.77,3.77,0,0,1,3.66-2,4,4,0,0,1,4,3.92,4.86,4.86,0,0,1,0,.56.71.71,0,0,1,0,.21,1.18,1.18,0,0,1,0,.28,2.37,2.37,0,0,1-.18.55,1.69,1.69,0,0,1-.15.37.54.54,0,0,1-.07.13,3.28,3.28,0,0,1-.22.37l-.14.2-.14.16a2.41,2.41,0,0,1-.24.21l-.09.09a3.12,3.12,0,0,1-.35.25s-.08,0-.1.06-.28.13-.43.16c-.47.16-.92.6-1.78,2.17-.79-1.53-1.22-2-1.63-2.18l-.31-.13c-.89-.39-1.31-.59-1.61-1.17a.88.88,0,0,0-.84-.45.84.84,0,0,0-.75.57c-.36,1.08-1.1,1.57-2.29,2.12a4.88,4.88,0,0,0-2,2.19c-.77-1.83-1.19-2.05-1.42-2.16a3.61,3.61,0,0,1-2.14-2.43.8.8,0,0,0-.77-.63.86.86,0,0,0-.85.54c-.25.62-.69.85-1.61,1.27l-.14.08c-.3.14-.66.41-1.61,2-.54-1.38-.92-1.78-1.31-2l-.41-.23-.12-.09-.26-.18-.13-.13a1.75,1.75,0,0,1-.2-.19s-.09-.1-.13-.16-.09-.13-.15-.19l-.12-.18a2.39,2.39,0,0,0-.12-.22A.56.56,0,0,0,169,206c0-.09-.06-.17-.09-.27s0-.11-.07-.17-.07-.28-.09-.42a3,3,0,0,1,0-.52A3.44,3.44,0,0,1,172.16,201.18Z"/><path id="_Path_74" data-name="&lt;Path&gt;" class="cls-9" d="M166.17,207c.64-.2,1.09-.31,1.23-.35a5.24,5.24,0,0,0,2.5,2.65,14.27,14.27,0,0,1,1.17,2.76s0,.09.05.13,0,.09,0,.11a.31.31,0,0,0,.1.1.53.53,0,0,0,.23.17s.05.05.05.05a1,1,0,0,1,.16,0H172a.4.4,0,0,0,.15,0s.07,0,.1,0a.39.39,0,0,0,.14-.08.25.25,0,0,0,.08-.07.49.49,0,0,0,.1-.13.12.12,0,0,0,.06-.06s0,0,0,0a18.66,18.66,0,0,1,1.76-2.91l.1,0a7.09,7.09,0,0,0,1.46-.84,5.42,5.42,0,0,0,2.3,2,4.19,4.19,0,0,1,.43.72V241a5.94,5.94,0,0,0-2.4.26,4.47,4.47,0,0,0-5,.6,2.5,2.5,0,0,0-.23.23,41.83,41.83,0,0,0-11,1.33V209.11H160C162.62,208.06,164.86,207.35,166.17,207Z"/><path id="_Path_75" data-name="&lt;Path&gt;" class="cls-9" d="M154.75,248.14v-35c.36-.3,1.06-.84,2.4-1.88l1.09-.81v34.27a.9.9,0,0,0,.37.73.87.87,0,0,0,.81.11A38.07,38.07,0,0,1,170,243.87a9.84,9.84,0,0,0-.54,3.57,7.67,7.67,0,0,1,2.94-.55,4.64,4.64,0,0,0,.22,1.28h-3.21a.32.32,0,0,0-.17,0Z"/><path id="_Path_76" data-name="&lt;Path&gt;" class="cls-3" d="M171.73,267.17c-1.79-2.32-1.07-4.3.73-5.22a3.09,3.09,0,0,1,.34-1.56,4.26,4.26,0,0,1,4.56-2,1.46,1.46,0,1,0-.94-2.24,3.8,3.8,0,0,1-5.13,1.4,4.07,4.07,0,0,1-2.15-2.47c-1.42-.36-3.09.49-3.27,1.33a3.73,3.73,0,0,1,.32-2.64c.44-1,1.81-1.35,3.09-1.29a.15.15,0,0,1,0-.08,3.94,3.94,0,0,1,5.27-1.65c2,1,1.62,2,2.18,2.34a1.36,1.36,0,0,0,1.39.17,1.42,1.42,0,0,0,.87-1.76,1.34,1.34,0,0,0-1.28-1,1.88,1.88,0,0,1-1.28-.28l-.38-.23a4.63,4.63,0,0,1-.42-.32,3.82,3.82,0,0,1-.36-.34,5,5,0,0,1-.42-.52v0a5,5,0,0,1-.32-.6,3.88,3.88,0,0,1-.06-2.92c-.83-.45-2.59-.47-3.13.16a6.06,6.06,0,0,1,.66-1.51,4.13,4.13,0,0,1,.54-.71c.92-.92,2.47-.65,3.7.08A5.2,5.2,0,0,1,177,243a4.7,4.7,0,0,1,1.68-.08,4.12,4.12,0,0,1,1.13.36,1.83,1.83,0,0,1,.34.18c.07,0,.12.1.18.14a3.94,3.94,0,0,1,1.21,1.3,3.86,3.86,0,0,1,.19,3.32v0a1.19,1.19,0,0,0-.07.23.07.07,0,0,0,0,.06c0,.07,0,.14,0,.21v0a2.43,2.43,0,0,0,0,.38s0,0,.05.09,0,.07,0,.11a1.45,1.45,0,0,0,.13.29s0,0,0,0,.12.21.2.32c.64.89,2.06,1.87,4.68,2.69a26.31,26.31,0,0,0,5.47.88,48.22,48.22,0,0,0,12.66-.73,10.2,10.2,0,0,0,1.37,4.6s3.42-6.74,8.26-6.65a17.69,17.69,0,0,0,6.23-.91s-.06,0-.08,0c-3.11,1.46-7.59,5.46-7.81,11.54-.22,5.4,2.66,6.88,3.51,7.2a17.67,17.67,0,0,0,2.57,2.72,5.9,5.9,0,0,1-7.22-2.95c-1.69-2.94-3.89-3-3.89-3a4.35,4.35,0,0,0,2.14,4.38,5.11,5.11,0,0,1-5.94-2.25c-2.14-3.45-1.88-3.83-3.94-4.32-2.9-.63-5.4-1.31-7.22-1.85s-2.79-.85-3-.91l-.05,0c-3.33-1.14-6.63-1.36-8.3-.83-.78.23-1.25.86-1.2,1.25a4.88,4.88,0,0,1-.37,2.74,3.9,3.9,0,0,1-5.18,1.68,4.14,4.14,0,0,1-1.22-.88A2.5,2.5,0,0,0,171.73,267.17Z"/><path id="_Path_77" data-name="&lt;Path&gt;" class="cls-2" d="M224.91,288.26c-.22,8.77-10,8.22-10,8.22,10,1.75,11.26-6.6,11.26-6.6A41.07,41.07,0,0,0,240,285.67C234.76,288.16,224.91,288.26,224.91,288.26Z"/><path id="_Path_78" data-name="&lt;Path&gt;" class="cls-7" d="M124.05,244.59c1.25-.93,7.2-5.23,7.2-5.23s6,4.32,7.26,5.24l-2.77-8.54s5.95-4.33,7.22-5.23h-8.9s-2.3-7.09-2.78-8.6c-.47,1.51-2.79,8.6-2.79,8.6h-9c1.27.93,7.32,5.29,7.32,5.29Z"/><path id="_Path_79" data-name="&lt;Path&gt;" class="cls-2" d="M262.06,287.1s11.42,9.34-6.12,22.53c0,0,10.94-5.2,11.58-13.81C268,289.53,262.06,287.1,262.06,287.1Z"/><path id="_Path_80" data-name="&lt;Path&gt;" class="cls-2" d="M189.11,219.23c-3.74,0-6.79,3.32-6.79,7.43a7.48,7.48,0,0,0,.77,3.24h-.39a1,1,0,1,0,0,2h2a1,1,0,0,0,.87-.48,1,1,0,0,0,0-1,6.79,6.79,0,0,1-1.27-3.69c0-3,2.16-5.46,4.81-5.46s4.79,2.45,4.79,5.46a6.83,6.83,0,0,1-1.32,3.75,1,1,0,0,0,.84,1.54h2.17a1,1,0,1,0,0-2h-.5a8.28,8.28,0,0,0,.8-3.3C195.89,222.55,192.86,219.23,189.11,219.23Z"/><path id="_Path_81" data-name="&lt;Path&gt;" class="cls-2" d="M241.2,207.83s4.53-3.14.68-9.07C241.88,198.76,242.93,204.27,241.2,207.83Z"/><path id="_Path_82" data-name="&lt;Path&gt;" class="cls-2" d="M237.55,192.45c3.12,0,6.7.33,6.7.33s-3.43-3.16-5.28-3.13S237.55,192.45,237.55,192.45Z"/><path id="_Path_83" data-name="&lt;Path&gt;" class="cls-7" d="M321,244.59c1.26-.93,7.19-5.23,7.19-5.23s6,4.32,7.27,5.24c-.47-1.47-2.75-8.54-2.75-8.54l7.2-5.23H331l-2.78-8.6c-.48,1.51-2.77,8.6-2.77,8.6h-9c1.27.93,7.33,5.3,7.33,5.3S321.46,243.12,321,244.59Z"/><path id="_Path_84" data-name="&lt;Path&gt;" class="cls-2" d="M166.53,231.53a.44.44,0,0,1-.27-.07.22.22,0,0,1-.07-.18s0-.07,0-.14a2.74,2.74,0,0,0,.09-.35c.05-.15.12-.37.19-.63s.18-.61.32-1h4.87a3.69,3.69,0,0,0,.13.44c0,.23.13.47.2.72a5.27,5.27,0,0,1,.21.64,2,2,0,0,0,.12.3c0,.2-.13.28-.37.31v.27h3.64v-.27a.33.33,0,0,1-.27-.14,1.72,1.72,0,0,1-.27-.59c-.22-.57-.43-1.25-.69-2s-.51-1.52-.78-2.3-.53-1.57-.78-2.33-.46-1.46-.67-2.05-.34-1.09-.45-1.46-.21-.61-.21-.65a.24.24,0,0,1,.11-.22,1.53,1.53,0,0,1,.25-.06v-.28h-5v.28l.24.06a.15.15,0,0,1,.12.17,2.4,2.4,0,0,1-.12.5c-.12.31-.24.72-.4,1.21l-.51,1.72c-.21.64-.39,1.29-.62,1.95s-.41,1.33-.6,2-.39,1.23-.57,1.76-.29.95-.41,1.3a5.21,5.21,0,0,1-.19.64,1.44,1.44,0,0,1-.18.39.8.8,0,0,1-.32.15v.27h3.25Z"/><polygon id="_Path_85" data-name="&lt;Path&gt;" class="cls-9" points="169.16 221.35 171.19 227.24 167.31 227.24 169.16 221.35"/><path id="_Path_86" data-name="&lt;Path&gt;" class="cls-7" d="M222.52,161.43c1.26-.93,7.19-5.24,7.19-5.24s6,4.35,7.3,5.26c-.48-1.49-2.79-8.54-2.79-8.54s5.95-4.33,7.22-5.24h-8.89s-2.31-7.1-2.79-8.59c-.46,1.49-2.78,8.59-2.78,8.59h-9l7.32,5.31Z"/></g></g></g><path id="_Compound_Path_" data-name="&lt;Compound Path&gt;" class="cls-1" d="M566.47,240.69q-6.53,6.12-18.61,6.13-12.33,0-19.27-5.86t-6.93-18.65V181.52h8.49v40.79q0,8.58,4.57,13t13.14,4.43q8.14,0,12.39-4.43t4.25-13V181.52H573v40.79Q573,234.57,566.47,240.69Z"/><path id="_Compound_Path_2" data-name="&lt;Compound Path&gt;" class="cls-1" d="M592.85,181.52l33.63,51.79h.18V181.52h8.05v63.86h-9.3l-33.36-51.25h-.18v51.25h-8V181.52Z"/><path id="_Compound_Path_3" data-name="&lt;Compound Path&gt;" class="cls-1" d="M654.66,181.52v63.86h-8.5V181.52Z"/><path id="_Compound_Path_4" data-name="&lt;Compound Path&gt;" class="cls-1" d="M681.76,245.38l-22.45-63.86h9.12l18.25,55.37h.18l18.42-55.37h8.86l-22.72,63.86Z"/><path id="_Compound_Path_5" data-name="&lt;Compound Path&gt;" class="cls-1" d="M762.34,181.52v7.16H726.75V209h33.18v7.16H726.75v22.09h35.86v7.15H718.25V181.52Z"/><path id="_Compound_Path_6" data-name="&lt;Compound Path&gt;" class="cls-1" d="M800.27,181.52q9.12,0,14.26,4.47t5.15,12.26A19.36,19.36,0,0,1,817,208.44a13.6,13.6,0,0,1-8.45,6v.18a11.19,11.19,0,0,1,4.51,1.79,9.75,9.75,0,0,1,2.78,3,13.78,13.78,0,0,1,1.52,3.89,43.35,43.35,0,0,1,.76,4.47c.12,1.56.21,3.13.27,4.74a39,39,0,0,0,.44,4.75,28.82,28.82,0,0,0,1,4.42,11,11,0,0,0,2,3.71h-9.48a5.38,5.38,0,0,1-1.21-2.68,29,29,0,0,1-.4-3.8c-.06-1.4-.12-2.91-.18-4.52a32.28,32.28,0,0,0-.53-4.74c-.24-1.55-.54-3-.9-4.42a10.09,10.09,0,0,0-1.7-3.67,8.45,8.45,0,0,0-3-2.51,11.36,11.36,0,0,0-5-.94H778.71v27.28h-8.49V181.52Zm1.79,29a12.35,12.35,0,0,0,4.69-1.74,9.58,9.58,0,0,0,3.22-3.49,11.67,11.67,0,0,0,1.21-5.68,11.45,11.45,0,0,0-2.68-7.87c-1.79-2-4.69-3-8.68-3H778.71V211h17.71A34.1,34.1,0,0,0,802.06,210.5Z"/><path id="_Compound_Path_7" data-name="&lt;Compound Path&gt;" class="cls-1" d="M860.78,190.24a18.11,18.11,0,0,0-10.87-3.08,26.56,26.56,0,0,0-5.28.53,14.11,14.11,0,0,0-4.6,1.79,9.35,9.35,0,0,0-3.22,3.36,10.3,10.3,0,0,0-1.21,5.23,6.65,6.65,0,0,0,1.74,4.78,12.81,12.81,0,0,0,4.65,3,38,38,0,0,0,6.58,1.92q3.66.76,7.47,1.66t7.46,2.1a24.81,24.81,0,0,1,6.58,3.26,15.64,15.64,0,0,1,4.65,5.19,18.21,18.21,0,0,1-.54,16.59,18.68,18.68,0,0,1-5.86,5.91,25.55,25.55,0,0,1-8,3.31,39.15,39.15,0,0,1-8.81,1,37.2,37.2,0,0,1-10.15-1.35A24.93,24.93,0,0,1,833,241.4a19,19,0,0,1-5.72-7,22.34,22.34,0,0,1-2.11-10.06h8a14.36,14.36,0,0,0,1.57,6.93,14.12,14.12,0,0,0,4.11,4.78,17.46,17.46,0,0,0,5.95,2.78,27.6,27.6,0,0,0,7,.89,31.54,31.54,0,0,0,5.77-.54,17,17,0,0,0,5.23-1.83,9.8,9.8,0,0,0,5.19-9.26,8,8,0,0,0-1.75-5.36,12.75,12.75,0,0,0-4.65-3.36,34.73,34.73,0,0,0-6.57-2.1l-7.47-1.66c-2.54-.56-5-1.22-7.47-2a27,27,0,0,1-6.57-3,14.17,14.17,0,0,1-4.65-4.75,13.86,13.86,0,0,1-1.75-7.29,17,17,0,0,1,2-8.36,17.17,17.17,0,0,1,5.23-5.81,23.65,23.65,0,0,1,7.42-3.4,32.62,32.62,0,0,1,8.55-1.12,34.3,34.3,0,0,1,9.12,1.16,20.79,20.79,0,0,1,7.38,3.67,17.6,17.6,0,0,1,5,6.31,22.55,22.55,0,0,1,2,9.08h-8Q865,193.32,860.78,190.24Z"/><path id="_Compound_Path_8" data-name="&lt;Compound Path&gt;" class="cls-1" d="M892.93,181.52v63.86h-8.5V181.52Z"/><path id="_Compound_Path_9" data-name="&lt;Compound Path&gt;" class="cls-1" d="M926.47,181.52q14.76,0,22.72,7.52t8,22.89a51.78,51.78,0,0,1-1.79,14.27,26.67,26.67,0,0,1-5.54,10.46,24,24,0,0,1-9.58,6.49,38.3,38.3,0,0,1-13.77,2.23H904.56V181.52Zm.72,56.71c.95,0,2.14-.08,3.57-.22a19.92,19.92,0,0,0,4.57-1.08,20.31,20.31,0,0,0,4.78-2.46,16,16,0,0,0,4.25-4.38,24.76,24.76,0,0,0,3.09-6.93,36.67,36.67,0,0,0,1.2-10.06,43.15,43.15,0,0,0-1.11-10.25,19.72,19.72,0,0,0-3.67-7.69,16.21,16.21,0,0,0-6.58-4.83,26.21,26.21,0,0,0-9.92-1.65H913.05v49.55Z"/><path id="_Compound_Path_10" data-name="&lt;Compound Path&gt;" class="cls-1" d="M991.59,181.52l24.95,63.86h-9.39l-7-19.23h-27L966,245.38h-8.67l24.86-63.86Zm5.9,37.48-10.65-29.79h-.17L975.84,219Z"/><path id="_Compound_Path_11" data-name="&lt;Compound Path&gt;" class="cls-1" d="M1042,181.52q14.76,0,22.72,7.52t8,22.89a51.78,51.78,0,0,1-1.79,14.27,26.67,26.67,0,0,1-5.54,10.46,24,24,0,0,1-9.57,6.49,38.39,38.39,0,0,1-13.78,2.23h-21.91V181.52Zm.72,56.71c1,0,2.14-.08,3.57-.22a19.92,19.92,0,0,0,4.57-1.08,20.31,20.31,0,0,0,4.78-2.46,16,16,0,0,0,4.25-4.38,24.76,24.76,0,0,0,3.09-6.93,36.67,36.67,0,0,0,1.2-10.06,43.15,43.15,0,0,0-1.11-10.25,19.72,19.72,0,0,0-3.67-7.69,16.21,16.21,0,0,0-6.58-4.83,26.21,26.21,0,0,0-9.92-1.65h-14.31v49.55Z"/><path id="_Compound_Path_12" data-name="&lt;Compound Path&gt;" class="cls-1" d="M543.57,292.26q14.76,0,22.72,7.51t8,22.9a51.83,51.83,0,0,1-1.79,14.27,26.56,26.56,0,0,1-5.55,10.46,23.9,23.9,0,0,1-9.57,6.49,38.3,38.3,0,0,1-13.77,2.23H521.66V292.26Zm.72,56.71a35.55,35.55,0,0,0,3.57-.23,19.48,19.48,0,0,0,4.57-1.07,20.69,20.69,0,0,0,4.78-2.46,16,16,0,0,0,4.25-4.38,24.76,24.76,0,0,0,3.09-6.93,36.75,36.75,0,0,0,1.2-10.07,42.59,42.59,0,0,0-1.12-10.24A19.56,19.56,0,0,0,561,305.9a16.21,16.21,0,0,0-6.58-4.83,26.23,26.23,0,0,0-9.93-1.65H530.15V349Z"/><path id="_Compound_Path_13" data-name="&lt;Compound Path&gt;" class="cls-1" d="M626,292.26v7.16h-35.6v20.3h33.18v7.16H590.44V349H626.3v7.15H581.94V292.26Z"/><path id="_Compound_Path_14" data-name="&lt;Compound Path&gt;" class="cls-1" d="M688.07,301a18.11,18.11,0,0,0-10.87-3.08,26.56,26.56,0,0,0-5.28.53,14.26,14.26,0,0,0-4.61,1.79,9.52,9.52,0,0,0-3.22,3.36,10.4,10.4,0,0,0-1.2,5.23,6.65,6.65,0,0,0,1.74,4.78,12.73,12.73,0,0,0,4.65,3,38,38,0,0,0,6.58,1.92q3.66.76,7.46,1.66t7.47,2.1a24.51,24.51,0,0,1,6.58,3.26,15.75,15.75,0,0,1,4.65,5.19,18.21,18.21,0,0,1-.54,16.59,18.68,18.68,0,0,1-5.86,5.91,25.55,25.55,0,0,1-8,3.31,39.15,39.15,0,0,1-8.81,1,37.15,37.15,0,0,1-10.15-1.35,24.93,24.93,0,0,1-8.41-4.07,19.17,19.17,0,0,1-5.73-7,22.49,22.49,0,0,1-2.1-10.07h8.05A14.37,14.37,0,0,0,662,342a14.21,14.21,0,0,0,4.11,4.78,17.26,17.26,0,0,0,6,2.77,27.1,27.1,0,0,0,7,.9,31.44,31.44,0,0,0,5.76-.54,17.2,17.2,0,0,0,5.24-1.83,9.84,9.84,0,0,0,5.19-9.26,8.07,8.07,0,0,0-1.75-5.37,12.84,12.84,0,0,0-4.65-3.35,34.73,34.73,0,0,0-6.57-2.1l-7.47-1.66c-2.54-.56-5-1.22-7.47-2a26.68,26.68,0,0,1-6.57-3,14.17,14.17,0,0,1-4.66-4.74,14,14,0,0,1-1.74-7.29,16.94,16.94,0,0,1,2-8.36,17.17,17.17,0,0,1,5.23-5.81,23.43,23.43,0,0,1,7.42-3.4,32.62,32.62,0,0,1,8.55-1.12,34.4,34.4,0,0,1,9.12,1.16,20.79,20.79,0,0,1,7.38,3.67,17.82,17.82,0,0,1,5,6.31,22.55,22.55,0,0,1,2,9.08H693Q692.31,304.06,688.07,301Z"/><path id="_Compound_Path_15" data-name="&lt;Compound Path&gt;" class="cls-1" d="M738.11,292.26l24.95,63.86h-9.39l-7-19.23h-27l-7.15,19.23h-8.68l24.87-63.86Zm5.9,37.48L733.37,300h-.18l-10.82,29.79Z"/><path id="_Compound_Path_16" data-name="&lt;Compound Path&gt;" class="cls-1" d="M775.59,292.26l33.63,51.79h.17V292.26h8.05v63.86h-9.3l-33.36-51.25h-.18v51.25h-8.05V292.26Z"/><path id="_Compound_Path_17" data-name="&lt;Compound Path&gt;" class="cls-1" d="M821.74,299.42v-7.16h51.07v7.16H851.52v56.7H843v-56.7Z"/><path id="_Compound_Path_18" data-name="&lt;Compound Path&gt;" class="cls-1" d="M886,292.26v63.86h-8.49V292.26Z"/><path id="_Compound_Path_19" data-name="&lt;Compound Path&gt;" class="cls-1" d="M924.42,292.26l25,63.86H940l-7-19.23H906l-7.16,19.23h-8.67L915,292.26Zm5.9,37.48L919.67,300h-.17l-10.83,29.79Z"/><path id="_Compound_Path_20" data-name="&lt;Compound Path&gt;" class="cls-1" d="M991.41,355.36a30.27,30.27,0,0,1-11.18,2.2,29.93,29.93,0,0,1-12.79-2.64,28.86,28.86,0,0,1-9.57-7.11,31.06,31.06,0,0,1-6-10.29,36,36,0,0,1-2-12.08,45.37,45.37,0,0,1,1.92-13.28,32.73,32.73,0,0,1,5.72-11,28,28,0,0,1,9.48-7.56,29.56,29.56,0,0,1,13.29-2.82A38.28,38.28,0,0,1,990,292a24.64,24.64,0,0,1,8.23,3.8,22.53,22.53,0,0,1,6.08,6.57,25.93,25.93,0,0,1,3.36,9.62h-8.5a16.63,16.63,0,0,0-2.33-6.31,15,15,0,0,0-4.2-4.34,18.45,18.45,0,0,0-5.68-2.54,25.9,25.9,0,0,0-6.75-.85,19.37,19.37,0,0,0-16.77,8.45,26.63,26.63,0,0,0-3.89,8.67,39.8,39.8,0,0,0-1.26,10,32,32,0,0,0,1.44,9.61,25,25,0,0,0,4.2,8.14,20.58,20.58,0,0,0,6.84,5.64,20.3,20.3,0,0,0,9.44,2.1,22.79,22.79,0,0,0,8.85-1.61,18.24,18.24,0,0,0,10.47-11.05,21.76,21.76,0,0,0,1.16-8.18H980.32v-7.16h28v33.63H1003l-2.24-8A21.23,21.23,0,0,1,991.41,355.36Z"/><path id="_Compound_Path_21" data-name="&lt;Compound Path&gt;" class="cls-1" d="M1016.5,311.63a31.64,31.64,0,0,1,5.76-10.69,28.32,28.32,0,0,1,9.57-7.43,33.46,33.46,0,0,1,26.66,0,28.22,28.22,0,0,1,9.57,7.43,31.66,31.66,0,0,1,5.77,10.69,42.07,42.07,0,0,1,0,25.13,31.75,31.75,0,0,1-5.77,10.69,27.73,27.73,0,0,1-9.57,7.38,33.91,33.91,0,0,1-26.66,0,27.82,27.82,0,0,1-9.57-7.38,31.73,31.73,0,0,1-5.76-10.69,41.87,41.87,0,0,1,0-25.13Zm7.82,22.09a25.91,25.91,0,0,0,3.94,8.45,20.07,20.07,0,0,0,6.88,6,23.16,23.16,0,0,0,20,0,20.11,20.11,0,0,0,6.89-6,25.69,25.69,0,0,0,3.93-8.45,36.92,36.92,0,0,0,0-19.05,25.83,25.83,0,0,0-3.93-8.46,20.18,20.18,0,0,0-6.89-6,23.16,23.16,0,0,0-20,0,20.15,20.15,0,0,0-6.88,6,26.06,26.06,0,0,0-3.94,8.46,36.92,36.92,0,0,0,0,19.05Z"/><path id="_Compound_Path_22" data-name="&lt;Compound Path&gt;" class="cls-1" d="M543.57,403q14.76,0,22.72,7.51t8,22.9a51.83,51.83,0,0,1-1.79,14.27,26.67,26.67,0,0,1-5.54,10.46,24,24,0,0,1-9.57,6.49,38.39,38.39,0,0,1-13.78,2.23H521.66V403Zm.72,56.71a35.55,35.55,0,0,0,3.57-.23,19.48,19.48,0,0,0,4.57-1.07,21.09,21.09,0,0,0,4.78-2.46,16,16,0,0,0,4.25-4.38,24.76,24.76,0,0,0,3.09-6.93,36.75,36.75,0,0,0,1.2-10.07,42.53,42.53,0,0,0-1.12-10.24,19.56,19.56,0,0,0-3.66-7.69,16.12,16.12,0,0,0-6.58-4.83,26.21,26.21,0,0,0-9.92-1.65H530.15v49.55Z"/><path id="_Compound_Path_23" data-name="&lt;Compound Path&gt;" class="cls-1" d="M626,403v7.16h-35.6v20.3h33.18v7.16H590.44v22.09h35.87v7.15H581.94V403Z"/><path id="_Compound_Path_24" data-name="&lt;Compound Path&gt;" class="cls-1" d="M694.68,412a19.77,19.77,0,0,0-11.58-3.39,20.72,20.72,0,0,0-9.79,2.14,19.33,19.33,0,0,0-6.71,5.77,24.87,24.87,0,0,0-3.89,8.28,36.75,36.75,0,0,0-1.25,9.65,41.2,41.2,0,0,0,1.25,10.34,24.52,24.52,0,0,0,3.89,8.49,19.18,19.18,0,0,0,6.75,5.77,21,21,0,0,0,9.84,2.15,18.88,18.88,0,0,0,7.47-1.39,16.77,16.77,0,0,0,5.63-3.84,17.88,17.88,0,0,0,3.72-5.86,24.56,24.56,0,0,0,1.61-7.34h8.49q-1.25,12.07-8.31,18.79t-19.32,6.7a30.91,30.91,0,0,1-13-2.54,25.45,25.45,0,0,1-9.22-7,30.12,30.12,0,0,1-5.5-10.55A45.1,45.1,0,0,1,653,435.11a42.32,42.32,0,0,1,2-13.1,31.39,31.39,0,0,1,5.77-10.69,26.85,26.85,0,0,1,9.48-7.2,30.51,30.51,0,0,1,13-2.64,33,33,0,0,1,9.48,1.34,25.55,25.55,0,0,1,8,3.94,22.11,22.11,0,0,1,5.82,6.48,23.85,23.85,0,0,1,3,9H701A15.81,15.81,0,0,0,694.68,412Z"/><path id="_Compound_Path_25" data-name="&lt;Compound Path&gt;" class="cls-1" d="M726.48,403v27.46h33.63V403h8.5v63.86h-8.5V437.62H726.48v29.24H718V403Z"/><path id="_Compound_Path_26" data-name="&lt;Compound Path&gt;" class="cls-1" d="M788.73,403v63.86h-8.5V403Z"/><path id="_Compound_Path_27" data-name="&lt;Compound Path&gt;" class="cls-1" d="M808.86,403v56.71h33.8v7.15h-42.3V403Z"/><path id="_Compound_Path_28" data-name="&lt;Compound Path&gt;" class="cls-1" d="M891.5,403v7.16H855.9v20.3h33.19v7.16H855.9v22.09h35.87v7.15H847.41V403Z"/></svg>