<svg id="logo" xmlns="http://www.w3.org/2000/svg" viewBox="0 0 1133.86 566.93"><defs><style>.cls-1{fill:#fff;}</style></defs><title>imago-usach-blanco</title><path class="cls-1" d="M566.45,240.4q-6.53,6.12-18.6,6.13-12.33,0-19.26-5.86T521.66,222V181.26h8.49V222q0,8.58,4.56,13t13.14,4.42q8.14,0,12.38-4.42t4.25-13V181.26H573V222Q573,234.28,566.45,240.4Z"/><path class="cls-1" d="M592.82,181.26,626.44,233h.17V181.26h8V245.1h-9.3L592,193.87h-.18V245.1h-8.05V181.26Z"/><path class="cls-1" d="M654.6,181.26V245.1h-8.5V181.26Z"/><path class="cls-1" d="M681.68,245.1l-22.44-63.84h9.12L686.6,236.6h.18l18.42-55.34h8.85L691.34,245.1Z"/><path class="cls-1" d="M762.23,181.26v7.15H726.65v20.3h33.17v7.15H726.65v22.08H762.5v7.16H718.16V181.26Z"/><path class="cls-1" d="M800.14,181.26q9.12,0,14.26,4.47T819.54,198a19.34,19.34,0,0,1-2.64,10.19,13.56,13.56,0,0,1-8.44,6v.18a11.48,11.48,0,0,1,4.51,1.79,9.71,9.71,0,0,1,2.77,3,13.6,13.6,0,0,1,1.52,3.89,40.81,40.81,0,0,1,.76,4.47q.18,2.33.27,4.74a40.91,40.91,0,0,0,.45,4.74,28.94,28.94,0,0,0,1,4.43,11,11,0,0,0,2,3.71H812.3a5.33,5.33,0,0,1-1.21-2.69,27.39,27.39,0,0,1-.4-3.8c-.06-1.4-.12-2.9-.18-4.51a31,31,0,0,0-.54-4.74,43.16,43.16,0,0,0-.89-4.42,10.33,10.33,0,0,0-1.7-3.67,8.32,8.32,0,0,0-3-2.5,11.2,11.2,0,0,0-5-.94H778.6V245.1h-8.5V181.26Zm1.79,29a12.35,12.35,0,0,0,4.69-1.74,9.58,9.58,0,0,0,3.22-3.49,11.64,11.64,0,0,0,1.21-5.68,11.5,11.5,0,0,0-2.68-7.87c-1.79-2-4.68-3-8.68-3H778.6v22.27h17.7A34.06,34.06,0,0,0,801.93,210.23Z"/><path class="cls-1" d="M860.62,190a18,18,0,0,0-10.86-3.09,25.85,25.85,0,0,0-5.28.54,13.89,13.89,0,0,0-4.6,1.79,9.41,9.41,0,0,0-3.22,3.35,10.43,10.43,0,0,0-1.21,5.23,6.65,6.65,0,0,0,1.75,4.78,12.73,12.73,0,0,0,4.65,3,38.55,38.55,0,0,0,6.57,1.92q3.66.76,7.46,1.66c2.54.59,5,1.29,7.47,2.1a24.6,24.6,0,0,1,6.57,3.26,15.56,15.56,0,0,1,4.65,5.19,18.19,18.19,0,0,1-.54,16.58,18.83,18.83,0,0,1-5.85,5.9,25.7,25.7,0,0,1-8,3.31,39.07,39.07,0,0,1-8.8,1,37.2,37.2,0,0,1-10.15-1.35,24.86,24.86,0,0,1-8.4-4.06,19.08,19.08,0,0,1-5.72-7,22.3,22.3,0,0,1-2.11-10h8a13.86,13.86,0,0,0,5.68,11.71,17.48,17.48,0,0,0,5.94,2.77,27.15,27.15,0,0,0,7,.89,32.32,32.32,0,0,0,5.76-.53,16.89,16.89,0,0,0,5.23-1.84,9.8,9.8,0,0,0,5.19-9.25,8,8,0,0,0-1.75-5.36,12.91,12.91,0,0,0-4.64-3.36,34.6,34.6,0,0,0-6.58-2.1q-3.66-.79-7.46-1.65c-2.53-.57-5-1.22-7.47-2a27,27,0,0,1-6.57-3,14.24,14.24,0,0,1-4.65-4.74,13.94,13.94,0,0,1-1.74-7.28,16.53,16.53,0,0,1,7.2-14.17,23.54,23.54,0,0,1,7.42-3.4,32.55,32.55,0,0,1,8.54-1.12,34.27,34.27,0,0,1,9.11,1.16,20.63,20.63,0,0,1,7.38,3.67,17.65,17.65,0,0,1,5,6.3,22.59,22.59,0,0,1,2,9.08h-8Q864.88,193.07,860.62,190Z"/><path class="cls-1" d="M892.76,181.26V245.1h-8.49V181.26Z"/><path class="cls-1" d="M926.29,181.26q14.75,0,22.7,7.51t8,22.89a51.76,51.76,0,0,1-1.79,14.26,26.67,26.67,0,0,1-5.54,10.46,24,24,0,0,1-9.57,6.48,38.27,38.27,0,0,1-13.76,2.24H904.38V181.26Zm.71,56.68a35.3,35.3,0,0,0,3.58-.22,20.45,20.45,0,0,0,4.56-1.07,21.09,21.09,0,0,0,4.78-2.46,16.18,16.18,0,0,0,4.25-4.38,24.47,24.47,0,0,0,3.08-6.93,36.26,36.26,0,0,0,1.21-10.06,43,43,0,0,0-1.12-10.24,19.67,19.67,0,0,0-3.67-7.68,15.93,15.93,0,0,0-6.57-4.83,26.2,26.2,0,0,0-9.92-1.66h-14.3v49.53Z"/><path class="cls-1" d="M991.37,181.26l24.94,63.84h-9.38l-7-19.23H973L965.8,245.1h-8.67L982,181.26Zm5.9,37.46L986.63,189h-.18l-10.81,29.77Z"/><path class="cls-1" d="M1041.79,181.26q14.76,0,22.71,7.51t8,22.89a51.76,51.76,0,0,1-1.79,14.26,26.67,26.67,0,0,1-5.54,10.46,24.12,24.12,0,0,1-9.57,6.48,38.29,38.29,0,0,1-13.77,2.24h-21.9V181.26Zm.72,56.68a35.13,35.13,0,0,0,3.57-.22,20.45,20.45,0,0,0,4.56-1.07,21.15,21.15,0,0,0,4.79-2.46,16,16,0,0,0,4.24-4.38,24.76,24.76,0,0,0,3.09-6.93,36.67,36.67,0,0,0,1.2-10.06,43.06,43.06,0,0,0-1.11-10.24,19.67,19.67,0,0,0-3.67-7.68,16.06,16.06,0,0,0-6.57-4.83,26.2,26.2,0,0,0-9.92-1.66h-14.31v49.53Z"/><path class="cls-1" d="M543.56,292q14.75,0,22.71,7.51t8,22.89a51.77,51.77,0,0,1-1.78,14.26,26.69,26.69,0,0,1-5.55,10.46,24,24,0,0,1-9.56,6.48,38.37,38.37,0,0,1-13.77,2.23h-21.9V292Zm.72,56.68a35.13,35.13,0,0,0,3.57-.22,20.45,20.45,0,0,0,4.56-1.07,21.09,21.09,0,0,0,4.78-2.46,16.33,16.33,0,0,0,4.25-4.38,24.76,24.76,0,0,0,3.09-6.93,36.67,36.67,0,0,0,1.2-10.06,42.53,42.53,0,0,0-1.12-10.24,19.56,19.56,0,0,0-3.66-7.69,16.13,16.13,0,0,0-6.57-4.82,26,26,0,0,0-9.93-1.66h-14.3v49.53Z"/><path class="cls-1" d="M626,292v7.15H590.41v20.3h33.17v7.15H590.41v22.08h35.85v7.15H581.91V292Z"/><path class="cls-1" d="M688,300.67a18,18,0,0,0-10.86-3.09,25.85,25.85,0,0,0-5.28.54,13.89,13.89,0,0,0-4.6,1.79,9.32,9.32,0,0,0-3.22,3.35,10.3,10.3,0,0,0-1.21,5.23,6.61,6.61,0,0,0,1.75,4.78,12.9,12.9,0,0,0,4.64,3,39.9,39.9,0,0,0,6.58,1.92q3.66.76,7.46,1.65t7.47,2.11a24.6,24.6,0,0,1,6.57,3.26,15.73,15.73,0,0,1,4.65,5.18A18.21,18.21,0,0,1,701.4,347a18.76,18.76,0,0,1-5.86,5.9,25.55,25.55,0,0,1-8,3.31,39.05,39.05,0,0,1-8.8,1,37.2,37.2,0,0,1-10.15-1.34,25.05,25.05,0,0,1-8.4-4.06,19.29,19.29,0,0,1-5.73-7,22.44,22.44,0,0,1-2.1-10.06h8a13.86,13.86,0,0,0,5.68,11.72,17.31,17.31,0,0,0,5.94,2.77,27.52,27.52,0,0,0,7,.89,32.43,32.43,0,0,0,5.77-.53,16.89,16.89,0,0,0,5.23-1.84,9.8,9.8,0,0,0,5.19-9.25,8,8,0,0,0-1.75-5.36,12.75,12.75,0,0,0-4.65-3.36,34.26,34.26,0,0,0-6.57-2.1q-3.66-.79-7.46-1.65c-2.54-.57-5-1.22-7.47-2a27,27,0,0,1-6.57-2.95,13.21,13.21,0,0,1-6.39-12,16.81,16.81,0,0,1,2-8.36,17.08,17.08,0,0,1,5.23-5.81,23.22,23.22,0,0,1,7.42-3.4,32.47,32.47,0,0,1,8.53-1.12,34.3,34.3,0,0,1,9.12,1.16,20.79,20.79,0,0,1,7.38,3.67,17.87,17.87,0,0,1,5,6.3,22.59,22.59,0,0,1,2,9.08h-8Q692.23,303.76,688,300.67Z"/><path class="cls-1" d="M738,292,763,355.78h-9.38l-7-19.22h-27l-7.15,19.22h-8.67L728.62,292Zm5.9,37.46-10.64-29.77h-.18l-10.82,29.77Z"/><path class="cls-1" d="M775.47,292l33.61,51.77h.18V292h8v63.83H808l-33.35-51.22h-.18v51.22h-8V292Z"/><path class="cls-1" d="M821.6,299.1V292h51v7.15H851.37v56.68h-8.49V299.1Z"/><path class="cls-1" d="M885.88,292v63.83h-8.49V292Z"/><path class="cls-1" d="M924.23,292l24.94,63.83h-9.38l-7-19.22h-27l-7.15,19.22H890L914.84,292Zm5.9,37.46-10.64-29.77h-.18L908.5,329.41Z"/><path class="cls-1" d="M991.19,355a31,31,0,0,1-24-.44,28.93,28.93,0,0,1-9.56-7.11,31,31,0,0,1-6-10.28,35.69,35.69,0,0,1-2.06-12.07,45.32,45.32,0,0,1,1.92-13.28,32.73,32.73,0,0,1,5.72-11,27.81,27.81,0,0,1,9.48-7.55A29.52,29.52,0,0,1,980,290.43a38.28,38.28,0,0,1,9.79,1.21,24.59,24.59,0,0,1,8.22,3.8,22.53,22.53,0,0,1,6.08,6.57,25.63,25.63,0,0,1,3.35,9.61H999a16.81,16.81,0,0,0-2.32-6.3,15,15,0,0,0-4.21-4.34,18.65,18.65,0,0,0-5.67-2.55,26.33,26.33,0,0,0-6.75-.85A19.47,19.47,0,0,0,963.25,306a26.92,26.92,0,0,0-3.88,8.67,39.72,39.72,0,0,0-1.26,10,32.31,32.31,0,0,0,1.43,9.61,25.27,25.27,0,0,0,4.21,8.14,20.48,20.48,0,0,0,6.84,5.63,20.26,20.26,0,0,0,9.43,2.1,22.65,22.65,0,0,0,8.85-1.61,18.21,18.21,0,0,0,10.46-11,21.76,21.76,0,0,0,1.16-8.18H980.11v-7.15h28v33.61h-5.36l-2.24-7.95A21.15,21.15,0,0,1,991.19,355Z"/><path class="cls-1" d="M1016.27,311.31a31.48,31.48,0,0,1,5.77-10.69,28.16,28.16,0,0,1,9.56-7.42,33.41,33.41,0,0,1,26.64,0,28.1,28.1,0,0,1,9.57,7.42,31.83,31.83,0,0,1,5.77,10.69,42,42,0,0,1,0,25.12,31.88,31.88,0,0,1-5.77,10.68,27.63,27.63,0,0,1-9.57,7.38,34,34,0,0,1-26.64,0,27.69,27.69,0,0,1-9.56-7.38,31.53,31.53,0,0,1-5.77-10.68,42,42,0,0,1,0-25.12Zm7.82,22.08a26,26,0,0,0,3.94,8.45,20.06,20.06,0,0,0,6.88,6,23.14,23.14,0,0,0,20,0,20.15,20.15,0,0,0,6.88-6,25.78,25.78,0,0,0,3.93-8.45,36.59,36.59,0,0,0,0-19,25.69,25.69,0,0,0-3.93-8.45,20.07,20.07,0,0,0-6.88-6,23.14,23.14,0,0,0-20,0,20,20,0,0,0-6.88,6,25.91,25.91,0,0,0-3.94,8.45,36.88,36.88,0,0,0,0,19Z"/><path class="cls-1" d="M543.56,402.64q14.75,0,22.71,7.51t8,22.89a51.81,51.81,0,0,1-1.79,14.26,26.67,26.67,0,0,1-5.54,10.46,24.12,24.12,0,0,1-9.57,6.48,38.34,38.34,0,0,1-13.77,2.23h-21.9V402.64Zm.72,56.68a35.13,35.13,0,0,0,3.57-.22,20,20,0,0,0,4.56-1.08,20.64,20.64,0,0,0,4.78-2.45,16.33,16.33,0,0,0,4.25-4.38,24.76,24.76,0,0,0,3.09-6.93,36.72,36.72,0,0,0,1.2-10.06A42.53,42.53,0,0,0,564.61,424a19.56,19.56,0,0,0-3.66-7.69,16.13,16.13,0,0,0-6.57-4.82,26,26,0,0,0-9.92-1.66H530.15v49.53Z"/><path class="cls-1" d="M626,402.64v7.15H590.41v20.3h33.17v7.15H590.41v22.08h35.85v7.15H581.91V402.64Z"/><path class="cls-1" d="M694.6,411.67a19.65,19.65,0,0,0-11.57-3.4,20.72,20.72,0,0,0-9.79,2.15,19.39,19.39,0,0,0-6.71,5.76,25.11,25.11,0,0,0-3.89,8.27,37.19,37.19,0,0,0-1.25,9.66,41.59,41.59,0,0,0,1.25,10.33,24.88,24.88,0,0,0,3.89,8.49,19.25,19.25,0,0,0,6.75,5.76,20.9,20.9,0,0,0,9.84,2.15,18.8,18.8,0,0,0,7.46-1.39,16.77,16.77,0,0,0,5.63-3.84,17.6,17.6,0,0,0,3.71-5.86,23.83,23.83,0,0,0,1.61-7.33H710q-1.26,12.07-8.32,18.78t-19.31,6.7a30.86,30.86,0,0,1-13-2.54,25.42,25.42,0,0,1-9.21-7,30.21,30.21,0,0,1-5.5-10.55,45.08,45.08,0,0,1-1.83-13.05,42.32,42.32,0,0,1,2-13.1A31.64,31.64,0,0,1,660.63,411a26.82,26.82,0,0,1,9.48-7.19,30.51,30.51,0,0,1,13-2.64,32.94,32.94,0,0,1,9.47,1.34,25.53,25.53,0,0,1,8,3.93,22,22,0,0,1,5.81,6.49,23.74,23.74,0,0,1,3,9h-8.49Q699.47,415.06,694.6,411.67Z"/><path class="cls-1" d="M726.39,402.64v27.45H760V402.64h8.49v63.83H760V437.24H726.39v29.23h-8.5V402.64Z"/><path class="cls-1" d="M788.61,402.64v63.83h-8.49V402.64Z"/><path class="cls-1" d="M808.72,402.64v56.68h33.8v7.15H800.23V402.64Z"/><path class="cls-1" d="M891.33,402.64v7.15H855.75v20.3h33.17v7.15H855.75v22.08H891.6v7.15H847.26V402.64Z"/><path class="cls-1" d="M472.3,517.23a3.08,3.08,0,0,1-3.19-2.94V133.34a3.2,3.2,0,0,1,6.37,0V514.29A3.07,3.07,0,0,1,472.3,517.23Z"/><path class="cls-1" d="M60.33,102.1c1.34,5.12,3.51,8.75,6.47,10.8a11.6,11.6,0,0,0,6.67,2,12.19,12.19,0,0,0,1.89-.14,98.41,98.41,0,0,0,15.47-10.69,101.75,101.75,0,0,0,10.32-9.73c2.68-3.53,4.26-6.16,4.26-9,0-3.08-1.83-6.67-6.54-12.82A34.41,34.41,0,0,1,93.79,62.5a32,32,0,0,0-.9,6.39,4.71,4.71,0,0,0,0,.62,1.72,1.72,0,0,1,0,.34,2,2,0,0,1-1.49,1.91,1.86,1.86,0,0,1-.48.06,2,2,0,0,1-1.85-1.35c-2.93-9.11-9.67-16.32-14.28-20.42a63.32,63.32,0,0,1,.44,7.17c0,6.09-1,11-3,14.55a19.66,19.66,0,0,0-2.75,9.69,12,12,0,0,0,.73,4.46,2,2,0,0,1,.16.78,2,2,0,0,1-.73,1.53,2,2,0,0,1-2.4,0c-1.43-1.06-2.67-3.39-3.66-7a27,27,0,0,0-1.66,8.94c0,6.47,2.75,10,2.78,10a2,2,0,0,1,.08,2.31,2,2,0,0,1-2.17.78,6.9,6.9,0,0,1-2.3-1.25m50.8-12.79h-.22a.9.9,0,0,0-.63.28c-2.24,2.86-4.22,5.21-6.23,7.4a103.86,103.86,0,0,1-10.79,10.19,101.57,101.57,0,0,1-16.44,11.28c-1.29.72-2.57,1.4-3.91,2.1a1,1,0,0,0-.41.58,2.32,2.32,0,0,0,.14,1.64,2.54,2.54,0,0,0,1.42,1.09,1.22,1.22,0,0,0,.86,0l3-1.6,1.29-.69c2.22-1.24,4.26-2.46,6.19-3.72l.21-.13.63-.43,1.06-.7c.41-.29.82-.57,1.23-.87l.81-.57c.3-.21.61-.45.93-.69l.13-.09L91,114l.6-.45.24-.2c1.29-1,2.6-2,4-3.22,2.87-2.38,5.35-4.6,7.58-6.79l.19-.18,1.41-1.43.12-.13.17-.17c.5-.53,1-1,1.45-1.54l.18-.19c1-1,1.92-2.16,3-3.51a2.3,2.3,0,0,0,.17-.2s.41-.5.91-1.12l2.14-2.66a1.23,1.23,0,0,0,.13-.83,2.57,2.57,0,0,0-.81-1.61,2.31,2.31,0,0,0-1.38-.46M83.35,123.76,84.51,125l5,5.28.79-.42,1.59-.83.44-.25.45-.24a.35.35,0,0,1,.14-.07l1-.59.57-.34.16-.08c.19-.13.45-.28.71-.44l.13-.08.74-.46.13-.08.76-.49.1-.07.8-.54.13-.09.54-.38.45-.33.79-.57,1.15-.86.18-.14c.13-.1.29-.23.45-.34l.3-.25.41-.32.4-.32.76-.62.78-.64.69-.58.56-.46.4-.35.16-.14.45-.39.49-.42.54-.49.6-.55a2.86,2.86,0,0,0,.3-.28c.25-.22.46-.42.67-.62l.09-.09a.28.28,0,0,0,.1-.09l.69-.67.19-.18.61-.62,0-.06c.27-.27.48-.49.69-.72l.76-.83.6-.65.06-.08c.36-.41.69-.8,1-1.21l.44-.52c.11-.13.23-.3.37-.46l.8-1,.46-.59.54-.67-1.92-2.64-2.34-3.25-1-1.37a110.73,110.73,0,0,1-13.21,12.76,106.23,106.23,0,0,1-14.92,10.54m38.49-16.2L120.67,109a77.57,77.57,0,0,1-13.87,14.48A77,77,0,0,1,90,134.42l-.16.09-1.3.67c-.52.27-.64,1.51-.22,2.32a2.39,2.39,0,0,0,1.31,1,1.34,1.34,0,0,0,.95,0L92,137.8l3.87-2.1,2.47-1.33a65.76,65.76,0,0,0,7.86-5.33c1-.79,2-1.62,3.11-2.49l.12-.1c1-.84,2.06-1.73,3-2.59a67.69,67.69,0,0,0,6.65-6.72s.83-1,1.76-2.17l3.78-4.68a1.19,1.19,0,0,0,.22-.72,2.74,2.74,0,0,0-1-1.81,1.75,1.75,0,0,0-1.2-.42h-.12a1.49,1.49,0,0,0-.71.22m217.77,22.92h10V140.9c3.37-4.57,9.6-12,16.27-14.76a34.92,34.92,0,0,1-1.3-9.06,20,20,0,0,1,1.57-8.16,2,2,0,0,1,3-.78l18,12.91a8,8,0,0,1,1.82,11.06,7.75,7.75,0,0,1-6.37,3.26,8.57,8.57,0,0,1-4.61-1.38,6.23,6.23,0,0,1-.77-.56,9.36,9.36,0,0,0,3.66,5.46,9.26,9.26,0,0,0,5.42,1.74,9.37,9.37,0,0,0,7.63-3.9,8.82,8.82,0,0,0,1.55-3.63,2,2,0,0,1,1.28-1.46,2,2,0,0,1,1.94.33l3.36,2.74c5.36,3.85,9.83,4.94,11.84,4.6a1.39,1.39,0,0,0,.88-.39c.69-1-1.24-5.77-8.12-10.71L403,125.94a2,2,0,0,1-.95-1.72,2,2,0,0,1,.95-1.68,9.13,9.13,0,0,0,3-2.66,9.35,9.35,0,0,0-2.16-13,8.9,8.9,0,0,0-3.29-1.46,8,8,0,0,1,.5,9.87,7.71,7.71,0,0,1-6.34,3.23,8.91,8.91,0,0,1-4.77-1.43l-18-12.88a2,2,0,0,1-.45-2.73L384.6,83.11a8.36,8.36,0,0,1,5.09-3.1,9.57,9.57,0,0,1,7.17,2,7.61,7.61,0,0,1,3.38,5.39c0,.25,0,.5,0,.75a7.74,7.74,0,0,1-.55,2.8A9.73,9.73,0,0,0,403,88.16a6.36,6.36,0,0,0,1.14-3.84,15.12,15.12,0,0,0-1.76-6.43,34.1,34.1,0,0,1-3.18-14.59,30.76,30.76,0,0,1,.3-4,35.32,35.32,0,0,1-15.24,3.43,24.64,24.64,0,0,1-3.31-.19l-.08,0a16.9,16.9,0,0,0-2.53-.18c-2.44,0-5.69.5-7.34,2.91a9.54,9.54,0,0,0-1.64,4,7.51,7.51,0,0,1,3.21-1.64A7.73,7.73,0,0,1,378.71,69c2.51,1.81,4,3.92,4.32,6.26a7.81,7.81,0,0,1-1.42,5.67L368.47,99.28a2,2,0,0,1-1.26.79,1.92,1.92,0,0,1-1.48-.34L347.67,86.79a8,8,0,0,1-1.76-11,7.92,7.92,0,0,1,9.5-2.71A8.86,8.86,0,0,0,353,70.4a9.28,9.28,0,0,0-5.43-1.75,9.37,9.37,0,0,0-7.6,3.9,9.28,9.28,0,0,0-1.58,3.67,1.94,1.94,0,0,1-1.28,1.43,2.08,2.08,0,0,1-1.94-.34l-3.34-2.73c-4.78-3.42-8.88-4.65-11.11-4.65-1,0-1.46.23-1.62.44-.69,1,1.23,5.78,8.11,10.71l3.63,2.27a2.06,2.06,0,0,1,1,1.72,2,2,0,0,1-1,1.69,9.16,9.16,0,0,0-3,2.66,9.35,9.35,0,0,0,2.15,13,9.13,9.13,0,0,0,6.26,1.67,7.25,7.25,0,0,1-.7-.49,8.36,8.36,0,0,1-3.21-6.48,7.71,7.71,0,0,1,1.47-4.53,7.95,7.95,0,0,1,11.08-1.84l3,2.13,15,10.78a2,2,0,0,1,.81,1.47v.12a2,2,0,0,1-.61,1.43c-4.9,4.58-12.49,5.59-16.18,5.81-.41,6-4,12.86-7.31,17.95m-228.92,0h18.1l-6-8-1.43-1.91a81.86,81.86,0,0,1-9.55,9l-1.11.91m-9.45,6.72c2,2.15,5.7,6.21,8.54,9.33V131.21a75.32,75.32,0,0,1-8.54,6m137.21,26.65-1.9-1.38-6.8-4.91-8.64,6.29.74-2.26c.39-1.22,2-6.23,2.55-7.89l-6.84-4.94-1.94-1.4h10.84l3.32-10.25.74,2.22c.41,1.24,2.06,6.36,2.6,8H243.8l-1.93,1.4c-1.05.75-5.32,3.85-6.73,4.88l2.59,8Zm-115.39,0,3.28-10.15-8.78-6.35H128.4l2.59-8,.72-2.26.74,2.26c.4,1.23,2.06,6.35,2.61,8h10.68l-1.94,1.4c-1.05.75-5.31,3.85-6.72,4.88l2.58,8,.73,2.25-8.7-6.29L125,162.45Zm213.42,0-1.9-1.4-6.79-4.91c-1.4,1-5.66,4.12-6.7,4.89l-1.91,1.4.72-2.26c.39-1.22,2-6.23,2.55-7.89l-6.85-4.94-1.94-1.4H324.5c.54-1.67,2.2-6.78,2.59-8l.72-2.24.74,2.23c.41,1.24,2.07,6.36,2.61,8h10.62l-1.89,1.39c-1,.76-5.29,3.86-6.7,4.89.54,1.66,2.18,6.74,2.57,8ZM238.28,192c1.25,0,2.5.07,3.54.14A6.35,6.35,0,0,0,239,190.7a.52.52,0,0,0-.43.17,1.94,1.94,0,0,0-.29,1.08m8.15,2.1-2.29-.24s-3.22-.32-6.13-.32h-1.12l-.1-.66a4.18,4.18,0,0,1,.6-3,2,2,0,0,1,1.56-.72c2.14,0,5.42,3,5.79,3.32Zm-14.76,12.12.54.07.51,0h.35a6.87,6.87,0,0,0,3.34-.78,10.77,10.77,0,0,0-4.74.67m-55.23-.89h.13A1.57,1.57,0,0,1,178,206.5a2.77,2.77,0,0,0,1.71,1.91,2.71,2.71,0,0,1,1.2,1.29,3.9,3.9,0,0,1,1.63-1.34c1.15-.53,1.59-.92,1.83-1.64a1.65,1.65,0,0,1,1.43-1.1H186a1.58,1.58,0,0,1,1.43.89c.17.31.37.42,1.23.81l.28.11a3.21,3.21,0,0,1,1.36,1.35,2.92,2.92,0,0,1,1.52-1.35l.28-.11.12-.06.21-.15.11-.08.16-.17h0l.05,0,.1-.14.1-.12a1.77,1.77,0,0,1,.14-.23l0-.08a2,2,0,0,0,.14-.32,4.27,4.27,0,0,0,.15-.48l0-.23c0-.06,0-.11,0-.17a3.52,3.52,0,0,0,0-.45,3.17,3.17,0,0,0-3.2-3.15,3,3,0,0,0-2.94,1.54,1.67,1.67,0,0,1-1.52,1,1.6,1.6,0,0,1-1.5-1.09,3.06,3.06,0,0,0-3.07-1.84,3.16,3.16,0,0,0-3.22,2.36,1.63,1.63,0,0,1-1.43,1.19h-.11a1.68,1.68,0,0,1-1.54-1,2.5,2.5,0,0,0-2.5-1.35,2.67,2.67,0,0,0-2.68,2.65,2.71,2.71,0,0,0,0,.4,3,3,0,0,0,.07.32.76.76,0,0,1,.06.18l0,0,0,.08.18.34.09.14s.07.1.12.15l.36.37.17.13a1.57,1.57,0,0,1,.13.1l.32.17a2.33,2.33,0,0,1,1.07,1.07,3,3,0,0,1,1.17-1.09l.09-.06c.95-.44,1.13-.56,1.25-.87a1.68,1.68,0,0,1,1.51-1M228.11,216l.08,0,1.29.64.69.34a4.46,4.46,0,0,0,1.79.55.67.67,0,0,0,.32-.06,3.45,3.45,0,0,0,.79-2.18v-.19c-1-.33-2.06-.64-3.09-.88a1.15,1.15,0,0,0-.91.07,3.32,3.32,0,0,0-1,1.67M168.65,226.6h1.73l-.89-2.64Zm8,6.08h-5.15v-1.74l.18,0c0-.09-.07-.18-.1-.28s-.07-.25-.1-.34l-.09-.29h-3.7l-.16.51c0,.1-.06.23-.09.34h.16v1.82h-4.78V231l.53-.12a0,0,0,0,1,0,0l0-.11.1-.38,0-.14c.12-.36.25-.78.4-1.3s.25-.75.38-1.15l.42-1.33c.13-.41.26-.82.37-1.22s.22-.67.32-1,.19-.66.3-1,.21-.67.3-1,.16-.49.23-.72.2-.69.29-1h-.17l0-1.77h6.55v1.76l-.19,0c.07.21.14.4.21.63s.16.51.25.8.16.48.24.75.26.82.42,1.26l.77,2.32.91,2.73c.2.57.37,1.11.54,1.57,0,.09.06.15.08.2h.5Zm-36.24,14-1.93-1.4-6.78-4.9c-1.4,1-5.67,4.12-6.71,4.89l-1.93,1.41.74-2.27c.39-1.22,2-6.24,2.55-7.9-1.43-1-5.8-4.17-6.85-4.94l-1.91-1.39H128.4c.53-1.68,2.19-6.8,2.58-8l.73-2.26.74,2.26c.4,1.24,2.06,6.36,2.61,8h10.7l-2,1.39-6.71,4.88c.54,1.66,2.18,6.75,2.58,8Zm196.09,0-1.91-1.41-6.79-4.9-6.71,4.88-1.9,1.4.72-2.25c.39-1.22,2-6.25,2.55-7.9-1.43-1-5.8-4.17-6.86-4.95l-1.91-1.39H324.5c.54-1.67,2.2-6.79,2.59-8l.72-2.25.74,2.25c.41,1.23,2.07,6.36,2.61,8H341.8l-1.91,1.39-6.7,4.88,2.57,8Zm-151.63.78h18V212.3c-.32-.22-.79-.56-1.3-.94l-.61-.43V245a1.65,1.65,0,0,1-2.33,1.52,24.44,24.44,0,0,0-9.89-2.31,16.38,16.38,0,0,0-4.15.51,6.27,6.27,0,0,1,.33,2,5.58,5.58,0,0,1,0,.7m32.76,49.86a16.19,16.19,0,0,1-2.7-.24l.17-1.53h.28c2,0,8.65-.53,8.83-7.44v-.75H225c.09,0,9.69-.14,14.65-2.51l.7,1.37a41.66,41.66,0,0,1-13.43,4.23,9.1,9.1,0,0,1-9.26,6.87m31.65,16.06,6.13-4.6c6.15-4.63,9.33-9.23,9.42-13.69a10.14,10.14,0,0,0-3.35-7.52l-4-3.29,4.79,2c.07,0,6.4,2.72,5.9,9.44-.67,8.92-11.5,14.18-12,14.4ZM123.86,330.66l.72-2.24c.4-1.22,2-6.23,2.56-7.88l-6.85-5-1.89-1.4h10.79c.54-1.67,2.2-6.78,2.59-8l.73-2.26.74,2.26c.41,1.23,2.07,6.35,2.61,8h10.66l-1.92,1.4-6.71,4.88c.54,1.67,2.18,6.75,2.57,8l.72,2.22-1.9-1.35-6.8-4.91c-1.41,1-5.66,4.14-6.72,4.89Zm194.51,0,.72-2.25c.4-1.22,2-6.23,2.56-7.88l-6.86-5-1.92-1.4H323.7l2.6-8,.74-2.25.73,2.25,2.59,8H341l-1.91,1.4-6.7,4.88c.54,1.67,2.18,6.76,2.56,8l.72,2.22-1.9-1.36L327,324.38l-6.71,4.9ZM233.53,199.14a10,10,0,0,1,6.12,2.05,4.07,4.07,0,0,0-1-1.73,6.73,6.73,0,0,0-4.89-1.66,12.56,12.56,0,0,0-2.9.35c-2.33.55-3.34,1.42-3.54,2.15a22.14,22.14,0,0,1,6.19-1.16m41.15,2.53a2.46,2.46,0,0,0,.51,1c1.46,1.59,4.59,1.77,5.86,1.77.39,0,.63,0,.64,0l.69,0-1-.76a10.56,10.56,0,0,0-5.61-2,6.5,6.5,0,0,0-1.09.1m-57.48-5a7.35,7.35,0,0,0-.77,4.65c.67,3,2.45,4.53,5.29,4.53a15.43,15.43,0,0,0,6.58-1.88,16.35,16.35,0,0,1,7.18-1.86,10.54,10.54,0,0,1,3.54.58,8.41,8.41,0,0,0-5.49-2,23,23,0,0,0-6.19,1.22c-1.07.32-2.17.64-3.26.88a5.51,5.51,0,0,1-1.2.13c-3.66,0-5.12-3.78-5.68-6.27m-11,28.75v2.91a14.89,14.89,0,0,1,1.33-2.23,13.83,13.83,0,0,1-1.33-.68m0,9.19V239a17.39,17.39,0,0,1,3-5.83,20.55,20.55,0,0,0-3,1.39m-45.06-24.76v32.73a41.6,41.6,0,0,1,9.38-1.13h.5l0,0a5.24,5.24,0,0,1,5.6-.85,6.94,6.94,0,0,1,1.57-.24V211.47a1.35,1.35,0,0,0-.16-.27,6.61,6.61,0,0,1-2-1.55c-.3.17-.59.31-.89.45a23.05,23.05,0,0,0-1.55,2.63l-.17.24a1.58,1.58,0,0,1-1.27.63,1.71,1.71,0,0,1-1.57-1.15,18,18,0,0,0-1-2.4,6,6,0,0,1-2.38-2.31l-.58.17c-1.87.56-3.74,1.2-5.57,1.91m27.27,31.08a27.44,27.44,0,0,1,9.23,1.7V209l-.32-.1-1.49-.45-.18-.06a5.51,5.51,0,0,1-2.54,2.06,15.84,15.84,0,0,0-1.24,2.29l-.09.18a1.57,1.57,0,0,1-.33.52,1.65,1.65,0,0,1-1.44.45,1.68,1.68,0,0,1-1.29-1.09,16.66,16.66,0,0,0-1.32-2.45h0l-.17-.07c-.3-.14-.62-.29-.94-.46a8,8,0,0,1-2.36,1.57l-.13,0a8.38,8.38,0,0,0-1.53,2.45,2.06,2.06,0,0,1-1,.93v15.9a1.77,1.77,0,0,1,1-1.3,7.65,7.65,0,0,1-.46-2.61c0-4.5,3.37-8.17,7.52-8.17s7.52,3.67,7.52,8.17a8,8,0,0,1-.47,2.63,1.75,1.75,0,0,1,1.18,1.65,1.77,1.77,0,0,1-1.77,1.77H193.6a1.78,1.78,0,0,1-1.56-.92,1.73,1.73,0,0,1,.1-1.82,6.17,6.17,0,0,0,1.16-3.31c0-2.57-1.79-4.65-4-4.65s-4,2.08-4,4.65a6.16,6.16,0,0,0,1.15,3.29,1.74,1.74,0,0,1-1.48,2.69h-2a1.77,1.77,0,0,1-1.74-1.46v9.63l0,0a6,6,0,0,1,1.3.85,17.58,17.58,0,0,1,5.85-.9m74,0c.07,1.62,1.13,2.84,3.15,3.61a26,26,0,0,0,2.51.87,17,17,0,0,1,1.16-4.56,14.65,14.65,0,0,1-3.77.53,9.9,9.9,0,0,1-3.05-.45m-106.52,6.49H169a11.31,11.31,0,0,1,.27-2.68,34.74,34.74,0,0,0-9.28,1.57,1.66,1.66,0,0,1-1.51-.23,1.62,1.62,0,0,1-.69-1.33v-32.6l-1.94,1.5Zm100.81,3.27a2.77,2.77,0,0,0-.11.75c.23,3.7,3.75,5.74,3.78,5.76l.84.48q-.24-.69-.48-1.44a39.19,39.19,0,0,1-1.47-6l-.43-.17a7.39,7.39,0,0,1-1.24-.72c-.3.51-.59.93-.83,1.27l-.06.07m-31.35-8.35.1,2.6c0,.23.2,5.6-3.53,7.36-2.68,1.26-6.86,4.86-6.19,10.36a6.48,6.48,0,0,1,6.86-4c.22,0,.44,0,.66,0h0c5.52,0,10.69-5,11.77-11.38l.6-3.51.9,3.44c.05.17,1.06,4.08-.15,6.74a4.57,4.57,0,0,0,.42,3.9,6.88,6.88,0,0,0,4.5,3.17c-.65-1.94-1.4-5.45,1-7,3.23-2.1,5.38-4.23,5.37-7.8,0-.25,0-.41,0-.41l1.54,0c0,.15,0,.28,0,.43a16,16,0,0,0,.61,4.16,9.2,9.2,0,0,0,4.3,4.54,6.72,6.72,0,0,1-.6-5.42,3,3,0,0,1,.47-.81,8.12,8.12,0,0,0,1.81-4.83v-5.25l1.5,5c0,.15,1.21,3.81,5,3.81a7.71,7.71,0,0,0,1.24-.11,8.13,8.13,0,0,1-4.33-8.26,14.39,14.39,0,0,0-.08-3.81l1.49-.36a4.55,4.55,0,0,0,4,3.08,7.08,7.08,0,0,1-1.54-6.86,24.1,24.1,0,0,1,.86-2.3,9.09,9.09,0,0,0,.8-5.26l-.18-1.85,1.44,1.19a9.81,9.81,0,0,1,2.82,4.49,13.27,13.27,0,0,0,.16-8.29,2.27,2.27,0,0,1,.17-2.17l.45-.5.56.36a4.12,4.12,0,0,0,2.52.72,14.33,14.33,0,0,1-4.24-9.13l-.1-1.22,1.14.44c2.84,1.08,5.34.9,7.45-.58a7.61,7.61,0,0,1-4.22-2.12,6.65,6.65,0,0,1-1.62-5.19l0-.49.46-.18a13,13,0,0,1,4.27-.78,8.62,8.62,0,0,1,1.64.15,17.11,17.11,0,0,0-6.13-5.48l-1-.53.89-.74a13.23,13.23,0,0,0,3.33-4.06c-3.62,1.57-6.4,2.07-8.26,1.5l-1.09-.33.71-.89a13.9,13.9,0,0,0,3.25-7.44,14.3,14.3,0,0,1-3.7,2.74,16.39,16.39,0,0,1-6.14,2,8.48,8.48,0,0,1,1.33,5,7.1,7.1,0,0,1-6.65,6.69,3.23,3.23,0,0,1-1.46-.31L250,195.25l2.88-.15a5.12,5.12,0,0,0-.26-10.13h-.08a4.59,4.59,0,0,0-4.17,3.44l-.2.66-.69-.13a49.42,49.42,0,0,0-8.29-1c-2,0-2.71.32-3,.51l-.24.17-.29,0s-2.8-.26-5.65-.26c-5,0-5.64.75-5.71.83a1.45,1.45,0,0,0-.15,1.29,10.22,10.22,0,0,1,2.22,0l3.21.44-3.06,1.05a3.19,3.19,0,0,0-2.38,3.62,6.93,6.93,0,0,0,1.91,3.81c.48-.94,1.66-2,4.47-2.71a14,14,0,0,1,3.26-.39,8.24,8.24,0,0,1,6,2.13,6.19,6.19,0,0,1,1.61,4.7l0,.83a21.22,21.22,0,0,0-.27-4.77l-.74-3.88,2.15,3.32c4.19,6.46-.85,10-.9,10.08l-2.44,1.69,1.31-2.66a9,9,0,0,0,.8-2.88l-.11-.12c-1,3.65-5,5-8.09,5h-.5l-.71-.05-.59-.08-.38-.05a9,9,0,0,1-3-1.1,6,6,0,0,1-1.33-1.11h0l-.19-.25-.18-.25a4,4,0,0,0-1.37,1.75c-.57,1.43-.43,3.36.39,5.64.71-1.66,2.07-3.3,4.32-3.3a5,5,0,0,1,1.24.16c1.7.41,3.31.93,4.86,1.43a37.88,37.88,0,0,0,4.72,1.33l.17,0,.79.11.35,0h.08l.26,0h.47a9.76,9.76,0,0,0,6.24-2.4l4.08-3.51-2.93,4.51a10.85,10.85,0,0,1-9.05,4.7,14.6,14.6,0,0,1-4.48-.75C236,218.44,234.82,221,232,221a7.57,7.57,0,0,1-3.3-.9l-.67-.33c-.7-.36-1.43-.72-2.16-1.07l-.32-.15c-2.62-1.23-5.38-2.3-7.94-2.3A7.88,7.88,0,0,0,210.9,220a13.1,13.1,0,0,1,2.47-.26,5.4,5.4,0,0,1,5.46,3l.06.12.05.08c.14.26.32.56.57,1l.52.81-.91.33a4.81,4.81,0,0,1-1.45,0c-.47,0-1,0-1.61,0a7.73,7.73,0,0,0-2.15.21,7,7,0,0,0-2.63,1.62l-.45.46a12.58,12.58,0,0,0-1.75,2.5,10.58,10.58,0,0,1,3.24-.55,7.83,7.83,0,0,1,2.4.37,19.22,19.22,0,0,0,2.15.55l2.58.52-2.45.95a13.09,13.09,0,0,0-8.09,9.18c3.79-2.79,7.45-3.69,10.65-2.67l1.74.56-1.62.85a8.78,8.78,0,0,1-1.94.8c-4.5,1.25-9.48,6.36-10.05,11.11a9.78,9.78,0,0,1,7.05-3.23c4.14.12,7.92-1.35,9.25-3.61Zm-17.95,22.29H208c.11,0,2.67.07,4.54,3.37a5,5,0,0,0,4.52,2.85h.38a18.07,18.07,0,0,1-1.44-1.61c-1.17-.52-4-2.36-3.77-7.84a13.85,13.85,0,0,1,4.91-9.92,22.89,22.89,0,0,1-2.51.08h-.08c-4.24,0-7.41,6.14-7.44,6.2l-.61,1.2-.72-1.14a9.65,9.65,0,0,1-1-2.3l-.13-.45a8.45,8.45,0,0,1-.27-1.33,47.71,47.71,0,0,1-12,.6,27.88,27.88,0,0,1-5.62-.91c-2.49-.79-4.19-1.78-5.06-3l-.2-.31-.11-.21a2.59,2.59,0,0,1-.15-.37s0,.05,0-.15l0-.08a2.3,2.3,0,0,1-.07-.58v-.08c0-.06,0-.13,0-.2l0-.22a1.48,1.48,0,0,1,.07-.26l0-.09a3,3,0,0,0-.16-2.62,3.3,3.3,0,0,0-.94-1.06l-.17-.1a1.28,1.28,0,0,0-.25-.14,3.57,3.57,0,0,0-.94-.3,3.42,3.42,0,0,0-1.34.08,3.16,3.16,0,0,0-.59.24l-.38.21-.38-.23c-1-.62-2.23-.73-2.76-.2a2.68,2.68,0,0,0-.32.42h.16a4.26,4.26,0,0,1,1.92.42l.6.32-.26.64a3.06,3.06,0,0,0,0,2.32,4.51,4.51,0,0,0,.22.44l0,0a5,5,0,0,0,.34.43c.09.09.19.19.3.28a1.72,1.72,0,0,0,.33.24l.12.09a1.18,1.18,0,0,0,.19.11c.44.22.47.22.68.22H178a2.12,2.12,0,0,1,2,1.54,2.18,2.18,0,0,1-1.32,2.7,2.23,2.23,0,0,1-.82.17,2.42,2.42,0,0,1-1.22-.39,1.59,1.59,0,0,1-.69-.91c-.16-.4-.34-.86-1.43-1.38a3.53,3.53,0,0,0-1.49-.34,3,3,0,0,0-2.75,1.63l-.28.5-.62,0c-1.09,0-2,.33-2.19.83a5.51,5.51,0,0,0-.22.54,4.13,4.13,0,0,1,2.65-.28l.41.11.13.4a3.32,3.32,0,0,0,1.75,2,3,3,0,0,0,4.14-1.15,2.21,2.21,0,1,1,3.45,2.74,2.08,2.08,0,0,1-2.09.68,2.87,2.87,0,0,0-.67-.07,3.45,3.45,0,0,0-3,1.69,2.39,2.39,0,0,0-.25,1.17v.48l-.42.22a2.36,2.36,0,0,0-1.3,1.53,2.15,2.15,0,0,0,0,.84,3.17,3.17,0,0,1,1.85-1.32l.44-.11.3.33a3.79,3.79,0,0,0,1,.73,3.16,3.16,0,0,0,1.37.3,3.05,3.05,0,0,0,2.77-1.63,3.88,3.88,0,0,0,.26-2.31,2.28,2.28,0,0,1,1.76-2.07c1.87-.59,5.54-.25,8.73.84l3.07.91c1.57.47,4.06,1.17,7.14,1.84,1.94.47,2.27,1,3.33,2.85.29.48.62,1.07,1.07,1.79a4.15,4.15,0,0,0,3.48,2.11,4.93,4.93,0,0,1-1.11-4Zm55.39-13.86a36.57,36.57,0,0,0,1.14,4.41c3.2,9.7,5.3,11.51,8.2,14a46.8,46.8,0,0,1,3.44,3.22,23.49,23.49,0,0,1,6.73,12.44c.08.37.18.55.59.58A8,8,0,0,0,287.3,284c.25-.22.92-.79.92-2.69,0-5-3.68-8.19-9.29-12.56-5.26-4.09-10.63-9.66-11-20a10.15,10.15,0,0,1-5.16,2m-17.42,42.94a2.72,2.72,0,0,0-1.84.45,1.13,1.13,0,0,0-.24.44c0,1.26,2,2.06,2,2.06l.76.3.13-.13a33.12,33.12,0,0,0,2.31-2.67,13.08,13.08,0,0,0-3.14-.45m-12.06,14.81c.13.13.52.57,1.79,2a18.79,18.79,0,0,1,2.3,2.91l.12-.29a8.25,8.25,0,0,1,3.14-3.51c0-.23,0-.48,0-.74a16.74,16.74,0,0,1,3.14-9.11,5.77,5.77,0,0,1-1.55.78,7.85,7.85,0,0,1-2.36.4l-1.27,1.14a7.23,7.23,0,0,1-4.87,1.72,8.86,8.86,0,0,1-1.76-.19c0,.14,0,.28,0,.4a7.74,7.74,0,0,0,1.36,4.45M196.3,337a2.17,2.17,0,0,1,1.66.78,2.23,2.23,0,0,1,.34,2.06,2,2,0,0,1-1.33,1.36,3.4,3.4,0,0,0-2.21,3.22,2.41,2.41,0,0,0,.4,1.1l.26.39-.24.42a2.27,2.27,0,0,0-.29,1.93,2,2,0,0,0,.39.67,3.08,3.08,0,0,1,.86-2l.32-.32.43.12a3.68,3.68,0,0,0,1.2.1,3.08,3.08,0,0,0,2.75-3.22,3.67,3.67,0,0,0-1-2.06,2.27,2.27,0,0,1,.39-2.65c1.61-1.84,6.27-4,11-4.29a17.45,17.45,0,0,1,4.17.44,20.45,20.45,0,0,0,3.75.46A8,8,0,0,0,222,335a3.12,3.12,0,0,1-1.79-1.15,1.32,1.32,0,0,1-.19-1.11l.08-.24.2-.14a3.9,3.9,0,0,1,2.42-.7,16.42,16.42,0,0,1,1.71.14,12.69,12.69,0,0,0,1.57.14,2.89,2.89,0,0,0,1.72-.46,2.67,2.67,0,0,1-1.87-1.12,1.23,1.23,0,0,1-.06-1.17,1.6,1.6,0,0,1,1.5-.69c.24,0,.53,0,.85,0,1.38.09,3.47.33,5.21-1.6-1,.06-1.72.09-2.26.09-1,0-1.92-.06-2.21-.77l-.11-.29.11-.28c.76-1.9,2.56-1.93,4.14-1.95,1.86,0,3.78-.05,5.2-2.42-1.05.05-1.83.13-2.44.2a4.32,4.32,0,0,1-2.68-.22l-.93-.51.77-.72c3.37-3.18,2.12-4.53-.36-7.23-.62-.68-1.32-1.45-2-2.3a11.52,11.52,0,0,1-1.74-9.52l0-.11c.24-.65.46-1.05.46-1.07l.38-.68.68.38a6.58,6.58,0,0,0,3.25.95,4.55,4.55,0,0,0,1.87-.38,4,4,0,0,1-1.32-2.46,2.23,2.23,0,0,1,.56-1.65l.49-.48.53.43a6.56,6.56,0,0,0,4,1.7,3.57,3.57,0,0,0,1.36-.26,4.41,4.41,0,0,1-1.22-2.35,3.77,3.77,0,0,1,1-3.05,5.47,5.47,0,0,1,4.42-1.64,18,18,0,0,1,4.9.81c.58-1,1.73-3.45.5-5.55-1.46-2.52-4.75-3.82-6.93-4.69-.36-.14-.7-.27-1-.4-2-.86-5.56-2.46-6.66-3a51.5,51.5,0,0,1-12.83,4.22c-1.65.25-7.3,1.41-10.35,6l-.27.4-.48-.06a15.29,15.29,0,0,0-2-.13c-1.56,0-3.56.3-4.22,1.74s-.12,2.58.44,4a9.2,9.2,0,0,1,.84,4.75,3.7,3.7,0,0,0,.93-3.36,3.83,3.83,0,0,1,.43-3.26,2.21,2.21,0,0,1,1.78-.78l1,0-.16.87a18.54,18.54,0,0,0,1.11,9.31,30.14,30.14,0,0,0,5.7,9.9C220.35,314,222,316,219.47,320a36,36,0,0,1-10.87,9.52v0l-.4.25a26.94,26.94,0,0,1-6.26,2.63,11.44,11.44,0,0,1-2.77.37c-2.9,0-4.5-1.53-4.74-2.95a3,3,0,0,0-3.3-2.49,3.13,3.13,0,0,0-2.37,1.5l-.21.37h-.43c-1.05,0-2.18.4-2.38,1.23a3.54,3.54,0,0,0-.07.5,4.26,4.26,0,0,1,1.93-.73l.69,0,.11.67a3.06,3.06,0,0,0,3.34,2.47,1.33,1.33,0,0,0,.87-.29,2,2,0,0,1,1.09-.32,2.19,2.19,0,0,1,1.7,3.51,2.12,2.12,0,0,1-1.82.87h0a1.65,1.65,0,0,1-1.07-.41,2.35,2.35,0,0,0-1.9-.41,3,3,0,0,0-2.83,3.22v.61l-.39.22c-1,.56-1.59,1.33-1.52,1.89a3.34,3.34,0,0,0,.09.52,3.85,3.85,0,0,1,2-1.57l.4-.13.33.27a3.28,3.28,0,0,0,2.49.77,2.94,2.94,0,0,0,2.84-3.08,2.23,2.23,0,0,1,2.24-2m55.82,14.48a2.24,2.24,0,0,1,.93.21l.13.07a2,2,0,0,1,.91,1.48,1.94,1.94,0,0,1-.56,1.53l-.16.13A2.78,2.78,0,0,0,251.9,357a3,3,0,0,0,2,3.18l.27.09.15.25a4.45,4.45,0,0,1,.21,3.19,2.08,2.08,0,0,0,1.18-.68,2.34,2.34,0,0,0,.18-2.07l-.16-.62.58-.27a2.64,2.64,0,0,0,1.47-2.25,2.82,2.82,0,0,0-1.21-2.86c-.83-.49-.86-2-.54-3.22s1.74-4.84,7.63-5h.1a14.15,14.15,0,0,1,2,.23,21.24,21.24,0,0,0,3.23.33,6.54,6.54,0,0,0,5.1-2,7.31,7.31,0,0,1-1,.07,6.46,6.46,0,0,1-1.8-.24l-.6-.21.08-.63c.31-2.27,2.66-2.64,4.73-3a8.49,8.49,0,0,0,3-.82,13.17,13.17,0,0,1-1.36.08,4.87,4.87,0,0,1-3.12-.8l-.29-.27.05-.39c.18-1.35,1.72-1.5,3.34-1.65,2.3-.22,4.18-.55,5.06-2.1a5,5,0,0,1-1.07.13,3.46,3.46,0,0,1-1.75-.44l-.41-.26.06-.49c.3-2.2,2.14-2.66,3.77-3.06s3.2-.79,3.9-2.69a13.31,13.31,0,0,1-3.62.63c-1.53,0-1.92-.59-2-1.09V328c.11-1.23.28-2.27.43-3.19.28-1.66.46-2.76,0-3.35s-1.84-1-4.32-1.26a21,21,0,0,1-3.75-.7l-.79-.23,0-.05a7.19,7.19,0,0,1-4.06-3.1,4.59,4.59,0,0,1,.08-4.07,9.61,9.61,0,0,1,2.28-3.06l.37-.36.47.2a11.76,11.76,0,0,0,4.62,1.1,6.12,6.12,0,0,0,5-2.34h-.52a9.19,9.19,0,0,1-5.39-1.44l-1.49-1,1.77-.35a5.9,5.9,0,0,1,.83-.11c2.38-.07,6.22-.6,7.72-3.16a10.77,10.77,0,0,1-2.72.37,6.85,6.85,0,0,1-3.08-.67l-.6-.3.21-.63a19.38,19.38,0,0,0,.87-6.39V293l.84.06c.58,0,1.18.06,1.78.06,3.16,0,7.59-.57,10.75-3.3a10.83,10.83,0,0,0,3.58-8.49,15.79,15.79,0,0,0-2.15-8.07l-.24-.43.29-.4c.72-1,2.8-4.43-.34-7.44a10.38,10.38,0,0,0-2.64-1.78,5.88,5.88,0,0,1-3.49-3.73,3.52,3.52,0,0,0,1.16,3.66c2.58,2.17,2.31,3.66,1.92,4.35l-.49.85-.72-.68a71.76,71.76,0,0,0-5.71-4.75c-6.07-4.73-8.22-8.74-8.22-15.32a12.81,12.81,0,0,1,3.69-8.62l.5-.56.58.49a9.9,9.9,0,0,0,6.56,2.4,9.23,9.23,0,0,0,7.61-3.62,27.13,27.13,0,0,0,2.38-4.91,17.49,17.49,0,0,1,3.34-6,9.78,9.78,0,0,0-6.3,4.92l0,.06a8.78,8.78,0,0,1-3.06,2.71l-6.62,3.36,5.8-4.65c4.23-3.4,4.3-9.93,4-13.52-.28-3,1.46-5.71,2.95-7.47-5.25,1.79-6.86,6-8.12,10.6-.56,2-3.37,3.64-5.65,4l-1.72.24,1-1.44a9.66,9.66,0,0,1,1.94-2l.13-.1.3-.26a5,5,0,0,0,2-4.12,17,17,0,0,1-5.48,3.55,9.48,9.48,0,0,0-5.27,5.5,8.59,8.59,0,0,0,.7,7l.27.49-.38.41c-3.47,3.68-5.09,7.36-5.09,11.59,0,9.09,3.9,14,9.74,18.52,5,3.86,10.58,8.25,10.58,15.22a6.54,6.54,0,0,1-2.08,5.24c-1.82,1.58-4.58,2.07-6.57,2.22a4,4,0,0,1-4-3.33,20.24,20.24,0,0,0-5.74-10.64,43.49,43.49,0,0,0-3.32-3.1c-3-2.55-5.35-4.6-8.47-13.35l-1.33.24c-.1,0-7.93,1.41-12.24-4.78a20.52,20.52,0,0,1-3.74,3s-.13.16-.13.72a10,10,0,0,0,.86,3.38l2,4.25-4.65-.57c-5.12-.64-7.43-3.48-8.35-5.12a8.49,8.49,0,0,1-.7-1.72A14.12,14.12,0,0,1,222.33,262a3.63,3.63,0,0,0-2.64.71,4.12,4.12,0,0,0-.94,1.28,30.11,30.11,0,0,0,4.51-.74l.54-.14.3.47c2.22,3.5,7,8.47,16.86,12.28,14.91,5.73,14.8,10.57,13.54,14.65l-.07.2c-.06.18-1.35,3.81-5.83,8.45-2.81,2.93-5.45,7.54-4.39,11.69l.16.61-.57.28a6.41,6.41,0,0,0-3.21,2.76.67.67,0,0,1-.06.12.36.36,0,0,0,0,.11,3,3,0,0,0,.86,3.19,6,6,0,0,0,1.07.86,7.49,7.49,0,0,0,1.33.66,9.9,9.9,0,0,0,1.45.51,8.17,8.17,0,0,1,2.33,1,4.5,4.5,0,0,1,.64.56,3.43,3.43,0,0,0-1.9-2.41c-1.26-.67-1.87-1.39-1.88-2.22,0-.51.23-1.26,1.4-1.91l.49-.28.42.39a15.7,15.7,0,0,0,4.74,2.93,30.68,30.68,0,0,0,4.4,1.61l.12,0c.66.2,1.28.39,1.89.55,4.54,1.42,9.66,3,9,7.78-.94,7-9.52,20.18-15.22,19.42-1.93-.26-3-.69-3.46-1.44-.8-1.37-1.51-2.41-2.75-2.58a3,3,0,0,0-2.31.67l-.31.26-.4-.12c-1.37-.4-2.35-.31-2.88.28a2.22,2.22,0,0,0-.44.93,3.51,3.51,0,0,1,2.44-.18l.59.19,0,.62a3,3,0,0,0,2.58,3.18,3.07,3.07,0,0,0,2.67-1l.07-.07a2.56,2.56,0,0,1,1.51-.6,1.79,1.79,0,0,1,1.51.87,1.94,1.94,0,0,1-2,2.91c-2.36-.19-3.92.74-4.13,2.39a2.7,2.7,0,0,0,0,.94l.1.52-.45.27a2.35,2.35,0,0,0-1.31,1.68,2.1,2.1,0,0,0,.32,1.12,3.41,3.41,0,0,1,1.8-1.82l.39-.17.36.25a3.07,3.07,0,0,0,1.35.53,2.42,2.42,0,0,0,.38,0,3.06,3.06,0,0,0,3-2.56,2.14,2.14,0,0,0,0-.56,2.34,2.34,0,0,1,.29-1.61,1.71,1.71,0,0,1,1.54-.9M152.06,172.77V297.31a77.63,77.63,0,0,0,155.26-.05V225.71l-1,.46c-4.29,2-5.33,4.61-6.65,7.88a29,29,0,0,1-2.7,5.52,12.22,12.22,0,0,1-8.53,5,13.64,13.64,0,0,1-8.35-1.53,8.54,8.54,0,0,0-1.48,4.58c0,4.88,1.38,7.89,5.35,11.35a9.55,9.55,0,0,1,1.47-3.47l3.9-5.5.81,6.7c.31,2.55.75,2.78,2.21,3.55a14,14,0,0,1,3.4,2.33,8.33,8.33,0,0,1,2.73,6.09,9.56,9.56,0,0,1-1.14,4.37,19,19,0,0,1,1.88,8.32,14.11,14.11,0,0,1-4.73,11c-3.75,3.24-8.66,4.05-12.3,4.12,0,.66-.13,1.3-.24,1.93a8.73,8.73,0,0,0,2.54-.57l4.56-1.94-1,4.86a7.88,7.88,0,0,1-3,4.69,2.39,2.39,0,0,1,.29,1.15,4.68,4.68,0,0,1-1,2.53,9.44,9.44,0,0,1-7.95,4.11,14,14,0,0,1-4.18-.7,4.4,4.4,0,0,0-.5.82,2.12,2.12,0,0,0-.23.85.79.79,0,0,0,.08.35,4.66,4.66,0,0,0,2.62,1.55l.26.06.07.08a16.49,16.49,0,0,0,2.94.54c3.06.3,5.36.85,6.67,2.56a4.87,4.87,0,0,1,1,3.13,16.28,16.28,0,0,1-.3,2.69l0,.12-.05.43a14.36,14.36,0,0,0,4.79-1.8l1.23-.74-.06,1.43c0,.3-.35,7.14-4.68,9.11l-.08.6a6.6,6.6,0,0,1-3.37,5.17c0,.17,0,.32,0,.32A5,5,0,0,1,278.9,344l-.6,1.12a9.87,9.87,0,0,1-9.3,5.6,23,23,0,0,1-3.77-.38l-.32,0c-.44-.06-.9-.13-1.14-.13-1.9,0-3.27.56-4,1.51a2.89,2.89,0,0,0-.52,1.17,6.14,6.14,0,0,1,1.94,4.53,8.45,8.45,0,0,1,0,.85,6.17,6.17,0,0,1-1.74,3.73v0a4.39,4.39,0,0,1-1.22,3.37,7.65,7.65,0,0,1-5.1,1.76,10.65,10.65,0,0,1-2.89-.4l-1.15-.38.83-.89a6,6,0,0,0,1.46-2.83,6.47,6.47,0,0,1-2.18-2.42,6.24,6.24,0,0,1-2.71.24,3.57,3.57,0,0,1-.88-.25,20.2,20.2,0,0,0-.79,2.79l-.23,1.07-.93-.57c-.16-.1-4.07-2.54-4.29-6v-.18a5,5,0,0,1,1.63-3.59c0-.12,0-.24,0-.35a5.54,5.54,0,0,1,.54-1.79,6.2,6.2,0,0,1-2.16-2.44,10.28,10.28,0,0,0-1.76,1.48l-.85.91-.43-1.17c-.08-.21-1.88-5.24,1.11-8.48,1-1.09,2.59-1.48,4.7-1.13a6.41,6.41,0,0,1,3.76-.65c2.75.37,4.15,2.47,4.94,3.76a6.52,6.52,0,0,0,1.27.26h0a3.9,3.9,0,0,0,2.11-1c4-3,8.67-10.86,9.3-15.49a2.44,2.44,0,0,0,0-.27c0-1.32-1.61-2.25-6.64-3.83l-2-.58c-1.14-.34-2.23-.72-3.27-1.13a4.51,4.51,0,0,1,0,.63,10.1,10.1,0,0,1-2.18,5.68l-.56.66-.95,1-.24-1.58c-.13-.91-.76-3.47-2.09-4.4a6.17,6.17,0,0,0-1.21-.51,10.71,10.71,0,0,1-1.9-.64c-.31-.13-.63-.27-.94-.43a8.26,8.26,0,0,1-3.77,4l-.65,1.16a8.4,8.4,0,0,1-5.33,4.3l-.39.63a6.16,6.16,0,0,1-2.71,2.49l-3,2a11.15,11.15,0,0,1-6.56,2,23.58,23.58,0,0,1-4.36-.52,14.5,14.5,0,0,0-3.36-.38,17,17,0,0,0-8.13,2.67,6.55,6.55,0,0,1,.86,2.61v.13a3.87,3.87,0,0,1,0,.48,6.25,6.25,0,0,1-1.42,3.92,6.6,6.6,0,0,1-4.06,2.35,6,6,0,0,0,1,1.84l.77,1-1.23.25a7.17,7.17,0,0,1-7.53-3.72,4.23,4.23,0,0,1-.32-1.82,5.48,5.48,0,0,1,.28-1.64c-.06-.18-.11-.36-.16-.54a6.45,6.45,0,0,1-3.08-.44,10,10,0,0,0-.55,2.5l0,.1-.16.82-.8-.23a6.6,6.6,0,0,1-4.39-5.51,3.14,3.14,0,0,1,0-.53,5.15,5.15,0,0,1,2-3.84,6.3,6.3,0,0,1,.4-1.41l-.45-.42a8.22,8.22,0,0,1-2.14-5.3,4.92,4.92,0,0,1,.17-1.48,5,5,0,0,1,4.25-3.65,6.41,6.41,0,0,1,11,3,2.36,2.36,0,0,0,1.45.34,8.11,8.11,0,0,0,1.94-.27,22.54,22.54,0,0,0,5.41-2.32,33.94,33.94,0,0,0,10.13-8.67,3.92,3.92,0,0,0,.72-1.8c0-.69-.65-1.5-1.83-3a33.65,33.65,0,0,1-6.3-10.94c-.11-.33-.21-.64-.31-1a10.13,10.13,0,0,1-5.63,2h-1.44l.75-1.2s2.75-4.17.8-7.13a7,7,0,0,1-.44-6.79c.77-1.69,2.67-3.69,7.35-3.69l.85,0c4-4.76,9.93-6,11.69-6.24a43.51,43.51,0,0,0,9.59-2.92,33.67,33.67,0,0,1-10.16-8.66,34.5,34.5,0,0,1-3.47.49,18,18,0,0,0,2,2l3.18,2.84-4,1.53a8.38,8.38,0,0,1-8.49-1.68l-.53.18a7.71,7.71,0,0,1-9-3.34L200.88,267c-.67-1.14-.67-1.14-1.16-1.25-3.33-.73-6.05-1.5-7.37-1.89l-3.15-.94a17.12,17.12,0,0,0-5.27-1c-.29,0-.54,0-.74,0a6.5,6.5,0,0,1-.66,2.74,6.18,6.18,0,0,1-3.6,3.16,6.82,6.82,0,0,1-4.59-.07,11.71,11.71,0,0,0,.24,2.07l.2,1.22-1.1-.24a6.8,6.8,0,0,1-5.31-6.28,4.48,4.48,0,0,1,.13-1.2,5.38,5.38,0,0,1,1.81-3,4,4,0,0,1,.15-.55h0a6.81,6.81,0,0,1-2.4-2,5.44,5.44,0,0,0-1.85,2.09l-.64,1.24-.71-1.2a8.45,8.45,0,0,1-1.36-4.64,5.94,5.94,0,0,1,.65-2.74,4.19,4.19,0,0,1,1.78-1.91H154.19a1.67,1.67,0,0,1-1.66-1.67V212.84a1.71,1.71,0,0,1,.66-1.33l5.44-4.18h0a1.42,1.42,0,0,1,.45-.27,72.68,72.68,0,0,1,7.18-2.5l.24-.06a6,6,0,0,1,5.94-5.59,6.4,6.4,0,0,1,3.73,1.11,6.57,6.57,0,0,1,5.07-2.28,6.65,6.65,0,0,1,4.71,1.83,6.82,6.82,0,0,1,4.32-1.4,6.46,6.46,0,0,1,6.47,6.41c0,.23,0,.45,0,.65l3.3,1,.35.19,5.13,3.69a1.68,1.68,0,0,1,.69,1.35v9.43c.17.15.37.3.58.46,1.12-3.08,4.07-8.24,11.19-8.24a17.57,17.57,0,0,1,3.56.4,12.45,12.45,0,0,1-.41-3,8.62,8.62,0,0,1,.11-1.33,9,9,0,0,1-3.45-.82,8.07,8.07,0,0,1-4.63-6.39c-.94-6.47,4.76-11.05,5-11.24l1.24-1v1.6c0,.06,0,5.26,2.28,7.55a8.26,8.26,0,0,1-.88-3.09,6.19,6.19,0,0,1,0-.63,6.48,6.48,0,0,1,.59-2.7,5.35,5.35,0,0,1-.65-2.53,4.64,4.64,0,0,1,.88-2.74c1.47-2,5.92-2.65,13.66-2,2.09-.83,5.68-.8,10.88.09a7.66,7.66,0,0,1,6.33-3.68h.11a7.42,7.42,0,0,1,3,.62l2-.23a14.5,14.5,0,0,0,6.44-1.85,16.92,16.92,0,0,0,6-5.86l.74-1.38.64,1.42a15.39,15.39,0,0,1,1.19,5.41,12.71,12.71,0,0,1-1.24,5.67,45.4,45.4,0,0,0,6.19-2.53l1.11-.56v1.24a15.6,15.6,0,0,1-2.9,8.21c6.15,5.09,6.86,10.87,6.89,11.12l.16,1.43.34,0-.69,1.23c-.14.25-3.41,6-9.75,6.07a14.35,14.35,0,0,0,5.89,6.34l1.28.67-1.28.69a14.46,14.46,0,0,1-5.79,1.63,11.8,11.8,0,0,1,.17,2.1,16.06,16.06,0,0,1-5,11.43l-1.06.91-.2-1.38c-.14-1-.23-1.63-.3-2.1l-.11.29a3.22,3.22,0,0,0-.16,1c.08,2.61,3,4.75,4.12,5.51a24,24,0,0,1,2.51-3.65,13.2,13.2,0,0,1-1-4.34,11.21,11.21,0,0,1,.6-3.58,13.48,13.48,0,0,1,7.29-7.57c6.52-3,6.56-6.37,6.56-6.4l0-1.74,1.31,1.15a5.54,5.54,0,0,1,1.11,1.45c3.3-4.6,8.72-5.32,11.76-5.32a16.15,16.15,0,0,1,2,.12l1.7.26-1.32,1.1c-.06.05-5.72,4.78-5.8,8.9,0,.05,0,.11,0,.18l0,.13c.09,1.06.14,2.05.14,3,0,.6,0,1.19-.06,1.78a11.48,11.48,0,0,1,4.4-.88,7.68,7.68,0,0,1,5,1.59l.8.69V172.77ZM229.7,381.08a84,84,0,0,1-83.9-83.77V166.52H313.58l0,130.74a84,84,0,0,1-83.86,83.82M199,399.73l-1.91-1.38-6.78-4.89c-1.41,1-5.68,4.13-6.74,4.88l-1.93,1.38.75-2.25c.41-1.21,2-6.22,2.55-7.87l-6.84-5-1.94-1.39H187L190.34,373l.73,2.26c.4,1.23,2.05,6.35,2.59,8h10.62l-1.86,1.39c-1,.76-5.32,3.87-6.74,4.9l2.59,8Zm78.66,0-1.91-1.39-6.78-4.9c-1.41,1-5.67,4.14-6.72,4.89l-1.91,1.37.73-2.23c.4-1.22,2-6.23,2.54-7.88l-6.84-5-1.94-1.39h10.84c.55-1.68,2.2-6.8,2.6-8L269,373l3.34,10.3H283l-1.87,1.39c-1,.77-5.31,3.87-6.72,4.9l2.58,8ZM116,136.73V297.31a112.76,112.76,0,0,0,10.59,47.94c2,4.09,4.18,8.12,6.49,11.95a114.61,114.61,0,0,0,16.25,20.42,113.69,113.69,0,0,0,194-80.31V136.73ZM297.33,396.25c9.17,11.56,18.22,17.86,21,18.6v0c0-3-2.76-13.74-10.91-26.33a118.25,118.25,0,0,1-10.07,7.75M150.6,387.33l-.49.71c-8.44,11.78-12,23.2-12.07,26.86,2.9-.94,12.56-7.83,21.4-20.16l.16-.24c-3.16-2.28-6.19-4.69-9-7.17M319,419c-5.21,0-16-8.76-25.19-20.48a120,120,0,0,1-131-1.79l-.17.24c-9,12.49-19.66,21.06-24.45,21.84a3.51,3.51,0,0,1-2.73-.51c-3.89-2.79,1.89-19.22,11.45-32.55l.77-1.11c-.91-.84-1.85-1.73-2.76-2.64a119.13,119.13,0,0,1-35.14-84.72v-145L97.72,139.15l-3.92,2.12-1.45.73a5.09,5.09,0,0,1-3.91.24,6.21,6.21,0,0,1-3.61-3c-1.14-2.2-.89-5.41,1.12-7.07l-6.14-6.49-3.07,1.65a5,5,0,0,1-3.85.24,6.48,6.48,0,0,1-3.72-3,6.14,6.14,0,0,1-.4-4.63,4.88,4.88,0,0,1,.81-1.57,15,15,0,0,1-5-2.24c-5.34-3.68-8.53-10.74-9.48-21a2,2,0,0,1,3.09-1.77A25.46,25.46,0,0,1,58,90.24,34.78,34.78,0,0,1,62.52,74a2,2,0,0,1,2.08-1,1.94,1.94,0,0,1,1.59,1.66c0,.38.12.77.19,1.17a25.23,25.23,0,0,1,2.46-6c1.67-3,2.52-7.19,2.52-12.56a61.79,61.79,0,0,0-1.15-11.56,1.64,1.64,0,0,1,0-.43,1.93,1.93,0,0,1,.88-1.63,2,2,0,0,1,2.19,0A60.64,60.64,0,0,1,89.82,62.29c.46-2.2,1.09-4.68,1.88-7.38a2,2,0,0,1,3.75,0c2.41,7.91,3.85,11.78,6.53,15.31,4.71,6.16,7.49,10.81,7.32,15.51a5,5,0,0,1,1.16-.27,6.22,6.22,0,0,1,4.47,1.27,6.48,6.48,0,0,1,2.28,4.21,5.9,5.9,0,0,1,0,.72,4.77,4.77,0,0,1-1,3l-2.2,2.72,5.23,7.22a5.11,5.11,0,0,1,3-1.15,5.68,5.68,0,0,1,4.31,1.52c3,2.93,2.46,6,1.12,7.74l-.91,1.15s-1.58,1.94-2.91,3.58l9.77,13H334.88c3.33-4.79,8.57-13.42,8.18-19.73a1.88,1.88,0,0,1,.55-1.48,1.92,1.92,0,0,1,1.41-.6c.36,0,8,0,13.39-3.37l-12.82-9.19-3-2.13a4.09,4.09,0,0,0-3-.7,4,4,0,0,0-2.6,1.63,4.14,4.14,0,0,0,1,5.67,5.41,5.41,0,0,0,3.17,1.14,2.71,2.71,0,0,0,.95-.15,2,2,0,0,1,2.39.82,2,2,0,0,1-.4,2.48,13.25,13.25,0,0,1-19.46-17.72,11.58,11.58,0,0,1,1.75-1.94l-1.46-.92c-5-3.54-9.93-9-9.93-13.39a4.8,4.8,0,0,1,.86-2.82A5.61,5.61,0,0,1,320.65,66c3.63,0,8.78,2.07,13.45,5.42l1.39,1.12a11,11,0,0,1,1.26-2.29A13.25,13.25,0,0,1,360,82.46l0,.15a2,2,0,0,1-2.42,1.19,2,2,0,0,1-1.3-2.38,4,4,0,0,0-1.54-4.32,3.93,3.93,0,0,0-3-.69A4,4,0,0,0,349.09,78a3.83,3.83,0,0,0-.72,2.23,4.43,4.43,0,0,0,1.74,3.44l16.32,11.7,12-16.8a4,4,0,0,0,.74-2.24,2.59,2.59,0,0,0,0-.48,6,6,0,0,0-2.74-3.7,3.75,3.75,0,0,0-3.05-.82c-1.3.29-2.57,1.48-3.65,3.46a2,2,0,0,1-1.73,1,1.94,1.94,0,0,1-1.71-1c-.13-.22-2.85-5.54,1.44-11.78,2.63-3.83,7.19-4.63,10.55-4.63a18.51,18.51,0,0,1,3.23.26,22.87,22.87,0,0,0,2.64.13A31.6,31.6,0,0,0,401,54a2,2,0,0,1,2.2.06,1.92,1.92,0,0,1,.75,2.07A31.41,31.41,0,0,0,405.78,76c.48.86,4.59,8.7.31,14.47a12.06,12.06,0,0,1-9.64,5.24,8,8,0,0,1-1.06-.06,2,2,0,0,1-1.54-1.31,2,2,0,0,1,.39-1.94c1.52-1.68,2.25-3.27,2.1-4.59a3.76,3.76,0,0,0-1.75-2.62,6.43,6.43,0,0,0-3.66-1.4,4,4,0,0,0-3.15,1.58l-12,16.72,16.36,11.74a4.67,4.67,0,0,0,2.46.72,3.91,3.91,0,0,0,3.2-1.62,4,4,0,0,0,.7-3,4,4,0,0,0-6.2-2.68,2,2,0,0,1-2.67-.45,2,2,0,0,1,.33-2.69l.15-.1a13.25,13.25,0,0,1,21.32,8.22,14.38,14.38,0,0,1,.18,2.19,13.19,13.19,0,0,1-2.49,7.7,12.32,12.32,0,0,1-1.75,1.92l1.47.91c5,3.57,9.92,9.07,9.92,13.4a4.69,4.69,0,0,1-.87,2.81,5.08,5.08,0,0,1-3.42,2c-3.71.61-9.46-1.48-14.8-5.31l-1.37-1.12a11.6,11.6,0,0,1-1.27,2.27,13.25,13.25,0,0,1-23-12.73,2,2,0,0,1,3.76.85,4.74,4.74,0,0,0,2.26,3.55,4.63,4.63,0,0,0,2.5.76,3.93,3.93,0,0,0,3.94-3.95,4,4,0,0,0-1.67-3.28L369,112.92a16.88,16.88,0,0,0-.53,4.12,32.26,32.26,0,0,0,1.61,9.58,1.81,1.81,0,0,1,.12.68,2,2,0,0,1-.22.9,1.94,1.94,0,0,1-1.22,1c-7.49,2-15.44,13.05-17.7,16.37l-.11.17-.65,1-.73,1V297.31A119.1,119.1,0,0,1,314.46,382c-1.32,1.32-2.6,2.53-3.88,3.7,8.49,13,14.72,29.63,10.46,32.71a3.43,3.43,0,0,1-2,.59M94.83,411.8l.55.93a44,44,0,0,0,7.77,8.93c-.92-5.76-2.4-9.79-4.11-11.19a3.32,3.32,0,0,0-2.6-.87,4.27,4.27,0,0,0-.68.18,1.83,1.83,0,0,0-1,1.58v.05a1.6,1.6,0,0,0,.1.39m269.93-2.22a3.44,3.44,0,0,0-2.19.89c-1.72,1.4-3.19,5.43-4.11,11.19a43.2,43.2,0,0,0,7.75-8.94l.35-.54.21-.37a1.68,1.68,0,0,0-.95-2,4.29,4.29,0,0,0-.66-.17l-.4,0M96.91,448.3l2.16,1.42,1-3.77Zm15.87,5.82.46.26c.59.31.9.4,1.19.32a2.72,2.72,0,0,0,1.63-1.55,3.78,3.78,0,0,0,.39-2.74,1.73,1.73,0,0,0-.89-1.1l-.14-.06-.08-.05Zm-1.22,2.3-2.51,4.78c-.72,1.39-.66,1.45-.46,1.71a3.71,3.71,0,0,0,1.19.9,2.32,2.32,0,0,0,1,.25,2.27,2.27,0,0,0,2-1.47,5.39,5.39,0,0,0,.27-4.84,2.74,2.74,0,0,0-1.2-1.16l-.32-.17m.36,10.53h0a8.44,8.44,0,0,1-3.89-1l-.62-.37-.87-.5c-.59-.38-1.19-.7-1.51-.88l-.37-.18c-.23-.12-.53-.27-.85-.41s-.55-.29-.8-.41-.51-.24-.73-.36l-.14-.07c-.36,0-.69-.17-1.35-.6-.82-.54-2.31-1.53-3.8-2.57l-.09-.07c-.33-.23-1.09-.78-.61-1.54a1,1,0,0,1,.89-.44l1.18-4.89-3.85-2.54-2.8,2.11a5,5,0,0,0-1,.9s0,0,0,0a.82.82,0,0,0,.15.11l.32.24a1.05,1.05,0,0,1,.54.68.94.94,0,0,1-.12.71,1.06,1.06,0,0,1-.85.48,1.31,1.31,0,0,1-.71-.25c-.33-.21-.67-.46-1-.71s-.75-.55-1.08-.75c-.11-.08-.33-.21-.61-.38-.48-.3-1.16-.71-1.8-1.13a1.29,1.29,0,0,1-.62-.83.91.91,0,0,1,.08-.56,1.3,1.3,0,0,1-.49.1c-.61,0-1.09-.41-1.75-1-.92-.87-1.66-1.59-2.31-2.22l-.95-.91c-.78-.81-1.46-1.49-2.3-2.27l-1.12-1-.72-.64-.66-.57c-.87-.84-.42-1.46-.26-1.63a.85.85,0,0,1,.68-.31,1.31,1.31,0,0,1,.86.39,3.27,3.27,0,0,0,.64.49,2.26,2.26,0,0,0,.64-.43c.72-.6,1.94-1.9,3.36-3.41L84,433.64c2.58-2.76,3.08-3.3,3.58-3.93s.4-.53.14-.9a2.92,2.92,0,0,0-.47-.53c-.83-.79-.38-1.41-.23-1.57a.88.88,0,0,1,.69-.31,1.5,1.5,0,0,1,1,.51c.49.46,1.07,1,1.57,1.53l1,1,.72.64c.64.56,1.47,1.29,2,1.77.87.8.5,1.4.3,1.63a1,1,0,0,1-.71.31,1.41,1.41,0,0,1-.9-.42,4.86,4.86,0,0,0-.68-.56c-.16-.11-.22-.11-.23-.11s-.15,0-.54.39c-.58.54-1.12,1.11-3.67,3.86l-3.12,3.33c-1.54,1.65-3,3.21-3,3.67s.27.77,1.73,2.13c.93.87,1.54,1.4,2.13,1.4a2.36,2.36,0,0,0,1.14-.45,1.2,1.2,0,0,1,.81-.35,1,1,0,0,1,.7.29,1,1,0,0,1-.1,1.54c-.16.16-1.12,1-1.89,1.61a1.06,1.06,0,0,1,.55.21l.18.11.38.2a1.17,1.17,0,0,0,.49.12,3.45,3.45,0,0,0,1.71-.82L103,440a2.64,2.64,0,0,1,1.41-.68,1.1,1.1,0,0,1,.56.16c.68.43.52,1.26.42,1.81s-.67,3.1-1.31,5.94c-.81,3.6-1.81,8.09-2.28,10.37s-.07,2.64.07,2.8a3.47,3.47,0,0,0,.54.45,1.32,1.32,0,0,1,.69.18,2.82,2.82,0,0,0,.62.24,3.16,3.16,0,0,0,.45-.59c.62-.9,1.6-2.76,2.58-4.65l2.07-3.94c1.83-3.48,2.11-4,2.42-4.75s.25-.62,0-.85a3.3,3.3,0,0,0-.64-.4c-1-.56-.7-1.25-.59-1.45a.92.92,0,0,1,.84-.51,1.89,1.89,0,0,1,.76.22l1.68.94c.51.29.94.54,1.15.63.63.34,1.17.6,1.66.83s.69.33,1,.5a6.37,6.37,0,0,1,3.43,3.55,4.22,4.22,0,0,1-.32,3.23,5.76,5.76,0,0,1-3.58,2.87,6.46,6.46,0,0,1,.69,6.79,6,6,0,0,1-5.4,3.28m17.28-11.12c-2.2,0-4.14,1.78-5.62,5.16-1.21,2.74-1.44,5.47-.62,7.47a5,5,0,0,0,2.85,2.83,4,4,0,0,0,1.48.29c2.2,0,4.19-1.88,5.75-5.44,1.19-2.71,1.41-5.29.6-7.25a4.73,4.73,0,0,0-2.67-2.7,4.67,4.67,0,0,0-1.77-.36m-1.42,18.49h0a10.3,10.3,0,0,1-3.93-.8,9.19,9.19,0,0,1-5.28-5,11.33,11.33,0,0,1,.35-8.59c1.38-3.18,4.74-6.88,9.62-6.88a10.73,10.73,0,0,1,4.11.85,9.63,9.63,0,0,1,5.58,5.17,10.15,10.15,0,0,1-.45,8c-2,4.46-5.8,7.23-10,7.23m195.08-12.88a4.47,4.47,0,0,0-1.61.31,3.73,3.73,0,0,0-2.11,1.93c-.55,1.27-.41,3,.44,5.11,1.25,3.14,3.51,5.1,5.89,5.1a4.76,4.76,0,0,0,1.76-.35,3.31,3.31,0,0,0,1.84-1.76c.56-1.31.4-3.12-.49-5.39-1.22-3.05-3.41-4.95-5.72-4.95m1,15.67h0c-4.3,0-7.13-3.24-8.24-6-1.63-4.17-.7-9.72,5.22-12a10.68,10.68,0,0,1,3.92-.8c3.51,0,6.35,2.09,7.79,5.74,2.09,5.3,0,10.39-5.07,12.39a9.76,9.76,0,0,1-3.62.74M273,459.68l-.36,3.67,2.37-.59Zm-73.59,6.39,2.41.43-.57-3.64Zm48.08,9.11v0h0m-13.27.9v.48h0v-.47h0m-6.56,1.65h0c-.84,0-1.69-.07-2.38-.11-.53,0-1-.06-1.24-.06h-.86c-.67,0-1.51,0-2.09,0h0a1.17,1.17,0,0,1-.92-.38.93.93,0,0,1-.22-.72,1,1,0,0,1,1.1-.95h.19a1.6,1.6,0,0,0,.41,0h0a2.16,2.16,0,0,0,.14-.61c.12-.95.17-2.75.23-4.84l.22-9.15H219.7c-1.33,0-1.45.2-1.54.33a3.17,3.17,0,0,0-.31.61,1,1,0,0,1-1,.86,1,1,0,0,1-.68-.28,1.67,1.67,0,0,1-.18-.28.88.88,0,0,1-.4.09h-.12a.93.93,0,0,1-.59-.29,1,1,0,0,1-.24-.86,1.2,1.2,0,0,0,0-.55c-.09-.32-.12-.41-.8-.55-.23-.05-2.35-.37-4.21-.64l-4.81-.71.09.53c.27,1.37.61,3.15,1,5,3.49.49,8.64,1.2,9.07,1.22a1.91,1.91,0,0,0,.56,0l.16-.14a1.17,1.17,0,0,1,.75-.34h.09a.85.85,0,0,1,.57.27,1.11,1.11,0,0,1,.27.81,4.63,4.63,0,0,1-.11.58c-.06.26-.15.65-.28,1.26-.11.45-.25,1.39-.27,1.54-.09,1.08-.8,1.17-1,1.17h-.15a1,1,0,0,1-.62-.33,1,1,0,0,1-.2-.68v-.3a4.25,4.25,0,0,0,0-.51c0-.1-.05-.25-.54-.35s-4.48-.7-7.73-1.18c.4,2.06.76,3.95,1,5.2a2.92,2.92,0,0,0,.13.46,1.48,1.48,0,0,0,.6.78l5.13.61a8.07,8.07,0,0,0,.93.06,2.26,2.26,0,0,0,.82-.11c.25-.09.47-.23.69-1.12l0-.1a1.11,1.11,0,0,1,1-.84h.13c.28.05.91.28.78,1.45a20.3,20.3,0,0,1-.63,2.8,1.4,1.4,0,0,1-1.39,1c-.18,0-.4,0-.69-.06-1.24-.13-2.36-.27-3.34-.4l-.94-.12-1.62-.2-1.25-.16c-1-.12-2.9-.34-4-.52-.35-.07-1.39-.27-1.25-1.19a.93.93,0,0,1,.57-.77l-.74-4.4-4.43-.8-1.59,2.67a4.61,4.61,0,0,0-.46,1l.12,0,.33.07a1,1,0,0,1-.12,2l-.28,0c-.41-.07-.9-.18-1.39-.29L193.5,474l-.42-.05c-.5-.07-1.33-.17-2.16-.31A1.14,1.14,0,0,1,190,473a1.33,1.33,0,0,1-.47.07,4.13,4.13,0,0,1-1.2-.25c-1.32-.39-2.54-.8-3.86-1.28-.46-.14-.91-.29-1.33-.44l-1.48-.47-.78-.22-.41-.11-.73-.2-.79-.22a1.2,1.2,0,0,1-.79-.58,1,1,0,0,1-.06-.78,1,1,0,0,1,1.37-.62,2.22,2.22,0,0,0,.56.11,2.38,2.38,0,0,0,.29-.54c.33-.79.79-2.26,1.32-4l1.81-5.87c.82-2.65,1-3.2,1.15-3.85.12-.48.12-.48-.22-.72a2.24,2.24,0,0,0-.48-.19,1.13,1.13,0,0,1-.72-.54,1,1,0,0,1-.07-.79.92.92,0,0,1,.93-.67,1.89,1.89,0,0,1,.56.1c.58.18,1.29.41,1.89.62l1,.34,1.24.36c.67.19,1.41.4,1.87.55a1.3,1.3,0,0,1,.85.58,1,1,0,0,1,.06.74,1.06,1.06,0,0,1-1.43.62,4.85,4.85,0,0,0-.68-.14h-.13s-.12.08-.28.51-.4,1.13-1,3.2l-.51,1.6L186.26,464c-.55,1.76-1.24,3.95-1.1,4.39.08.13.48.46,2.25,1,1,.31,1.65.48,2.1.2a2.29,2.29,0,0,0,.63-.85,1.16,1.16,0,0,1,1-.77h.11l.18,0a.93.93,0,0,1,.56.46,1.42,1.42,0,0,1,0,1.11c-.07.22-.47,1.21-.84,2h0l.25,0,.3,0c.55,0,.84-.29,1.51-1.4l8.44-13.85c.35-.6.75-1.21,1.43-1.21h.15c.48.06,3.71.59,6.83,1.1,2.37.39,4.81.79,5,.81h.08a4.35,4.35,0,0,0,.57,0h.18a1.58,1.58,0,0,1,.44-.08h.14a1,1,0,0,1,.64.46.93.93,0,0,1,.32-.05,1.63,1.63,0,0,1,.59.15,2.15,2.15,0,0,0,.52.16,16.12,16.12,0,0,0,2.13.17l9.39.24a7.59,7.59,0,0,0,1.11-.07l.38-.06a1.77,1.77,0,0,1,.33,0H232a.9.9,0,0,1,.55.22,1.83,1.83,0,0,1,.86-.25c.54,0,1.34,0,2-.06l1,0,1-.07c.61-.05,1.33-.1,1.85-.12h.14a1.08,1.08,0,0,1,1,.44.94.94,0,0,1,.85-.81h.09a1.51,1.51,0,0,1,.45.08,2.16,2.16,0,0,0,.56.09h.08a15.73,15.73,0,0,0,2-.16l9.06-1.07a10.32,10.32,0,0,0,1.36-.25l.35-.12a2.28,2.28,0,0,1,.41-.11h.09a.85.85,0,0,1,.61.22,1.43,1.43,0,0,1,.92-.44l1.4-.23c.61-.1,1.22-.2,1.56-.27s.8-.16,1.34-.28l1.49-.3.37,0a1,1,0,0,1,1,.77,1,1,0,0,1-.15.79,1.09,1.09,0,0,1-.77.44,3.81,3.81,0,0,0-.44.15.55.55,0,0,0-.18.08,2,2,0,0,0,0,.56c.08.66.19,1.28.67,3.9l1,5.25c.39,2.12.76,4.13,1,5.08a.93.93,0,0,0,.16.38h.13a7.6,7.6,0,0,0,1.07-.1,1.34,1.34,0,0,1,.56,0l.08,0,.29-.08c.47-.23.63-.62.77-1.87l2.07-16.12c.07-.61.17-1.54,1-1.74a1.33,1.33,0,0,1,.32,0c.63,0,1,.44,1.32.9l3.36,4.8c2.05,2.94,4.5,6.46,5.76,8.25,1.13,1.59,1.66,1.71,1.79,1.71a4.91,4.91,0,0,0,.74-.1,1,1,0,0,1,.28,0,1,1,0,0,1,1,.8.93.93,0,0,1-.11.69c-.23.39-.66.52-1.35.7l-.55.13c-.87.21-2.17.53-3.67.84l-.09,0a3.24,3.24,0,0,1-.57.08.92.92,0,0,1-.94-.68,1,1,0,0,1,.22-.92l-2.48-3.72-4.37,1.08-.36,3.08a7.12,7.12,0,0,0,0,1.14l.13,0,.31-.08a1.47,1.47,0,0,1,.33,0,1,1,0,0,1,1,.77,1,1,0,0,1-.82,1.27l-1.37.29c-.4.08-.79.15-1.12.23l-.2.06c-.44.14-1.37.41-2.3.65a1.34,1.34,0,0,1-.72,0c-.86.16-1.72.29-2.43.4l-1.13.17-1.19.25c-.58.14-1.22.28-1.69.36a1.28,1.28,0,0,1-.3,0,1,1,0,0,1-1.06-.81,1.06,1.06,0,0,1,.94-1.23,1.73,1.73,0,0,0,.5-.14l.07,0a2.68,2.68,0,0,0,0-.48c-.08-1-.45-3-.84-5.09l-1.17-6.3c-.33-1.78-.43-2.29-.55-2.86s-.2-.49-.36-.52a1.52,1.52,0,0,0-.53,0,1,1,0,0,1-.7,0c0,.12,0,.24,0,.37.06.7.14,1.54.19,1.93v.1c0,1-.6,1.16-.86,1.18h-.11c-.54,0-.88-.36-1-1.06l-.05-.24c-.08-.39-.81-.58-1.95-.46l-2.05.2,1.06,8.89c.24,2,.49,4,.72,5a1.39,1.39,0,0,0,.17.52l.12,0a6.44,6.44,0,0,0,1-.05h.15a1.06,1.06,0,0,1,1.09.88c.06.51-.25,1.05-1.06,1.17s-1.71.18-2.4.23l-1.21.12-1.16.18c-.59.09-1.26.2-1.75.26h-.2a1.06,1.06,0,0,1-1.13-.9v-.1a1,1,0,0,1,1-1.05,2.79,2.79,0,0,0,.56-.11s0-.15,0-.64c0-.95-.24-2.84-.5-5L246.45,460l-2.52.36c-1.31.19-1.4.39-1.48.56a2.05,2.05,0,0,0-.22.63,1,1,0,0,1-1,1c-.2,0-.93-.05-1-1.05,0-.31,0-1.42.07-2.24a1.13,1.13,0,0,1-.81.34,1.46,1.46,0,0,0-.49.09l-.15,0a1.81,1.81,0,0,0-.06.56c0,.76,0,1.46.2,5.06l.21,4.23c.09,2.08.2,4.15.35,5.17,0,.3.09.38.11.39s0,0,.16,0a6.77,6.77,0,0,0,1,0h.1a1.06,1.06,0,0,1,1.06.86v.14a1.08,1.08,0,0,1-1.15,1.05c-.94.05-1.89.06-2.62.07l-1,0-1.05.08c-.63.06-1.36.12-1.88.15h-.07a1.06,1.06,0,0,1-1.18-.91v-.1a1.07,1.07,0,0,1,1.06-1,2.24,2.24,0,0,0,.59-.07s.06-.11.09-.52c0-1-.05-2.89-.17-5.15l-.24-5.15c-.14-2.87-.17-3.46-.23-4.15,0-.49-.12-.51-.29-.56a1.61,1.61,0,0,0-.52,0h-.12a1.29,1.29,0,0,1-.4-.06c0,.3,0,.67-.05,1,0,.5,0,1-.06,1.25-.08,1.09-.83,1.15-1,1.15-.43,0-.95-.21-1-1.22l0-.24c0-.35-.6-.69-1.87-.74l-2-.1-.24,8.94c0,1.64-.09,3.94,0,5.07,0,.43.08.53.1.55l.11,0a8,8,0,0,0,1,.09,1.05,1.05,0,0,1,1.09,1,1.08,1.08,0,0,1-1.2,1m-84.42-8.35a5.52,5.52,0,0,0,1.18.49,3.11,3.11,0,0,0,.9.21,1.07,1.07,0,0,0,.38-.08c.48-.17,1.41-.77,2-2.69,1.14-3.56-1.32-4.48-1.6-4.58l-.69-.19Zm9.14,14.15a1.62,1.62,0,0,1-.54-.11l-2.17-.69a5.2,5.2,0,0,1-2.64-1.45c-.88-1-1.41-2.39-2.16-4.85-.22-.71-.45-1.49-.65-2.19s-.39-1.37-.5-1.68l-1.35-.47-.31,1c-.52,1.66-1,3.1-1.13,3.91s-.07.71,0,.77a6.74,6.74,0,0,0,1,.42,1.07,1.07,0,0,1,.68.56.92.92,0,0,1,0,.71,1,1,0,0,1-1,.66,1.45,1.45,0,0,1-.51-.09c-1.08-.34-2.34-.79-3-1l-.35-.13-.74-.21c-.63-.17-1.47-.41-2.07-.6a1.38,1.38,0,0,1-.83-.63.93.93,0,0,1,0-.75,1,1,0,0,1,1.39-.55,2.18,2.18,0,0,0,.62.12,4,4,0,0,0,.4-.67c.36-.83.89-2.47,1.51-4.37l1.57-4.88c1.2-3.74,1.39-4.33,1.59-5.09s.1-.65-.19-.82a3.07,3.07,0,0,0-.7-.28c-1-.38-.91-1.08-.86-1.28a1,1,0,0,1,1-.72,1.86,1.86,0,0,1,.58.11c.72.24,1.51.52,2.14.75l1,.34c.39.13,1,.31,1.63.48l1.62.48a8.11,8.11,0,0,1,4.26,2.66,5.22,5.22,0,0,1,.61,4.52c-.65,2-2.05,3.45-4.53,4.6l.36,1c.9,2.58,1.61,4.63,2.33,6.19a4.1,4.1,0,0,0,1.7,2.11,2.19,2.19,0,0,0,.43.19l.11,0a1.12,1.12,0,0,1,.53.38.94.94,0,0,1,.12.86,1,1,0,0,1-.94.69m144.47-.59.61,1.69a7.5,7.5,0,0,0,.15-1.28h0a2.35,2.35,0,0,0-.76-.4m-67.24,5.58,3.86,0c20.19,0,40.29-2.87,56.58-8l2.54-.84.27-.08,1.15-.39a4.21,4.21,0,0,1,.76-.19,5.77,5.77,0,0,1,.83,0c-1.33-2.88-4.8-10.32-8.15-17.53-1.05-2.24-2.08-4.47-3-6.53l-4.73-10.16a7.11,7.11,0,0,0-6.41-3.52l-2,.24-.21.07-.09,0a155.15,155.15,0,0,1-38.16,4.46l-3.16,0-3.18,0a154,154,0,0,1-38.2-4.48l-.24-.07-2.06-.25a7.25,7.25,0,0,0-6.48,3.62s-1.8,3.86-4.2,9l-.33.71-.6,1.28-4.66,10c-2.52,5.44-4.86,10.47-6.05,13.05a4.56,4.56,0,0,1,1.59.23l1.71.57,1.79.6.48.15c16.29,5.14,36.37,8,56.56,8Zm-68-5.21v0a31.73,31.73,0,0,0,1.12,4.91c.33-.9.75-2.07,1.24-3.43.17-.54.32-.93.45-1.24s.15-.4.23-.63l-.71-.24a1,1,0,0,0-.33,0,4,4,0,0,0-2,.63m213.71-50.94,1.34,3.12,1.78-1.82Zm-15.16,8.08,3.6,4.54a6.64,6.64,0,0,0,1-.69c.66-.52.73-.67.8-.91a2.88,2.88,0,0,0-.67-2.78,3,3,0,0,0-2.34-1.34,3.06,3.06,0,0,0-1.78.63c-.25.2-.47.4-.64.55m-60.6,50.16c.21.69,1.44,3.91,6.47,3.91a15.5,15.5,0,0,0,3.18-.36,218.72,218.72,0,0,0,50.64-18.55,130.38,130.38,0,0,0,15-9.18l6.84-5.44a59.12,59.12,0,0,0,8.65-9.34,41.41,41.41,0,0,0,2.42-3.66,16.61,16.61,0,0,0,2.59-7.82,5.18,5.18,0,0,0-1.67-4.08l-3.15-3a5.58,5.58,0,0,1-.49.52c-.35.37-1.63,1.68-3.2,3.2l-.07.07a1.53,1.53,0,0,1-1,.53.88.88,0,0,1-.6-.23,1,1,0,0,1-.3-.87l-3.69-1.48-3.36,3.44,1.07,2.61a3.35,3.35,0,0,0,.44.79.75.75,0,0,0,.09-.09l.27-.26a1.12,1.12,0,0,1,.81-.38.91.91,0,0,1,.68.31.89.89,0,0,1,.29.66,1.15,1.15,0,0,1-.42.86c-.23.25-.56.56-.9.87s-.62.59-.87.85l-.18.18a4.13,4.13,0,0,0-.3.34l-.83.9-.55.6a5.1,5.1,0,0,1-2.38,1.32,4.87,4.87,0,0,1-1,.1,18,18,0,0,1-4.08-.7c-.82-.2-1.71-.45-2.43-.66l-1-.26-1.16.87c.89,1.12,2.06,2.57,2.74,3.25a1.89,1.89,0,0,0,.34.3l.14-.08a8.33,8.33,0,0,0,.85-.56,1,1,0,0,1,1.5.17,1.08,1.08,0,0,1-.41,1.49c-.83.66-2,1.51-2.58,1.95l-.34.26-.56.47c-.5.43-1.15,1-1.64,1.36a1.07,1.07,0,0,1-1.54,0,.91.91,0,0,1-.22-.73,1.14,1.14,0,0,1,.48-.78,2.46,2.46,0,0,0,.43-.42l.05-.05s-.05-.13-.24-.42c-.46-.77-1.51-2.1-2.73-3.64l-2.64-3.35c-1.79-2.28-2.17-2.75-2.59-3.24-.16-.19-.23-.21-.23-.21a1.17,1.17,0,0,0-.42.12s-.25.16-.48.33c.08.14.17.29.25.45l.66,1.09.08.14c.32.84-.08,1.21-.34,1.36a1,1,0,0,1-.51.15,1.21,1.21,0,0,1-.95-.59l-.14-.19a.43.43,0,0,0-.27-.06,3.61,3.61,0,0,0-1.72.67l-1.88,1.11,4.23,6.82c.84,1.36,1.9,3,2.51,3.82.2.25.27.29.29.29a.43.43,0,0,0,.17,0c.22-.1.65-.34.95-.52a1,1,0,0,1,1.49.27.91.91,0,0,1,.12.68,1.29,1.29,0,0,1-.64.8c-.8.5-1.65,1-2.31,1.37-.39.22-.72.41-.93.55s-.64.41-1.1.71l-1.45,1a1.09,1.09,0,0,1-1.58-.2.93.93,0,0,1-.11-.76,1.1,1.1,0,0,1,.6-.72,1.89,1.89,0,0,0,.44-.33l.05-.06s0-.12-.18-.45c-.34-.73-1.14-2-2.07-3.51l-4.45-7.22-2.28,1.48c-1.09.7-1.19.94-1.21,1.14a1.79,1.79,0,0,0,0,.6,1,1,0,0,1-.47,1.26.85.85,0,0,1-.45.12,1,1,0,0,1-.64-.25,1.08,1.08,0,0,1-.39,1.4l-.09.05a1,1,0,0,1-.4.09,1.08,1.08,0,0,1-1-.69,1.58,1.58,0,0,0-.78-.65,2.5,2.5,0,0,0-2.16.23c-1.07.54-1.92,1.57-1.47,2.5.22.43.48,1,2.82,1l1.09,0c3.48.07,5.54,1.1,6.66,3.32a5.39,5.39,0,0,1-.29,5.4,7.77,7.77,0,0,1-3.43,2.87,10.78,10.78,0,0,1-4,1.28H338a1.35,1.35,0,0,1-1.26-.9c-.45-.89-.89-1.94-1.1-2.44l-.1-.24c-.39-.87,0-1.42.38-1.62a1,1,0,0,1,.45-.1,1,1,0,0,1,.94.62,2.79,2.79,0,0,0,.55.73,2,2,0,0,0,1.52.63,4.19,4.19,0,0,0,1.89-.51,2.72,2.72,0,0,0,1.44-1.48,1.75,1.75,0,0,0-.12-1.41c-.24-.5-.58-1.17-2.79-1.27l-1.56-.09c-3.25-.16-5.08-1.1-6.14-3.18-1.32-2.68.23-5.87,3.67-7.59a14.33,14.33,0,0,1,3.32-1.24,1.11,1.11,0,0,1,1.26.5l0,.09c-.08-.22-.13-.37-.14-.41a1,1,0,0,1,.28-1.29,1.58,1.58,0,0,1,.62-.24,2.35,2.35,0,0,0,.54-.16,21.87,21.87,0,0,0,2-1.1l8.07-5a11.06,11.06,0,0,0,1.25-.87,3.09,3.09,0,0,0,.25-.23,2.6,2.6,0,0,1,.32-.26,1.14,1.14,0,0,1,.47-.13,1.39,1.39,0,0,1,.19-.15c.63-.51,1.41-1.1,2-1.5.26-.19.46-.35.57-.44.3-.23.84-.67,1.36-1.1l1.47-1.2a9.39,9.39,0,0,1,4.45-2.19h.32a4.46,4.46,0,0,1,3.51,1.66c1.06,1.32,1.29,3,.75,5.64,2.79.58,5,1,6.76,1.21a6.59,6.59,0,0,0,1.17,0,4.67,4.67,0,0,0-.33-1.08l-5.48-13.94c-.23-.56-.56-1.34,0-1.94a1.24,1.24,0,0,1,.91-.39,2.92,2.92,0,0,1,.85.19c.68.24,3.28,1.21,6.28,2.34,2.81,1.05,5.84,2.19,7.51,2.8a6,6,0,0,0,1.84.43.83.83,0,0,0,.53-.14,6.75,6.75,0,0,0,.54-.47h0L370.34,413.4l-.15-.15-.06.11-.77,1.32c-3.09,4.94-7.85,9.82-14.14,14.49-14.84,11.05-37.1,20.12-66.16,26.94L299.69,479l.42.92-3.17-11.54c-.28-1,.14-1.59.68-1.76a1.18,1.18,0,0,1,.35-.05,2.92,2.92,0,0,1,1.28.42l.13.07c.34.19,4.65,2.51,8.86,4.63l3.61,1.89,1.1.59-2.41-7.53c-.34-1.06-.49-1.07-.64-1.08a2.67,2.67,0,0,0-.94.19,1.7,1.7,0,0,1-.42.06.94.94,0,0,1-.94-.7.89.89,0,0,1,.06-.68,1.4,1.4,0,0,1,.95-.63l1.77-.49c.48-.12.87-.23,1.1-.3s1.15-.4,2.2-.7a2.2,2.2,0,0,1,.57-.1,1,1,0,0,1,.93.63.91.91,0,0,1-.05.74,1.19,1.19,0,0,1-.76.59,2.24,2.24,0,0,0-.54.21c-.1.06-.19.13.07,1.09l3.59,13.22a1.27,1.27,0,0,1-.66,1.72,2.17,2.17,0,0,1-1.6-.2c-2-1-6.1-3-8.35-4.14-1.94-.94-3.9-2-5.19-2.75l2.18,6.69c.43,1.35.71,1.5.72,1.51a3.45,3.45,0,0,0,1-.16,1.07,1.07,0,0,1,1.4.65.88.88,0,0,1-.07.68,1.31,1.31,0,0,1-.92.62c-1,.31-1.86.51-2.42.65l-.5.13-.37.12c-.36.13-.91.32-1.51.51a27.39,27.39,0,0,1-1.54,5.94M91.43,413.25l-.17.16L67.85,436.09a5.11,5.11,0,0,0-1.69,4.08A16.5,16.5,0,0,0,68.75,448a42,42,0,0,0,2.43,3.67A58.87,58.87,0,0,0,79.87,461l2.74,2.17,4,3.21a130.65,130.65,0,0,0,15,9.18,218.6,218.6,0,0,0,50.66,18.57c3.63.77,6.44.31,8.19-1.32l-.18-.45-.06-.17c-1.19-3-2.53-7.16-2.17-9.64a4.41,4.41,0,0,1,.19-.81l.2-.45,11.94-25.71c-28-6.76-49.56-15.66-64-26.43-6.29-4.68-11-9.56-14.14-14.5l-.25-.39-.49-.88-.08-.16m261.62,85.16a8.42,8.42,0,0,0,2.3.35,4.72,4.72,0,0,0,2.14-.46l-5.81-3.46-2.06-1.23a5.61,5.61,0,0,0,3.43,4.8m-249-.1a4.65,4.65,0,0,0,2.13.46,8.36,8.36,0,0,0,2.33-.36,7.26,7.26,0,0,0,2.72-2.42,7,7,0,0,0,.71-2.38L109.72,495l-5.63,3.36m255,3.35,1.81,1.06c4.95,2.9,10.48,6.31,12.56,7.6l.56.34a19.66,19.66,0,0,0,9.34,2.83,10.09,10.09,0,0,0,6.5-2.19c4.13-3.3,6.23-9.89,6.23-19.58,0-12.77-3.63-27.36-5.56-34.26C384,465,374.38,472.08,362,478.66l-.93.48a27.9,27.9,0,0,1,3.16,11.9,14.76,14.76,0,0,1-1.59,6.86c-.24.45-.46.84-.7,1.2l-.06.1-.07.13s-.12.19-.17.25a1.92,1.92,0,0,1-.2.23l-.06.06a7.12,7.12,0,0,1-2.3,1.79M71.11,457.47c-1.94,6.92-5.56,21.53-5.56,34.25,0,9.69,2.1,16.28,6.23,19.58a10.12,10.12,0,0,0,6.51,2.19,19.63,19.63,0,0,0,9.33-2.83l.35-.2c5-3.13,9.34-5.74,12.76-7.74.61-.37,1.21-.71,1.78-1.05a6.76,6.76,0,0,1-2.28-1.82,1.45,1.45,0,0,1-.17-.19l-.34-.46c-.28-.43-.54-.89-.75-1.29a14.74,14.74,0,0,1-1.58-6.85,27.69,27.69,0,0,1,3.07-11.73c-.18-.13-.4-.31-.65-.51l-.28-.22C87.18,472,77.64,464.94,71.11,457.47M383.3,517.23h0A22.78,22.78,0,0,1,372,513.8c-4.53-2.82-11.53-7.09-16.31-9.81a34.63,34.63,0,0,1-4.28-2.23s0,0,0,0l-.09,0a1.78,1.78,0,0,1-.78-.56,10.29,10.29,0,0,1-3.48-3.5,11.14,11.14,0,0,1-.82-7.71,1.91,1.91,0,0,1,1.11-1.18,1.83,1.83,0,0,1,1.62.14l10.77,6.42c2.1-5.34-.76-12.07-2-14.5a221.55,221.55,0,0,1-47.7,16.95,19.68,19.68,0,0,1-4,.44c-5.88,0-8.45-3.3-9.45-5.26a8.31,8.31,0,0,1-.57-1.42l-2.67-7.34-.42-.72-1.5.5c-16.69,5.31-37.28,8.24-58,8.26l-3.87,0-3.86,0c-20.52,0-40.93-2.9-57.54-8.13l-2.65,7.3c-.17.66-2,6.81-10.07,6.81a19,19,0,0,1-4-.44,221.53,221.53,0,0,1-47.7-17c-1.21,2.43-4.08,9.16-2,14.52l10.78-6.43a1.84,1.84,0,0,1,2.71,1,11.11,11.11,0,0,1-.79,7.73,10.52,10.52,0,0,1-3.59,3.57c-.08.06-.47.28-3.19,1.86-5.1,3-14.59,8.46-18.19,10.7a22.82,22.82,0,0,1-11.28,3.44,13.82,13.82,0,0,1-8.85-3.05C54.62,502.3,65.6,462.76,68.28,454a44.07,44.07,0,0,1-2.73-4.11c-5.77-10-2-14.84-.18-16.48l24.71-23.94a12.91,12.91,0,0,1,1.34-1.3,10.86,10.86,0,0,1,1.12-.82,8.31,8.31,0,0,1,3.39-1.36,7,7,0,0,1,5.44,1.65c3.93,3.2,5.43,12.24,6,17.57,17.83,13.79,44.86,22.3,64.66,27l4.21-9a10.87,10.87,0,0,1,9.78-5.59h.09l2.79.34.35.09-.08.32.1-.31a150.18,150.18,0,0,0,37.21,4.34l3.18,0,3.17,0A150.65,150.65,0,0,0,270,438l.58-.16,2.72-.31a10.86,10.86,0,0,1,9.79,5.6l4.43,9.54C308,447.93,336,439.3,354.26,425.16c.55-5.33,2.05-14.37,6-17.55a6.89,6.89,0,0,1,5.41-1.67,8.24,8.24,0,0,1,3.4,1.35,11.62,11.62,0,0,1,1.25.92,12.66,12.66,0,0,1,1.1,1.07l24.88,24.1c1.89,1.7,5.48,6.6-.23,16.46a42.63,42.63,0,0,1-2.72,4.1c2.69,8.82,13.67,48.35-1.19,60.24a13.82,13.82,0,0,1-8.84,3.05"/></svg>