<svg id="Layer_1" data-name="Layer 1" xmlns="http://www.w3.org/2000/svg" viewBox="0 0 688 272"><defs><style>.cls-1{fill:#ababa9;}.cls-2{fill:#169691;}.cls-3{fill:#2eada7;}.cls-4{fill:#19a5a0;}.cls-5{fill:#7c7c7c;}</style></defs><title>imago-citiaps-color</title><path class="cls-1" d="M317.54,160.5c-4.12,2.13-12.76,4.26-23.67,4.26-25.26,0-44.15-16-44.15-45.48,0-28.19,19-47.07,46.81-47.07,11,0,18.22,2.39,21.28,4l-2.93,9.44a41,41,0,0,0-17.95-3.72c-21,0-35,13.43-35,37,0,22.08,12.63,36,34.3,36,7.19,0,14.37-1.46,19-3.72Z"/><path class="cls-1" d="M344.4,73.67V163.3H332.7V73.67Z"/><path class="cls-1" d="M382.3,83.51H355V73.67h66.35v9.84H394V163.3H382.3Z"/><path class="cls-1" d="M443.6,73.67V163.3H431.9V73.67Z"/><path class="cls-2" d="M479,135.11l-9.31,28.19h-12l30.45-89.63h14L532.7,163.3H520.33l-9.58-28.19Zm29.39-9.05-8.91-25.79c-1.86-5.85-3.19-11.17-4.52-16.36h-.4c-1.2,5.19-2.66,10.77-4.39,16.22l-8.77,25.93Z"/><path class="cls-2" d="M546.52,74.87A118.76,118.76,0,0,1,568.73,73c11.44,0,19.81,2.66,25.13,7.44,4.92,4.26,8,10.77,8,18.75s-2.39,14.5-7.05,19.15c-6.11,6.52-16.09,9.84-27.39,9.84a39.54,39.54,0,0,1-9.31-.8V163.3H546.52ZM558.09,118a39.29,39.29,0,0,0,9.58.93c14.09,0,22.47-6.91,22.47-19S581.76,82.18,569,82.18a58.24,58.24,0,0,0-10.91.93Z"/><path class="cls-2" d="M616.47,149.2a39.18,39.18,0,0,0,20.61,5.85c11.84,0,18.75-6.11,18.75-15.29,0-8.24-4.79-13.16-16.89-17.68-14.62-5.32-23.67-13-23.67-25.54,0-14,11.57-24.33,29-24.33,9,0,15.83,2.13,19.68,4.39L660.75,86a33.15,33.15,0,0,0-16.89-4.26C631.63,81.78,627,89.1,627,95.21c0,8.38,5.45,12.5,17.81,17.29,15.16,6,22.74,13.16,22.74,26.33,0,13.83-10.1,25.93-31.25,25.93-8.64,0-18.08-2.66-22.87-5.85Z"/><polygon class="cls-2" points="14.47 117.03 83.65 202.59 227.47 259.75 227.47 164.36 108.58 137.95 14.47 117.03"/><polygon class="cls-3" points="155.56 10.98 108.58 137.95 14.47 117.03 155.56 10.98"/><polygon class="cls-4" points="127.88 85.78 158.8 149.1 227.47 164.36 227.47 72.43 155.56 10.98 127.88 85.78"/><path class="cls-5" d="M259.19,172.63V204h-4.06v-31.4Z"/><path class="cls-5" d="M266.59,187.59c0-2.33,0-4.24-.18-6.1H270l.23,3.72h.1a8.29,8.29,0,0,1,7.45-4.24c3.12,0,8,1.87,8,9.6V204h-4.1V191c0-3.64-1.35-6.67-5.22-6.67a5.83,5.83,0,0,0-5.5,4.2,6.06,6.06,0,0,0-.28,1.91V204h-4.1Z"/><path class="cls-5" d="M292.45,187.59c0-2.33-.05-4.24-.19-6.1h3.64l.23,3.72h.09a8.31,8.31,0,0,1,7.46-4.24c3.12,0,8,1.87,8,9.6V204h-4.1V191c0-3.64-1.35-6.67-5.21-6.67a6,6,0,0,0-5.78,6.11V204h-4.1Z"/><path class="cls-5" d="M338.71,192.57c0,8.34-5.78,12-11.23,12-6.1,0-10.8-4.47-10.8-11.59,0-7.55,4.93-12,11.18-12C334.33,181,338.71,185.68,338.71,192.57Zm-17.89.24c0,4.93,2.84,8.66,6.85,8.66s6.85-3.68,6.85-8.76c0-3.82-1.91-8.66-6.76-8.66S320.82,188.52,320.82,192.81Z"/><path class="cls-5" d="M345.14,181.49l4.43,12.67a57.94,57.94,0,0,1,1.81,5.77h.14c.52-1.86,1.17-3.72,1.91-5.77l4.38-12.67h4.29L353.25,204h-3.92l-8.57-22.54Z"/><path class="cls-5" d="M378.26,204l-.32-2.84h-.14a8.4,8.4,0,0,1-6.9,3.35c-4.56,0-6.89-3.21-6.89-6.47,0-5.45,4.84-8.43,13.56-8.39v-.46c0-1.87-.52-5.22-5.13-5.22a11.2,11.2,0,0,0-5.87,1.68l-.93-2.7a13.92,13.92,0,0,1,7.41-2c6.89,0,8.57,4.71,8.57,9.23v8.43A31.66,31.66,0,0,0,382,204Zm-.6-11.5c-4.47-.1-9.55.69-9.55,5.07a3.63,3.63,0,0,0,3.87,3.92,5.63,5.63,0,0,0,5.45-3.78,4.24,4.24,0,0,0,.23-1.3Z"/><path class="cls-5" d="M404.31,203.19a15.08,15.08,0,0,1-6.48,1.31c-6.8,0-11.23-4.61-11.23-11.51s4.76-12,12.12-12a13.7,13.7,0,0,1,5.68,1.16l-.93,3.17a9.51,9.51,0,0,0-4.75-1.07c-5.18,0-8,3.82-8,8.53,0,5.21,3.35,8.43,7.83,8.43a11.69,11.69,0,0,0,5-1.12Z"/><path class="cls-5" d="M413.67,175.15a2.54,2.54,0,0,1-5.08,0,2.51,2.51,0,0,1,2.57-2.56A2.43,2.43,0,0,1,413.67,175.15ZM409.11,204V181.49h4.1V204Z"/><path class="cls-5" d="M440.41,192.57c0,8.34-5.77,12-11.22,12-6.11,0-10.81-4.47-10.81-11.59,0-7.55,4.94-12,11.18-12C436,181,440.41,185.68,440.41,192.57Zm-17.89.24c0,4.93,2.85,8.66,6.85,8.66s6.85-3.68,6.85-8.76c0-3.82-1.91-8.66-6.76-8.66S422.52,188.52,422.52,192.81Zm13-21.06-5.68,6.66H426.9l4.1-6.66Z"/><path class="cls-5" d="M445.58,187.59c0-2.33,0-4.24-.18-6.1H449l.23,3.72h.1a8.29,8.29,0,0,1,7.45-4.24c3.12,0,8,1.87,8,9.6V204h-4.1V191c0-3.64-1.35-6.67-5.22-6.67a5.83,5.83,0,0,0-5.5,4.2,6.06,6.06,0,0,0-.28,1.91V204h-4.1Z"/><path class="cls-5" d="M483.6,193.5c.09,5.55,3.63,7.83,7.73,7.83a14.9,14.9,0,0,0,6.25-1.16l.69,2.93a18.26,18.26,0,0,1-7.5,1.4c-6.94,0-11.08-4.57-11.08-11.37s4-12.16,10.57-12.16c7.36,0,9.32,6.48,9.32,10.62a14.79,14.79,0,0,1-.14,1.91Zm12-2.93c.05-2.61-1.07-6.66-5.69-6.66-4.14,0-6,3.82-6.28,6.66Z"/><path class="cls-5" d="M504.66,187.59c0-2.33-.05-4.24-.19-6.1h3.63l.24,3.72h.09a8.3,8.3,0,0,1,7.45-4.24c3.13,0,8,1.87,8,9.6V204h-4.1V191c0-3.64-1.35-6.67-5.22-6.67a6,6,0,0,0-5.77,6.11V204h-4.1Z"/><path class="cls-5" d="M544.58,176.08H535v-3.45h23.25v3.45h-9.6V204h-4.1Z"/><path class="cls-5" d="M565.83,172.63V204h-4.06v-31.4Z"/><path class="cls-5" d="M582.64,188.85c0-2.89-.09-5.22-.18-7.36h3.68l.19,3.86h.09a8.86,8.86,0,0,1,8-4.38c5.45,0,9.55,4.61,9.55,11.46,0,8.11-4.94,12.11-10.25,12.11a7.9,7.9,0,0,1-6.94-3.54h-.09v12.26h-4.06Zm4.06,6a9.51,9.51,0,0,0,.18,1.68,6.34,6.34,0,0,0,6.15,4.8c4.34,0,6.85-3.54,6.85-8.71,0-4.52-2.37-8.39-6.71-8.39a6.55,6.55,0,0,0-6.19,5.08,6.64,6.64,0,0,0-.28,1.68Z"/><path class="cls-5" d="M621.64,204l-.33-2.84h-.14a8.4,8.4,0,0,1-6.89,3.35c-4.57,0-6.9-3.21-6.9-6.47,0-5.45,4.85-8.43,13.56-8.39v-.46c0-1.87-.51-5.22-5.13-5.22a11.22,11.22,0,0,0-5.87,1.68L609,183a14,14,0,0,1,7.41-2c6.89,0,8.57,4.71,8.57,9.23v8.43a31.66,31.66,0,0,0,.37,5.4Zm-.61-11.5c-4.47-.1-9.55.69-9.55,5.07a3.63,3.63,0,0,0,3.87,3.92,5.62,5.62,0,0,0,5.45-3.78,4.24,4.24,0,0,0,.23-1.3Z"/><path class="cls-5" d="M631.61,188.52c0-2.66-.05-4.94-.19-7H635l.14,4.42h.18a6.78,6.78,0,0,1,6.25-4.94,4.55,4.55,0,0,1,1.16.14V185a6.37,6.37,0,0,0-1.4-.14c-2.88,0-4.93,2.19-5.49,5.26a10.83,10.83,0,0,0-.19,1.91v12h-4Z"/><path class="cls-5" d="M659.09,204l-.32-2.84h-.14a8.4,8.4,0,0,1-6.9,3.35c-4.56,0-6.89-3.21-6.89-6.47,0-5.45,4.84-8.43,13.56-8.39v-.46c0-1.87-.52-5.22-5.13-5.22a11.2,11.2,0,0,0-5.87,1.68l-.93-2.7a13.92,13.92,0,0,1,7.41-2c6.89,0,8.57,4.71,8.57,9.23v8.43a31.66,31.66,0,0,0,.37,5.4Zm-.6-11.5c-4.47-.1-9.55.69-9.55,5.07a3.63,3.63,0,0,0,3.87,3.92,5.63,5.63,0,0,0,5.45-3.78,4.24,4.24,0,0,0,.23-1.3Z"/><path class="cls-5" d="M261.84,239.49l-3.26,9.88h-4.19L265.06,218H270l10.71,31.4h-4.33L273,239.49Zm10.3-3.17-3.08-9c-.7-2-1.16-3.92-1.63-5.73h-.09c-.47,1.86-1,3.77-1.59,5.68l-3.07,9.08Z"/><path class="cls-5" d="M285,234.18c0-2.89-.1-5.22-.19-7.36h3.68l.19,3.87h.09a8.86,8.86,0,0,1,8-4.38c5.45,0,9.55,4.61,9.55,11.46,0,8.1-4.93,12.11-10.25,12.11a7.9,7.9,0,0,1-6.94-3.54h-.09v12.25H285Zm4.05,6a8.71,8.71,0,0,0,.19,1.68,6.32,6.32,0,0,0,6.15,4.8c4.33,0,6.84-3.55,6.84-8.72,0-4.51-2.37-8.38-6.71-8.38a7.11,7.11,0,0,0-6.47,6.75Z"/><path class="cls-5" d="M311.5,216.29h4.1v33.08h-4.1Z"/><path class="cls-5" d="M327.06,220.48a2.54,2.54,0,0,1-5.07,0,2.5,2.5,0,0,1,2.56-2.56A2.43,2.43,0,0,1,327.06,220.48Zm-4.56,28.89V226.82h4.1v22.55Z"/><path class="cls-5" d="M349.47,248.53a15.06,15.06,0,0,1-6.47,1.3c-6.8,0-11.23-4.61-11.23-11.5s4.75-12,12.11-12a13.73,13.73,0,0,1,5.69,1.17l-.94,3.17a9.46,9.46,0,0,0-4.75-1.07c-5.17,0-8,3.82-8,8.52,0,5.22,3.35,8.43,7.82,8.43a11.51,11.51,0,0,0,5-1.12Z"/><path class="cls-5" d="M366.76,249.37l-.33-2.84h-.14a8.4,8.4,0,0,1-6.89,3.35c-4.57,0-6.9-3.21-6.9-6.48,0-5.45,4.85-8.43,13.56-8.38v-.47c0-1.86-.51-5.21-5.13-5.21a11.31,11.31,0,0,0-5.87,1.67l-.93-2.7a14,14,0,0,1,7.41-2c6.89,0,8.57,4.7,8.57,9.22V244a32.84,32.84,0,0,0,.37,5.41Zm-.61-11.51c-4.47-.09-9.55.7-9.55,5.08a3.63,3.63,0,0,0,3.87,3.91,5.61,5.61,0,0,0,5.45-3.77,4.3,4.3,0,0,0,.23-1.31Z"/><path class="cls-5" d="M392.8,248.53a15.11,15.11,0,0,1-6.48,1.3c-6.8,0-11.22-4.61-11.22-11.5s4.75-12,12.11-12a13.67,13.67,0,0,1,5.68,1.17l-.93,3.17a9.48,9.48,0,0,0-4.75-1.07c-5.17,0-8,3.82-8,8.52,0,5.22,3.36,8.43,7.83,8.43a11.51,11.51,0,0,0,5-1.12Z"/><path class="cls-5" d="M402.16,220.48a2.54,2.54,0,0,1-5.07,0,2.5,2.5,0,0,1,2.56-2.56A2.43,2.43,0,0,1,402.16,220.48Zm-4.56,28.89V226.82h4.1v22.55Z"/><path class="cls-5" d="M428.9,237.91c0,8.34-5.77,12-11.22,12-6.1,0-10.81-4.47-10.81-11.6,0-7.55,4.94-12,11.18-12C424.53,226.31,428.9,231,428.9,237.91Zm-17.88.23c0,4.94,2.84,8.66,6.84,8.66s6.85-3.68,6.85-8.75c0-3.82-1.91-8.67-6.75-8.67S411,233.85,411,238.14Z"/><path class="cls-5" d="M434.08,232.92c0-2.33-.05-4.24-.19-6.1h3.63l.24,3.73h.09a8.28,8.28,0,0,1,7.45-4.24c3.13,0,8,1.86,8,9.59v13.47h-4.1v-13c0-3.63-1.35-6.66-5.22-6.66a6,6,0,0,0-5.77,6.1v13.56h-4.1Z"/><path class="cls-5" d="M462.22,238.84c.09,5.54,3.63,7.83,7.73,7.83a14.86,14.86,0,0,0,6.24-1.17l.7,2.94a18.3,18.3,0,0,1-7.5,1.39c-6.94,0-11.09-4.56-11.09-11.36s4-12.16,10.58-12.16c7.36,0,9.31,6.47,9.31,10.62a14.79,14.79,0,0,1-.14,1.91Zm12-2.94c0-2.61-1.07-6.66-5.68-6.66-4.14,0-6,3.82-6.29,6.66Z"/><path class="cls-5" d="M482.71,245.17a10.72,10.72,0,0,0,5.41,1.63c3,0,4.38-1.49,4.38-3.35s-1.17-3-4.2-4.15c-4.05-1.44-6-3.68-6-6.38,0-3.63,2.94-6.61,7.78-6.61a11.24,11.24,0,0,1,5.55,1.4l-1,3a8.76,8.76,0,0,0-4.61-1.31c-2.42,0-3.78,1.4-3.78,3.08,0,1.86,1.36,2.7,4.29,3.82,3.91,1.49,5.92,3.44,5.92,6.8,0,4-3.08,6.75-8.43,6.75a12.88,12.88,0,0,1-6.34-1.53Z"/><path class="cls-5" d="M511.18,244.43a14.35,14.35,0,0,0,7.27,2c4.14,0,6.57-2.19,6.57-5.36,0-2.93-1.68-4.61-5.92-6.24-5.13-1.82-8.29-4.47-8.29-8.9,0-4.89,4.05-8.52,10.15-8.52A14.26,14.26,0,0,1,527.9,219l-1.11,3.31a12.55,12.55,0,0,0-6-1.49c-4.28,0-5.91,2.56-5.91,4.71,0,2.93,1.91,4.37,6.24,6,5.31,2.05,8,4.61,8,9.23,0,4.84-3.59,9-11,9a16.17,16.17,0,0,1-8-2Z"/><path class="cls-5" d="M555.25,237.91c0,8.34-5.78,12-11.23,12-6.1,0-10.8-4.47-10.8-11.6,0-7.55,4.93-12,11.18-12C550.87,226.31,555.25,231,555.25,237.91Zm-17.89.23c0,4.94,2.84,8.66,6.85,8.66s6.85-3.68,6.85-8.75c0-3.82-1.91-8.67-6.76-8.67S537.36,233.85,537.36,238.14Z"/><path class="cls-5" d="M576.49,248.53a15.06,15.06,0,0,1-6.47,1.3c-6.8,0-11.23-4.61-11.23-11.5s4.75-12,12.11-12a13.69,13.69,0,0,1,5.69,1.17l-.93,3.17a9.53,9.53,0,0,0-4.76-1.07c-5.17,0-8,3.82-8,8.52,0,5.22,3.35,8.43,7.82,8.43a11.51,11.51,0,0,0,5-1.12Z"/><path class="cls-5" d="M585.86,220.48a2.54,2.54,0,0,1-5.08,0,2.5,2.5,0,0,1,2.56-2.56A2.44,2.44,0,0,1,585.86,220.48Zm-4.57,28.89V226.82h4.1v22.55Z"/><path class="cls-5" d="M604.68,249.37l-.33-2.84h-.14a8.38,8.38,0,0,1-6.89,3.35c-4.57,0-6.9-3.21-6.9-6.48,0-5.45,4.85-8.43,13.56-8.38v-.47c0-1.86-.51-5.21-5.12-5.21A11.25,11.25,0,0,0,593,231l-.94-2.7a14,14,0,0,1,7.41-2c6.9,0,8.57,4.7,8.57,9.22V244a31.72,31.72,0,0,0,.38,5.41Zm-.61-11.51c-4.47-.09-9.55.7-9.55,5.08a3.63,3.63,0,0,0,3.87,3.91,5.6,5.6,0,0,0,5.45-3.77,4.3,4.3,0,0,0,.23-1.31Z"/><path class="cls-5" d="M614.65,216.29h4.1v33.08h-4.1Z"/><path class="cls-5" d="M627.93,238.84c.09,5.54,3.63,7.83,7.73,7.83a14.79,14.79,0,0,0,6.24-1.17l.7,2.94a18.3,18.3,0,0,1-7.5,1.39c-6.94,0-11.09-4.56-11.09-11.36s4-12.16,10.58-12.16c7.36,0,9.32,6.47,9.32,10.62a16.87,16.87,0,0,1-.14,1.91Zm12-2.94c0-2.61-1.07-6.66-5.69-6.66-4.14,0-6,3.82-6.29,6.66Z"/><path class="cls-5" d="M648.43,245.17a10.65,10.65,0,0,0,5.4,1.63c3,0,4.38-1.49,4.38-3.35s-1.17-3-4.19-4.15c-4.06-1.44-6-3.68-6-6.38,0-3.63,2.94-6.61,7.78-6.61a11.21,11.21,0,0,1,5.55,1.4l-1,3a8.73,8.73,0,0,0-4.61-1.31c-2.42,0-3.77,1.4-3.77,3.08,0,1.86,1.35,2.7,4.28,3.82,3.92,1.49,5.92,3.44,5.92,6.8,0,4-3.08,6.75-8.43,6.75a12.88,12.88,0,0,1-6.34-1.53Z"/></svg>