<svg id="Layer_1" data-name="Layer 1" xmlns="http://www.w3.org/2000/svg" viewBox="0 0 756 333"><defs><style>.cls-1{fill:#e15c26;}.cls-2{fill:#6a6c6c;}</style></defs><title>Artboard 1</title><rect class="cls-1" x="103.4" y="123.51" width="68.61" height="68.6"/><rect class="cls-1" x="18.22" y="126.15" width="63.33" height="63.32"/><rect class="cls-1" x="191.6" y="126.15" width="63.32" height="63.32"/><rect class="cls-1" x="106.04" y="37.57" width="63.32" height="63.32"/><rect class="cls-1" x="106.04" y="215.48" width="63.32" height="63.32"/><rect class="cls-1" x="191.6" y="51.14" width="49.37" height="49.75"/><rect class="cls-1" x="32.16" y="51.14" width="49.38" height="49.75"/><rect class="cls-1" x="32.16" y="215.48" width="49.38" height="49.75"/><rect class="cls-1" x="191.6" y="215.48" width="49.37" height="49.75"/><path class="cls-1" d="M324.43,43.62c1.78-.25,3.48-.45,5.09-.57s3.39-.19,5.34-.19c1.69,0,3.34.06,4.95.19s3.39.32,5.34.57L373.75,135a70.13,70.13,0,0,1-10.17.77,57.09,57.09,0,0,1-9.41-.77l-5.08-18.3H318.84L313.63,135a53.2,53.2,0,0,1-8.77.77,56.14,56.14,0,0,1-9.28-.77Zm20.34,57.7L334.22,62.94l-11.06,38.38Z"/><path class="cls-1" d="M374.89,69.29a29.45,29.45,0,0,1,5.15-.7c1.48,0,2.86-.06,4.13-.06,1.69,0,3.43,0,5.21.13a27.09,27.09,0,0,1,4.83.63l13.73,57.33,15.5-57.33a49.06,49.06,0,0,1,8.64-.76c1.28,0,2.63,0,4.07.06a34.42,34.42,0,0,1,5.34.7L417,150.51a32.21,32.21,0,0,1-3.62,8,17.28,17.28,0,0,1-4.77,4.95,16.83,16.83,0,0,1-6,2.48,34.18,34.18,0,0,1-7.12.7,43,43,0,0,1-6.42-.44,52.11,52.11,0,0,1-5.65-1.21,5.23,5.23,0,0,1-.13-1.08V163a23.08,23.08,0,0,1,.7-5.79,41.08,41.08,0,0,1,1.71-5.27,21.39,21.39,0,0,0,3.05.7,23.45,23.45,0,0,0,3.82.32,26.15,26.15,0,0,0,3.05-.19,7,7,0,0,0,3-1.15,9.36,9.36,0,0,0,2.74-3,22.35,22.35,0,0,0,2.29-5.72l2.16-7.88c-.94.09-2,.15-3.12.2s-2.31.06-3.49.06H396.5a9.43,9.43,0,0,1-2.29-.26Z"/><path class="cls-1" d="M451.4,69.29c1.19-.25,2.38-.44,3.56-.57a36.5,36.5,0,0,1,3.94-.19,33.24,33.24,0,0,1,3.82.19c1.1.13,2.24.32,3.43.57a7.92,7.92,0,0,1,.7,1.85c.21.8.4,1.65.57,2.54s.32,1.76.44,2.6.24,1.57.32,2.17a29.31,29.31,0,0,1,3.05-3.82,22.15,22.15,0,0,1,4.13-3.43,22.52,22.52,0,0,1,5.28-2.48,21,21,0,0,1,6.48-1q11.17,0,16.84,6.1t5.66,19.19V135a53.28,53.28,0,0,1-18.05,0V97.89q0-6.86-2.1-10.55c-1.4-2.45-3.83-3.68-7.31-3.68a16.76,16.76,0,0,0-4.45.63,9.41,9.41,0,0,0-4.13,2.48,13.24,13.24,0,0,0-3,5.15,26.73,26.73,0,0,0-1.15,8.64V135a53.28,53.28,0,0,1-18.05,0Z"/><path class="cls-1" d="M529.57,83h-8.52a30.27,30.27,0,0,1-.57-3.49,33.35,33.35,0,0,1-.19-3.5,29.83,29.83,0,0,1,.76-6.74h26.19V135a54,54,0,0,1-8.9.77,53.2,53.2,0,0,1-8.77-.77ZM526.9,58.24a48.78,48.78,0,0,1-.76-8.52,50.15,50.15,0,0,1,.76-8.51c1.44-.26,3-.45,4.64-.58s3.15-.19,4.51-.19,3,.07,4.7.19a47,47,0,0,1,4.71.58,37.21,37.21,0,0,1,.5,4.25c.09,1.4.13,2.82.13,4.26s0,2.75-.13,4.2a37.36,37.36,0,0,1-.5,4.32,38.12,38.12,0,0,1-4.64.5c-1.65.09-3.2.13-4.64.13s-2.88,0-4.58-.13A38.08,38.08,0,0,1,526.9,58.24Z"/><path class="cls-2" d="M319.44,185.13a10.36,10.36,0,0,0-8.77-4.8,11.63,11.63,0,0,0-5.72,1.31,10.66,10.66,0,0,0-3.81,3.49,15.13,15.13,0,0,0-2.13,5,24.51,24.51,0,0,0-.67,5.78,22.81,22.81,0,0,0,.67,5.56,15,15,0,0,0,2.13,4.87,10.85,10.85,0,0,0,3.81,3.46,11.63,11.63,0,0,0,5.72,1.3,9.22,9.22,0,0,0,7.15-2.8,12.94,12.94,0,0,0,3.14-7.37h9.66a22.89,22.89,0,0,1-2,7.69,18.36,18.36,0,0,1-4.19,5.85,17.9,17.9,0,0,1-6.1,3.69,22.56,22.56,0,0,1-7.69,1.27,23.42,23.42,0,0,1-9.38-1.81,20.17,20.17,0,0,1-7-5,22.09,22.09,0,0,1-4.38-7.47,27.33,27.33,0,0,1-1.53-9.25,28.22,28.22,0,0,1,1.53-9.43,22.6,22.6,0,0,1,4.38-7.6,20.13,20.13,0,0,1,7-5.08,24.29,24.29,0,0,1,16.46-.77,19.32,19.32,0,0,1,6,3.15,16.89,16.89,0,0,1,4.35,5.12,18,18,0,0,1,2.16,7h-9.66A8.17,8.17,0,0,0,319.44,185.13Z"/><path class="cls-2" d="M337.74,194.85a15,15,0,0,1,8.77-9,18.92,18.92,0,0,1,7-1.24,19.12,19.12,0,0,1,7,1.24,15,15,0,0,1,8.81,9,20.31,20.31,0,0,1,1.2,7.15,20,20,0,0,1-1.2,7.12,15.36,15.36,0,0,1-3.44,5.43,14.91,14.91,0,0,1-5.37,3.47,19.54,19.54,0,0,1-7,1.21,19.34,19.34,0,0,1-7-1.21,15,15,0,0,1-5.34-3.47,15.48,15.48,0,0,1-3.43-5.43,20,20,0,0,1-1.21-7.12A20.31,20.31,0,0,1,337.74,194.85Zm8.2,11a10.29,10.29,0,0,0,1.3,3.37,7,7,0,0,0,2.45,2.38,7.51,7.51,0,0,0,3.81.89,7.69,7.69,0,0,0,3.85-.89,6.88,6.88,0,0,0,2.47-2.38,10.3,10.3,0,0,0,1.31-3.37,19.56,19.56,0,0,0,.38-3.85,20,20,0,0,0-.38-3.87,9.88,9.88,0,0,0-1.31-3.37,7.22,7.22,0,0,0-2.47-2.38,7.39,7.39,0,0,0-3.85-.93,7.22,7.22,0,0,0-3.81.93,7.34,7.34,0,0,0-2.45,2.38,9.87,9.87,0,0,0-1.3,3.37,19.24,19.24,0,0,0-.38,3.87A18.83,18.83,0,0,0,345.94,205.85Z"/><path class="cls-2" d="M377.65,194.85a15,15,0,0,1,8.77-9,18.92,18.92,0,0,1,7-1.24,19.16,19.16,0,0,1,7,1.24,15.38,15.38,0,0,1,5.37,3.5,15.15,15.15,0,0,1,3.43,5.46,20.09,20.09,0,0,1,1.21,7.15,19.81,19.81,0,0,1-1.21,7.12,15.2,15.2,0,0,1-3.43,5.43,14.91,14.91,0,0,1-5.37,3.47,19.58,19.58,0,0,1-7,1.21,19.34,19.34,0,0,1-7-1.21,15,15,0,0,1-5.34-3.47,15.34,15.34,0,0,1-3.43-5.43,19.81,19.81,0,0,1-1.21-7.12A20.09,20.09,0,0,1,377.65,194.85Zm8.2,11a10.29,10.29,0,0,0,1.3,3.37,6.9,6.9,0,0,0,2.45,2.38,7.46,7.46,0,0,0,3.81.89,7.63,7.63,0,0,0,3.84-.89,6.83,6.83,0,0,0,2.48-2.38,10.3,10.3,0,0,0,1.31-3.37,19.56,19.56,0,0,0,.38-3.85,20,20,0,0,0-.38-3.87,9.88,9.88,0,0,0-1.31-3.37,7.17,7.17,0,0,0-2.48-2.38,7.33,7.33,0,0,0-3.84-.93,7.17,7.17,0,0,0-3.81.93,7.25,7.25,0,0,0-2.45,2.38,9.87,9.87,0,0,0-1.3,3.37,19.24,19.24,0,0,0-.38,3.87A18.83,18.83,0,0,0,385.85,205.85Z"/><path class="cls-2" d="M426,185.54v6.1h.12a11.46,11.46,0,0,1,4.2-5,12.28,12.28,0,0,1,3-1.43,10.69,10.69,0,0,1,3.3-.51,7.13,7.13,0,0,1,2,.32v8.39c-.42-.08-.93-.16-1.53-.22a17,17,0,0,0-1.71-.1,9.68,9.68,0,0,0-4.2.83,7.3,7.3,0,0,0-2.76,2.25,9,9,0,0,0-1.49,3.34,18,18,0,0,0-.45,4.13V218.4h-9V185.54Z"/><path class="cls-2" d="M466.49,214.21a9.36,9.36,0,0,1-4.16,3.84,13.94,13.94,0,0,1-5.82,1.18A14.12,14.12,0,0,1,450,217.8a13.17,13.17,0,0,1-4.61-3.88,17.87,17.87,0,0,1-2.73-5.63,23.7,23.7,0,0,1-.92-6.6,22.29,22.29,0,0,1,.92-6.39,16.71,16.71,0,0,1,2.73-5.43,13.77,13.77,0,0,1,4.55-3.79,13.54,13.54,0,0,1,6.35-1.43,13,13,0,0,1,5.56,1.24,9.75,9.75,0,0,1,4.17,3.66h.12V173h9V218.4h-8.58v-4.19ZM466.11,198a9.63,9.63,0,0,0-1.3-3.31,7.46,7.46,0,0,0-2.39-2.32,7,7,0,0,0-3.68-.89,7.35,7.35,0,0,0-3.75.89,7.1,7.1,0,0,0-2.45,2.36,10.29,10.29,0,0,0-1.33,3.33,17.82,17.82,0,0,0-.42,3.91,16.52,16.52,0,0,0,.45,3.81,10.37,10.37,0,0,0,1.43,3.4,8,8,0,0,0,2.48,2.42,6.72,6.72,0,0,0,3.59.92,7.21,7.21,0,0,0,3.72-.89,6.78,6.78,0,0,0,2.38-2.38,10.7,10.7,0,0,0,1.27-3.4,19.65,19.65,0,0,0,.38-3.94A19.14,19.14,0,0,0,466.11,198Z"/><path class="cls-2" d="M483.33,180.46V173h9v7.44Zm9,5.08V218.4h-9V185.54Z"/><path class="cls-2" d="M509.13,185.54v4.58h.19a10.38,10.38,0,0,1,4.45-4.16,12.86,12.86,0,0,1,5.59-1.31,15.3,15.3,0,0,1,5.95,1,8.91,8.91,0,0,1,3.65,2.73,10.63,10.63,0,0,1,1.87,4.26,25.81,25.81,0,0,1,.55,5.56V218.4h-9V199.84a11.51,11.51,0,0,0-1.27-6.07q-1.27-2-4.51-2-3.69,0-5.34,2.19c-1.1,1.47-1.65,3.87-1.65,7.22V218.4h-9V185.54Z"/><path class="cls-2" d="M538.94,195.65a10.36,10.36,0,0,1,1.59-5.28,10.76,10.76,0,0,1,3.55-3.36,15.41,15.41,0,0,1,4.87-1.82,27.62,27.62,0,0,1,5.43-.54,37.28,37.28,0,0,1,5,.35,15.56,15.56,0,0,1,4.64,1.37,9.12,9.12,0,0,1,3.43,2.83,7.89,7.89,0,0,1,1.34,4.8v17.09a34.37,34.37,0,0,0,.25,4.26,7.75,7.75,0,0,0,.89,3.05H560.8a11.93,11.93,0,0,1-.41-1.56,12.39,12.39,0,0,1-.23-1.62,11.75,11.75,0,0,1-5.08,3.12,20.51,20.51,0,0,1-6,.89,15.85,15.85,0,0,1-4.39-.58,9.94,9.94,0,0,1-3.56-1.78,8.17,8.17,0,0,1-2.38-3.05,10.31,10.31,0,0,1-.86-4.38,9.57,9.57,0,0,1,1-4.61,8.12,8.12,0,0,1,2.54-2.89,11.36,11.36,0,0,1,3.56-1.62,37.54,37.54,0,0,1,4-.86c1.36-.21,2.69-.38,4-.51a22.45,22.45,0,0,0,3.5-.57,6,6,0,0,0,2.42-1.11,2.46,2.46,0,0,0,.82-2.13,4.77,4.77,0,0,0-.48-2.32,3.39,3.39,0,0,0-1.27-1.33,5,5,0,0,0-1.84-.64,15.92,15.92,0,0,0-2.26-.16,6.81,6.81,0,0,0-4.19,1.15,5.08,5.08,0,0,0-1.78,3.81Zm20.84,6.67a4.2,4.2,0,0,1-1.43.8,15,15,0,0,1-1.84.47c-.66.13-1.35.24-2.07.32s-1.44.19-2.16.32a14,14,0,0,0-2,.51,5.7,5.7,0,0,0-1.71.85,4.12,4.12,0,0,0-1.18,1.37,4.36,4.36,0,0,0-.45,2.1,4.2,4.2,0,0,0,.45,2,3.37,3.37,0,0,0,1.21,1.3,5.11,5.11,0,0,0,1.78.67,11,11,0,0,0,2.09.19,7.89,7.89,0,0,0,4.13-.89,5.81,5.81,0,0,0,2.16-2.13,6.59,6.59,0,0,0,.86-2.51,16.27,16.27,0,0,0,.16-2Z"/><path class="cls-2" d="M592.57,191.45a6.3,6.3,0,0,0-3.62,1,7.83,7.83,0,0,0-2.38,2.54,11,11,0,0,0-1.31,3.43,18.94,18.94,0,0,0-.38,3.72,18.11,18.11,0,0,0,.38,3.62,11.48,11.48,0,0,0,1.24,3.34,7.34,7.34,0,0,0,2.32,2.45,6.43,6.43,0,0,0,3.56,1,6.6,6.6,0,0,0,5-1.81,8.5,8.5,0,0,0,2.19-4.86h8.71q-.88,6.54-5.08,10a16.41,16.41,0,0,1-10.74,3.44,18.09,18.09,0,0,1-6.77-1.24,15,15,0,0,1-5.25-3.47,15.68,15.68,0,0,1-3.36-5.3,18.32,18.32,0,0,1-1.21-6.77,22,22,0,0,1,1.11-7.09,15.84,15.84,0,0,1,3.27-5.65,15,15,0,0,1,5.28-3.72,17.9,17.9,0,0,1,7.12-1.34,20.55,20.55,0,0,1,5.62.77,15,15,0,0,1,4.83,2.32,12,12,0,0,1,5,9.37h-8.83Q598.35,191.46,592.57,191.45Z"/><path class="cls-2" d="M614.69,180.46V173h9v7.44Zm9,5.08V218.4h-9V185.54Z"/><path class="cls-2" d="M632.1,194.85a15,15,0,0,1,8.77-9,18.92,18.92,0,0,1,7-1.24,19.12,19.12,0,0,1,7,1.24,15.38,15.38,0,0,1,5.37,3.5,15.15,15.15,0,0,1,3.43,5.46,20.09,20.09,0,0,1,1.21,7.15,19.81,19.81,0,0,1-1.21,7.12,15.2,15.2,0,0,1-3.43,5.43,14.91,14.91,0,0,1-5.37,3.47,19.54,19.54,0,0,1-7,1.21,19.34,19.34,0,0,1-7-1.21,15,15,0,0,1-5.34-3.47,15.34,15.34,0,0,1-3.43-5.43,19.81,19.81,0,0,1-1.21-7.12A20.09,20.09,0,0,1,632.1,194.85Zm8.2,11a10.29,10.29,0,0,0,1.3,3.37,6.9,6.9,0,0,0,2.45,2.38,7.46,7.46,0,0,0,3.81.89,7.69,7.69,0,0,0,3.85-.89,6.88,6.88,0,0,0,2.47-2.38,10.3,10.3,0,0,0,1.31-3.37,19.56,19.56,0,0,0,.38-3.85,20,20,0,0,0-.38-3.87,9.88,9.88,0,0,0-1.31-3.37,7.22,7.22,0,0,0-2.47-2.38,7.39,7.39,0,0,0-3.85-.93,7.17,7.17,0,0,0-3.81.93,7.25,7.25,0,0,0-2.45,2.38,9.87,9.87,0,0,0-1.3,3.37,19.24,19.24,0,0,0-.38,3.87A18.83,18.83,0,0,0,640.3,205.85Zm9.53-37.34-6.74,11.25h6.3l10.35-11.25Z"/><path class="cls-2" d="M680.4,185.54v4.58h.19A10.27,10.27,0,0,1,685,186a12.83,12.83,0,0,1,5.59-1.31,15.28,15.28,0,0,1,5.94,1,8.87,8.87,0,0,1,3.66,2.73,10.63,10.63,0,0,1,1.87,4.26,26.48,26.48,0,0,1,.54,5.56V218.4h-9V199.84a11.5,11.5,0,0,0-1.28-6.07c-.84-1.33-2.35-2-4.51-2q-3.68,0-5.33,2.19c-1.11,1.47-1.66,3.87-1.66,7.22V218.4h-9V185.54Z"/><path class="cls-2" d="M312.9,273.24a9.27,9.27,0,0,1-4.17,3.84,13.71,13.71,0,0,1-5.81,1.18,14.06,14.06,0,0,1-6.48-1.43,13,13,0,0,1-4.61-3.88,17.4,17.4,0,0,1-2.73-5.62,23.41,23.41,0,0,1-.92-6.61,22,22,0,0,1,.92-6.39,16.51,16.51,0,0,1,2.73-5.43,13.58,13.58,0,0,1,4.54-3.78,13.44,13.44,0,0,1,6.36-1.43,12.86,12.86,0,0,1,5.56,1.24,9.64,9.64,0,0,1,4.16,3.65h.13V232.06h9v45.37H313v-4.19ZM312.51,257a9.31,9.31,0,0,0-1.3-3.3,7.23,7.23,0,0,0-2.38-2.32,6.93,6.93,0,0,0-3.69-.89,7.28,7.28,0,0,0-3.75.89,7,7,0,0,0-2.44,2.35,10.39,10.39,0,0,0-1.34,3.33,18.59,18.59,0,0,0-.41,3.91,17.16,17.16,0,0,0,.44,3.82,10.69,10.69,0,0,0,1.43,3.4,8,8,0,0,0,2.48,2.41,6.68,6.68,0,0,0,3.59.92,7.09,7.09,0,0,0,3.72-.89,6.62,6.62,0,0,0,2.38-2.38,10.47,10.47,0,0,0,1.27-3.4,19.57,19.57,0,0,0,.39-3.94A19.13,19.13,0,0,0,312.51,257Z"/><path class="cls-2" d="M339.14,269.55a9.27,9.27,0,0,0,10.55.61,5.71,5.71,0,0,0,2.42-2.9h7.94c-1.27,3.95-3.22,6.76-5.85,8.46a17.22,17.22,0,0,1-9.53,2.54,18.72,18.72,0,0,1-7-1.24,14.47,14.47,0,0,1-5.27-3.53,15.6,15.6,0,0,1-3.34-5.46,20.1,20.1,0,0,1-1.18-7,19.3,19.3,0,0,1,1.21-6.87,15.91,15.91,0,0,1,8.74-9.15,17,17,0,0,1,6.83-1.33,15.63,15.63,0,0,1,7.31,1.62,14.71,14.71,0,0,1,5.12,4.35,18.09,18.09,0,0,1,2.89,6.23,23.29,23.29,0,0,1,.63,7.31h-23.7C337,266.12,337.79,268.24,339.14,269.55Zm10.2-17.28a6.32,6.32,0,0,0-4.92-1.78,7.8,7.8,0,0,0-3.59.73,6.79,6.79,0,0,0-2.29,1.81,6.59,6.59,0,0,0-1.21,2.29,10.26,10.26,0,0,0-.41,2.16H351.6A10.45,10.45,0,0,0,349.34,252.27Z"/><path class="cls-2" d="M396.59,277.43l-14.68-45.37h10.23L402.25,264h.12l10.24-31.9H422.9l-15.06,45.37Z"/><path class="cls-2" d="M427.09,253.89a15,15,0,0,1,8.77-9,18.72,18.72,0,0,1,7-1.24,19,19,0,0,1,7,1.24,15.4,15.4,0,0,1,5.37,3.49,15.56,15.56,0,0,1,3.43,5.47,20.27,20.27,0,0,1,1.21,7.15,20,20,0,0,1-1.21,7.11,15.62,15.62,0,0,1-3.43,5.44,15.06,15.06,0,0,1-5.37,3.46,19.38,19.38,0,0,1-7,1.21,19.13,19.13,0,0,1-7-1.21,15,15,0,0,1-5.33-3.46,15.49,15.49,0,0,1-3.44-5.44,20,20,0,0,1-1.2-7.11A20.27,20.27,0,0,1,427.09,253.89Zm8.2,11a10.51,10.51,0,0,0,1.3,3.37,6.9,6.9,0,0,0,2.45,2.38,7.41,7.41,0,0,0,3.81.89,7.59,7.59,0,0,0,3.85-.89,6.82,6.82,0,0,0,2.48-2.38,10.29,10.29,0,0,0,1.3-3.37,19.53,19.53,0,0,0,.38-3.84,20,20,0,0,0-.38-3.88,10,10,0,0,0-1.3-3.37,7.26,7.26,0,0,0-2.48-2.38,7.39,7.39,0,0,0-3.85-.92,7.22,7.22,0,0,0-3.81.92,7.34,7.34,0,0,0-2.45,2.38,10.16,10.16,0,0,0-1.3,3.37,20,20,0,0,0-.38,3.88A19.53,19.53,0,0,0,435.29,264.88Z"/><path class="cls-2" d="M476.09,232.06v45.37h-9V232.06Z"/><path class="cls-2" d="M506.53,277.43v-4.57h-.19a10.2,10.2,0,0,1-4.45,4.13,13.21,13.21,0,0,1-5.59,1.27,15.85,15.85,0,0,1-5.94-.95,8.59,8.59,0,0,1-3.66-2.71,10.52,10.52,0,0,1-1.87-4.25,26.55,26.55,0,0,1-.54-5.56V244.58h9v18.55a11.56,11.56,0,0,0,1.27,6.07c.85,1.34,2.35,2,4.52,2,2.45,0,4.23-.74,5.33-2.2s1.66-3.86,1.66-7.21V244.58h9v32.85Z"/><path class="cls-2" d="M531.63,244.58v4.57h.19a10.44,10.44,0,0,1,4.45-4.16,12.84,12.84,0,0,1,5.59-1.3,15.5,15.5,0,0,1,5.95,1,8.84,8.84,0,0,1,3.65,2.74,10.52,10.52,0,0,1,1.87,4.25,26.52,26.52,0,0,1,.55,5.56v20.21h-9V258.88c0-2.71-.42-4.74-1.27-6.07s-2.35-2-4.51-2c-2.46,0-4.24.74-5.34,2.2s-1.65,3.86-1.65,7.21v17.22h-9V244.58Z"/><path class="cls-2" d="M579.87,244.58v6h-6.61v16.27c0,1.53.25,2.55.76,3.05a4.4,4.4,0,0,0,3.05.77,13.74,13.74,0,0,0,1.46-.07,11.08,11.08,0,0,0,1.34-.19v7a22.83,22.83,0,0,1-2.55.26q-1.4.06-2.73.06a25.13,25.13,0,0,1-4-.29,9.44,9.44,0,0,1-3.31-1.11,5.86,5.86,0,0,1-2.25-2.35,8.4,8.4,0,0,1-.83-4V250.61h-5.46v-6h5.46v-9.85h9v9.85Z"/><path class="cls-2" d="M584.89,254.68a10.38,10.38,0,0,1,1.58-5.27A10.92,10.92,0,0,1,590,246a15.43,15.43,0,0,1,4.86-1.81,27.72,27.72,0,0,1,5.44-.54,35.82,35.82,0,0,1,5,.35A15.55,15.55,0,0,1,610,245.4a9.12,9.12,0,0,1,3.43,2.83,7.91,7.91,0,0,1,1.33,4.8v17.09a34.09,34.09,0,0,0,.26,4.26,7.54,7.54,0,0,0,.89,3.05h-9.15a13.63,13.63,0,0,1-.42-1.55,14.22,14.22,0,0,1-.22-1.63,11.65,11.65,0,0,1-5.08,3.12,20.53,20.53,0,0,1-6,.89,16.16,16.16,0,0,1-4.38-.57,10.1,10.1,0,0,1-3.56-1.78,8.25,8.25,0,0,1-2.38-3.05,10.2,10.2,0,0,1-.86-4.39,9.69,9.69,0,0,1,1-4.61A8.33,8.33,0,0,1,587.4,261a11.31,11.31,0,0,1,3.55-1.62,37.68,37.68,0,0,1,4-.85c1.36-.22,2.69-.39,4-.51a23.62,23.62,0,0,0,3.5-.58,5.93,5.93,0,0,0,2.41-1.11,2.42,2.42,0,0,0,.83-2.13,4.8,4.8,0,0,0-.48-2.32,3.46,3.46,0,0,0-1.27-1.33,5,5,0,0,0-1.84-.64,15.92,15.92,0,0,0-2.26-.16,6.86,6.86,0,0,0-4.19,1.15,5.08,5.08,0,0,0-1.78,3.81Zm20.84,6.67a4,4,0,0,1-1.43.8,13.73,13.73,0,0,1-1.84.47c-.66.13-1.35.24-2.07.32s-1.44.19-2.16.32a17.24,17.24,0,0,0-2,.51,5.9,5.9,0,0,0-1.72.86,4.05,4.05,0,0,0-1.17,1.36,4.36,4.36,0,0,0-.45,2.1,4.17,4.17,0,0,0,.45,2,3.38,3.38,0,0,0,1.2,1.31,5,5,0,0,0,1.78.66,11.16,11.16,0,0,0,2.1.2,8,8,0,0,0,4.13-.89,6,6,0,0,0,2.16-2.13,6.88,6.88,0,0,0,.86-2.51,16.54,16.54,0,0,0,.16-2Z"/><path class="cls-2" d="M631.4,244.58v6.1h.13a11.38,11.38,0,0,1,4.19-5.05,12.09,12.09,0,0,1,3-1.43,10.75,10.75,0,0,1,3.31-.51,7.09,7.09,0,0,1,2,.31v8.39c-.43-.08-.94-.15-1.53-.22a16.91,16.91,0,0,0-1.71-.09,9.65,9.65,0,0,0-4.2.82,7.32,7.32,0,0,0-2.76,2.26,9,9,0,0,0-1.5,3.34,18.46,18.46,0,0,0-.44,4.12v14.81h-9V244.58Z"/><path class="cls-2" d="M648.88,239.49v-7.43h9v7.43Zm9,5.09v32.85h-9V244.58Z"/><path class="cls-2" d="M666.29,253.89a15,15,0,0,1,8.77-9,18.72,18.72,0,0,1,7-1.24,19,19,0,0,1,7,1.24,15.4,15.4,0,0,1,5.37,3.49,15.56,15.56,0,0,1,3.43,5.47,20.27,20.27,0,0,1,1.2,7.15,20,20,0,0,1-1.2,7.11,15.62,15.62,0,0,1-3.43,5.44,15.06,15.06,0,0,1-5.37,3.46,19.38,19.38,0,0,1-7,1.21,19.13,19.13,0,0,1-7-1.21,15.11,15.11,0,0,1-5.34-3.46,15.62,15.62,0,0,1-3.43-5.44,20,20,0,0,1-1.21-7.11A20.27,20.27,0,0,1,666.29,253.89Zm8.2,11a10.29,10.29,0,0,0,1.3,3.37,6.9,6.9,0,0,0,2.45,2.38,7.41,7.41,0,0,0,3.81.89,7.59,7.59,0,0,0,3.85-.89,6.82,6.82,0,0,0,2.48-2.38,10.51,10.51,0,0,0,1.3-3.37,19.53,19.53,0,0,0,.38-3.84,20,20,0,0,0-.38-3.88,10.16,10.16,0,0,0-1.3-3.37,7.26,7.26,0,0,0-2.48-2.38,7.39,7.39,0,0,0-3.85-.92,7.22,7.22,0,0,0-3.81.92,7.34,7.34,0,0,0-2.45,2.38,10,10,0,0,0-1.3,3.37,20,20,0,0,0-.38,3.88A19.53,19.53,0,0,0,674.49,264.88Z"/><path class="cls-2" d="M713.6,269.27a5.35,5.35,0,0,0,1.56,1.71,6.63,6.63,0,0,0,2.19,1,10.48,10.48,0,0,0,2.58.32,9.6,9.6,0,0,0,2-.23,6.6,6.6,0,0,0,1.91-.7,4.35,4.35,0,0,0,1.43-1.27,3.33,3.33,0,0,0,.57-2c0-1.35-.9-2.37-2.7-3a53,53,0,0,0-7.53-2c-1.32-.3-2.6-.65-3.85-1.05a13.06,13.06,0,0,1-3.34-1.59,7.84,7.84,0,0,1-2.35-2.48,7,7,0,0,1-.89-3.65,9.92,9.92,0,0,1,1.24-5.21,9.09,9.09,0,0,1,3.28-3.21,14.22,14.22,0,0,1,4.57-1.66,28.93,28.93,0,0,1,5.21-.47,25.93,25.93,0,0,1,5.18.51,13.83,13.83,0,0,1,4.48,1.71,10.36,10.36,0,0,1,3.28,3.21,10.91,10.91,0,0,1,1.55,5h-8.58a3.92,3.92,0,0,0-2-3.52,8.9,8.9,0,0,0-4.19-.93c-.51,0-1.06,0-1.65.1a5.35,5.35,0,0,0-1.62.41,3.36,3.36,0,0,0-1.24.92,2.72,2.72,0,0,0,.38,3.6,6.77,6.77,0,0,0,2.32,1.23,27.37,27.37,0,0,0,3.27.86c1.23.26,2.48.53,3.75.83s2.59.66,3.84,1.08a12.46,12.46,0,0,1,3.34,1.68A8.16,8.16,0,0,1,734,263a7.68,7.68,0,0,1,.89,3.84,9.95,9.95,0,0,1-4.7,9,14,14,0,0,1-4.8,1.88,28,28,0,0,1-5.5.54,27.33,27.33,0,0,1-5.59-.57,14.74,14.74,0,0,1-4.86-1.91,10.44,10.44,0,0,1-5-9H713A5,5,0,0,0,713.6,269.27Z"/></svg>