<svg id="Layer_1" data-name="Layer 1" xmlns="http://www.w3.org/2000/svg" viewBox="0 0 756 333"><defs><style>.cls-1{fill:#00a09d;}.cls-2{fill:#00837f;}.cls-3{fill:#6a6c6c;}</style></defs><title>imago-ayni-color</title><rect class="cls-1" x="128.12" y="123.51" width="68.61" height="68.6"/><rect class="cls-1" x="42.94" y="126.15" width="63.33" height="63.32"/><rect class="cls-1" x="216.32" y="126.15" width="63.32" height="63.32"/><rect class="cls-1" x="130.76" y="37.57" width="63.32" height="63.32"/><rect class="cls-1" x="130.76" y="215.48" width="63.32" height="63.32"/><rect class="cls-1" x="216.32" y="51.14" width="49.37" height="49.75"/><rect class="cls-1" x="56.88" y="51.14" width="49.38" height="49.75"/><rect class="cls-1" x="56.88" y="215.48" width="49.38" height="49.75"/><rect class="cls-1" x="216.32" y="215.48" width="49.37" height="49.75"/><path class="cls-2" d="M349.15,43.62c1.78-.25,3.48-.45,5.09-.57s3.39-.19,5.34-.19c1.69,0,3.34.06,4.95.19s3.39.32,5.34.57L398.47,135a69.92,69.92,0,0,1-10.17.77,56.88,56.88,0,0,1-9.4-.77l-5.09-18.3H343.56L338.35,135a53.2,53.2,0,0,1-8.77.77,56.23,56.23,0,0,1-9.28-.77Zm20.34,57.7L358.94,62.94l-11.06,38.38Z"/><path class="cls-2" d="M399.61,69.29a29.58,29.58,0,0,1,5.15-.7c1.48,0,2.86-.06,4.13-.06,1.69,0,3.43,0,5.21.13a27.09,27.09,0,0,1,4.83.63l13.73,57.33,15.5-57.33a49.09,49.09,0,0,1,8.65-.76c1.27,0,2.62,0,4.06.06a34.42,34.42,0,0,1,5.34.7l-24.53,81.22a31.85,31.85,0,0,1-3.62,8,17.28,17.28,0,0,1-4.77,4.95,16.83,16.83,0,0,1-6,2.48,34.12,34.12,0,0,1-7.12.7,43,43,0,0,1-6.42-.44,52.11,52.11,0,0,1-5.65-1.21,5.23,5.23,0,0,1-.13-1.08V163a23.08,23.08,0,0,1,.7-5.79,41.11,41.11,0,0,1,1.72-5.27,20.75,20.75,0,0,0,3.05.7,23.32,23.32,0,0,0,3.81.32,26,26,0,0,0,3.05-.19,7.06,7.06,0,0,0,3-1.15,9.45,9.45,0,0,0,2.73-3,22.35,22.35,0,0,0,2.29-5.72L430.5,135c-.94.09-2,.15-3.12.2s-2.31.06-3.49.06h-2.67a9.43,9.43,0,0,1-2.29-.26Z"/><path class="cls-2" d="M476.13,69.29c1.18-.25,2.37-.44,3.55-.57a36.5,36.5,0,0,1,3.94-.19,33.24,33.24,0,0,1,3.82.19c1.1.13,2.24.32,3.43.57a7.49,7.49,0,0,1,.7,1.85c.21.8.4,1.65.57,2.54s.32,1.76.44,2.6.24,1.57.32,2.17A30.18,30.18,0,0,1,496,74.63a22.15,22.15,0,0,1,4.13-3.43,22.52,22.52,0,0,1,5.28-2.48,21,21,0,0,1,6.48-1q11.19,0,16.84,6.1t5.66,19.19V135a53.28,53.28,0,0,1-18.05,0V97.89q0-6.86-2.1-10.55c-1.4-2.45-3.83-3.68-7.31-3.68a16.64,16.64,0,0,0-4.44.63,9.39,9.39,0,0,0-4.14,2.48,13.36,13.36,0,0,0-3,5.15,26.73,26.73,0,0,0-1.15,8.64V135a53.22,53.22,0,0,1-18,0Z"/><path class="cls-2" d="M554.29,83h-8.51a28.22,28.22,0,0,1-.58-3.49c-.12-1.23-.19-2.4-.19-3.5a29.84,29.84,0,0,1,.77-6.74H572V135a54,54,0,0,1-8.9.77,53.2,53.2,0,0,1-8.77-.77Zm-2.67-24.78a48.78,48.78,0,0,1-.76-8.52,50.15,50.15,0,0,1,.76-8.51c1.44-.26,3-.45,4.64-.58s3.16-.19,4.51-.19,3,.07,4.71.19a46.79,46.79,0,0,1,4.7.58,39.66,39.66,0,0,1,.51,4.25q.12,2.1.12,4.26c0,1.36,0,2.75-.12,4.2a39.73,39.73,0,0,1-.51,4.32,37.91,37.91,0,0,1-4.64.5c-1.65.09-3.2.13-4.64.13s-2.88,0-4.58-.13A38.08,38.08,0,0,1,551.62,58.24Z"/><path class="cls-3" d="M322.68,207.21a7.26,7.26,0,0,0,2.19,2.58,9.45,9.45,0,0,0,3.21,1.46,15.09,15.09,0,0,0,3.82.48,19.6,19.6,0,0,0,2.85-.23,9.68,9.68,0,0,0,2.86-.85,6.32,6.32,0,0,0,2.23-1.75,4.41,4.41,0,0,0,.89-2.83,4,4,0,0,0-1.18-3,9.34,9.34,0,0,0-3.08-1.9,30.3,30.3,0,0,0-4.32-1.34q-2.41-.57-4.89-1.27a41.42,41.42,0,0,1-5-1.56,16.7,16.7,0,0,1-4.32-2.38A11.14,11.14,0,0,1,314.9,191a11,11,0,0,1-1.18-5.31,12,12,0,0,1,1.49-6.07,13.72,13.72,0,0,1,3.91-4.29,17.06,17.06,0,0,1,5.47-2.54,23.22,23.22,0,0,1,6.1-.83,28.84,28.84,0,0,1,6.83.8,17.11,17.11,0,0,1,5.81,2.57,13,13,0,0,1,4,4.55,14,14,0,0,1,1.49,6.7H339.2a8.1,8.1,0,0,0-.85-3.37,5.59,5.59,0,0,0-1.94-2.09,8.18,8.18,0,0,0-2.77-1.08,16.44,16.44,0,0,0-3.4-.32,11.6,11.6,0,0,0-2.41.25,6.44,6.44,0,0,0-2.19.89,5.46,5.46,0,0,0-1.62,1.59,4.22,4.22,0,0,0-.64,2.41,4.1,4.1,0,0,0,.51,2.17,4.47,4.47,0,0,0,2,1.52,25.29,25.29,0,0,0,4.13,1.4q2.64.7,6.9,1.78c.84.17,2,.47,3.52.92a17.08,17.08,0,0,1,4.48,2.13,13.42,13.42,0,0,1,3.85,3.91,11.11,11.11,0,0,1,1.62,6.26,14,14,0,0,1-1.21,5.78,12.48,12.48,0,0,1-3.59,4.61,17.33,17.33,0,0,1-5.91,3,27.93,27.93,0,0,1-8.17,1.08,28.8,28.8,0,0,1-7.27-.92,18.32,18.32,0,0,1-6.23-2.9,14.21,14.21,0,0,1-4.29-5,15,15,0,0,1-1.53-7.24h9.66A8.29,8.29,0,0,0,322.68,207.21Z"/><path class="cls-3" d="M366.08,210.52a9.24,9.24,0,0,0,10.55.6,5.65,5.65,0,0,0,2.42-2.89H387q-1.9,5.91-5.84,8.45a17.2,17.2,0,0,1-9.54,2.55,18.92,18.92,0,0,1-7-1.24,14.69,14.69,0,0,1-5.27-3.53A16,16,0,0,1,356,209a20,20,0,0,1-1.17-7,19.29,19.29,0,0,1,1.2-6.86,15.92,15.92,0,0,1,8.74-9.15,17,17,0,0,1,6.83-1.34,15.61,15.61,0,0,1,7.31,1.62,14.75,14.75,0,0,1,5.12,4.36,18.09,18.09,0,0,1,2.89,6.23,23.22,23.22,0,0,1,.63,7.3h-23.7Q364.06,208.56,366.08,210.52Zm10.2-17.29a6.35,6.35,0,0,0-4.92-1.78,7.93,7.93,0,0,0-3.59.73,6.92,6.92,0,0,0-2.29,1.82,6.81,6.81,0,0,0-1.21,2.28,10.5,10.5,0,0,0-.41,2.16h14.68A10.44,10.44,0,0,0,376.28,193.23Z"/><path class="cls-3" d="M403.26,173V218.4h-9V173Z"/><path class="cls-3" d="M421.12,210.52a9.24,9.24,0,0,0,10.55.6,5.62,5.62,0,0,0,2.41-2.89H442c-1.28,3.94-3.22,6.76-5.85,8.45a17.19,17.19,0,0,1-9.53,2.55,18.84,18.84,0,0,1-7-1.24,14.64,14.64,0,0,1-5.28-3.53A16,16,0,0,1,411,209a20,20,0,0,1-1.17-7,19.07,19.07,0,0,1,1.21-6.86,15.86,15.86,0,0,1,8.73-9.15,17.07,17.07,0,0,1,6.84-1.34,15.66,15.66,0,0,1,7.31,1.62,14.72,14.72,0,0,1,5.11,4.36,17.73,17.73,0,0,1,2.89,6.23,23.22,23.22,0,0,1,.64,7.3H418.89Q419.09,208.56,421.12,210.52Zm10.2-17.29a6.38,6.38,0,0,0-4.93-1.78,7.93,7.93,0,0,0-3.59.73,7,7,0,0,0-2.29,1.82,6.6,6.6,0,0,0-1.2,2.28,10.58,10.58,0,0,0-.42,2.16h14.68A10.44,10.44,0,0,0,431.32,193.23Z"/><path class="cls-3" d="M464.71,191.45a6.3,6.3,0,0,0-3.62,1,7.83,7.83,0,0,0-2.38,2.54,11,11,0,0,0-1.31,3.43,18.94,18.94,0,0,0-.38,3.72,18.11,18.11,0,0,0,.38,3.62,11.48,11.48,0,0,0,1.24,3.34,7.34,7.34,0,0,0,2.32,2.45,6.43,6.43,0,0,0,3.56,1,6.61,6.61,0,0,0,5-1.81,8.5,8.5,0,0,0,2.19-4.86h8.71q-.89,6.54-5.08,10a16.41,16.41,0,0,1-10.74,3.44,18.09,18.09,0,0,1-6.77-1.24,15,15,0,0,1-5.25-3.47,15.68,15.68,0,0,1-3.36-5.3,18.32,18.32,0,0,1-1.21-6.77,22,22,0,0,1,1.11-7.09,15.84,15.84,0,0,1,3.27-5.65,15,15,0,0,1,5.28-3.72,17.9,17.9,0,0,1,7.12-1.34,20.55,20.55,0,0,1,5.62.77,15,15,0,0,1,4.83,2.32,12,12,0,0,1,5,9.37h-8.83Q470.49,191.46,464.71,191.45Z"/><path class="cls-3" d="M502.27,191.45a6.3,6.3,0,0,0-3.62,1,7.86,7.86,0,0,0-2.39,2.54,11.24,11.24,0,0,0-1.3,3.43,18.94,18.94,0,0,0-.38,3.72,18.11,18.11,0,0,0,.38,3.62,11.48,11.48,0,0,0,1.24,3.34,7.24,7.24,0,0,0,2.32,2.45,6.43,6.43,0,0,0,3.56,1,6.61,6.61,0,0,0,5-1.81,8.64,8.64,0,0,0,2.19-4.86H518q-.9,6.54-5.09,10a16.38,16.38,0,0,1-10.74,3.44,18.07,18.07,0,0,1-6.76-1.24,15,15,0,0,1-5.25-3.47,15.85,15.85,0,0,1-3.37-5.3,18.52,18.52,0,0,1-1.2-6.77,22,22,0,0,1,1.11-7.09,15.84,15.84,0,0,1,3.27-5.65,15,15,0,0,1,5.28-3.72,17.89,17.89,0,0,1,7.11-1.34,20.57,20.57,0,0,1,5.63.77,15,15,0,0,1,4.83,2.32,12,12,0,0,1,5,9.37h-8.84Q508.06,191.46,502.27,191.45Z"/><path class="cls-3" d="M524.38,180.46V173h9v7.44Zm9,5.08V218.4h-9V185.54Z"/><path class="cls-3" d="M541.8,194.85a15,15,0,0,1,8.77-9,18.84,18.84,0,0,1,7-1.24,19.16,19.16,0,0,1,7,1.24,15,15,0,0,1,8.8,9,20.09,20.09,0,0,1,1.21,7.15,19.81,19.81,0,0,1-1.21,7.12,15.34,15.34,0,0,1-3.43,5.43,14.91,14.91,0,0,1-5.37,3.47,19.58,19.58,0,0,1-7,1.21,19.26,19.26,0,0,1-7-1.21,15,15,0,0,1-5.34-3.47,15.34,15.34,0,0,1-3.43-5.43,19.81,19.81,0,0,1-1.21-7.12A20.09,20.09,0,0,1,541.8,194.85Zm8.2,11a10.07,10.07,0,0,0,1.3,3.37,7,7,0,0,0,2.44,2.38,7.52,7.52,0,0,0,3.82.89,7.68,7.68,0,0,0,3.84-.89,6.83,6.83,0,0,0,2.48-2.38,10.29,10.29,0,0,0,1.3-3.37,18.83,18.83,0,0,0,.38-3.85,19.24,19.24,0,0,0-.38-3.87,9.87,9.87,0,0,0-1.3-3.37,7.17,7.17,0,0,0-2.48-2.38,7.38,7.38,0,0,0-3.84-.93,7.23,7.23,0,0,0-3.82.93,7.31,7.31,0,0,0-2.44,2.38,9.67,9.67,0,0,0-1.3,3.37,19.25,19.25,0,0,0-.39,3.87A18.83,18.83,0,0,0,550,205.85Zm9.53-37.34-6.74,11.25h6.29l10.36-11.25Z"/><path class="cls-3" d="M590.09,185.54v4.58h.2a10.31,10.31,0,0,1,4.44-4.16,12.9,12.9,0,0,1,5.6-1.31,15.28,15.28,0,0,1,5.94,1,8.91,8.91,0,0,1,3.65,2.73,10.64,10.64,0,0,1,1.88,4.26,26.48,26.48,0,0,1,.54,5.56V218.4h-9V199.84a11.51,11.51,0,0,0-1.27-6.07q-1.27-2-4.51-2-3.69,0-5.34,2.19c-1.1,1.47-1.65,3.87-1.65,7.22V218.4h-9V185.54Z"/><path class="cls-3" d="M662.35,214.21a9.36,9.36,0,0,1-4.16,3.84,13.94,13.94,0,0,1-5.82,1.18,14.09,14.09,0,0,1-6.48-1.43,13.17,13.17,0,0,1-4.61-3.88,17.66,17.66,0,0,1-2.73-5.63,23.7,23.7,0,0,1-.92-6.6,22.29,22.29,0,0,1,.92-6.39,16.51,16.51,0,0,1,2.73-5.43,13.26,13.26,0,0,1,10.9-5.22,13,13,0,0,1,5.56,1.24,9.75,9.75,0,0,1,4.17,3.66H662V173h9V218.4h-8.58v-4.19ZM662,198a9.83,9.83,0,0,0-1.3-3.31,7.46,7.46,0,0,0-2.39-2.32,7,7,0,0,0-3.68-.89,7.33,7.33,0,0,0-3.75.89,7,7,0,0,0-2.45,2.36,10.29,10.29,0,0,0-1.33,3.33,17.82,17.82,0,0,0-.42,3.91,16.52,16.52,0,0,0,.45,3.81,10.17,10.17,0,0,0,1.43,3.4,7.85,7.85,0,0,0,2.48,2.42,6.72,6.72,0,0,0,3.59.92,7.15,7.15,0,0,0,3.71-.89,6.81,6.81,0,0,0,2.39-2.38,11,11,0,0,0,1.27-3.4,20.41,20.41,0,0,0,.38-3.94A19.87,19.87,0,0,0,662,198Z"/><path class="cls-3" d="M688.6,210.52a9.24,9.24,0,0,0,10.55.6,5.67,5.67,0,0,0,2.41-2.89h7.94q-1.9,5.91-5.84,8.45a17.2,17.2,0,0,1-9.54,2.55,18.92,18.92,0,0,1-7-1.24,14.69,14.69,0,0,1-5.27-3.53,16,16,0,0,1-3.34-5.47,20,20,0,0,1-1.17-7,19.07,19.07,0,0,1,1.21-6.86,16,16,0,0,1,3.43-5.5,16.24,16.24,0,0,1,5.3-3.65,17,17,0,0,1,6.83-1.34,15.61,15.61,0,0,1,7.31,1.62,14.75,14.75,0,0,1,5.12,4.36,17.91,17.91,0,0,1,2.89,6.23,23.22,23.22,0,0,1,.64,7.3H686.37Q686.57,208.56,688.6,210.52Zm10.2-17.29a6.38,6.38,0,0,0-4.93-1.78,7.93,7.93,0,0,0-3.59.73A6.92,6.92,0,0,0,688,194a6.6,6.6,0,0,0-1.2,2.28,9.94,9.94,0,0,0-.42,2.16h14.68A10.44,10.44,0,0,0,698.8,193.23Z"/><path class="cls-3" d="M325.1,277.43l-14.68-45.37h10.23l10.1,31.9h.13l10.23-31.9h10.3l-15.06,45.37Z"/><path class="cls-3" d="M355.6,253.89a15,15,0,0,1,8.77-9,20.41,20.41,0,0,1,14,0,15.22,15.22,0,0,1,5.37,3.49,15.44,15.44,0,0,1,3.44,5.47,20.27,20.27,0,0,1,1.2,7.15,20,20,0,0,1-1.2,7.11,15.49,15.49,0,0,1-3.44,5.44,14.89,14.89,0,0,1-5.37,3.46,20.88,20.88,0,0,1-14,0,15.11,15.11,0,0,1-5.34-3.46,15.62,15.62,0,0,1-3.43-5.44,20,20,0,0,1-1.21-7.11A20.27,20.27,0,0,1,355.6,253.89Zm8.2,11a10.29,10.29,0,0,0,1.3,3.37,6.9,6.9,0,0,0,2.45,2.38,7.41,7.41,0,0,0,3.81.89,7.59,7.59,0,0,0,3.85-.89,6.9,6.9,0,0,0,2.48-2.38,10.51,10.51,0,0,0,1.3-3.37,19.53,19.53,0,0,0,.38-3.84,20,20,0,0,0-.38-3.88,10.16,10.16,0,0,0-1.3-3.37,7.06,7.06,0,0,0-6.33-3.3,7.22,7.22,0,0,0-3.81.92,7.34,7.34,0,0,0-2.45,2.38,10,10,0,0,0-1.3,3.37,20,20,0,0,0-.38,3.88A19.53,19.53,0,0,0,363.8,264.88Z"/><path class="cls-3" d="M404.6,232.06v45.37h-9V232.06Z"/><path class="cls-3" d="M435,277.43v-4.57h-.19A10.25,10.25,0,0,1,430.4,277a13.24,13.24,0,0,1-5.59,1.27,15.85,15.85,0,0,1-5.94-.95,8.59,8.59,0,0,1-3.66-2.71,10.52,10.52,0,0,1-1.87-4.25,26.55,26.55,0,0,1-.54-5.56V244.58h9v18.55q0,4.08,1.27,6.07t4.51,2c2.46,0,4.24-.74,5.34-2.2s1.65-3.86,1.65-7.21V244.58h9v32.85Z"/><path class="cls-3" d="M460.14,244.58v4.57h.19a10.39,10.39,0,0,1,4.45-4.16,12.81,12.81,0,0,1,5.59-1.3,15.41,15.41,0,0,1,5.94,1,8.81,8.81,0,0,1,3.66,2.74,10.52,10.52,0,0,1,1.87,4.25,26.55,26.55,0,0,1,.54,5.56v20.21h-9V258.88a11.58,11.58,0,0,0-1.27-6.07q-1.27-2-4.51-2c-2.46,0-4.24.74-5.34,2.2s-1.66,3.86-1.66,7.21v17.22h-9V244.58Z"/><path class="cls-3" d="M508.37,244.58v6h-6.61v16.27a3.07,3.07,0,0,0,3.82,3.82,13.74,13.74,0,0,0,1.46-.07,10.92,10.92,0,0,0,1.33-.19v7a22.4,22.4,0,0,1-2.54.26q-1.4.06-2.73.06a25.13,25.13,0,0,1-4-.29,9.44,9.44,0,0,1-3.31-1.11,5.86,5.86,0,0,1-2.25-2.35,8.4,8.4,0,0,1-.83-4V250.61h-5.47v-6h5.47v-9.85h9v9.85Z"/><path class="cls-3" d="M513.39,254.68a10.48,10.48,0,0,1,1.59-5.27,10.82,10.82,0,0,1,3.56-3.37,15.43,15.43,0,0,1,4.86-1.81,27.65,27.65,0,0,1,5.44-.54,35.82,35.82,0,0,1,5,.35,15.55,15.55,0,0,1,4.64,1.36,9.2,9.2,0,0,1,3.43,2.83,7.91,7.91,0,0,1,1.33,4.8v17.09a34.09,34.09,0,0,0,.26,4.26,7.38,7.38,0,0,0,.89,3.05h-9.16a13.59,13.59,0,0,1-.41-1.55,14.22,14.22,0,0,1-.22-1.63,11.71,11.71,0,0,1-5.08,3.12,20.58,20.58,0,0,1-6,.89,16.11,16.11,0,0,1-4.38-.57,10,10,0,0,1-3.56-1.78,8.38,8.38,0,0,1-2.39-3.05,10.36,10.36,0,0,1-.85-4.39,9.57,9.57,0,0,1,1-4.61A8.4,8.4,0,0,1,515.9,261a11.47,11.47,0,0,1,3.56-1.62,37.68,37.68,0,0,1,4-.85c1.35-.22,2.69-.39,4-.51a23.84,23.84,0,0,0,3.5-.58,6,6,0,0,0,2.41-1.11,2.44,2.44,0,0,0,.83-2.13,4.8,4.8,0,0,0-.48-2.32,3.53,3.53,0,0,0-1.27-1.33,5,5,0,0,0-1.84-.64,15.92,15.92,0,0,0-2.26-.16,6.84,6.84,0,0,0-4.19,1.15,5.08,5.08,0,0,0-1.78,3.81Zm20.85,6.67a4,4,0,0,1-1.43.8,13.5,13.5,0,0,1-1.85.47c-.65.13-1.34.24-2.06.32s-1.44.19-2.16.32a16.74,16.74,0,0,0-2,.51,5.9,5.9,0,0,0-1.72.86,4,4,0,0,0-1.17,1.36,4.36,4.36,0,0,0-.45,2.1,4.17,4.17,0,0,0,.45,2,3.3,3.3,0,0,0,1.2,1.31,4.91,4.91,0,0,0,1.78.66,11.16,11.16,0,0,0,2.1.2,8,8,0,0,0,4.13-.89,6.12,6.12,0,0,0,2.16-2.13,6.88,6.88,0,0,0,.86-2.51,18.8,18.8,0,0,0,.16-2Z"/><path class="cls-3" d="M559.91,244.58v6.1H560a11,11,0,0,1,1.71-2.83,11.13,11.13,0,0,1,2.48-2.22,11.92,11.92,0,0,1,3-1.43,10.74,10.74,0,0,1,3.3-.51,7,7,0,0,1,2,.31v8.39c-.42-.08-.93-.15-1.52-.22a17.1,17.1,0,0,0-1.72-.09,9.6,9.6,0,0,0-4.19.82,7.35,7.35,0,0,0-2.77,2.26,9.17,9.17,0,0,0-1.49,3.34,17.89,17.89,0,0,0-.44,4.12v14.81h-9V244.58Z"/><path class="cls-3" d="M577.39,239.49v-7.43h9v7.43Zm9,5.09v32.85h-9V244.58Z"/><path class="cls-3" d="M594.8,253.89a15,15,0,0,1,8.77-9,18.72,18.72,0,0,1,7-1.24,18.91,18.91,0,0,1,7,1.24,14.92,14.92,0,0,1,8.8,9,20,20,0,0,1,1.21,7.15,19.75,19.75,0,0,1-1.21,7.11,15.33,15.33,0,0,1-3.43,5.44,14.89,14.89,0,0,1-5.37,3.46,19.33,19.33,0,0,1-7,1.21,19.13,19.13,0,0,1-7-1.21,14.94,14.94,0,0,1-5.34-3.46,15.47,15.47,0,0,1-3.43-5.44,20,20,0,0,1-1.21-7.11A20.27,20.27,0,0,1,594.8,253.89Zm8.2,11a10.29,10.29,0,0,0,1.3,3.37,6.82,6.82,0,0,0,2.45,2.38,7.38,7.38,0,0,0,3.81.89,7.59,7.59,0,0,0,3.85-.89,6.79,6.79,0,0,0,2.47-2.38,10.3,10.3,0,0,0,1.31-3.37,19.53,19.53,0,0,0,.38-3.84,20,20,0,0,0-.38-3.88,10,10,0,0,0-1.31-3.37,7.22,7.22,0,0,0-2.47-2.38,7.39,7.39,0,0,0-3.85-.92,7,7,0,0,0-6.26,3.3,10,10,0,0,0-1.3,3.37,19.27,19.27,0,0,0-.38,3.88A18.8,18.8,0,0,0,603,264.88Z"/><path class="cls-3" d="M642.11,269.27a5.13,5.13,0,0,0,1.56,1.71,6.63,6.63,0,0,0,2.19,1,10.48,10.48,0,0,0,2.58.32,9.6,9.6,0,0,0,2-.23,6.43,6.43,0,0,0,1.9-.7,4.16,4.16,0,0,0,1.43-1.27,3.27,3.27,0,0,0,.58-2c0-1.35-.9-2.37-2.7-3a53.17,53.17,0,0,0-7.54-2q-2-.45-3.84-1.05a13.06,13.06,0,0,1-3.34-1.59,7.73,7.73,0,0,1-2.35-2.48,7,7,0,0,1-.89-3.65,9.92,9.92,0,0,1,1.24-5.21,9.14,9.14,0,0,1,3.27-3.21,14.28,14.28,0,0,1,4.58-1.66,28.85,28.85,0,0,1,5.21-.47,25.93,25.93,0,0,1,5.18.51,13.83,13.83,0,0,1,4.48,1.71,10.43,10.43,0,0,1,3.27,3.21,10.79,10.79,0,0,1,1.56,5H653.9a3.94,3.94,0,0,0-2-3.52,8.9,8.9,0,0,0-4.19-.93c-.51,0-1.06,0-1.66.1a5.51,5.51,0,0,0-1.62.41,3.53,3.53,0,0,0-1.24.92,2.52,2.52,0,0,0-.5,1.63,2.46,2.46,0,0,0,.89,2,6.77,6.77,0,0,0,2.32,1.23,27.37,27.37,0,0,0,3.27.86c1.23.26,2.48.53,3.75.83s2.59.66,3.84,1.08a12.61,12.61,0,0,1,3.34,1.68,8.16,8.16,0,0,1,2.35,2.61,7.68,7.68,0,0,1,.89,3.84,9.95,9.95,0,0,1-4.7,9,14,14,0,0,1-4.8,1.88,28,28,0,0,1-5.5.54,27.33,27.33,0,0,1-5.59-.57,14.74,14.74,0,0,1-4.86-1.91,10.44,10.44,0,0,1-5-9h8.58A5,5,0,0,0,642.11,269.27Z"/></svg>