<svg id="Layer_1" data-name="Layer 1" xmlns="http://www.w3.org/2000/svg" viewBox="0 0 700 225"><defs><style>.cls-1{fill:#fff;}.cls-2{fill:#f7e200;}.cls-3{fill:#b29c00;}</style></defs><title>imagotipo-aysana-blanco</title><path class="cls-1" d="M234.84,69.25,257.4,135.2a6.77,6.77,0,0,1,.31,1.85c0,1.44-1.54,2.26-5.13,2.26h-4.51c-3,0-5.23-.52-5.74-2.16l-4.11-12.51H214l-4.1,12.51c-.52,1.54-2.26,2.16-4.72,2.16h-4.11c-4.3,0-6.25-.82-6.25-2.26a7.46,7.46,0,0,1,.41-1.85l22.56-65.95c.62-1.64,2.87-2.15,5.85-2.15H229C232,67.1,234.22,67.61,234.84,69.25Zm-8.82,17a38,38,0,0,1-1.54,6.56l-6,18.26h15.38L228,92.84a50.2,50.2,0,0,1-1.54-6.56Z"/><path class="cls-1" d="M306.63,87.51a7.11,7.11,0,0,1-.3,1.85l-23.49,68.72c-.62,1.64-2.77,2.15-5.74,2.15h-1.75c-4.2,0-6.15-.82-6.15-2.15a4.61,4.61,0,0,1,.41-1.85l6.46-17.13L259.14,89.36a7.94,7.94,0,0,1-.41-1.85c0-1.44,1.95-2.26,6.26-2.26h3.28c3,0,5.24.52,5.75,2.16l6.05,19c.72,2.36,1.95,8,2.87,12.41h.41c.92-4.41,2.16-10.15,2.87-12.41l6-19c.52-1.64,2.77-2.16,5.75-2.16h2.46C304.79,85.25,306.63,86.07,306.63,87.51Z"/><path class="cls-1" d="M345.51,90.59c0,2.25-2.47,8.1-4.42,8.1-1.12,0-4-2.15-8.82-2.15-3.38,0-5.43,1-5.43,3.59,0,4.51,6.15,5.53,11.59,8.1,4.61,2.26,8.92,6,8.92,14.15,0,10.47-7.28,17.54-20.1,17.54-7.69,0-17-2.56-17-7,0-2.67,3.39-7.9,5.44-7.9,1.54,0,4.92,2.87,10.36,2.87,3.89,0,6-1.54,6-4.31,0-3.89-4.21-4.92-8.83-6.77-5-1.94-11.69-5.12-11.69-15.38,0-10.67,7.28-16.82,18.67-16.82C336.07,84.64,345.51,86.28,345.51,90.59Z"/><path class="cls-1" d="M398.33,101.77v19.28c0,10.56,1.23,12.72,1.23,14.87,0,2.46-8.93,3.28-11.49,3.28-3.28,0-3.49-4.3-4.1-7.07a17.87,17.87,0,0,1-15.08,7.79c-11.08,0-15.18-6.56-15.18-15s3.38-19.08,29.43-19.08v-3.38c0-3.9-2.35-5.85-8-5.85-7.48,0-11.89,3.28-13.12,3.28-2.16,0-5.34-6-5.34-8.2,0-3.49,8.21-7.08,19.59-7.08C392.48,84.64,398.33,91.82,398.33,101.77Zm-29.54,21.64c0,2.56,1.74,4.51,5.12,4.51,3.9,0,7.59-2.77,9.23-6.46v-5.64C373.4,115.82,368.79,118.49,368.79,123.41Z"/><path class="cls-1" d="M456.38,101.25V136c0,2.16-1.85,3.29-6.16,3.29h-2.87c-4.31,0-6.15-1.13-6.15-3.29V103.51c0-4-1.64-6.36-6.16-6.36-4.2,0-7,3.59-8.2,5.95V136c0,2.16-1.85,3.29-6.16,3.29h-2.87c-4.31,0-6.15-1.13-6.15-3.29V103.51c0-10.26-1.23-12.41-1.23-14.46,0-2.46,8.92-3.28,11.48-3.28,3.29,0,3.49,4.1,4.11,6.66a19.94,19.94,0,0,1,15.28-7.79C451.56,84.64,456.38,89.87,456.38,101.25Z"/><path class="cls-1" d="M511.35,101.77v19.28c0,10.56,1.23,12.72,1.23,14.87,0,2.46-8.92,3.28-11.49,3.28-3.28,0-3.48-4.3-4.1-7.07a17.86,17.86,0,0,1-15.08,7.79c-11.07,0-15.18-6.56-15.18-15s3.39-19.08,29.44-19.08v-3.38c0-3.9-2.36-5.85-8-5.85-7.49,0-11.9,3.28-13.13,3.28-2.15,0-5.33-6-5.33-8.2,0-3.49,8.2-7.08,19.59-7.08C505.5,84.64,511.35,91.82,511.35,101.77Zm-29.54,21.64c0,2.56,1.74,4.51,5.13,4.51,3.9,0,7.59-2.77,9.23-6.46v-5.64C486.43,115.82,481.81,118.49,481.81,123.41Z"/><path class="cls-1" d="M222.1,189.67c0,11.11-5.85,15-13.2,15h-8.63c-.9,0-1.29-.39-1.29-1.28V176c0-.89.39-1.28,1.29-1.28h8.63C216.25,174.71,222.1,178.6,222.1,189.67ZM202.74,178v23.42h5.86c5.34,0,9.62-3.16,9.62-11.71S213.94,178,208.6,178Z"/><path class="cls-1" d="M245.65,193.18c0,.51-.9,1.75-1.41,1.75h-13.5c.34,4.74,2.35,6.88,6.58,6.88,3.72,0,5.81-1.8,6.24-1.8.6,0,1.49,1.67,1.49,2.14,0,1-3.37,2.74-7.69,2.74-7.09,0-10.47-3.64-10.47-11.29s3.42-11.58,10-11.58C242.7,182,245.65,185.91,245.65,193.18Zm-14.91-1.33h11.11c0-4.49-1.71-6.75-5.13-6.75C233,185.1,231,187.36,230.74,191.85Z"/><path class="cls-1" d="M255.73,177.79v4.49h3.6c.59,0,.85.38.85,1.28v.51c0,.9-.26,1.28-.85,1.28h-3.6v13.3c0,2.56,1.07,3.16,2.31,3.16a10.34,10.34,0,0,0,1.84-.21c.6,0,.9,1.66.9,2,0,1.16-2,1.29-3.12,1.29-2.14,0-5.52-.94-5.52-5.9V185.35H250c-.6,0-.86-.38-.86-1.28v-.51c0-.9.26-1.28.86-1.28h2.13l.52-4.49c0-.6.47-.94,1.36-.94h.43C255.35,176.85,255.73,177.19,255.73,177.79Z"/><path class="cls-1" d="M283.3,193.18c0,.51-.9,1.75-1.41,1.75H268.38c.35,4.74,2.35,6.88,6.59,6.88,3.71,0,5.81-1.8,6.24-1.8.59,0,1.49,1.67,1.49,2.14,0,1-3.37,2.74-7.69,2.74-7.1,0-10.47-3.64-10.47-11.29S268,182,274.5,182C280.35,182,283.3,185.91,283.3,193.18Zm-14.92-1.33H279.5c0-4.49-1.71-6.75-5.13-6.75C270.65,185.1,268.68,187.36,268.38,191.85Z"/><path class="cls-1" d="M304,184c0,.68-.81,2.3-1.36,2.3a2.56,2.56,0,0,1-.47-.17,11,11,0,0,0-4.66-1c-3.76,0-6.2,2.22-6.2,8.16s1.8,8.55,6.63,8.55a10.66,10.66,0,0,0,4.82-1.11c.26-.09.43-.17.47-.17.6,0,1.46,1.58,1.46,2.18,0,1-3,2.18-6.71,2.18-6.93,0-10.52-3.29-10.52-11.54,0-8.94,5.22-11.33,10.13-11.33C300.86,182,304,183,304,184Z"/><path class="cls-1" d="M324.71,184c0,.68-.81,2.3-1.37,2.3a3.24,3.24,0,0,1-.47-.17,11,11,0,0,0-4.66-1c-3.76,0-6.19,2.22-6.19,8.16s1.79,8.55,6.62,8.55a10.75,10.75,0,0,0,4.83-1.11c.26-.09.43-.17.47-.17.6,0,1.45,1.58,1.45,2.18,0,1-3,2.18-6.71,2.18-6.92,0-10.51-3.29-10.51-11.54,0-8.94,5.21-11.33,10.13-11.33C321.59,182,324.71,183,324.71,184Z"/><path class="cls-1" d="M334.32,173.43V176c0,.6-.51.94-1.71.94h-.51c-1.2,0-1.71-.34-1.71-.94v-2.52c0-.6.51-.94,1.71-.94h.51C333.81,172.49,334.32,172.83,334.32,173.43Zm-.17,9.7v20.64c0,.6-.51.95-1.71.95h-.17c-1.19,0-1.71-.35-1.71-.95V183.13c0-.6.52-.94,1.71-.94h.17C333.64,182.19,334.15,182.53,334.15,183.13Z"/><path class="cls-1" d="M360,193.56c0,7.39-3.34,11.33-9.71,11.33s-9.91-4-9.91-11.33S343.9,182,350.26,182,360,186.12,360,193.56Zm-15.86-.09c0,5.69,1.84,8.34,6,8.34s6.11-2.65,6.11-8.34-1.93-8.37-6.11-8.37S344.11,187.75,344.11,193.47Zm11.54-19.57c0,.47-.43.85-4,5a3,3,0,0,1-2.18.77c-.68,0-1-.13-1-.43s.51-1.33,2.48-4.74c.47-.82,1.28-1.12,2.65-1.12S355.65,173.47,355.65,173.9Z"/><path class="cls-1" d="M382.91,188.94v14.83c0,.6-.51.95-1.71.95H381c-1.19,0-1.71-.35-1.71-.95V189.29c0-2.61-1.58-4.15-4.35-4.15a7.14,7.14,0,0,0-5.39,3v15.64c0,.6-.51.95-1.71.95h-.17c-1.2,0-1.71-.35-1.71-.95v-15a25,25,0,0,0-.51-5.38c0-.81,1.75-1,2.3-1,1,0,1.24,1.71,1.5,2.83A9.2,9.2,0,0,1,376,182C380.31,182,382.91,184.63,382.91,188.94Z"/><path class="cls-1" d="M417,173.43V198.3a24.55,24.55,0,0,0,.52,5.39c0,.81-1.76,1-2.31,1-1,0-1.24-1.79-1.5-3a9.25,9.25,0,0,1-6.79,3.21c-5.13,0-8.29-4.79-8.29-11.42,0-7.43,3.58-11.45,8.67-11.45a9.38,9.38,0,0,1,6.11,2.18V173.43c0-.6.52-.94,1.71-.94h.17C416.46,172.49,417,172.83,417,173.43Zm-14.61,19.7c0,5.52,1.88,8.64,5.25,8.64a8.19,8.19,0,0,0,5.77-3V187.11a8,8,0,0,0-5.25-1.93C404.28,185.27,402.36,188.05,402.36,193.13Z"/><path class="cls-1" d="M441.63,193.18c0,.51-.9,1.75-1.41,1.75h-13.5c.34,4.74,2.35,6.88,6.58,6.88,3.72,0,5.81-1.8,6.24-1.8.6,0,1.49,1.67,1.49,2.14,0,1-3.37,2.74-7.69,2.74-7.09,0-10.47-3.64-10.47-11.29s3.42-11.58,10-11.58C438.68,182,441.63,185.91,441.63,193.18Zm-14.91-1.33h11.11c0-4.49-1.71-6.75-5.13-6.75C429,185.1,427,187.36,426.72,191.85Z"/><path class="cls-1" d="M474.41,188.94v14.83c0,.6-.51.95-1.71.95h-.17c-1.2,0-1.71-.35-1.71-.95V189.29c0-2.61-1.58-4.15-4.36-4.15a7.15,7.15,0,0,0-5.39,3v15.64c0,.6-.51.95-1.71.95h-.17c-1.19,0-1.71-.35-1.71-.95v-15a25,25,0,0,0-.51-5.38c0-.81,1.75-1,2.31-1,1,0,1.24,1.71,1.49,2.83a9.21,9.21,0,0,1,6.67-3.21C471.8,182,474.41,184.63,474.41,188.94Z"/><path class="cls-1" d="M498.72,193.18c0,.51-.89,1.75-1.41,1.75h-13.5c.34,4.74,2.35,6.88,6.58,6.88,3.72,0,5.81-1.8,6.24-1.8.6,0,1.5,1.67,1.5,2.14,0,1-3.38,2.74-7.7,2.74-7.09,0-10.47-3.64-10.47-11.29s3.42-11.58,10-11.58C495.77,182,498.72,185.91,498.72,193.18Zm-14.91-1.33h11.11c0-4.49-1.71-6.75-5.13-6.75C486.07,185.1,484.11,187.36,483.81,191.85Z"/><path class="cls-1" d="M519.41,184c0,.68-.81,2.3-1.37,2.3a2.86,2.86,0,0,1-.47-.17,11,11,0,0,0-4.66-1c-3.76,0-6.2,2.22-6.2,8.16s1.8,8.55,6.63,8.55a10.75,10.75,0,0,0,4.83-1.11c.26-.09.43-.17.47-.17.6,0,1.45,1.58,1.45,2.18,0,1-3,2.18-6.71,2.18-6.92,0-10.51-3.29-10.51-11.54,0-8.94,5.21-11.33,10.13-11.33C516.29,182,519.41,183,519.41,184Z"/><path class="cls-1" d="M542.48,193.18c0,.51-.89,1.75-1.41,1.75h-13.5c.34,4.74,2.35,6.88,6.58,6.88,3.72,0,5.81-1.8,6.24-1.8.6,0,1.5,1.67,1.5,2.14,0,1-3.38,2.74-7.7,2.74-7.09,0-10.47-3.64-10.47-11.29s3.42-11.58,10-11.58C539.53,182,542.48,185.91,542.48,193.18Zm-14.91-1.33h11.11c0-4.49-1.71-6.75-5.13-6.75C529.83,185.1,527.87,187.36,527.57,191.85Z"/><path class="cls-1" d="M559.15,183.81c0,.69-.81,2.31-1.37,2.31a8.28,8.28,0,0,0-3.89-1.11c-2.13,0-3.8,1-3.8,2.69,0,1.93.94,3,3.33,3.72,5.26,1.63,6.84,3,6.84,6.93S556.93,205,552.7,205c-3.89,0-6.8-1.7-6.8-2.69,0-.47.9-2.13,1.5-2.13a9.58,9.58,0,0,0,5,1.7c2.74,0,4.19-1.11,4.19-3.46,0-1.92-1.07-2.9-4.28-3.84-4.61-1.37-5.94-3.21-5.94-6.42,0-3.59,3-6.19,7.1-6.19C556.41,182,559.15,182.88,559.15,183.81Z"/><path class="cls-1" d="M569.7,173.43V176c0,.6-.51.94-1.71.94h-.51c-1.19,0-1.71-.34-1.71-.94v-2.52c0-.6.52-.94,1.71-.94H568C569.19,172.49,569.7,172.83,569.7,173.43Zm-.17,9.7v20.64c0,.6-.51.95-1.71.95h-.17c-1.19,0-1.71-.35-1.71-.95V183.13c0-.6.52-.94,1.71-.94h.17C569,182.19,569.53,182.53,569.53,183.13Z"/><path class="cls-1" d="M594,173.43V198.3a25,25,0,0,0,.51,5.39c0,.81-1.75,1-2.31,1-1,0-1.24-1.79-1.49-3a9.27,9.27,0,0,1-6.8,3.21c-5.13,0-8.29-4.79-8.29-11.42,0-7.43,3.59-11.45,8.68-11.45a9.4,9.4,0,0,1,6.11,2.18V173.43c0-.6.51-.94,1.71-.94h.17C593.47,172.49,594,172.83,594,173.43Zm-14.62,19.7c0,5.52,1.88,8.64,5.26,8.64a8.19,8.19,0,0,0,5.77-3V187.11a8,8,0,0,0-5.26-1.93C581.29,185.27,579.36,188.05,579.36,193.13Z"/><path class="cls-1" d="M617.4,188.73v9.57a25,25,0,0,0,.51,5.39c0,.81-1.75,1-2.31,1-1,0-1.24-1.79-1.49-3a9.42,9.42,0,0,1-7.18,3.21c-4.15,0-7.31-2-7.31-6.41,0-7.23,7.65-7.7,14.19-7.78v-2c0-1.93-1.16-3.59-4.7-3.59-3.89,0-6.24,1.79-6.67,1.79-.6,0-1.5-1.66-1.5-2.13,0-1.12,3.76-2.74,8-2.74C614.28,182,617.4,184.5,617.4,188.73Zm-13.94,9.53c0,2.27,1.24,3.51,3.64,3.51a9.39,9.39,0,0,0,6.71-3v-5C609.36,193.82,603.46,193.82,603.46,198.26Z"/><path class="cls-1" d="M641.41,173.43V198.3a24.55,24.55,0,0,0,.52,5.39c0,.81-1.75,1-2.31,1-1,0-1.24-1.79-1.5-3a9.25,9.25,0,0,1-6.79,3.21c-5.13,0-8.29-4.79-8.29-11.42,0-7.43,3.59-11.45,8.67-11.45a9.38,9.38,0,0,1,6.11,2.18V173.43c0-.6.52-.94,1.71-.94h.17C640.9,172.49,641.41,172.83,641.41,173.43Zm-14.61,19.7c0,5.52,1.88,8.64,5.25,8.64a8.19,8.19,0,0,0,5.77-3V187.11a8,8,0,0,0-5.25-1.93C628.72,185.27,626.8,188.05,626.8,193.13Z"/><path class="cls-1" d="M666.07,193.18c0,.51-.89,1.75-1.41,1.75h-13.5c.34,4.74,2.35,6.88,6.58,6.88,3.72,0,5.81-1.8,6.24-1.8.6,0,1.49,1.67,1.49,2.14,0,1-3.37,2.74-7.69,2.74-7.09,0-10.47-3.64-10.47-11.29s3.42-11.58,10-11.58C663.12,182,666.07,185.91,666.07,193.18Zm-14.91-1.33h11.11c0-4.49-1.71-6.75-5.13-6.75C653.42,185.1,651.46,187.36,651.16,191.85Z"/><path class="cls-1" d="M682.74,183.81c0,.69-.81,2.31-1.37,2.31a8.28,8.28,0,0,0-3.89-1.11c-2.13,0-3.8,1-3.8,2.69,0,1.93.94,3,3.33,3.72,5.26,1.63,6.84,3,6.84,6.93s-3.33,6.66-7.56,6.66c-3.89,0-6.8-1.7-6.8-2.69,0-.47.9-2.13,1.5-2.13a9.5,9.5,0,0,0,5,1.7c2.73,0,4.19-1.11,4.19-3.46,0-1.92-1.07-2.9-4.28-3.84-4.61-1.37-5.94-3.21-5.94-6.42,0-3.59,3-6.19,7.1-6.19C680,182,682.74,182.88,682.74,183.81Z"/><g id="gato"><path class="cls-1" d="M127.32,17.31l-17,29.45h-34l-17-29.45L17.05,164H169.74ZM76.08,86.07a9.72,9.72,0,1,1,9.72-9.71A9.71,9.71,0,0,1,76.08,86.07Zm34.38,0a9.72,9.72,0,1,1,9.72-9.71A9.71,9.71,0,0,1,110.46,86.07Z"/></g><g id="Libro"><polygon class="cls-2" points="178.31 85.83 93.31 134.82 93.31 208.31 178.31 159.32 178.31 85.83"/><polygon class="cls-3" points="8.31 85.83 93.31 134.82 93.31 208.31 8.31 159.32 8.31 85.83"/></g></svg>