<svg id="Layer_1" data-name="Layer 1" xmlns="http://www.w3.org/2000/svg" viewBox="0 0 700 225"><defs><style>.cls-1{fill:#5f5070;}.cls-2{fill:#9180b4;}</style></defs><title>imago-fondef-color</title><path class="cls-1" d="M269.94,83v4.92c0,5.55-1.43,7.94-4.76,7.94H230.25V119h33.82c3.33,0,4.76,2.38,4.76,7.94v4.92c0,5.56-1.43,7.94-4.76,7.94H230.25v41.6c0,3.34-2.86,5.08-9.53,5.08h-5.4c-6.67,0-9.53-1.74-9.53-5.08V81.4c0-4.45,1.91-6.35,6.35-6.35h53C268.51,75.05,269.94,77.43,269.94,83Z"/><path class="cls-1" d="M358.38,144.59c0,27.63-13.18,42.87-38.42,42.87s-38.59-15.24-38.59-42.87,13.34-42.71,38.59-42.71S358.38,117,358.38,144.59Zm-53.19,0c0,15.88,4.6,24.3,14.77,24.3s14.6-8.42,14.6-24.3-4.44-24.13-14.6-24.13S305.19,128.71,305.19,144.59Z"/><path class="cls-1" d="M444.12,127.6v53.83c0,3.34-2.86,5.08-9.53,5.08h-4.44c-6.67,0-9.53-1.74-9.53-5.08V131.1c0-6.2-2.54-9.85-9.53-9.85-6.51,0-10.79,5.56-12.7,9.21v51c0,3.34-2.86,5.08-9.53,5.08h-4.44c-6.67,0-9.53-1.74-9.53-5.08V131.1c0-15.88-1.9-19.22-1.9-22.39,0-3.81,13.81-5.08,17.78-5.08,5.08,0,5.4,6.35,6.35,10.32,4.61-6,13.34-12.07,23.66-12.07C436.66,101.88,444.12,110,444.12,127.6Z"/><path class="cls-1" d="M533.35,71.55v86.7c0,16.35,1.91,19.69,1.91,23,0,3.81-13.82,5.08-17.78,5.08-5.09,0-5.4-6.67-6.36-10.79-3.65,6.82-11.43,11.9-21.27,11.9-17.15,0-29.7-15.24-29.7-42.87,0-25.88,12.07-42.71,33.51-42.71a27.55,27.55,0,0,1,16.19,4.92V71.55c0-3.33,2.86-5.08,9.53-5.08h4.45C530.5,66.47,533.35,68.22,533.35,71.55Zm-49.38,73c0,15.41,4.13,23.66,12.86,23.66,6,0,10.17-4.44,13-9.37V123.47a22.2,22.2,0,0,0-11.11-3C488.74,120.46,484,128.71,484,144.59Z"/><path class="cls-1" d="M622.74,142.85c0,2.7-6,9.36-8.09,9.36H574.16c1.11,12.71,7.94,16.68,18.26,16.68,10,0,17-4.93,19.21-4.93,3.49,0,8.26,8.9,8.26,12.07,0,7.94-19.69,11.43-28.58,11.43-28.75,0-41.45-16.67-41.45-42.23,0-31.28,15.88-43.35,38.59-43.35C613.38,101.88,622.74,120.78,622.74,142.85Zm-48.58-6.35h25.72c0-9.21-3.49-16-11.43-16C581.78,120.46,576.06,124.27,574.16,136.5Z"/><path class="cls-1" d="M680.38,73.3c0,1.27-1.75,11.43-4.92,11.43-1.11,0-3.34-.63-4.93-.63-4.12,0-5.71,2.06-5.71,6.82v12.23h7.94c3.33,0,4.76,2.38,4.76,7.94v2.7c0,5.56-1.43,7.94-4.76,7.94h-7.94v59.7c0,3.34-2.86,5.08-9.53,5.08h-4.44c-6.67,0-9.53-1.74-9.53-5.08v-59.7h-2.86c-3.33,0-4.76-2.38-4.76-7.94v-2.7c0-5.56,1.43-7.94,4.76-7.94h2.86V91.24c0-17.62,8.26-25.72,23.18-25.72C669.58,65.52,680.38,66,680.38,73.3Z"/><g id="gato"><path class="cls-2" d="M125.74,45.08,109.35,73.46H76.57L60.18,45.08,15.62,199H171ZM76.36,111.35A9.37,9.37,0,1,1,85.72,102,9.36,9.36,0,0,1,76.36,111.35Zm33.13,0a9.37,9.37,0,1,1,9.36-9.37A9.36,9.36,0,0,1,109.49,111.35Z"/></g></svg>