<svg id="Layer_1" data-name="Layer 1" xmlns="http://www.w3.org/2000/svg" viewBox="0 0 700 225"><defs><style>.cls-1{fill:#5f5070;}.cls-2{fill:#9180b4;}.cls-3{fill:#8ddbfd;}.cls-4{fill:#6ba3bc;}</style></defs><title>imagotipo-aysana-color</title><path class="cls-1" d="M233.53,69.25l22.56,65.95a6.77,6.77,0,0,1,.31,1.85c0,1.44-1.54,2.26-5.13,2.26h-4.51c-3,0-5.23-.52-5.74-2.16l-4.11-12.51h-24.2l-4.11,12.51c-.51,1.54-2.25,2.16-4.71,2.16h-4.11c-4.3,0-6.25-.82-6.25-2.26a7.46,7.46,0,0,1,.41-1.85L216.5,69.25c.62-1.64,2.88-2.15,5.85-2.15h5.33C230.66,67.1,232.91,67.61,233.53,69.25Zm-8.82,17a38,38,0,0,1-1.54,6.56l-6,18.26H232.5l-5.84-18.26a50.2,50.2,0,0,1-1.54-6.56Z"/><path class="cls-1" d="M305.32,87.51a7.11,7.11,0,0,1-.3,1.85l-23.49,68.72c-.62,1.64-2.77,2.15-5.75,2.15H274c-4.2,0-6.15-.82-6.15-2.15a4.61,4.61,0,0,1,.41-1.85l6.46-17.13L257.83,89.36a7.94,7.94,0,0,1-.41-1.85c0-1.44,1.95-2.26,6.26-2.26H267c3,0,5.23.52,5.75,2.16l6.05,19c.72,2.36,1.95,8,2.87,12.41H282c.92-4.41,2.16-10.15,2.87-12.41l6-19c.52-1.64,2.77-2.16,5.75-2.16h2.46C303.48,85.25,305.32,86.07,305.32,87.51Z"/><path class="cls-1" d="M344.2,90.59c0,2.25-2.47,8.1-4.42,8.1-1.12,0-4-2.15-8.82-2.15-3.38,0-5.43,1-5.43,3.59,0,4.51,6.15,5.53,11.59,8.1,4.61,2.26,8.92,6,8.92,14.15,0,10.47-7.28,17.54-20.1,17.54-7.69,0-17-2.56-17-7,0-2.67,3.39-7.9,5.44-7.9,1.54,0,4.92,2.87,10.36,2.87,3.89,0,6-1.54,6-4.31,0-3.89-4.21-4.92-8.83-6.77-5-1.94-11.69-5.12-11.69-15.38,0-10.67,7.28-16.82,18.67-16.82C334.76,84.64,344.2,86.28,344.2,90.59Z"/><path class="cls-1" d="M397,101.77v19.28c0,10.56,1.23,12.72,1.23,14.87,0,2.46-8.93,3.28-11.49,3.28-3.28,0-3.49-4.3-4.1-7.07a17.87,17.87,0,0,1-15.08,7.79c-11.08,0-15.18-6.56-15.18-15s3.38-19.08,29.43-19.08v-3.38c0-3.9-2.35-5.85-8-5.85-7.48,0-11.89,3.28-13.12,3.28-2.16,0-5.34-6-5.34-8.2,0-3.49,8.21-7.08,19.59-7.08C391.17,84.64,397,91.82,397,101.77Zm-29.54,21.64c0,2.56,1.74,4.51,5.12,4.51,3.9,0,7.59-2.77,9.23-6.46v-5.64C372.09,115.82,367.48,118.49,367.48,123.41Z"/><path class="cls-1" d="M455.07,101.25V136c0,2.16-1.85,3.29-6.16,3.29H446c-4.31,0-6.15-1.13-6.15-3.29V103.51c0-4-1.64-6.36-6.16-6.36-4.2,0-7,3.59-8.2,5.95V136c0,2.16-1.85,3.29-6.16,3.29H416.5c-4.31,0-6.15-1.13-6.15-3.29V103.51c0-10.26-1.23-12.41-1.23-14.46,0-2.46,8.92-3.28,11.48-3.28,3.29,0,3.49,4.1,4.11,6.66A19.94,19.94,0,0,1,440,84.64C450.25,84.64,455.07,89.87,455.07,101.25Z"/><path class="cls-1" d="M510,101.77v19.28c0,10.56,1.23,12.72,1.23,14.87,0,2.46-8.92,3.28-11.49,3.28-3.28,0-3.48-4.3-4.1-7.07a17.86,17.86,0,0,1-15.08,7.79c-11.07,0-15.18-6.56-15.18-15s3.39-19.08,29.44-19.08v-3.38c0-3.9-2.36-5.85-8-5.85-7.49,0-11.9,3.28-13.13,3.28-2.15,0-5.33-6-5.33-8.2,0-3.49,8.2-7.08,19.59-7.08C504.19,84.64,510,91.82,510,101.77ZM480.5,123.41c0,2.56,1.74,4.51,5.13,4.51,3.9,0,7.59-2.77,9.23-6.46v-5.64C485.12,115.82,480.5,118.49,480.5,123.41Z"/><path class="cls-1" d="M220.8,189.67c0,11.11-5.86,15-13.21,15H199c-.9,0-1.29-.39-1.29-1.28V176c0-.89.39-1.28,1.29-1.28h8.63C214.94,174.71,220.8,178.6,220.8,189.67ZM201.43,178v23.42h5.86c5.34,0,9.62-3.16,9.62-11.71S212.63,178,207.29,178Z"/><path class="cls-1" d="M244.34,193.18c0,.51-.9,1.75-1.41,1.75h-13.5c.34,4.74,2.35,6.88,6.58,6.88,3.72,0,5.81-1.8,6.24-1.8.6,0,1.49,1.67,1.49,2.14,0,1-3.37,2.74-7.69,2.74-7.09,0-10.47-3.64-10.47-11.29S229,182,235.54,182C241.39,182,244.34,185.91,244.34,193.18Zm-14.91-1.33h11.11c0-4.49-1.71-6.75-5.13-6.75C231.69,185.1,229.72,187.36,229.43,191.85Z"/><path class="cls-1" d="M254.42,177.79v4.49H258c.59,0,.85.38.85,1.28v.51c0,.9-.26,1.28-.85,1.28h-3.6v13.3c0,2.56,1.07,3.16,2.31,3.16a10.34,10.34,0,0,0,1.84-.21c.6,0,.9,1.66.9,2,0,1.16-2,1.29-3.12,1.29-2.14,0-5.52-.94-5.52-5.9V185.35H248.7c-.6,0-.86-.38-.86-1.28v-.51c0-.9.26-1.28.86-1.28h2.13l.52-4.49c0-.6.47-.94,1.37-.94h.42C254,176.85,254.42,177.19,254.42,177.79Z"/><path class="cls-1" d="M282,193.18c0,.51-.9,1.75-1.41,1.75H267.07c.35,4.74,2.35,6.88,6.59,6.88,3.71,0,5.81-1.8,6.24-1.8.59,0,1.49,1.67,1.49,2.14,0,1-3.37,2.74-7.69,2.74-7.1,0-10.47-3.64-10.47-11.29s3.42-11.58,10-11.58C279,182,282,185.91,282,193.18Zm-14.92-1.33h11.12c0-4.49-1.71-6.75-5.13-6.75C269.34,185.1,267.37,187.36,267.07,191.85Z"/><path class="cls-1" d="M302.67,184c0,.68-.81,2.3-1.36,2.3a2.56,2.56,0,0,1-.47-.17,11,11,0,0,0-4.66-1c-3.76,0-6.2,2.22-6.2,8.16s1.8,8.55,6.62,8.55a10.67,10.67,0,0,0,4.83-1.11c.26-.09.43-.17.47-.17.6,0,1.46,1.58,1.46,2.18,0,1-3,2.18-6.71,2.18-6.93,0-10.52-3.29-10.52-11.54,0-8.94,5.22-11.33,10.13-11.33C299.55,182,302.67,183,302.67,184Z"/><path class="cls-1" d="M323.4,184c0,.68-.81,2.3-1.37,2.3a3.24,3.24,0,0,1-.47-.17,11,11,0,0,0-4.66-1c-3.76,0-6.19,2.22-6.19,8.16s1.79,8.55,6.62,8.55a10.75,10.75,0,0,0,4.83-1.11c.26-.09.43-.17.47-.17.6,0,1.45,1.58,1.45,2.18,0,1-3,2.18-6.71,2.18-6.92,0-10.51-3.29-10.51-11.54,0-8.94,5.21-11.33,10.13-11.33C320.28,182,323.4,183,323.4,184Z"/><path class="cls-1" d="M333,173.43V176c0,.6-.51.94-1.71.94h-.51c-1.2,0-1.71-.34-1.71-.94v-2.52c0-.6.51-.94,1.71-.94h.51C332.5,172.49,333,172.83,333,173.43Zm-.17,9.7v20.64c0,.6-.51.95-1.71.95H331c-1.19,0-1.71-.35-1.71-.95V183.13c0-.6.52-.94,1.71-.94h.17C332.33,182.19,332.84,182.53,332.84,183.13Z"/><path class="cls-1" d="M358.66,193.56c0,7.39-3.34,11.33-9.71,11.33s-9.91-4-9.91-11.33S342.59,182,349,182,358.66,186.12,358.66,193.56Zm-15.86-.09c0,5.69,1.84,8.34,6,8.34s6.11-2.65,6.11-8.34-1.93-8.37-6.11-8.37S342.8,187.75,342.8,193.47Zm11.54-19.57c0,.47-.43.85-4,5a3,3,0,0,1-2.18.77c-.68,0-1-.13-1-.43s.51-1.33,2.48-4.74c.47-.82,1.28-1.12,2.65-1.12S354.34,173.47,354.34,173.9Z"/><path class="cls-1" d="M381.6,188.94v14.83c0,.6-.51.95-1.71.95h-.17c-1.19,0-1.71-.35-1.71-.95V189.29c0-2.61-1.58-4.15-4.35-4.15a7.14,7.14,0,0,0-5.39,3v15.64c0,.6-.51.95-1.71.95h-.17c-1.2,0-1.71-.35-1.71-.95v-15a25,25,0,0,0-.51-5.38c0-.81,1.75-1,2.3-1,1,0,1.24,1.71,1.5,2.83a9.2,9.2,0,0,1,6.67-3.21C379,182,381.6,184.63,381.6,188.94Z"/><path class="cls-1" d="M415.66,173.43V198.3a24.55,24.55,0,0,0,.52,5.39c0,.81-1.76,1-2.31,1-1,0-1.24-1.79-1.5-3a9.25,9.25,0,0,1-6.79,3.21c-5.13,0-8.29-4.79-8.29-11.42,0-7.43,3.59-11.45,8.67-11.45a9.38,9.38,0,0,1,6.11,2.18V173.43c0-.6.52-.94,1.71-.94H414C415.15,172.49,415.66,172.83,415.66,173.43Zm-14.61,19.7c0,5.52,1.88,8.64,5.25,8.64a8.19,8.19,0,0,0,5.77-3V187.11a8,8,0,0,0-5.25-1.93C403,185.27,401.05,188.05,401.05,193.13Z"/><path class="cls-1" d="M440.32,193.18c0,.51-.9,1.75-1.41,1.75h-13.5c.34,4.74,2.35,6.88,6.58,6.88,3.72,0,5.81-1.8,6.24-1.8.6,0,1.49,1.67,1.49,2.14,0,1-3.37,2.74-7.69,2.74-7.09,0-10.47-3.64-10.47-11.29S425,182,431.52,182C437.37,182,440.32,185.91,440.32,193.18Zm-14.91-1.33h11.11c0-4.49-1.71-6.75-5.13-6.75C427.67,185.1,425.7,187.36,425.41,191.85Z"/><path class="cls-1" d="M473.1,188.94v14.83c0,.6-.51.95-1.71.95h-.17c-1.2,0-1.71-.35-1.71-.95V189.29c0-2.61-1.58-4.15-4.36-4.15a7.15,7.15,0,0,0-5.39,3v15.64c0,.6-.51.95-1.71.95h-.17c-1.19,0-1.71-.35-1.71-.95v-15a25,25,0,0,0-.51-5.38c0-.81,1.75-1,2.31-1,1,0,1.24,1.71,1.49,2.83a9.21,9.21,0,0,1,6.67-3.21C470.49,182,473.1,184.63,473.1,188.94Z"/><path class="cls-1" d="M497.41,193.18c0,.51-.89,1.75-1.41,1.75H482.5c.34,4.74,2.35,6.88,6.58,6.88,3.72,0,5.81-1.8,6.24-1.8.6,0,1.5,1.67,1.5,2.14,0,1-3.38,2.74-7.7,2.74-7.09,0-10.47-3.64-10.47-11.29s3.42-11.58,10-11.58C494.46,182,497.41,185.91,497.41,193.18Zm-14.91-1.33h11.11c0-4.49-1.71-6.75-5.13-6.75C484.76,185.1,482.8,187.36,482.5,191.85Z"/><path class="cls-1" d="M518.1,184c0,.68-.81,2.3-1.37,2.3a2.86,2.86,0,0,1-.47-.17,11,11,0,0,0-4.66-1c-3.76,0-6.2,2.22-6.2,8.16s1.8,8.55,6.63,8.55a10.75,10.75,0,0,0,4.83-1.11c.26-.09.43-.17.47-.17.6,0,1.45,1.58,1.45,2.18,0,1-3,2.18-6.71,2.18-6.92,0-10.51-3.29-10.51-11.54,0-8.94,5.21-11.33,10.13-11.33C515,182,518.1,183,518.1,184Z"/><path class="cls-1" d="M541.17,193.18c0,.51-.89,1.75-1.41,1.75h-13.5c.34,4.74,2.35,6.88,6.58,6.88,3.72,0,5.81-1.8,6.24-1.8.6,0,1.5,1.67,1.5,2.14,0,1-3.38,2.74-7.7,2.74-7.09,0-10.47-3.64-10.47-11.29s3.42-11.58,10-11.58C538.22,182,541.17,185.91,541.17,193.18Zm-14.91-1.33h11.11c0-4.49-1.71-6.75-5.13-6.75C528.52,185.1,526.56,187.36,526.26,191.85Z"/><path class="cls-1" d="M557.84,183.81c0,.69-.81,2.31-1.37,2.31a8.28,8.28,0,0,0-3.89-1.11c-2.13,0-3.8,1-3.8,2.69,0,1.93.94,3,3.33,3.72,5.26,1.63,6.84,3,6.84,6.93s-3.33,6.66-7.56,6.66c-3.89,0-6.8-1.7-6.8-2.69,0-.47.9-2.13,1.5-2.13a9.58,9.58,0,0,0,5,1.7c2.74,0,4.19-1.11,4.19-3.46,0-1.92-1.07-2.9-4.28-3.84-4.61-1.37-5.94-3.21-5.94-6.42,0-3.59,2.95-6.19,7.1-6.19C555.1,182,557.84,182.88,557.84,183.81Z"/><path class="cls-1" d="M568.39,173.43V176c0,.6-.51.94-1.71.94h-.51c-1.19,0-1.71-.34-1.71-.94v-2.52c0-.6.52-.94,1.71-.94h.51C567.88,172.49,568.39,172.83,568.39,173.43Zm-.17,9.7v20.64c0,.6-.51.95-1.71.95h-.17c-1.19,0-1.71-.35-1.71-.95V183.13c0-.6.52-.94,1.71-.94h.17C567.71,182.19,568.22,182.53,568.22,183.13Z"/><path class="cls-1" d="M592.67,173.43V198.3a25,25,0,0,0,.51,5.39c0,.81-1.75,1-2.31,1-1,0-1.24-1.79-1.49-3a9.27,9.27,0,0,1-6.8,3.21c-5.13,0-8.29-4.79-8.29-11.42,0-7.43,3.59-11.45,8.68-11.45a9.4,9.4,0,0,1,6.11,2.18V173.43c0-.6.51-.94,1.71-.94H591C592.16,172.49,592.67,172.83,592.67,173.43Zm-14.62,19.7c0,5.52,1.88,8.64,5.26,8.64a8.19,8.19,0,0,0,5.77-3V187.11a8,8,0,0,0-5.26-1.93C580,185.27,578.05,188.05,578.05,193.13Z"/><path class="cls-1" d="M616.09,188.73v9.57a25,25,0,0,0,.51,5.39c0,.81-1.75,1-2.31,1-1,0-1.24-1.79-1.49-3a9.42,9.42,0,0,1-7.18,3.21c-4.15,0-7.31-2-7.31-6.41,0-7.23,7.65-7.7,14.19-7.78v-2c0-1.93-1.16-3.59-4.7-3.59-3.89,0-6.24,1.79-6.67,1.79-.6,0-1.5-1.66-1.5-2.13,0-1.12,3.76-2.74,8-2.74C613,182,616.09,184.5,616.09,188.73Zm-13.94,9.53c0,2.27,1.24,3.51,3.64,3.51a9.39,9.39,0,0,0,6.71-3v-5C608.05,193.82,602.15,193.82,602.15,198.26Z"/><path class="cls-1" d="M640.1,173.43V198.3a24.55,24.55,0,0,0,.52,5.39c0,.81-1.75,1-2.31,1-1,0-1.24-1.79-1.5-3a9.25,9.25,0,0,1-6.79,3.21c-5.13,0-8.29-4.79-8.29-11.42,0-7.43,3.59-11.45,8.67-11.45a9.38,9.38,0,0,1,6.11,2.18V173.43c0-.6.52-.94,1.71-.94h.17C639.59,172.49,640.1,172.83,640.1,173.43Zm-14.61,19.7c0,5.52,1.88,8.64,5.25,8.64a8.19,8.19,0,0,0,5.77-3V187.11a8,8,0,0,0-5.25-1.93C627.41,185.27,625.49,188.05,625.49,193.13Z"/><path class="cls-1" d="M664.76,193.18c0,.51-.89,1.75-1.41,1.75h-13.5c.34,4.74,2.35,6.88,6.58,6.88,3.72,0,5.81-1.8,6.24-1.8.6,0,1.49,1.67,1.49,2.14,0,1-3.37,2.74-7.69,2.74-7.09,0-10.47-3.64-10.47-11.29S649.42,182,656,182C661.81,182,664.76,185.91,664.76,193.18Zm-14.91-1.33H661c0-4.49-1.71-6.75-5.13-6.75C652.11,185.1,650.15,187.36,649.85,191.85Z"/><path class="cls-1" d="M681.43,183.81c0,.69-.81,2.31-1.37,2.31a8.28,8.28,0,0,0-3.89-1.11c-2.13,0-3.8,1-3.8,2.69,0,1.93.94,3,3.33,3.72,5.26,1.63,6.84,3,6.84,6.93S679.21,205,675,205c-3.89,0-6.8-1.7-6.8-2.69,0-.47.9-2.13,1.5-2.13a9.5,9.5,0,0,0,5,1.7c2.73,0,4.19-1.11,4.19-3.46,0-1.92-1.07-2.9-4.28-3.84-4.61-1.37-5.94-3.21-5.94-6.42,0-3.59,2.95-6.19,7.1-6.19C678.69,182,681.43,182.88,681.43,183.81Z"/><g id="gato"><path class="cls-2" d="M126,17.31,109,46.76H75L58,17.31,15.74,164H168.43ZM74.77,86.07a9.72,9.72,0,1,1,9.72-9.71A9.71,9.71,0,0,1,74.77,86.07Zm34.38,0a9.72,9.72,0,1,1,9.72-9.71A9.71,9.71,0,0,1,109.15,86.07Z"/></g><g id="Libro"><polygon class="cls-3" points="177 85.83 92 134.82 92 208.31 177 159.32 177 85.83"/><polygon class="cls-4" points="7 85.83 92 134.82 92 208.31 7 159.32 7 85.83"/></g></svg>