<svg id="Layer_1" data-name="Layer 1" xmlns="http://www.w3.org/2000/svg" viewBox="0 0 700 225"><defs><style>.cls-1{fill:#5f5070;}.cls-2{fill:#9a81b8;}.cls-3{fill:#8cdafc;}.cls-4{fill:#6ba2bb;}</style></defs><title>imagotipo-ayni-blanco</title><path class="cls-1" d="M270.53,39.25l22.56,66a6.65,6.65,0,0,1,.31,1.84c0,1.44-1.54,2.26-5.13,2.26h-4.51c-3,0-5.23-.52-5.74-2.16l-4.11-12.51h-24.2l-4.11,12.51c-.51,1.54-2.25,2.16-4.71,2.16h-4.11c-4.3,0-6.25-.82-6.25-2.26a7.3,7.3,0,0,1,.41-1.84l22.56-66c.62-1.64,2.88-2.15,5.85-2.15h5.33C267.66,37.1,269.91,37.61,270.53,39.25Zm-8.82,17a38,38,0,0,1-1.54,6.56L254.12,81.1H269.5l-5.84-18.26a50.2,50.2,0,0,1-1.54-6.56Z"/><path class="cls-1" d="M342.32,57.51a7.11,7.11,0,0,1-.3,1.85l-23.49,68.72c-.62,1.64-2.77,2.15-5.75,2.15H311c-4.2,0-6.15-.82-6.15-2.15a4.61,4.61,0,0,1,.41-1.85l6.46-17.13L294.83,59.36a7.94,7.94,0,0,1-.41-1.85c0-1.44,1.95-2.26,6.26-2.26H304c3,0,5.23.52,5.75,2.16l6.05,19c.72,2.36,1.95,8,2.87,12.41H319c.92-4.41,2.16-10.15,2.87-12.41l6-19c.52-1.64,2.77-2.16,5.75-2.16h2.46C340.48,55.25,342.32,56.07,342.32,57.51Z"/><path class="cls-1" d="M393.81,71.25V106c0,2.15-1.85,3.28-6.15,3.28h-2.87c-4.31,0-6.16-1.13-6.16-3.28V73.51c0-4-1.64-6.36-6.15-6.36-4.21,0-7,3.59-8.21,5.95V106c0,2.15-1.85,3.28-6.15,3.28h-2.87c-4.31,0-6.16-1.13-6.16-3.28V73.51c0-10.26-1.23-12.41-1.23-14.46,0-2.46,8.92-3.28,11.49-3.28,3.28,0,3.48,4.1,4.1,6.66a20,20,0,0,1,15.28-7.79C389,54.64,393.81,59.87,393.81,71.25Z"/><path class="cls-1" d="M421.09,35.05v8.31c0,2.15-1.84,3.28-6.15,3.28h-2.87c-4.31,0-6.16-1.13-6.16-3.28V35.05c0-2.16,1.85-3.28,6.16-3.28h2.87C419.25,31.77,421.09,32.89,421.09,35.05Zm0,23.49V106c0,2.15-1.84,3.28-6.15,3.28h-2.87c-4.31,0-6.16-1.13-6.16-3.28V58.54c0-2.16,1.85-3.29,6.16-3.29h2.87C419.25,55.25,421.09,56.38,421.09,58.54Z"/><path class="cls-1" d="M249,147.06c0,.64-.94,2.27-1.36,2.27-.65,0-2.23-1.63-5.6-1.63-3.21,0-5.52,1.71-5.52,4.83s2.74,3.94,5.82,5.09c3.8,1.45,8.07,3.16,8.07,9,0,5.13-3.71,8.3-9.48,8.3-5,0-8.85-2-8.85-3.12,0-.69,1-2.31,1.49-2.31s3,2.18,7.36,2.18c3.24,0,5.59-2,5.59-5,0-3.41-3.16-4.53-6.45-5.81-3.63-1.41-7.44-2.82-7.44-8.42,0-4.61,3.77-7.9,9.49-7.9C244.59,144.46,249,145.52,249,147.06Z"/><path class="cls-1" d="M273,163.18c0,.51-.9,1.75-1.41,1.75H258.09c.34,4.74,2.35,6.88,6.58,6.88,3.72,0,5.82-1.8,6.24-1.8.6,0,1.5,1.67,1.5,2.14,0,1-3.38,2.74-7.69,2.74-7.1,0-10.47-3.64-10.47-11.29S257.67,152,264.2,152C270.06,152,273,155.91,273,163.18Zm-14.92-1.33H269.2c0-4.49-1.7-6.75-5.12-6.75C260.36,155.1,258.39,157.36,258.09,161.85Z"/><path class="cls-1" d="M282,143.43v25.22c0,2.56,1.07,3.16,2.31,3.16a10.5,10.5,0,0,0,1.84-.21c.6,0,.9,1.66.9,2,0,1.16-2,1.29-3.12,1.29-2.14,0-5.52-.94-5.52-5.9V143.43c0-.6.52-.94,1.71-.94h.17C281.51,142.49,282,142.83,282,143.43Z"/><path class="cls-1" d="M308.73,163.18c0,.51-.89,1.75-1.41,1.75h-13.5c.34,4.74,2.35,6.88,6.58,6.88,3.72,0,5.81-1.8,6.24-1.8.6,0,1.5,1.67,1.5,2.14,0,1-3.38,2.74-7.7,2.74-7.09,0-10.47-3.64-10.47-11.29s3.42-11.58,10-11.58C305.79,152,308.73,155.91,308.73,163.18Zm-14.91-1.33h11.11c0-4.49-1.71-6.75-5.13-6.75C296.08,155.1,294.12,157.36,293.82,161.85Z"/><path class="cls-1" d="M329.42,154c0,.68-.81,2.3-1.37,2.3a2.86,2.86,0,0,1-.47-.17,11,11,0,0,0-4.66-1c-3.76,0-6.2,2.22-6.2,8.16s1.8,8.55,6.63,8.55a10.75,10.75,0,0,0,4.83-1.11c.25-.09.43-.17.47-.17.6,0,1.45,1.58,1.45,2.18,0,1-3,2.18-6.71,2.18-6.92,0-10.51-3.29-10.51-11.54,0-8.94,5.21-11.33,10.13-11.33C326.3,152,329.42,153,329.42,154Z"/><path class="cls-1" d="M350.14,154c0,.68-.81,2.3-1.36,2.3a2.56,2.56,0,0,1-.47-.17,11,11,0,0,0-4.66-1c-3.76,0-6.2,2.22-6.2,8.16s1.8,8.55,6.62,8.55a10.71,10.71,0,0,0,4.83-1.11c.26-.09.43-.17.47-.17.6,0,1.46,1.58,1.46,2.18,0,1-3,2.18-6.71,2.18-6.93,0-10.52-3.29-10.52-11.54,0-8.94,5.22-11.33,10.13-11.33C347,152,350.14,153,350.14,154Z"/><path class="cls-1" d="M359.76,143.43V146c0,.6-.52.94-1.71.94h-.52c-1.19,0-1.7-.34-1.7-.94v-2.52c0-.6.51-.94,1.7-.94h.52C359.24,142.49,359.76,142.83,359.76,143.43Zm-.17,9.7v20.64c0,.6-.52.95-1.71.95h-.17c-1.2,0-1.71-.35-1.71-.95V153.13c0-.6.51-.94,1.71-.94h.17C359.07,152.19,359.59,152.53,359.59,153.13Z"/><path class="cls-1" d="M385.4,163.56c0,7.39-3.33,11.33-9.7,11.33s-9.92-4-9.92-11.33S369.33,152,375.7,152,385.4,156.12,385.4,163.56Zm-15.86-.09c0,5.69,1.84,8.34,6,8.34s6.11-2.65,6.11-8.34-1.92-8.37-6.11-8.37S369.54,157.75,369.54,163.47Zm11.54-19.57c0,.47-.42.85-4,5a3,3,0,0,1-2.18.77c-.69,0-1-.13-1-.43s.52-1.33,2.48-4.74c.47-.82,1.28-1.12,2.65-1.12S381.08,143.47,381.08,143.9Z"/><path class="cls-1" d="M408.35,158.94v14.83c0,.6-.52.95-1.71.95h-.17c-1.2,0-1.71-.35-1.71-.95V159.29c0-2.61-1.58-4.15-4.36-4.15a7.14,7.14,0,0,0-5.39,3v15.64c0,.6-.51.95-1.71.95h-.17c-1.19,0-1.71-.35-1.71-.95v-15a25,25,0,0,0-.51-5.38c0-.81,1.75-1,2.31-1,1,0,1.24,1.7,1.49,2.82a9.21,9.21,0,0,1,6.67-3.21C405.74,152,408.35,154.63,408.35,158.94Z"/><path class="cls-1" d="M442.41,143.43V168.3a25,25,0,0,0,.51,5.39c0,.81-1.75,1-2.31,1-1,0-1.24-1.79-1.49-3a9.27,9.27,0,0,1-6.8,3.21c-5.13,0-8.29-4.79-8.29-11.42,0-7.43,3.59-11.45,8.68-11.45a9.4,9.4,0,0,1,6.11,2.18V143.43c0-.6.51-.94,1.71-.94h.17C441.89,142.49,442.41,142.83,442.41,143.43Zm-14.62,19.7c0,5.52,1.88,8.64,5.26,8.64a8.21,8.21,0,0,0,5.77-3V157.11a8,8,0,0,0-5.26-1.93C429.71,155.27,427.79,158.05,427.79,163.13Z"/><path class="cls-1" d="M467.07,163.18c0,.51-.9,1.75-1.41,1.75H452.15c.34,4.74,2.35,6.88,6.58,6.88,3.72,0,5.81-1.8,6.24-1.8.6,0,1.5,1.67,1.5,2.14,0,1-3.38,2.74-7.7,2.74-7.09,0-10.47-3.64-10.47-11.29s3.42-11.58,10-11.58C464.12,152,467.07,155.91,467.07,163.18Zm-14.92-1.33h11.11c0-4.49-1.71-6.75-5.13-6.75C454.42,155.1,452.45,157.36,452.15,161.85Z"/><path class="cls-1" d="M499.07,152.92a1.81,1.81,0,0,1-.13.6L492.06,174c-.17.51-.85.69-1.71.69h-1.49c-.86,0-1.54-.18-1.71-.69l-6.88-20.56a1.78,1.78,0,0,1-.13-.55c0-.43.55-.73,1.84-.73h.21c.85,0,1.54.17,1.71.69l4.36,13.63c.55,1.71,1.11,3.89,1.49,5.34h.18c.34-1.45.77-3.63,1.28-5.26l4.4-13.71c.17-.52.86-.69,1.75-.69h.13C498.6,152.19,499.07,152.45,499.07,152.92Z"/><path class="cls-1" d="M521.94,163.56c0,7.39-3.34,11.33-9.71,11.33s-9.91-4-9.91-11.33S505.87,152,512.23,152,521.94,156.12,521.94,163.56Zm-15.86-.09c0,5.69,1.84,8.34,6,8.34s6.11-2.65,6.11-8.34-1.93-8.37-6.11-8.37S506.08,157.75,506.08,163.47Z"/><path class="cls-1" d="M531.38,143.43v25.22c0,2.56,1.07,3.16,2.31,3.16a10.16,10.16,0,0,0,1.83-.21c.6,0,.9,1.66.9,2,0,1.16-2,1.29-3.12,1.29-2.14,0-5.51-.94-5.51-5.9V143.43c0-.6.51-.94,1.71-.94h.17C530.87,142.49,531.38,142.83,531.38,143.43Z"/><path class="cls-1" d="M557.11,153.13V168.3a25,25,0,0,0,.51,5.39c0,.81-1.75,1-2.31,1-1,0-1.24-1.79-1.49-3a9.21,9.21,0,0,1-6.67,3.21c-4.36,0-7-2.61-7-6.93V153.13c0-.6.51-.94,1.71-.94h.17c1.2,0,1.71.34,1.71.94v14.49c0,2.61,1.58,4.15,4.36,4.15a7.16,7.16,0,0,0,5.39-3V153.13c0-.6.51-.94,1.71-.94h.17C556.59,152.19,557.11,152.53,557.11,153.13Z"/><path class="cls-1" d="M581.38,158.94v14.83c0,.6-.51.95-1.71.95h-.17c-1.2,0-1.71-.35-1.71-.95V159.29c0-2.61-1.58-4.15-4.36-4.15a7.17,7.17,0,0,0-5.39,3v15.64c0,.6-.51.95-1.7.95h-.18c-1.19,0-1.7-.35-1.7-.95v-15a24.5,24.5,0,0,0-.52-5.38c0-.81,1.75-1,2.31-1,1,0,1.24,1.7,1.5,2.82a9.18,9.18,0,0,1,6.66-3.21C578.77,152,581.38,154.63,581.38,158.94Z"/><path class="cls-1" d="M592.75,147.79v4.49h3.59c.59,0,.85.38.85,1.28v.51c0,.9-.26,1.28-.85,1.28h-3.59v13.3c0,2.56,1.06,3.16,2.3,3.16a10.34,10.34,0,0,0,1.84-.21c.6,0,.9,1.66.9,2,0,1.16-2,1.29-3.12,1.29-2.14,0-5.51-.94-5.51-5.9V155.35H587c-.6,0-.86-.38-.86-1.28v-.51c0-.9.26-1.28.86-1.28h2.14l.51-4.49c0-.6.47-.94,1.37-.94h.42C592.36,146.85,592.75,147.19,592.75,147.79Z"/><path class="cls-1" d="M619.07,158.73v9.57a25,25,0,0,0,.51,5.39c0,.81-1.75,1-2.3,1-1,0-1.24-1.79-1.5-3a9.39,9.39,0,0,1-7.18,3.21c-4.15,0-7.31-2-7.31-6.41,0-7.23,7.65-7.7,14.19-7.78v-2c0-1.93-1.15-3.59-4.7-3.59-3.89,0-6.24,1.79-6.67,1.79-.6,0-1.49-1.66-1.49-2.13,0-1.12,3.76-2.74,8-2.74C616,152,619.07,154.5,619.07,158.73Zm-13.93,9.53c0,2.27,1.24,3.51,3.63,3.51a9.39,9.39,0,0,0,6.71-3v-5C611,163.82,605.14,163.82,605.14,168.26Z"/><path class="cls-1" d="M637.06,153.69c0,.81-.34,2.31-.85,2.31s-.9-.47-2.35-.47c-2.23,0-3.94,2.6-3.94,2.6v15.64c0,.6-.51.95-1.7.95H628c-1.19,0-1.71-.35-1.71-.95v-15a25,25,0,0,0-.51-5.38c0-.81,1.75-1,2.31-1,1,0,1.24,1.7,1.5,2.82,1.45-2.06,3.16-3.21,5-3.21S637.06,152.75,637.06,153.69Z"/><path class="cls-1" d="M645.78,143.43V146c0,.6-.51.94-1.71.94h-.51c-1.2,0-1.71-.34-1.71-.94v-2.52c0-.6.51-.94,1.71-.94h.51C645.27,142.49,645.78,142.83,645.78,143.43Zm-.17,9.7v20.64c0,.6-.51.95-1.71.95h-.17c-1.2,0-1.71-.35-1.71-.95V153.13c0-.6.51-.94,1.71-.94h.17C645.1,152.19,645.61,152.53,645.61,153.13Z"/><path class="cls-1" d="M671.42,163.56c0,7.39-3.33,11.33-9.7,11.33s-9.92-4-9.92-11.33S655.35,152,661.72,152,671.42,156.12,671.42,163.56Zm-15.85-.09c0,5.69,1.83,8.34,6,8.34s6.11-2.65,6.11-8.34-1.92-8.37-6.11-8.37S655.57,157.75,655.57,163.47Z"/><path class="cls-1" d="M688.51,153.82c0,.68-.81,2.3-1.36,2.3a8.33,8.33,0,0,0-3.89-1.11c-2.14,0-3.81,1-3.81,2.7,0,1.92.94,3,3.34,3.71,5.25,1.63,6.84,3,6.84,6.93s-3.34,6.66-7.57,6.66c-3.89,0-6.79-1.7-6.79-2.69,0-.47.89-2.13,1.49-2.13a9.58,9.58,0,0,0,5,1.7c2.74,0,4.19-1.11,4.19-3.46,0-1.92-1.07-2.9-4.27-3.84-4.62-1.37-5.94-3.21-5.94-6.42,0-3.59,3-6.19,7.09-6.19C685.78,152,688.51,152.88,688.51,153.82Z"/><path id="gato" class="cls-2" d="M127,8.44,109.36,39H74.11L56.49,8.44,8.58,174H175.65ZM73.88,79.69A10.07,10.07,0,1,1,84,69.62,10.07,10.07,0,0,1,73.88,79.69Zm35.63,0a10.07,10.07,0,1,1,10.07-10.07A10.06,10.06,0,0,1,109.51,79.69Z"/><g id="pala"><path class="cls-3" d="M139.25,89.78h5.21a1.2,1.2,0,0,1,1.2,1.2V223.86a.18.18,0,0,1-.18.18h-7.27a.18.18,0,0,1-.18-.18V91a1.22,1.22,0,0,1,1.22-1.22Z" transform="translate(99.69 -50.37) rotate(30.62)"/><path class="cls-4" d="M195.37,63.59a42.92,42.92,0,0,0-58.61,15l-22.89,38.69,38.68,22.89,44.68-75.51Z"/><path class="cls-3" d="M197.23,64.69,152.55,140.2,189.37,162l22.89-38.69a42.9,42.9,0,0,0-15-58.6Z"/></g></svg>