<svg id="Layer_1" data-name="Layer 1" xmlns="http://www.w3.org/2000/svg" viewBox="0 0 700 225"><defs><style>.cls-1{fill:#fff;}.cls-2{fill:#f7e200;}.cls-3{fill:#b29c00;}</style></defs><title>imagotipo-ayni-color</title><path class="cls-1" d="M279.53,38.25l22.57,66a7,7,0,0,1,.3,1.84c0,1.44-1.54,2.26-5.13,2.26h-4.51c-3,0-5.23-.52-5.74-2.16l-4.11-12.51h-24.2l-4.11,12.51c-.51,1.54-2.25,2.16-4.71,2.16h-4.11c-4.3,0-6.25-.82-6.25-2.26a7.3,7.3,0,0,1,.41-1.84l22.56-66c.62-1.64,2.88-2.15,5.85-2.15h5.33C276.66,36.1,278.91,36.61,279.53,38.25Zm-8.82,17a38,38,0,0,1-1.54,6.56L263.12,80.1H278.5l-5.84-18.26a50.2,50.2,0,0,1-1.54-6.56Z"/><path class="cls-1" d="M351.32,56.51a7.11,7.11,0,0,1-.3,1.85l-23.49,68.72c-.62,1.64-2.77,2.15-5.75,2.15H320c-4.2,0-6.15-.82-6.15-2.15a4.61,4.61,0,0,1,.41-1.85l6.46-17.13L303.84,58.36a7.46,7.46,0,0,1-.41-1.85c0-1.44,1.94-2.26,6.25-2.26H313c3,0,5.23.52,5.75,2.16l6.05,19c.72,2.36,1.95,8,2.87,12.41H328c.92-4.41,2.16-10.15,2.87-12.41l6.06-19c.51-1.64,2.76-2.16,5.74-2.16h2.46C349.48,54.25,351.32,55.07,351.32,56.51Z"/><path class="cls-1" d="M402.81,70.25V105c0,2.15-1.84,3.28-6.15,3.28h-2.87c-4.31,0-6.16-1.13-6.16-3.28V72.51c0-4-1.64-6.36-6.15-6.36-4.21,0-7,3.59-8.21,5.95V105c0,2.15-1.84,3.28-6.15,3.28h-2.87c-4.31,0-6.16-1.13-6.16-3.28V72.51c0-10.26-1.23-12.41-1.23-14.46,0-2.46,8.92-3.28,11.49-3.28,3.28,0,3.49,4.1,4.1,6.66a20,20,0,0,1,15.28-7.79C398,53.64,402.81,58.87,402.81,70.25Z"/><path class="cls-1" d="M430.09,34.05v8.31c0,2.15-1.84,3.28-6.15,3.28h-2.87c-4.31,0-6.16-1.13-6.16-3.28V34.05c0-2.16,1.85-3.28,6.16-3.28h2.87C428.25,30.77,430.09,31.89,430.09,34.05Zm0,23.49V105c0,2.15-1.84,3.28-6.15,3.28h-2.87c-4.31,0-6.16-1.13-6.16-3.28V57.54c0-2.16,1.85-3.29,6.16-3.29h2.87C428.25,54.25,430.09,55.38,430.09,57.54Z"/><path class="cls-1" d="M258,146.06c0,.64-.94,2.27-1.36,2.27-.65,0-2.23-1.63-5.6-1.63-3.21,0-5.52,1.71-5.52,4.83s2.74,3.94,5.82,5.09c3.8,1.45,8.07,3.16,8.07,9,0,5.13-3.71,8.3-9.48,8.3-5,0-8.85-2-8.85-3.12,0-.69,1-2.31,1.49-2.31s3,2.18,7.36,2.18c3.24,0,5.6-2,5.6-5,0-3.41-3.17-4.53-6.46-5.81-3.63-1.41-7.44-2.82-7.44-8.42,0-4.61,3.77-7.9,9.49-7.9C253.59,143.46,258,144.52,258,146.06Z"/><path class="cls-1" d="M282,162.18c0,.51-.9,1.75-1.41,1.75H267.09c.34,4.74,2.35,6.88,6.58,6.88,3.72,0,5.82-1.8,6.24-1.8.6,0,1.5,1.67,1.5,2.14,0,1-3.38,2.74-7.69,2.74-7.1,0-10.47-3.64-10.47-11.29S266.67,151,273.2,151C279.06,151,282,154.91,282,162.18Zm-14.92-1.33H278.2c0-4.49-1.7-6.75-5.12-6.75C269.36,154.1,267.39,156.36,267.09,160.85Z"/><path class="cls-1" d="M291,142.43v25.22c0,2.56,1.07,3.16,2.31,3.16a10.5,10.5,0,0,0,1.84-.21c.6,0,.9,1.66.9,2,0,1.16-2,1.29-3.12,1.29-2.14,0-5.52-.94-5.52-5.9V142.43c0-.6.52-.94,1.71-.94h.17C290.51,141.49,291,141.83,291,142.43Z"/><path class="cls-1" d="M317.73,162.18c0,.51-.89,1.75-1.41,1.75h-13.5c.34,4.74,2.35,6.88,6.58,6.88,3.72,0,5.81-1.8,6.24-1.8.6,0,1.5,1.67,1.5,2.14,0,1-3.38,2.74-7.7,2.74-7.09,0-10.47-3.64-10.47-11.29s3.42-11.58,10-11.58C314.79,151,317.73,154.91,317.73,162.18Zm-14.91-1.33h11.11c0-4.49-1.71-6.75-5.13-6.75C305.08,154.1,303.12,156.36,302.82,160.85Z"/><path class="cls-1" d="M338.42,153c0,.68-.81,2.3-1.37,2.3a2.86,2.86,0,0,1-.47-.17,11,11,0,0,0-4.66-1c-3.76,0-6.2,2.22-6.2,8.16s1.8,8.55,6.63,8.55a10.75,10.75,0,0,0,4.83-1.11c.25-.09.43-.17.47-.17.6,0,1.45,1.58,1.45,2.18,0,1-3,2.18-6.71,2.18-6.92,0-10.51-3.29-10.51-11.54,0-8.94,5.21-11.33,10.13-11.33C335.3,151,338.42,152,338.42,153Z"/><path class="cls-1" d="M359.14,153c0,.68-.81,2.3-1.36,2.3a2.56,2.56,0,0,1-.47-.17,11,11,0,0,0-4.66-1c-3.76,0-6.2,2.22-6.2,8.16s1.8,8.55,6.62,8.55a10.67,10.67,0,0,0,4.83-1.11c.26-.09.43-.17.47-.17.6,0,1.46,1.58,1.46,2.18,0,1-3,2.18-6.71,2.18-6.93,0-10.52-3.29-10.52-11.54,0-8.94,5.22-11.33,10.13-11.33C356,151,359.14,152,359.14,153Z"/><path class="cls-1" d="M368.76,142.43V145c0,.6-.52.94-1.71.94h-.52c-1.19,0-1.7-.34-1.7-.94v-2.52c0-.6.51-.94,1.7-.94h.52C368.24,141.49,368.76,141.83,368.76,142.43Zm-.17,9.7v20.64c0,.6-.52.95-1.71.95h-.17c-1.2,0-1.71-.35-1.71-.95V152.13c0-.6.51-.94,1.71-.94h.17C368.07,151.19,368.59,151.53,368.59,152.13Z"/><path class="cls-1" d="M394.4,162.56c0,7.39-3.33,11.33-9.7,11.33s-9.92-4-9.92-11.33S378.33,151,384.7,151,394.4,155.12,394.4,162.56Zm-15.86-.09c0,5.69,1.84,8.34,6,8.34s6.11-2.65,6.11-8.34-1.92-8.37-6.11-8.37S378.54,156.75,378.54,162.47Zm11.54-19.57c0,.47-.42.85-4,5a3,3,0,0,1-2.18.77c-.69,0-1-.13-1-.43s.52-1.33,2.48-4.74c.47-.82,1.28-1.12,2.65-1.12S390.08,142.47,390.08,142.9Z"/><path class="cls-1" d="M417.35,157.94v14.83c0,.6-.51.95-1.71.95h-.17c-1.2,0-1.71-.35-1.71-.95V158.29c0-2.61-1.58-4.15-4.36-4.15a7.15,7.15,0,0,0-5.39,3v15.64c0,.6-.51.95-1.71.95h-.17c-1.19,0-1.71-.35-1.71-.95v-15a25,25,0,0,0-.51-5.38c0-.81,1.75-1,2.31-1,1,0,1.24,1.7,1.49,2.82a9.21,9.21,0,0,1,6.67-3.21C414.74,151,417.35,153.63,417.35,157.94Z"/><path class="cls-1" d="M451.41,142.43V167.3a25,25,0,0,0,.51,5.39c0,.81-1.75,1-2.31,1-1,0-1.24-1.79-1.49-3a9.27,9.27,0,0,1-6.8,3.21c-5.13,0-8.29-4.79-8.29-11.42,0-7.43,3.59-11.45,8.68-11.45a9.4,9.4,0,0,1,6.11,2.18V142.43c0-.6.51-.94,1.71-.94h.17C450.89,141.49,451.41,141.83,451.41,142.43Zm-14.62,19.7c0,5.52,1.88,8.64,5.26,8.64a8.21,8.21,0,0,0,5.77-3V156.11a8,8,0,0,0-5.26-1.93C438.71,154.27,436.79,157.05,436.79,162.13Z"/><path class="cls-1" d="M476.07,162.18c0,.51-.9,1.75-1.41,1.75H461.15c.34,4.74,2.35,6.88,6.58,6.88,3.72,0,5.81-1.8,6.24-1.8.6,0,1.5,1.67,1.5,2.14,0,1-3.38,2.74-7.7,2.74-7.09,0-10.47-3.64-10.47-11.29s3.42-11.58,10-11.58C473.12,151,476.07,154.91,476.07,162.18Zm-14.92-1.33h11.11c0-4.49-1.71-6.75-5.13-6.75C463.42,154.1,461.45,156.36,461.15,160.85Z"/><path class="cls-1" d="M508.07,151.92a1.81,1.81,0,0,1-.13.6L501.06,173c-.17.51-.85.69-1.71.69h-1.49c-.86,0-1.54-.18-1.71-.69l-6.88-20.56a2.11,2.11,0,0,1-.13-.55c0-.43.55-.73,1.84-.73h.21c.86,0,1.54.17,1.71.69l4.36,13.63c.55,1.71,1.11,3.89,1.5,5.34h.17c.34-1.45.77-3.63,1.28-5.26l4.4-13.71c.17-.52.86-.69,1.75-.69h.13C507.6,151.19,508.07,151.45,508.07,151.92Z"/><path class="cls-1" d="M530.94,162.56c0,7.39-3.34,11.33-9.71,11.33s-9.91-4-9.91-11.33S514.87,151,521.23,151,530.94,155.12,530.94,162.56Zm-15.86-.09c0,5.69,1.84,8.34,6,8.34s6.11-2.65,6.11-8.34-1.93-8.37-6.11-8.37S515.08,156.75,515.08,162.47Z"/><path class="cls-1" d="M540.38,142.43v25.22c0,2.56,1.07,3.16,2.31,3.16a10.16,10.16,0,0,0,1.83-.21c.6,0,.9,1.66.9,2,0,1.16-2,1.29-3.12,1.29-2.14,0-5.51-.94-5.51-5.9V142.43c0-.6.51-.94,1.71-.94h.17C539.87,141.49,540.38,141.83,540.38,142.43Z"/><path class="cls-1" d="M566.11,152.13V167.3a25,25,0,0,0,.51,5.39c0,.81-1.75,1-2.31,1-1,0-1.24-1.79-1.49-3a9.21,9.21,0,0,1-6.67,3.21c-4.36,0-7-2.61-7-6.93V152.13c0-.6.51-.94,1.71-.94h.17c1.2,0,1.71.34,1.71.94v14.49c0,2.61,1.58,4.15,4.36,4.15a7.16,7.16,0,0,0,5.39-3V152.13c0-.6.51-.94,1.71-.94h.17C565.59,151.19,566.11,151.53,566.11,152.13Z"/><path class="cls-1" d="M590.38,157.94v14.83c0,.6-.51.95-1.71.95h-.17c-1.2,0-1.71-.35-1.71-.95V158.29c0-2.61-1.58-4.15-4.36-4.15a7.13,7.13,0,0,0-5.38,3v15.64c0,.6-.52.95-1.71.95h-.18c-1.19,0-1.7-.35-1.7-.95v-15a24.5,24.5,0,0,0-.52-5.38c0-.81,1.75-1,2.31-1,1,0,1.24,1.7,1.5,2.82a9.18,9.18,0,0,1,6.66-3.21C587.77,151,590.38,153.63,590.38,157.94Z"/><path class="cls-1" d="M601.75,146.79v4.49h3.59c.59,0,.85.38.85,1.28v.51c0,.9-.26,1.28-.85,1.28h-3.59v13.3c0,2.56,1.06,3.16,2.3,3.16a10.34,10.34,0,0,0,1.84-.21c.6,0,.9,1.66.9,2,0,1.16-2,1.29-3.12,1.29-2.14,0-5.51-.94-5.51-5.9V154.35H596c-.6,0-.86-.38-.86-1.28v-.51c0-.9.26-1.28.86-1.28h2.14l.51-4.49c0-.6.47-.94,1.37-.94h.42C601.36,145.85,601.75,146.19,601.75,146.79Z"/><path class="cls-1" d="M628.07,157.73v9.57a25,25,0,0,0,.51,5.39c0,.81-1.75,1-2.3,1-1,0-1.24-1.79-1.5-3a9.39,9.39,0,0,1-7.18,3.21c-4.15,0-7.31-2-7.31-6.41,0-7.23,7.65-7.7,14.19-7.78v-2c0-1.93-1.15-3.59-4.7-3.59-3.89,0-6.24,1.79-6.67,1.79-.6,0-1.49-1.66-1.49-2.13,0-1.12,3.76-2.74,8-2.74C625,151,628.07,153.5,628.07,157.73Zm-13.93,9.53c0,2.27,1.24,3.51,3.63,3.51a9.39,9.39,0,0,0,6.71-3v-5C620,162.82,614.14,162.82,614.14,167.26Z"/><path class="cls-1" d="M646.06,152.69c0,.81-.34,2.31-.85,2.31s-.9-.47-2.35-.47c-2.22,0-3.93,2.6-3.93,2.6v15.64c0,.6-.52.95-1.71.95h-.17c-1.2,0-1.71-.35-1.71-.95v-15a24.5,24.5,0,0,0-.52-5.38c0-.81,1.75-1,2.31-1,1,0,1.24,1.7,1.5,2.82,1.45-2.06,3.16-3.21,5-3.21S646.06,151.75,646.06,152.69Z"/><path class="cls-1" d="M654.78,142.43V145c0,.6-.51.94-1.71.94h-.51c-1.2,0-1.71-.34-1.71-.94v-2.52c0-.6.51-.94,1.71-.94h.51C654.27,141.49,654.78,141.83,654.78,142.43Zm-.17,9.7v20.64c0,.6-.51.95-1.71.95h-.17c-1.2,0-1.71-.35-1.71-.95V152.13c0-.6.51-.94,1.71-.94h.17C654.1,151.19,654.61,151.53,654.61,152.13Z"/><path class="cls-1" d="M680.42,162.56c0,7.39-3.33,11.33-9.7,11.33s-9.91-4-9.91-11.33S664.35,151,670.72,151,680.42,155.12,680.42,162.56Zm-15.85-.09c0,5.69,1.83,8.34,6,8.34s6.11-2.65,6.11-8.34-1.92-8.37-6.11-8.37S664.57,156.75,664.57,162.47Z"/><path class="cls-1" d="M697.52,152.82c0,.68-.82,2.3-1.37,2.3a8.33,8.33,0,0,0-3.89-1.11c-2.14,0-3.81,1-3.81,2.7,0,1.92.94,3,3.34,3.71,5.26,1.63,6.84,3,6.84,6.93s-3.34,6.66-7.57,6.66c-3.89,0-6.79-1.7-6.79-2.69,0-.47.89-2.13,1.49-2.13a9.59,9.59,0,0,0,5,1.7c2.73,0,4.18-1.11,4.18-3.46,0-1.92-1.06-2.9-4.27-3.84-4.62-1.37-5.94-3.21-5.94-6.42,0-3.59,3-6.19,7.09-6.19C694.78,151,697.52,151.88,697.52,152.82Z"/><path id="gato" class="cls-1" d="M136,7.44,118.36,38H83.11L65.49,7.44,17.58,173H184.65ZM82.88,78.69A10.07,10.07,0,1,1,93,68.62,10.07,10.07,0,0,1,82.88,78.69Zm35.63,0a10.07,10.07,0,1,1,10.07-10.07A10.06,10.06,0,0,1,118.51,78.69Z"/><g id="pala"><path class="cls-2" d="M148.25,88.78h5.21a1.2,1.2,0,0,1,1.2,1.2V222.86a.18.18,0,0,1-.18.18h-7.27a.18.18,0,0,1-.18-.18V90a1.22,1.22,0,0,1,1.22-1.22Z" transform="matrix(0.86, 0.51, -0.51, 0.86, 100.43, -55.09)"/><path class="cls-3" d="M204.37,62.59a42.92,42.92,0,0,0-58.61,15l-22.89,38.69,38.68,22.89,44.68-75.51Z"/><path class="cls-2" d="M206.23,63.69,161.55,139.2,198.37,161l22.89-38.69a42.9,42.9,0,0,0-15-58.6Z"/></g></svg>