<svg id="Layer_1" data-name="Layer 1" xmlns="http://www.w3.org/2000/svg" viewBox="0 0 700 225"><defs><style>.cls-1{fill:#fff;}.cls-2{fill:#f7e200;}.cls-3{fill:#f2f2f2;}</style></defs><title>imagotipo-rimay-blanco</title><path class="cls-1" d="M251.56,81.9c0,7.89-4.92,13.64-12,16.3v.42c2.56,1,5.64,5,7.38,9.43l9,22.57a6,6,0,0,1,.51,1.95c0,1.23-2,2.05-6.15,2.05h-4.21c-3,0-5.33-.52-6-2.16l-8.1-20c-2-4.1-3.69-6.15-10.36-6.15h-4v25c0,2.16-1.85,3.29-6.15,3.29h-3.49c-4.31,0-6.16-1.13-6.16-3.29V66.72c0-2.88,1.24-4.11,4.11-4.11h20C243.76,62.61,251.56,69.59,251.56,81.9Zm-33.85-5.85V92.67h9.74c4.21,0,7.9-3.9,7.9-8.82,0-4.72-3.28-7.8-8.61-7.8Z"/><path class="cls-1" d="M278.63,60.36v8.3c0,2.16-1.84,3.29-6.15,3.29h-2.87c-4.31,0-6.16-1.13-6.16-3.29v-8.3c0-2.16,1.85-3.28,6.16-3.28h2.87C276.79,57.08,278.63,58.2,278.63,60.36Zm0,23.49v47.48c0,2.16-1.84,3.29-6.15,3.29h-2.87c-4.31,0-6.16-1.13-6.16-3.29V83.85c0-2.16,1.85-3.29,6.16-3.29h2.87C276.79,80.56,278.63,81.69,278.63,83.85Z"/><path class="cls-1" d="M364.79,96.56v34.77c0,2.16-1.85,3.29-6.15,3.29h-2.88c-4.3,0-6.15-1.13-6.15-3.29V98.82c0-4-1.54-6.36-6.05-6.36s-6.88,3.69-8.11,5.85v33c0,2.16-1.84,3.29-6.15,3.29h-2.87c-4.31,0-6.16-1.13-6.16-3.29V98.82c0-4-1.53-6.36-6-6.36-4.2,0-6.87,3.59-8.1,6v32.92c0,2.16-1.85,3.29-6.15,3.29h-2.88c-4.3,0-6.15-1.13-6.15-3.29V98.82c0-10.26-1.23-12.41-1.23-14.46,0-2.46,8.92-3.28,11.49-3.28,3.28,0,3.48,4.1,4.1,6.66A19.73,19.73,0,0,1,320.48,80c7.08,0,11.49,2.46,13.54,7.79A20.88,20.88,0,0,1,349.81,80C360.07,80,364.79,85.18,364.79,96.56Z"/><path class="cls-1" d="M420.48,97.08v19.28c0,10.56,1.23,12.72,1.23,14.87,0,2.46-8.92,3.28-11.49,3.28-3.28,0-3.48-4.3-4.1-7.07A17.86,17.86,0,0,1,391,135.23c-11.07,0-15.18-6.56-15.18-15s3.39-19.08,29.44-19.08V97.79c0-3.89-2.36-5.84-8-5.84-7.49,0-11.9,3.28-13.13,3.28-2.15,0-5.33-6-5.33-8.2,0-3.49,8.2-7.08,19.59-7.08C414.63,80,420.48,87.13,420.48,97.08Zm-29.54,21.64c0,2.56,1.74,4.51,5.13,4.51,3.9,0,7.59-2.77,9.23-6.46v-5.64C395.56,111.13,390.94,113.8,390.94,118.72Z"/><path class="cls-1" d="M476.38,82.82a7.18,7.18,0,0,1-.31,1.85l-23.49,68.72c-.61,1.64-2.77,2.15-5.74,2.15h-1.75c-4.2,0-6.15-.82-6.15-2.15a4.61,4.61,0,0,1,.41-1.85l6.46-17.13L428.89,84.67a7.46,7.46,0,0,1-.41-1.85c0-1.44,1.95-2.26,6.25-2.26H438c3,0,5.23.52,5.74,2.16l6.05,19c.72,2.36,1.95,8,2.87,12.41h.41c.93-4.41,2.16-10.15,2.88-12.41l6-19c.51-1.64,2.77-2.16,5.74-2.16h2.46C474.53,80.56,476.38,81.38,476.38,82.82Z"/><path class="cls-1" d="M219.28,172.41c0,.73-.89,2.48-1.45,2.48s-2.52-1.88-6.62-1.88c-7.57,0-10.05,4.41-10.05,11.84,0,6.54,2,12.1,9.58,12.1a24.73,24.73,0,0,0,5.51-.56v-8.63h-5c-.6,0-.86-.39-.86-1.28v-.69c0-.89.26-1.28.86-1.28h7.48c.9,0,1.28.39,1.28,1.28v11.33c0,2.39-4.66,3.08-9.53,3.08-8.5,0-13.21-4.79-13.21-15,0-10.65,4.92-15.47,13.85-15.47C215.35,169.77,219.28,171.26,219.28,172.41Z"/><path class="cls-1" d="M244.67,188.49c0,.51-.9,1.75-1.41,1.75H229.75c.35,4.74,2.35,6.88,6.59,6.88,3.71,0,5.81-1.8,6.23-1.8.6,0,1.5,1.67,1.5,2.14,0,1-3.38,2.74-7.69,2.74-7.1,0-10.47-3.64-10.47-11.29s3.42-11.58,10-11.58C241.72,177.33,244.67,181.22,244.67,188.49Zm-14.92-1.33h11.11c0-4.49-1.7-6.75-5.12-6.75C232,180.41,230.05,182.67,229.75,187.16Z"/><path class="cls-1" d="M261.33,179.12c0,.69-.81,2.31-1.36,2.31a8.33,8.33,0,0,0-3.89-1.11c-2.14,0-3.81,1-3.81,2.69,0,1.93.94,3,3.34,3.72,5.25,1.63,6.84,3,6.84,6.93s-3.34,6.66-7.57,6.66c-3.89,0-6.79-1.7-6.79-2.69,0-.47.89-2.13,1.49-2.13a9.58,9.58,0,0,0,5,1.7c2.74,0,4.19-1.11,4.19-3.46,0-1.92-1.07-2.9-4.27-3.84-4.62-1.37-5.94-3.21-5.94-6.42,0-3.59,3-6.19,7.09-6.19C258.6,177.29,261.33,178.19,261.33,179.12Z"/><path class="cls-1" d="M272.4,173.1v4.49H276c.6,0,.86.38.86,1.28v.51c0,.9-.26,1.28-.86,1.28H272.4V194c0,2.56,1.07,3.16,2.31,3.16a10.5,10.5,0,0,0,1.84-.21c.6,0,.89,1.66.89,2,0,1.16-2,1.29-3.11,1.29-2.14,0-5.52-.94-5.52-5.9V180.66h-2.13c-.6,0-.86-.38-.86-1.28v-.51c0-.9.26-1.28.86-1.28h2.13l.51-4.49c.05-.6.47-.94,1.37-.94h.43C272,172.16,272.4,172.5,272.4,173.1Z"/><path class="cls-1" d="M286.5,168.74v2.52c0,.6-.51.94-1.71.94h-.51c-1.19,0-1.71-.34-1.71-.94v-2.52c0-.6.52-.94,1.71-.94h.51C286,167.8,286.5,168.14,286.5,168.74Zm-.17,9.7v20.64c0,.6-.51.95-1.71.95h-.17c-1.19,0-1.71-.35-1.71-.95V178.44c0-.6.52-.94,1.71-.94h.17C285.82,177.5,286.33,177.84,286.33,178.44Z"/><path class="cls-1" d="M312.15,188.87c0,7.39-3.34,11.33-9.71,11.33s-9.91-4-9.91-11.33,3.55-11.54,9.91-11.54S312.15,181.43,312.15,188.87Zm-15.86-.09c0,5.69,1.84,8.34,6,8.34s6.11-2.65,6.11-8.34-1.92-8.37-6.11-8.37S296.29,183.06,296.29,188.78Zm11.54-19.57c0,.47-.43.85-4,5a3,3,0,0,1-2.18.77c-.68,0-1-.13-1-.43s.51-1.33,2.48-4.74c.47-.82,1.28-1.12,2.65-1.12S307.83,168.78,307.83,169.21Z"/><path class="cls-1" d="M335.1,184.25v14.83c0,.6-.52.95-1.71.95h-.18c-1.19,0-1.7-.35-1.7-.95V184.6c0-2.61-1.59-4.15-4.36-4.15a7.14,7.14,0,0,0-5.39,3v15.64c0,.6-.51.95-1.71.95h-.17c-1.2,0-1.71-.35-1.71-.95v-15a25,25,0,0,0-.51-5.38c0-.81,1.75-1,2.31-1,1,0,1.23,1.71,1.49,2.83a9.2,9.2,0,0,1,6.67-3.21C332.49,177.33,335.1,179.94,335.1,184.25Z"/><path class="cls-1" d="M369.67,188.49c0,.51-.9,1.75-1.41,1.75H354.75c.34,4.74,2.35,6.88,6.58,6.88,3.72,0,5.82-1.8,6.24-1.8.6,0,1.5,1.67,1.5,2.14,0,1-3.38,2.74-7.69,2.74-7.1,0-10.48-3.64-10.48-11.29s3.42-11.58,10-11.58C366.72,177.33,369.67,181.22,369.67,188.49Zm-14.92-1.33h11.11c0-4.49-1.71-6.75-5.13-6.75C357,180.41,355.05,182.67,354.75,187.16Z"/><path class="cls-1" d="M392.19,184.25v14.83c0,.6-.51.95-1.71.95h-.17c-1.2,0-1.71-.35-1.71-.95V184.6c0-2.61-1.58-4.15-4.36-4.15a7.14,7.14,0,0,0-5.39,3v15.64c0,.6-.51.95-1.71.95H377c-1.19,0-1.71-.35-1.71-.95v-15a25,25,0,0,0-.51-5.38c0-.81,1.75-1,2.31-1,1,0,1.24,1.71,1.49,2.83a9.21,9.21,0,0,1,6.67-3.21C389.58,177.33,392.19,179.94,392.19,184.25Z"/><path class="cls-1" d="M426.76,188.49c0,.51-.9,1.75-1.41,1.75H411.84c.35,4.74,2.35,6.88,6.59,6.88,3.71,0,5.81-1.8,6.24-1.8.59,0,1.49,1.67,1.49,2.14,0,1-3.37,2.74-7.69,2.74-7.1,0-10.47-3.64-10.47-11.29s3.42-11.58,10-11.58C423.81,177.33,426.76,181.22,426.76,188.49Zm-14.92-1.33H423c0-4.49-1.71-6.75-5.13-6.75C414.11,180.41,412.14,182.67,411.84,187.16Z"/><path class="cls-1" d="M461.72,184.25v14.83c0,.6-.51.95-1.71.95h-.17c-1.2,0-1.71-.35-1.71-.95V184.6c0-2.53-1.37-4.15-4.1-4.15s-4.58,2.18-5.26,3a6.48,6.48,0,0,1,0,.86v14.78c0,.6-.51.95-1.71.95h-.17c-1.2,0-1.71-.35-1.71-.95V184.6c0-2.53-1.37-4.15-4.1-4.15-3.12,0-5.22,3-5.22,3v15.68c0,.6-.51.95-1.71.95H434c-1.19,0-1.71-.35-1.71-.95v-15a25,25,0,0,0-.51-5.38c0-.81,1.75-1,2.31-1,1,0,1.24,1.71,1.49,2.83a9,9,0,0,1,6.5-3.21c2.1,0,4.92.64,6.11,3.55a9.32,9.32,0,0,1,6.8-3.55C457.74,177.33,461.72,178.44,461.72,184.25Z"/><path class="cls-1" d="M486,188.49c0,.51-.89,1.75-1.41,1.75h-13.5c.34,4.74,2.35,6.88,6.58,6.88,3.72,0,5.81-1.8,6.24-1.8.6,0,1.49,1.67,1.49,2.14,0,1-3.37,2.74-7.69,2.74-7.09,0-10.47-3.64-10.47-11.29s3.42-11.58,10-11.58C483.08,177.33,486,181.22,486,188.49Zm-14.91-1.33h11.11c0-4.49-1.71-6.75-5.13-6.75C473.38,180.41,471.42,182.67,471.12,187.16Z"/><path class="cls-1" d="M502.53,179c0,.81-.34,2.3-.86,2.3s-.89-.47-2.35-.47c-2.22,0-3.93,2.61-3.93,2.61v15.64c0,.6-.51.95-1.71.95h-.17c-1.2,0-1.71-.35-1.71-.95v-15a25,25,0,0,0-.51-5.38c0-.81,1.75-1,2.31-1,1,0,1.23,1.71,1.49,2.83,1.45-2.06,3.16-3.21,5-3.21S502.53,178.06,502.53,179Z"/><path class="cls-1" d="M517.44,177.59h7.78c.6,0,.86.38.86,1.28v.51c0,.9-.26,1.28-.86,1.28a28.6,28.6,0,0,1-3-.12l0,.08a6.49,6.49,0,0,1,1.11,3.68c0,3.93-2.91,7-8.42,7-2.57.08-4.06.81-4.06,2.94,0,2.74,3.46,2.74,6.88,3.17,3.25.43,6.45,1.2,6.45,5.13,0,4.1-3.33,6.45-9.74,6.45-5.13,0-8.85-1.45-8.85-5.3a5.77,5.77,0,0,1,3.89-5.34l0-.09a4.2,4.2,0,0,1-1.71-3.5,5.16,5.16,0,0,1,2.4-4.45,6.46,6.46,0,0,1-3.68-6c0-3.89,2.91-7,8.42-7A11.75,11.75,0,0,1,517.44,177.59ZM508.77,203c0,2.6,3.37,3.07,6.11,3.07,4,0,5.85-1,5.85-3.16,0-3.2-5.94-2.39-9.14-3.38C510.05,200.2,508.77,201.22,508.77,203Zm1-18.68c0,3.12,2.27,4.1,5.09,4.1s5.13-1,5.13-4.1-2.31-4.15-5.13-4.15S509.79,181.18,509.79,184.34Z"/><path class="cls-1" d="M548,188.49c0,.51-.9,1.75-1.41,1.75h-13.5c.34,4.74,2.35,6.88,6.58,6.88,3.72,0,5.81-1.8,6.24-1.8.6,0,1.49,1.67,1.49,2.14,0,1-3.37,2.74-7.69,2.74-7.09,0-10.47-3.64-10.47-11.29s3.42-11.58,10-11.58C545.09,177.33,548,181.22,548,188.49Zm-14.91-1.33h11.11c0-4.49-1.71-6.75-5.13-6.75C535.39,180.41,533.42,182.67,533.13,187.16Z"/><path class="cls-1" d="M570.56,184.25v14.83c0,.6-.51.95-1.71.95h-.17c-1.2,0-1.71-.35-1.71-.95V184.6c0-2.61-1.58-4.15-4.36-4.15a7.13,7.13,0,0,0-5.38,3v15.64c0,.6-.52.95-1.71.95h-.17c-1.2,0-1.71-.35-1.71-.95v-15a24.5,24.5,0,0,0-.52-5.38c0-.81,1.76-1,2.31-1,1,0,1.24,1.71,1.5,2.83a9.18,9.18,0,0,1,6.67-3.21C568,177.33,570.56,179.94,570.56,184.25Z"/><path class="cls-1" d="M592.53,179.3c0,.68-.81,2.3-1.37,2.3a2.86,2.86,0,0,1-.47-.17,11,11,0,0,0-4.66-1c-3.76,0-6.2,2.22-6.2,8.16s1.8,8.55,6.63,8.55a10.75,10.75,0,0,0,4.83-1.11c.25-.09.43-.17.47-.17.6,0,1.45,1.58,1.45,2.18,0,1-3,2.18-6.71,2.18-6.92,0-10.51-3.29-10.51-11.54,0-8.94,5.21-11.33,10.13-11.33C589.41,177.33,592.53,178.27,592.53,179.3Z"/><path class="cls-1" d="M602.14,168.74v2.52c0,.6-.51.94-1.71.94h-.51c-1.2,0-1.71-.34-1.71-.94v-2.52c0-.6.51-.94,1.71-.94h.51C601.63,167.8,602.14,168.14,602.14,168.74Zm-.17,9.7v20.64c0,.6-.51.95-1.71.95h-.17c-1.2,0-1.71-.35-1.71-.95V178.44c0-.6.51-.94,1.71-.94h.17C601.46,177.5,602,177.84,602,178.44Z"/><path class="cls-1" d="M625.69,184v9.57a25,25,0,0,0,.51,5.39c0,.81-1.75,1-2.31,1-1,0-1.23-1.79-1.49-3a9.42,9.42,0,0,1-7.18,3.21c-4.15,0-7.31-2-7.31-6.41,0-7.23,7.65-7.7,14.19-7.78v-2c0-1.93-1.15-3.59-4.7-3.59-3.89,0-6.24,1.79-6.67,1.79-.6,0-1.5-1.66-1.5-2.13,0-1.12,3.77-2.74,8-2.74C622.57,177.33,625.69,179.81,625.69,184Zm-13.93,9.53c0,2.27,1.24,3.51,3.63,3.51a9.39,9.39,0,0,0,6.71-3v-5C617.65,189.13,611.76,189.13,611.76,193.57Z"/><path class="cls-1" d="M643.85,179.12c0,.69-.81,2.31-1.37,2.31a8.27,8.27,0,0,0-3.88-1.11c-2.14,0-3.81,1-3.81,2.69,0,1.93.94,3,3.34,3.72,5.25,1.63,6.83,3,6.83,6.93s-3.33,6.66-7.56,6.66c-3.89,0-6.8-1.7-6.8-2.69,0-.47.9-2.13,1.5-2.13a9.58,9.58,0,0,0,5,1.7c2.74,0,4.19-1.11,4.19-3.46,0-1.92-1.07-2.9-4.27-3.84-4.62-1.37-5.94-3.21-5.94-6.42,0-3.59,2.94-6.19,7.09-6.19C641.12,177.29,643.85,178.19,643.85,179.12Z"/><g id="gato"><path class="cls-1" d="M121.74,45.08,105.35,73.46H72.57L56.18,45.08,11.62,199H167ZM72.36,111.35A9.37,9.37,0,1,1,81.72,102,9.36,9.36,0,0,1,72.36,111.35Zm33.13,0a9.37,9.37,0,1,1,9.36-9.37A9.36,9.36,0,0,1,105.49,111.35Z"/></g><rect class="cls-2" x="105.99" y="95.46" width="47.54" height="74.5" rx="9.42" transform="translate(131.84 -52.88) rotate(45)"/><path class="cls-3" d="M148,129.24h9.48a7.61,7.61,0,0,1,7.61,7.61v53a11.61,11.61,0,0,1-11.61,11.61H152a11.61,11.61,0,0,1-11.61-11.61v-53a7.61,7.61,0,0,1,7.61-7.61Z" transform="translate(-47.61 62.75) rotate(-20.15)"/><circle class="cls-3" cx="140.43" cy="131.74" r="20.58"/></svg>