<svg id="Layer_1" data-name="Layer 1" xmlns="http://www.w3.org/2000/svg" xmlns:xlink="http://www.w3.org/1999/xlink" viewBox="0 0 800 248"><defs><style>.cls-1{fill:#2b2836;}.cls-2{fill:url(#linear-gradient);}</style><linearGradient id="linear-gradient" x1="119" y1="209.25" x2="119" y2="35.25" gradientUnits="userSpaceOnUse"><stop offset="0" stop-color="#199aff"/><stop offset="1" stop-color="#2e63fd"/></linearGradient></defs><title>Imagotipo horizontal</title><path class="cls-1" d="M251.72,154.27v-25.8l-19.87-30.8a64.81,64.81,0,0,1-3.69-6.49,9.89,9.89,0,0,1-1.08-4.05,6.48,6.48,0,0,1,2.19-4.88,7.61,7.61,0,0,1,5.41-2,6.64,6.64,0,0,1,5.14,1.91,58.12,58.12,0,0,1,5.24,7.63l15.2,24.69,15.37-24.69L278,85.91A24.33,24.33,0,0,1,280,83a8.28,8.28,0,0,1,2.52-2.08A7.32,7.32,0,0,1,286,80.2a7.15,7.15,0,0,1,5.19,2,6.39,6.39,0,0,1,2.08,4.69,9.73,9.73,0,0,1-1.06,4.33,55.7,55.7,0,0,1-3.6,6l-20.37,31.24v25.8c0,3.36-.77,5.88-2.33,7.54a8.33,8.33,0,0,1-11.87,0C252.47,160.2,251.72,157.67,251.72,154.27Z"/><path class="cls-1" d="M351.38,133.52A35.69,35.69,0,0,1,349.27,146a27.69,27.69,0,0,1-6.1,9.82,27,27,0,0,1-9.55,6.3,33.72,33.72,0,0,1-12.48,2.19,32.73,32.73,0,0,1-12.37-2.22A27.25,27.25,0,0,1,293.15,146a35.58,35.58,0,0,1-2.08-12.45,36.05,36.05,0,0,1,2.11-12.6,27.26,27.26,0,0,1,6.05-9.76,26.7,26.7,0,0,1,9.54-6.25,36.11,36.11,0,0,1,24.85,0A26.9,26.9,0,0,1,349.3,121,35.93,35.93,0,0,1,351.38,133.52Zm-15.2,0q0-9.27-4.08-14.43a13.24,13.24,0,0,0-11-5.16,13.58,13.58,0,0,0-7.82,2.3,14.58,14.58,0,0,0-5.22,6.8,30.88,30.88,0,0,0,0,20.86,15,15,0,0,0,5.16,6.8,13.44,13.44,0,0,0,7.91,2.36,13.22,13.22,0,0,0,11-5.19Q336.18,142.67,336.18,133.52Z"/><path class="cls-1" d="M363.32,154.27V90.18q0-5,2.28-7.49a7.6,7.6,0,0,1,5.88-2.49,7.84,7.84,0,0,1,6,2.47c1.54,1.64,2.3,4.15,2.3,7.51v64.09c0,3.36-.76,5.88-2.3,7.54a7.8,7.8,0,0,1-6,2.5,7.54,7.54,0,0,1-5.85-2.53Q363.32,159.26,363.32,154.27Z"/><path class="cls-1" d="M409.22,111.1v1.83a26.7,26.7,0,0,1,8.74-7.74,23.35,23.35,0,0,1,10.9-2.47,21.72,21.72,0,0,1,10.71,2.61,16.54,16.54,0,0,1,7.05,7.38,17.64,17.64,0,0,1,1.94,6,61.49,61.49,0,0,1,.44,8.21V155.1c0,3-.69,5.33-2.08,6.88a6.91,6.91,0,0,1-5.41,2.33,7,7,0,0,1-5.49-2.39c-1.4-1.59-2.11-3.86-2.11-6.82V129.85q0-7.48-2.08-11.45t-8.29-4a12.34,12.34,0,0,0-7.38,2.41,13.84,13.84,0,0,0-4.88,6.63q-1.11,3.39-1.11,12.65v19c0,3.07-.72,5.37-2.14,6.91a7.19,7.19,0,0,1-5.52,2.3,6.86,6.86,0,0,1-5.38-2.39Q395,159.54,395,155.1V111.32c0-2.88.63-5,1.89-6.46a6.52,6.52,0,0,1,5.16-2.14,7,7,0,0,1,3.6,1,6.66,6.66,0,0,1,2.58,2.83A9.9,9.9,0,0,1,409.22,111.1Z"/><path class="cls-1" d="M461.17,104.06h3.61V99.51q0-7.11,1.8-11.3a11.49,11.49,0,0,1,6.1-6.1q4.31-1.9,11.79-1.91,13.26,0,13.27,6.49a5.15,5.15,0,0,1-1.39,3.61,4.36,4.36,0,0,1-3.28,1.49,23.73,23.73,0,0,1-3.05-.33,24.88,24.88,0,0,0-3.66-.33c-2.74,0-4.49.8-5.27,2.41a16.26,16.26,0,0,0-1.17,6.91v3.61h3.72q8.66,0,8.66,5.21,0,3.72-2.3,4.72a16.52,16.52,0,0,1-6.36,1h-3.72V155.1q0,4.5-2.13,6.85a7.13,7.13,0,0,1-5.52,2.36,6.94,6.94,0,0,1-5.36-2.36q-2.13-2.35-2.13-6.85V115h-4.16a7.93,7.93,0,0,1-5.22-1.53,4.93,4.93,0,0,1-1.83-4Q453.57,104.06,461.17,104.06Z"/><path class="cls-1" d="M553.73,133.52A35.69,35.69,0,0,1,551.62,146a27.55,27.55,0,0,1-6.1,9.82,26.85,26.85,0,0,1-9.54,6.3,33.78,33.78,0,0,1-12.49,2.19,32.77,32.77,0,0,1-12.37-2.22A27.33,27.33,0,0,1,495.5,146a38.49,38.49,0,0,1,0-25,27.4,27.4,0,0,1,6.05-9.76,26.87,26.87,0,0,1,9.54-6.25,36.14,36.14,0,0,1,24.86,0A26.85,26.85,0,0,1,551.65,121,35.93,35.93,0,0,1,553.73,133.52Zm-15.2,0q0-9.27-4.08-14.43a13.24,13.24,0,0,0-11-5.16,13.63,13.63,0,0,0-7.82,2.3,14.63,14.63,0,0,0-5.21,6.8,30.72,30.72,0,0,0,0,20.86,14.84,14.84,0,0,0,5.16,6.8,13.41,13.41,0,0,0,7.9,2.36,13.22,13.22,0,0,0,11-5.19Q538.53,142.67,538.53,133.52Z"/><path class="cls-1" d="M579,142.45V155.1q0,4.6-2.16,6.91a7.22,7.22,0,0,1-5.49,2.3A6.92,6.92,0,0,1,566,162c-1.41-1.55-2.11-3.85-2.11-6.88V112.93q0-10.2,7.38-10.21,3.76,0,5.43,2.39t1.83,7a26.73,26.73,0,0,1,5.58-7,11.54,11.54,0,0,1,7.63-2.39,19.5,19.5,0,0,1,9.26,2.39q4.5,2.39,4.5,6.32a6,6,0,0,1-1.92,4.58,5.94,5.94,0,0,1-4.13,1.81,19.56,19.56,0,0,1-4-1,18.59,18.59,0,0,0-5.63-1,8.23,8.23,0,0,0-5.44,1.75,11.07,11.07,0,0,0-3.27,5.19,35.67,35.67,0,0,0-1.61,8.18Q579,135.62,579,142.45Z"/><path class="cls-1" d="M662.4,134.63v20.14q0,4.77-2.16,7.15a7.37,7.37,0,0,1-5.72,2.39,7.12,7.12,0,0,1-5.57-2.39q-2.15-2.38-2.14-7.15V130.63a77.24,77.24,0,0,0-.39-8.88,9.61,9.61,0,0,0-2.11-5.18c-1.14-1.35-3-2-5.43-2q-7.44,0-9.8,5.11t-2.35,14.64v20.48c0,3.14-.72,5.52-2.14,7.13a7.14,7.14,0,0,1-5.63,2.41,7.24,7.24,0,0,1-5.63-2.41q-2.21-2.42-2.2-7.13V111.43c0-2.84.66-5,2-6.49a6.62,6.62,0,0,1,5.19-2.22,7.08,7.08,0,0,1,5.19,2.08,7.77,7.77,0,0,1,2.08,5.75V112a26.52,26.52,0,0,1,8.43-6.94,22.27,22.27,0,0,1,10-2.22,19.94,19.94,0,0,1,9.82,2.28,17.84,17.84,0,0,1,6.77,6.88,26.32,26.32,0,0,1,8.21-6.91,20.94,20.94,0,0,1,9.71-2.25,22.12,22.12,0,0,1,10.71,2.45,15.44,15.44,0,0,1,6.71,7q2,4.1,1.94,12.92v29.58q0,4.77-2.16,7.15a7.91,7.91,0,0,1-11.35,0q-2.19-2.42-2.19-7.13V129.3a59.78,59.78,0,0,0-.41-7.82,9,9,0,0,0-2.25-4.94q-1.83-2-5.55-2a10.13,10.13,0,0,0-5.69,1.78,12,12,0,0,0-4.18,4.77Q662.41,124.92,662.4,134.63Z"/><path class="cls-1" d="M767.56,133.52A35.92,35.92,0,0,1,765.45,146a27.57,27.57,0,0,1-6.11,9.82,26.85,26.85,0,0,1-9.54,6.3,33.76,33.76,0,0,1-12.48,2.19A32.73,32.73,0,0,1,725,162.09,27.25,27.25,0,0,1,709.33,146a35.58,35.58,0,0,1-2.08-12.45,36.29,36.29,0,0,1,2.1-12.6,27.54,27.54,0,0,1,6-9.76,26.82,26.82,0,0,1,9.55-6.25,36.11,36.11,0,0,1,24.85,0,27.07,27.07,0,0,1,9.6,6.33,27.46,27.46,0,0,1,6.08,9.76A36.17,36.17,0,0,1,767.56,133.52Zm-15.21,0q0-9.27-4.07-14.43a13.26,13.26,0,0,0-11-5.16,13.58,13.58,0,0,0-7.82,2.3,14.58,14.58,0,0,0-5.22,6.8,30.88,30.88,0,0,0,0,20.86,14.84,14.84,0,0,0,5.16,6.8,13.42,13.42,0,0,0,7.91,2.36,13.23,13.23,0,0,0,11-5.19Q752.35,142.67,752.35,133.52Z"/><path class="cls-2" d="M119,35.25a87,87,0,1,0,87,87A87,87,0,0,0,119,35.25Zm.31,22.35a11.63,11.63,0,1,1-11.64,11.63A11.63,11.63,0,0,1,119.31,57.6Zm46.5,31.83a84.07,84.07,0,0,1-5.21,8.66l-29.44,45.16v37.29q0,7.31-3.37,10.91a12,12,0,0,1-17.16,0q-3.3-3.57-3.29-11V143.25L78.62,98.73a93.82,93.82,0,0,1-5.33-9.38,14.38,14.38,0,0,1-1.56-5.86,9.35,9.35,0,0,1,3.16-7.06,11.05,11.05,0,0,1,7.82-3q4.91,0,7.42,2.76t7.58,11l22,35.69,22.22-35.69,3.37-5.53a33.66,33.66,0,0,1,3-4.21,12.2,12.2,0,0,1,3.65-3,10.59,10.59,0,0,1,4.9-1,10.34,10.34,0,0,1,7.5,2.92,9.21,9.21,0,0,1,3,6.78A14.27,14.27,0,0,1,165.81,89.43Z"/></svg>