<svg id="Layer_1" data-name="Layer 1" xmlns="http://www.w3.org/2000/svg" xmlns:xlink="http://www.w3.org/1999/xlink" viewBox="0 0 400 400"><defs><style>.cls-1{fill:#2b2836;}.cls-2{fill:url(#linear-gradient);}.cls-3{fill:#fff;}</style><linearGradient id="linear-gradient" x1="204.71" y1="271.95" x2="204.71" y2="46.95" gradientUnits="userSpaceOnUse"><stop offset="0" stop-color="#199aff"/><stop offset="1" stop-color="#2e63fd"/></linearGradient></defs><title>Imagotipo</title><path class="cls-1" d="M49.12,333V317.16l-12.2-18.92a37.76,37.76,0,0,1-2.27-4,6.09,6.09,0,0,1-.66-2.49,4,4,0,0,1,1.34-3,4.69,4.69,0,0,1,3.32-1.26,4.09,4.09,0,0,1,3.16,1.18A35.48,35.48,0,0,1,45,293.37l9.34,15.16,9.44-15.16L65.24,291a15.28,15.28,0,0,1,1.28-1.79A5,5,0,0,1,68.07,288a4.8,4.8,0,0,1,5.26.8,3.88,3.88,0,0,1,1.28,2.88,6.07,6.07,0,0,1-.64,2.66A38.2,38.2,0,0,1,71.75,298L59.24,317.16V333a6.6,6.6,0,0,1-1.43,4.63,4.77,4.77,0,0,1-3.65,1.53,4.71,4.71,0,0,1-3.64-1.51A6.63,6.63,0,0,1,49.12,333Z"/><path class="cls-1" d="M110.34,320.26a22.09,22.09,0,0,1-1.29,7.67,17,17,0,0,1-3.75,6,16.66,16.66,0,0,1-5.86,3.87,20.71,20.71,0,0,1-7.67,1.34,20.1,20.1,0,0,1-7.6-1.36,17,17,0,0,1-5.85-3.9,16.76,16.76,0,0,1-3.75-6,22,22,0,0,1-1.28-7.65,22.29,22.29,0,0,1,1.3-7.74,16.84,16.84,0,0,1,3.71-6,16.43,16.43,0,0,1,5.87-3.83,22.11,22.11,0,0,1,15.27,0,16.53,16.53,0,0,1,5.89,3.88,16.84,16.84,0,0,1,3.74,6A22.12,22.12,0,0,1,110.34,320.26Zm-9.34,0q0-5.7-2.5-8.86a8.12,8.12,0,0,0-6.73-3.17A8.37,8.37,0,0,0,87,309.64a9,9,0,0,0-3.2,4.18,18.87,18.87,0,0,0,0,12.81,9.21,9.21,0,0,0,3.17,4.18,8.28,8.28,0,0,0,4.86,1.45,8.14,8.14,0,0,0,6.73-3.19C100.17,326.94,101,324,101,320.26Z"/><path class="cls-1" d="M117.68,333V293.64a6.63,6.63,0,0,1,1.4-4.6,4.63,4.63,0,0,1,3.61-1.54,4.83,4.83,0,0,1,3.7,1.52,6.58,6.58,0,0,1,1.41,4.62V333a6.64,6.64,0,0,1-1.41,4.63,4.81,4.81,0,0,1-3.7,1.53,4.62,4.62,0,0,1-3.59-1.55A6.59,6.59,0,0,1,117.68,333Z"/><path class="cls-1" d="M145.88,306.49v1.12a16.23,16.23,0,0,1,5.37-4.75,14.28,14.28,0,0,1,6.69-1.52,13.44,13.44,0,0,1,6.58,1.6,10.16,10.16,0,0,1,4.33,4.54,10.75,10.75,0,0,1,1.19,3.68,38.28,38.28,0,0,1,.28,5v17.32a6.15,6.15,0,0,1-1.28,4.22,4.23,4.23,0,0,1-3.33,1.43,4.27,4.27,0,0,1-3.37-1.46,6.16,6.16,0,0,1-1.3-4.19V318a15.56,15.56,0,0,0-1.27-7c-.85-1.62-2.55-2.44-5.1-2.44a7.52,7.52,0,0,0-4.53,1.49,8.44,8.44,0,0,0-3,4.07,29,29,0,0,0-.68,7.77v11.66a6,6,0,0,1-1.32,4.24,4.41,4.41,0,0,1-3.39,1.41,4.18,4.18,0,0,1-3.3-1.46,6.11,6.11,0,0,1-1.3-4.19v-26.9a5.88,5.88,0,0,1,1.16-4,4,4,0,0,1,3.17-1.31,4.38,4.38,0,0,1,2.22.58,4.19,4.19,0,0,1,1.58,1.74A6.1,6.1,0,0,1,145.88,306.49Z"/><path class="cls-1" d="M177.79,302.16H180v-2.79a18,18,0,0,1,1.1-6.94,7,7,0,0,1,3.75-3.75,18.27,18.27,0,0,1,7.25-1.18q8.14,0,8.14,4a3.15,3.15,0,0,1-.85,2.22,2.67,2.67,0,0,1-2,.92,14.18,14.18,0,0,1-1.88-.21,15.87,15.87,0,0,0-2.25-.2c-1.68,0-2.76.49-3.23,1.48a10,10,0,0,0-.72,4.24v2.22h2.28q5.32,0,5.32,3.2c0,1.53-.47,2.49-1.41,2.9a10.1,10.1,0,0,1-3.91.61h-2.28v24.65a6.1,6.1,0,0,1-1.31,4.21,4.39,4.39,0,0,1-3.39,1.44,4.25,4.25,0,0,1-3.29-1.44,6.05,6.05,0,0,1-1.31-4.21V308.87h-2.56a4.88,4.88,0,0,1-3.2-.93,3,3,0,0,1-1.13-2.44Q173.12,302.15,177.79,302.16Z"/><path class="cls-1" d="M234.65,320.26a22.09,22.09,0,0,1-1.29,7.67,17.09,17.09,0,0,1-3.75,6,16.61,16.61,0,0,1-5.87,3.87,20.62,20.62,0,0,1-7.66,1.34,20.16,20.16,0,0,1-7.61-1.36,17,17,0,0,1-5.84-3.9,16.76,16.76,0,0,1-3.75-6,23.6,23.6,0,0,1,0-15.39,16.84,16.84,0,0,1,3.71-6,16.48,16.48,0,0,1,5.86-3.83,22.11,22.11,0,0,1,15.27,0,16.44,16.44,0,0,1,9.63,9.88A21.89,21.89,0,0,1,234.65,320.26Zm-9.34,0q0-5.7-2.5-8.86a8.12,8.12,0,0,0-6.73-3.17,8.37,8.37,0,0,0-4.81,1.41,8.93,8.93,0,0,0-3.2,4.18,18.87,18.87,0,0,0,0,12.81,9.14,9.14,0,0,0,3.17,4.18,8.26,8.26,0,0,0,4.86,1.45,8.14,8.14,0,0,0,6.73-3.19C224.48,326.94,225.31,324,225.31,320.26Z"/><path class="cls-1" d="M250.17,325.75v7.77a6,6,0,0,1-1.33,4.24,4.44,4.44,0,0,1-3.37,1.41,4.23,4.23,0,0,1-3.31-1.43,6.11,6.11,0,0,1-1.3-4.22V307.61c0-4.18,1.52-6.27,4.54-6.27a3.78,3.78,0,0,1,3.34,1.47,8.13,8.13,0,0,1,1.12,4.33,16.46,16.46,0,0,1,3.43-4.33,7.05,7.05,0,0,1,4.68-1.47,12,12,0,0,1,5.7,1.47q2.76,1.47,2.76,3.88a3.92,3.92,0,0,1-3.72,3.92,11.77,11.77,0,0,1-2.47-.63,11.52,11.52,0,0,0-3.46-.63,5.09,5.09,0,0,0-3.34,1.07,7,7,0,0,0-2,3.19,22.06,22.06,0,0,0-1,5Q250.17,321.55,250.17,325.75Z"/><path class="cls-1" d="M301.41,320.94v12.37a6.39,6.39,0,0,1-1.33,4.4,4.51,4.51,0,0,1-3.51,1.46,4.38,4.38,0,0,1-3.43-1.46,6.44,6.44,0,0,1-1.31-4.4V318.49a47.51,47.51,0,0,0-.24-5.46,5.94,5.94,0,0,0-1.29-3.18A4.16,4.16,0,0,0,287,308.6c-3,0-5,1-6,3.14s-1.45,5.09-1.45,9v12.57a6.46,6.46,0,0,1-1.31,4.38,4.4,4.4,0,0,1-3.46,1.48,4.46,4.46,0,0,1-3.46-1.48,6.31,6.31,0,0,1-1.35-4.38V306.69a5.83,5.83,0,0,1,1.21-4,4.07,4.07,0,0,1,3.19-1.37,4.34,4.34,0,0,1,3.19,1.28,4.78,4.78,0,0,1,1.28,3.53V307a16.19,16.19,0,0,1,5.18-4.26,13.76,13.76,0,0,1,6.13-1.36,12.27,12.27,0,0,1,6,1.4,10.89,10.89,0,0,1,4.16,4.22,16.12,16.12,0,0,1,5.05-4.24,12.85,12.85,0,0,1,6-1.38,13.58,13.58,0,0,1,6.58,1.5A9.55,9.55,0,0,1,322,307.2c.8,1.69,1.2,4.33,1.2,7.95v18.16a6.39,6.39,0,0,1-1.33,4.4,4.51,4.51,0,0,1-3.51,1.46,4.46,4.46,0,0,1-3.46-1.48,6.31,6.31,0,0,1-1.35-4.38V317.67a36.19,36.19,0,0,0-.25-4.81,5.52,5.52,0,0,0-1.38-3,4.4,4.4,0,0,0-3.41-1.23,6.33,6.33,0,0,0-3.5,1.09,7.45,7.45,0,0,0-2.57,2.93Q301.41,315,301.41,320.94Z"/><path class="cls-1" d="M366,320.26a22.09,22.09,0,0,1-1.29,7.67,16.52,16.52,0,0,1-9.61,9.9,20.68,20.68,0,0,1-7.67,1.34,20.1,20.1,0,0,1-7.6-1.36,16.75,16.75,0,0,1-9.6-9.9,22,22,0,0,1-1.27-7.65,22.29,22.29,0,0,1,1.29-7.74,16.73,16.73,0,0,1,3.72-6,16.3,16.3,0,0,1,5.86-3.83,22.11,22.11,0,0,1,15.27,0,16.53,16.53,0,0,1,5.89,3.88,16.7,16.7,0,0,1,3.74,6A22.12,22.12,0,0,1,366,320.26Zm-9.33,0q0-5.7-2.51-8.86a8.11,8.11,0,0,0-6.73-3.17,8.37,8.37,0,0,0-4.81,1.41,9,9,0,0,0-3.2,4.18,18.87,18.87,0,0,0,0,12.81,9.21,9.21,0,0,0,3.17,4.18,8.3,8.3,0,0,0,4.86,1.45,8.13,8.13,0,0,0,6.73-3.19C355.83,326.94,356.67,324,356.67,320.26Z"/><circle class="cls-2" cx="204.71" cy="159.45" r="112.5"/><path class="cls-3" d="M189.63,234.83V186.6L152.5,129a120.81,120.81,0,0,1-6.9-12.14,18.59,18.59,0,0,1-2-7.57,12.06,12.06,0,0,1,4.1-9.12,14.22,14.22,0,0,1,10.11-3.84q6.33,0,9.6,3.58t9.8,14.26l28.41,46.15,28.73-46.15,4.36-7.16a44.59,44.59,0,0,1,3.89-5.44,15.63,15.63,0,0,1,4.72-3.9,13.7,13.7,0,0,1,6.32-1.34,13.35,13.35,0,0,1,9.7,3.78,11.87,11.87,0,0,1,3.89,8.77,18.41,18.41,0,0,1-2,8.09,105,105,0,0,1-6.74,11.2L220.44,186.6v48.23q0,9.43-4.36,14.1a15.59,15.59,0,0,1-22.2,0Q189.64,244.38,189.63,234.83Z"/><circle class="cls-3" cx="205.11" cy="96.06" r="15.04"/></svg>