<svg id="Layer_1" data-name="Layer 1" xmlns="http://www.w3.org/2000/svg" xmlns:xlink="http://www.w3.org/1999/xlink" viewBox="0 0 400 400"><defs><style>.cls-1{fill:url(#linear-gradient);}.cls-2{fill:#fff;}</style><linearGradient id="linear-gradient" x1="200" y1="394.16" x2="200" y2="5.84" gradientUnits="userSpaceOnUse"><stop offset="0" stop-color="#199aff"/><stop offset="1" stop-color="#2e63fd"/></linearGradient></defs><title>Isotipo</title><circle class="cls-1" cx="200" cy="200" r="194.16"/><path class="cls-2" d="M174,330.09V246.85l-64.08-99.34A206.49,206.49,0,0,1,98,126.56Q94.5,119,94.5,113.49a20.86,20.86,0,0,1,7.07-15.75A24.57,24.57,0,0,1,119,91.12q10.92,0,16.56,6.18t16.91,24.61l49,79.65,49.58-79.65q4.49-7.34,7.52-12.35a77.85,77.85,0,0,1,6.71-9.4,26.87,26.87,0,0,1,8.15-6.71,23.44,23.44,0,0,1,10.92-2.33,23.08,23.08,0,0,1,16.74,6.53q6.7,6.54,6.71,15.13a31.73,31.73,0,0,1-3.4,14,180.73,180.73,0,0,1-11.64,19.33L227.14,246.85v83.24q0,16.29-7.52,24.35t-19.15,8.05q-11.82,0-19.16-8T174,330.09Z"/><circle class="cls-2" cx="200.68" cy="90.59" r="25.96"/></svg>