<svg id="Layer_1" data-name="Layer 1" xmlns="http://www.w3.org/2000/svg" viewBox="0 0 632 200"><defs><style>.cls-1{fill:#6e6d6d;}.cls-2{fill:#212020;}.cls-3{fill:#b31e20;}.cls-4,.cls-5{fill:#b69547;}.cls-5{fill-rule:evenodd;}.cls-6{fill:#15467a;}.cls-7{fill:#c3c3c2;}.cls-8{fill:#fff;}.cls-9{fill:#ebde44;}.cls-10{fill:#e7933e;}</style></defs><title>imago-citi-usach-color</title><path class="cls-1" d="M155.32,171a1.13,1.13,0,0,1-1-1.23V10a1,1,0,1,1,2,0V169.81A1.13,1.13,0,0,1,155.32,171Z"/><path class="cls-2" d="M134.1,35.67l-.82-.51a4.28,4.28,0,0,0,.84-.86,4.22,4.22,0,0,0,.81-2.51,3.41,3.41,0,0,0-.06-.71,4.27,4.27,0,0,0-1.75-2.81,4.32,4.32,0,0,0-5.21.13h0l0,0a.41.41,0,0,0-.15.32.43.43,0,0,0,.08.24.41.41,0,0,0,.56.1,1.66,1.66,0,1,1-.06,2.71l-5.89-4.22,4.32-6c.1-.14,1-1.32,2.72-.13a1.61,1.61,0,0,1,.72,1.11,2.46,2.46,0,0,1-.79,1.79.41.41,0,0,0,.23.68,3.76,3.76,0,0,0,3.45-1.68c1.43-1.92-.06-4.62-.12-4.73a11.12,11.12,0,0,1-.66-7.1.41.41,0,0,0-.16-.44.43.43,0,0,0-.46,0,11.11,11.11,0,0,1-7,1.67c-.22,0-3.17-.54-4.5,1.4a3.73,3.73,0,0,0-.48,3.8.4.4,0,0,0,.35.22.42.42,0,0,0,.37-.21,2.45,2.45,0,0,1,1.44-1.33,1.53,1.53,0,0,1,1.27.33,2.28,2.28,0,0,1,1.06,1.45,1.48,1.48,0,0,1,0,.21,1.76,1.76,0,0,1-.3.94l-4.32,6-5.88-4.22A1.79,1.79,0,0,1,113,20a1.63,1.63,0,0,1,.3-.93,1.66,1.66,0,0,1,1.09-.67,1.65,1.65,0,0,1,1.86,2.07.4.4,0,0,0,.27.5.42.42,0,0,0,.51-.25.43.43,0,0,1,0-.05h0a4.31,4.31,0,0,0,.26-1.45,4.32,4.32,0,0,0-7.84-2.53,4.67,4.67,0,0,0-.54,1.07l-.75-.6c-2.18-1.57-5-2.52-5.93-1.22a1.36,1.36,0,0,0-.25.81c0,1.34,1.53,3.14,3.31,4.42l.81.51a4.29,4.29,0,0,0-.84.86,4.32,4.32,0,0,0,6.35,5.78.41.41,0,0,0,.09-.53.42.42,0,0,0-.51-.16,1.93,1.93,0,0,1-1.69-.39,1.68,1.68,0,0,1-.39-2.32,1.61,1.61,0,0,1,1.07-.68,1.67,1.67,0,0,1,1.24.29l1,.74s4,2.86,4.75,3.41a9.81,9.81,0,0,1-5.09,1.42.44.44,0,0,0-.31.13.4.4,0,0,0-.11.31c.15,2.34-1.86,5.53-3,7.12h-70l-3.59-4.8c.5-.59,1.15-1.39,1.15-1.39l.31-.4A1.84,1.84,0,0,0,35,28.24a1.44,1.44,0,0,0-1.07.52l0,0-.63-.88-.82-1.13-.66-.92.88-1.1a1.37,1.37,0,0,0,.29-.88,1.48,1.48,0,0,0,0-.21,1.89,1.89,0,0,0-.7-1.28A1.85,1.85,0,0,0,30.93,22a1.52,1.52,0,0,0-.76.31c.28-1.62-.5-3.18-2.42-5.69-1-1.25-1.46-2.61-2.3-5.38a.42.42,0,0,0-.4-.29.41.41,0,0,0-.4.29,29.19,29.19,0,0,0-.78,3.3,20.49,20.49,0,0,0-6-7,.42.42,0,0,0-.47,0,.39.39,0,0,0-.18.34.28.28,0,0,0,0,.09,22.87,22.87,0,0,1,.4,4.06,9.57,9.57,0,0,1-.9,4.48,8,8,0,0,0-1.07,3.32c-.15-.62-.28-1.26-.35-1.76a.39.39,0,0,0-.33-.34.4.4,0,0,0-.44.21A11.64,11.64,0,0,0,13,23.4a8.2,8.2,0,0,0,.32,2.29,9.82,9.82,0,0,1-.55-.84.42.42,0,0,0-.49-.19.43.43,0,0,0-.29.43c.32,3.46,1.39,5.83,3.18,7.06a4.87,4.87,0,0,0,2.14.84,1.46,1.46,0,0,0-.6.79,1.89,1.89,0,0,0,.12,1.4,2,2,0,0,0,1.14.91A1.43,1.43,0,0,0,19.09,36l1.24-.67.79.83.95,1,.75.79h0a1.71,1.71,0,0,0-.54,2.27,1.87,1.87,0,0,0,1.09.89,1.54,1.54,0,0,0,1.16-.07l.49-.25L26.54,40l4.39,4.79V95.11A41,41,0,0,0,43,124.26c.36.37.74.72,1.11,1.07l-.4.58c-3.36,4.68-5.12,10.12-4,10.9a1,1,0,0,0,.75.14c1.61-.27,5.33-3.33,8.29-7.46l.2-.31a41.23,41.23,0,0,0,45.5.64c3.55,4.57,7.91,8,9.22,7s-.73-6.49-3.82-11.15c.52-.47,1-1,1.51-1.44a41,41,0,0,0,12.09-29.15V43.23l.29-.41s.24-.36.24-.36l0,0c.8-1.18,3.61-5.06,6.29-5.79a.41.41,0,0,0,.25-.2.45.45,0,0,0,0-.19.68.68,0,0,0,0-.14,11,11,0,0,1-.59-3.42,6,6,0,0,1,.31-1.86L126.07,35a1.68,1.68,0,0,1,.69,1.35,1.64,1.64,0,0,1-.31,1,1.7,1.7,0,0,1-2.33.37,1.91,1.91,0,0,1-.91-1.47.4.4,0,0,0-.32-.42.4.4,0,0,0-.47.24,4.32,4.32,0,0,0,7.51,4.15,4,4,0,0,0,.54-1.07l.75.61c1.8,1.29,3.73,2,4.92,1.8a1.53,1.53,0,0,0,1-.58,1.39,1.39,0,0,0,.25-.82C137.41,38.75,135.88,37,134.1,35.67Z"/><path class="cls-3" d="M15.62,31.47c-1.26-.88-2.1-2.5-2.54-4.77a3.16,3.16,0,0,0,1.33,1,.41.41,0,0,0,.45-.17.39.39,0,0,0,.07-.23.38.38,0,0,0-.08-.25,6.12,6.12,0,0,1-1-3.63,10.32,10.32,0,0,1,.9-4c.24,1.1.68,2.57,1.38,3.08a.42.42,0,0,0,.5,0,.45.45,0,0,0,.15-.33.45.45,0,0,0,0-.16,4.14,4.14,0,0,1-.28-1.65,7.06,7.06,0,0,1,1-3.48,10.44,10.44,0,0,0,1-4.91,22.9,22.9,0,0,0-.24-3.15,18.1,18.1,0,0,1,5.55,7.66.42.42,0,0,0,.81-.14.17.17,0,0,0,0-.07s0-.09,0-.26a14.15,14.15,0,0,1,.52-3.19,13.7,13.7,0,0,0,2,4.3c1.6,2.09,2.33,3.41,2.33,4.6A5.69,5.69,0,0,1,27.87,25a35.76,35.76,0,0,1-3.6,3.39,34.07,34.07,0,0,1-5.44,3.75A4.37,4.37,0,0,1,15.62,31.47Z"/><path class="cls-4" d="M20.2,34.5l-.45.25c-.44.22-1,.55-1,.55a.73.73,0,0,1-.51,0,1.17,1.17,0,0,1-.65-.51A1,1,0,0,1,17.5,34a.55.55,0,0,1,.27-.36c.46-.25.91-.48,1.34-.73a34.2,34.2,0,0,0,5.66-3.88,35.88,35.88,0,0,0,3.71-3.49c.74-.82,1.42-1.64,2.14-2.55a.57.57,0,0,1,.4-.2,1,1,0,0,1,.74.21h0a1.11,1.11,0,0,1,.38.74.7.7,0,0,1-.1.48l-.74.92c-.18.22-.31.4-.31.4a.46.46,0,0,0-.07.07c-.34.41-.69.81-1.06,1.21l-.07.08-.49.52-.11.12-.5.5-.06.06c-.79.78-1.65,1.54-2.64,2.36-.48.41-.95.78-1.4,1.13l-.09.06-.4.3-.38.29-.27.19-.44.31-.36.24-.3.19C21.67,33.65,21,34.08,20.2,34.5Z"/><path class="cls-4" d="M22.67,36.63l-1-1L21.08,35a36.74,36.74,0,0,0,5.42-3.79,38.45,38.45,0,0,0,4.77-4.65c.26.38.54.75.54.75l.81,1.13.78,1.08c-.11.12-.21.26-.31.38l-.17.21-.19.25-.22.26-.14.17c-.13.15-.24.29-.37.43h0l-.23.25,0,0-.22.24,0,0-.22.23,0,0-.22.23-.06.06c-.07.07-.16.14-.23.22l-.07.07-.23.21-.11.1-.22.2-.14.13-.21.18-.22.19-.16.14-.41.35-.42.34-.26.21-.14.1-.27.21-.1.09-.28.21-.08.06-.28.2-.06,0-.28.2-.05,0-.27.18s0,0,0,0l-.27.18,0,0-.27.16,0,0-.27.16,0,0-.28.15,0,0-.28.15,0,0-.29.16h0l-.56.3-.41.21s0,0,0,0C23.29,37.3,22.67,36.63,22.67,36.63Z"/><path class="cls-4" d="M26,39.38l-1.35.73-.5.25a.66.66,0,0,1-.52,0A1.09,1.09,0,0,1,23,39.9c-.2-.39-.16-1,.19-1.17l.44-.23.06,0a26.1,26.1,0,0,0,5.77-3.75,26.27,26.27,0,0,0,4.79-5l0,0,.1-.14.07-.08h0l.16-.22a.64.64,0,0,1,.48-.21.9.9,0,0,1,.66.22,1.2,1.2,0,0,1,.43.82.64.64,0,0,1-.15.41l-.3.4-1,1.22-.62.76a22.38,22.38,0,0,1-2.33,2.35c-.34.3-.69.61-1.07.92l0,0c-.36.31-.73.6-1.08.87a22.44,22.44,0,0,1-2.76,1.87Z"/><path class="cls-4" d="M30.93,43.58c-1.11-1.21-3-3.25-3.65-4a27.3,27.3,0,0,0,3.91-2.78,27.72,27.72,0,0,0,3.49-3.35c.63.83,2.18,2.91,3.1,4.14H30.93Z"/><path class="cls-3" d="M48.07,129c-3.32,4.64-7.08,7.23-7.85,7.13a.78.78,0,0,1,0-.26c0-1.2,1.15-5.22,4.23-9.5l.34-.49a39.77,39.77,0,0,0,3.54,2.82Z"/><path class="cls-4" d="M103.15,135.81a.74.74,0,0,1-.05.3c-.74.13-4.39-2.33-7.87-6.79a41.87,41.87,0,0,0,3.93-3C102,130.65,103.15,134.58,103.15,135.81Z"/><path class="cls-3" d="M136.49,40.42a.69.69,0,0,1-.48.24c-.82.14-2.46-.32-4.31-1.65l-1.16-.94a.43.43,0,0,0-.42-.08.43.43,0,0,0-.27.31,3.42,3.42,0,0,1-.58,1.36,3.5,3.5,0,0,1-6.35-2v0a3,3,0,0,0,.75.72,2.48,2.48,0,0,0,2.88-4l-6.25-4.47a.41.41,0,0,0-.34-.07.4.4,0,0,0-.26.23,6.47,6.47,0,0,0-.53,2.72,11.7,11.7,0,0,0,.51,3.3c-2.64,1-5.14,4.2-6.23,5.78V37.61h-3.69c1.13-1.69,2.71-4.43,2.77-6.74,1.07,0,3.92-.31,5.68-1.95a.43.43,0,0,0,.13-.3,0,0,0,0,0,0,0,.4.4,0,0,0-.16-.31L113,24.55l-1-.74a2.51,2.51,0,0,0-1.86-.43,2.45,2.45,0,0,0-1.6,1A2.4,2.4,0,0,0,108,25.8a2.58,2.58,0,0,0,1,2,2.61,2.61,0,0,0,.88.48,3.45,3.45,0,0,1-3.13-.45A3.52,3.52,0,0,1,106,23a3.39,3.39,0,0,1,1.12-1,.43.43,0,0,0,.19-.35.44.44,0,0,0-.2-.36l-1.28-.8c-2.37-1.7-3.27-3.52-2.87-4.09s2.43-.28,4.79,1.41l1.17.95a.43.43,0,0,0,.41.07.4.4,0,0,0,.27-.29,3.49,3.49,0,0,1,6.78-.33c-.08-.06-.14-.14-.22-.2a2.42,2.42,0,0,0-1.84-.43,2.48,2.48,0,0,0-1.63,1A2.52,2.52,0,0,0,113.2,22l6.26,4.49a.48.48,0,0,0,.31.07.41.41,0,0,0,.26-.17L124.59,20a2.47,2.47,0,0,0,.44-1.76,3.06,3.06,0,0,0-1.39-2,2.34,2.34,0,0,0-1.93-.46,2.66,2.66,0,0,0-1.45,1,2,2,0,0,1,0-.25,3.36,3.36,0,0,1,.65-1.93c1-1.52,3.67-1.05,3.69-1.05h0a11.88,11.88,0,0,0,6.73-1.33,11.28,11.28,0,0,0-.17,1.86A11.8,11.8,0,0,0,132.21,19a5.5,5.5,0,0,1,.65,2.35,2.41,2.41,0,0,1-.46,1.49,3.24,3.24,0,0,1-1.86,1.3,2.83,2.83,0,0,0,.46-1.45.86.86,0,0,0,0-.23,2.36,2.36,0,0,0-1-1.68,3.05,3.05,0,0,0-2.29-.66,2.62,2.62,0,0,0-1.58,1l-4.55,6.35a.37.37,0,0,0-.07.3.35.35,0,0,0,.17.27l6.21,4.45a2.52,2.52,0,0,0,3.48-.55,2.4,2.4,0,0,0,.46-1.44,2.45,2.45,0,0,0-1-2c-.09-.06-.19-.09-.28-.14a3.48,3.48,0,0,1,3,5.51,3.23,3.23,0,0,1-1.11,1,.42.42,0,0,0-.19.35.41.41,0,0,0,.2.37l1.27.79C136,38,136.89,39.86,136.49,40.42Z"/><path class="cls-2" d="M114.39,165.65l0,0,.07,0a11.08,11.08,0,0,0,1.46.76c1.57.9,4,2.35,5.67,3.41.15.1,3.81,2.43,6.66.15,5.12-4.09,1-18.28.28-20.7a15.76,15.76,0,0,0,1-1.5c1.9-3.29.72-4.86.11-5.39l0,0-8.63-8.36q-.15-.17-.36-.36a4.1,4.1,0,0,0-.4-.29,2.74,2.74,0,0,0-1.07-.43,2.16,2.16,0,0,0-1.68.52c-1.32,1.08-1.81,4.32-2,6-3.91,3.05-11,6.81-23.53,9.71l-1.62-3.49A3.47,3.47,0,0,0,87.27,144l-.91.1-.17.05a52.39,52.39,0,0,1-12.92,1.5h-2.2a52.14,52.14,0,0,1-12.95-1.51l-.14,0-.93-.11a3.46,3.46,0,0,0-3.13,1.78l-1.56,3.33c-12.11-2.88-19-6.55-22.8-9.54-.16-1.69-.65-4.93-2-6a2.15,2.15,0,0,0-1.67-.52,2.73,2.73,0,0,0-1.08.43,2.45,2.45,0,0,0-.35.26,5.11,5.11,0,0,0-.46.44l-8.57,8.3c-.6.53-1.77,2.1.12,5.37a14.71,14.71,0,0,0,1,1.51c-.75,2.43-4.84,16.61.29,20.7,2.85,2.28,6.5,0,6.66-.15,1.7-1.06,7.31-4.28,7.4-4.34a3.07,3.07,0,0,0,1.41-3.62.39.39,0,0,0-.55-.21l-4,2.39c-1.1-2.2.34-5.13.69-5.77a76.75,76.75,0,0,0,16.69,6c3.86.82,4.54-2,4.55-2l.79-2.19.22-.59.11,0a68,68,0,0,0,20,2.85H73.5a68.15,68.15,0,0,0,20-2.85l.72-.24c.09.14.18.3.28.48l.93,2.55a2.31,2.31,0,0,0,.17.45c.39.75,1.5,2.13,4.36,1.53a76.61,76.61,0,0,0,16.7-6c.35.66,1.78,3.57.68,5.77l-4-2.39a.42.42,0,0,0-.33,0,.37.37,0,0,0-.21.23,3,3,0,0,0,1.41,3.62A.28.28,0,0,0,114.39,165.65Z"/><path class="cls-4" d="M31.69,162.62c0,.06,0,.1,0,.17a2.83,2.83,0,0,1-.3,1.25,2.93,2.93,0,0,1-1.07,1,2.19,2.19,0,0,1-2.13-.3C29.58,163.88,31.21,162.92,31.69,162.62Z"/><path class="cls-4" d="M26.64,162.21a4.87,4.87,0,0,0,.51,2.25c.08.14.16.29.25.43l.1.13.06.07a2.09,2.09,0,0,0,1.2.73h0l-1.11.65c-1.93,1.13-4.15,2.51-4.54,2.75,0,0-3.37,2.14-5.8.2-1.69-1.35-2.25-4-2.25-7A50,50,0,0,1,17.14,150a33.79,33.79,0,0,0,10.12,7.64l.51.41A9.36,9.36,0,0,0,26.64,162.21Z"/><path class="cls-4" d="M45.34,163.55a75.09,75.09,0,0,1-17.61-6.46,43.77,43.77,0,0,1-5.25-3.21L20.12,152a20,20,0,0,1-3.05-3.29,15.09,15.09,0,0,1-.85-1.29,5.81,5.81,0,0,1-.93-2.84A2,2,0,0,1,16,143l8.11-7.85.41-.4a1.34,1.34,0,0,0,.09.46l.17.29.08.14a18.86,18.86,0,0,0,4.83,4.95c4.07,3,10.91,6.44,22.4,9.19L47.77,159l-.06.14a1.32,1.32,0,0,0-.05.23,8.18,8.18,0,0,0,.73,3.19,2.93,2.93,0,0,0,.16.38C48.07,163.41,47.14,163.93,45.34,163.55Z"/><path class="cls-4" d="M49.85,159.74a3.68,3.68,0,0,0-.15.41c-.41,1.14-.69,1.9-.69,1.9v0a15.25,15.25,0,0,1-.63-2.54.57.57,0,0,1,0-.14,1.39,1.39,0,0,1,1.15-.34l.5.17Z"/><path class="cls-4" d="M94.56,158.37l-.49.16-.88.29a67.21,67.21,0,0,1-19.69,2.79H70.83a67.46,67.46,0,0,1-19.67-2.78l-.17-.06-.7-.23-.51-.17a1.73,1.73,0,0,0-.91,0,1.59,1.59,0,0,0,.08-.18l3.83-8.24c.11-.23.22-.46.32-.69l1.46-3.14a2.77,2.77,0,0,1,2.49-1.4l.76.09.1,0a53,53,0,0,0,13.16,1.54h2.2a53.32,53.32,0,0,0,13.14-1.53l.12,0,.74-.09a2.74,2.74,0,0,1,2.48,1.37l1.56,3.34,1.13,2.44c1.28,2.74,2.59,5.57,2.94,6.32a1.2,1.2,0,0,1,.08.18,2,2,0,0,0-.68,0Z"/><path class="cls-4" d="M95.71,160.91,95,159.05a1.36,1.36,0,0,1,.92.37h0s0,0,0,0,0,.06,0,.09A6.05,6.05,0,0,1,95.71,160.91Z"/><path class="cls-4" d="M99.81,163.55c-3.12.66-3.64-1.37-3.67-1.46v0a9.18,9.18,0,0,0,.57-2.25c.39-.12.76-.25.82-.28s.52-.11,1-.26c.1,0,.17-.08.15-.13s-.07-.07-.15,0a1.42,1.42,0,0,1-.42.07c-.17,0-.32-.15-.5-.7l-1-2.93h0c.19.08,1.26.72,2.34,1.25s2.27,1.13,2.88,1.42a.5.5,0,0,0,.36.06c.07,0,.11-.1.07-.27l-1.25-4.58c-.11-.41-.09-.55.1-.68a.78.78,0,0,1,.24-.09c.08,0,.12-.08.1-.12s-.09,0-.2,0l-.75.24c-.16.06-.58.16-1,.28-.11,0-.19.07-.17.13s0,.06.13,0a1.55,1.55,0,0,1,.43-.07c.2,0,.31.12.45.56l1,3.19h0c-.15-.06-1.48-.78-2.16-1.13-1.44-.73-3-1.54-3.07-1.61a.86.86,0,0,0-.41-.14c-.08,0-.1.15-.05.29l1.18,4.31c.18.63.2.83,0,.94l-.24.11a1.78,1.78,0,0,0,0-.34v0s0,0,0,0a.19.19,0,0,0,0-.07v0l0,0h0a1.29,1.29,0,0,0-.09-.16v0l-.36-.79-3.82-8.2c11.93-2.78,19-6.28,23.14-9.36a18.78,18.78,0,0,0,4.82-4.95l.12-.18.14-.26a1.28,1.28,0,0,0,.09-.44c.1.09.24.22.4.39l8.11,7.85a2,2,0,0,1,.67,1.61,5.84,5.84,0,0,1-.94,2.84,13,13,0,0,1-.85,1.29,19.53,19.53,0,0,1-3,3.29l-2.37,1.89a47.22,47.22,0,0,1-5.24,3.2A75.55,75.55,0,0,1,99.81,163.55Z"/><path class="cls-4" d="M117.59,165.09l.08-.09a.11.11,0,0,0,0-.06l.06-.08,0,0,0,0a3.84,3.84,0,0,0,.22-.39,4.8,4.8,0,0,0,.53-2.25,9.5,9.5,0,0,0-1.13-4.13s0-.08-.06-.11l.56-.29A33.65,33.65,0,0,0,128,150a49.8,49.8,0,0,1,2.07,12.41c0,3-.56,5.64-2.25,7-2.43,1.94-5.76-.18-5.79-.19-.4-.25-2.62-1.63-4.55-2.76l-1.13-.66h0A2.16,2.16,0,0,0,117.59,165.09Z"/><path class="cls-4" d="M113.73,164a2.81,2.81,0,0,1-.29-1.26c0-.06,0-.1,0-.15l3.48,2.07a2.19,2.19,0,0,1-2.13.3A2.93,2.93,0,0,1,113.73,164Z"/><path class="cls-2" d="M103.85,151.37a2.85,2.85,0,0,0-1.67,3.83,2.81,2.81,0,0,0,3.77,1.68,2.89,2.89,0,0,0,1.6-3.95A2.64,2.64,0,0,0,103.85,151.37Z"/><path class="cls-4" d="M106.06,156.39c-1.23.49-2.42-.35-3-1.79-.68-1.73,0-2.49.73-2.79,1-.41,2.26.21,2.88,1.76C107.47,155.56,106.52,156.22,106.06,156.39Z"/><path class="cls-2" d="M76.07,157a1.75,1.75,0,0,1-.4,0c-.24,0-.3-.15-.33-.38s-.09-1-.13-1.81l-.07-1.47c-.06-1.26-.07-1.5-.07-1.76s.06-.42.27-.47a1,1,0,0,1,.23,0c.08,0,.12,0,.12-.1s-.06-.07-.16-.06c-.3,0-.8,0-1,.07s-.76,0-1,0c-.13,0-.18,0-.18.08s0,.09.13.09a.86.86,0,0,1,.28,0c.17.05.26.15.28.43s0,.49.1,1.76l.07,1.47c0,.8.07,1.47,0,1.81s0,.37-.21.42a1.43,1.43,0,0,1-.26,0c-.09,0-.12,0-.12.09s.06.09.14.08c.32,0,.85-.07,1-.08l1.26,0c.09,0,.15,0,.15-.09A.13.13,0,0,0,76.07,157Z"/><path class="cls-2" d="M81.2,150.23l-.21.07a2.49,2.49,0,0,1-.52.1l-3.13.37a5.14,5.14,0,0,1-.77,0c-.2,0-.29-.06-.35,0s-.06,0-.07.16-.06.89-.05,1,0,.13.09.12.07,0,.08-.11a.79.79,0,0,1,.09-.3c.1-.2.28-.28.72-.34l1.14-.17.4,3.35c.09.76.17,1.41.18,1.77s0,.41-.18.46a.6.6,0,0,1-.27.06c-.1,0-.11.07-.11.1s.06.09.16.08l1-.15c.22,0,.74-.06,1.25-.12.09,0,.15-.05.14-.1s0-.09-.13-.08l-.4,0c-.23,0-.29-.17-.35-.4a17.59,17.59,0,0,1-.25-1.77l-.4-3.34,1-.1c.7-.07.93.15,1,.37l0,.09c0,.12,0,.16.11.15s0-.05,0-.14-.08-.83-.1-1S81.25,150.23,81.2,150.23Z"/><path class="cls-2" d="M67.71,155.89s-.07,0-.1.12c-.09.34-.2.51-.4.58a1.7,1.7,0,0,1-.74,0l-1.82-.21a.75.75,0,0,1-.39-.45c0-.07,0-.13-.05-.19-.1-.51-.25-1.32-.42-2.17,0,0,2.94.43,3.07.47.29.05.37.2.39.36s0,.22,0,.31,0,.07.06.07.09-.11.1-.17.06-.39.1-.56c.09-.41.13-.54.13-.59a.31.31,0,0,0,0-.1c-.07,0-.11,0-.17.1a.56.56,0,0,1-.38.09c-.16,0-3.36-.46-3.36-.46-.2-1-.38-2-.48-2.47.61.1,3.4.5,3.51.53.39.08.44.2.48.35a.87.87,0,0,1,0,.31c0,.07,0,.11.05.11s.09-.08.1-.12a3.45,3.45,0,0,0,.11-.54,2.51,2.51,0,0,1,.12-.53s0-.08,0-.09l-.14,0a2.38,2.38,0,0,1-.33,0c-.14,0-3.82-.63-4.12-.66h0c-.08,0-.15.07-.28.28l-2.93,4.8c-.24.39-.41.62-.77.62a1.43,1.43,0,0,0-.23,0c-.05,0-.09,0-.1.07s0,.09.13.11c.4.07.81.11.89.13.24,0,.6.13.85.18.08,0,.12,0,.13-.07s0-.08-.09-.11h-.11c-.24-.05-.3-.14-.27-.29a2,2,0,0,1,.2-.48l.61-1c0-.05,0-.06.09-.05l1.79.32s.06,0,.07.07l.29,1.76c0,.1,0,.17-.1.17s-.1,0-.11.07.07.08.21.11c.38.06,1,.14,1.38.18l1,.12,1.47.18c.3,0,.36,0,.44-.17a4.94,4.94,0,0,0,.21-.9C67.77,156,67.77,155.9,67.71,155.89Z"/><path class="cls-4" d="M62.82,154l-1.48-.27s0,0,0-.07l1.1-1.93s0-.08.06-.07l0,.08.34,2.21S62.86,154,62.82,154Z"/><path class="cls-2" d="M73,151a.85.85,0,0,0-.22,0,3.57,3.57,0,0,1-.52,0L69.07,151a4.72,4.72,0,0,1-.77-.06c-.2,0-.28-.1-.34-.1s-.07,0-.09.15-.19.87-.19,1,0,.14.06.14.07,0,.09-.1a1.18,1.18,0,0,1,.14-.28c.11-.18.31-.23.76-.23h1.16l-.09,3.37c0,.76,0,1.42-.08,1.77s-.08.39-.24.43a.78.78,0,0,1-.28,0c-.09,0-.11,0-.11.09s0,.09.13.09h1c.22,0,.74,0,1.26.06.08,0,.14,0,.15-.08a.11.11,0,0,0-.12-.1,2.5,2.5,0,0,1-.4,0c-.23-.05-.28-.21-.29-.45s0-1,0-1.78l.09-3.37,1,0c.7,0,.89.28.91.5v.09c0,.13,0,.17.08.17s.07-.05.08-.14,0-.83,0-1S73,151,73,151Z"/><path class="cls-2" d="M58.87,154.49c-.07,0-.1,0-.13.09a1.07,1.07,0,0,1-.33.42c-.25.16-.54.08-.94,0-.58-.17-.85-.31-.94-.47s0-.71.36-1.73l.43-1.41c.38-1.2.44-1.43.54-1.67s.2-.38.41-.35a1.36,1.36,0,0,1,.29.06c.1,0,.15,0,.17,0s0-.08-.14-.12l-1.08-.31c-.2-.06-.67-.23-1-.33-.11,0-.17,0-.19,0s0,.1.09.12a.84.84,0,0,1,.25.11c.21.15.25.25.19.53s-.14.48-.51,1.69l-.44,1.4a16.41,16.41,0,0,1-.56,1.69c-.09.23-.18.36-.34.35a1.12,1.12,0,0,1-.27-.05c-.1,0-.13,0-.14.05s0,.1.11.13l.52.14.43.12c.31.09.61.19,1,.32s.79.28,1.32.43.44.1.54-.06a6.65,6.65,0,0,0,.4-.89C58.91,154.59,58.92,154.5,58.87,154.49Z"/><path class="cls-2" d="M91.4,154.28l-.3,0c-.14,0-.38,0-.85-.71-.78-1.11-2.87-4.11-3.16-4.51-.11-.16-.17-.23-.29-.2s-.11.13-.14.37L86,154.85c-.06.45-.12.74-.45.88l-.22.06h0a.11.11,0,0,0-.12,0c-.11,0-.29,0-.39,0s-.31-.12-.38-.33-.22-1-.37-1.79l-.26-1.44c-.23-1.25-.28-1.48-.31-1.74s0-.42.2-.5a1.44,1.44,0,0,1,.23-.07c.07,0,.11,0,.1-.12s-.07-.06-.16,0l-1,.2c-.22.05-.75.12-1,.17-.12,0-.17,0-.16.1s.06.09.14.08a.88.88,0,0,1,.28,0c.17,0,.27.12.34.39s.1.49.33,1.74l.27,1.44c.15.79.27,1.45.29,1.79s0,.37-.15.43a.71.71,0,0,1-.26.09c-.1,0-.12.07-.11.11s.07.07.16.06l1-.22c.22,0,.75-.1,1.24-.2l.09,0c0,.05.06.06.15,0,.39-.1.79-.22.87-.25l.84-.17c.08,0,.11-.05.1-.12s0-.08-.13-.06l-.11,0c-.23.05-.32,0-.36-.16a2,2,0,0,1,0-.52l.15-1.18c0-.06,0-.07,0-.08l1.77-.43a.06.06,0,0,1,.09,0l1,1.48c0,.09,0,.18,0,.21s-.08.06-.06.1.1,0,.23,0c.64-.14,1.19-.27,1.45-.34s.32-.1.31-.16S91.47,154.26,91.4,154.28Z"/><path class="cls-4" d="M88.27,152.6l-1.46.36s0,0,0-.05l.23-2.23s0-.08,0-.09,0,0,0,.07l1.23,1.88S88.3,152.59,88.27,152.6Z"/><path class="cls-2" d="M119.1,149c.12.2.18.34.06.47a.81.81,0,0,1-.21.19c-.07.07-.06.12,0,.14s.09,0,.17,0c.25-.2.64-.54.76-.64s.64-.47,1-.76c.08-.06.11-.12.08-.16a.08.08,0,0,0-.12,0c-.08.07-.23.16-.33.23s-.34,0-.49-.13a14.13,14.13,0,0,1-1-1.23l-.06-.08a.06.06,0,0,1,0-.09l.58-.44a.19.19,0,0,1,.15,0c.16,0,.74.21,1.24.33a3.9,3.9,0,0,0,1.63.2,1.6,1.6,0,0,0,.72-.4l.16-.18.4-.44,0,0c.18-.19.46-.43.64-.62s.08-.11,0-.15-.07,0-.14,0l-.09.09c-.16.17-.28.17-.37.07a1.39,1.39,0,0,1-.25-.4l-.41-1c0-.05,0-.05,0-.08l1.34-1.37a.07.07,0,0,1,.09,0l1.52.6a.14.14,0,0,1,.07.18c-.05.06-.05.09,0,.13s.11,0,.22-.13c.49-.48.9-.9,1.1-1.1s.23-.26.19-.31-.09,0-.14,0l-.22.19c-.13.09-.36.18-1.06-.07-1.18-.43-4.33-1.62-4.77-1.78-.17-.05-.25-.08-.33,0s0,.17,0,.4l1.9,4.82a1.11,1.11,0,0,1,.11.71,2.33,2.33,0,0,1-.68,0c-.67-.07-1.54-.25-2.63-.47a2.24,2.24,0,0,0-.15-2,1.34,1.34,0,0,0-1.09-.46,2.91,2.91,0,0,0-1.41.71c-.2.15-.76.62-1,.79l-.88.67c-.09.08-.13.13-.1.17s.09,0,.16,0l.27-.19a.38.38,0,0,1,.52.11c.16.18.29.35,1,1.25l.82,1A13.33,13.33,0,0,1,119.1,149Z"/><path class="cls-4" d="M123.06,143.41s0,0-.06,0l-.81-1.89s0-.07,0-.09,0,0,.08,0l1.9.79s0,0,0,.06Z"/><path class="cls-4" d="M117.11,144.74a.09.09,0,0,1,0-.13c.06-.06.2-.19.36-.32a1.2,1.2,0,0,1,1.79.29,1.27,1.27,0,0,1,.29,1.2c-.05.16-.13.25-.38.45a2.27,2.27,0,0,1-.52.33c-.06,0-.09,0-.15-.06Z"/><path class="cls-2" d="M110.12,151.12h-.38c-.81,0-1-.21-1.21-.5-.23-.47.11-1,.63-1.22a1.11,1.11,0,0,1,1-.09.92.92,0,0,1,.42.35c0,.08.07.11.12.08s.06-.12,0-.26c-.27-.53-.34-.73-.38-.82s-.07-.05-.14,0a4.71,4.71,0,0,0-1.09.4c-1,.5-1.56,1.44-1.15,2.27.3.59.81.9,1.9,1l.54,0c.83,0,1,.3,1.19.59a1,1,0,0,1-.57,1.35,1.26,1.26,0,0,1-1.49-.08,1.57,1.57,0,0,1-.24-.32s-.06-.1-.13-.07,0,.12,0,.22.23.54.41.91c.07.16.12.18.25.16a3.82,3.82,0,0,0,1.27-.41,2.43,2.43,0,0,0,1.07-.89,1.61,1.61,0,0,0,.09-1.62C111.88,151.51,111.34,151.14,110.12,151.12Z"/><path class="cls-2" d="M117,150.94a3.13,3.13,0,0,1-.36.19c-.22.09-.34,0-.47-.16s-.52-.77-.89-1.35l-1.61-2.6.88-.52c.63-.38.93-.29,1.05-.14l0,.07c.07.1.1.11.15.08s0-.07,0-.15-.38-.65-.47-.77-.09-.14-.14-.11l-.16.15-.45.32-2.8,1.73a7.23,7.23,0,0,1-.71.39,3.56,3.56,0,0,1-.35.11s0,.08,0,.17.27.76.34.87.07.09.12.07,0-.07,0-.14a.75.75,0,0,1,0-.29c0-.2.15-.35.54-.6l1-.66,1.6,2.59a15,15,0,0,1,.81,1.38c.1.21.14.35,0,.47a.8.8,0,0,1-.23.17c-.09,0-.09.1-.07.13s.1,0,.19,0l.87-.59c.2-.12.68-.38,1.13-.66.09-.05.12-.11.09-.15S117.1,150.89,117,150.94Z"/><path class="cls-4" d="M118,134.1a1.41,1.41,0,0,1,1.1-.36,1.67,1.67,0,0,1,.3.08.84.84,0,0,1,.46,1.07l-.09.15-.11.19a16.49,16.49,0,0,1-3.28,3.63C116.64,137.1,117.13,134.84,118,134.1Z"/><path class="cls-2" d="M34,149.26c.22-.41.37-1.29-1-2-.25-.12-.55-.25-.91-.44-.14-.07-.59-.34-1-.55-.11-.05-.16-.07-.2,0s0,.08.09.13a.9.9,0,0,1,.27.18c.23.18.21.33.09.6s-.23.48-.85,1.67l-.71,1.35a17.79,17.79,0,0,1-.91,1.64c-.14.21-.27.36-.44.32a1.32,1.32,0,0,1-.28-.11c-.08,0-.12,0-.15,0s0,.11.11.15.35.17.52.26l.42.21a6.1,6.1,0,0,1,.54.31l.51.3a2,2,0,0,0,2.85-.66,2.1,2.1,0,0,0-.46-2.39A1.94,1.94,0,0,0,34,149.26Z"/><path class="cls-4" d="M31.94,152.48a1,1,0,0,1-1.41.53,1.42,1.42,0,0,1-.49-.38c-.18-.22-.13-.37.13-.88l1-1.84s0,0,.07,0l.31.17a1.21,1.21,0,0,1,.52.51A2.09,2.09,0,0,1,31.94,152.48Z"/><path class="cls-4" d="M31.73,149.74l-.34-.2s0,0,0-.12l1-1.91c0-.1.08-.11.14-.1a.87.87,0,0,1,.25.11c.64.33.57,1.17.29,1.69a1.2,1.2,0,0,1-.73.67A.83.83,0,0,1,31.73,149.74Z"/><path class="cls-2" d="M28,152a1.69,1.69,0,0,1-.26-.22c-.13-.14-.26-.37-.09-1.2.28-1.41,1.14-5.13,1.24-5.65,0-.21,0-.31,0-.35s-.17,0-.39.17L23.7,148.2c-.38.26-.68.42-1,.26l-.23-.12c-.05,0-.08-.05-.12,0s0,.1.09.15c.36.24.75.48.83.53s.49.36.72.5.13.07.18,0,0-.07-.08-.13l-.1-.07c-.21-.14-.21-.27-.13-.41a1.64,1.64,0,0,1,.4-.38l1.06-.8c.05,0,.07,0,.1,0l1.56,1a.07.07,0,0,1,0,.1l-.46,1.91a.14.14,0,0,1-.17.13c-.08,0-.12,0-.15,0s.05.11.17.2c.55.38,1.06.71,1.31.88s.34.2.37.14S28.06,152,28,152Z"/><path class="cls-4" d="M27.07,148.29l-1.29-.84s0,0,0-.07L27.62,146s.06-.05.09,0,0,0,0,.09l-.56,2.23S27.1,148.31,27.07,148.29Z"/><path class="cls-2" d="M38.48,149.59a3.34,3.34,0,0,0-4.41,1.94,3.1,3.1,0,0,0,1.56,4.36,3.44,3.44,0,0,0,4.49-2.09A2.92,2.92,0,0,0,38.48,149.59Z"/><path class="cls-4" d="M39,153.69c-1,2.34-2.34,2.14-2.85,1.92-1.4-.56-1.66-2.23-.92-3.92.88-2,2.07-2.14,2.91-1.8C39.29,150.38,39.75,151.88,39,153.69Z"/><path class="cls-2" d="M45.43,159.18a.64.64,0,0,1-.22-.09,1.56,1.56,0,0,1-.7-.85c-.31-.68-.61-1.59-1-2.75A2.53,2.53,0,0,0,45.14,154a1.52,1.52,0,0,0-.18-1.32,2.57,2.57,0,0,0-1.34-.82l-1.13-.34-1.08-.37c-.12,0-.17,0-.19,0s0,.09.1.12a1.55,1.55,0,0,1,.31.12c.23.15.26.3.19.59s-.16.51-.55,1.77l-.48,1.48c-.25.76-.46,1.42-.61,1.76s-.21.4-.37.39a1.51,1.51,0,0,1-.31-.06c-.09,0-.13,0-.15,0s0,.11.14.14c.32.1.82.23,1,.29s.69.25,1.15.39c.1,0,.16,0,.19,0s0-.08-.08-.1a2.76,2.76,0,0,1-.37-.16c-.23-.1-.22-.31-.16-.55s.28-1,.52-1.8l.05-.12a.06.06,0,0,1,.08-.05l.68.24c.06,0,.11,0,.13.1s.24.85.42,1.41a4.19,4.19,0,0,0,.68,1.57,1.65,1.65,0,0,0,.81.44l.75.24c.1,0,.16,0,.18,0S45.48,159.21,45.43,159.18Z"/><path class="cls-4" d="M42.59,155.13a1.94,1.94,0,0,1-.58-.27s0-.09,0-.18l.81-2.53c0-.07,0-.1.11-.1a2,2,0,0,1,.43.1c.47.15,1.1.74.72,1.92a1.57,1.57,0,0,1-.87,1.1A.8.8,0,0,1,42.59,155.13Z"/><path class="cls-2" d="M22.91,147.14c-.06,0-.11,0-.16,0a1,1,0,0,1-.54.21c-.33,0-.6-.21-1-.54-.52-.5-.65-.7-.67-.91s.37-.69,1.14-1.51l1.05-1.12c.91-1,1.08-1.16,1.28-1.35s.38-.28.59-.13a1.24,1.24,0,0,1,.28.22c.08.08.14.1.18.05s0-.09-.09-.18l-.94-.84c-.18-.17-.58-.59-.89-.88-.11-.1-.17-.12-.21-.08s0,.09.06.16a1.37,1.37,0,0,1,.21.23c.18.26.13.41-.06.64s-.34.39-1.25,1.36l-1.05,1.14c-.55.58-1,1.09-1.31,1.33s-.38.27-.53.17a2.64,2.64,0,0,1-.26-.2c-.08-.08-.13-.08-.16-.05s0,.11.08.19.32.28.47.42l.4.35c.27.26.51.49.79.79l1.13,1.08c.35.33.41.33.58.22a6.29,6.29,0,0,0,.79-.64C22.93,147.22,23,147.19,22.91,147.14Z"/><path class="cls-4" d="M25.69,133.82a1.16,1.16,0,0,1,.32-.08,1.43,1.43,0,0,1,1.1.36c.91.74,1.39,3,1.62,4.76a16,16,0,0,1-3.28-3.64l-.09-.13-.12-.21a1.12,1.12,0,0,1-.06-.23v0A.9.9,0,0,1,25.69,133.82Z"/><path class="cls-5" d="M72.19,136.35h0A41.39,41.39,0,0,1,30.93,95.09V37.61h82.52V95.09A41.39,41.39,0,0,1,72.19,136.35Z"/><path class="cls-6" d="M111.82,95.11a39.63,39.63,0,0,1-67.65,28A40,40,0,0,1,38.51,116c-.85-1.41-1.6-2.81-2.26-4.16a39.62,39.62,0,0,1-3.7-16.72V39.23h79.27Z"/><path class="cls-7" d="M35.77,48.2l2.48-1.81,2.5,1.81c-.16-.51-1-2.94-1-2.94l2.49-1.81H39.22s-.8-2.45-1-3c-.16.51-1,3-1,3H34.18l2.53,1.83S35.93,47.68,35.77,48.2Z"/><path class="cls-7" d="M103.68,48.2l2.48-1.81,2.51,1.81c-.16-.51-1-2.94-1-2.94l2.48-1.81h-3.07s-.79-2.45-1-3c-.16.51-1,3-1,3H102.1l2.53,1.83Z"/><path class="cls-7" d="M59.51,125.14s-.78-2.45-.95-3c-.17.51-1,3-1,3H54.48L57,127s-.78,2.41-.95,2.92l2.49-1.81,2.5,1.81c-.17-.51-.95-2.94-.95-2.94l2.49-1.81Z"/><path class="cls-7" d="M86.77,125.14l-1-3c-.16.51-1,3-1,3H81.72L84.25,127s-.78,2.41-.94,2.92c.44-.31,2.48-1.81,2.48-1.81l2.51,1.81c-.17-.51-1-2.94-1-2.94l2.48-1.81Z"/><path class="cls-7" d="M103.41,106l2.47-1.81,2.51,1.82-.94-3,2.48-1.8h-3.07s-.8-2.45-1-3l-1,3h-3.12l2.54,1.83S103.57,105.46,103.41,106Z"/><path class="cls-4" d="M72.19,123.86A28.8,28.8,0,0,0,101,95.1v-45H43.4v45A28.81,28.81,0,0,0,72.19,123.86Z"/><path class="cls-8" d="M45,51.72h54.3V95.1a27.15,27.15,0,0,1-54.3,0Z"/><path class="cls-7" d="M39.49,101.22s-.79-2.44-1-3l-1,3H34.46c.43.33,2.52,1.84,2.52,1.84s-.78,2.4-.94,2.91l2.48-1.81L41,106c-.17-.51-1-3-1-3l2.49-1.81Z"/><path class="cls-2" d="M53,84.59a2,2,0,0,0,1.55.09,1.9,1.9,0,0,0,1.1-1,2.12,2.12,0,0,0,.2-.91.76.76,0,0,0,0-.15,5.16,5.16,0,0,1,2.43.29l0,0,1,.31c.57.17,1.47.42,2.54.65.28.07.28.07.56.56l.4.65a2.38,2.38,0,0,0,2.78,1l.34-.12a2.61,2.61,0,0,0,2.78.64l1-.37-.77-.69a3.87,3.87,0,0,1-1-1.13,13.64,13.64,0,0,0,1.79-.23,11.29,11.29,0,0,0,4,3.32,16.63,16.63,0,0,1-3.89,1.25,6.37,6.37,0,0,0-4,2.17c-1.38-.1-2.34.28-2.72,1.1a2.16,2.16,0,0,0,.13,2.1C64.09,95.41,63,97,63,97a3.27,3.27,0,0,0,2.11-.87,6.28,6.28,0,0,0,.22.7,11.28,11.28,0,0,0,2.13,3.7c.46.57.7.87.7,1.21a1.72,1.72,0,0,1-.3.78,12.27,12.27,0,0,1-3.59,3.08,8.39,8.39,0,0,1-1.94.82c-1.1.28-1.47-.07-1.49-.18a2,2,0,0,0-2.13-1.59,1.91,1.91,0,0,0-1.3.69,1.52,1.52,0,0,0-1.35,1.08,1.24,1.24,0,0,0-.05.44,2.51,2.51,0,0,0,.66,1.65,1.68,1.68,0,0,1,.62-.83,2.11,2.11,0,0,0,.35.38,1.94,1.94,0,0,0-.89,1.41,1.63,1.63,0,0,0-.68,1.2s0,.09,0,.14a2.14,2.14,0,0,0,1.33,1.71s.12-1,.39-1.19a2.07,2.07,0,0,0,1.13.21l.24,0v0a1.47,1.47,0,0,0,.11.46,1.66,1.66,0,0,0-.11.58,1.2,1.2,0,0,0,.08.5,2.18,2.18,0,0,0,2.32,1.15,1.77,1.77,0,0,1-.41-1h.14a2,2,0,0,0,1.34-.73,1.91,1.91,0,0,0,.43-1.19,1.15,1.15,0,0,0,0-.19,2.12,2.12,0,0,0-.37-1,5.59,5.59,0,0,1,3.14-1.14,5.1,5.1,0,0,1,1.23.14,4.41,4.41,0,0,0,3.59-.48l1-.73a1.83,1.83,0,0,0,.85-.76l.19-.32a2.59,2.59,0,0,0,1.78-1.38l.27-.48a2.69,2.69,0,0,0,1.35-1.51l0-.05a3.64,3.64,0,0,0,.56.27,3.14,3.14,0,0,0,.62.21,2.71,2.71,0,0,1,.5.22,2.93,2.93,0,0,1,.84,1.7,3.28,3.28,0,0,0,.82-2,2.11,2.11,0,0,0-.08-.65,12,12,0,0,0,1.55.57l.71.2c1.68.53,2.48.9,2.48,1.58a.57.57,0,0,1,0,.13,10.77,10.77,0,0,1-3.31,5.54c-.55.41-.84.42-.94.41a2.3,2.3,0,0,1-.59-.13,2.21,2.21,0,0,0-1.56-1.26,2,2,0,0,0-1.22.24,1.56,1.56,0,0,0-1.48.29,2.91,2.91,0,0,0-.33,2.67,2.74,2.74,0,0,1,.94-.69,2,2,0,0,0,1,1.11,1.56,1.56,0,0,0-.29.75c0,.07,0,.14,0,.2a1.53,1.53,0,0,0-.56,1.13v0c.07,1.08,1.36,1.88,1.36,1.88a5.63,5.63,0,0,1,.42-1.27,1.41,1.41,0,0,0,.46.18,1.91,1.91,0,0,0,1-.16,2,2,0,0,0,.88,1s0,0,0,.07a2.25,2.25,0,0,1-.59,1.24,2.84,2.84,0,0,0,2.52-.42,1.29,1.29,0,0,0,.32-1v-.12a1.91,1.91,0,0,0,.61-1.21,2.44,2.44,0,0,0,0-.27,1.85,1.85,0,0,0-.68-1.45h0a1.21,1.21,0,0,1,.24-.68,2,2,0,0,1,1.58-.63,5.62,5.62,0,0,1,.56.07c1.09.17,3.11.49,4.26-1.68l.26-.47a1.53,1.53,0,0,0,1.17-1.26s0-.15,0-.25a2,2,0,0,0,1.14-1.66s0-.21,0-.35c1.49-.54,1.6-3,1.6-3a4.5,4.5,0,0,1-2.1.66c0-.22.06-.46.06-.46a6.5,6.5,0,0,0,.11-.93,1.4,1.4,0,0,0-.29-.92,2.85,2.85,0,0,0-2.12-.78,6.4,6.4,0,0,1-1.14-.22h0v0a1.87,1.87,0,0,1-1.1-.69.61.61,0,0,1,0-.23,1.05,1.05,0,0,1,.1-.4,2,2,0,0,1,.33-.49c2.42.85,3.64-.41,4.07-1a1.42,1.42,0,0,0,.31-.73.58.58,0,0,0-.18-.42l0,0a2.47,2.47,0,0,0,1.15-1.62l.24-1.18-1.11.48a3.33,3.33,0,0,1-1.31.21,8.5,8.5,0,0,0,.16-1.2,6.57,6.57,0,0,0,4.33-1.36A4.64,4.64,0,0,0,96,89.59a6.28,6.28,0,0,0-.69-2.89,3.09,3.09,0,0,0,.43-1.51,2.59,2.59,0,0,0-.86-1.91,4.41,4.41,0,0,0-1.12-.77c-.54-.28-.78-.41-.91-1.43l-.19-1.63-1,1.34a3,3,0,0,0-.52,1.57,5.06,5.06,0,0,1-2.33-4.45,3.33,3.33,0,0,1,.7-2,4.34,4.34,0,0,0,2.93.62A4,4,0,0,0,95.28,75a10.31,10.31,0,0,0,.91-1.86,4.38,4.38,0,0,1,2.43-2.87,3.19,3.19,0,0,0-3.4,0,7.83,7.83,0,0,0,.07-1.08c0-.35,0-.7-.05-1a.57.57,0,0,1,0-.13c0-1.58,2.11-3.29,2.11-3.29s-3.39-.5-4.8,2.14A1.86,1.86,0,0,0,92,66s.06,1.32-2.42,2.47a4.34,4.34,0,0,0-2.38,2.46,3.33,3.33,0,0,0-.2,1.16,4.4,4.4,0,0,0,.38,1.55,6.41,6.41,0,0,0-1.71,3.88,7.9,7.9,0,0,1-1.2-.39,1.7,1.7,0,0,1-1.26-1.57,1.88,1.88,0,0,1,0-.31,4.11,4.11,0,0,0,3-.06s-1.68-.94-1.73-2.24a1.9,1.9,0,0,1,.07-.45l.28-.72a.87.87,0,0,1,.07-.17,5.29,5.29,0,0,1,.31,1.57,5.32,5.32,0,0,0,1.64-3.76,5.19,5.19,0,0,0-.11-1,4.31,4.31,0,0,0,2.2-.52,5,5,0,0,1-2.3-2.71,3.89,3.89,0,0,0,3.53-2,3.57,3.57,0,0,1-2.47-.69,1.25,1.25,0,0,1-.3-.71,3.54,3.54,0,0,1,2.81.65,6.26,6.26,0,0,0-2.49-3.83,5.24,5.24,0,0,0,1.1-2.89,11.89,11.89,0,0,1-2.75,1,4.64,4.64,0,0,0,.65-2.32,5.31,5.31,0,0,0-.39-1.77,6.15,6.15,0,0,1-2.19,2.14,5.29,5.29,0,0,1-2.31.67l-.79.09a2.35,2.35,0,0,0-1-.23A2.44,2.44,0,0,0,78,56.61a7.69,7.69,0,0,0-3.86-.06c-2.58-.22-4.11,0-4.56.59a1.34,1.34,0,0,0-.25.79,1.56,1.56,0,0,0,.22.8s0,.05,0,.06a2,2,0,0,0-.24,1v.2A3.07,3.07,0,0,0,70,61.5a.73.73,0,0,1-.6-.11c-1.08-.78-1.07-3-1.07-3a4.37,4.37,0,0,0-1.63,3.65,2.47,2.47,0,0,0,1.45,2,3,3,0,0,0,1.41.26,3,3,0,0,0-.1.73,4.5,4.5,0,0,0,.26,1.41c-3.83-1-5,1.65-5.35,2.76a3,3,0,0,1-.61-.46V65.39a.34.34,0,0,0-.12-.26l-1.78-1.27-.09,0-1.26-.38-.06,0a1.84,1.84,0,0,0,0-.41,2,2,0,0,0-2-2,2,2,0,0,0-1.51.6,2.08,2.08,0,0,0-3.32.16,1.85,1.85,0,0,0-1.34-.51,1.81,1.81,0,0,0-1.8,1.79s0,.06,0,.09a1.63,1.63,0,0,0-.29.07,24.79,24.79,0,0,0-2.46.86.36.36,0,0,0-.14.1l.06,0-1.89,1.45a.32.32,0,0,0-.12.25V78.41a.3.3,0,0,0,.3.31h5.21A1.34,1.34,0,0,0,51,79a1.55,1.55,0,0,0-1.3.79,1.77,1.77,0,0,0-.2.83A3.2,3.2,0,0,0,50,82.07a2.46,2.46,0,0,1,1-.95,2.18,2.18,0,0,0,.86.79L52,82a.08.08,0,0,1,0,0,1.9,1.9,0,0,0-.15.46,1.55,1.55,0,0,0-.6.93,1.21,1.21,0,0,0,0,.34,2.13,2.13,0,0,0,1.64,1.93c-.11-.64-.15-.85,0-1.19Z"/><path class="cls-3" d="M72.15,105c0,.14.56.13,1.84,0-1,1.78-2.72.83-2.92,1.19,0,0-.2.39,1,.48-.77,1.25-2.1.11-2.94.72,0,0-.14.43,1.22.58-1.63,1.13-3.12.15-4.49.23a6,6,0,0,0-3.62,1.4.52.52,0,0,0-.13.57,1.54,1.54,0,0,1,.39.86,1.31,1.31,0,0,1-1.2,1.4,1.43,1.43,0,0,1-.5,0,.85.85,0,0,0,0,1.12c-.93-.35-1.07-1-.72-1.64a1,1,0,0,1-.19-.5,1.44,1.44,0,0,1,1-1.39.49.49,0,1,0-.67-.47,1.27,1.27,0,0,1-1.22,1.3,1.42,1.42,0,0,1-1.06-.32c-.47.14-.8.68-.7,1a1.25,1.25,0,0,1-.38-.81c0-.35.28-.71.66-.92v0a1.32,1.32,0,0,1,1.21-1.41c.78-.07.83.29,1.05.29s.3,0,.43-.2a.49.49,0,0,0-.06-.66.44.44,0,0,0-.54-.06.74.74,0,0,1-.43.14,1.31,1.31,0,0,1-1.44-1.07c-.32,0-.83.32-.87.61a1.76,1.76,0,0,1-.06-.86,1.07,1.07,0,0,1,1.08-.64,1.33,1.33,0,0,1,1-.64,1.3,1.3,0,0,1,1.44,1.08c.07.42.7,1.07,2.27.68a8.72,8.72,0,0,0,2.1-.89h0a12.46,12.46,0,0,0,3.81-3.28c1.35-2.21-1-2.16-2.46-6.23a6.67,6.67,0,0,1-.39-3.36c-.37,0-.72.19-.54,1.08a1.67,1.67,0,0,1-1.09,1.86c.86-1.6-.74-2.57-.18-3.8.37-.84,1.64-.82,2.42-.71A5.55,5.55,0,0,1,70,89.48,18.24,18.24,0,0,0,74.44,88s1.58.72,2.41,1.07,2.22.78,2.87,1.88a2.4,2.4,0,0,1-.29,2.37s-2.32-.83-3.15.14a1.16,1.16,0,0,0,.32,1.74s-.93.9-2.46-.33c0,0-.49.49.52,1.27a2,2,0,0,1-2.35,0,3.54,3.54,0,0,0-.15.33,3.73,3.73,0,0,0,.55,3.08c1.11,1.43,2.48,2.06.79,3.66.34.19.68,0,2.07,0C74.61,105.48,72.62,103.86,72.15,105Z"/><path class="cls-8" d="M76.26,99.53a2.92,2.92,0,0,0-1.13,1.18l0,.06,0,.11a1.8,1.8,0,0,0-.1.6,1.92,1.92,0,0,0,.32,1l-.54,0a1.63,1.63,0,0,0,.17-.71,3.1,3.1,0,0,0-1.07-2l-.63-.72a2.9,2.9,0,0,1-.53-1.7,4.12,4.12,0,0,1,0-.48,2.48,2.48,0,0,0,2.36-.39l.52-.47a2.31,2.31,0,0,0,.83-.12,2.1,2.1,0,0,0,1.06-.86s-.85-.32-.87-.94c0,0,0-.15.15-.35.35-.41,1.59-.23,2.36,0a10.84,10.84,0,0,1-1,1.25,6.16,6.16,0,0,0-1.86,4C76.23,99.27,76.25,99.4,76.26,99.53Z"/><path class="cls-3" d="M88.15,73.7A3.29,3.29,0,0,1,89.87,69c2.11-.94,2.25-1.89,2.25-1.89.16,1.89-.48,2.25-.89,2.62a3.3,3.3,0,0,0-.67.69,2.24,2.24,0,0,0,1.74-1.18c.53-1.93,1.25-3.65,3.91-4.08,0,0-1.76,1.45-1.61,3s0,3.76-1.47,4.91a2.75,2.75,0,0,0,1-.85,4,4,0,0,1,3.62-2c-1.83.52-1.89,2.73-3,4.33a3.72,3.72,0,0,1-5.31.48,4.25,4.25,0,0,0-1.21,2.81c0,2.24.78,3.56,2.74,5.09a25.61,25.61,0,0,1,2,1.66c.08-.16.15-.53-.6-1.17-1.12-.94-.14-2.33-.14-2.33.24,2,1.16,1.57,2.21,2.58a2.13,2.13,0,0,1,.15,2.92,5.88,5.88,0,0,1,.77,2.93,4,4,0,0,1-1.32,3.14,6.49,6.49,0,0,1-4.54,1.18,7.1,7.1,0,0,1-.31,2.3,3.15,3.15,0,0,0,2.33-.07c-.31,1.51-2.17,1.75-3.1,1.78l-.25,0a3.35,3.35,0,0,0,2.4.41s-.92,2.28-3.93,1a3.18,3.18,0,0,0-.73,1c-.75,1.68,1.48,2.2,1.48,2.2h0a7.62,7.62,0,0,0,1.26.24c2.52.25,1.77.91,1.59,3,0,.23,1,.19,2-.22-.29,2.18-2.58,1.1-2.76,2.43a1.18,1.18,0,0,0,1.26-.15c-.28,2-3,1.12-3.08,1.82.12.11.7.34,1.89.08-.18,1.33-2.77.5-2.93,1.71a2.14,2.14,0,0,0,1.56-.18c-1.17,2.22-3.39,1.25-4.26,1.26-2.56.06-2.62,2.17-2.32,2.35a1.25,1.25,0,0,1,.55,1.25,1.18,1.18,0,0,1-.67,1c.38,1.44-1.17,1.33-1.17,1.33a1.33,1.33,0,0,0,.14-1.28,1.29,1.29,0,0,1-.88-1.39,1.22,1.22,0,0,1,.64-.93.41.41,0,0,0-.07-.64c-.23-.1-.44-.06-.53.14s0,.45-.06.65a1.32,1.32,0,0,1-2.06.87,1,1,0,0,0-.57,1s-1.23-1,.05-1.79a1.13,1.13,0,0,1,0-.41c.09-.7.73-1.14,1.72-1.06a.4.4,0,0,0,.43-.59c-.25-.39-.65,0-.65,0a1.34,1.34,0,0,1-1.16.42A1.31,1.31,0,0,1,76.22,112a1,1,0,0,0-1.07.34s-.23-1.73,1.53-1.21a1.28,1.28,0,0,1,1-.29c.56.07.86.55,1.13,1,.1.15.35.29,1,.38,1.74.23,4.65-4.11,5-6.49.18-1.36-1.25-1.88-2.93-2.41l-.71-.2a11.87,11.87,0,0,1-1.55-.57,5.94,5.94,0,0,1-1.73-1.07c-.32.19-.65.53.17,1a1.58,1.58,0,0,1,.71,2h0a1.29,1.29,0,0,0-.55-.89,2.6,2.6,0,0,0-.72-.31A2.8,2.8,0,0,1,77,103a3.45,3.45,0,0,1-.51-.25,2.4,2.4,0,0,1-.42-.34,1.3,1.3,0,0,1-.37-1.36l0-.07s0,0,0-.05A2.61,2.61,0,0,1,77,99.87c-.43-1.66.71-3.39,1.59-4.3a9,9,0,0,0,2-2.81c.3-1,1-2.71-4.51-4.82-3.4-1.31-5.11-3-6-4.36a11.27,11.27,0,0,1-2,.3,2.14,2.14,0,0,1,.57-.95,1.45,1.45,0,0,1,1.1-.3,4.75,4.75,0,0,0,3.88-1.77,2.61,2.61,0,0,0,.31,1,3.36,3.36,0,0,0,2.69,1.63l1.14.15-.48-1a3.43,3.43,0,0,1-.32-1.28c0-.37.12-.45.16-.47a6.56,6.56,0,0,0,1.48-1.26,4.11,4.11,0,0,0,4.15,1.83,3,3,0,0,1-1.44-2.21,1.07,1.07,0,0,1,.06-.38l0-.07a4.47,4.47,0,0,0,.43-.69,2.31,2.31,0,0,0,.62.41l.28.11a12.11,12.11,0,0,0,.52,2.18c1.57,4.76,2.5,4.47,4.27,6.34A7.31,7.31,0,0,1,89.52,91a1.11,1.11,0,0,0,1.09.94,3.79,3.79,0,0,0,2.12-.71,2,2,0,0,0,.63-1.61c0-2.19-1.62-3.55-3.56-5.06-2.09-1.62-3.48-3.4-3.48-6.62A6,6,0,0,1,88.15,73.7Z"/><path class="cls-8" d="M89.4,85c1.89,1.47,3.32,2.68,3.32,4.56a1.33,1.33,0,0,1-.41,1.13,3.05,3.05,0,0,1-1.71.54.46.46,0,0,1-.46-.41,8,8,0,0,0-2.27-4.18,13.84,13.84,0,0,0-1.17-1.1c-1-.89-1.78-1.53-2.91-5a11.61,11.61,0,0,1-.47-1.87,3.41,3.41,0,0,0,2.37-1v.16A8.38,8.38,0,0,0,89.4,85Z"/><path class="cls-3" d="M72,68.13c2.24,1.11,2.31-1.36,2.31-1.36,3.06,1.18,4.52-.9,4.69-1.15a3.75,3.75,0,0,1-2.33.9h-.43l-.29,0h-.07c-1-.18-2.09-.67-3.33-1-1.55-.37-1.82,1.62-1.82,1.62-1.47-3,.39-3.71.39-3.71a1.5,1.5,0,0,0,.18.28h0a1.83,1.83,0,0,0,.47.41,2.94,2.94,0,0,0,.93.34l.21,0H73l.23,0a2.5,2.5,0,0,0,2.73-1.63c-.46-.29-1.87-.94-4.11.16-2.42,1.19-4.06.8-4.49-1.1A3.31,3.31,0,0,1,68,59.5s.22,3,2.18,2.61S74,60.52,76,62.48c.08-2-1.88-2.34-3.43-2-1.7.41-1.4,1.26-1.4,1.26l0,0A3.21,3.21,0,0,1,70,59.89a1.39,1.39,0,0,1,1-1.52,3.08,3.08,0,0,0-.9,0,.87.87,0,0,1,0-.9c.46-.65,4.18-.31,4.18-.31.68-.51,3.31,0,4.1.12a1.84,1.84,0,0,1,1.69-1.38,2,2,0,0,1,.14,4c.69.36,2.37-.46,2.42-2a2.51,2.51,0,0,0-.71-1.94,5.91,5.91,0,0,0,2.53-.72A6.11,6.11,0,0,0,86.11,54a4.7,4.7,0,0,1-1.17,3.4c.51.16,1.48.09,3.27-.79a4.21,4.21,0,0,1-1.47,2.14,6.06,6.06,0,0,1,2.6,2.63,3.36,3.36,0,0,0-2.55,0c-.15,2.39,2.39,2.3,2.39,2.3a2.84,2.84,0,0,1-3.31.66,4.61,4.61,0,0,0,1.83,3.36,2,2,0,0,1-1.65-.2.57.57,0,0,0,0,.5,4.79,4.79,0,0,1-.44,3.87,3.11,3.11,0,0,0-1-2.27c.13,1.39-.24,1.62-.59,2.72a2.33,2.33,0,0,0,.9,2.51,1.87,1.87,0,0,1-2.27-1.21,3.6,3.6,0,0,1,0,1.4,2.27,2.27,0,0,0,1.63,2.72h0a2.68,2.68,0,0,0,.57.08C82.2,79,81.48,76.6,81.48,76.6a3.63,3.63,0,0,1-.8,2A2.31,2.31,0,0,0,81.41,81a3.49,3.49,0,0,1-2.51-2,6.45,6.45,0,0,1-.23-1.67c.07,1.43-.77,2.28-2,3.07-1,.63-.07,2.55-.07,2.55-2.24-.27-2.75-2.06-2.36-2.9a4,4,0,0,0,0-2.16c-.39,2.32-2.35,4.31-4.59,4.15s-2.35,2.2-2.35,2.2a3.77,3.77,0,0,1,2-4.9c1.15-.54,1.07-2.3,1.07-2.3A3.85,3.85,0,0,1,67,78.37a3.57,3.57,0,0,0-2.68,1.57C64,78,66.11,75.63,68,75.13a3.42,3.42,0,0,0,.62-.27c-.88-.27-2.22-.2-4,1.33a4.87,4.87,0,0,1,3.1-4.08,5.25,5.25,0,0,1-.78-.2,3.3,3.3,0,0,0-2.39.33,4.67,4.67,0,0,1,1-1.68h0l0,0a2.75,2.75,0,0,1,1-.65,8.56,8.56,0,0,1,1.79-.08,5.47,5.47,0,0,0-.49-.79c-.87-1-2.83-.26-2.83-.26C66.88,65.45,69.71,67,72,68.13Z"/><path class="cls-8" d="M71.33,67.11a1.67,1.67,0,0,1,.5-1,.62.62,0,0,1,.52-.06c.44.11.86.24,1.28.37v.28c0,.24-.13.8-.41,1s-.73,0-1-.16L72,67.44Z"/><path class="cls-8" d="M72.12,63.58a3.87,3.87,0,0,1,3-.4,2.32,2.32,0,0,1-1.87.68l-.19,0h-.09l-.18,0A2.42,2.42,0,0,1,72.12,63.58Z"/><path class="cls-8" d="M67,69.19a1.73,1.73,0,0,0-.53.09,3.59,3.59,0,0,0-.89.47,3.86,3.86,0,0,1-.76-.32A3.5,3.5,0,0,1,67,69.19Z"/><path class="cls-3" d="M63.78,69.73a6.25,6.25,0,0,0,1.15.61,5.61,5.61,0,0,0-1.15,2.48Z"/><path class="cls-3" d="M63.78,73.24a5.79,5.79,0,0,1,2.1-.79,5.87,5.87,0,0,0-1.76,3.28c-.1-.08-.15-.14-.21-.19l-.13-.11Z"/><path class="cls-8" d="M63.78,76.41l.24.16v.88a1.94,1.94,0,0,1,.4-.28,5.1,5.1,0,0,0-.65,1.48Z"/><path class="cls-8" d="M63.75,78.74l-.06.32a16.05,16.05,0,0,1-4.34.28,8.84,8.84,0,0,1-1.75-.29,4.47,4.47,0,0,1-.8-.31Z"/><path class="cls-9" d="M61.83,77.27A.32.32,0,0,0,62,77V64.68l1.2.86V78.12H56.33a1.5,1.5,0,0,0,.07-.51,2,2,0,0,0-.2-.87,7.44,7.44,0,0,1,5.34.56A.33.33,0,0,0,61.83,77.27Z"/><path class="cls-9" d="M60.27,64l.26.08.82.25V76.55a7.8,7.8,0,0,0-5.54-.35,1.82,1.82,0,0,0-.51-.36.56.56,0,0,0-.16-.07V66.33a.45.45,0,0,0,.38-.23c.44-.89.66-1,.66-1h0a2.13,2.13,0,0,0,.88-.66,2.51,2.51,0,0,0,.53.29l.08,0a4.1,4.1,0,0,1,.54,1,.3.3,0,0,0,.24.22.3.3,0,0,0,.27-.08,1.12,1.12,0,0,0,.09-.17,3.38,3.38,0,0,1,.52-.9A1.6,1.6,0,0,0,60.27,64Z"/><path class="cls-3" d="M52.36,61.91a1.1,1.1,0,0,1,1.11.63.3.3,0,0,0,.3.19.31.31,0,0,0,.27-.22,1.35,1.35,0,0,1,1.37-1,1.34,1.34,0,0,1,1.32.82.27.27,0,0,0,.26.19.3.3,0,0,0,.28-.18,1.29,1.29,0,0,1,1.26-.69A1.37,1.37,0,0,1,59.91,63c0,.07,0,.13,0,.19a.19.19,0,0,1,0,.07.31.31,0,0,1,0,.1l-.06.19s0,.08-.05.12l0,0-.07.13,0,.06,0,.06-.08.07,0,0a.54.54,0,0,1-.12.09l0,0a.94.94,0,0,1-.15.06c-.16.05-.32.2-.61.74-.27-.52-.42-.68-.57-.75l-.1,0c-.31-.14-.45-.2-.56-.4a.28.28,0,0,0-.29-.16.27.27,0,0,0-.25.2,1.25,1.25,0,0,1-.8.73,1.65,1.65,0,0,0-.7.75c-.26-.63-.41-.7-.49-.74a1.23,1.23,0,0,1-.73-.84.29.29,0,0,0-.27-.22.3.3,0,0,0-.3.19c-.08.21-.23.29-.55.44l-.05,0c-.1,0-.23.14-.55.67-.19-.47-.32-.61-.45-.67l-.15-.08,0,0L51.59,64l0,0-.07-.07a.1.1,0,0,1,0-.05l-.06-.07,0-.06,0-.08,0,0,0-.09,0-.07,0-.14a1.09,1.09,0,0,1,0-.18A1.18,1.18,0,0,1,52.36,61.91Z"/><path class="cls-9" d="M50.29,63.9l.43-.12a1.73,1.73,0,0,0,.86.91,5.05,5.05,0,0,1,.4,1l0,0a0,0,0,0,0,0,0l0,0,.08.06s0,0,0,0h.24l0,0,0,0,0,0a0,0,0,0,0,0,0h0a7.06,7.06,0,0,1,.61-1l0,0a2.32,2.32,0,0,0,.51-.29,1.93,1.93,0,0,0,.79.69.92.92,0,0,1,.15.25V75.65a2.12,2.12,0,0,0-.83.09,1.55,1.55,0,0,0-1.74.21L52,76a14.15,14.15,0,0,0-3.79.46V64.64h0C49.07,64.28,49.84,64,50.29,63.9Z"/><path class="cls-9" d="M46.35,78.1V66l.83-.64.38-.28V76.91a.31.31,0,0,0,.13.25.29.29,0,0,0,.27,0,13,13,0,0,1,3.67-.57,3.29,3.29,0,0,0-.19,1.23,2.55,2.55,0,0,1,1-.19,1.63,1.63,0,0,0,.08.44H46.35Z"/><path class="cls-3" d="M52.21,84.66c-.62-.8-.37-1.48.25-1.8a1.06,1.06,0,0,1,.12-.54,1.46,1.46,0,0,1,1.57-.69.5.5,0,1,0-.32-.77,1.31,1.31,0,0,1-1.77.48,1.4,1.4,0,0,1-.74-.85c-.49-.13-1.07.17-1.13.46A1.34,1.34,0,0,1,50.3,80a1.09,1.09,0,0,1,1.06-.44l0,0A1.36,1.36,0,0,1,53.2,79c.7.35.55.7.75.81a.48.48,0,0,0,.48.06.5.5,0,0,0,.3-.61.45.45,0,0,0-.44-.34.73.73,0,0,1-.45-.1l-.13-.08-.14-.11a.74.74,0,0,1-.13-.12,1.41,1.41,0,0,1-.14-.18h0a2.25,2.25,0,0,1-.12-.21,1.4,1.4,0,0,1,0-1,1.09,1.09,0,0,0-1.07.06,1.94,1.94,0,0,1,.22-.52,1.26,1.26,0,0,1,.19-.25,1.08,1.08,0,0,1,1.28,0l.26-.11a1.61,1.61,0,0,1,.58,0,1.49,1.49,0,0,1,.39.13l.12.06.06,0a1.39,1.39,0,0,1,.42.45,1.34,1.34,0,0,1,.06,1.14h0s0,.06,0,.08,0,0,0,0v.09a.62.62,0,0,0,0,.13l0,0v0a.93.93,0,0,0,0,.1s0,0,0,0a.67.67,0,0,0,.06.12,3.12,3.12,0,0,0,1.62.92,9.16,9.16,0,0,0,1.88.31,16.51,16.51,0,0,0,4.37-.26,3.5,3.5,0,0,0,.47,1.59S65.31,79,67,79a6.15,6.15,0,0,0,2.15-.32l0,0a4.74,4.74,0,0,0-2.69,4c-.08,1.86.91,2.37,1.21,2.48a6.37,6.37,0,0,0,.88.94,2,2,0,0,1-2.48-1,1.77,1.77,0,0,0-1.35-1,1.51,1.51,0,0,0,.74,1.51,1.76,1.76,0,0,1-2-.78c-.74-1.19-.65-1.32-1.36-1.49-1-.22-1.86-.45-2.49-.64l-1-.31h0a5.23,5.23,0,0,0-2.86-.28c-.27.08-.43.29-.41.43a1.66,1.66,0,0,1-.13.94,1.35,1.35,0,0,1-1.79.58,1.4,1.4,0,0,1-.42-.3A.86.86,0,0,0,52.21,84.66Z"/><path class="cls-2" d="M70.55,91.94c-.08,3-3.44,2.83-3.44,2.83,3.44.6,3.89-2.28,3.89-2.28A14,14,0,0,0,75.74,91,15.93,15.93,0,0,1,70.55,91.94Z"/><path class="cls-7" d="M35.77,76.88l2.48-1.81,2.5,1.81c-.16-.51-1-2.95-1-2.95l2.49-1.8H39.22s-.8-2.45-1-3c-.16.51-1,3-1,3H34.18L36.71,74S35.93,76.37,35.77,76.88Z"/><path class="cls-2" d="M83.36,91.54s3.94,3.22-2.11,7.77c0,0,3.77-1.8,4-4.77A3.14,3.14,0,0,0,83.36,91.54Z"/><path class="cls-2" d="M58.2,68.13a2.46,2.46,0,0,0-2.34,2.56,2.66,2.66,0,0,0,.27,1.12H56a.34.34,0,1,0,0,.68h.71A.33.33,0,0,0,57,72a2.35,2.35,0,0,1-.43-1.28,1.66,1.66,0,1,1,3.3,0A2.34,2.34,0,0,1,59.4,72a.34.34,0,0,0,0,.35.37.37,0,0,0,.31.18h.75a.34.34,0,0,0,.34-.34.34.34,0,0,0-.34-.35h-.18a2.68,2.68,0,0,0,.28-1.14A2.45,2.45,0,0,0,58.2,68.13Z"/><path class="cls-2" d="M76.17,64.2s1.56-1.08.23-3.13A6.09,6.09,0,0,1,76.17,64.2Z"/><path class="cls-2" d="M74.91,58.89c1.08,0,2.31.12,2.31.12S76,57.92,75.4,57.93,74.91,58.89,74.91,58.89Z"/><path class="cls-7" d="M103.68,76.88l2.48-1.81,2.51,1.81c-.16-.51-1-2.95-1-2.95l2.48-1.8h-3.07s-.79-2.45-1-3c-.16.51-1,3-1,3H102.1L104.63,74S103.85,76.37,103.68,76.88Z"/><path class="cls-2" d="M50.42,72.37l-.1,0a.08.08,0,0,1,0-.06.43.43,0,0,0,0-.05s0-.06,0-.12l.07-.22c0-.09.06-.21.11-.36h1.67s0,.08.05.15,0,.16.07.25,0,.15.07.22a.7.7,0,0,0,0,.11c0,.06,0,.09-.13.1v.1h1.26v-.1a.11.11,0,0,1-.09-.05.54.54,0,0,1-.09-.2c-.08-.2-.15-.43-.24-.69l-.27-.8-.27-.8c-.09-.27-.16-.51-.23-.71l-.16-.5c0-.14-.07-.21-.07-.23a.08.08,0,0,1,0-.07l.08,0v-.1H50.52v.1l.09,0s0,0,0,.05a1.23,1.23,0,0,1,0,.18,3.2,3.2,0,0,0-.14.41q-.07.27-.18.6c-.07.22-.13.44-.21.67l-.21.68c-.07.22-.13.42-.2.61s-.1.32-.14.44-.05.19-.06.22a.48.48,0,0,1-.06.14.27.27,0,0,1-.12.05v.1h1.13Z"/><polygon class="cls-9" points="51.33 68.86 52.02 70.89 50.69 70.89 51.33 68.86"/><path class="cls-7" d="M69.73,48.2l2.48-1.81,2.51,1.81c-.16-.51-1-2.94-1-2.94l2.49-1.81H73.18s-.79-2.45-1-3c-.16.51-1,3-1,3H68.14l2.53,1.83S69.89,47.68,69.73,48.2Z"/><path class="cls-10" d="M225.43,59.94a26.71,26.71,0,0,0-15.7-4.61,28.13,28.13,0,0,0-13.28,2.91,26.07,26.07,0,0,0-9.09,7.82,33.58,33.58,0,0,0-5.27,11.21,49.86,49.86,0,0,0-1.7,13.1,55.65,55.65,0,0,0,1.7,14,33.38,33.38,0,0,0,5.27,11.52,26,26,0,0,0,9.15,7.82,28.52,28.52,0,0,0,13.34,2.91A25.72,25.72,0,0,0,220,124.74a22.78,22.78,0,0,0,7.64-5.22,23.86,23.86,0,0,0,5-7.94,33,33,0,0,0,2.18-9.94h11.52Q244.65,118,235.07,127.1t-26.19,9.09a41.78,41.78,0,0,1-17.58-3.45,34.5,34.5,0,0,1-12.49-9.52,40.84,40.84,0,0,1-7.45-14.3,61,61,0,0,1-2.49-17.7,57.74,57.74,0,0,1,2.67-17.77A42.58,42.58,0,0,1,179.36,59a36.29,36.29,0,0,1,12.85-9.76,41.32,41.32,0,0,1,17.64-3.58,44.54,44.54,0,0,1,12.85,1.82,34.56,34.56,0,0,1,10.79,5.33,30.14,30.14,0,0,1,7.88,8.79,32.15,32.15,0,0,1,4.12,12.19H234Q232,64.55,225.43,59.94Z"/><path class="cls-10" d="M266.59,47.69v86.56H255.07V47.69Z"/><path class="cls-10" d="M270.71,57.39v-9.7h69.23v9.7H311.08v76.86H299.56V57.39Z"/><path class="cls-10" d="M355.45,47.69v86.56H343.94V47.69Z"/><path class="cls-10" d="M405,47.69l33.83,86.56H426.13l-9.45-26.06H380.06l-9.69,26.06H358.6l33.71-86.56Zm8,50.8L398.61,58.12h-.24L383.7,98.49Z"/><path class="cls-10" d="M479.24,47.69q13.1,0,19.82,6.73t6.73,18.85q0,12.12-6.73,18.92t-19.82,6.66H452.81v35.4H441.29V47.69Zm-3.88,41.46q9.83.13,14.36-4t4.55-11.88q0-7.76-4.55-11.82t-14.36-4.06H452.81V89.15Z"/><path class="cls-10" d="M557.13,59.51q-5.76-4.18-14.73-4.18a34.84,34.84,0,0,0-7.15.73A18.94,18.94,0,0,0,529,58.48,12.72,12.72,0,0,0,524.64,63,14.06,14.06,0,0,0,523,70.12a9,9,0,0,0,2.37,6.49,17.69,17.69,0,0,0,6.3,4.06,52.62,52.62,0,0,0,8.91,2.6q5,1,10.13,2.25c3.43.81,6.81,1.75,10.12,2.85a33.12,33.12,0,0,1,8.91,4.42,21.18,21.18,0,0,1,6.31,7,21.79,21.79,0,0,1,2.36,10.67,21.73,21.73,0,0,1-3.09,11.82,25.38,25.38,0,0,1-7.94,8,34.34,34.34,0,0,1-10.85,4.49,52.64,52.64,0,0,1-11.94,1.39,50.82,50.82,0,0,1-13.76-1.81,34,34,0,0,1-11.4-5.52,26.16,26.16,0,0,1-7.76-9.46,30.39,30.39,0,0,1-2.85-13.64h10.91a19.62,19.62,0,0,0,2.12,9.4,19.41,19.41,0,0,0,5.58,6.49,23.47,23.47,0,0,0,8.06,3.75,37,37,0,0,0,9.46,1.22,43.45,43.45,0,0,0,7.82-.73,23,23,0,0,0,7.09-2.49,13.28,13.28,0,0,0,7-12.54,10.86,10.86,0,0,0-2.36-7.28,17.4,17.4,0,0,0-6.3-4.54,45.14,45.14,0,0,0-8.92-2.85l-10.12-2.25Q534,92.8,529.07,91.28a36.3,36.3,0,0,1-8.91-4A17.89,17.89,0,0,1,511.49,71a23,23,0,0,1,2.66-11.34,23.37,23.37,0,0,1,7.1-7.88,32,32,0,0,1,10.06-4.61,44.44,44.44,0,0,1,11.58-1.51,46.22,46.22,0,0,1,12.36,1.58,27.91,27.91,0,0,1,10,5,24.11,24.11,0,0,1,6.79,8.54A30.64,30.64,0,0,1,574.77,73H563.86Q562.89,63.7,557.13,59.51Z"/><path class="cls-1" d="M185.46,169a7.52,7.52,0,0,1-5.34,1.76,8.28,8.28,0,0,1-5.52-1.68q-2-1.68-2-5.35V152.06h2.44v11.69a5,5,0,0,0,1.3,3.73,5.2,5.2,0,0,0,3.77,1.27,4.71,4.71,0,0,0,3.56-1.27,5.18,5.18,0,0,0,1.21-3.73V152.06h2.44v11.69A6.89,6.89,0,0,1,185.46,169Z"/><path class="cls-1" d="M192.51,152.06l9.64,14.85h.06V152.06h2.3v18.31h-2.66l-9.57-14.7h-.05v14.7h-2.31V152.06Z"/><path class="cls-1" d="M209.72,152.06v18.31h-2.44V152.06Z"/><path class="cls-1" d="M217,170.37l-6.44-18.31h2.62l5.23,15.87h.05l5.28-15.87h2.54l-6.51,18.31Z"/><path class="cls-1" d="M239.57,152.06v2.05H229.36v5.82h9.52v2h-9.52v6.34h10.29v2.05H226.93V152.06Z"/><path class="cls-1" d="M249.93,152.06a6,6,0,0,1,4.09,1.28,4.41,4.41,0,0,1,1.48,3.51,5.54,5.54,0,0,1-.76,2.93,3.88,3.88,0,0,1-2.42,1.72v.05a3.17,3.17,0,0,1,1.29.51,2.73,2.73,0,0,1,.8.86,3.89,3.89,0,0,1,.43,1.11,10.2,10.2,0,0,1,.22,1.29c0,.44.06.89.08,1.36a12.27,12.27,0,0,0,.13,1.36,8.27,8.27,0,0,0,.29,1.26,3.08,3.08,0,0,0,.58,1.07h-2.72a1.57,1.57,0,0,1-.35-.77,8.35,8.35,0,0,1-.11-1.09c0-.4,0-.83-.05-1.3a8.58,8.58,0,0,0-.16-1.35,11.42,11.42,0,0,0-.25-1.27,3,3,0,0,0-.49-1.06,2.45,2.45,0,0,0-.87-.71,3.24,3.24,0,0,0-1.44-.27h-5.95v7.82h-2.43V152.06Zm.52,8.31a3.52,3.52,0,0,0,1.34-.5,2.8,2.8,0,0,0,.93-1,3.37,3.37,0,0,0,.34-1.63,3.25,3.25,0,0,0-.77-2.26,3.16,3.16,0,0,0-2.49-.87h-6.05v6.39h5.08A10.63,10.63,0,0,0,250.45,160.37Z"/><path class="cls-1" d="M266.77,154.56a5.17,5.17,0,0,0-3.12-.89,7,7,0,0,0-1.51.16,3.87,3.87,0,0,0-1.32.51,2.73,2.73,0,0,0-.92,1,3,3,0,0,0-.35,1.5,1.91,1.91,0,0,0,.5,1.37,3.69,3.69,0,0,0,1.33.86,10.29,10.29,0,0,0,1.89.55l2.14.48c.73.17,1.44.37,2.14.6a7.26,7.26,0,0,1,1.89.94,4.43,4.43,0,0,1,1.33,1.49,5.22,5.22,0,0,1-.15,4.75,5.45,5.45,0,0,1-1.68,1.7,7.33,7.33,0,0,1-2.3.94,10.91,10.91,0,0,1-2.52.3,10.67,10.67,0,0,1-2.92-.39,7.19,7.19,0,0,1-2.41-1.16,5.54,5.54,0,0,1-1.64-2,6.48,6.48,0,0,1-.6-2.89h2.31a4.15,4.15,0,0,0,.45,2,4,4,0,0,0,1.18,1.37,4.86,4.86,0,0,0,1.7.8,7.89,7.89,0,0,0,2,.25,9.4,9.4,0,0,0,1.66-.15,4.86,4.86,0,0,0,1.5-.53,2.88,2.88,0,0,0,1.07-1,2.93,2.93,0,0,0,.41-1.64,2.27,2.27,0,0,0-.5-1.54,3.65,3.65,0,0,0-1.33-1,9.43,9.43,0,0,0-1.88-.6l-2.15-.48c-.72-.16-1.44-.35-2.14-.56a7.9,7.9,0,0,1-1.88-.85,3.78,3.78,0,0,1-1.84-3.45,4.84,4.84,0,0,1,.57-2.4,4.78,4.78,0,0,1,1.5-1.66,6.71,6.71,0,0,1,2.13-1,9.52,9.52,0,0,1,2.45-.32,9.42,9.42,0,0,1,2.61.34,5.86,5.86,0,0,1,2.12,1,5.17,5.17,0,0,1,1.43,1.8,6.44,6.44,0,0,1,.58,2.61h-2.31A3.79,3.79,0,0,0,266.77,154.56Z"/><path class="cls-1" d="M275.48,152.06v18.31H273V152.06Z"/><path class="cls-1" d="M284.58,152.06a9.19,9.19,0,0,1,6.52,2.15q2.28,2.16,2.28,6.57a14.9,14.9,0,0,1-.51,4.09,7.71,7.71,0,0,1-1.6,3,6.88,6.88,0,0,1-2.74,1.86,10.94,10.94,0,0,1-3.95.64H278.3V152.06Zm.21,16.26a8.56,8.56,0,0,0,1-.07,5.7,5.7,0,0,0,1.31-.3,6.18,6.18,0,0,0,1.37-.71,4.6,4.6,0,0,0,1.22-1.26,7.28,7.28,0,0,0,.89-2,10.56,10.56,0,0,0,.34-2.89,12.55,12.55,0,0,0-.32-2.94,5.56,5.56,0,0,0-1.05-2.2,4.67,4.67,0,0,0-1.89-1.39,7.56,7.56,0,0,0-2.84-.47h-4.11v14.21Z"/><path class="cls-1" d="M302.74,152.06l7.15,18.31H307.2l-2-5.51h-7.74l-2.06,5.51h-2.48l7.13-18.31Zm1.69,10.74-3.05-8.54h-.05l-3.11,8.54Z"/><path class="cls-1" d="M316.69,152.06a9.19,9.19,0,0,1,6.52,2.15q2.28,2.16,2.28,6.57a14.51,14.51,0,0,1-.52,4.09,7.57,7.57,0,0,1-1.59,3,6.88,6.88,0,0,1-2.74,1.86,10.94,10.94,0,0,1-3.95.64h-6.28V152.06Zm.21,16.26a8.56,8.56,0,0,0,1-.07,5.7,5.7,0,0,0,1.31-.3,6.18,6.18,0,0,0,1.37-.71,4.74,4.74,0,0,0,1.22-1.26,7,7,0,0,0,.88-2,10.16,10.16,0,0,0,.35-2.89,12.55,12.55,0,0,0-.32-2.94,5.56,5.56,0,0,0-1.05-2.2,4.67,4.67,0,0,0-1.89-1.39,7.6,7.6,0,0,0-2.84-.47h-4.11v14.21Z"/><path class="cls-1" d="M339.31,152.06a9.19,9.19,0,0,1,6.52,2.15q2.28,2.16,2.28,6.57a14.51,14.51,0,0,1-.52,4.09,7.57,7.57,0,0,1-1.59,3,6.88,6.88,0,0,1-2.74,1.86,10.94,10.94,0,0,1-3.95.64H333V152.06Zm.21,16.26a8.56,8.56,0,0,0,1-.07,5.7,5.7,0,0,0,1.31-.3,6.18,6.18,0,0,0,1.37-.71,4.74,4.74,0,0,0,1.22-1.26,7.28,7.28,0,0,0,.89-2,10.56,10.56,0,0,0,.34-2.89,12.55,12.55,0,0,0-.32-2.94,5.56,5.56,0,0,0-1.05-2.2,4.67,4.67,0,0,0-1.89-1.39,7.56,7.56,0,0,0-2.84-.47h-4.11v14.21Z"/><path class="cls-1" d="M362.44,152.06v2.05h-10.2v5.82h9.51v2h-9.51v6.34h10.28v2.05H349.8V152.06Z"/><path class="cls-1" d="M379.2,154.56a5.16,5.16,0,0,0-3.11-.89,6.91,6.91,0,0,0-1.51.16,4,4,0,0,0-1.33.51,2.73,2.73,0,0,0-.92,1,3,3,0,0,0-.35,1.5,1.87,1.87,0,0,0,.51,1.37,3.6,3.6,0,0,0,1.33.86,10,10,0,0,0,1.88.55l2.14.48c.73.17,1.45.37,2.15.6a7,7,0,0,1,1.88.94,4.46,4.46,0,0,1,1.34,1.49,4.6,4.6,0,0,1,.5,2.25,4.55,4.55,0,0,1-.66,2.5,5.35,5.35,0,0,1-1.68,1.7,7.27,7.27,0,0,1-2.29.94,11,11,0,0,1-2.53.3,10.55,10.55,0,0,1-2.91-.39,7,7,0,0,1-2.41-1.16,5.54,5.54,0,0,1-1.64-2,6.35,6.35,0,0,1-.61-2.89h2.31a4.15,4.15,0,0,0,.45,2,4,4,0,0,0,1.18,1.37,5,5,0,0,0,1.71.8,7.83,7.83,0,0,0,2,.25,9.29,9.29,0,0,0,1.65-.15,4.68,4.68,0,0,0,1.5-.53,2.91,2.91,0,0,0,1.08-1,3,3,0,0,0,.41-1.64,2.32,2.32,0,0,0-.5-1.54,3.74,3.74,0,0,0-1.33-1,9.53,9.53,0,0,0-1.89-.6l-2.14-.48c-.73-.16-1.44-.35-2.14-.56a8.16,8.16,0,0,1-1.89-.85,4,4,0,0,1-1.33-1.36,3.92,3.92,0,0,1-.5-2.09,4.7,4.7,0,0,1,2.06-4.06,6.92,6.92,0,0,1,2.13-1,9.9,9.9,0,0,1,5.07,0,5.81,5.81,0,0,1,2.11,1,5.08,5.08,0,0,1,1.44,1.8,6.6,6.6,0,0,1,.58,2.61h-2.31A3.8,3.8,0,0,0,379.2,154.56Z"/><path class="cls-1" d="M393,152.06l7.16,18.31h-2.7l-2-5.51h-7.74l-2.05,5.51h-2.49l7.13-18.31Zm1.69,10.74-3.05-8.54h-.05l-3.1,8.54Z"/><path class="cls-1" d="M403.27,152.06l9.65,14.85H413V152.06h2.31v18.31h-2.67L403,155.67H403v14.7h-2.31V152.06Z"/><path class="cls-1" d="M416,154.11v-2.05h14.65v2.05h-6.11v16.26H422.1V154.11Z"/><path class="cls-1" d="M433.92,152.06v18.31h-2.43V152.06Z"/><path class="cls-1" d="M444.41,152.06l7.16,18.31h-2.7l-2-5.51h-7.74l-2.05,5.51h-2.49l7.13-18.31Zm1.69,10.74-3.05-8.54H443l-3.1,8.54Z"/><path class="cls-1" d="M463.11,170.15a8.65,8.65,0,0,1-3.21.63,8.48,8.48,0,0,1-3.67-.76,8.2,8.2,0,0,1-2.74-2,8.78,8.78,0,0,1-1.72-2.95,10.35,10.35,0,0,1-.59-3.46,13,13,0,0,1,.55-3.81,9.49,9.49,0,0,1,1.64-3.16,8,8,0,0,1,2.72-2.17,8.48,8.48,0,0,1,3.81-.81,11.09,11.09,0,0,1,2.81.35,7,7,0,0,1,2.36,1.09,6.41,6.41,0,0,1,1.74,1.88,7.38,7.38,0,0,1,1,2.76h-2.43a4.76,4.76,0,0,0-.67-1.81,4.3,4.3,0,0,0-1.2-1.24,5.24,5.24,0,0,0-1.63-.73,7.21,7.21,0,0,0-1.94-.25,5.58,5.58,0,0,0-4.81,2.43,7.67,7.67,0,0,0-1.11,2.48,11.5,11.5,0,0,0-.36,2.86,9,9,0,0,0,.41,2.76,7.2,7.2,0,0,0,1.2,2.34,5.94,5.94,0,0,0,2,1.61,5.81,5.81,0,0,0,2.7.6,6.5,6.5,0,0,0,2.54-.46,5.22,5.22,0,0,0,3-3.17,6,6,0,0,0,.33-2.34h-5.84v-2.05h8v9.64h-1.53l-.65-2.28A6.08,6.08,0,0,1,463.11,170.15Z"/><path class="cls-1" d="M469.79,157.61a9.1,9.1,0,0,1,1.65-3.07,8.18,8.18,0,0,1,2.75-2.12,9.52,9.52,0,0,1,7.64,0,8.14,8.14,0,0,1,2.74,2.12,9.12,9.12,0,0,1,1.66,3.07,12.09,12.09,0,0,1,0,7.21,9.08,9.08,0,0,1-1.66,3.06,7.89,7.89,0,0,1-2.74,2.12,9.74,9.74,0,0,1-7.64,0,7.93,7.93,0,0,1-2.75-2.12,9.05,9.05,0,0,1-1.65-3.06,12.09,12.09,0,0,1,0-7.21Zm2.24,6.33a7.52,7.52,0,0,0,1.13,2.43,5.78,5.78,0,0,0,2,1.73,6.68,6.68,0,0,0,5.75,0,5.78,5.78,0,0,0,2-1.73,7.32,7.32,0,0,0,1.13-2.43,10.44,10.44,0,0,0,.36-2.73,10.55,10.55,0,0,0-.36-2.73,7.27,7.27,0,0,0-1.13-2.42,5.67,5.67,0,0,0-2-1.73,6.59,6.59,0,0,0-5.75,0,5.67,5.67,0,0,0-2,1.73,7.47,7.47,0,0,0-1.13,2.42,10.55,10.55,0,0,0-.36,2.73A10.44,10.44,0,0,0,472,163.94Z"/><path class="cls-1" d="M500.6,152.06a9.19,9.19,0,0,1,6.52,2.15q2.28,2.16,2.28,6.57a14.51,14.51,0,0,1-.52,4.09,7.57,7.57,0,0,1-1.59,3,6.88,6.88,0,0,1-2.74,1.86,10.94,10.94,0,0,1-3.95.64h-6.28V152.06Zm.21,16.26a8.56,8.56,0,0,0,1-.07,5.7,5.7,0,0,0,1.31-.3,6.18,6.18,0,0,0,1.37-.71,4.74,4.74,0,0,0,1.22-1.26,7.28,7.28,0,0,0,.89-2,10.56,10.56,0,0,0,.34-2.89,12.55,12.55,0,0,0-.32-2.94,5.56,5.56,0,0,0-1.05-2.2,4.67,4.67,0,0,0-1.89-1.39,7.56,7.56,0,0,0-2.84-.47h-4.11v14.21Z"/><path class="cls-1" d="M523.74,152.06v2.05H513.53v5.82H523v2h-9.51v6.34h10.28v2.05H511.09V152.06Z"/><path class="cls-1" d="M542.39,154.65a5.66,5.66,0,0,0-3.32-1,6,6,0,0,0-2.81.62,5.48,5.48,0,0,0-1.92,1.65,7.15,7.15,0,0,0-1.12,2.38,10.5,10.5,0,0,0-.36,2.76,11.85,11.85,0,0,0,.36,3,7,7,0,0,0,1.12,2.43,5.39,5.39,0,0,0,1.94,1.66,6,6,0,0,0,2.82.61,5.55,5.55,0,0,0,2.14-.39,4.93,4.93,0,0,0,1.61-1.11,5,5,0,0,0,1.07-1.68,7.14,7.14,0,0,0,.46-2.1h2.44a8.35,8.35,0,0,1-2.39,5.39,7.73,7.73,0,0,1-5.54,1.92,8.79,8.79,0,0,1-3.72-.73,7.37,7.37,0,0,1-2.64-2,8.75,8.75,0,0,1-1.58-3,12.92,12.92,0,0,1-.52-3.75,12.37,12.37,0,0,1,.56-3.75,9.09,9.09,0,0,1,1.66-3.07,7.58,7.58,0,0,1,2.72-2.06,8.63,8.63,0,0,1,3.73-.76,9.37,9.37,0,0,1,2.72.39,7.35,7.35,0,0,1,2.28,1.12,6.46,6.46,0,0,1,1.66,1.86,6.86,6.86,0,0,1,.88,2.58H544.2A4.52,4.52,0,0,0,542.39,154.65Z"/><path class="cls-1" d="M551,152.06v7.87h9.64v-7.87h2.44v18.31h-2.44V162H551v8.39h-2.44V152.06Z"/><path class="cls-1" d="M568.33,152.06v18.31H565.9V152.06Z"/><path class="cls-1" d="M573.59,152.06v16.26h9.7v2.05H571.15V152.06Z"/><path class="cls-1" d="M596.78,152.06v2.05H586.57v5.82h9.51v2h-9.51v6.34h10.28v2.05H584.13V152.06Z"/><path class="cls-1" d="M175.25,16.52V34.84h-2.44V16.52Z"/><path class="cls-1" d="M179.76,21.58v2.1h.06a4.57,4.57,0,0,1,4.3-2.41,5.71,5.71,0,0,1,2.18.36,3.44,3.44,0,0,1,1.41,1,3.64,3.64,0,0,1,.76,1.52,8,8,0,0,1,.22,2v8.72h-2.18v-9a2.63,2.63,0,0,0-.72-1.95,2.67,2.67,0,0,0-2-.72,4.49,4.49,0,0,0-1.73.31,3.31,3.31,0,0,0-1.22.87,3.71,3.71,0,0,0-.73,1.32,5.21,5.21,0,0,0-.25,1.66v7.49h-2.18V21.58Z"/><path class="cls-1" d="M192.74,21.58v2.1h0a4.6,4.6,0,0,1,4.31-2.41,5.74,5.74,0,0,1,2.18.36,3.58,3.58,0,0,1,1.41,1,3.76,3.76,0,0,1,.76,1.52,8.54,8.54,0,0,1,.22,2v8.72h-2.18v-9a2.63,2.63,0,0,0-.72-1.95,2.68,2.68,0,0,0-2-.72,4.57,4.57,0,0,0-1.73.31,3.48,3.48,0,0,0-1.22.87,4,4,0,0,0-.73,1.32,5.5,5.5,0,0,0-.24,1.66v7.49h-2.18V21.58Z"/><path class="cls-1" d="M203.36,25.49a6.13,6.13,0,0,1,1.23-2.21,5.83,5.83,0,0,1,2-1.47,7.4,7.4,0,0,1,5.55,0,5.85,5.85,0,0,1,2,1.47,6.13,6.13,0,0,1,1.23,2.21,9.26,9.26,0,0,1,0,5.45,6,6,0,0,1-1.23,2.19,5.58,5.58,0,0,1-2,1.46,7.53,7.53,0,0,1-5.55,0,5.57,5.57,0,0,1-2-1.46,6,6,0,0,1-1.23-2.19,9.26,9.26,0,0,1,0-5.45Zm2.22,4.87a4.49,4.49,0,0,0,.88,1.57,3.94,3.94,0,0,0,5.85,0,4.34,4.34,0,0,0,.88-1.57,7.1,7.1,0,0,0,0-4.28,4.47,4.47,0,0,0-.88-1.58,3.77,3.77,0,0,0-1.32-1,4,4,0,0,0-3.21,0,3.77,3.77,0,0,0-1.32,1,4.64,4.64,0,0,0-.88,1.58,7.32,7.32,0,0,0,0,4.28Z"/><path class="cls-1" d="M220.75,34.84l-4.93-13.26h2.44L222,32.63H222l3.62-11.05h2.28l-4.85,13.26Z"/><path class="cls-1" d="M240.39,34.79a3.07,3.07,0,0,1-1.56.33,1.87,1.87,0,0,1-1.35-.48,2.06,2.06,0,0,1-.5-1.55,5.11,5.11,0,0,1-2.09,1.55,7.1,7.1,0,0,1-4.28.27,3.83,3.83,0,0,1-1.4-.64,3.2,3.2,0,0,1-.94-1.14,3.85,3.85,0,0,1-.34-1.7,4,4,0,0,1,.38-1.85,3.41,3.41,0,0,1,1-1.17,4.73,4.73,0,0,1,1.43-.68c.54-.15,1.09-.28,1.66-.38s1.16-.21,1.7-.27a9.7,9.7,0,0,0,1.43-.26,2.27,2.27,0,0,0,1-.49,1.17,1.17,0,0,0,.36-.93,2.21,2.21,0,0,0-.27-1.16,1.82,1.82,0,0,0-.69-.66,2.66,2.66,0,0,0-.95-.31,7.4,7.4,0,0,0-1-.08,4.64,4.64,0,0,0-2.31.53,2.24,2.24,0,0,0-1,2h-2.18a4.9,4.9,0,0,1,.51-2.08,3.81,3.81,0,0,1,1.24-1.37,5,5,0,0,1,1.75-.76,9.57,9.57,0,0,1,2.12-.23,11.75,11.75,0,0,1,1.78.13,4.63,4.63,0,0,1,1.6.52A3.11,3.11,0,0,1,238.6,23,3.53,3.53,0,0,1,239,24.9v6.81a5.13,5.13,0,0,0,.09,1.13c.06.24.26.35.61.35a2.52,2.52,0,0,0,.66-.1ZM236.85,28a2.85,2.85,0,0,1-1.07.45c-.45.09-.91.17-1.4.23s-1,.12-1.48.2a5.61,5.61,0,0,0-1.33.37,2.41,2.41,0,0,0-1,.73,2,2,0,0,0-.37,1.29,1.73,1.73,0,0,0,.78,1.5,2.46,2.46,0,0,0,.81.33,4.31,4.31,0,0,0,1,.1,5.1,5.1,0,0,0,1.85-.29,3.7,3.7,0,0,0,1.25-.74,2.82,2.82,0,0,0,.72-1,2.32,2.32,0,0,0,.23-1Z"/><path class="cls-1" d="M249.06,23.89a3.26,3.26,0,0,0-2.2-.7,4.08,4.08,0,0,0-2,.44,3.52,3.52,0,0,0-1.27,1.15,4.84,4.84,0,0,0-.68,1.66,8.78,8.78,0,0,0-.2,1.93,7.64,7.64,0,0,0,.21,1.8,5.07,5.07,0,0,0,.68,1.55,3.44,3.44,0,0,0,1.21,1.09,3.67,3.67,0,0,0,1.77.41,3.55,3.55,0,0,0,2.53-.85A3.83,3.83,0,0,0,250.24,30h2.23a6.09,6.09,0,0,1-1.83,3.79,5.76,5.76,0,0,1-4,1.34,6.85,6.85,0,0,1-2.68-.49A5.13,5.13,0,0,1,242,33.25a5.83,5.83,0,0,1-1.18-2.15,8.7,8.7,0,0,1-.4-2.73,9.94,9.94,0,0,1,.38-2.78A6.65,6.65,0,0,1,242,23.33a5.55,5.55,0,0,1,2-1.51,6.4,6.4,0,0,1,2.75-.55,8,8,0,0,1,2.11.27,5.34,5.34,0,0,1,1.75.83,4.52,4.52,0,0,1,1.24,1.43,5.38,5.38,0,0,1,.62,2h-2.26A3.3,3.3,0,0,0,249.06,23.89Z"/><path class="cls-1" d="M253.75,19.19V16.52h2.18v2.67Zm2.18,2.39V34.84h-2.18V21.58Z"/><path class="cls-1" d="M257.73,25.49A6.13,6.13,0,0,1,259,23.28a5.83,5.83,0,0,1,2-1.47,7.4,7.4,0,0,1,5.55,0,5.94,5.94,0,0,1,2,1.47,6.13,6.13,0,0,1,1.23,2.21,9.26,9.26,0,0,1,0,5.45,6,6,0,0,1-1.23,2.19,5.67,5.67,0,0,1-2,1.46,7.53,7.53,0,0,1-5.55,0,5.57,5.57,0,0,1-2-1.46,6,6,0,0,1-1.23-2.19,9.26,9.26,0,0,1,0-5.45ZM260,30.36a4.49,4.49,0,0,0,.88,1.57,3.94,3.94,0,0,0,5.85,0,4.34,4.34,0,0,0,.88-1.57,7.1,7.1,0,0,0,0-4.28,4.47,4.47,0,0,0-.88-1.58,3.77,3.77,0,0,0-1.32-1,4,4,0,0,0-3.21,0,3.77,3.77,0,0,0-1.32,1,4.64,4.64,0,0,0-.88,1.58,7.32,7.32,0,0,0,0,4.28Zm4.55-15.27L262,19.24h1.64l3.62-4.15Z"/><path class="cls-1" d="M273.53,21.58v2.1h.05a4.58,4.58,0,0,1,4.31-2.41,5.74,5.74,0,0,1,2.18.36,3.58,3.58,0,0,1,1.41,1,3.62,3.62,0,0,1,.75,1.52,8,8,0,0,1,.22,2v8.72h-2.18v-9a2.49,2.49,0,0,0-2.69-2.67,4.53,4.53,0,0,0-1.73.31,3.39,3.39,0,0,0-1.22.87,3.87,3.87,0,0,0-.73,1.32,5.5,5.5,0,0,0-.24,1.66v7.49h-2.18V21.58Z"/><path class="cls-1" d="M299.69,34a6,6,0,0,1-3.75,1.13,6.78,6.78,0,0,1-2.75-.51,5.62,5.62,0,0,1-2-1.44A6.19,6.19,0,0,1,290,31a11,11,0,0,1-.45-2.79A8.17,8.17,0,0,1,290,25.4a6.52,6.52,0,0,1,1.3-2.18,5.74,5.74,0,0,1,2-1.44,6.07,6.07,0,0,1,2.5-.51,5.43,5.43,0,0,1,2.94.73,5.83,5.83,0,0,1,1.87,1.86,7.34,7.34,0,0,1,1,2.46,10.78,10.78,0,0,1,.22,2.54h-9.93a5.08,5.08,0,0,0,.21,1.66,3.6,3.6,0,0,0,2,2.34,4.49,4.49,0,0,0,1.87.36,3.76,3.76,0,0,0,2.27-.64,3.13,3.13,0,0,0,1.17-1.95h2.15A5.29,5.29,0,0,1,299.69,34Zm-.53-8.51a3.61,3.61,0,0,0-2-2,4,4,0,0,0-3,0,3.41,3.41,0,0,0-1.17.81,4,4,0,0,0-.77,1.19,4.58,4.58,0,0,0-.33,1.45h7.62A4.46,4.46,0,0,0,299.16,25.48Z"/><path class="cls-1" d="M304.84,21.58v2.1h.05a4.6,4.6,0,0,1,4.31-2.41,5.74,5.74,0,0,1,2.18.36,3.58,3.58,0,0,1,1.41,1,3.76,3.76,0,0,1,.76,1.52,8.54,8.54,0,0,1,.22,2v8.72h-2.18v-9a2.63,2.63,0,0,0-.72-1.95,2.68,2.68,0,0,0-2-.72,4.57,4.57,0,0,0-1.73.31,3.48,3.48,0,0,0-1.22.87,4,4,0,0,0-.73,1.32,5.5,5.5,0,0,0-.24,1.66v7.49h-2.18V21.58Z"/><path class="cls-1" d="M320,18.58V16.52h14.65v2.06h-6.11V34.84h-2.43V18.58Z"/><path class="cls-1" d="M338,16.52V34.84h-2.43V16.52Z"/><path class="cls-1" d="M348.52,21.58v1.79h.05a3.26,3.26,0,0,1,1.69-1.6,6.4,6.4,0,0,1,2.54-.5,6,6,0,0,1,2.68.56,5.49,5.49,0,0,1,1.9,1.53,6.86,6.86,0,0,1,1.14,2.22,9,9,0,0,1,.39,2.67,9.24,9.24,0,0,1-.38,2.66,6.27,6.27,0,0,1-1.12,2.2,5.43,5.43,0,0,1-1.9,1.47,6.16,6.16,0,0,1-2.66.54,7.6,7.6,0,0,1-1.09-.1,5.73,5.73,0,0,1-1.19-.34,4.45,4.45,0,0,1-1.12-.63,3.46,3.46,0,0,1-.88-1h-.05v6.82h-2.18V21.58Zm7.83,4.7a4.84,4.84,0,0,0-.74-1.57,3.62,3.62,0,0,0-1.28-1.11,4,4,0,0,0-1.84-.41,3.75,3.75,0,0,0-1.87.44,3.7,3.7,0,0,0-1.25,1.14,4.55,4.55,0,0,0-.71,1.6,7.49,7.49,0,0,0-.22,1.82,7.89,7.89,0,0,0,.23,1.89,4.79,4.79,0,0,0,.73,1.6,3.82,3.82,0,0,0,1.3,1.12,4.06,4.06,0,0,0,1.92.42,3.67,3.67,0,0,0,1.89-.44,3.54,3.54,0,0,0,1.22-1.15,5.32,5.32,0,0,0,.66-1.64,8.58,8.58,0,0,0,.21-1.9A6.53,6.53,0,0,0,356.35,26.28Z"/><path class="cls-1" d="M371.93,34.79a3.07,3.07,0,0,1-1.56.33,1.87,1.87,0,0,1-1.35-.48,2.06,2.06,0,0,1-.5-1.55,5.11,5.11,0,0,1-2.09,1.55,7.1,7.1,0,0,1-4.28.27,3.83,3.83,0,0,1-1.4-.64,3.08,3.08,0,0,1-.93-1.14,3.71,3.71,0,0,1-.35-1.7,4,4,0,0,1,.38-1.85,3.41,3.41,0,0,1,1-1.17,4.73,4.73,0,0,1,1.43-.68c.54-.15,1.09-.28,1.66-.38s1.16-.21,1.7-.27a9.7,9.7,0,0,0,1.43-.26,2.27,2.27,0,0,0,1-.49,1.17,1.17,0,0,0,.36-.93,2.21,2.21,0,0,0-.27-1.16,1.82,1.82,0,0,0-.69-.66,2.66,2.66,0,0,0-.95-.31,7.4,7.4,0,0,0-1-.08,4.64,4.64,0,0,0-2.31.53,2.24,2.24,0,0,0-1,2H360a4.76,4.76,0,0,1,.52-2.08,3.7,3.7,0,0,1,1.23-1.37,5,5,0,0,1,1.75-.76,9.57,9.57,0,0,1,2.12-.23,11.75,11.75,0,0,1,1.78.13,4.63,4.63,0,0,1,1.6.52A3.11,3.11,0,0,1,370.14,23a3.53,3.53,0,0,1,.43,1.86v6.81a5.13,5.13,0,0,0,.09,1.13c.06.24.26.35.61.35a2.46,2.46,0,0,0,.66-.1ZM368.39,28a2.85,2.85,0,0,1-1.07.45c-.45.09-.91.17-1.4.23s-1,.12-1.48.2a5.61,5.61,0,0,0-1.33.37,2.41,2.41,0,0,0-1,.73,2,2,0,0,0-.37,1.29,1.73,1.73,0,0,0,.78,1.5,2.46,2.46,0,0,0,.81.33,4.31,4.31,0,0,0,1,.1,5.1,5.1,0,0,0,1.85-.29,3.85,3.85,0,0,0,1.26-.74,2.92,2.92,0,0,0,.71-1,2.32,2.32,0,0,0,.23-1Z"/><path class="cls-1" d="M374.65,21.58v2.79h.05A5.91,5.91,0,0,1,376.65,22a4.9,4.9,0,0,1,2.93-.72v2.31a6.19,6.19,0,0,0-2.24.36,3.51,3.51,0,0,0-1.48,1,4.26,4.26,0,0,0-.82,1.68,9.08,9.08,0,0,0-.26,2.27v5.9H372.6V21.58Z"/><path class="cls-1" d="M391.68,34.79a3.12,3.12,0,0,1-1.56.33,1.86,1.86,0,0,1-1.35-.48,2.06,2.06,0,0,1-.5-1.55,5.18,5.18,0,0,1-2.09,1.55,6.84,6.84,0,0,1-2.58.48,6.65,6.65,0,0,1-1.7-.21,3.83,3.83,0,0,1-1.4-.64,3.1,3.1,0,0,1-.94-1.14,4.56,4.56,0,0,1,0-3.55,3.49,3.49,0,0,1,1-1.17,4.78,4.78,0,0,1,1.44-.68c.54-.15,1.09-.28,1.65-.38s1.17-.21,1.71-.27a9.55,9.55,0,0,0,1.42-.26,2.32,2.32,0,0,0,1-.49,1.17,1.17,0,0,0,.36-.93,2.21,2.21,0,0,0-.27-1.16,1.82,1.82,0,0,0-.69-.66,2.72,2.72,0,0,0-.95-.31,7.4,7.4,0,0,0-1-.08,4.62,4.62,0,0,0-2.31.53,2.22,2.22,0,0,0-1,2h-2.18a4.62,4.62,0,0,1,.51-2.08,3.87,3.87,0,0,1,1.23-1.37,5.17,5.17,0,0,1,1.76-.76,9.5,9.5,0,0,1,2.12-.23,11.85,11.85,0,0,1,1.78.13,4.63,4.63,0,0,1,1.6.52A3.19,3.19,0,0,1,389.89,23a3.53,3.53,0,0,1,.43,1.86v6.81a5.13,5.13,0,0,0,.09,1.13c.06.24.26.35.6.35a2.59,2.59,0,0,0,.67-.1ZM388.14,28a2.84,2.84,0,0,1-1.08.45c-.44.09-.91.17-1.39.23s-1,.12-1.48.2a5.61,5.61,0,0,0-1.33.37,2.28,2.28,0,0,0-1,.73,2,2,0,0,0-.38,1.29,1.71,1.71,0,0,0,.79,1.5,2.5,2.5,0,0,0,.8.33,4.46,4.46,0,0,0,1,.1,5.13,5.13,0,0,0,1.85-.29,3.7,3.7,0,0,0,1.25-.74,2.82,2.82,0,0,0,.72-1,2.49,2.49,0,0,0,.23-1Z"/><path class="cls-1" d="M406.3,16.52l7.15,18.32h-2.69l-2-5.52H401L399,34.84h-2.48l7.13-18.32ZM408,27.27l-3.05-8.54h-.05l-3.1,8.54Z"/><path class="cls-1" d="M415.87,21.58v1.79h.05a3.26,3.26,0,0,1,1.69-1.6,6.36,6.36,0,0,1,2.54-.5,6.08,6.08,0,0,1,2.68.56,5.59,5.59,0,0,1,1.9,1.53,6.86,6.86,0,0,1,1.14,2.22,9.66,9.66,0,0,1,0,5.33,6.29,6.29,0,0,1-1.13,2.2,5.34,5.34,0,0,1-1.9,1.47,6.12,6.12,0,0,1-2.65.54,7.48,7.48,0,0,1-1.09-.1,5.73,5.73,0,0,1-1.19-.34,4.29,4.29,0,0,1-1.12-.63,3.46,3.46,0,0,1-.88-1h-.05v6.82h-2.18V21.58Zm7.83,4.7a4.84,4.84,0,0,0-.74-1.57,3.65,3.65,0,0,0-1.29-1.11,3.92,3.92,0,0,0-1.83-.41,3.75,3.75,0,0,0-1.87.44,3.83,3.83,0,0,0-1.26,1.14,4.72,4.72,0,0,0-.7,1.6,7.49,7.49,0,0,0-.22,1.82,7.89,7.89,0,0,0,.23,1.89,4.6,4.6,0,0,0,.73,1.6A3.69,3.69,0,0,0,418,32.8a4.13,4.13,0,0,0,1.93.42,3.61,3.61,0,0,0,1.88-.44,3.45,3.45,0,0,0,1.22-1.15,5.1,5.1,0,0,0,.67-1.64,8.57,8.57,0,0,0,.2-1.9A6.92,6.92,0,0,0,423.7,26.28Z"/><path class="cls-1" d="M429.84,16.52V34.84h-2.18V16.52Z"/><path class="cls-1" d="M432.07,19.19V16.52h2.18v2.67Zm2.18,2.39V34.84h-2.18V21.58Z"/><path class="cls-1" d="M444.28,23.89a3.26,3.26,0,0,0-2.2-.7,4.08,4.08,0,0,0-2,.44,3.52,3.52,0,0,0-1.27,1.15,4.84,4.84,0,0,0-.68,1.66,8.78,8.78,0,0,0-.2,1.93,7.64,7.64,0,0,0,.21,1.8,5.07,5.07,0,0,0,.68,1.55,3.44,3.44,0,0,0,1.21,1.09,3.62,3.62,0,0,0,1.77.41,3.51,3.51,0,0,0,2.52-.85A3.79,3.79,0,0,0,445.46,30h2.23a6.09,6.09,0,0,1-1.83,3.79,5.76,5.76,0,0,1-4,1.34,6.76,6.76,0,0,1-2.67-.49,5.09,5.09,0,0,1-1.95-1.38A5.83,5.83,0,0,1,436,31.1a8.7,8.7,0,0,1-.4-2.73,9.94,9.94,0,0,1,.38-2.78,6.65,6.65,0,0,1,1.17-2.26,5.55,5.55,0,0,1,2-1.51,6.4,6.4,0,0,1,2.75-.55,8,8,0,0,1,2.11.27,5.34,5.34,0,0,1,1.75.83A4.65,4.65,0,0,1,447,23.8a5.38,5.38,0,0,1,.62,2h-2.26A3.3,3.3,0,0,0,444.28,23.89Z"/><path class="cls-1" d="M460.59,34.79a3.09,3.09,0,0,1-1.56.33,1.86,1.86,0,0,1-1.35-.48,2.06,2.06,0,0,1-.5-1.55,5.11,5.11,0,0,1-2.09,1.55,6.81,6.81,0,0,1-2.58.48,6.71,6.71,0,0,1-1.7-.21,3.83,3.83,0,0,1-1.4-.64,3.1,3.1,0,0,1-.94-1.14,3.85,3.85,0,0,1-.34-1.7,4,4,0,0,1,.38-1.85,3.41,3.41,0,0,1,1-1.17,4.62,4.62,0,0,1,1.43-.68c.54-.15,1.09-.28,1.66-.38s1.16-.21,1.7-.27a9.55,9.55,0,0,0,1.42-.26,2.26,2.26,0,0,0,1-.49,1.17,1.17,0,0,0,.36-.93,2.21,2.21,0,0,0-.27-1.16,1.82,1.82,0,0,0-.69-.66,2.72,2.72,0,0,0-.95-.31,7.4,7.4,0,0,0-1-.08,4.64,4.64,0,0,0-2.31.53,2.24,2.24,0,0,0-1,2h-2.18a4.76,4.76,0,0,1,.51-2.08,3.87,3.87,0,0,1,1.23-1.37,5.17,5.17,0,0,1,1.76-.76,9.5,9.5,0,0,1,2.12-.23,11.75,11.75,0,0,1,1.78.13,4.63,4.63,0,0,1,1.6.52A3.11,3.11,0,0,1,458.8,23a3.53,3.53,0,0,1,.43,1.86v6.81a5.13,5.13,0,0,0,.09,1.13c.06.24.26.35.6.35a2.59,2.59,0,0,0,.67-.1ZM457.05,28a2.85,2.85,0,0,1-1.07.45c-.45.09-.92.17-1.4.23s-1,.12-1.48.2a5.61,5.61,0,0,0-1.33.37,2.35,2.35,0,0,0-1,.73,2,2,0,0,0-.37,1.29,1.67,1.67,0,0,0,.78,1.5,2.46,2.46,0,0,0,.81.33,4.31,4.31,0,0,0,1,.1,5.13,5.13,0,0,0,1.85-.29,3.7,3.7,0,0,0,1.25-.74,2.82,2.82,0,0,0,.72-1,2.32,2.32,0,0,0,.23-1Z"/><path class="cls-1" d="M469.26,23.89a3.27,3.27,0,0,0-2.21-.7,4.07,4.07,0,0,0-2,.44,3.52,3.52,0,0,0-1.27,1.15,4.84,4.84,0,0,0-.68,1.66,8.78,8.78,0,0,0-.21,1.93,7.65,7.65,0,0,0,.22,1.8,4.84,4.84,0,0,0,.68,1.55A3.44,3.44,0,0,0,465,32.81a3.62,3.62,0,0,0,1.77.41,3.51,3.51,0,0,0,2.52-.85A3.79,3.79,0,0,0,470.44,30h2.23a6.09,6.09,0,0,1-1.83,3.79,5.78,5.78,0,0,1-4,1.34,6.81,6.81,0,0,1-2.68-.49,5.17,5.17,0,0,1-1.95-1.38A6.14,6.14,0,0,1,461,31.1a9,9,0,0,1-.39-2.73,9.94,9.94,0,0,1,.38-2.78,6.65,6.65,0,0,1,1.17-2.26,5.46,5.46,0,0,1,2-1.51,6.38,6.38,0,0,1,2.74-.55,8,8,0,0,1,2.12.27,5.2,5.2,0,0,1,1.74.83A4.55,4.55,0,0,1,472,23.8a5.2,5.2,0,0,1,.61,2h-2.25A3.3,3.3,0,0,0,469.26,23.89Z"/><path class="cls-1" d="M474,19.19V16.52h2.18v2.67Zm2.18,2.39V34.84H474V21.58Z"/><path class="cls-1" d="M477.93,25.49a6.13,6.13,0,0,1,1.23-2.21,5.89,5.89,0,0,1,2-1.47,7.43,7.43,0,0,1,5.56,0,5.94,5.94,0,0,1,2,1.47A6.13,6.13,0,0,1,490,25.49a9.26,9.26,0,0,1,0,5.45,6,6,0,0,1-1.23,2.19,5.67,5.67,0,0,1-2,1.46,7.56,7.56,0,0,1-5.56,0,5.62,5.62,0,0,1-2-1.46,6,6,0,0,1-1.23-2.19,9.26,9.26,0,0,1,0-5.45Zm2.22,4.87a4.34,4.34,0,0,0,.88,1.57,3.94,3.94,0,0,0,5.85,0,4.49,4.49,0,0,0,.88-1.57,7.32,7.32,0,0,0,0-4.28,4.64,4.64,0,0,0-.88-1.58,3.77,3.77,0,0,0-1.32-1,4,4,0,0,0-3.21,0,3.77,3.77,0,0,0-1.32,1,4.47,4.47,0,0,0-.88,1.58,7.32,7.32,0,0,0,0,4.28Z"/><path class="cls-1" d="M493.73,21.58v2.1h0a4.58,4.58,0,0,1,4.31-2.41,5.78,5.78,0,0,1,2.18.36,3.58,3.58,0,0,1,1.41,1,3.62,3.62,0,0,1,.75,1.52,8,8,0,0,1,.22,2v8.72h-2.18v-9a2.49,2.49,0,0,0-2.69-2.67,4.49,4.49,0,0,0-1.73.31,3.31,3.31,0,0,0-1.22.87,3.71,3.71,0,0,0-.73,1.32,5.5,5.5,0,0,0-.25,1.66v7.49h-2.18V21.58Z"/><path class="cls-1" d="M514,34a6,6,0,0,1-3.75,1.13,6.78,6.78,0,0,1-2.75-.51,5.62,5.62,0,0,1-2-1.44A6.19,6.19,0,0,1,504.38,31a11,11,0,0,1-.45-2.79,8.17,8.17,0,0,1,.46-2.77,6.52,6.52,0,0,1,1.3-2.18,5.77,5.77,0,0,1,2-1.44,6,6,0,0,1,2.5-.51,5.42,5.42,0,0,1,2.93.73A5.83,5.83,0,0,1,515,23.86a7.34,7.34,0,0,1,1,2.46,10.78,10.78,0,0,1,.22,2.54h-9.93a5.08,5.08,0,0,0,.21,1.66,3.6,3.6,0,0,0,2.05,2.34,4.49,4.49,0,0,0,1.87.36,3.76,3.76,0,0,0,2.27-.64,3.13,3.13,0,0,0,1.17-1.95H516A5.29,5.29,0,0,1,514,34Zm-.53-8.51a3.69,3.69,0,0,0-.79-1.2,3.82,3.82,0,0,0-1.18-.79,4,4,0,0,0-3,0,3.41,3.41,0,0,0-1.17.81,4,4,0,0,0-.77,1.19,4.88,4.88,0,0,0-.33,1.45h7.62A4.46,4.46,0,0,0,513.51,25.48Z"/><path class="cls-1" d="M518.81,31.87a2.22,2.22,0,0,0,.81.8,3.39,3.39,0,0,0,1.13.42,6,6,0,0,0,1.29.13,8.34,8.34,0,0,0,1.08-.08,3.89,3.89,0,0,0,1-.28,2,2,0,0,0,.78-.6,1.64,1.64,0,0,0,.31-1A1.46,1.46,0,0,0,524.6,30a5.39,5.39,0,0,0-1.6-.7c-.64-.18-1.34-.34-2.09-.49a10.84,10.84,0,0,1-2.09-.61,4.4,4.4,0,0,1-1.6-1.12,2.9,2.9,0,0,1-.64-2,3.17,3.17,0,0,1,.45-1.72,3.67,3.67,0,0,1,1.15-1.17,5.13,5.13,0,0,1,1.59-.66,7.13,7.13,0,0,1,1.76-.22,10.27,10.27,0,0,1,2.07.19,4.66,4.66,0,0,1,1.68.67,3.37,3.37,0,0,1,1.17,1.28,4.87,4.87,0,0,1,.51,2h-2.18a2.14,2.14,0,0,0-.33-1.06,2.23,2.23,0,0,0-.72-.68,3.36,3.36,0,0,0-1-.37,4.72,4.72,0,0,0-1.06-.12,6.61,6.61,0,0,0-1,.08,3.22,3.22,0,0,0-.91.27,1.92,1.92,0,0,0-.67.51,1.31,1.31,0,0,0-.25.84,1.24,1.24,0,0,0,.39.93,3.38,3.38,0,0,0,1,.62,9,9,0,0,0,1.38.41l1.54.34a16.35,16.35,0,0,1,1.6.44,5.29,5.29,0,0,1,1.39.68,3.39,3.39,0,0,1,1,1.06,3.12,3.12,0,0,1,.37,1.59,3.62,3.62,0,0,1-.5,2,4,4,0,0,1-1.3,1.29,5.64,5.64,0,0,1-1.83.68,11.4,11.4,0,0,1-2,.19,9.59,9.59,0,0,1-2.1-.23,5.24,5.24,0,0,1-1.77-.76,3.91,3.91,0,0,1-1.23-1.38,4.88,4.88,0,0,1-.52-2.09h2.18A2.42,2.42,0,0,0,518.81,31.87Z"/><path class="cls-1" d="M544.06,19a5.19,5.19,0,0,0-3.12-.89,7.58,7.58,0,0,0-1.51.15,4.09,4.09,0,0,0-1.32.52,2.67,2.67,0,0,0-.93,1,3,3,0,0,0-.34,1.5,1.88,1.88,0,0,0,.5,1.37,3.69,3.69,0,0,0,1.33.86,10.88,10.88,0,0,0,1.89.55l2.14.48c.72.17,1.44.37,2.14.6a6.76,6.76,0,0,1,1.88.94,4.43,4.43,0,0,1,1.34,1.48,4.64,4.64,0,0,1,.5,2.26,4.57,4.57,0,0,1-.66,2.5A5.22,5.22,0,0,1,546.22,34a7,7,0,0,1-2.29,1,11,11,0,0,1-2.53.3,10.65,10.65,0,0,1-2.91-.39,7.1,7.1,0,0,1-2.41-1.16,5.57,5.57,0,0,1-1.64-2,6.44,6.44,0,0,1-.6-2.88h2.3a4.15,4.15,0,0,0,.45,2,4.23,4.23,0,0,0,1.18,1.37,5,5,0,0,0,1.71.79,7.42,7.42,0,0,0,2,.26,9.21,9.21,0,0,0,1.65-.15,4.93,4.93,0,0,0,1.5-.53,2.91,2.91,0,0,0,1.08-1,3,3,0,0,0,.41-1.64,2.25,2.25,0,0,0-.5-1.54,3.51,3.51,0,0,0-1.33-1,10.23,10.23,0,0,0-1.89-.61l-2.14-.47c-.73-.16-1.44-.35-2.14-.57a7.75,7.75,0,0,1-1.89-.84,4.12,4.12,0,0,1-1.33-1.36,4,4,0,0,1-.5-2.09,5,5,0,0,1,.56-2.4,5,5,0,0,1,1.51-1.67,6.74,6.74,0,0,1,2.12-1,9.63,9.63,0,0,1,2.45-.32,9.89,9.89,0,0,1,2.62.33,6.11,6.11,0,0,1,2.12,1,5.21,5.21,0,0,1,1.43,1.81,6.59,6.59,0,0,1,.58,2.6h-2.31A3.82,3.82,0,0,0,544.06,19Z"/><path class="cls-1" d="M549.56,25.49a6.13,6.13,0,0,1,1.23-2.21,5.83,5.83,0,0,1,2-1.47,7.4,7.4,0,0,1,5.55,0,5.94,5.94,0,0,1,2,1.47,6.13,6.13,0,0,1,1.23,2.21,9.26,9.26,0,0,1,0,5.45,6,6,0,0,1-1.23,2.19,5.67,5.67,0,0,1-2,1.46,7.53,7.53,0,0,1-5.55,0,5.57,5.57,0,0,1-2-1.46,6,6,0,0,1-1.23-2.19,9.26,9.26,0,0,1,0-5.45Zm2.22,4.87a4.49,4.49,0,0,0,.88,1.57,3.94,3.94,0,0,0,5.85,0,4.49,4.49,0,0,0,.88-1.57,7.32,7.32,0,0,0,0-4.28,4.64,4.64,0,0,0-.88-1.58,3.77,3.77,0,0,0-1.32-1,4,4,0,0,0-3.21,0,3.77,3.77,0,0,0-1.32,1,4.64,4.64,0,0,0-.88,1.58,7.32,7.32,0,0,0,0,4.28Z"/><path class="cls-1" d="M571.23,23.89a3.27,3.27,0,0,0-2.21-.7,4.07,4.07,0,0,0-2,.44,3.52,3.52,0,0,0-1.27,1.15,4.84,4.84,0,0,0-.68,1.66,8.78,8.78,0,0,0-.21,1.93,7.65,7.65,0,0,0,.22,1.8,4.84,4.84,0,0,0,.68,1.55A3.44,3.44,0,0,0,567,32.81a3.62,3.62,0,0,0,1.77.41,3.53,3.53,0,0,0,2.52-.85A3.79,3.79,0,0,0,572.41,30h2.23a6.09,6.09,0,0,1-1.83,3.79,5.78,5.78,0,0,1-4,1.34,6.81,6.81,0,0,1-2.68-.49,5.09,5.09,0,0,1-2-1.38A6.14,6.14,0,0,1,563,31.1a9,9,0,0,1-.39-2.73,9.58,9.58,0,0,1,.38-2.78,6.65,6.65,0,0,1,1.17-2.26,5.46,5.46,0,0,1,2-1.51,6.38,6.38,0,0,1,2.74-.55,8,8,0,0,1,2.12.27,5.2,5.2,0,0,1,1.74.83A4.55,4.55,0,0,1,574,23.8a5.2,5.2,0,0,1,.61,2h-2.25A3.3,3.3,0,0,0,571.23,23.89Z"/><path class="cls-1" d="M575.92,19.19V16.52h2.18v2.67Zm2.18,2.39V34.84h-2.18V21.58Z"/><path class="cls-1" d="M592,34.79a3.09,3.09,0,0,1-1.56.33,1.86,1.86,0,0,1-1.35-.48,2.06,2.06,0,0,1-.5-1.55,5.11,5.11,0,0,1-2.09,1.55,6.81,6.81,0,0,1-2.58.48,6.71,6.71,0,0,1-1.7-.21,3.83,3.83,0,0,1-1.4-.64,3.1,3.1,0,0,1-.94-1.14,3.85,3.85,0,0,1-.34-1.7,4,4,0,0,1,.38-1.85,3.49,3.49,0,0,1,1-1.17,4.78,4.78,0,0,1,1.44-.68c.54-.15,1.09-.28,1.65-.38s1.17-.21,1.71-.27a9.55,9.55,0,0,0,1.42-.26,2.32,2.32,0,0,0,1-.49,1.17,1.17,0,0,0,.36-.93,2.21,2.21,0,0,0-.27-1.16,1.82,1.82,0,0,0-.69-.66,2.72,2.72,0,0,0-1-.31,7.4,7.4,0,0,0-1-.08,4.62,4.62,0,0,0-2.31.53,2.22,2.22,0,0,0-1,2H580a4.76,4.76,0,0,1,.51-2.08,3.87,3.87,0,0,1,1.23-1.37,5.17,5.17,0,0,1,1.76-.76,9.5,9.5,0,0,1,2.12-.23,11.85,11.85,0,0,1,1.78.13,4.63,4.63,0,0,1,1.6.52A3.11,3.11,0,0,1,590.16,23a3.53,3.53,0,0,1,.43,1.86v6.81a5.13,5.13,0,0,0,.09,1.13c.06.24.26.35.6.35a2.59,2.59,0,0,0,.67-.1ZM588.41,28a2.84,2.84,0,0,1-1.08.45c-.44.09-.91.17-1.39.23s-1,.12-1.48.2a5.61,5.61,0,0,0-1.33.37,2.35,2.35,0,0,0-1,.73,2,2,0,0,0-.38,1.29,1.71,1.71,0,0,0,.79,1.5,2.5,2.5,0,0,0,.8.33,4.46,4.46,0,0,0,1,.1,5.13,5.13,0,0,0,1.85-.29,3.7,3.7,0,0,0,1.25-.74,2.82,2.82,0,0,0,.72-1,2.49,2.49,0,0,0,.23-1Z"/><path class="cls-1" d="M595,16.52V34.84h-2.18V16.52Z"/><path class="cls-1" d="M606.49,34a6,6,0,0,1-3.74,1.13,6.87,6.87,0,0,1-2.76-.51,5.58,5.58,0,0,1-2-1.44A6,6,0,0,1,596.84,31a10.18,10.18,0,0,1-.45-2.79,7.93,7.93,0,0,1,.46-2.77,6.67,6.67,0,0,1,1.29-2.18,5.87,5.87,0,0,1,2-1.44,6,6,0,0,1,2.5-.51,5.43,5.43,0,0,1,2.94.73,5.93,5.93,0,0,1,1.87,1.86,7.32,7.32,0,0,1,1,2.46,10.28,10.28,0,0,1,.22,2.54H598.7a5.36,5.36,0,0,0,.2,1.66,3.71,3.71,0,0,0,.75,1.38,3.65,3.65,0,0,0,1.3,1,4.54,4.54,0,0,0,1.88.36,3.73,3.73,0,0,0,2.26-.64,3.08,3.08,0,0,0,1.17-1.95h2.16A5.3,5.3,0,0,1,606.49,34ZM606,25.48a3.71,3.71,0,0,0-.8-1.2,3.6,3.6,0,0,0-1.18-.79,3.65,3.65,0,0,0-1.5-.3,3.72,3.72,0,0,0-1.52.3,3.23,3.23,0,0,0-1.17.81,3.81,3.81,0,0,0-.77,1.19,4.33,4.33,0,0,0-.33,1.45h7.61A4.45,4.45,0,0,0,606,25.48Z"/><path class="cls-1" d="M611.26,31.87a2.38,2.38,0,0,0,.81.8,3.39,3.39,0,0,0,1.13.42,6.14,6.14,0,0,0,1.29.13,8.09,8.09,0,0,0,1.08-.08,3.79,3.79,0,0,0,1-.28,1.86,1.86,0,0,0,.78-.6,1.58,1.58,0,0,0,.31-1,1.45,1.45,0,0,0-.64-1.29,5.51,5.51,0,0,0-1.6-.7c-.65-.18-1.34-.34-2.09-.49a10.64,10.64,0,0,1-2.09-.61A4.36,4.36,0,0,1,609.67,27a3,3,0,0,1-.64-2,3.17,3.17,0,0,1,.45-1.72,3.67,3.67,0,0,1,1.15-1.17,5.13,5.13,0,0,1,1.59-.66,7.13,7.13,0,0,1,1.76-.22,10.37,10.37,0,0,1,2.08.19,4.82,4.82,0,0,1,1.68.67,3.45,3.45,0,0,1,1.17,1.28,4.87,4.87,0,0,1,.51,2h-2.18a2.37,2.37,0,0,0-.33-1.06,2.23,2.23,0,0,0-.72-.68,3.31,3.31,0,0,0-1-.37,4.72,4.72,0,0,0-1.06-.12,6.83,6.83,0,0,0-1,.08,3.32,3.32,0,0,0-.91.27,1.89,1.89,0,0,0-.66.51,1.26,1.26,0,0,0-.26.84,1.21,1.21,0,0,0,.4.93,3.21,3.21,0,0,0,1,.62,9,9,0,0,0,1.38.41l1.54.34c.55.12,1.08.27,1.61.44a5.22,5.22,0,0,1,1.38.68,3.42,3.42,0,0,1,1,1.06A3.22,3.22,0,0,1,620,31a3.71,3.71,0,0,1-.5,2,4,4,0,0,1-1.31,1.29,5.67,5.67,0,0,1-1.82.68,11.58,11.58,0,0,1-2,.19,9.61,9.61,0,0,1-2.11-.23,5.42,5.42,0,0,1-1.77-.76,3.91,3.91,0,0,1-1.23-1.38,4.74,4.74,0,0,1-.51-2.09h2.18A2.52,2.52,0,0,0,611.26,31.87Z"/></svg>