<svg id="Capa_1" data-name="Capa 1" xmlns="http://www.w3.org/2000/svg" viewBox="0 0 911.84 283.46"><defs><style>.cls-1{fill:#1e1e1e;}.cls-2{fill:none;stroke:#5f5f5f;stroke-miterlimit:10;stroke-width:2px;}.cls-3{fill:#333;}.cls-4{fill:#474747;}.cls-5{fill:#c4c4c4;}</style></defs><title>imago-pnrrd-gris</title><path class="cls-1" d="M179.22,97.54a16,16,0,0,1-1.13,6.15,13,13,0,0,1-3.21,4.68,14.42,14.42,0,0,1-5.13,3,22.06,22.06,0,0,1-7.26,1.06h-5.17v16.38a.78.78,0,0,1-.16.49,1,1,0,0,1-.49.33,4.25,4.25,0,0,1-.91.21,11.89,11.89,0,0,1-2.92,0,5,5,0,0,1-.93-.21,1,1,0,0,1-.49-.33.83.83,0,0,1-.14-.49v-42a2.42,2.42,0,0,1,.74-2,2.53,2.53,0,0,1,1.65-.59h9.73c1,0,1.93,0,2.83.12a25.81,25.81,0,0,1,3.2.53,12.88,12.88,0,0,1,3.76,1.51,11.64,11.64,0,0,1,3.25,2.72,11.82,11.82,0,0,1,2.06,3.74A14.56,14.56,0,0,1,179.22,97.54Zm-6.36.5a9.45,9.45,0,0,0-1-4.64,7.24,7.24,0,0,0-2.57-2.78,8.48,8.48,0,0,0-3.16-1.16,21.89,21.89,0,0,0-3.18-.24h-5.59v18.24h5.45a12.63,12.63,0,0,0,4.55-.71,8.56,8.56,0,0,0,3-2,8.14,8.14,0,0,0,1.86-3A11,11,0,0,0,172.86,98Z"/><path class="cls-1" d="M212,127.06a7.86,7.86,0,0,1-.07,1.18,2.5,2.5,0,0,1-.23.81,1.09,1.09,0,0,1-.38.49.94.94,0,0,1-.55.16h-20.1a2.46,2.46,0,0,1-1.53-.55,2.24,2.24,0,0,1-.72-1.91V85.14a.86.86,0,0,1,.14-.49.93.93,0,0,1,.49-.34,5.77,5.77,0,0,1,.95-.21,11.72,11.72,0,0,1,1.44-.08,11.6,11.6,0,0,1,1.46.08,5.47,5.47,0,0,1,.93.21.89.89,0,0,1,.49.34.79.79,0,0,1,.15.49v39.33h16.3a1,1,0,0,1,.55.15,1.25,1.25,0,0,1,.38.46,2.18,2.18,0,0,1,.23.79A8.1,8.1,0,0,1,212,127.06Z"/><path class="cls-1" d="M252.77,127.56a4.1,4.1,0,0,1,.3,1.25.84.84,0,0,1-.27.71,1.55,1.55,0,0,1-.92.32c-.44,0-1,.07-1.74.07s-1.31,0-1.74,0a4.2,4.2,0,0,1-1-.18,1.06,1.06,0,0,1-.49-.33,3.57,3.57,0,0,1-.3-.53l-3.9-11.07h-18.9l-3.73,10.93a2.19,2.19,0,0,1-.28.55,1.36,1.36,0,0,1-.51.38,2.8,2.8,0,0,1-1,.23c-.41,0-.94.07-1.6.07a12.67,12.67,0,0,1-1.67-.09,1.67,1.67,0,0,1-.91-.33.87.87,0,0,1-.25-.72,4.23,4.23,0,0,1,.3-1.25l15.25-42.24a1.75,1.75,0,0,1,.37-.63,1.58,1.58,0,0,1,.67-.39,5,5,0,0,1,1.12-.19c.46,0,1,0,1.74,0s1.38,0,1.87,0a5.38,5.38,0,0,1,1.19.19,1.62,1.62,0,0,1,.7.4,1.81,1.81,0,0,1,.39.66ZM233.2,90.27h0l-7.83,22.66h15.81Z"/><path class="cls-1" d="M288.86,86.82a7.76,7.76,0,0,1-.07,1.16,2.46,2.46,0,0,1-.23.8,1.11,1.11,0,0,1-.38.44,1,1,0,0,1-.51.14h-12.8v39.43a.9.9,0,0,1-.13.49,1,1,0,0,1-.5.33,4.64,4.64,0,0,1-.93.21,11.73,11.73,0,0,1-2.9,0,5.07,5.07,0,0,1-1-.21,1,1,0,0,1-.49-.33.91.91,0,0,1-.14-.49V89.36H256a1,1,0,0,1-.51-.14,1,1,0,0,1-.37-.44,3.09,3.09,0,0,1-.23-.8,6.52,6.52,0,0,1-.08-1.16,6.86,6.86,0,0,1,.08-1.17,3.49,3.49,0,0,1,.23-.83,1,1,0,0,1,.37-.46,1,1,0,0,1,.51-.13h31.63a1,1,0,0,1,.51.13,1.11,1.11,0,0,1,.38.46,2.75,2.75,0,0,1,.23.83A8.17,8.17,0,0,1,288.86,86.82Z"/><path class="cls-1" d="M329.49,127.56a4.8,4.8,0,0,1,.3,1.25.84.84,0,0,1-.27.71,1.58,1.58,0,0,1-.93.32c-.43,0-1,.07-1.74.07s-1.3,0-1.74,0a4.2,4.2,0,0,1-1-.18,1,1,0,0,1-.49-.33,2.38,2.38,0,0,1-.3-.53l-3.9-11.07H300.53l-3.72,10.93a1.92,1.92,0,0,1-.29.55,1.29,1.29,0,0,1-.51.38,2.8,2.8,0,0,1-.94.23c-.42,0-.95.07-1.61.07a12.51,12.51,0,0,1-1.66-.09,1.74,1.74,0,0,1-.92-.33.87.87,0,0,1-.24-.72,4.5,4.5,0,0,1,.29-1.25l15.26-42.24a1.5,1.5,0,0,1,1-1,5.08,5.08,0,0,1,1.13-.19c.45,0,1,0,1.74,0s1.37,0,1.86,0a5.58,5.58,0,0,1,1.2.19,1.74,1.74,0,0,1,.7.4,2.14,2.14,0,0,1,.39.66ZM309.91,90.27h0L302,112.93h15.82Z"/><path class="cls-1" d="M361,86.82A7.76,7.76,0,0,1,360.9,88a2.23,2.23,0,0,1-.24.8,1.25,1.25,0,0,1-.41.44.92.92,0,0,1-.47.14H343.12v15.46h15.75a1,1,0,0,1,.47.12,1.23,1.23,0,0,1,.41.41,2.07,2.07,0,0,1,.24.75,8.12,8.12,0,0,1,.07,1.21,7.61,7.61,0,0,1-.07,1.15,2.41,2.41,0,0,1-.24.77,1.39,1.39,0,0,1-.41.45.78.78,0,0,1-.47.16H343.12v18.95a.92.92,0,0,1-.14.47.9.9,0,0,1-.49.35,4.94,4.94,0,0,1-.91.21,11.89,11.89,0,0,1-2.92,0,4.89,4.89,0,0,1-1-.21.94.94,0,0,1-.49-.35.83.83,0,0,1-.14-.47V86.69a2.27,2.27,0,0,1,.72-1.92,2.49,2.49,0,0,1,1.53-.54h20.45a.9.9,0,0,1,.47.13,1.24,1.24,0,0,1,.41.46,2.48,2.48,0,0,1,.24.83A8.17,8.17,0,0,1,361,86.82Z"/><path class="cls-1" d="M408.24,106.43a35.17,35.17,0,0,1-1.3,9.95,20.88,20.88,0,0,1-3.88,7.54,17,17,0,0,1-6.49,4.78,23,23,0,0,1-9.1,1.67,23.35,23.35,0,0,1-8.87-1.53,15.57,15.57,0,0,1-6.19-4.45,18.87,18.87,0,0,1-3.63-7.23,37.37,37.37,0,0,1-1.2-10,34.58,34.58,0,0,1,1.3-9.77,20.51,20.51,0,0,1,3.9-7.47,17.32,17.32,0,0,1,6.5-4.75,26,26,0,0,1,17.86-.15,15.91,15.91,0,0,1,6.2,4.41A18.75,18.75,0,0,1,407,96.65,36.24,36.24,0,0,1,408.24,106.43Zm-6.4.43a35.33,35.33,0,0,0-.68-7.19,16.62,16.62,0,0,0-2.28-5.76,11,11,0,0,0-4.26-3.81,14.29,14.29,0,0,0-6.6-1.38,13.51,13.51,0,0,0-6.6,1.48,12.46,12.46,0,0,0-4.34,3.94,16.37,16.37,0,0,0-2.38,5.74,32.25,32.25,0,0,0-.72,6.91,37.69,37.69,0,0,0,.67,7.38,16.36,16.36,0,0,0,2.24,5.81,10.71,10.71,0,0,0,4.23,3.8,14.55,14.55,0,0,0,6.65,1.35,13.79,13.79,0,0,0,6.67-1.47,12.1,12.1,0,0,0,4.35-4,16.91,16.91,0,0,0,2.35-5.82A33.4,33.4,0,0,0,401.84,106.86Z"/><path class="cls-1" d="M448.13,128.79a1.1,1.1,0,0,1-.11.49.8.8,0,0,1-.45.35,3.91,3.91,0,0,1-1,.21c-.42,0-1,.07-1.69.07a14.58,14.58,0,0,1-1.49-.07,2.86,2.86,0,0,1-.93-.23,1.27,1.27,0,0,1-.55-.44,3.28,3.28,0,0,1-.33-.7l-4.18-10.72c-.49-1.22-1-2.33-1.53-3.35a10.45,10.45,0,0,0-1.88-2.64,7.75,7.75,0,0,0-2.56-1.72,9.24,9.24,0,0,0-3.55-.62h-4.05v19.37a.78.78,0,0,1-.16.49,1,1,0,0,1-.49.33,4.25,4.25,0,0,1-.91.21,11.89,11.89,0,0,1-2.92,0,5,5,0,0,1-.93-.21,1,1,0,0,1-.49-.33.91.91,0,0,1-.14-.49V86.69a2.27,2.27,0,0,1,.72-1.92,2.51,2.51,0,0,1,1.53-.54h9.66c1.15,0,2.1,0,2.87.08s1.44.13,2.05.2A17.11,17.11,0,0,1,439.29,86a10.92,10.92,0,0,1,3.39,2.49,10.2,10.2,0,0,1,2.06,3.46,13.12,13.12,0,0,1,.68,4.31,12.65,12.65,0,0,1-.61,4.09,9.89,9.89,0,0,1-1.78,3.2,11.73,11.73,0,0,1-2.77,2.41,17.91,17.91,0,0,1-3.63,1.72,8.27,8.27,0,0,1,2,1.25,10.6,10.6,0,0,1,1.71,1.81,16.71,16.71,0,0,1,1.49,2.42c.47.91.94,2,1.41,3.1l4.08,10c.32.84.53,1.43.62,1.78A3,3,0,0,1,448.13,128.79ZM439,96.84a8.14,8.14,0,0,0-1.19-4.52,6.8,6.8,0,0,0-4-2.65,11.56,11.56,0,0,0-2-.35c-.74-.07-1.71-.1-2.9-.1h-5.1v15.32h5.91a13.32,13.32,0,0,0,4.13-.58,8.29,8.29,0,0,0,2.9-1.62,6.24,6.24,0,0,0,1.7-2.44A8.49,8.49,0,0,0,439,96.84Z"/><path class="cls-1" d="M506.32,128.79a.83.83,0,0,1-.14.49,1.05,1.05,0,0,1-.51.33,5.07,5.07,0,0,1-.92.21,9.7,9.7,0,0,1-1.46.09,9.88,9.88,0,0,1-1.44-.09,4.6,4.6,0,0,1-.94-.21,1,1,0,0,1-.48-.33.77.77,0,0,1-.15-.49V89.18h-.07l-16,39.78a1.08,1.08,0,0,1-.3.42,1.47,1.47,0,0,1-.56.3,4.53,4.53,0,0,1-.88.18c-.33,0-.74,0-1.21,0a11.39,11.39,0,0,1-1.27-.07,4.21,4.21,0,0,1-.87-.19,1.49,1.49,0,0,1-.55-.3,1,1,0,0,1-.26-.39L463,89.18h0v39.61a.91.91,0,0,1-.14.49,1.05,1.05,0,0,1-.51.33,5.13,5.13,0,0,1-.94.21,9.9,9.9,0,0,1-1.48.09,9.65,9.65,0,0,1-1.45-.09,4.64,4.64,0,0,1-.93-.21.92.92,0,0,1-.47-.33,1,1,0,0,1-.12-.49V87a2.55,2.55,0,0,1,.78-2.1,2.73,2.73,0,0,1,1.75-.63h3.71a8.41,8.41,0,0,1,2,.21,4.1,4.1,0,0,1,1.5.67,3.69,3.69,0,0,1,1.07,1.15,8.43,8.43,0,0,1,.75,1.65l13,32.93h.18L495.15,88a9.06,9.06,0,0,1,.86-1.79,4.42,4.42,0,0,1,1-1.18,3.42,3.42,0,0,1,1.23-.63,5.65,5.65,0,0,1,1.56-.19h3.9a3.38,3.38,0,0,1,1,.15,2.12,2.12,0,0,1,.83.5,2.55,2.55,0,0,1,.55.84,3.25,3.25,0,0,1,.21,1.24Z"/><path class="cls-1" d="M552.46,127.56a4.1,4.1,0,0,1,.3,1.25.84.84,0,0,1-.26.71,1.61,1.61,0,0,1-.93.32c-.44,0-1,.07-1.74.07s-1.31,0-1.74,0a4.2,4.2,0,0,1-1-.18,1,1,0,0,1-.5-.33,2.87,2.87,0,0,1-.29-.53l-3.9-11.07H523.51l-3.73,10.93a1.9,1.9,0,0,1-.28.55,1.29,1.29,0,0,1-.51.38,2.73,2.73,0,0,1-.94.23c-.42,0-.95.07-1.6.07a12.73,12.73,0,0,1-1.68-.09,1.74,1.74,0,0,1-.91-.33.87.87,0,0,1-.24-.72,4.5,4.5,0,0,1,.29-1.25l15.25-42.24a1.77,1.77,0,0,1,.38-.63,1.61,1.61,0,0,1,.66-.39,5,5,0,0,1,1.12-.19c.46,0,1,0,1.74,0s1.38,0,1.87,0a5.38,5.38,0,0,1,1.19.19,1.72,1.72,0,0,1,.71.4,1.94,1.94,0,0,1,.38.66ZM532.89,90.27h0L525,112.93h15.81Z"/><path class="cls-1" d="M613.27,125.79a2.49,2.49,0,0,1-.24,1.14,2.24,2.24,0,0,1-.64.78,2.38,2.38,0,0,1-.87.44,3.47,3.47,0,0,1-1,.13h-2a7,7,0,0,1-1.68-.18,3.6,3.6,0,0,1-1.37-.68,6.6,6.6,0,0,1-1.3-1.33,16.58,16.58,0,0,1-1.37-2.17L588.65,99.05q-1.11-1.92-2.24-4c-.75-1.41-1.45-2.77-2.1-4.1h-.07c0,1.62.09,3.28.11,5s0,3.37,0,5V127.3a.81.81,0,0,1-.15.46.94.94,0,0,1-.51.34,5,5,0,0,1-.94.2,14,14,0,0,1-3,0,4.46,4.46,0,0,1-.92-.2,1,1,0,0,1-.5-.34.81.81,0,0,1-.15-.46V87A2.23,2.23,0,0,1,579,85a3.06,3.06,0,0,1,1.78-.57h3a8.17,8.17,0,0,1,1.79.17,3.75,3.75,0,0,1,1.29.56A4.88,4.88,0,0,1,588,86.26,13.57,13.57,0,0,1,589.16,88L600,107.2c.67,1.17,1.32,2.31,1.94,3.42s1.22,2.22,1.8,3.3,1.15,2.14,1.71,3.19,1.13,2.1,1.68,3.16h0c-.05-1.78-.08-3.63-.09-5.56s0-3.77,0-5.56V85.43a.73.73,0,0,1,.15-.44,1.06,1.06,0,0,1,.52-.35,3,3,0,0,1,.94-.22,12.67,12.67,0,0,1,1.53-.07,11.87,11.87,0,0,1,1.43.07,2.89,2.89,0,0,1,1,.22,1.05,1.05,0,0,1,.49.35.68.68,0,0,1,.16.44Z"/><path class="cls-1" d="M660.31,126.12a3.59,3.59,0,0,1,.3,1.2.76.76,0,0,1-.26.69,1.82,1.82,0,0,1-1,.31q-.67.06-1.77.06c-.75,0-1.34,0-1.78,0a3.83,3.83,0,0,1-1-.18,1,1,0,0,1-.5-.32,2.54,2.54,0,0,1-.31-.5l-4-10.65H630.78L627,127.2a2.07,2.07,0,0,1-.29.53,1.42,1.42,0,0,1-.52.37,3.6,3.6,0,0,1-1,.22c-.42,0-1,.06-1.64.06a13.05,13.05,0,0,1-1.69-.08A1.71,1.71,0,0,1,621,128a.84.84,0,0,1-.25-.7,3.94,3.94,0,0,1,.31-1.19l15.54-40.63a2,2,0,0,1,.38-.61,1.67,1.67,0,0,1,.68-.36,4.65,4.65,0,0,1,1.15-.19c.47,0,1,0,1.77,0s1.4,0,1.9,0a5.12,5.12,0,0,1,1.22.19,1.64,1.64,0,0,1,.72.38,2,2,0,0,1,.39.63Zm-20-35.85h0l-8,21.79h16.12Z"/><path class="cls-1" d="M699,122a8.69,8.69,0,0,1,0,.94,3.38,3.38,0,0,1-.12.71,2.05,2.05,0,0,1-.24.54,2.83,2.83,0,0,1-.5.58,10.84,10.84,0,0,1-1.5,1,17.8,17.8,0,0,1-2.85,1.35,25.19,25.19,0,0,1-3.91,1.12,24,24,0,0,1-4.81.45,22.25,22.25,0,0,1-8.16-1.42,16.42,16.42,0,0,1-6.19-4.19,18.69,18.69,0,0,1-4-6.84,32.44,32.44,0,0,1,.11-19.08A20.55,20.55,0,0,1,671,90a17.83,17.83,0,0,1,6.43-4.52,21.48,21.48,0,0,1,8.29-1.55,21.87,21.87,0,0,1,3.91.35,27.2,27.2,0,0,1,3.51.9A16.5,16.5,0,0,1,696,86.41a9.59,9.59,0,0,1,1.74,1.16,4.49,4.49,0,0,1,.63.7,2,2,0,0,1,.23.56,4.25,4.25,0,0,1,.15.76,10.26,10.26,0,0,1,.05,1,7.39,7.39,0,0,1-.07,1.14,3.07,3.07,0,0,1-.22.8,1.17,1.17,0,0,1-.34.47.78.78,0,0,1-.49.16,2.85,2.85,0,0,1-1.4-.66A20.94,20.94,0,0,0,694,91.09a19.7,19.7,0,0,0-3.46-1.45,16,16,0,0,0-4.89-.66A13.28,13.28,0,0,0,680,90.14a11.94,11.94,0,0,0-4.35,3.43,16.9,16.9,0,0,0-2.79,5.53,28.57,28.57,0,0,0,0,14.8,14.72,14.72,0,0,0,2.74,5.34,11.25,11.25,0,0,0,4.37,3.25,15,15,0,0,0,5.88,1.1,16.34,16.34,0,0,0,4.84-.65,20.32,20.32,0,0,0,3.53-1.43q1.45-.8,2.4-1.44a2.9,2.9,0,0,1,1.47-.64.87.87,0,0,1,.44.1.76.76,0,0,1,.28.39,3.63,3.63,0,0,1,.17.8C699,121.05,699,121.48,699,122Z"/><path class="cls-1" d="M713.34,127.3a.85.85,0,0,1-.14.48,1.06,1.06,0,0,1-.5.32,5.16,5.16,0,0,1-1,.2,13.73,13.73,0,0,1-3,0,5.07,5.07,0,0,1-1-.2,1.06,1.06,0,0,1-.5-.32.85.85,0,0,1-.14-.48v-42a.75.75,0,0,1,.16-.48,1.16,1.16,0,0,1,.54-.32,8.07,8.07,0,0,1,1-.2,9.59,9.59,0,0,1,1.41-.08,10.42,10.42,0,0,1,1.49.08,7.63,7.63,0,0,1,1,.2,1.06,1.06,0,0,1,.5.32.87.87,0,0,1,.14.48Z"/><path class="cls-1" d="M764.51,105.81a31.88,31.88,0,0,1-1.33,9.56,19.61,19.61,0,0,1-3.95,7.25,17.27,17.27,0,0,1-6.62,4.6,28.11,28.11,0,0,1-18.32.13,15.88,15.88,0,0,1-6.31-4.27,17.94,17.94,0,0,1-3.71-7,34.21,34.21,0,0,1-1.22-9.57,31.42,31.42,0,0,1,1.33-9.39,19.08,19.08,0,0,1,4-7.18A17.53,17.53,0,0,1,735,85.41a28,28,0,0,1,18.21-.15,16.14,16.14,0,0,1,6.32,4.24,17.57,17.57,0,0,1,3.76,6.9A32.41,32.41,0,0,1,764.51,105.81Zm-6.52.4a32.75,32.75,0,0,0-.7-6.91A15.4,15.4,0,0,0,755,93.76a11,11,0,0,0-4.34-3.66,15.24,15.24,0,0,0-6.73-1.32,14.48,14.48,0,0,0-6.73,1.41A12.53,12.53,0,0,0,732.74,94a15.36,15.36,0,0,0-2.43,5.53,28.61,28.61,0,0,0-.73,6.63,35,35,0,0,0,.67,7.11,15.56,15.56,0,0,0,2.29,5.59,10.85,10.85,0,0,0,4.32,3.65,15.54,15.54,0,0,0,6.77,1.3,14.73,14.73,0,0,0,6.81-1.42,12,12,0,0,0,4.43-3.84,15.59,15.59,0,0,0,2.4-5.59A30.39,30.39,0,0,0,758,106.21Z"/><path class="cls-1" d="M809.3,125.79a2.49,2.49,0,0,1-.24,1.14,2.22,2.22,0,0,1-.63.78,2.65,2.65,0,0,1-.87.44,3.65,3.65,0,0,1-1,.13h-2a7.06,7.06,0,0,1-1.69-.18,3.74,3.74,0,0,1-1.37-.68,6.87,6.87,0,0,1-1.3-1.33,18.93,18.93,0,0,1-1.38-2.17L784.68,99.05q-1.11-1.92-2.24-4c-.75-1.41-1.45-2.77-2.09-4.1h-.07c0,1.62.08,3.28.1,5s0,3.37,0,5V127.3a.81.81,0,0,1-.15.46,1,1,0,0,1-.51.34,5.16,5.16,0,0,1-1,.2,10.33,10.33,0,0,1-1.49.08,10.48,10.48,0,0,1-1.5-.08,4.74,4.74,0,0,1-.93-.2.93.93,0,0,1-.48-.34.81.81,0,0,1-.15-.46V87a2.23,2.23,0,0,1,.81-1.93,3,3,0,0,1,1.77-.57h3a8.17,8.17,0,0,1,1.79.17,3.75,3.75,0,0,1,1.29.56,4.69,4.69,0,0,1,1.11,1.08A13.53,13.53,0,0,1,785.2,88l10.87,19.2c.67,1.17,1.32,2.31,1.94,3.42s1.23,2.22,1.8,3.3l1.72,3.19c.56,1,1.12,2.1,1.67,3.16h0c0-1.78-.08-3.63-.09-5.56s0-3.77,0-5.56V85.43a.68.68,0,0,1,.16-.44,1.07,1.07,0,0,1,.51-.35,3,3,0,0,1,.94-.22,12.75,12.75,0,0,1,1.54-.07,12,12,0,0,1,1.43.07,2.76,2.76,0,0,1,.94.22,1,1,0,0,1,.49.35.68.68,0,0,1,.16.44Z"/><path class="cls-1" d="M856.35,126.12a4.16,4.16,0,0,1,.3,1.2.79.79,0,0,1-.27.69,1.82,1.82,0,0,1-1,.31q-.66.06-1.77.06c-.74,0-1.34,0-1.78,0a3.91,3.91,0,0,1-1-.18,1,1,0,0,1-.5-.32,2.54,2.54,0,0,1-.31-.5l-4-10.65H826.82L823,127.2a2.42,2.42,0,0,1-.29.53,1.51,1.51,0,0,1-.52.37,3.59,3.59,0,0,1-1,.22c-.42,0-1,.06-1.64.06a13.42,13.42,0,0,1-1.7-.08A1.7,1.7,0,0,1,817,128a.84.84,0,0,1-.25-.7,3.94,3.94,0,0,1,.31-1.19l15.55-40.63a2,2,0,0,1,.37-.61,1.72,1.72,0,0,1,.69-.36,4.48,4.48,0,0,1,1.14-.19c.47,0,1.06,0,1.78,0s1.39,0,1.9,0a5.12,5.12,0,0,1,1.21.19,1.64,1.64,0,0,1,.72.38,1.84,1.84,0,0,1,.4.63Zm-20-35.85h0l-8,21.79h16.13Z"/><path class="cls-1" d="M888.13,125.65a7.16,7.16,0,0,1-.07,1.13,2.75,2.75,0,0,1-.24.78,1.16,1.16,0,0,1-.39.47,1,1,0,0,1-.56.15h-20.5a2.63,2.63,0,0,1-1.55-.52,2.11,2.11,0,0,1-.74-1.84V85.33a.81.81,0,0,1,.15-.48,1,1,0,0,1,.5-.32,7.67,7.67,0,0,1,1-.2,10.39,10.39,0,0,1,1.47-.08,10.27,10.27,0,0,1,1.48.08,7.25,7.25,0,0,1,1,.2,1,1,0,0,1,.5.32.81.81,0,0,1,.15.48v37.82h16.62a1,1,0,0,1,.56.15,1.2,1.2,0,0,1,.39.44,2.19,2.19,0,0,1,.24.76A7.53,7.53,0,0,1,888.13,125.65Z"/><path d="M250.87,162.6a5.78,5.78,0,0,1,4.15-1.9c3.63,0,5.13,2.54,5.13,7,0,4.8-2.2,7.06-5.52,7.06a5.58,5.58,0,0,1-3.88-1.54l.23,1.63v4.9h-1.37V161h.9Zm.11,9.56a5.24,5.24,0,0,0,3.65,1.58c2.9,0,4.12-1.83,4.12-6,0-3.73-1.06-5.91-3.95-5.91A5.59,5.59,0,0,0,251,163.6Z"/><path d="M274.64,174.51l-.31-1.82a5.67,5.67,0,0,1-4.32,2.09,4,4,0,0,1-4.32-4.05c0-2.26,1.67-3.79,4.68-3.79h3.88v-1.27c0-2.67-1-3.86-3.4-3.86a10.23,10.23,0,0,0-4.19.91l-.39-1a11.22,11.22,0,0,1,4.77-1c2.9,0,4.52,1.57,4.52,4.72v9.09Zm-.39-6.52h-3.71c-2.7,0-3.54,1.16-3.54,2.68,0,1.8,1,3.07,3.29,3.07a5.37,5.37,0,0,0,4-2.07Z"/><path d="M288.46,162.19a5.2,5.2,0,0,0-1.79-.25,4.78,4.78,0,0,0-3.37,1.74v10.83h-1.37V161h.9l.36,1.65a4.88,4.88,0,0,1,3.63-1.85,5.54,5.54,0,0,1,1.8.25Z"/><path d="M301.48,174.51l-.3-1.82a5.69,5.69,0,0,1-4.32,2.09,4,4,0,0,1-4.32-4.05c0-2.26,1.67-3.79,4.68-3.79h3.88v-1.27c0-2.67-1-3.86-3.41-3.86a10.18,10.18,0,0,0-4.18.91l-.39-1a11.18,11.18,0,0,1,4.77-1c2.9,0,4.52,1.57,4.52,4.72v9.09ZM301.1,168h-3.71c-2.71,0-3.54,1.16-3.54,2.68,0,1.8,1,3.07,3.29,3.07a5.37,5.37,0,0,0,4-2.07Z"/><path d="M314.83,172.14v-16.7h1.35V172c0,1.11.44,1.74,1.73,1.77l.92,0v.86a4.6,4.6,0,0,1-1.09.16C315.81,174.78,314.83,173.8,314.83,172.14Z"/><path d="M517.14,172.35v-16.7h1.34v16.53a1.53,1.53,0,0,0,1.73,1.77l.92,0v.86A4.6,4.6,0,0,1,520,175C518.12,175,517.14,174,517.14,172.35Z"/><path d="M332.49,174.51l-.3-1.82a5.71,5.71,0,0,1-4.32,2.09,4,4,0,0,1-4.32-4.05c0-2.26,1.67-3.79,4.68-3.79h3.87v-1.27c0-2.67-1-3.86-3.4-3.86a10.18,10.18,0,0,0-4.18.91l-.39-1a11.18,11.18,0,0,1,4.77-1c2.89,0,4.51,1.57,4.51,4.72v9.09ZM332.1,168h-3.7c-2.71,0-3.55,1.16-3.55,2.68,0,1.8,1,3.07,3.3,3.07a5.36,5.36,0,0,0,4-2.07Z"/><path d="M347.07,166.67v7.84H345.7V155.83h4.55c3.62,0,6.53,1.44,6.53,5.23,0,2.79-1.68,4.39-3.93,5.21l4.4,8.24H355.6l-4.15-7.9c-.33,0-.72.06-1.08.06Zm3-9.68h-3v8.46h3c3.23,0,5.24-1.44,5.24-4.31S353.32,157,350.08,157Z"/><path d="M363.06,168.13c0,3.93,2,5.58,4.74,5.58a7.89,7.89,0,0,0,4.38-1.52l.45,1a9.52,9.52,0,0,1-4.91,1.59c-3.55,0-6-2.39-6-7.14,0-4.37,2.09-6.94,5.63-6.94,3.71,0,5.27,3.06,5.27,6.46v1Zm4.21-6.38c-3,0-4.21,2.64-4.21,5.31h8.23C371.29,164.39,370.34,161.75,367.27,161.75Z"/><path d="M387.22,172.8a5.55,5.55,0,0,1-4.09,2c-3.26,0-5.47-2.49-5.47-7.09,0-4,1.84-7,5.66-7a7,7,0,0,1,3.85,1.08l-.08-2.19v-4.15h1.36v19.07h-.92Zm-.13-10a6.47,6.47,0,0,0-3.74-1.1c-3,0-4.3,2.4-4.3,5.94s1.12,6.05,4.13,6.05a5.24,5.24,0,0,0,3.91-2Z"/><path d="M403.67,174.51l-.2-1.5a6.11,6.11,0,0,1-4.21,1.77c-2.84,0-4.6-1.77-4.6-5.44V161H396v8.12c0,3.18,1,4.53,3.43,4.53a6.21,6.21,0,0,0,3.86-1.57V161h1.39v13.53Z"/><path d="M420.72,173.57a8.71,8.71,0,0,1-4.41,1.21c-3.18,0-5.71-1.87-5.71-7,0-4.67,2.53-7.05,5.66-7.05a8.7,8.7,0,0,1,4.35,1.05l-.45,1a7.44,7.44,0,0,0-3.9-.94c-2.74,0-4.36,2.29-4.36,5.92,0,4.13,1.68,5.93,4.41,5.93a7.43,7.43,0,0,0,4.11-1.18Z"/><path d="M434.7,173.57a8.65,8.65,0,0,1-4.41,1.21c-3.17,0-5.71-1.87-5.71-7,0-4.67,2.54-7.05,5.66-7.05a8.7,8.7,0,0,1,4.35,1.05l-.45,1a7.42,7.42,0,0,0-3.9-.94c-2.74,0-4.35,2.29-4.35,5.92,0,4.13,1.67,5.93,4.4,5.93a7.43,7.43,0,0,0,4.11-1.18Z"/><path d="M440.07,174.51V162.16l-1.48-.28V161h2.78v13.53Zm-.23-18.78h1.53v1.68h-1.53Z"/><path d="M452.88,174.78c-3.52,0-5.56-2.49-5.56-7.09,0-4,1.73-7,5.56-7,3.62,0,5.6,3,5.6,7C458.48,172.24,456.3,174.78,452.88,174.78Zm0-13c-3,0-4.19,2.4-4.19,5.94s1,6.05,4.19,6.05,4.2-2.24,4.2-6.05C457.08,164,455.8,161.75,452.88,161.75Zm-2.74-2.88-.3-.85,5.74-2.41.39,1.06Z"/><path d="M473.14,174.51v-8.26c0-2.84-.85-4.44-3.47-4.44a5.44,5.44,0,0,0-3.81,1.87v10.83h-1.37V161h.89l.37,1.62a6.11,6.11,0,0,1,4.26-1.9c3.07,0,4.52,1.84,4.52,5.16v8.65Z"/><path d="M495.79,172.8a5.55,5.55,0,0,1-4.09,2c-3.27,0-5.48-2.49-5.48-7.09,0-4,1.85-7,5.67-7a7,7,0,0,1,3.85,1.08l-.09-2.19v-4.15H497v19.07h-.92Zm-.14-10a6.41,6.41,0,0,0-3.73-1.1c-3,0-4.29,2.4-4.29,5.94s1.11,6.05,4.12,6.05a5.24,5.24,0,0,0,3.9-2Z"/><path d="M504.29,168.13c0,3.93,2,5.58,4.74,5.58a8,8,0,0,0,4.38-1.52l.44,1a9.52,9.52,0,0,1-4.91,1.59c-3.54,0-6-2.39-6-7.14,0-4.37,2.09-6.94,5.63-6.94,3.71,0,5.27,3.06,5.27,6.46v1Zm4.21-6.38c-3,0-4.21,2.64-4.21,5.31h8.23C512.52,164.39,511.57,161.75,508.5,161.75Z"/><path d="M530.59,166.67v7.84h-1.37V155.83h4.55c3.62,0,6.53,1.44,6.53,5.23,0,2.79-1.68,4.39-3.94,5.21l4.4,8.24h-1.64l-4.15-7.9c-.34,0-.73.06-1.09.06Zm3-9.68h-3v8.46h3c3.24,0,5.24-1.44,5.24-4.31S536.84,157,533.6,157Z"/><path d="M546.72,174.51V162.16l-1.48-.28V161H548v13.53Zm-.22-18.78H548v1.68H546.5Z"/><path d="M555.32,168.13c0,3.93,2,5.58,4.74,5.58a8,8,0,0,0,4.38-1.52l.44,1a9.52,9.52,0,0,1-4.91,1.59c-3.53,0-6-2.39-6-7.14,0-4.37,2.09-6.94,5.63-6.94,3.71,0,5.27,3.06,5.27,6.46v1Zm4.21-6.38c-3,0-4.21,2.64-4.21,5.31h8.22C563.54,164.39,562.59,161.75,559.53,161.75Z"/><path d="M571.11,164.15c0,3.26,7.17,2.12,7.17,6.77,0,2-1.62,3.86-4.44,3.86a7.54,7.54,0,0,1-4.12-1.29l.53-1.05a6.81,6.81,0,0,0,3.62,1.3c2,0,3.07-1.08,3.07-2.77,0-3.69-7.08-2.26-7.08-6.85,0-1.77,1.28-3.42,4.15-3.42a8.47,8.47,0,0,1,4.21,1l-.44,1a7.1,7.1,0,0,0-3.77-.91C572.06,161.81,571.11,162.68,571.11,164.15Z"/><path d="M595.14,161v.83a17.7,17.7,0,0,1-3.69-.12,4.48,4.48,0,0,1,2.1,3.71c0,3.26-2.82,4.52-4.94,4.52a5.19,5.19,0,0,1-1.78-.33c-1.37.23-1.82.61-1.82,1.19,0,1.74,9.07.08,9.07,4.84,0,2.79-2.79,4.47-5.55,4.47-2.57,0-5.27-1.49-5.27-4.12a3.48,3.48,0,0,1,3.37-3.31c-1.64-.19-2.87-.72-2.87-1.88,0-.92.89-1.55,2.14-1.65a4,4,0,0,1-2.29-3.73c0-3.52,3.11-4.7,5-4.7C589.05,160.7,591.37,160.84,595.14,161Zm-6.64,11.93c-2.48,0-3.87,1.24-3.87,3.09s2,3.07,3.9,3.07c2.31,0,4.18-1.08,4.18-3.39C592.71,174.1,591.54,173.24,588.5,172.91Zm3.7-7.51a3.62,3.62,0,1,0-7.24,0c0,2.79,2.06,3.5,3.63,3.5S592.2,168.19,592.2,165.4Z"/><path d="M604.24,174.78c-3.52,0-5.55-2.49-5.55-7.09,0-4,1.73-7,5.55-7,3.62,0,5.61,3,5.61,7C609.85,172.24,607.67,174.78,604.24,174.78Zm0-13c-3,0-4.18,2.4-4.18,5.94s1,6.05,4.18,6.05,4.21-2.24,4.21-6.05C608.45,164,607.17,161.75,604.24,161.75Z"/><path d="M630.89,172.8a5.57,5.57,0,0,1-4.1,2c-3.26,0-5.47-2.49-5.47-7.09,0-4,1.84-7,5.67-7a7,7,0,0,1,3.84,1.08l-.08-2.19v-4.15h1.37v19.07h-.92Zm-.14-10a6.47,6.47,0,0,0-3.74-1.1c-3,0-4.29,2.4-4.29,5.94s1.11,6.05,4.12,6.05a5.24,5.24,0,0,0,3.91-2Z"/><path d="M639.38,168.13c0,3.93,2,5.58,4.74,5.58a8,8,0,0,0,4.38-1.52l.45,1a9.58,9.58,0,0,1-4.91,1.59c-3.55,0-6-2.39-6-7.14,0-4.37,2.09-6.94,5.63-6.94,3.72,0,5.28,3.06,5.28,6.46v1Zm4.21-6.38c-3,0-4.21,2.64-4.21,5.31h8.23C647.61,164.39,646.66,161.75,643.59,161.75Z"/><path d="M667.34,174.78a19.37,19.37,0,0,1-5.77-.93v-18h4.83c5.1,0,8.14,2.24,8.14,9.15C674.54,171.31,671.81,174.78,667.34,174.78ZM666.25,157H663v15.95a13.75,13.75,0,0,0,4.4.68c3.77,0,5.72-2.62,5.72-8.64C673.09,159.2,671,157,666.25,157Z"/><path d="M680.58,168.13c0,3.93,2,5.58,4.74,5.58a7.88,7.88,0,0,0,4.37-1.52l.45,1a9.48,9.48,0,0,1-4.91,1.59c-3.54,0-6-2.39-6-7.14,0-4.37,2.09-6.94,5.63-6.94,3.71,0,5.27,3.06,5.27,6.46v1Zm4.21-6.38c-3,0-4.21,2.64-4.21,5.31h8.22C688.8,164.39,687.85,161.75,684.79,161.75Z"/><path d="M696.37,164.15c0,3.26,7.17,2.12,7.17,6.77,0,2-1.62,3.86-4.43,3.86a7.55,7.55,0,0,1-4.13-1.29l.53-1.05a6.81,6.81,0,0,0,3.62,1.3c2,0,3.07-1.08,3.07-2.77,0-3.69-7.08-2.26-7.08-6.85,0-1.77,1.28-3.42,4.15-3.42a8.53,8.53,0,0,1,4.22,1l-.46,1a7,7,0,0,0-3.76-.91C697.32,161.81,696.37,162.68,696.37,164.15Z"/><path d="M717.38,174.51l-.31-1.82a5.67,5.67,0,0,1-4.31,2.09,4,4,0,0,1-4.33-4.05c0-2.26,1.68-3.79,4.69-3.79H717v-1.27c0-2.67-1-3.86-3.41-3.86a10.22,10.22,0,0,0-4.18.91l-.39-1a11.13,11.13,0,0,1,4.76-1c2.91,0,4.52,1.57,4.52,4.72v9.09ZM717,168h-3.72c-2.7,0-3.54,1.16-3.54,2.68,0,1.8,1,3.07,3.29,3.07a5.39,5.39,0,0,0,4-2.07Z"/><path d="M725.46,164.15c0,3.26,7.16,2.12,7.16,6.77,0,2-1.62,3.86-4.43,3.86a7.58,7.58,0,0,1-4.13-1.29l.53-1.05a6.85,6.85,0,0,0,3.63,1.3c1.95,0,3.06-1.08,3.06-2.77,0-3.69-7.08-2.26-7.08-6.85,0-1.77,1.28-3.42,4.15-3.42a8.48,8.48,0,0,1,4.22,1l-.45,1a7.08,7.08,0,0,0-3.77-.91C726.41,161.81,725.46,162.68,725.46,164.15Z"/><path d="M776.85,164.29c0,3.27,7.17,2.13,7.17,6.78,0,2-1.62,3.86-4.44,3.86a7.54,7.54,0,0,1-4.12-1.3l.53-1a6.74,6.74,0,0,0,3.63,1.3c2,0,3.06-1.08,3.06-2.76,0-3.7-7.08-2.26-7.08-6.86,0-1.76,1.28-3.42,4.15-3.42a8.37,8.37,0,0,1,4.21,1l-.44,1a7.1,7.1,0,0,0-3.77-.91C777.81,162,776.85,162.83,776.85,164.29Z"/><path d="M742.37,174.78c-1.57,0-3.21-.71-3.21-3.53V162h-2.09v-1h2.09v-2.52l1.36-.44v3h4.19v1h-4.19v9.28c0,1.71.57,2.43,2,2.43a5.48,5.48,0,0,0,2.24-.6l.33,1A5.64,5.64,0,0,1,742.37,174.78Z"/><path d="M756.88,162.19a5.18,5.18,0,0,0-1.78-.25,4.78,4.78,0,0,0-3.38,1.74v10.83h-1.37V161h.89l.37,1.65a4.9,4.9,0,0,1,3.63-1.85,5.72,5.72,0,0,1,1.81.25Z"/><path d="M762.41,168.13c0,3.93,2,5.58,4.74,5.58a8,8,0,0,0,4.38-1.52l.44,1a9.52,9.52,0,0,1-4.91,1.59c-3.54,0-6-2.39-6-7.14,0-4.37,2.09-6.94,5.63-6.94,3.71,0,5.27,3.06,5.27,6.46v1Zm4.21-6.38c-3,0-4.21,2.64-4.21,5.31h8.22C770.63,164.39,769.68,161.75,766.62,161.75Z"/><line class="cls-2" x1="151.07" y1="139.04" x2="891.2" y2="139.04"/><polygon class="cls-3" points="20.91 88.47 43.27 75.86 65.37 88.92 65.11 114.6 42.74 127.2 20.64 114.14 20.91 88.47"/><polygon class="cls-3" points="68.98 87.5 91.34 74.9 113.44 87.96 113.18 113.64 90.81 126.24 68.71 113.18 68.98 87.5"/><polygon class="cls-3" points="93.98 128.84 116.34 116.24 138.44 129.3 138.17 154.98 115.81 167.58 93.71 154.52 93.98 128.84"/><polygon class="cls-4" points="44.95 129.81 67.31 117.2 89.41 130.26 89.14 155.94 66.78 168.54 44.68 155.48 44.95 129.81"/><polygon class="cls-4" points="69.94 171.15 92.31 158.54 114.41 171.6 114.14 197.28 91.77 209.88 69.67 196.82 69.94 171.15"/><polygon class="cls-4" points="118.01 170.19 140.38 157.58 162.48 170.64 162.21 196.32 139.84 208.93 117.75 195.86 118.01 170.19"/><polygon class="cls-4" points="44.83 212.13 67.19 199.52 89.29 212.58 89.02 238.26 66.66 250.87 44.56 237.8 44.83 212.13"/><polygon class="cls-5" points="93.02 45.2 115.38 32.6 137.48 45.66 137.22 71.33 114.85 83.94 92.75 70.88 93.02 45.2"/><polygon class="cls-5" points="43.03 46.16 65.39 33.56 87.49 46.62 87.22 72.3 64.86 84.9 42.76 71.84 43.03 46.16"/></svg>