<svg id="Layer_1" data-name="Layer 1" xmlns="http://www.w3.org/2000/svg" viewBox="0 0 756 333"><defs><style>.cls-1,.cls-2,.cls-3{fill:#fff;}.cls-2{opacity:0.6;}.cls-3{opacity:0.9;}</style></defs><title>imago-aysana-blanco</title><path class="cls-1" d="M347.67,54.32c1.71-.25,3.33-.43,4.88-.55s3.25-.19,5.12-.19c1.62,0,3.21.06,4.75.19s3.25.3,5.12.55L395,142a67,67,0,0,1-9.75.74,54.45,54.45,0,0,1-9-.74l-4.88-17.55h-29l-5,17.55a51,51,0,0,1-8.42.74A53.9,53.9,0,0,1,320,142Zm19.51,55.35L357.06,72.85l-10.61,36.82Z"/><path class="cls-1" d="M396.31,78.94a27.86,27.86,0,0,1,4.94-.67c1.42,0,2.75-.06,4-.06,1.63,0,3.3,0,5,.12a27.06,27.06,0,0,1,4.64.61l13.16,55,14.88-55a46.91,46.91,0,0,1,8.29-.73q1.83,0,3.9.06a32.33,32.33,0,0,1,5.12.67l-23.53,77.91a31,31,0,0,1-3.47,7.68,16.55,16.55,0,0,1-4.58,4.75,16.22,16.22,0,0,1-5.73,2.38,32.73,32.73,0,0,1-6.82.67,40.94,40.94,0,0,1-6.16-.42,50.43,50.43,0,0,1-5.43-1.16,5.52,5.52,0,0,1-.12-1v-.91a22.21,22.21,0,0,1,.67-5.55,41.57,41.57,0,0,1,1.65-5.06,19.89,19.89,0,0,0,2.92.67,22.6,22.6,0,0,0,3.66.31,24,24,0,0,0,2.93-.19,6.7,6.7,0,0,0,2.86-1.09,9,9,0,0,0,2.62-2.87,20.94,20.94,0,0,0,2.2-5.49l2.07-7.56c-.89.08-1.89.15-3,.19s-2.21.06-3.35.06H417a8.67,8.67,0,0,1-2.19-.25Z"/><path class="cls-1" d="M481.9,114.54a24.16,24.16,0,0,1-10.67-5.79q-3.84-3.84-3.84-11.52,0-9.27,6.65-14.51t18.1-5.24a52.56,52.56,0,0,1,9.39.85,60.89,60.89,0,0,1,9.39,2.56,33.87,33.87,0,0,1-1.22,6.59,31.38,31.38,0,0,1-2.32,6,48.45,48.45,0,0,0-6.46-2.13,29.62,29.62,0,0,0-7.44-.92A13.52,13.52,0,0,0,487,91.68a4.35,4.35,0,0,0-2.31,4.09,4.19,4.19,0,0,0,1.64,3.78,19.33,19.33,0,0,0,4.69,2.07l6.95,2.07a34.37,34.37,0,0,1,6.16,2.38,16.88,16.88,0,0,1,4.69,3.47,14.58,14.58,0,0,1,3.05,5.13,22.09,22.09,0,0,1,1.1,7.43,19,19,0,0,1-1.89,8.41,19.34,19.34,0,0,1-5.49,6.77,27.17,27.17,0,0,1-8.71,4.51,37.76,37.76,0,0,1-11.59,1.65c-1.95,0-3.73-.06-5.36-.19a42.55,42.55,0,0,1-4.69-.6c-1.51-.29-3-.64-4.45-1s-3.05-.93-4.76-1.59a34.92,34.92,0,0,1,1.16-6.64,41,41,0,0,1,2.38-6.52,50.19,50.19,0,0,0,7.62,2.37,34.55,34.55,0,0,0,7.5.8,24.08,24.08,0,0,0,3.71-.31,13.51,13.51,0,0,0,3.72-1.1,8.67,8.67,0,0,0,2.87-2.07,5.68,5.68,0,0,0-.61-7.56,17.22,17.22,0,0,0-4.94-2.25Z"/><path class="cls-1" d="M557.25,100.52a10.07,10.07,0,0,0-1-4.75,7.27,7.27,0,0,0-2.68-2.87,11.11,11.11,0,0,0-4.21-1.4,38.91,38.91,0,0,0-5.55-.37,43.14,43.14,0,0,0-14,2.57,33.86,33.86,0,0,1-2.56-6,23.13,23.13,0,0,1-.85-6.7,65.66,65.66,0,0,1,20.73-3.54q12.68,0,19.81,6.1t7.13,19.5v36.58a102.56,102.56,0,0,1-10.36,2.56,70.9,70.9,0,0,1-13.78,1.22,55.27,55.27,0,0,1-11.4-1.1,24.4,24.4,0,0,1-8.9-3.66,17.16,17.16,0,0,1-5.73-6.58,22,22,0,0,1-2-9.88,18,18,0,0,1,2.5-9.81,19.2,19.2,0,0,1,6.46-6.34,28.44,28.44,0,0,1,8.84-3.41,46.84,46.84,0,0,1,9.75-1q3.54,0,7.81.37Zm0,12.56c-1-.16-2-.3-3.17-.43a29.52,29.52,0,0,0-3.05-.18c-4,0-7.13.71-9.45,2.13s-3.47,3.72-3.47,6.89a7.71,7.71,0,0,0,1.34,4.88,8,8,0,0,0,3.23,2.5,13.15,13.15,0,0,0,4,1c1.42.13,2.66.19,3.72.19a21.53,21.53,0,0,0,3.66-.31c1.22-.2,2.27-.38,3.17-.55Z"/><path class="cls-1" d="M589.43,78.94c1.14-.24,2.28-.42,3.41-.55a36.31,36.31,0,0,1,3.78-.18,32.9,32.9,0,0,1,3.66.18c1.06.13,2.15.31,3.29.55a6.78,6.78,0,0,1,.67,1.77c.21.77.39,1.59.55,2.44s.31,1.69.43,2.5.22,1.5.3,2.07a29.35,29.35,0,0,1,2.93-3.66,21.38,21.38,0,0,1,4-3.29,21.84,21.84,0,0,1,5.06-2.38,20,20,0,0,1,6.22-.91q10.72,0,16.15,5.85t5.43,18.41V142A51,51,0,0,1,628,142v-35.6q0-6.57-2-10.12c-1.35-2.35-3.68-3.53-7-3.53a15.73,15.73,0,0,0-4.27.61,8.94,8.94,0,0,0-4,2.38,12.75,12.75,0,0,0-2.87,4.93,26,26,0,0,0-1.1,8.29v33a51,51,0,0,1-17.31,0Z"/><path class="cls-1" d="M692.45,100.52a10.07,10.07,0,0,0-1-4.75,7.37,7.37,0,0,0-2.69-2.87,11.12,11.12,0,0,0-4.2-1.4,39.12,39.12,0,0,0-5.55-.37,43.09,43.09,0,0,0-14,2.57,33.13,33.13,0,0,1-2.56-6,23.13,23.13,0,0,1-.85-6.7,65.54,65.54,0,0,1,20.72-3.54q12.67,0,19.81,6.1t7.14,19.5v36.58a102.15,102.15,0,0,1-10.37,2.56,70.72,70.72,0,0,1-13.77,1.22,55.13,55.13,0,0,1-11.4-1.1,24.33,24.33,0,0,1-8.9-3.66,17.16,17.16,0,0,1-5.73-6.58,22,22,0,0,1-2-9.88,18.09,18.09,0,0,1,2.5-9.81,19.23,19.23,0,0,1,6.47-6.34,28.38,28.38,0,0,1,8.83-3.41,46.93,46.93,0,0,1,9.76-1c2.35,0,5,.12,7.8.37Zm0,12.56c-1-.16-2-.3-3.17-.43a29.36,29.36,0,0,0-3-.18q-6,0-9.44,2.13c-2.32,1.43-3.48,3.72-3.48,6.89a7.77,7.77,0,0,0,1.34,4.88,8,8,0,0,0,3.23,2.5,13.14,13.14,0,0,0,4,1c1.42.13,2.66.19,3.71.19a21.53,21.53,0,0,0,3.66-.31c1.22-.2,2.28-.38,3.17-.55Z"/><g id="usuy_perforado"><path id="rect_horizontal" class="cls-2" d="M296.43,104.52c0-1-2.08-1.83-4.64-1.83H44.54c-2.57,0-4.64.82-4.64,1.83V202c0,1,2.07,1.83,4.63,1.83H291.8c2.55,0,4.63-.82,4.63-1.83ZM168.16,202.63a49.37,49.37,0,1,1,49.37-49.36A49.37,49.37,0,0,1,168.16,202.63Z"/><path class="cls-2" d="M218.74,29.64c0-2.56-.82-4.63-1.83-4.64h-97.5c-1,0-1.83,2.07-1.82,4.64V276.9c0,2.56.82,4.63,1.82,4.63h97.5c1,0,1.82-2.07,1.83-4.64Zm-50.58,173a49.37,49.37,0,1,1,49.37-49.36A49.37,49.37,0,0,1,168.16,202.63Z"/><path class="cls-3" d="M252.49,65.19H83.84a3.75,3.75,0,0,0-3.75,3.75V237.59a3.75,3.75,0,0,0,3.75,3.75H252.49a3.74,3.74,0,0,0,3.74-3.75V68.94A3.74,3.74,0,0,0,252.49,65.19ZM168.16,202.63a49.37,49.37,0,1,1,49.37-49.36A49.37,49.37,0,0,1,168.16,202.63Z"/></g><path class="cls-1" d="M354.29,166.17a18.75,18.75,0,0,1,8.85,1.79,12.71,12.71,0,0,1,5.23,5.12,22.67,22.67,0,0,1,2.53,8,77.06,77.06,0,0,1,.65,10.46,74.37,74.37,0,0,1-.84,12,22.8,22.8,0,0,1-2.89,8.38,12.72,12.72,0,0,1-5.48,4.9,20.65,20.65,0,0,1-8.71,1.61H337V166.17Zm-2.05,44.47a9,9,0,0,0,4.46-.95,6.48,6.48,0,0,0,2.68-3.14,18.73,18.73,0,0,0,1.31-5.78q.33-3.59.33-8.93,0-4.46-.29-7.82a19.46,19.46,0,0,0-1.21-5.6,7,7,0,0,0-2.71-3.37,8.91,8.91,0,0,0-4.79-1.13h-4.46v36.72Z"/><path class="cls-1" d="M387.13,203.4a22.1,22.1,0,0,0,.26,3.4,11.08,11.08,0,0,0,.84,2.93,5.57,5.57,0,0,0,1.54,2.05,3.6,3.6,0,0,0,2.34.76,4.09,4.09,0,0,0,3.73-1.82,13.5,13.5,0,0,0,1.61-5.56h9.07c-.2,4.58-1.41,8.07-3.66,10.46s-5.78,3.58-10.6,3.58q-5.49,0-8.56-1.83a11.39,11.39,0,0,1-4.54-4.83,19.14,19.14,0,0,1-1.79-6.73q-.33-3.72-.33-7.46a50.53,50.53,0,0,1,.55-7.6,18.47,18.47,0,0,1,2.19-6.52,11.91,11.91,0,0,1,4.72-4.53,17.11,17.11,0,0,1,8.2-1.68,15.94,15.94,0,0,1,7.2,1.42,10.93,10.93,0,0,1,4.43,4,16.88,16.88,0,0,1,2.19,6.29,52.76,52.76,0,0,1,.59,8.23v2.26h-20Zm10-13.13a10.57,10.57,0,0,0-.77-2.93,4.17,4.17,0,0,0-1.54-1.83,4.7,4.7,0,0,0-2.52-.62,4.25,4.25,0,0,0-2.53.7,5,5,0,0,0-1.57,1.83,8.9,8.9,0,0,0-.84,2.52,15.38,15.38,0,0,0-.26,2.78v1.54h10.32C397.4,192.75,397.3,191.42,397.16,190.27Z"/><path class="cls-1" d="M425,167.78V179h5.86v6.88H425V207.2a6,6,0,0,0,.7,3.33c.46.66,1.43,1,2.89,1,.39,0,.78,0,1.17,0s.75-.06,1.1-.11v7c-1.13,0-2.21,0-3.26.11s-2.16.11-3.33.11a23.17,23.17,0,0,1-4.79-.41,4.8,4.8,0,0,1-2.85-1.61,6.94,6.94,0,0,1-1.36-3.18,28.38,28.38,0,0,1-.36-5V185.92h-5.12V179h5.12V167.78Z"/><path class="cls-1" d="M443.24,203.4a22.1,22.1,0,0,0,.26,3.4,11.08,11.08,0,0,0,.84,2.93,5.66,5.66,0,0,0,1.53,2.05,3.63,3.63,0,0,0,2.34.76,4.11,4.11,0,0,0,3.74-1.82,13.65,13.65,0,0,0,1.61-5.56h9.07q-.3,6.87-3.66,10.46t-10.61,3.58q-5.49,0-8.56-1.83a11.31,11.31,0,0,1-4.53-4.83,18.73,18.73,0,0,1-1.79-6.73q-.33-3.72-.33-7.46a51.9,51.9,0,0,1,.54-7.6,18.47,18.47,0,0,1,2.2-6.52,11.91,11.91,0,0,1,4.72-4.53A17.1,17.1,0,0,1,448.8,178a16,16,0,0,1,7.21,1.42,10.9,10.9,0,0,1,4.42,4,16.89,16.89,0,0,1,2.2,6.29,52.83,52.83,0,0,1,.58,8.23v2.26h-20Zm10-13.13a9.92,9.92,0,0,0-.77-2.93,4.09,4.09,0,0,0-1.53-1.83,4.72,4.72,0,0,0-2.53-.62,4.24,4.24,0,0,0-2.52.7,4.92,4.92,0,0,0-1.57,1.83,8.9,8.9,0,0,0-.84,2.52,15.38,15.38,0,0,0-.26,2.78v1.54h10.32Q453.49,192,453.26,190.27Z"/><path class="cls-1" d="M487.53,190.38a9.89,9.89,0,0,0-.65-2.52,4.45,4.45,0,0,0-1.36-1.83,3.61,3.61,0,0,0-2.34-.7,4.58,4.58,0,0,0-4.75,3.33,17.29,17.29,0,0,0-.81,4.17c-.14,1.68-.22,3.67-.22,6,0,2.44.08,4.53.22,6.26a18.11,18.11,0,0,0,.81,4.28,5,5,0,0,0,1.64,2.45,4.59,4.59,0,0,0,2.75.76,3.94,3.94,0,0,0,3.73-2.19q1.17-2.19,1.17-7h9.65q0,7.75-3.47,11.81t-11.52,4.06a21.44,21.44,0,0,1-6.62-.91,9.61,9.61,0,0,1-4.68-3.29,16.27,16.27,0,0,1-2.82-6.37,43.24,43.24,0,0,1-.95-9.91,36.4,36.4,0,0,1,1.17-10.06,16.31,16.31,0,0,1,3.29-6.36,11.31,11.31,0,0,1,5.05-3.33,20.51,20.51,0,0,1,6.43-.95q7,0,10.58,4.09t3.54,11.12h-9.65A20.57,20.57,0,0,0,487.53,190.38Z"/><path class="cls-1" d="M521.7,190.38a10.32,10.32,0,0,0-.66-2.52,4.45,4.45,0,0,0-1.36-1.83,3.61,3.61,0,0,0-2.34-.7,4.58,4.58,0,0,0-4.75,3.33,17.29,17.29,0,0,0-.81,4.17c-.14,1.68-.22,3.67-.22,6,0,2.44.08,4.53.22,6.26a18.11,18.11,0,0,0,.81,4.28,5,5,0,0,0,1.64,2.45,4.61,4.61,0,0,0,2.75.76,3.94,3.94,0,0,0,3.73-2.19q1.17-2.19,1.17-7h9.65q0,7.75-3.47,11.81t-11.52,4.06a21.44,21.44,0,0,1-6.62-.91,9.61,9.61,0,0,1-4.68-3.29,16.27,16.27,0,0,1-2.82-6.37,43.8,43.8,0,0,1-.95-9.91,36.4,36.4,0,0,1,1.17-10.06,16.31,16.31,0,0,1,3.29-6.36A11.36,11.36,0,0,1,511,179a20.58,20.58,0,0,1,6.44-.95q7,0,10.57,4.09t3.54,11.12h-9.65A22.25,22.25,0,0,0,521.7,190.38Z"/><path class="cls-1" d="M547.55,165.58v8.63H537.46v-8.63Zm0,13.46V218.4H537.46V179Z"/><path class="cls-1" d="M554.43,189.79a17.24,17.24,0,0,1,2.63-6.47,11.71,11.71,0,0,1,4.79-3.95,17.56,17.56,0,0,1,7.28-1.35,18.56,18.56,0,0,1,7.54,1.2,10.57,10.57,0,0,1,4.75,3.92,17.43,17.43,0,0,1,2.49,6.51,49.24,49.24,0,0,1,.73,9.07,44.69,44.69,0,0,1-.8,8.92,17.23,17.23,0,0,1-2.64,6.48,10.89,10.89,0,0,1-4.79,3.84,18.79,18.79,0,0,1-7.28,1.24,19.52,19.52,0,0,1-7.53-1.13,10.19,10.19,0,0,1-4.76-3.81,17,17,0,0,1-2.48-6.51,49.33,49.33,0,0,1-.74-9A44,44,0,0,1,554.43,189.79Zm9.44,14.49a19.16,19.16,0,0,0,.69,4.39,6.29,6.29,0,0,0,1.65,2.85,4.11,4.11,0,0,0,2.92,1,4.28,4.28,0,0,0,4.25-3.21c.78-2.15,1.17-5.68,1.17-10.61s-.39-8.46-1.17-10.61a4.29,4.29,0,0,0-4.25-3.22,4.11,4.11,0,0,0-2.92,1,6.29,6.29,0,0,0-1.65,2.85,19.16,19.16,0,0,0-.69,4.39c-.1,1.71-.15,3.56-.15,5.56S563.77,202.57,563.87,204.28Zm14.55-40.38-7.17,10.53h-6.87l4-10.53Z"/><path class="cls-1" d="M600,179v4.61h.15a10.2,10.2,0,0,1,4.17-4.28,12.37,12.37,0,0,1,5.85-1.35c3.22,0,5.69.87,7.43,2.63s2.59,4.61,2.59,8.56V218.4H610.1V191.26c0-2-.34-3.48-1-4.28a4.07,4.07,0,0,0-3.29-1.21q-5.34,0-5.34,6.51V218.4H590.35V179Z"/><path class="cls-1" d="M665.11,214.23a10.16,10.16,0,0,1-3.77,3.87,11,11,0,0,1-5.16,1.1q-6.21,0-9.14-4.75t-2.93-15.73q0-11,2.93-15.84t9.14-4.86a9.54,9.54,0,0,1,4.87,1.17,11.54,11.54,0,0,1,3.62,3.51h.14V166.17h10.1V218.4h-9.66v-4.17Zm-9.92-5.82a4.13,4.13,0,0,0,4.28,3.26,4.18,4.18,0,0,0,4.36-3.26,35.62,35.62,0,0,0,1-9.69,35.62,35.62,0,0,0-1-9.69,4.18,4.18,0,0,0-4.36-3.26,4.13,4.13,0,0,0-4.28,3.26,36,36,0,0,0-1,9.69A36,36,0,0,0,655.19,208.41Z"/><path class="cls-1" d="M690.56,203.4a22.1,22.1,0,0,0,.26,3.4,11.08,11.08,0,0,0,.84,2.93,5.57,5.57,0,0,0,1.54,2.05,3.6,3.6,0,0,0,2.34.76,4.1,4.1,0,0,0,3.73-1.82,13.65,13.65,0,0,0,1.61-5.56H710q-.3,6.87-3.66,10.46t-10.61,3.58c-3.65,0-6.51-.61-8.56-1.83a11.37,11.37,0,0,1-4.53-4.83,18.93,18.93,0,0,1-1.79-6.73q-.33-3.72-.33-7.46a50.53,50.53,0,0,1,.55-7.6,18.27,18.27,0,0,1,2.19-6.52,11.91,11.91,0,0,1,4.72-4.53,17.1,17.1,0,0,1,8.19-1.68,16,16,0,0,1,7.21,1.42,10.84,10.84,0,0,1,4.42,4,16.71,16.71,0,0,1,2.2,6.29,52.83,52.83,0,0,1,.58,8.23v2.26h-20Zm10-13.13a10.25,10.25,0,0,0-.76-2.93,4.17,4.17,0,0,0-1.54-1.83,4.7,4.7,0,0,0-2.52-.62,4.25,4.25,0,0,0-2.53.7,5,5,0,0,0-1.57,1.83,8.9,8.9,0,0,0-.84,2.52,15.38,15.38,0,0,0-.26,2.78v1.54h10.32Q700.81,192,700.58,190.27Z"/><path class="cls-1" d="M361.39,267h.14V231.19h9.66v52.23h-12l-12.87-36.58h-.15v36.58h-9.65V231.19h12.14Z"/><path class="cls-1" d="M387.13,268.42a22.33,22.33,0,0,0,.26,3.41,11.11,11.11,0,0,0,.84,2.92,5.41,5.41,0,0,0,1.54,2.05,3.6,3.6,0,0,0,2.34.77,4.1,4.1,0,0,0,3.73-1.83,13.45,13.45,0,0,0,1.61-5.56h9.07c-.2,4.58-1.41,8.07-3.66,10.46s-5.78,3.58-10.6,3.58q-5.49,0-8.56-1.82a11.39,11.39,0,0,1-4.54-4.83,19.14,19.14,0,0,1-1.79-6.73q-.33-3.73-.33-7.46a50.66,50.66,0,0,1,.55-7.61,18.34,18.34,0,0,1,2.19-6.51,12,12,0,0,1,4.72-4.54,17.11,17.11,0,0,1,8.2-1.68,15.93,15.93,0,0,1,7.2,1.43,10.9,10.9,0,0,1,4.43,4,16.88,16.88,0,0,1,2.19,6.29,52.85,52.85,0,0,1,.59,8.23v2.27h-20Zm10-13.13a10.5,10.5,0,0,0-.77-2.92,4.06,4.06,0,0,0-1.54-1.83,4.62,4.62,0,0,0-2.52-.62,4.32,4.32,0,0,0-2.53.69,5.09,5.09,0,0,0-1.57,1.83,9.11,9.11,0,0,0-.84,2.52,15.47,15.47,0,0,0-.26,2.78v1.54h10.32C397.4,257.77,397.3,256.44,397.16,255.29Z"/><path class="cls-1" d="M431.43,255.4a9.7,9.7,0,0,0-.66-2.52,4.52,4.52,0,0,0-1.35-1.83,3.7,3.7,0,0,0-2.34-.69,4.61,4.61,0,0,0-4.76,3.32,16.86,16.86,0,0,0-.8,4.17c-.15,1.69-.22,3.67-.22,6s.07,4.52.22,6.25a17.57,17.57,0,0,0,.8,4.28A4.88,4.88,0,0,0,424,276.8a4.56,4.56,0,0,0,2.74.77,3.92,3.92,0,0,0,3.73-2.2q1.17-2.19,1.17-7h9.66q0,7.75-3.48,11.82c-2.31,2.7-6.16,4.05-11.52,4.05a21.48,21.48,0,0,1-6.62-.91A9.61,9.61,0,0,1,415,280a16.56,16.56,0,0,1-2.82-6.37,43.74,43.74,0,0,1-.95-9.91,36.45,36.45,0,0,1,1.17-10.06,16.45,16.45,0,0,1,3.29-6.36,11.53,11.53,0,0,1,5-3.33,20.87,20.87,0,0,1,6.44-1q7,0,10.57,4.1t3.55,11.12h-9.66A22.29,22.29,0,0,0,431.43,255.4Z"/><path class="cls-1" d="M455.46,268.42a22.34,22.34,0,0,0,.25,3.41,11.11,11.11,0,0,0,.84,2.92,5.52,5.52,0,0,0,1.54,2.05,3.6,3.6,0,0,0,2.34.77,4.1,4.1,0,0,0,3.73-1.83,13.45,13.45,0,0,0,1.61-5.56h9.07q-.29,6.87-3.65,10.46t-10.61,3.58q-5.49,0-8.56-1.82a11.39,11.39,0,0,1-4.54-4.83,19.14,19.14,0,0,1-1.79-6.73q-.33-3.73-.33-7.46a52,52,0,0,1,.55-7.61,18.35,18.35,0,0,1,2.2-6.51,12,12,0,0,1,4.71-4.54A17.11,17.11,0,0,1,461,243a15.93,15.93,0,0,1,7.2,1.43,10.84,10.84,0,0,1,4.43,4,16.88,16.88,0,0,1,2.19,6.29,52.85,52.85,0,0,1,.59,8.23v2.27h-20Zm10-13.13a10.16,10.16,0,0,0-.77-2.92,4,4,0,0,0-1.54-1.83,4.57,4.57,0,0,0-2.52-.62,4.31,4.31,0,0,0-2.52.69,5,5,0,0,0-1.58,1.83,9.11,9.11,0,0,0-.84,2.52,15.45,15.45,0,0,0-.25,2.78v1.54h10.31C465.72,257.77,465.63,256.44,465.48,255.29Z"/><path class="cls-1" d="M488.38,271.86a6.14,6.14,0,0,0,1.35,4.14,4.9,4.9,0,0,0,3.91,1.57,5.59,5.59,0,0,0,3.73-1.17,4.32,4.32,0,0,0,1.39-3.51,3.69,3.69,0,0,0-1.09-2.89,8.67,8.67,0,0,0-2.56-1.58l-7.1-2.56a13.41,13.41,0,0,1-6.29-4.13,10.62,10.62,0,0,1-2.12-6.84,13.11,13.11,0,0,1,.8-4.57,9.63,9.63,0,0,1,2.56-3.77,12.86,12.86,0,0,1,4.5-2.56,20.45,20.45,0,0,1,6.62-1q6.89,0,10.17,2.93t3.29,8.26v1.61h-9.07a8,8,0,0,0-1-4.5,3.91,3.91,0,0,0-3.47-1.42,5.41,5.41,0,0,0-3.33,1.06,3.71,3.71,0,0,0-1.43,3.18,4.15,4.15,0,0,0,.92,2.63,7.08,7.08,0,0,0,3.47,2l6.07,2.05c3.17,1.07,5.42,2.47,6.73,4.2a11.38,11.38,0,0,1,2,7.06,12.56,12.56,0,0,1-1.1,5.45,10.61,10.61,0,0,1-3,3.84,11.9,11.9,0,0,1-4.61,2.2,25.12,25.12,0,0,1-5.89.65,26,26,0,0,1-7.06-.8,10.35,10.35,0,0,1-4.46-2.41,8.75,8.75,0,0,1-2.31-3.92,19,19,0,0,1-.65-5.15v-1.4h9.07Z"/><path class="cls-1" d="M524.22,230.6v8.64h-10.1V230.6Zm0,13.46v39.36h-10.1V244.06Z"/><path class="cls-1" d="M551.65,279.25a10.13,10.13,0,0,1-3.77,3.88,11,11,0,0,1-5.15,1.09q-6.22,0-9.15-4.75t-2.92-15.73q0-11,2.92-15.83t9.15-4.87a9.51,9.51,0,0,1,4.86,1.17,11.44,11.44,0,0,1,3.62,3.51h.15V231.19h10.09v52.23H551.8v-4.17Zm-9.91-5.82a4.12,4.12,0,0,0,4.28,3.26,4.16,4.16,0,0,0,4.35-3.26,47.92,47.92,0,0,0,0-19.38,4.17,4.17,0,0,0-4.35-3.26,4.13,4.13,0,0,0-4.28,3.26,47.92,47.92,0,0,0,0,19.38Z"/><path class="cls-1" d="M568.4,255.18a13.35,13.35,0,0,1,1.1-5.74,10.08,10.08,0,0,1,3-3.73,11.93,11.93,0,0,1,4.39-2.05,22.67,22.67,0,0,1,5.38-.62,24.74,24.74,0,0,1,7.31.88,9.89,9.89,0,0,1,4.32,2.49,8.29,8.29,0,0,1,2.08,3.84,20,20,0,0,1,.55,4.86v20.7a27.91,27.91,0,0,0,.26,4.32,15,15,0,0,0,1,3.29h-9.66a8.28,8.28,0,0,1-.77-2c-.17-.71-.33-1.4-.47-2.09h-.15a8.56,8.56,0,0,1-4.06,4,16.38,16.38,0,0,1-6,.91,9.85,9.85,0,0,1-4.46-.91,7.57,7.57,0,0,1-2.93-2.52,11.41,11.41,0,0,1-1.61-3.62,16.17,16.17,0,0,1-.51-4,17.3,17.3,0,0,1,.58-4.79,9.18,9.18,0,0,1,1.8-3.44,9.86,9.86,0,0,1,3.07-2.38,24.51,24.51,0,0,1,4.5-1.68l5.7-1.54a6.09,6.09,0,0,0,3.15-1.61,4.51,4.51,0,0,0,.88-3,5.42,5.42,0,0,0-1.06-3.54,4.47,4.47,0,0,0-3.63-1.28,4.32,4.32,0,0,0-3.51,1.39,5.59,5.59,0,0,0-1.17,3.73v1.09H568.4ZM584.64,265a14.48,14.48,0,0,1-2.12.7,7.79,7.79,0,0,0-4.39,2.19,6.21,6.21,0,0,0-1.32,4.17,8.06,8.06,0,0,0,.88,3.88,3.08,3.08,0,0,0,2.93,1.61,7.35,7.35,0,0,0,2.12-.33,5.89,5.89,0,0,0,2-1.06,5.61,5.61,0,0,0,1.5-1.9,6.16,6.16,0,0,0,.59-2.78v-7.76A8.89,8.89,0,0,1,584.64,265Z"/><path class="cls-1" d="M624,279.25a10.2,10.2,0,0,1-3.77,3.88,11,11,0,0,1-5.16,1.09q-6.21,0-9.14-4.75T603,263.74q0-11,2.93-15.83t9.14-4.87a9.57,9.57,0,0,1,4.87,1.17,11.54,11.54,0,0,1,3.62,3.51h.14V231.19h10.1v52.23h-9.66v-4.17Zm-9.92-5.82a4.12,4.12,0,0,0,4.28,3.26,4.17,4.17,0,0,0,4.36-3.26,48.4,48.4,0,0,0,0-19.38,4.18,4.18,0,0,0-4.36-3.26,4.13,4.13,0,0,0-4.28,3.26,48.4,48.4,0,0,0,0,19.38Z"/><path class="cls-1" d="M649.45,268.42a22.33,22.33,0,0,0,.26,3.41,11.11,11.11,0,0,0,.84,2.92,5.41,5.41,0,0,0,1.54,2.05,3.6,3.6,0,0,0,2.34.77,4.11,4.11,0,0,0,3.73-1.83,13.6,13.6,0,0,0,1.61-5.56h9.07q-.3,6.87-3.66,10.46t-10.61,3.58c-3.65,0-6.51-.61-8.56-1.82a11.37,11.37,0,0,1-4.53-4.83,18.93,18.93,0,0,1-1.79-6.73q-.33-3.73-.33-7.46a50.66,50.66,0,0,1,.55-7.61,18.15,18.15,0,0,1,2.19-6.51,12,12,0,0,1,4.72-4.54A17.1,17.1,0,0,1,655,243a16,16,0,0,1,7.21,1.43,10.88,10.88,0,0,1,4.42,4,16.71,16.71,0,0,1,2.2,6.29,52.92,52.92,0,0,1,.58,8.23v2.27h-20Zm10-13.13a10.17,10.17,0,0,0-.76-2.92,4.06,4.06,0,0,0-1.54-1.83,4.62,4.62,0,0,0-2.52-.62,4.32,4.32,0,0,0-2.53.69,5,5,0,0,0-1.57,1.83,9.11,9.11,0,0,0-.84,2.52,15.47,15.47,0,0,0-.26,2.78v1.54h10.32Q659.7,257,659.47,255.29Z"/><path class="cls-1" d="M682.37,271.86a6.14,6.14,0,0,0,1.35,4.14,4.93,4.93,0,0,0,3.92,1.57,5.61,5.61,0,0,0,3.73-1.17,4.35,4.35,0,0,0,1.39-3.51,3.69,3.69,0,0,0-1.1-2.89,8.42,8.42,0,0,0-2.56-1.58l-7.1-2.56a13.46,13.46,0,0,1-6.29-4.13,10.68,10.68,0,0,1-2.12-6.84,12.89,12.89,0,0,1,.81-4.57,9.53,9.53,0,0,1,2.56-3.77,12.86,12.86,0,0,1,4.5-2.56,20.41,20.41,0,0,1,6.62-1q6.87,0,10.16,2.93t3.3,8.26v1.61h-9.07a8,8,0,0,0-1-4.5,3.94,3.94,0,0,0-3.48-1.42,5.43,5.43,0,0,0-3.33,1.06,3.7,3.7,0,0,0-1.42,3.18,4.14,4.14,0,0,0,.91,2.63,7.07,7.07,0,0,0,3.48,2l6.07,2.05q4.75,1.6,6.73,4.2a11.38,11.38,0,0,1,2,7.06,12.56,12.56,0,0,1-1.09,5.45,10.74,10.74,0,0,1-3,3.84,11.83,11.83,0,0,1-4.61,2.2,25.06,25.06,0,0,1-5.89.65,26.1,26.1,0,0,1-7.06-.8,10.41,10.41,0,0,1-4.46-2.41,8.83,8.83,0,0,1-2.3-3.92,18.64,18.64,0,0,1-.66-5.15v-1.4h9.07Z"/></svg>