<svg id="Layer_1" data-name="Layer 1" xmlns="http://www.w3.org/2000/svg" xmlns:xlink="http://www.w3.org/1999/xlink" viewBox="0 0 756 333"><defs><style>.cls-1{fill:none;}.cls-2{fill:#fff;}.cls-3{clip-path:url(#clip-path);}.cls-4{clip-path:url(#clip-path-2);}.cls-5{fill:url(#linear-gradient);}.cls-6{clip-path:url(#clip-path-3);}.cls-7{fill:url(#linear-gradient-2);}.cls-8{clip-path:url(#clip-path-4);}.cls-9{fill:url(#linear-gradient-3);}.cls-10{clip-path:url(#clip-path-5);}.cls-11{fill:url(#linear-gradient-4);}.cls-12{clip-path:url(#clip-path-6);}.cls-13{fill:url(#linear-gradient-5);}.cls-14{clip-path:url(#clip-path-7);}.cls-15{fill:url(#linear-gradient-6);}.cls-16{clip-path:url(#clip-path-8);}.cls-17{fill:url(#linear-gradient-7);}.cls-18{clip-path:url(#clip-path-9);}.cls-19{fill:url(#linear-gradient-8);}.cls-20{clip-path:url(#clip-path-10);}.cls-21{fill:url(#linear-gradient-9);}.cls-22{clip-path:url(#clip-path-11);}.cls-23{fill:url(#linear-gradient-10);}.cls-24{clip-path:url(#clip-path-12);}.cls-25{fill:url(#linear-gradient-11);}.cls-26{clip-path:url(#clip-path-13);}.cls-27{fill:url(#linear-gradient-12);}.cls-28{clip-path:url(#clip-path-14);}.cls-29{fill:url(#linear-gradient-13);}.cls-30{clip-path:url(#clip-path-15);}.cls-31{fill:url(#linear-gradient-14);}.cls-32{clip-path:url(#clip-path-16);}.cls-33{fill:url(#linear-gradient-15);}</style><clipPath id="clip-path"><rect id="SVGID" class="cls-1" x="278.11" y="52.47" width="422.21" height="123.56"/></clipPath><clipPath id="clip-path-2"><path id="SVGID-2" data-name="SVGID" class="cls-1" d="M187.6,203.29c.21-.4.63-.61.83-1-.2.42-.62.63-.83,1"/></clipPath><linearGradient id="linear-gradient" x1="-68.19" y1="48.67" x2="-65.16" y2="48.67" gradientTransform="translate(4313.47 -2831.79) scale(62.36)" gradientUnits="userSpaceOnUse"><stop offset="0" stop-color="#fff"/><stop offset="1" stop-color="#fff"/></linearGradient><clipPath id="clip-path-3"><path id="SVGID-3" data-name="SVGID" class="cls-1" d="M184.27,206.84l1-1c-.42.21-.63.62-1,1"/></clipPath><linearGradient id="linear-gradient-2" x1="-68.24" y1="48.7" x2="-65.13" y2="48.7" gradientTransform="translate(4313.47 -2830.65) scale(62.36)" xlink:href="#linear-gradient"/><clipPath id="clip-path-4"><path id="SVGID-4" data-name="SVGID" class="cls-1" d="M99.71,143.53c.21-.41.42-.62.42-.83,0,.21-.21.42-.42.83"/></clipPath><linearGradient id="linear-gradient-3" x1="-68.14" y1="48.02" x2="-65.39" y2="48.02" gradientTransform="translate(4313.47 -2851.32) scale(62.36)" xlink:href="#linear-gradient"/><clipPath id="clip-path-5"><path id="SVGID-5" data-name="SVGID" class="cls-1" d="M190.93,198.72a2,2,0,0,0,.83-1,2,2,0,0,1-.83,1"/></clipPath><linearGradient id="linear-gradient-4" x1="-68.2" y1="48.62" x2="-65.16" y2="48.62" gradientTransform="translate(4313.47 -2833.29) scale(62.36)" xlink:href="#linear-gradient"/><clipPath id="clip-path-6"><path id="SVGID-6" data-name="SVGID" class="cls-1" d="M193.64,194.77a4.6,4.6,0,0,0,.62-1.05,4.6,4.6,0,0,1-.62,1.05"/></clipPath><linearGradient id="linear-gradient-5" x1="-68.11" y1="48.57" x2="-65.19" y2="48.57" gradientTransform="translate(4313.47 -2834.61) scale(62.36)" xlink:href="#linear-gradient"/><clipPath id="clip-path-7"><path id="SVGID-7" data-name="SVGID" class="cls-1" d="M197.8,185.6c.21-.42.21-.83.42-1.25-.21.21-.21.62-.42,1.25"/></clipPath><linearGradient id="linear-gradient-6" x1="-68.48" y1="48.47" x2="-65.04" y2="48.47" gradientTransform="translate(4313.47 -2837.65) scale(62.36)" xlink:href="#linear-gradient"/><clipPath id="clip-path-8"><path id="SVGID-8" data-name="SVGID" class="cls-1" d="M102.43,138.75c.21-.21.41-.42.41-.63,0,.21-.2.42-.41.63"/></clipPath><linearGradient id="linear-gradient-7" x1="-68.13" y1="47.97" x2="-65.43" y2="47.97" gradientTransform="translate(4313.47 -2852.86) scale(62.36)" xlink:href="#linear-gradient"/><clipPath id="clip-path-9"><path id="SVGID-9" data-name="SVGID" class="cls-1" d="M196.14,189.76c.21-.2.21-.62.42-1-.21.41-.21.83-.42,1"/></clipPath><linearGradient id="linear-gradient-8" x1="-68.48" y1="48.52" x2="-65.04" y2="48.52" gradientTransform="translate(4313.47 -2836.24) scale(62.36)" xlink:href="#linear-gradient"/><clipPath id="clip-path-10"><path id="SVGID-10" data-name="SVGID" class="cls-1" d="M116.79,124.58c.21-.21.63-.41.84-.62-.21.21-.63.41-.84.62"/></clipPath><linearGradient id="linear-gradient-9" x1="-68.2" y1="47.82" x2="-65.16" y2="47.82" gradientTransform="translate(4313.47 -2857.52) scale(62.36)" xlink:href="#linear-gradient"/><clipPath id="clip-path-11"><path id="SVGID-11" data-name="SVGID" class="cls-1" d="M105.34,135l.62-.63-.62.63"/></clipPath><linearGradient id="linear-gradient-10" x1="-68.29" y1="47.93" x2="-64.87" y2="47.93" gradientTransform="translate(4313.47 -2854.11) scale(62.36)" xlink:href="#linear-gradient"/><clipPath id="clip-path-12"><path id="SVGID-12" data-name="SVGID" class="cls-1" d="M121.58,121.67c.21-.21.41-.21.63-.42-.22.21-.42.21-.63.42"/></clipPath><linearGradient id="linear-gradient-11" x1="-68.17" y1="47.79" x2="-65.22" y2="47.79" gradientTransform="translate(4313.47 -2858.43) scale(62.36)" xlink:href="#linear-gradient"/><clipPath id="clip-path-13"><path id="SVGID-13" data-name="SVGID" class="cls-1" d="M126.16,119.38c.22,0,.42-.21.63-.42-.21.21-.41.42-.63.42"/></clipPath><linearGradient id="linear-gradient-12" x1="-68.33" y1="47.76" x2="-64.91" y2="47.76" gradientTransform="translate(4313.47 -2859.18) scale(62.36)" xlink:href="#linear-gradient"/><clipPath id="clip-path-14"><path id="SVGID-14" data-name="SVGID" class="cls-1" d="M199.26,180a1.24,1.24,0,0,0,.21-.83,1.56,1.56,0,0,1-.21.83"/></clipPath><linearGradient id="linear-gradient-13" x1="-67.65" y1="48.42" x2="-65.36" y2="48.42" gradientTransform="translate(4313.47 -2839.43) scale(62.36)" xlink:href="#linear-gradient"/><clipPath id="clip-path-15"><path id="SVGID-15" data-name="SVGID" class="cls-1" d="M108.88,131c.2-.21.62-.42.84-.62a2.5,2.5,0,0,0-.84.62"/></clipPath><linearGradient id="linear-gradient-14" x1="-68.2" y1="47.89" x2="-65.16" y2="47.89" gradientTransform="translate(4313.47 -2855.4) scale(62.36)" xlink:href="#linear-gradient"/><clipPath id="clip-path-16"><path id="SVGID-16" data-name="SVGID" class="cls-1" d="M200.1,175.19c.2,0,.2-.21,0-.62Z"/></clipPath><linearGradient id="linear-gradient-15" x1="-67.62" y1="48.37" x2="-65.37" y2="48.37" gradientTransform="translate(4313.47 -2840.96) scale(62.36)" xlink:href="#linear-gradient"/></defs><title>imago-jawira-blanco</title><path class="cls-2" d="M286.24,209.82c1.26.46,2.57.85,3.94,1.2a21,21,0,0,0,5,.51q4.67,0,7-1.91a6.34,6.34,0,0,0,2.31-5.16,6.83,6.83,0,0,0-.49-2.73,5.18,5.18,0,0,0-1.45-2,11,11,0,0,0-2.42-1.51c-1-.45-2.1-.95-3.39-1.48l-3.25-1.31a23,23,0,0,1-3-1.51,9.13,9.13,0,0,1-3.93-4.78,11,11,0,0,1-.57-3.74,10,10,0,0,1,3.53-8.12q3.54-2.92,9.92-2.93a28.37,28.37,0,0,1,9.51,1.59,17.9,17.9,0,0,1-1.25,4.73,27.64,27.64,0,0,0-3.56-1,20.61,20.61,0,0,0-4.59-.46,9.15,9.15,0,0,0-5.53,1.45,5.11,5.11,0,0,0-1.93,4.36,4.65,4.65,0,0,0,.48,2.14,5.56,5.56,0,0,0,1.28,1.65,9.15,9.15,0,0,0,1.88,1.29,20.48,20.48,0,0,0,2.28,1l3.19,1.25a35.09,35.09,0,0,1,4.05,1.91,12.79,12.79,0,0,1,3,2.34,9.19,9.19,0,0,1,1.91,3.16,12.84,12.84,0,0,1,.65,4.28,11.43,11.43,0,0,1-4,9.25q-4,3.39-11.34,3.39c-1.18,0-2.24,0-3.19-.11s-1.84-.19-2.65-.34a21.59,21.59,0,0,1-2.37-.57c-.76-.23-1.54-.48-2.33-.74a12.18,12.18,0,0,1,.51-2.57C285.66,211.51,285.94,210.66,286.24,209.82Z"/><path class="cls-2" d="M330.69,216.71a14.28,14.28,0,0,1-6-1.16,11.9,11.9,0,0,1-4.28-3.22,13.36,13.36,0,0,1-2.53-4.85,22.39,22.39,0,0,1,0-12.08,13.39,13.39,0,0,1,2.53-4.84,12.2,12.2,0,0,1,4.28-3.25,15.62,15.62,0,0,1,12,0,12.2,12.2,0,0,1,4.28,3.25,13.39,13.39,0,0,1,2.53,4.84,22.39,22.39,0,0,1,0,12.08,13.36,13.36,0,0,1-2.53,4.85,11.9,11.9,0,0,1-4.28,3.22A14.28,14.28,0,0,1,330.69,216.71Zm0-4.5a6.47,6.47,0,0,0,5.81-2.85q1.88-2.84,1.88-7.92t-1.88-7.89a6.49,6.49,0,0,0-5.81-2.82,6.41,6.41,0,0,0-5.78,2.82q-1.86,2.82-1.86,7.89t1.86,7.92A6.39,6.39,0,0,0,330.69,212.21Z"/><path class="cls-2" d="M352.57,174.26c.42-.07.88-.13,1.4-.17s1-.05,1.39-.05.89,0,1.4.05,1,.1,1.39.17V207.2a8.76,8.76,0,0,0,.29,2.51,3.4,3.4,0,0,0,.77,1.39,2.23,2.23,0,0,0,1.14.63,6.82,6.82,0,0,0,1.39.14c.35,0,.73,0,1.17-.06a5.92,5.92,0,0,0,1.11-.17,17,17,0,0,1,.52,4.33,7.27,7.27,0,0,1-1.94.37c-.76.06-1.46.09-2.11.09a11.25,11.25,0,0,1-3.08-.4,6.45,6.45,0,0,1-2.5-1.31,6,6,0,0,1-1.71-2.45,10.1,10.1,0,0,1-.63-3.82Z"/><path class="cls-2" d="M370.29,186.8a12.89,12.89,0,0,1,1.42-.17c.54,0,1-.06,1.37-.06s.89,0,1.43.06a12.89,12.89,0,0,1,1.42.17v16a16.88,16.88,0,0,0,.51,4.53,6.46,6.46,0,0,0,1.54,2.82,5.51,5.51,0,0,0,2.51,1.43,13.49,13.49,0,0,0,3.42.4,17.05,17.05,0,0,0,5-.63V186.8a12.59,12.59,0,0,1,1.39-.17c.52,0,1-.06,1.4-.06s.88,0,1.39.06a12.79,12.79,0,0,1,1.4.17v28.32c-1.33.38-2.91.74-4.76,1.08a31.48,31.48,0,0,1-5.73.51,27.58,27.58,0,0,1-5.26-.48,9.93,9.93,0,0,1-4.36-2,9.74,9.74,0,0,1-3-4.15,19.28,19.28,0,0,1-1.08-7.07Z"/><path class="cls-2" d="M423.79,211a8.94,8.94,0,0,1,.8,2,10.72,10.72,0,0,1,.4,2.45,20.91,20.91,0,0,1-7.69,1.31q-7.29,0-11-4.13t-3.7-11.14a19.35,19.35,0,0,1,.91-6,13.74,13.74,0,0,1,2.71-4.84,12.66,12.66,0,0,1,4.47-3.25,15.19,15.19,0,0,1,6.21-1.19,27.69,27.69,0,0,1,4.22.28,17.86,17.86,0,0,1,3.47.91,11.6,11.6,0,0,1-.25,2.25,9.3,9.3,0,0,1-.72,2.25,19.54,19.54,0,0,0-6.38-1c-2.92,0-5.11,1-6.55,2.9a12.59,12.59,0,0,0-2.17,7.69q0,5.48,2.45,8A8.94,8.94,0,0,0,417.7,212a20.66,20.66,0,0,0,3.16-.23A14.06,14.06,0,0,0,423.79,211Z"/><path class="cls-2" d="M434.22,191.24h-3.7a5.76,5.76,0,0,1-.17-1.05q-.06-.6-.06-1.17t.06-1.17a5.91,5.91,0,0,1,.17-1h9.23V216a12.79,12.79,0,0,1-1.4.17c-.51,0-1,.06-1.39.06s-.83,0-1.34-.06a13.1,13.1,0,0,1-1.4-.17ZM433,180.36a9.54,9.54,0,0,1-.14-1.48c0-.53,0-1,0-1.42s0-.9,0-1.43a8.32,8.32,0,0,1,.14-1.42,14.63,14.63,0,0,1,1.59-.17c.57,0,1.07-.06,1.48-.06s.92,0,1.49.06a12.93,12.93,0,0,1,1.54.17,11,11,0,0,1,.14,1.42c0,.53,0,1,0,1.43s0,.89,0,1.42a12.85,12.85,0,0,1-.14,1.48,12.87,12.87,0,0,1-1.51.17c-.56,0-1,.06-1.46.06s-1,0-1.54-.06A14.63,14.63,0,0,1,433,180.36Z"/><path class="cls-2" d="M461.74,216.71a14.28,14.28,0,0,1-6-1.16,11.86,11.86,0,0,1-4.27-3.22,13.37,13.37,0,0,1-2.54-4.85,22.39,22.39,0,0,1,0-12.08,13.41,13.41,0,0,1,2.54-4.84,12.16,12.16,0,0,1,4.27-3.25,15.65,15.65,0,0,1,12,0,12.16,12.16,0,0,1,4.27,3.25,13.57,13.57,0,0,1,2.54,4.84,22.65,22.65,0,0,1,0,12.08,13.53,13.53,0,0,1-2.54,4.85,11.86,11.86,0,0,1-4.27,3.22A14.32,14.32,0,0,1,461.74,216.71Zm0-4.5a6.5,6.5,0,0,0,5.82-2.85q1.88-2.84,1.88-7.92t-1.88-7.89a6.52,6.52,0,0,0-5.82-2.82,6.41,6.41,0,0,0-5.78,2.82c-1.24,1.88-1.85,4.51-1.85,7.89s.61,6,1.85,7.92A6.39,6.39,0,0,0,461.74,212.21Z"/><path class="cls-2" d="M483.74,186.8c.41-.08.82-.13,1.22-.17s.81-.06,1.23-.06a10.9,10.9,0,0,1,1.17.06c.36,0,.75.09,1.16.17.12.57.23,1.34.35,2.31a22.26,22.26,0,0,1,.17,2.42,11.64,11.64,0,0,1,1.45-1.94,11.77,11.77,0,0,1,2-1.74,10.4,10.4,0,0,1,5.87-1.73q5,0,7.41,2.87t2.39,8.52V216a12.89,12.89,0,0,1-1.42.17c-.54,0-1,.06-1.43.06s-.88,0-1.39-.06a12.79,12.79,0,0,1-1.4-.17v-17q0-4.05-1.25-6a4.42,4.42,0,0,0-4-1.91,8,8,0,0,0-3,.57,6.78,6.78,0,0,0-2.51,1.76,9,9,0,0,0-1.74,3.11,14.38,14.38,0,0,0-.65,4.59V216a12.79,12.79,0,0,1-1.4.17c-.51,0-1,.06-1.39.06s-.9,0-1.43-.06a12.59,12.59,0,0,1-1.42-.17Z"/><path class="cls-2" d="M521.86,202.81q.1,4.78,2.48,7t7,2.22a21,21,0,0,0,7.69-1.42,8.66,8.66,0,0,1,.74,2.08,13.68,13.68,0,0,1,.34,2.42,19.35,19.35,0,0,1-4.13,1.2,29.3,29.3,0,0,1-5,.39,18.8,18.8,0,0,1-6.83-1.11,12,12,0,0,1-7.41-7.92,20.4,20.4,0,0,1-.86-6.06,21.51,21.51,0,0,1,.83-6.07,13.6,13.6,0,0,1,2.54-4.9,12.24,12.24,0,0,1,4.3-3.31,14.31,14.31,0,0,1,6.12-1.22,12.85,12.85,0,0,1,5.3,1,11,11,0,0,1,3.82,2.82,12.3,12.3,0,0,1,2.34,4.28,17.49,17.49,0,0,1,.79,5.38c0,.53,0,1.09,0,1.68s-.08,1.09-.12,1.51Zm14.47-4.22a10.54,10.54,0,0,0-.43-3,7.64,7.64,0,0,0-1.25-2.54,6.11,6.11,0,0,0-2.11-1.74,7.66,7.66,0,0,0-8.37,1.46,10.29,10.29,0,0,0-2.26,5.86Z"/><path class="cls-2" d="M549.78,210.73a19.41,19.41,0,0,0,7.06,1.37,10.79,10.79,0,0,0,2.51-.29,6.63,6.63,0,0,0,2.08-.85,4.63,4.63,0,0,0,1.42-1.4,3.3,3.3,0,0,0,.55-1.85,3.79,3.79,0,0,0-.43-1.88,4.12,4.12,0,0,0-1.14-1.25,7.59,7.59,0,0,0-1.65-.88c-.63-.25-1.31-.49-2-.72l-2-.74a14.52,14.52,0,0,1-5.3-3.07,6.37,6.37,0,0,1-1.65-4.62A7.56,7.56,0,0,1,552,188.4q2.76-2.28,8.12-2.28a22.53,22.53,0,0,1,4.36.42,27.52,27.52,0,0,1,3.73,1,13.07,13.07,0,0,1-.43,2.28,13.76,13.76,0,0,1-.76,2.11,29.49,29.49,0,0,0-3-.89,15.84,15.84,0,0,0-3.73-.42,9,9,0,0,0-3.73.74,2.65,2.65,0,0,0-1.62,2.62,3.25,3.25,0,0,0,.39,1.65,3.68,3.68,0,0,0,1.09,1.17,7.19,7.19,0,0,0,1.56.83c.59.22,1.23.45,1.91.68l2.51.86a17.61,17.61,0,0,1,2.59,1.08,7.77,7.77,0,0,1,2.11,1.56,7.49,7.49,0,0,1,1.43,2.28,9.4,9.4,0,0,1-.32,7.07,8.43,8.43,0,0,1-2.42,3A11.54,11.54,0,0,1,562,216a16.44,16.44,0,0,1-4.9.68,27,27,0,0,1-4.79-.37,23.29,23.29,0,0,1-3.81-1A10.81,10.81,0,0,1,549,213C549.2,212.26,549.47,211.49,549.78,210.73Z"/><path class="cls-2" d="M595.87,202.81q.12,4.78,2.48,7t7,2.22a20.91,20.91,0,0,0,7.69-1.42,8.25,8.25,0,0,1,.75,2.08,13.68,13.68,0,0,1,.34,2.42,19.52,19.52,0,0,1-4.13,1.2,29.38,29.38,0,0,1-5,.39,18.86,18.86,0,0,1-6.84-1.11,12,12,0,0,1-7.4-7.92,20.4,20.4,0,0,1-.86-6.06,21.51,21.51,0,0,1,.83-6.07,13.58,13.58,0,0,1,2.53-4.9,12.33,12.33,0,0,1,4.3-3.31,14.32,14.32,0,0,1,6.13-1.22,12.88,12.88,0,0,1,5.3,1A11,11,0,0,1,612.8,190a12.29,12.29,0,0,1,2.33,4.28,17.19,17.19,0,0,1,.8,5.38q0,.8-.06,1.68c0,.59-.07,1.09-.11,1.51Zm14.48-4.22a10.89,10.89,0,0,0-.43-3,7.83,7.83,0,0,0-1.25-2.54,6.3,6.3,0,0,0-2.11-1.74,7.68,7.68,0,0,0-8.38,1.46,10.35,10.35,0,0,0-2.25,5.86Z"/><path class="cls-2" d="M624.31,186.8c.41-.08.82-.13,1.22-.17s.81-.06,1.23-.06a10.9,10.9,0,0,1,1.17.06c.36,0,.75.09,1.16.17.12.57.23,1.34.35,2.31a22.26,22.26,0,0,1,.17,2.42,11.64,11.64,0,0,1,1.45-1.94,11.77,11.77,0,0,1,2-1.74,10.4,10.4,0,0,1,5.87-1.73q5,0,7.41,2.87t2.39,8.52V216a12.89,12.89,0,0,1-1.42.17c-.54,0-1,.06-1.43.06s-.88,0-1.39-.06a12.79,12.79,0,0,1-1.4-.17v-17q0-4.05-1.25-6a4.42,4.42,0,0,0-4-1.91,8,8,0,0,0-3,.57,6.78,6.78,0,0,0-2.51,1.76,9,9,0,0,0-1.74,3.11,14.38,14.38,0,0,0-.65,4.59V216a12.79,12.79,0,0,1-1.4.17c-.51,0-1,.06-1.39.06s-.9,0-1.43-.06a12.59,12.59,0,0,1-1.42-.17Z"/><path class="cls-2" d="M287.9,243.22h-4.45l-.23-.8L293,231.48h.45v7.24h7.41a9.48,9.48,0,0,1,.23,2.16,11.47,11.47,0,0,1-.06,1.2c0,.38-.1.76-.17,1.14h-7.41v13.33a29.34,29.34,0,0,0,.2,3.82,5.6,5.6,0,0,0,.68,2.19,2.33,2.33,0,0,0,1.31,1,7.26,7.26,0,0,0,2.08.25,10.62,10.62,0,0,0,1.83-.14c.57-.09,1.08-.2,1.54-.31a9.38,9.38,0,0,1,.48,2.33c.06.8.09,1.51.09,2.11a17.62,17.62,0,0,1-2.4.43,22.56,22.56,0,0,1-2.67.14,9.51,9.51,0,0,1-6.42-2q-2.29-2-2.3-6.61Z"/><path class="cls-2" d="M309.89,243.16h-3.7a5.91,5.91,0,0,1-.17-1q-.06-.6-.06-1.17t.06-1.17a5.76,5.76,0,0,1,.17-1.05h9.23V268c-.42.07-.89.13-1.4.17s-1,.05-1.39.05-.83,0-1.34-.05-1-.1-1.4-.17Zm-1.25-10.88a9.66,9.66,0,0,1-.14-1.48c0-.54,0-1,0-1.43s0-.89,0-1.42a8.55,8.55,0,0,1,.14-1.43c.49-.07,1-.13,1.59-.17s1.07-.06,1.48-.06.92,0,1.49.06,1.08.1,1.53.17a9.67,9.67,0,0,1,.15,1.43c0,.53,0,1,0,1.42s0,.89,0,1.43a11.05,11.05,0,0,1-.15,1.48c-.45.07-1,.13-1.51.17s-1,.05-1.45.05-1,0-1.54-.05S309.13,232.35,308.64,232.28Z"/><path class="cls-2" d="M329.78,254.73c.07,3.19.9,5.52,2.48,7s3.9,2.22,7,2.22a21,21,0,0,0,7.69-1.43,8.82,8.82,0,0,1,.74,2.08A13.79,13.79,0,0,1,348,267a18.78,18.78,0,0,1-4.13,1.19,28.26,28.26,0,0,1-5,.4,18.76,18.76,0,0,1-6.83-1.11,12,12,0,0,1-7.41-7.92,20.47,20.47,0,0,1-.86-6.07,21.56,21.56,0,0,1,.83-6.07,13.68,13.68,0,0,1,2.54-4.9,12.25,12.25,0,0,1,4.3-3.3,14.16,14.16,0,0,1,6.12-1.23,12.69,12.69,0,0,1,5.3,1,10.72,10.72,0,0,1,3.82,2.82,12.35,12.35,0,0,1,2.34,4.27,17.55,17.55,0,0,1,.79,5.39c0,.53,0,1.09-.05,1.68s-.08,1.09-.12,1.51Zm14.47-4.22a10.61,10.61,0,0,0-.43-3,7.58,7.58,0,0,0-1.25-2.53,6.2,6.2,0,0,0-2.11-1.74,6.57,6.57,0,0,0-3-.66,6.74,6.74,0,0,0-5.33,2.11,10.39,10.39,0,0,0-2.25,5.87Z"/><path class="cls-2" d="M358.21,238.72q.63-.12,1.23-.18c.39,0,.8,0,1.22,0s.81,0,1.17,0,.75.1,1.17.18c.11.57.22,1.32.34,2.25a20.83,20.83,0,0,1,.17,2.36,10.46,10.46,0,0,1,1.28-2,9.2,9.2,0,0,1,1.82-1.69,9.5,9.5,0,0,1,5.45-1.65,7.64,7.64,0,0,1,8.09,5.3,14.35,14.35,0,0,1,1.39-1.94,10.79,10.79,0,0,1,1.86-1.71,9,9,0,0,1,2.33-1.19,8.8,8.8,0,0,1,3-.46q5.08,0,7.38,2.85t2.31,8.43V268c-.42.07-.89.13-1.42.17s-1,.05-1.43.05-.88,0-1.39-.05-1-.1-1.4-.17V251a11.54,11.54,0,0,0-1.2-5.9,4.23,4.23,0,0,0-3.93-2,5.89,5.89,0,0,0-4.7,2.11c-1.2,1.41-1.79,3.48-1.79,6.21V268c-.42.07-.89.13-1.4.17s-1,.05-1.4.05-.88,0-1.39-.05-1-.1-1.4-.17V250.57a11.4,11.4,0,0,0-1.14-5.73,3.93,3.93,0,0,0-3.64-1.91,5.87,5.87,0,0,0-2.68.63,6.21,6.21,0,0,0-2.2,1.88,9.76,9.76,0,0,0-1.48,3.16,16.36,16.36,0,0,0-.54,4.42V268c-.42.07-.88.13-1.39.17s-1,.05-1.4.05-.89,0-1.43-.05-1-.1-1.42-.17Z"/><path class="cls-2" d="M407.78,238.72a11,11,0,0,1,1.17-.18c.4,0,.81,0,1.23,0s.77,0,1.19,0a10.79,10.79,0,0,1,1.2.18,3.5,3.5,0,0,1,.14.71c.06.4.12.82.17,1.28s.12.89.17,1.31a7.91,7.91,0,0,1,.09.8,11.08,11.08,0,0,1,1.37-1.77,9,9,0,0,1,1.91-1.54,10.31,10.31,0,0,1,2.5-1.08A11.55,11.55,0,0,1,422,238a13,13,0,0,1,4.76.86,9.53,9.53,0,0,1,3.76,2.65,12.74,12.74,0,0,1,2.45,4.55,21.86,21.86,0,0,1,.88,6.53q0,7.51-4.07,11.77t-11.54,4.24a20.66,20.66,0,0,1-2.57-.17,14.75,14.75,0,0,1-2.28-.46v13.39c-.45.08-.94.14-1.45.18s-1,.05-1.39.05-.89,0-1.4-.05a13,13,0,0,1-1.4-.18Zm5.64,24.44a10.74,10.74,0,0,0,2.23.57,21.26,21.26,0,0,0,3,.17,10.56,10.56,0,0,0,3.76-.65,7.48,7.48,0,0,0,2.93-2,9.79,9.79,0,0,0,1.94-3.44,15.13,15.13,0,0,0,.71-4.93,13.54,13.54,0,0,0-1.68-7.24c-1.12-1.78-2.95-2.68-5.5-2.68a7.24,7.24,0,0,0-2.73.52A6.87,6.87,0,0,0,415.7,245a7.73,7.73,0,0,0-1.65,2.6,10,10,0,0,0-.63,3.73Z"/><path class="cls-2" d="M454.28,268.63a14.24,14.24,0,0,1-6-1.17,11.9,11.9,0,0,1-4.28-3.22,13.31,13.31,0,0,1-2.53-4.84,22.39,22.39,0,0,1,0-12.08,13.31,13.31,0,0,1,2.53-4.84,12.2,12.2,0,0,1,4.28-3.25,15.5,15.5,0,0,1,12,0,12.2,12.2,0,0,1,4.28,3.25,13.47,13.47,0,0,1,2.53,4.84,22.39,22.39,0,0,1,0,12.08,13.47,13.47,0,0,1-2.53,4.84,11.9,11.9,0,0,1-4.28,3.22A14.27,14.27,0,0,1,454.28,268.63Zm0-4.5a6.47,6.47,0,0,0,5.81-2.85q1.88-2.85,1.88-7.92t-1.88-7.89a6.49,6.49,0,0,0-5.81-2.82,6.41,6.41,0,0,0-5.78,2.82q-1.86,2.82-1.86,7.89t1.86,7.92A6.39,6.39,0,0,0,454.28,264.13Z"/><path class="cls-2" d="M490.75,238.72c.41-.08.81-.14,1.19-.18s.78,0,1.2,0,.83,0,1.25,0a8.53,8.53,0,0,1,1.14.18c.12.57.23,1.32.34,2.25a18.73,18.73,0,0,1,.17,2.36,11.88,11.88,0,0,1,3.17-3.36,8.38,8.38,0,0,1,5-1.43l.94,0a7.81,7.81,0,0,1,.83.09c.07.34.13.7.17,1.08a11.47,11.47,0,0,1,.06,1.2,11.77,11.77,0,0,1-.09,1.42c-.06.5-.12,1-.2,1.43a3.67,3.67,0,0,0-.94-.12h-.77a10.08,10.08,0,0,0-2.93.43,6.15,6.15,0,0,0-2.51,1.51,7.56,7.56,0,0,0-1.77,3,15.24,15.24,0,0,0-.65,4.85V268c-.42.07-.89.13-1.4.17s-1,.05-1.4.05-.88,0-1.39-.05-1-.1-1.45-.17Z"/><path class="cls-2" d="M517.13,254.73c.07,3.19.9,5.52,2.48,7s3.9,2.22,7,2.22a21,21,0,0,0,7.69-1.43,8.82,8.82,0,0,1,.74,2.08,13.79,13.79,0,0,1,.34,2.43,18.78,18.78,0,0,1-4.13,1.19,28.26,28.26,0,0,1-5,.4,18.8,18.8,0,0,1-6.83-1.11A12,12,0,0,1,512,259.6a20.47,20.47,0,0,1-.86-6.07,21.56,21.56,0,0,1,.83-6.07,13.68,13.68,0,0,1,2.54-4.9,12.34,12.34,0,0,1,4.3-3.3,14.16,14.16,0,0,1,6.12-1.23,12.69,12.69,0,0,1,5.3,1,10.64,10.64,0,0,1,3.82,2.82,12.35,12.35,0,0,1,2.34,4.27,17.55,17.55,0,0,1,.79,5.39c0,.53,0,1.09,0,1.68s-.08,1.09-.12,1.51Zm14.47-4.22a10.61,10.61,0,0,0-.43-3,7.58,7.58,0,0,0-1.25-2.53,6.11,6.11,0,0,0-2.11-1.74,6.57,6.57,0,0,0-3-.66,6.72,6.72,0,0,0-5.32,2.11,10.32,10.32,0,0,0-2.26,5.87Z"/><path class="cls-2" d="M561,248.69q0-3.36-1.71-4.67a8,8,0,0,0-4.95-1.31,21,21,0,0,0-3.74.31,29.89,29.89,0,0,0-3.39.82,8.87,8.87,0,0,1-1.08-4.5,27.42,27.42,0,0,1,4.27-1,32.32,32.32,0,0,1,4.51-.34c3.79,0,6.68.87,8.66,2.59s3,4.5,3,8.3v18.29c-1.33.3-2.94.61-4.84.94a35,35,0,0,1-5.81.48,22.89,22.89,0,0,1-5-.51,10.32,10.32,0,0,1-3.82-1.65,7.7,7.7,0,0,1-2.42-2.91,9.74,9.74,0,0,1-.85-4.27,8.72,8.72,0,0,1,3.7-7.38,12,12,0,0,1,3.93-1.83,17.86,17.86,0,0,1,4.68-.59c1.21,0,2.21,0,3,.08s1.43.12,2,.2Zm0,5.52c-.57-.07-1.29-.15-2.16-.22s-1.62-.12-2.22-.12a9.3,9.3,0,0,0-5.39,1.31,4.58,4.58,0,0,0-1.85,4,4.87,4.87,0,0,0,.63,2.68,4.24,4.24,0,0,0,1.56,1.48,5.55,5.55,0,0,0,2.08.63,20.61,20.61,0,0,0,2.17.11,25.19,25.19,0,0,0,2.7-.14,15.49,15.49,0,0,0,2.48-.43Z"/><path class="cls-2" d="M575.88,226.18a12.59,12.59,0,0,1,1.39-.17c.51,0,1-.06,1.4-.06s.88,0,1.39.06a12.79,12.79,0,0,1,1.4.17v32.94a8.69,8.69,0,0,0,.28,2.5,3.38,3.38,0,0,0,.77,1.4,2.39,2.39,0,0,0,1.14.63,6.92,6.92,0,0,0,1.4.14q.51,0,1.17-.06a7.25,7.25,0,0,0,1.11-.17,17.43,17.43,0,0,1,.51,4.33,7.6,7.6,0,0,1-1.94.37q-1.14.09-2.1.09a11.59,11.59,0,0,1-3.08-.4,6.63,6.63,0,0,1-2.51-1.31,6.27,6.27,0,0,1-1.71-2.45,10.15,10.15,0,0,1-.62-3.82Z"/><g class="cls-3"><path class="cls-2" d="M300.66,82.29H287.24a29.88,29.88,0,0,1-.5-3.44c-.12-1.24-.17-2.46-.17-3.67a33.92,33.92,0,0,1,.67-6.87h29.87v59.51a25.49,25.49,0,0,1-2,10.54,19.12,19.12,0,0,1-5.41,7.1,21.68,21.68,0,0,1-8.12,4,39.93,39.93,0,0,1-10.2,1.24,46.23,46.23,0,0,1-10.25-1.35c-.08-.53-.13-1.06-.17-1.58s-.06-1.09-.06-1.69a29.68,29.68,0,0,1,1.92-10.37c.82.15,1.73.34,2.7.56a13.26,13.26,0,0,0,3.05.34,36.27,36.27,0,0,0,4-.23,8.41,8.41,0,0,0,6.82-4.67,13.41,13.41,0,0,0,1.19-6.26Z"/><path class="cls-2" d="M361.4,111a9.35,9.35,0,0,0-.9-4.4A6.67,6.67,0,0,0,358,104a10.2,10.2,0,0,0-3.88-1.29,35.13,35.13,0,0,0-5.13-.34,40,40,0,0,0-13,2.36,29.38,29.38,0,0,1-2.37-5.52,21.29,21.29,0,0,1-.79-6.2,61,61,0,0,1,9.92-2.48,59.64,59.64,0,0,1,9.24-.79q11.71,0,18.32,5.64t6.59,18V147.2a93.11,93.11,0,0,1-9.58,2.37,65.38,65.38,0,0,1-12.74,1.13,50.74,50.74,0,0,1-10.54-1,22.43,22.43,0,0,1-8.22-3.38,15.86,15.86,0,0,1-5.3-6.08,20.29,20.29,0,0,1-1.86-9.13A16.73,16.73,0,0,1,331,122a17.88,17.88,0,0,1,6-5.86,26.57,26.57,0,0,1,8.18-3.15,43.12,43.12,0,0,1,9-1q3.27,0,7.21.34Zm0,11.6c-.9-.15-1.87-.28-2.93-.39a27.45,27.45,0,0,0-2.81-.17q-5.54,0-8.74,2t-3.21,6.37a7.12,7.12,0,0,0,1.24,4.51,7.43,7.43,0,0,0,3,2.31,12.07,12.07,0,0,0,3.72.9c1.31.11,2.46.17,3.43.17a20.2,20.2,0,0,0,3.38-.28l2.93-.51Z"/><path class="cls-2" d="M384.06,91.19a30.11,30.11,0,0,1,4.9-.68c1.54-.07,2.84-.11,3.89-.11,1.5,0,3,0,4.39.11a23.5,23.5,0,0,1,4.06.57l9.36,43.05,10.82-43a39.54,39.54,0,0,1,7.66-.68c1.95.08,3.57.15,4.85.22a20.62,20.62,0,0,1,3.38.46L448,133.34l9.24-42.26c1.28-.23,2.48-.4,3.61-.51s2.4-.17,3.83-.17c1.05,0,2.31,0,3.78.11a32.52,32.52,0,0,1,4.9.68l-18.14,58.16a40.21,40.21,0,0,1-4.34.45c-1.55.07-2.84.11-3.89.11s-2.39,0-3.78-.11a23.36,23.36,0,0,1-4-.57l-10.59-38.54-10.94,38.66a44.07,44.07,0,0,1-4.45.45c-1.54.07-2.83.11-3.89.11s-2.27,0-3.66-.11a23.36,23.36,0,0,1-4-.57Z"/><path class="cls-2" d="M485.16,103.25H477.6a26.07,26.07,0,0,1-.5-3.1,28.23,28.23,0,0,1-.17-3.1,26.46,26.46,0,0,1,.67-6h23.22v58.27a48,48,0,0,1-7.89.67,47.26,47.26,0,0,1-7.77-.67Zm-2.37-22a43.42,43.42,0,0,1-.68-7.55,44.85,44.85,0,0,1,.68-7.55,40.47,40.47,0,0,1,4.11-.51c1.47-.11,2.8-.17,4-.17s2.67.06,4.17.17a39.65,39.65,0,0,1,4.17.51,31.2,31.2,0,0,1,.45,3.77q.12,1.86.12,3.78t-.12,3.72a31.22,31.22,0,0,1-.45,3.83,31.51,31.51,0,0,1-4.11.45c-1.46.08-2.84.11-4.11.11s-2.56,0-4.06-.11A32.09,32.09,0,0,1,482.79,81.27Z"/><path class="cls-2" d="M516.6,91.08q1.7-.35,3.21-.51a31,31,0,0,1,3.33-.17,26.07,26.07,0,0,1,3.32.22c1.09.16,2.16.34,3.21.57a6.11,6.11,0,0,1,.62,1.63c.19.72.36,1.47.51,2.26s.28,1.58.4,2.36.2,1.45.28,2a29,29,0,0,1,6.08-6.26,14.42,14.42,0,0,1,9-2.76c.75,0,1.62,0,2.59.11a10,10,0,0,1,2.14.34,21,21,0,0,1,.34,2.59c.08,1,.11,2,.11,3,0,1.27,0,2.66-.16,4.17a31.25,31.25,0,0,1-.62,4.28,15.58,15.58,0,0,0-2.77-.23h-1.85a26.74,26.74,0,0,0-4.29.4,9.89,9.89,0,0,0-4.51,2.08,12.42,12.42,0,0,0-3.55,5.08,25.32,25.32,0,0,0-1.41,9.46v27.73a39.8,39.8,0,0,1-4.05.45c-1.35.07-2.67.11-3.95.11s-2.57,0-3.89-.11-2.68-.23-4.11-.45Z"/><path class="cls-2" d="M591,111a9.34,9.34,0,0,0-.91-4.4A6.67,6.67,0,0,0,587.6,104a10.2,10.2,0,0,0-3.88-1.29,35.13,35.13,0,0,0-5.13-.34,40,40,0,0,0-13,2.36,29.38,29.38,0,0,1-2.37-5.52,21.29,21.29,0,0,1-.79-6.2,61,61,0,0,1,9.92-2.48,59.64,59.64,0,0,1,9.24-.79q11.72,0,18.32,5.64t6.59,18V147.2a93.11,93.11,0,0,1-9.58,2.37,65.38,65.38,0,0,1-12.74,1.13,50.74,50.74,0,0,1-10.54-1,22.43,22.43,0,0,1-8.22-3.38,15.86,15.86,0,0,1-5.3-6.08,20.29,20.29,0,0,1-1.86-9.13,16.73,16.73,0,0,1,2.31-9.08,17.88,17.88,0,0,1,6-5.86,26.67,26.67,0,0,1,8.18-3.15,43.12,43.12,0,0,1,9-1c2.18,0,4.58.11,7.22.34Zm0,11.6c-.91-.15-1.88-.28-2.94-.39a27.45,27.45,0,0,0-2.81-.17q-5.54,0-8.74,2t-3.21,6.37a7.12,7.12,0,0,0,1.24,4.51,7.43,7.43,0,0,0,3,2.31,12.07,12.07,0,0,0,3.72.9c1.31.11,2.46.17,3.43.17a20.2,20.2,0,0,0,3.38-.28l2.94-.51Z"/></g><path class="cls-2" d="M122.21,121.25l3.74-1.87-3.74,1.87"/><path class="cls-2" d="M187.6,203.3a26,26,0,0,1-2.29,2.5,26,26,0,0,0,2.29-2.5"/><path class="cls-2" d="M106,134.37c1-1,1.87-2.29,2.92-3.34a22.13,22.13,0,0,0-2.92,3.34"/><path class="cls-2" d="M94.31,178.52a53.48,53.48,0,0,1,5.4-35.2c-.62,1.26-1.46,2.71-2.08,4-13.11-5.21-24.78-6.87-34.36-6.66l1.67-.42-19,4.17a3.53,3.53,0,0,0-2.91,3.33L41,168.31a3.5,3.5,0,0,0,2.08,3.76l17.7,8.32.63,4.38A79.25,79.25,0,0,0,63.9,195L52,208.51a3.78,3.78,0,0,0-.42,4.37l10.83,17.7a3.78,3.78,0,0,0,4,1.67l17.92-3.53A87.36,87.36,0,0,0,97,239.33L95.76,256a3.63,3.63,0,0,0,2.29,3.75l19.37,7.71a3.53,3.53,0,0,0,4.16-1.05l.83-.83,14.79-45c-20.83-3.12-38.74-19.58-42.89-42.07"/><path class="cls-2" d="M103.05,138.12l2.49-3.12a16.6,16.6,0,0,0-2.49,3.12"/><path class="cls-2" d="M113,127.29a41.78,41.78,0,0,1,3.75-2.7,41.78,41.78,0,0,0-3.75,2.7"/><path class="cls-2" d="M109.72,130.42A22.54,22.54,0,0,1,113,127.5a22.54,22.54,0,0,0-3.32,2.92"/><path class="cls-2" d="M100.13,142.49a33.38,33.38,0,0,1,2.3-3.74c-.84,1.24-1.46,2.49-2.3,3.74"/><path class="cls-2" d="M130.54,117.92h0l-3.75,1.25,3.75-1.25"/><path class="cls-2" d="M196.14,189.76c-.62,1.25-1.25,2.71-1.87,4,.62-1.25,1.25-2.5,1.87-4"/><path class="cls-2" d="M181.05,209.56c1-.84,2.08-1.88,3.13-2.72a36.41,36.41,0,0,1-6.26,5l-26.23,43.94,8.12,12.5A3.65,3.65,0,0,0,164,270l20.21-5.42a3.56,3.56,0,0,0,2.7-3.32l1.46-17.29a115,115,0,0,0,14.16-9.79l15.41,5.62a4,4,0,0,0,4.38-1.25l12.91-16.45-.21.21c-13.75,4-31.66,2.29-53.94-12.7"/><path class="cls-2" d="M117.63,124a24,24,0,0,1,4-2.29,36.53,36.53,0,0,0-4,2.29"/><path class="cls-2" d="M200.1,175.18l-.63,3.76a10.06,10.06,0,0,0,.63-3.76"/><path class="cls-2" d="M197.8,185.39c-.41,1.05-.83,2.29-1.24,3.34.41-1,.83-2.08,1.24-3.34"/><path class="cls-2" d="M193.64,195c-.63,1-1.25,1.87-1.88,2.91a33.48,33.48,0,0,1,1.88-2.91"/><path class="cls-2" d="M190.93,198.93c-.83,1.25-1.67,2.29-2.5,3.33a19.71,19.71,0,0,0,2.5-3.33"/><path class="cls-2" d="M199.47,180a34.61,34.61,0,0,1-1.25,4.37c.42-1.46.83-2.92,1.25-4.37"/><g class="cls-4"><rect class="cls-5" x="187.6" y="202.26" width="0.83" height="1.04"/></g><g class="cls-6"><rect class="cls-7" x="184.27" y="205.8" width="1.04" height="1.04"/></g><g class="cls-8"><rect class="cls-9" x="99.71" y="142.7" width="0.42" height="0.84"/></g><g class="cls-10"><rect class="cls-11" x="190.93" y="197.68" width="0.83" height="1.05"/></g><g class="cls-12"><rect class="cls-13" x="193.64" y="193.72" width="0.62" height="1.05"/></g><g class="cls-14"><rect class="cls-15" x="197.8" y="184.35" width="0.42" height="1.25"/></g><g class="cls-16"><rect class="cls-17" x="102.43" y="138.12" width="0.41" height="0.63"/></g><g class="cls-18"><rect class="cls-19" x="196.14" y="188.73" width="0.42" height="1.04"/></g><g class="cls-20"><rect class="cls-21" x="116.79" y="123.96" width="0.83" height="0.62"/></g><g class="cls-22"><rect class="cls-23" x="105.34" y="134.37" width="0.62" height="0.63"/></g><g class="cls-24"><rect class="cls-25" x="121.58" y="121.25" width="0.63" height="0.42"/></g><g class="cls-26"><rect class="cls-27" x="126.16" y="118.96" width="0.62" height="0.42"/></g><g class="cls-28"><rect class="cls-29" x="199.26" y="179.15" width="0.21" height="0.83"/></g><g class="cls-30"><rect class="cls-31" x="108.88" y="130.42" width="0.83" height="0.63"/></g><g class="cls-32"><rect class="cls-33" x="200.1" y="174.57" width="0.21" height="0.62"/></g><path class="cls-2" d="M248.62,154.16l-18.33-7.08a92.75,92.75,0,0,0-4.79-13.55l11.25-15.19a3.46,3.46,0,0,0,0-4.38L224.46,97.09a3.84,3.84,0,0,0-4.16-1.46l-20.2,5.63C198.64,100,197,99,195.51,97.92l-.2-22.9a3.56,3.56,0,0,0-2.71-3.54l-16.87-5.21-15.83,50.4a53.5,53.5,0,0,1,33.95,25.61l11.66.21a3.32,3.32,0,0,1,2.92,1.67,3.07,3.07,0,0,1,.41,1.25l1.67,10.41v1.25c0,.42.21.63,0,1h.42l-.63.21-9.79,16c0,.2-.21.42-.21.62-.2,1.25-.41,2.5-.62,3.75,0,.21-.21.63-.21.83-.42,1.46-.83,2.92-1.25,4.37-.21.42-.21.84-.42,1.26-.41,1-.83,2.28-1.24,3.33-.21.62-.21,1-.42,1.24-.63,1.25-1.25,2.71-1.87,4a5,5,0,0,1-.63,1.05c-.63,1-1.25,1.87-1.88,2.91a2,2,0,0,1-.83,1c-.83,1.25-1.67,2.29-2.5,3.33-.2.42-.62.63-.83,1a24.85,24.85,0,0,1-2.29,2.5l-1,1a35.76,35.76,0,0,1-3.13,2.71c22.29,14.79,40.2,16.66,54.15,12.92l.21-.21a3.73,3.73,0,0,0,.2-4.37l-9.58-15.42a76.87,76.87,0,0,0,4.79-15.4l16.67-5a3.57,3.57,0,0,0,2.7-3.53l.42-20.83a3.25,3.25,0,0,0-2.08-3.33"/><path class="cls-2" d="M248.62,154.16l-18.33-7.08a92.75,92.75,0,0,0-4.79-13.55l11.25-15.19a3.46,3.46,0,0,0,0-4.38L224.46,97.09a3.84,3.84,0,0,0-4.16-1.46l-20.2,5.63C198.64,100,197,99,195.51,97.92l-.2-22.9a3.56,3.56,0,0,0-2.71-3.54l-16.87-5.21-15.83,50.4a53.5,53.5,0,0,1,33.95,25.61l11.66.21a3.32,3.32,0,0,1,2.92,1.67,3.07,3.07,0,0,1,.41,1.25l1.67,10.41v1.25c0,.42.21.63,0,1h.42l-.63.21-9.79,16c0,.2-.21.42-.21.62-.2,1.25-.41,2.5-.62,3.75,0,.21-.21.63-.21.83-.42,1.46-.83,2.92-1.25,4.37-.21.42-.21.84-.42,1.26-.41,1-.83,2.28-1.24,3.33-.21.62-.21,1-.42,1.24-.63,1.25-1.25,2.71-1.87,4a5,5,0,0,1-.63,1.05c-.63,1-1.25,1.87-1.88,2.91a2,2,0,0,1-.83,1c-.83,1.25-1.67,2.29-2.5,3.33-.2.42-.62.63-.83,1a24.85,24.85,0,0,1-2.29,2.5l-1,1a35.76,35.76,0,0,1-3.13,2.71c22.29,14.79,40.2,16.66,54.15,12.92l.21-.21a3.73,3.73,0,0,0,.2-4.37l-9.58-15.42a76.87,76.87,0,0,0,4.79-15.4l16.67-5a3.57,3.57,0,0,0,2.7-3.53l.42-20.83a3.25,3.25,0,0,0-2.08-3.33"/><path class="cls-2" d="M97.63,147.49a24,24,0,0,1,2.08-4c.21-.42.42-.62.42-.83a34.42,34.42,0,0,1,2.3-3.75c.21-.2.41-.41.41-.62l2.5-3.13.62-.62c1-1.05,1.87-2.29,2.92-3.34a2.76,2.76,0,0,1,.84-.62,22,22,0,0,1,3.32-2.91,41.94,41.94,0,0,1,3.75-2.71c.21-.21.63-.41.84-.62a24,24,0,0,1,4-2.3c.21-.2.42-.2.62-.41L126,119.8c.21,0,.43-.21.63-.42a25,25,0,0,1,3.75-1.25l19.78-34.57h-3.74l-11.25-17.7A3.66,3.66,0,0,0,131,64.18L111,69A4,4,0,0,0,108,72.31l-2.29,21a67.94,67.94,0,0,0-7.5,4.58L79.72,89.59a3.81,3.81,0,0,0-4.37.84L61.19,105.84a4.2,4.2,0,0,0-.63,4.37l9.58,18.53a89.85,89.85,0,0,0-5.41,12.09l-1.67.41a83,83,0,0,1,34.57,6.25"/><polygon class="cls-2" points="146.53 145.67 185.88 34.58 187.67 29.81 97.95 185.82 153.29 185.82 111.35 312.81 203.37 146.67 151.5 145.88 146.53 145.67"/></svg>