<svg id="Capa_1" data-name="Capa 1" xmlns="http://www.w3.org/2000/svg" viewBox="0 0 3856 1216"><defs><style>.cls-1{fill:#706f6f;}</style></defs><title>isotipo-diinf-bn</title><path class="cls-1" d="M173.72,278.82c2.36,9,6.18,15.41,11.39,19a20.47,20.47,0,0,0,11.75,3.6,21.54,21.54,0,0,0,3.33-.26,172.43,172.43,0,0,0,27.25-18.82,181.36,181.36,0,0,0,18.17-17.13c4.72-6.23,7.51-10.85,7.51-15.87,0-5.41-3.24-11.73-11.53-22.57-3.94-5.16-6.46-10.62-8.94-17.72a55.84,55.84,0,0,0-1.59,11.26,7.18,7.18,0,0,0,.06,1.08,3.7,3.7,0,0,1,0,.62,3.44,3.44,0,0,1-3.47,3.45,3.4,3.4,0,0,1-3.25-2.37c-5.16-16.05-17-28.75-25.16-36a110.56,110.56,0,0,1,.77,12.64c0,10.72-1.8,19.35-5.35,25.62a34.67,34.67,0,0,0-4.85,17.06,21.19,21.19,0,0,0,1.29,7.87,3.27,3.27,0,0,1,.29,1.37,3.47,3.47,0,0,1-1.29,2.7,3.51,3.51,0,0,1-4.22.07c-2.53-1.87-4.7-6-6.46-12.24A47.76,47.76,0,0,0,176.55,258c0,11.39,4.85,17.54,4.9,17.61a3.45,3.45,0,0,1-3.69,5.44,12.28,12.28,0,0,1-4-2.2m89.47-22.53-.39,0a1.65,1.65,0,0,0-1.11.5c-3.95,5-7.43,9.16-11,13a183.21,183.21,0,0,1-19,17.93,178.83,178.83,0,0,1-29,19.88c-2.28,1.26-4.53,2.47-6.89,3.69a1.72,1.72,0,0,0-.73,1,4.08,4.08,0,0,0,.27,2.89,4.44,4.44,0,0,0,2.49,1.91,2.22,2.22,0,0,0,1.52.05l5.28-2.82L207,313.2c3.93-2.19,7.51-4.34,10.91-6.55l.36-.23c.38-.25.76-.5,1.12-.76.66-.42,1.27-.83,1.87-1.24s1.44-1,2.17-1.53l1.42-1,1.63-1.22.24-.17,1-.74,1.06-.79.42-.34c2.26-1.74,4.57-3.59,7.08-5.68,5.06-4.19,9.42-8.09,13.35-11.95l.32-.32c.84-.84,1.67-1.67,2.49-2.52l.22-.23.3-.3c.88-.93,1.72-1.81,2.55-2.72l.31-.33c1.69-1.85,3.39-3.8,5.38-6.18.13-.14.21-.24.3-.35l1.6-2,3.77-4.68a2.14,2.14,0,0,0,.22-1.47,4.47,4.47,0,0,0-1.42-2.82,4,4,0,0,0-2.43-.82M214.26,317l2.05,2.17,8.77,9.29,1.38-.73,2.81-1.48.77-.42.79-.43a1.06,1.06,0,0,1,.25-.13l1.84-1,1-.59a1.62,1.62,0,0,1,.27-.14c.35-.23.81-.5,1.26-.78l.22-.13,1.31-.81a1.66,1.66,0,0,1,.24-.16l1.32-.86.18-.12,1.42-.95.22-.16.95-.66.81-.59c.45-.32.9-.64,1.37-1l2-1.53.31-.25.79-.6.54-.42c.19-.17.46-.37.71-.57l.71-.57,1.34-1.09c.44-.37.9-.74,1.37-1.12l1.22-1,1-.82.72-.61.27-.24c.27-.23.55-.46.8-.69l.86-.74,1-.86,1.06-1c.21-.19.38-.34.53-.49.43-.39.81-.75,1.18-1.11l.15-.14a.85.85,0,0,0,.17-.16l1.22-1.18a3.34,3.34,0,0,1,.33-.32l1.08-1.09.09-.1c.47-.48.84-.88,1.21-1.27l1.35-1.47,1-1.15.11-.14c.63-.71,1.22-1.41,1.83-2.13l.76-.91.65-.81,1.41-1.74c.27-.34.55-.69.81-1l.95-1.18c-1.35-1.85-3.37-4.65-3.37-4.65l-4.12-5.73-1.74-2.41a196.65,196.65,0,0,1-23.26,22.48A186.3,186.3,0,0,1,214.26,317m67.8-28.54L280,291c-7.3,9.31-11.75,15-24.43,25.51-12.52,10.37-18.95,13.69-29.6,19.2l-.28.16-2.3,1.18c-.91.47-1.11,2.65-.37,4.08a4.15,4.15,0,0,0,2.3,1.79,2.35,2.35,0,0,0,1.66,0l2.51-1.27L236.3,338l4.35-2.34a118.41,118.41,0,0,0,13.84-9.39c1.79-1.4,3.6-2.86,5.47-4.39l.22-.17c1.79-1.49,3.62-3.06,5.35-4.57a118.36,118.36,0,0,0,11.71-11.84s1.46-1.77,3.11-3.82l6.65-8.24a2.09,2.09,0,0,0,.4-1.26,4.88,4.88,0,0,0-1.77-3.2,3.11,3.11,0,0,0-2.11-.73h-.21a2.53,2.53,0,0,0-1.25.38M665.59,328.8H683.2v18.36c5.94-8.06,16.91-21.12,28.67-26a61.32,61.32,0,0,1-2.29-16,35,35,0,0,1,2.76-14.36,3.5,3.5,0,0,1,2.29-1.93,3.53,3.53,0,0,1,2.9.55l31.71,22.73a14,14,0,0,1,3.2,19.49,13.65,13.65,0,0,1-11.22,5.74A15.16,15.16,0,0,1,733.1,335a11.59,11.59,0,0,1-1.35-1,16.5,16.5,0,0,0,6.44,9.62,16.32,16.32,0,0,0,9.56,3.06,16.52,16.52,0,0,0,13.43-6.88,15.69,15.69,0,0,0,2.73-6.39,3.46,3.46,0,0,1,2.25-2.56,3.62,3.62,0,0,1,3.42.58l5.92,4.83c9.43,6.77,17.3,8.69,20.85,8.1a2.46,2.46,0,0,0,1.55-.69c1.21-1.7-2.18-10.17-14.3-18.86l-6.37-4a3.54,3.54,0,0,1-1.68-3,3.48,3.48,0,0,1,1.68-2.95,16.05,16.05,0,0,0,5.22-4.68,16.47,16.47,0,0,0-3.8-23,15.68,15.68,0,0,0-5.79-2.56,14,14,0,0,1,.88,17.37,13.61,13.61,0,0,1-11.18,5.7,15.68,15.68,0,0,1-8.39-2.52l-31.67-22.7a3.42,3.42,0,0,1-.79-4.8l23.13-32.27a14.6,14.6,0,0,1,9-5.47c4.06-.68,8.37.52,12.62,3.57a13.36,13.36,0,0,1,6,9.48c0,.45.07.89.07,1.33a13.83,13.83,0,0,1-1,4.92,16.73,16.73,0,0,0,5.67-4.95,11.1,11.1,0,0,0,2-6.75,26.67,26.67,0,0,0-3.09-11.32,59.78,59.78,0,0,1-5.6-25.71,54.24,54.24,0,0,1,.52-7.07,62.47,62.47,0,0,1-26.85,6,45.23,45.23,0,0,1-5.83-.33l-.14,0a29.17,29.17,0,0,0-4.46-.33c-4.28,0-10,.89-12.92,5.13a16.73,16.73,0,0,0-2.89,7,13.38,13.38,0,0,1,5.65-2.89,13.54,13.54,0,0,1,10.9,2.57c4.42,3.19,7,6.9,7.62,11a13.72,13.72,0,0,1-2.51,10l-23.14,32.31a3.44,3.44,0,0,1-2.22,1.38,3.4,3.4,0,0,1-2.6-.59l-31.81-22.8c-6.17-4.95-7.49-13.29-3.1-19.43a13.87,13.87,0,0,1,9.12-5.67,14.09,14.09,0,0,1,7.62.9,15.79,15.79,0,0,0-4.32-4.67,16.33,16.33,0,0,0-9.56-3.07,16.47,16.47,0,0,0-16.18,13.32,3.43,3.43,0,0,1-2.26,2.53,3.61,3.61,0,0,1-3.4-.61l-5.9-4.8c-8.41-6-15.63-8.19-19.56-8.19-1.69,0-2.57.4-2.84.77-1.22,1.7,2.16,10.19,14.28,18.86l6.4,4a3.61,3.61,0,0,1,1.67,3,3.45,3.45,0,0,1-1.69,3,15.92,15.92,0,0,0-5.2,4.7,16.37,16.37,0,0,0,14.8,25.91c-.43-.27-.83-.57-1.22-.87a14.75,14.75,0,0,1-5.65-11.42,13.52,13.52,0,0,1,2.59-8,13.83,13.83,0,0,1,9-5.66,14,14,0,0,1,10.46,2.42l5.24,3.74,26.49,19a3.43,3.43,0,0,1,1.42,2.58,1.79,1.79,0,0,1,0,.21A3.45,3.45,0,0,1,707,287c-8.62,8.05-22,9.84-28.49,10.22-.73,10.64-7.07,22.66-12.88,31.62m-403.18,0h31.88L283.7,314.65l-2.52-3.36a143.31,143.31,0,0,1-16.81,15.9l-2,1.61m-16.64,11.83c3.48,3.8,10,10.95,15,16.43v-27a131.08,131.08,0,0,1-15,10.55m241.66,46.95-3.35-2.43-12-8.65-15.21,11.07,1.3-4c.69-2.15,3.55-11,4.5-13.89-2.51-1.82-10.18-7.37-12.05-8.7l-3.43-2.46h19.1l5.85-18.07,1.3,3.93c.72,2.17,3.63,11.18,4.58,14.14h18.82L493.45,361c-1.84,1.32-9.37,6.78-11.85,8.58.95,2.94,3.86,11.88,4.56,14.05Zm-203.23,0L290,369.71l-15.46-11.17H293.6c.95-3,3.87-12,4.56-14.13l1.27-4,1.31,4c.71,2.17,3.63,11.18,4.59,14.14h18.81L320.73,361c-1.85,1.32-9.35,6.78-11.83,8.58l4.54,14.05,1.28,4L299.4,376.51c-2.47,1.79-10,7.25-11.82,8.59Zm375.89,0-3.36-2.45c-1.82-1.34-9.45-6.84-12-8.65-2.47,1.8-10,7.25-11.81,8.6l-3.35,2.48,1.26-4c.68-2.15,3.54-11,4.49-13.9-2.52-1.82-10.2-7.37-12.06-8.7l-3.42-2.46H639c.95-3,3.87-12,4.56-14.13l1.27-4,1.31,3.95c.72,2.17,3.64,11.18,4.6,14.14h18.7L666.09,361l-11.8,8.59c1,2.94,3.84,11.89,4.53,14.05Zm-173,49.47c2.18,0,4.39.12,6.22.23-1.84-1.32-3.78-2.44-4.95-2.44a.91.91,0,0,0-.77.3,3.34,3.34,0,0,0-.5,1.91m14.34,3.69-4-.41c-.05,0-5.66-.57-10.79-.57l-2,0-.18-1.17c-.06-.35-.47-3.42,1.06-5.22a3.54,3.54,0,0,1,2.75-1.26c3.76,0,9.54,5.25,10.19,5.86Zm-26,21.35.94.13.91.05.61,0a12.08,12.08,0,0,0,5.88-1.38,18.77,18.77,0,0,0-8.34,1.18m-97.28-1.56h.24a2.79,2.79,0,0,1,2.57,2.14,4.86,4.86,0,0,0,3,3.36,4.83,4.83,0,0,1,2.11,2.28A7,7,0,0,1,389,466c2-.93,2.8-1.61,3.22-2.88a2.89,2.89,0,0,1,2.53-1.94H395a2.8,2.8,0,0,1,2.53,1.56c.28.55.63.75,2.16,1.43l.49.19a5.73,5.73,0,0,1,2.4,2.38,5,5,0,0,1,2.68-2.37,4.25,4.25,0,0,0,.49-.21l.2-.11a3.19,3.19,0,0,0,.38-.26l.19-.13.29-.31h0l.09-.1.18-.23a1.84,1.84,0,0,1,.17-.22,4.25,4.25,0,0,1,.25-.4l0-.14a3.78,3.78,0,0,0,.26-.58,8,8,0,0,0,.26-.84l.08-.4a1.53,1.53,0,0,0,0-.3,5.4,5.4,0,0,0,.07-.8,5.59,5.59,0,0,0-5.65-5.53c-2.55,0-4.39,1-5.17,2.71a3,3,0,0,1-2.68,1.7,2.81,2.81,0,0,1-2.64-1.91c-.86-2.09-2.75-3.25-5.41-3.25a5.56,5.56,0,0,0-5.67,4.15,2.9,2.9,0,0,1-2.52,2.11h-.19a3,3,0,0,1-2.72-1.81c-.81-2.08-3.1-2.39-4.4-2.39a4.7,4.7,0,0,0-4.71,4.68,3.93,3.93,0,0,0,.06.69,3.39,3.39,0,0,0,.13.57,2.85,2.85,0,0,1,.1.32l0,.08a.69.69,0,0,0,0,.13l.32.6a2.75,2.75,0,0,0,.15.24c.07.08.13.18.21.27l.63.65a3.65,3.65,0,0,0,.31.24,1.66,1.66,0,0,1,.23.16c.18.1.37.21.57.3a4.3,4.3,0,0,1,1.88,1.89,5.25,5.25,0,0,1,2.05-1.92l.17-.1c1.67-.77,2-1,2.2-1.53a2.92,2.92,0,0,1,2.65-1.81m91,18.93.15.07,2.26,1.11,1.21.62a8.07,8.07,0,0,0,3.16,1,1.33,1.33,0,0,0,.56-.1c.7-.42,1.33-2.45,1.39-3.85V478c-1.82-.58-3.62-1.12-5.43-1.55a2,2,0,0,0-1.61.12,5.86,5.86,0,0,0-1.7,3M364.5,498.09h3.05L366,493.45Zm14.07,10.71h-9.08v-3.07l.32,0c-.06-.16-.11-.33-.17-.5l-.18-.59c-.06-.17-.11-.34-.16-.51h-6.51c-.1.34-.2.64-.28.9s-.1.39-.16.6h.27l0,3.2h-8.43v-2.93l.94-.21s0,0,0,0l.07-.19c0-.08.09-.32.19-.68l.07-.24c.2-.64.43-1.38.7-2.3.24-.67.45-1.32.66-2l.74-2.34c.23-.72.46-1.45.67-2.16s.37-1.18.55-1.74.35-1.17.54-1.74l.53-1.73c.13-.45.27-.87.39-1.27.18-.63.36-1.22.52-1.71l-.31,0,0-3.11H372v3.1l-.32,0c.12.36.23.72.36,1.12s.29.88.44,1.4.28.85.43,1.33c.23.68.46,1.43.73,2.21.44,1.34.9,2.69,1.37,4.08l1.6,4.81c.34,1,.65,2,.95,2.77.05.15.1.27.13.36h.89Zm-63.83,24.65L311.35,531c-1.84-1.34-9.45-6.83-12-8.63-2.47,1.8-10,7.26-11.82,8.61l-3.39,2.48,1.3-4c.69-2.15,3.54-11,4.49-13.91-2.52-1.81-10.22-7.35-12.07-8.7l-3.37-2.45H293.6c.94-2.95,3.86-12,4.55-14.15l1.28-4,1.31,4c.71,2.18,3.63,11.21,4.59,14.16h18.85l-3.46,2.46c-1.84,1.32-9.35,6.79-11.82,8.59,1,2.92,3.84,11.88,4.54,14Zm345.37,0L656.73,531c-1.82-1.33-9.45-6.82-12-8.62L633,531l-3.35,2.46,1.26-4c.68-2.15,3.54-11,4.49-13.91-2.52-1.81-10.21-7.35-12.07-8.71l-3.37-2.45H639c.95-2.95,3.87-12,4.56-14.14l1.27-4,1.31,4c.72,2.17,3.64,11.2,4.6,14.15h18.73l-3.36,2.45c-1.81,1.33-9.32,6.8-11.8,8.6,1,2.93,3.84,11.89,4.53,14.05ZM393,534.85h31.69V472.91l-2.29-1.65-1.07-.77v60.07a2.91,2.91,0,0,1-4.11,2.68,43.07,43.07,0,0,0-17.41-4.06,29.42,29.42,0,0,0-7.32.89,11.11,11.11,0,0,1,.59,3.55,10.29,10.29,0,0,1-.08,1.23m57.71,87.82a29,29,0,0,1-4.77-.43l.31-2.7h.49c3.57,0,15.24-.94,15.55-13.11l0-1.32h1.32c.16,0,17.07-.24,25.81-4.42l1.23,2.42a73.6,73.6,0,0,1-23.66,7.45c-.86,3.1-4.37,12.11-16.3,12.11M506.49,651l10.78-8.1c10.85-8.16,16.44-16.27,16.6-24.11A18,18,0,0,0,528,605.48l-7.07-5.78,8.44,3.48c.11,0,11.27,4.79,10.39,16.63-1.18,15.71-20.26,25-21.07,25.35ZM285.61,681.36l1.27-3.93c.7-2.17,3.55-11,4.5-13.89l-12.06-8.74L276,652.35h19c1-3,3.87-12,4.57-14.14l1.27-4,1.31,4c.72,2.18,3.64,11.2,4.59,14.15h18.79l-3.39,2.45-11.82,8.6c.95,2.94,3.84,11.89,4.53,14l1.26,3.91L312.77,679c-1.84-1.31-9.47-6.84-12-8.65-2.48,1.81-10,7.3-11.83,8.63Zm342.58,0,1.27-4c.7-2.17,3.55-11,4.5-13.89l-12.08-8.74-3.37-2.45h19.06c1-3,3.87-12,4.59-14.15l1.3-4,1.28,4c.7,2.18,3.62,11.19,4.57,14.14h18.74l-3.34,2.45-11.81,8.6c.94,2.94,3.83,11.9,4.51,14.05l1.26,3.91-3.34-2.4-12-8.65-11.82,8.63ZM478.76,449.73a17.55,17.55,0,0,1,10.78,3.61,7.17,7.17,0,0,0-1.73-3c-1.82-1.89-4.88-2.92-8.61-2.92a21.8,21.8,0,0,0-5.1.61c-4.11,1-5.89,2.5-6.25,3.79a39.17,39.17,0,0,1,10.91-2m72.48,4.45a4.09,4.09,0,0,0,.9,1.68c2.57,2.8,8.07,3.11,10.32,3.11.69,0,1.11,0,1.13,0l1.2-.08L563,457.52s-4.68-3.51-9.88-3.51a11,11,0,0,0-1.92.17M450,445.32a13,13,0,0,0-1.34,8.19c1.17,5.3,4.31,8,9.31,8,3.24,0,7.14-1.11,11.6-3.3a28.68,28.68,0,0,1,12.63-3.28,19,19,0,0,1,6.25,1,14.81,14.81,0,0,0-9.68-3.48c-3.6,0-7.31,1.1-10.91,2.16-1.87.54-3.81,1.12-5.72,1.53a9.78,9.78,0,0,1-2.12.24c-6.44,0-9-6.66-10-11.05M430.59,496v5.11a26.14,26.14,0,0,1,2.36-3.92c-.82-.37-1.62-.77-2.36-1.19m0,16.18V520a30.76,30.76,0,0,1,5.31-10.26,36.73,36.73,0,0,0-5.31,2.45m-79.35-43.61v57.64a72.56,72.56,0,0,1,16.51-2h.89v0c2.41-2.34,6.15-2.93,9.89-1.51a11.59,11.59,0,0,1,2.76-.42v-50.8c-.12-.22-.21-.38-.28-.48a11.6,11.6,0,0,1-3.47-2.72c-.52.3-1.05.55-1.57.79a40.27,40.27,0,0,0-2.73,4.63l-.29.43a2.8,2.8,0,0,1-2.25,1.1,3,3,0,0,1-2.77-2,33.41,33.41,0,0,0-1.68-4.23,10.59,10.59,0,0,1-4.2-4.06l-1,.29c-3.31,1-6.6,2.12-9.81,3.37m48,54.73a48.49,48.49,0,0,1,16.27,3V467l-.58-.18-2.63-.79L412,466a9.75,9.75,0,0,1-4.48,3.63,29.25,29.25,0,0,0-2.17,4l-.16.32a2.76,2.76,0,0,1-.59.91,2.92,2.92,0,0,1-2.52.8,3,3,0,0,1-2.29-1.94,28.75,28.75,0,0,0-2.32-4.3h0l-.3-.12c-.52-.25-1.09-.5-1.65-.81a14.13,14.13,0,0,1-4.16,2.77l-.23.09c-.26.22-1.15,1.17-2.69,4.32a3.61,3.61,0,0,1-1.83,1.64v28a3.13,3.13,0,0,1,1.82-2.29,13.77,13.77,0,0,1-.81-4.59c0-7.93,5.94-14.4,13.25-14.4s13.25,6.47,13.25,14.4a14.22,14.22,0,0,1-.82,4.62,3.1,3.1,0,0,1-1,6h-3.82a3.09,3.09,0,0,1-2.73-1.62,3,3,0,0,1,.16-3.21,10.76,10.76,0,0,0,2.05-5.82c0-4.52-3.16-8.19-7.05-8.19s-7.05,3.67-7.05,8.19a10.93,10.93,0,0,0,2,5.79,3.05,3.05,0,0,1-2.6,4.74h-3.56a3.11,3.11,0,0,1-3.06-2.57v17l.08,0a10.76,10.76,0,0,1,2.27,1.48,31.35,31.35,0,0,1,10.31-1.58m130.32.05c.13,2.87,2,5,5.54,6.36,2,.78,3.26,1.21,4.42,1.54a30.19,30.19,0,0,1,2.05-8,25.64,25.64,0,0,1-6.65,1,17.06,17.06,0,0,1-5.36-.81M342,534.76h23.17a20.45,20.45,0,0,1,.47-4.72,61.27,61.27,0,0,0-16.34,2.76,2.94,2.94,0,0,1-2.66-.39,2.88,2.88,0,0,1-1.21-2.36V472.64c-1.67,1.28-2.74,2.11-3.43,2.65Zm177.56,5.77a4.7,4.7,0,0,0-.19,1.31c.4,6.51,6.59,10.11,6.66,10.15l1.47.83c-.28-.81-.56-1.65-.85-2.54A68.79,68.79,0,0,1,524,539.73a7.52,7.52,0,0,1-.76-.3,13.39,13.39,0,0,1-2.19-1.27,26.43,26.43,0,0,1-1.46,2.23l-.1.14M464.3,525.82l.19,4.58c0,.4.34,9.86-6.23,13-4.72,2.21-12.08,8.55-10.9,18.24,1.73-3.85,5.28-7.55,12.09-7.06.38,0,.77,0,1.16,0h0c9.72,0,18.83-8.81,20.73-20.05l1-6.18,1.6,6.06c.08.29,1.86,7.19-.27,11.87a8.08,8.08,0,0,0,.74,6.87,12.1,12.1,0,0,0,7.92,5.58c-1.14-3.41-2.45-9.6,1.78-12.35,5.69-3.7,9.48-7.45,9.46-13.73,0-.45,0-.72,0-.72l2.71-.07c0,.25,0,.49,0,.74a28.58,28.58,0,0,0,1.08,7.34c1.22,3.33,4.39,6.32,7.57,8a11.82,11.82,0,0,1-1.06-9.54,5.6,5.6,0,0,1,.84-1.43,14.35,14.35,0,0,0,3.19-8.5V519.2l2.64,8.87c.08.27,2.13,6.71,8.78,6.71a12.9,12.9,0,0,0,2.18-.2A14.3,14.3,0,0,1,523.94,520a25.47,25.47,0,0,0-.14-6.72l2.63-.64a8,8,0,0,0,7.07,5.43A12.46,12.46,0,0,1,530.79,506,43.2,43.2,0,0,1,532.3,502a15.82,15.82,0,0,0,1.41-9.25l-.31-3.27,2.53,2.1a17.15,17.15,0,0,1,5,7.91,23.26,23.26,0,0,0,.29-14.61c-.31-.92-.7-2.69.31-3.83l.78-.87,1,.64a7.31,7.31,0,0,0,4.45,1.26A25.22,25.22,0,0,1,540.23,466l-.18-2.15,2,.78c5,1.9,9.41,1.58,13.12-1a13.54,13.54,0,0,1-7.43-3.74c-2.14-2.27-3.1-5.35-2.86-9.14l.06-.86.81-.31a22.7,22.7,0,0,1,7.52-1.38,15.5,15.5,0,0,1,2.88.26,30,30,0,0,0-10.78-9.64l-1.82-.94,1.57-1.3a23.41,23.41,0,0,0,5.86-7.16c-6.37,2.77-11.27,3.66-14.55,2.65l-1.92-.59,1.25-1.55c2.53-3.16,5.36-7.79,5.74-13.11A25.81,25.81,0,0,1,535,421.6c-5.21,2.52-7.06,3-10.83,3.51a15,15,0,0,1,2.36,8.84c-.23,7.3-7,11.79-11.72,11.79a5.73,5.73,0,0,1-2.58-.56l-4.52-2.3,5.07-.27c4.24-.21,7.63-4.26,7.54-9s-3.68-8.82-8-8.82h-.14a8.13,8.13,0,0,0-7.36,6.06l-.35,1.17-1.2-.23A87.12,87.12,0,0,0,488.66,430c-3.49,0-4.76.56-5.21.89l-.42.31-.51-.05c-.06,0-4.94-.45-10-.45-8.73,0-9.94,1.32-10,1.47a2.52,2.52,0,0,0-.28,2.27,18.19,18.19,0,0,1,3.92,0l5.65.79-5.4,1.84c-3.07,1.05-4.43,3.14-4.19,6.37.2,2.63,1.92,5.08,3.37,6.72.84-1.66,2.93-3.6,7.88-4.78a24.52,24.52,0,0,1,5.73-.69c4.47,0,8.22,1.34,10.56,3.76a10.85,10.85,0,0,1,2.85,8.27l-.05,1.46a38.14,38.14,0,0,0-.47-8.39l-1.32-6.84,3.79,5.84c7.37,11.38-1.49,17.7-1.58,17.76l-4.3,3L491,464.8a16.16,16.16,0,0,0,1.41-5.07l-.21-.21c-1.8,6.43-8.73,8.73-14.24,8.73l-.88,0c-.41,0-.83,0-1.24-.09l-1-.12-.68-.1a16.16,16.16,0,0,1-5.23-1.93,11,11,0,0,1-2.34-2h-.05l-.33-.43c-.11-.14-.21-.28-.32-.44a6.72,6.72,0,0,0-2.41,3.08c-1,2.53-.77,5.91.68,9.92,1.26-2.9,3.65-5.79,7.61-5.79a9.21,9.21,0,0,1,2.17.27c3,.72,5.84,1.64,8.57,2.52a66.28,66.28,0,0,0,8.31,2.34l.3.05c.48.08.94.16,1.4.2l.62,0h.14l.45,0,.39,0h.44a17.16,17.16,0,0,0,11-4.22l7.2-6.18-5.17,7.94a19.07,19.07,0,0,1-15.94,8.29,25.37,25.37,0,0,1-7.88-1.34c-.6,3.42-2.66,7.87-7.7,7.87a13.31,13.31,0,0,1-5.81-1.59L469,486c-1.25-.62-2.53-1.26-3.82-1.88l-.09.7-.48-1c-4.61-2.17-9.46-4.05-14-4.05-4.76,0-8.62,2.16-11.75,6.57a22.68,22.68,0,0,1,4.35-.46c3.57,0,6.32,1.05,8.16,3.1a11.41,11.41,0,0,1,1.45,2.17,1.28,1.28,0,0,1,.11.2l.43.12-.35,0c.26.45.57,1,1,1.66l.92,1.44-1.6.57a8.05,8.05,0,0,1-2.56.08c-.83,0-1.82-.07-2.82-.07a13.79,13.79,0,0,0-3.78.37,12.38,12.38,0,0,0-4.64,2.85l-.37.92-.42-.11a21.27,21.27,0,0,0-3.08,4.41,18.26,18.26,0,0,1,5.71-1,13.66,13.66,0,0,1,4.22.66,34.24,34.24,0,0,0,3.79,1l4.54.91-4.32,1.68a23.1,23.1,0,0,0-14.26,16.16c6.68-4.9,13.14-6.5,18.76-4.7l3.07,1-2.85,1.5a16.79,16.79,0,0,1-3.42,1.41c-7.92,2.2-16.69,11.2-17.69,19.56,2.52-2.55,6.88-5.87,12.41-5.7,7.3.23,13.95-2.37,16.3-6.35Zm-31.62,39.25h1.11c.2,0,4.71.14,8,5.94,1.89,3.34,4.58,5,8,5l.68,0a28.52,28.52,0,0,1-2.54-2.84c-2.05-.91-7-4.15-6.64-13.8a24.43,24.43,0,0,1,8.65-17.48,37.6,37.6,0,0,1-4.42.16h-.14c-7.48,0-13,10.8-13.11,10.91l-1.07,2.11-1.28-2A18.11,18.11,0,0,1,428.1,549l-.22.93v-1.73a17,17,0,0,1-.47-2.34,83.65,83.65,0,0,1-21.09,1.05,48.41,48.41,0,0,1-9.9-1.6c-4.38-1.38-7.38-3.14-8.91-5.22l-.34-.55c-.13-.23-.2-.37-.2-.37a3.53,3.53,0,0,1-.27-.65s0,.08-.06-.26l0-.16a3.87,3.87,0,0,1-.12-1V537c0-.11,0-.23,0-.35l.09-.4a1.82,1.82,0,0,1,.12-.46l.06-.15a5.27,5.27,0,0,0-.3-4.62,5.36,5.36,0,0,0-1.66-1.85l-.29-.19a2.5,2.5,0,0,0-.45-.24,5.82,5.82,0,0,0-1.65-.54,6.13,6.13,0,0,0-2.35.15,5.61,5.61,0,0,0-1.05.42l-.67.37-.67-.39c-1.85-1.1-3.91-1.3-4.85-.36a3.86,3.86,0,0,0-.57.73h.29a7.33,7.33,0,0,1,3.37.74l1.06.57-.45,1.12a5.32,5.32,0,0,0,.07,4.09,5.05,5.05,0,0,0,.39.77l.06.08c.19.25.39.51.61.75a6.29,6.29,0,0,0,.52.49,3.75,3.75,0,0,0,.57.42l.22.16a3.79,3.79,0,0,0,.34.2c.78.38.82.38,1.19.38h.41a3.73,3.73,0,0,1,3.57,2.71,4,4,0,0,1-3.76,5.06,4.41,4.41,0,0,1-2.15-.69,2.91,2.91,0,0,1-1.22-1.6c-.29-.72-.6-1.52-2.52-2.44a6.17,6.17,0,0,0-2.63-.6,5.27,5.27,0,0,0-4.83,2.88l-.5.87-1.09,0c-1.91,0-3.46.58-3.85,1.47a6.33,6.33,0,0,0-.39.94,7.23,7.23,0,0,1,4.66-.49l.73.19.22.72a5.93,5.93,0,0,0,3.08,3.52c2.83,1.36,5.29.71,7.29-2a4,4,0,0,1,7.1,1.76,4,4,0,0,1-1,3.06,3.68,3.68,0,0,1-3.69,1.2,4.91,4.91,0,0,0-1.18-.13,6.07,6.07,0,0,0-5.26,3,4.16,4.16,0,0,0-.45,2.06l0,.84-.75.4a4.22,4.22,0,0,0-2.29,2.69,3.87,3.87,0,0,0,0,1.48,5.52,5.52,0,0,1,3.26-2.33l.77-.18.54.57a6.08,6.08,0,0,0,1.73,1.28,5.58,5.58,0,0,0,2.42.54,5.36,5.36,0,0,0,4.87-2.88,6.7,6.7,0,0,0,.47-4.06c-.09-1.54,1.26-3.1,3.1-3.65,3.28-1,9.74-.44,15.37,1.48L408,558c2.75.83,7.15,2.08,12.56,3.25,3.43.82,4,1.8,5.88,5,.5.84,1.09,1.87,1.88,3.14a7.28,7.28,0,0,0,6.13,3.72,8.7,8.7,0,0,1-1.95-7Zm97.56-24.42a63.24,63.24,0,0,0,2,7.77c5.65,17.1,9.34,20.27,14.44,24.67a77.18,77.18,0,0,1,6.06,5.66c8.66,8,11.27,18.78,11.86,21.92.13.65.32,1,1,1,3.58-.28,6.35-1.15,7.81-2.43.45-.38,1.62-1.4,1.62-4.75,0-8.74-6.47-14.42-16.35-22.11-9.27-7.2-18.74-17-19.4-35.25a17.71,17.71,0,0,1-9.09,3.5m-30.67,75.64c-1.61,0-2.83.3-3.25.8-.15.19-.43.55-.42.77.06,2.22,3.52,3.62,3.56,3.63l1.34.52a1.67,1.67,0,0,1,.23-.23,58.25,58.25,0,0,0,4.06-4.7,23.42,23.42,0,0,0-5.52-.79m-21.24,26.07c.22.25.9,1,3.14,3.6a32.76,32.76,0,0,1,4.06,5.13l.2-.51a14.66,14.66,0,0,1,5.55-6.19c0-.41-.06-.85-.06-1.31,0-5.15,2-10.84,5.53-16a9.92,9.92,0,0,1-2.74,1.38,13.52,13.52,0,0,1-4.16.7c-.76.7-2.22,2-2.22,2a12.83,12.83,0,0,1-8.59,3,15,15,0,0,1-3.1-.32c0,.25,0,.49,0,.71a13.58,13.58,0,0,0,2.41,7.82M413.19,692.5a3.82,3.82,0,0,1,2.93,1.39,4,4,0,0,1,.6,3.63,3.48,3.48,0,0,1-2.35,2.39,5.94,5.94,0,0,0-3.88,5.66,4.21,4.21,0,0,0,.69,1.94l.47.7-.44.73a4.11,4.11,0,0,0-.51,3.4,3.58,3.58,0,0,0,.7,1.18,5.49,5.49,0,0,1,1.52-3.57l.55-.57.77.22a6.42,6.42,0,0,0,2.11.18,5.43,5.43,0,0,0,4.84-5.68,6.62,6.62,0,0,0-1.7-3.63c-.88-1.22-.55-3.25.68-4.67,2.83-3.24,11.05-7,19.39-7.55a30.59,30.59,0,0,1,7.34.77,36.65,36.65,0,0,0,6.61.82,14.19,14.19,0,0,0,4.94-.83,5.52,5.52,0,0,1-3.17-2,2.32,2.32,0,0,1-.33-2l.15-.41.35-.25a6.88,6.88,0,0,1,4.26-1.24,25.12,25.12,0,0,1,3,.26,23.14,23.14,0,0,0,2.77.23,5.05,5.05,0,0,0,3-.81c-1.72-.4-2.79-1-3.3-2a2.19,2.19,0,0,1-.1-2.07,2.8,2.8,0,0,1,2.64-1.22c.42,0,.93,0,1.49.07,2.44.17,6.12.6,9.18-2.81-1.76.11-3,.17-4,.17-1.82,0-3.38-.11-3.88-1.37l-.19-.51.19-.49c1.34-3.34,4.5-3.39,7.3-3.43,3.27,0,6.65-.1,9.14-4.26-1.84.08-3.21.23-4.29.34-2.28.25-3.53.27-4.72-.37l-1.64-.9,1.36-1.28c5.92-5.59,3.73-8-.64-12.74-1.09-1.19-2.33-2.54-3.49-4-2.19-3.22-4.83-8.38-3.05-16.77l.06-.2a15.15,15.15,0,0,1,.82-1.87l.67-1.21,1.19.68a11.72,11.72,0,0,0,5.72,1.67,8.12,8.12,0,0,0,3.3-.67,6.91,6.91,0,0,1-2.33-4.34,3.84,3.84,0,0,1,1-2.89l.87-.86.94.76c2.48,2,4.84,3,7,3a6.32,6.32,0,0,0,2.4-.46,7.71,7.71,0,0,1-2.15-4.14,6.7,6.7,0,0,1,1.79-5.38c1.61-1.92,4.24-2.89,7.79-2.89a31.92,31.92,0,0,1,8.64,1.43c1-1.76,3-6.07.88-9.76-2.59-4.44-8.37-6.75-12.21-8.27-.64-.25-1.23-.48-1.74-.71-3.56-1.5-9.81-4.33-11.73-5.2-2.61,1.23-13.24,6.07-22.6,7.43-2.91.43-12.87,2.47-18.24,10.6l-.46.71-.85-.11a26.92,26.92,0,0,0-3.48-.24c-2.76,0-6.29.53-7.45,3.07-1.06,2.34-.21,4.55.78,7.12.9,2.36,2,5.13,1.47,8.36a6.48,6.48,0,0,0,1.64-5.91c-.5-2.64-.25-4.52.77-5.75a3.86,3.86,0,0,1,3.14-1.36l1.78.06-.27,1.53c-.85,4.76-.2,10.28,1.94,16.39a53.41,53.41,0,0,0,10.05,17.45c3.9,4.81,6.71,8.29,2.35,15.41-.3.44-6.41,9.2-19.15,16.77v0l-.7.44a46.86,46.86,0,0,1-11,4.62,20.14,20.14,0,0,1-4.87.67c-5.12,0-7.93-2.7-8.36-5.2a5.31,5.31,0,0,0-5.8-4.39,5.53,5.53,0,0,0-4.17,2.64l-.38.66h-.76c-1.84,0-3.84.71-4.18,2.17a4.65,4.65,0,0,0-.13.88,7.37,7.37,0,0,1,3.4-1.28l1.21-.06.21,1.18a5.36,5.36,0,0,0,5.88,4.35,2.3,2.3,0,0,0,1.52-.51,3.55,3.55,0,0,1,1.92-.56,3.74,3.74,0,0,1,2.48,1,3.81,3.81,0,0,1,.52,5.2,3.73,3.73,0,0,1-3.2,1.53h0a3,3,0,0,1-1.88-.71,4.1,4.1,0,0,0-3.34-.74,5.37,5.37,0,0,0-5,5.68V698l-.68.39c-1.72,1-2.81,2.35-2.69,3.33a6.46,6.46,0,0,0,.16.91,6.86,6.86,0,0,1,3.59-2.77l.72-.22.56.48a5.79,5.79,0,0,0,4.39,1.35c3.11-.32,4.75-2.09,5-5.42a3.93,3.93,0,0,1,3.94-3.59M511.5,718a4,4,0,0,1,1.65.37l.23.13a3.6,3.6,0,0,1,1.59,2.61,3.39,3.39,0,0,1-1,2.69l-.29.23a4.86,4.86,0,0,0-2.58,3.74,5.18,5.18,0,0,0,3.53,5.61l.49.16.26.44a7.85,7.85,0,0,1,.36,5.62,3.71,3.71,0,0,0,2.09-1.21c.62-.81.73-2,.31-3.64l-.28-1.09,1-.48a4.63,4.63,0,0,0,2.59-4,5,5,0,0,0-2.13-5c-1.46-.87-1.51-3.55-1-5.67s3.07-8.54,13.44-8.76H532a24.84,24.84,0,0,1,3.5.4,36.74,36.74,0,0,0,5.7.58c3.81,0,6.73-1.14,9-3.57a12.36,12.36,0,0,1-1.84.13,10.79,10.79,0,0,1-3.16-.43l-1.07-.36.15-1.11c.54-4,4.67-4.66,8.32-5.24,2.35-.38,4.16-.73,5.28-1.45a20.14,20.14,0,0,1-2.38.15c-3,0-4.78-.73-5.5-1.41l-.51-.47.09-.69c.32-2.37,3-2.64,5.87-2.91,4-.39,7.37-1,8.92-3.7a8.27,8.27,0,0,1-1.89.23,6,6,0,0,1-3.08-.77l-.73-.46.12-.87c.52-3.86,3.77-4.67,6.64-5.38s5.64-1.4,6.87-4.74a23.32,23.32,0,0,1-6.39,1.11c-2.69,0-3.37-1-3.47-1.92l0-.13,0-.14c.19-2.16.48-4,.75-5.61.49-2.93.8-4.85,0-5.9s-3.25-1.78-7.61-2.21a37.27,37.27,0,0,1-6.61-1.25l-1.38-.4,0-.09c-2-.7-5.6-2.34-7.16-5.46a8.1,8.1,0,0,1,.15-7.16,16.91,16.91,0,0,1,4-5.4l.65-.63.83.36a20.75,20.75,0,0,0,8.13,1.93,10.82,10.82,0,0,0,8.75-4.12l-.93,0c-4.84,0-7.84-1.38-9.5-2.53l-2.62-1.82,3.13-.62a10.1,10.1,0,0,1,1.45-.19c4.2-.13,11-1,13.6-5.56a19.61,19.61,0,0,1-4.78.64,12,12,0,0,1-5.44-1.18l-1-.53.36-1.11a34.29,34.29,0,0,0,1.54-11.25l0-1.48,1.46.11c1,.07,2.09.11,3.16.11,5.56,0,13.35-1,18.93-5.83,4.11-3.56,6.29-8.73,6.29-15a28,28,0,0,0-3.77-14.2l-.44-.77.52-.7c1.26-1.74,4.93-7.8-.61-13.1a18.36,18.36,0,0,0-4.64-3.14c-2.55-1.34-4.82-2.55-6.14-6.56a6.15,6.15,0,0,0,2,6.44c4.54,3.83,4.06,6.44,3.37,7.65l-.85,1.51-1.27-1.19a125.1,125.1,0,0,0-10.07-8.38c-10.67-8.33-14.46-15.39-14.46-27,0-5.28,2.18-10.38,6.5-15.18l.88-1,1,.87A17.48,17.48,0,0,0,572.19,524c5.55,0,10.82-2.51,13.41-6.39a46.22,46.22,0,0,0,4.18-8.64c1.54-3.81,3.12-7.73,5.89-10.54a17.28,17.28,0,0,0-11.09,8.67l-.07.12a15.64,15.64,0,0,1-5.38,4.76l-11.67,5.92,10.21-8.18c7.46-6,7.58-17.5,7-23.83-.49-5.21,2.58-10,5.2-13.15-9.24,3.16-12.08,10.62-14.3,18.68-1,3.58-5.93,6.41-10,7l-3,.42,1.72-2.53a16.82,16.82,0,0,1,3.43-3.59l.22-.18.53-.45c1.54-1.31,3.26-2.75,3.61-7.27a29.72,29.72,0,0,1-9.65,6.27,16.61,16.61,0,0,0-9.28,9.68,15.08,15.08,0,0,0,1.24,12.33l.47.86-.68.71c-6.11,6.48-9,13-9,20.42,0,16,6.86,24.62,17.15,32.62,8.74,6.81,18.64,14.53,18.64,26.8,0,4.06-1.19,7.08-3.66,9.24-3.2,2.78-8.06,3.65-11.58,3.9a7,7,0,0,1-7-5.87c-.5-2.67-2.72-11.93-10.11-18.72a71.86,71.86,0,0,0-5.85-5.47c-5.21-4.49-9.4-8.1-14.9-23.51l-2.35.42c-.18,0-14,2.49-21.55-8.42a37.08,37.08,0,0,1-6.6,5.28,2.22,2.22,0,0,0-.22,1.26,17.51,17.51,0,0,0,1.51,6l3.48,7.49-8.2-1c-9-1.12-13.08-6.13-14.7-9a14.35,14.35,0,0,1-1.24-3c-5.36,5.21-12.17,7.94-19,7.46a6.33,6.33,0,0,0-4.63,1.25,6.8,6.8,0,0,0-1.67,2.26,52.29,52.29,0,0,0,7.95-1.32l.94-.24.54.83c3.9,6.16,12.23,14.91,29.69,21.63,26.25,10.09,26.07,18.61,23.84,25.8l-.11.35c-.12.31-2.39,6.71-10.27,14.88-5,5.16-9.6,13.28-7.73,20.6l.28,1.07-1,.48c-2.88,1.38-4.89,3.11-5.66,4.87a2,2,0,0,0-.1.22.76.76,0,0,0-.07.19,5.32,5.32,0,0,0,1.53,5.61,9.84,9.84,0,0,0,1.89,1.52,12.15,12.15,0,0,0,2.34,1.16,17,17,0,0,0,2.54.89,15.16,15.16,0,0,1,4.11,1.75,8,8,0,0,1,1.13,1,6,6,0,0,0-3.35-4.26c-2.22-1.18-3.3-2.45-3.32-3.91,0-.9.41-2.21,2.47-3.37l.87-.49.73.7a27.73,27.73,0,0,0,8.36,5.15,54.52,54.52,0,0,0,7.75,2.84l.21.07c1.16.35,2.25.68,3.32,1,8,2.5,17,5.33,15.89,13.7-1.65,12.27-16.77,35.54-26.8,34.2-3.4-.45-5.23-1.21-6.09-2.53-1.42-2.41-2.67-4.24-4.84-4.54A5.28,5.28,0,0,0,495.7,705l-.56.46-.69-.21c-2.42-.71-4.15-.55-5.08.5a3.92,3.92,0,0,0-.78,1.63,6.18,6.18,0,0,1,4.3-.31l1,.33-.09,1.09a5.23,5.23,0,0,0,4.55,5.59,5.42,5.42,0,0,0,4.7-1.68l.12-.12a4.48,4.48,0,0,1,2.66-1.06,3.13,3.13,0,0,1,2.66,1.53,3.48,3.48,0,0,1,0,3.45,3.4,3.4,0,0,1-3.47,1.67c-4.15-.33-6.9,1.31-7.28,4.23a5,5,0,0,0,0,1.63l.17.92-.78.49c-1.47.92-2.24,1.91-2.31,2.95a3.71,3.71,0,0,0,.56,2,6,6,0,0,1,3.16-3.19l.7-.31.63.44a5.5,5.5,0,0,0,2.38.93,3.77,3.77,0,0,0,.67,0,5.41,5.41,0,0,0,5.29-4.51,5.66,5.66,0,0,0,0-1,4.13,4.13,0,0,1,.5-2.83A3,3,0,0,1,511.5,718M335.28,403.29V622.62c.05,75.29,61.39,136.56,136.74,136.56s136.65-61.29,136.7-136.64v-126l-1.72.81c-7.55,3.57-9.39,8.13-11.71,13.89a50.44,50.44,0,0,1-4.76,9.72c-3.11,4.64-8.72,7.93-15,8.78A24,24,0,0,1,560.81,527a14.93,14.93,0,0,0-2.62,8.06c0,8.6,2.43,13.9,9.43,20a16.74,16.74,0,0,1,2.59-6.11l6.86-9.69,1.43,11.8c.54,4.48,1.32,4.89,3.89,6.25a25,25,0,0,1,6,4.11,14.66,14.66,0,0,1,4.8,10.71,16.83,16.83,0,0,1-2,7.7,33.49,33.49,0,0,1,3.31,14.65c0,8-2.88,14.72-8.34,19.44-6.6,5.72-15.24,7.14-21.65,7.27-.1,1.16-.25,2.29-.44,3.39a15.36,15.36,0,0,0,4.49-1l8-3.42-1.73,8.57A13.82,13.82,0,0,1,569.6,637a4.18,4.18,0,0,1,.51,2,8.18,8.18,0,0,1-1.82,4.47,16.64,16.64,0,0,1-14,7.24,24.37,24.37,0,0,1-7.36-1.24A7.6,7.6,0,0,0,546,651a3.8,3.8,0,0,0-.4,1.49,1.28,1.28,0,0,0,.15.62c.65,1.32,3.37,2.46,4.61,2.73l.46.1.12.15a28.39,28.39,0,0,0,5.17,1c5.4.53,9.45,1.5,11.76,4.51a8.52,8.52,0,0,1,1.71,5.5,30,30,0,0,1-.52,4.75l0,.21s0,.31-.1.76c3.8-.4,8.4-3.15,8.45-3.18l2.16-1.31-.1,2.53c0,.53-.62,12.57-8.25,16l-.13,1.05a11.64,11.64,0,0,1-5.94,9.1c0,.31-.08.58-.08.58-.47,3.51-2.62,6-6.4,7.31-.47.91-1,2-1,2-3.47,6.54-9,9.86-16.38,9.86a42.3,42.3,0,0,1-6.65-.66l-.55-.09a20.23,20.23,0,0,0-2-.23c-3.35.06-5.77,1-7.06,2.66a5,5,0,0,0-.9,2.06,10.8,10.8,0,0,1,3.41,8,13,13,0,0,1-.08,1.5,10.82,10.82,0,0,1-3,6.57v0c0,2.61-.78,4.77-2.15,5.94a13.47,13.47,0,0,1-9,3.11,17.92,17.92,0,0,1-5.09-.72l-2-.67,1.46-1.55s2.28-2.45,2.58-5a11.29,11.29,0,0,1-3.85-4.26,11.06,11.06,0,0,1-4.77.44,7.06,7.06,0,0,1-1.55-.45,36,36,0,0,0-1.39,4.92l-.4,1.88-1.64-1c-.29-.18-7.17-4.47-7.56-10.59v-.34a8.85,8.85,0,0,1,2.87-6.31c0-.21,0-.42.07-.63a10.19,10.19,0,0,1,.95-3.14,11,11,0,0,1-3.8-4.3,18.52,18.52,0,0,0-3.1,2.61l-1.5,1.6-.75-2.06c-.14-.38-3.32-9.23,1.94-14.93,1.8-1.93,4.57-2.61,8.28-2a11.39,11.39,0,0,1,6.64-1.14c4.84.65,7.31,4.35,8.68,6.63a13.14,13.14,0,0,0,2.24.45h0c.4,0,1.54-.15,3.72-1.82,7-5.35,15.28-19.12,16.37-27.27a4.12,4.12,0,0,0,0-.48c0-2.33-2.83-4-11.69-6.74l-3.55-1c-2-.59-3.92-1.26-5.75-2a10.42,10.42,0,0,1,0,1.11,17.81,17.81,0,0,1-3.84,10v5.7l-1-4.55-1.67,1.79-.42-2.79c-.23-1.6-1.35-6.11-3.69-7.74a10.39,10.39,0,0,0-2.13-.91,19.22,19.22,0,0,1-3.34-1.12c-.55-.22-1.11-.47-1.67-.76a14.5,14.5,0,0,1-6.63,7.1l-1.14,2a14.88,14.88,0,0,1-9.39,7.57l-.68,1.1a10.84,10.84,0,0,1-4.79,4.39l-5.24,3.59a19.65,19.65,0,0,1-11.55,3.58,40.91,40.91,0,0,1-7.68-.92,26.65,26.65,0,0,0-5.92-.67c-5.85.34-11.76,2.78-14.31,4.71a11.56,11.56,0,0,1,1.5,4.6v.22a8.27,8.27,0,0,1,.05.86,10.93,10.93,0,0,1-2.51,6.9,11.56,11.56,0,0,1-7.14,4.12,10.24,10.24,0,0,0,1.7,3.24l1.36,1.74-2.16.43a11.47,11.47,0,0,1-2.16.18,11.78,11.78,0,0,1-11.1-6.73,7.15,7.15,0,0,1-.57-3.2,9.2,9.2,0,0,1,.5-2.89c-.11-.31-.2-.63-.28-.94a11.57,11.57,0,0,1-5.44-.77,17.22,17.22,0,0,0-1,4.4l0,.17-.28,1.44-1.42-.4c-.26-.07-6.5-1.91-7.73-9.7a5.06,5.06,0,0,1-.06-.94,9.06,9.06,0,0,1,3.49-6.76,10.66,10.66,0,0,1,.71-2.48l-.8-.75a14.55,14.55,0,0,1-3.76-9.33,9.24,9.24,0,0,1,.3-2.62c.73-3.25,3.52-5.64,7.49-6.41a11.28,11.28,0,0,1,19.39,5.33,4.15,4.15,0,0,0,2.55.6,14.28,14.28,0,0,0,3.42-.48,40,40,0,0,0,9.53-4.08c11.39-6.6,17.21-14.4,17.84-15.27a6.91,6.91,0,0,0,1.26-3.18c0-1.21-1.13-2.63-3.21-5.2A59,59,0,0,1,436,631.71c-.2-.57-.38-1.13-.55-1.68a17.8,17.8,0,0,1-9.91,3.46H423l1.32-2.11c.06-.08,4.84-7.34,1.41-12.56a12.41,12.41,0,0,1-.78-12c1.36-3,4.7-6.49,12.95-6.49.49,0,1,0,1.5,0,7-8.39,17.47-10.54,20.58-11,5.94-.87,12.71-3.4,16.89-5.14A59.53,59.53,0,0,1,459,569c-2,.38-4,.66-6.11.86a33.24,33.24,0,0,0,3.46,3.54l5.59,5-7,2.7a14.69,14.69,0,0,1-5,.87,14.43,14.43,0,0,1-9.93-3.84l-.93.32a13.61,13.61,0,0,1-15.78-5.88l-2-3.3c-1.18-2-1.18-2-2-2.22-5.86-1.28-10.65-2.63-13-3.33l-5.55-1.65a30.18,30.18,0,0,0-9.28-1.71,11.71,11.71,0,0,0-1.3.06,11.72,11.72,0,0,1-1.17,4.82,10.94,10.94,0,0,1-6.34,5.58,12,12,0,0,1-8.09-.14,20.74,20.74,0,0,0,.44,3.66l.35,2.14-1.95-.43A12,12,0,0,1,364,565a7.42,7.42,0,0,1,.23-2.11,9.48,9.48,0,0,1,3.18-5.21c.08-.35.17-.67.27-1l0,0a11.82,11.82,0,0,1-4.24-3.45,9.49,9.49,0,0,0-3.26,3.68L359,559.12,357.78,557a14.91,14.91,0,0,1-2.39-8.17,10.51,10.51,0,0,1,1.14-4.82,7.38,7.38,0,0,1,3.14-3.37l-20.64,0a2.94,2.94,0,0,1-2.92-2.94V473.86a3,3,0,0,1,1.16-2.35c.72-.55,9.2-7.06,9.57-7.36h0a2.62,2.62,0,0,1,.79-.47,125.33,125.33,0,0,1,12.64-4.4l.43-.12a10.47,10.47,0,0,1,10.46-9.83,11.31,11.31,0,0,1,6.58,1.95,11.53,11.53,0,0,1,8.92-4,11.68,11.68,0,0,1,8.29,3.22,12.05,12.05,0,0,1,7.61-2.46A11.35,11.35,0,0,1,414,459.3c0,.42,0,.8,0,1.15l5.8,1.75.62.33,9,6.5a3,3,0,0,1,1.21,2.38V488q.46.4,1,.81c2-5.41,7.18-14.5,19.72-14.5a30.58,30.58,0,0,1,6.26.69,22,22,0,0,1-.72-5.28,14.29,14.29,0,0,1,.19-2.34A15.8,15.8,0,0,1,451,466a14.21,14.21,0,0,1-8.15-11.26c-1.65-11.39,8.39-19.46,8.82-19.79l2.2-1.74V436c0,.1,0,9.27,4,13.3a14.47,14.47,0,0,1-1.56-5.44c0-.33,0-.73,0-1.11a11.46,11.46,0,0,1,1-4.75,9.49,9.49,0,0,1-1.15-4.46,8.12,8.12,0,0,1,1.56-4.83c2.58-3.55,10.43-4.67,24.05-3.54,3.69-1.47,10-1.41,19.18.15a13.47,13.47,0,0,1,11.14-6.47h.2a13.1,13.1,0,0,1,5.22,1.09l3.62-.41c5.32-.62,6-.7,11.33-3.25A30,30,0,0,0,543,405.92l1.29-2.43L545.4,406a27.67,27.67,0,0,1,2.09,9.52,22.44,22.44,0,0,1-2.19,10,77.19,77.19,0,0,0,10.91-4.45l1.95-1v2.18a27.39,27.39,0,0,1-5.1,14.47c10.82,9,12.08,19.14,12.14,19.58l.28,2.51.59,0L564.87,461c-.24.43-6,10.57-17.18,10.69,3,7.19,10.3,11.12,10.38,11.16l2.25,1.19-2.24,1.2c-.22.12-5.37,2.86-10.2,2.87a21.55,21.55,0,0,1,.29,3.71,28.29,28.29,0,0,1-8.8,20.13l-1.87,1.6-.35-2.44c-.24-1.7-.41-2.86-.53-3.69l-.19.51a5.54,5.54,0,0,0-.28,1.8c.14,4.59,5.2,8.37,7.25,9.7a42.29,42.29,0,0,1,4.43-6.43,22.91,22.91,0,0,1-1.71-7.64,19.56,19.56,0,0,1,1.06-6.3c1.92-5.61,6.6-10.47,12.83-13.34,11.49-5.29,11.54-11.21,11.54-11.26l0-3.08,2.29,2a10.18,10.18,0,0,1,2,2.56c5.8-8.11,15.35-9.37,20.7-9.37a25.65,25.65,0,0,1,3.6.22l3,.45-2.34,1.93c-.1.09-10.07,8.43-10.2,15.68,0,.09,0,.2,0,.31l0,.24c.17,1.86.25,3.6.25,5.32,0,1.05,0,2.09-.11,3.13a20.18,20.18,0,0,1,7.75-1.54,13.48,13.48,0,0,1,8.84,2.79l1.41,1.22v-93ZM472,770.17c-81.39,0-147.68-66.19-147.76-147.55V392.28H619.75l0,230.26c-.05,81.4-66.3,147.63-147.69,147.63M418,803l-3.38-2.42L402.64,792c-2.49,1.8-10,7.29-11.86,8.61l-3.4,2.43,1.32-4c.72-2.14,3.56-11,4.49-13.87-2.5-1.82-10.18-7.37-12.05-8.72L377.72,774h4.21l14.9,0,5.86-18.11,1.29,4c.71,2.17,3.61,11.18,4.56,14.13l14.62,0h4.1L424,776.41c-1.82,1.35-9.37,6.83-11.86,8.63.95,2.94,3.85,11.86,4.55,14Zm138.53,0-3.37-2.46L541.18,792c-2.47,1.81-10,7.29-11.83,8.62L526,803l1.29-3.93c.7-2.15,3.54-11,4.48-13.88-2.5-1.82-10.18-7.37-12.06-8.72L516.27,774h4.21l14.89,0c1-3,3.88-12,4.57-14.13l1.29-4L547.12,774l14.58,0h4.1l-3.29,2.45c-1.84,1.36-9.35,6.83-11.84,8.63,1,2.94,3.84,11.86,4.55,14ZM271.79,339.8V622.62a198.76,198.76,0,0,0,18.67,84.44c3.52,7.2,7.36,14.29,11.42,21.05a202.73,202.73,0,0,0,28.62,36A200.22,200.22,0,0,0,672.21,622.62V339.8ZM591.13,796.89c16.15,20.35,32.1,31.45,37,32.75v0c0-5.31-4.86-24.2-19.21-46.37a212.29,212.29,0,0,1-17.74,13.66M332.71,781.18l-.86,1.24c-14.88,20.75-21.14,40.87-21.27,47.32,5.12-1.66,22.12-13.8,37.69-35.53l.29-.41c-5.57-4-10.9-8.25-15.85-12.62M629.31,837c-9.16,0-28.11-15.44-44.36-36.07a211.3,211.3,0,0,1-230.74-3.16l-.3.43c-15.78,22-34.63,37.08-43.06,38.47a6.26,6.26,0,0,1-4.8-.9c-6.86-4.93,3.32-33.86,20.16-57.34l1.35-2c-1.59-1.48-3.25-3-4.85-4.64a209.79,209.79,0,0,1-61.9-149.22V367.28l-21.24-23.21-6.91,3.73-2.54,1.29a9,9,0,0,1-6.89.43,10.94,10.94,0,0,1-6.35-5.2c-2-3.88-1.57-9.54,2-12.45L208,320.44l-5.42,2.9a8.79,8.79,0,0,1-6.77.42,11.4,11.4,0,0,1-6.57-5.33,11,11,0,0,1-.7-8.15,8.83,8.83,0,0,1,1.43-2.76,26.51,26.51,0,0,1-8.76-4c-9.41-6.48-15-18.9-16.7-36.92A3.46,3.46,0,0,1,167,263a3.5,3.5,0,0,1,3,.49,44.46,44.46,0,0,1-.35-5.58c0-9.12,2.68-18.76,7.94-28.65a3.47,3.47,0,0,1,3.66-1.76,3.43,3.43,0,0,1,2.81,2.91c.09.67.19,1.36.32,2.07A44.32,44.32,0,0,1,188.71,222c2.93-5.22,4.43-12.66,4.43-22.12a108.81,108.81,0,0,0-2-20.36,3.47,3.47,0,0,1-.07-.76,3.37,3.37,0,0,1,1.55-2.87,3.51,3.51,0,0,1,3.86,0c.79.56,18.47,13.1,29.2,32.75.8-3.88,1.91-8.23,3.31-13a3.45,3.45,0,0,1,6.6-.06c4.24,13.94,6.78,20.76,11.51,27,8.3,10.85,13.19,19,12.88,27.32a9.94,9.94,0,0,1,2-.48,11.07,11.07,0,0,1,7.88,2.24,11.43,11.43,0,0,1,4,7.42,11,11,0,0,1,.07,1.26,8.42,8.42,0,0,1-1.75,5.32l-3.86,4.79,9.2,12.73a8.92,8.92,0,0,1,5.32-2,10,10,0,0,1,7.58,2.67c5.24,5.16,4.34,10.57,2,13.64l-1.61,2s-2.77,3.43-5.12,6.31l17.2,23H657.27c5.86-8.44,15.09-23.64,14.4-34.75a3.47,3.47,0,0,1,3.46-3.66c.63,0,14.16-.07,23.58-5.93l-22.59-16.19-5.25-3.75a7.1,7.1,0,0,0-5.3-1.23,7,7,0,0,0-4.57,2.87c-2.24,3.09-1.47,7.37,1.76,10a9.52,9.52,0,0,0,5.59,2,4.81,4.81,0,0,0,1.66-.27,3.5,3.5,0,0,1,4.21,1.44,3.42,3.42,0,0,1-.7,4.38,23.34,23.34,0,0,1-34.28-31.21,19.87,19.87,0,0,1,3.09-3.41l-2.58-1.62c-8.74-6.25-17.49-15.94-17.49-23.59a8.51,8.51,0,0,1,1.53-5c1.75-2.39,4.65-3.64,8.41-3.64,6.39,0,15.47,3.65,23.69,9.55l2.44,2a20.39,20.39,0,0,1,2.23-4,23.33,23.33,0,0,1,42.31,13.65,23.64,23.64,0,0,1-1.37,7.82l-.09.27a3.51,3.51,0,0,1-4.26,2.09,3.43,3.43,0,0,1-2.29-4.18,7.08,7.08,0,0,0-2.7-7.61,7.09,7.09,0,0,0-9.87,1.65,6.71,6.71,0,0,0-1.26,3.93,7.77,7.77,0,0,0,3.07,6L712.83,267c4.29-6,21.19-29.58,21.19-29.58a7.07,7.07,0,0,0,1.3-4,4,4,0,0,0-.08-.84c-.34-2.27-2-4.45-4.82-6.51a6.64,6.64,0,0,0-5.37-1.45c-2.28.51-4.52,2.62-6.43,6.09a3.5,3.5,0,0,1-3,1.8,3.46,3.46,0,0,1-3-1.84c-.22-.4-5-9.77,2.55-20.76,4.62-6.74,12.65-8.15,18.58-8.15a35.43,35.43,0,0,1,5.69.45,36.57,36.57,0,0,0,4.65.25,55.72,55.72,0,0,0,29.69-8.5,3.5,3.5,0,0,1,3.87.1,3.4,3.4,0,0,1,1.33,3.65,55.24,55.24,0,0,0,3.22,35.13c.84,1.51,8.09,15.32.53,25.48-6.22,8.33-13.94,9.23-17,9.23a12.21,12.21,0,0,1-1.86-.12,3.46,3.46,0,0,1-2-5.71c2.67-3,3.95-5.76,3.7-8.09a6.69,6.69,0,0,0-3.1-4.62,11.41,11.41,0,0,0-6.44-2.45,7.12,7.12,0,0,0-5.54,2.77l-21.11,29.45,28.81,20.67a8.27,8.27,0,0,0,4.33,1.27,6.88,6.88,0,0,0,5.65-2.84,7,7,0,0,0,1.22-5.28,7.07,7.07,0,0,0-2.85-4.61,7.24,7.24,0,0,0-8.06-.11,3.57,3.57,0,0,1-4.7-.78,3.46,3.46,0,0,1,.58-4.73,2.48,2.48,0,0,1,.26-.19,23.34,23.34,0,0,1,37.55,14.48,24.39,24.39,0,0,1,.31,3.85,23.21,23.21,0,0,1-4.38,13.57,21.64,21.64,0,0,1-3.07,3.38l2.57,1.61c8.74,6.27,17.48,16,17.48,23.6a8.25,8.25,0,0,1-1.53,4.94,9,9,0,0,1-6,3.49c-6.53,1.08-16.65-2.61-26.06-9.36l-2.42-2a20.46,20.46,0,0,1-2.23,4,23.33,23.33,0,0,1-40.56-22.43,3.44,3.44,0,0,1,6.62,1.5c-.09,2,1.69,4.81,4,6.24a8.09,8.09,0,0,0,4.41,1.35,6.8,6.8,0,0,0,5.62-2.86,6.89,6.89,0,0,0,1.32-4.09,7.14,7.14,0,0,0-2.94-5.78l-27.79-19.91a30,30,0,0,0-.93,7.26A56.41,56.41,0,0,0,719.34,322a3.64,3.64,0,0,1,.2,1.2,3.46,3.46,0,0,1-2.54,3.33c-13.19,3.57-27.19,23-31.17,28.84l-.2.29-1.14,1.74-1.29,1.79V622.62a209.75,209.75,0,0,1-61.9,149.22c-2.33,2.32-4.57,4.46-6.82,6.52,14.94,23,25.91,52.18,18.41,57.6a6,6,0,0,1-3.58,1M234.48,824.26l1,1.64a76.2,76.2,0,0,0,13.69,15.74c-1.63-10.16-4.22-17.25-7.24-19.71a5.8,5.8,0,0,0-4.58-1.53,6.72,6.72,0,0,0-1.21.31,3.23,3.23,0,0,0-1.82,2.78v.1a3.37,3.37,0,0,0,.18.67m475.41-3.9a6,6,0,0,0-3.85,1.56c-3,2.47-5.62,9.56-7.25,19.72a76.86,76.86,0,0,0,13.66-15.75l.61-.94.37-.66c.73-2-1-3.22-1.67-3.59a5.76,5.76,0,0,0-1.17-.3,5.58,5.58,0,0,0-.7,0M238.15,888.55l3.8,2.51,1.67-6.64Zm27.94,10.25c.21.13.48.29.82.47,1,.54,1.57.69,2.09.55a4.82,4.82,0,0,0,2.87-2.72,6.78,6.78,0,0,0,.69-4.84,3.09,3.09,0,0,0-1.58-1.93l-.24-.11-.14-.07ZM264,902.86l-4.42,8.42c-1.26,2.44-1.17,2.55-.81,3a6.29,6.29,0,0,0,2.09,1.58,4,4,0,0,0,1.83.45c1.43,0,2.61-.87,3.51-2.59.73-1.37,2.23-4.92.47-8.51a4.8,4.8,0,0,0-2.11-2.05l-.56-.3m.63,18.55h0a14.7,14.7,0,0,1-6.85-1.85c-.25-.13-.63-.36-1.09-.63l-1.53-.9c-1-.66-2.09-1.23-2.66-1.54l-.65-.32c-.41-.21-.94-.48-1.5-.73s-1-.5-1.41-.71-.9-.42-1.28-.63l-.25-.13a4.47,4.47,0,0,1-2.38-1.06c-1.44-.94-4.07-2.7-6.69-4.52l-.17-.12c-.58-.42-1.92-1.39-1.07-2.71a1.72,1.72,0,0,1,1.56-.78l2.08-8.62-6.77-4.47L229,895.41a8.35,8.35,0,0,0-1.71,1.59h0a1.39,1.39,0,0,0,.26.2l.57.42a2,2,0,0,1,1,1.2,1.72,1.72,0,0,1-.23,1.26,1.86,1.86,0,0,1-1.49.83,2.29,2.29,0,0,1-1.26-.43c-.56-.37-1.17-.81-1.79-1.26s-1.32-1-1.9-1.31c-.19-.15-.57-.37-1.08-.68-.84-.52-2-1.25-3.16-2a2.28,2.28,0,0,1-1.1-1.47,1.6,1.6,0,0,1,.15-1,2.41,2.41,0,0,1-.87.17c-1.07,0-1.91-.72-3.08-1.82-1.62-1.52-2.93-2.79-4.07-3.89-.59-.58-1.14-1.11-1.67-1.61-1.38-1.43-2.58-2.63-4.05-4l-2-1.78c-.4-.37-.84-.75-1.28-1.12s-.82-.7-1.15-1c-1.53-1.47-.75-2.57-.47-2.88a1.57,1.57,0,0,1,1.21-.54,2.23,2.23,0,0,1,1.5.69,7.65,7.65,0,0,0,1.13.87,4.49,4.49,0,0,0,1.13-.77c1.27-1.06,3.42-3.35,5.92-6l5.94-6.39c4.54-4.86,5.43-5.81,6.3-6.92.75-.86.7-.93.24-1.59a5.18,5.18,0,0,0-.83-.92c-1.45-1.4-.66-2.48-.39-2.78a1.58,1.58,0,0,1,1.2-.54,2.65,2.65,0,0,1,1.76.9c.86.82,1.87,1.81,2.75,2.69s1.41,1.39,1.82,1.78.73.64,1.28,1.13c1.12,1,2.58,2.28,3.48,3.12,1.53,1.42.88,2.47.53,2.87a1.71,1.71,0,0,1-1.25.54,2.38,2.38,0,0,1-1.58-.74,9.1,9.1,0,0,0-1.21-1c-.28-.19-.38-.19-.39-.19s-.27,0-1,.69c-1,1-2,2-6.46,6.79l-5.49,5.87c-2.71,2.9-5.27,5.64-5.33,6.46.06.54.47,1.35,3,3.75,1.65,1.53,2.72,2.47,3.77,2.47a4.19,4.19,0,0,0,2-.8,2.16,2.16,0,0,1,1.43-.61,1.77,1.77,0,0,1,1.23.51c.47.5,1,1.45-.17,2.71a43.76,43.76,0,0,1-3.33,2.84,1.94,1.94,0,0,1,1,.37l.32.18a5.54,5.54,0,0,0,.65.36,2,2,0,0,0,.87.22,6.18,6.18,0,0,0,3-1.46l24.27-17.54a4.52,4.52,0,0,1,2.48-1.2,1.85,1.85,0,0,1,1,.27c1.19.76.92,2.22.74,3.2-.22,1.16-1.18,5.46-2.3,10.45-1.42,6.35-3.19,14.26-4,18.27s-.13,4.65.12,4.92a6.12,6.12,0,0,0,.95.81,2.21,2.21,0,0,1,1.21.31,4.51,4.51,0,0,0,1.1.42,7.3,7.3,0,0,0,.78-1c1.09-1.59,2.83-4.87,4.55-8.19l3.64-6.95c3.22-6.13,3.71-7.11,4.27-8.37.47-1.05.43-1.08-.05-1.48a5.34,5.34,0,0,0-1.13-.71c-1.71-1-1.23-2.21-1.05-2.55a1.64,1.64,0,0,1,1.48-.91,3,3,0,0,1,1.34.4c1,.54,2.06,1.13,3,1.64s1.65.95,2,1.12c1.12.6,2.07,1,2.93,1.46.64.31,1.22.58,1.76.87,3.25,1.7,5.29,3.81,6.05,6.26a7.44,7.44,0,0,1-.57,5.69,10.16,10.16,0,0,1-6.3,5.06c2.23,3.24,3.46,7.67,1.22,12a10.57,10.57,0,0,1-9.52,5.79M295,901.81c-3.88,0-7.3,3.14-9.91,9.09-2.13,4.84-2.52,9.64-1.09,13.16a8.79,8.79,0,0,0,5,5,7,7,0,0,0,2.59.51c3.88,0,7.39-3.32,10.14-9.59,2.1-4.77,2.48-9.31,1.06-12.77a8.42,8.42,0,0,0-4.71-4.76,8.27,8.27,0,0,0-3.11-.63m-2.51,32.57h0a18.39,18.39,0,0,1-6.92-1.4,16.16,16.16,0,0,1-9.29-8.83,19.94,19.94,0,0,1,.62-15.14c2.43-5.59,8.33-12.1,16.94-12.1a19.21,19.21,0,0,1,7.24,1.48c4.78,2,8.18,5.1,9.82,9.11,1.71,4.18,1.44,9.08-.79,14.15-3.45,7.85-10.21,12.73-17.62,12.73M636.09,911.7a7.74,7.74,0,0,0-2.83.55,6.48,6.48,0,0,0-3.72,3.4c-1,2.23-.72,5.26.77,9,2.21,5.54,6.18,9,10.39,9a8.29,8.29,0,0,0,3.09-.61,5.89,5.89,0,0,0,3.24-3.09c1-2.32.71-5.51-.87-9.5-2.13-5.37-6-8.72-10.07-8.72m1.72,27.59h0c-7.57,0-12.55-5.71-14.5-10.6-2.88-7.34-1.24-17.11,9.19-21.22a18.68,18.68,0,0,1,6.9-1.42c6.18,0,11.18,3.68,13.72,10.11,3.67,9.34,0,18.31-8.93,21.83a17.22,17.22,0,0,1-6.37,1.3m-89.48-30.7-.64,6.47,4.19-1ZM418.72,919.85l4.25.76-1-6.41Zm84.68,16v0h0M480,937.49v.83h0v-.82h0m-11.55,2.89h0c-1.49,0-3-.12-4.21-.2-.92-.06-1.7-.1-2.17-.11h-1.53c-1.17,0-2.65,0-3.67,0h0a2,2,0,0,1-1.61-.67,1.64,1.64,0,0,1-.39-1.26,1.81,1.81,0,0,1,1.94-1.68h.34a3.23,3.23,0,0,0,.71-.07h0a3.66,3.66,0,0,0,.25-1.08c.2-1.67.29-4.85.39-8.53l.4-16.1h-4.49c-2.35,0-2.56.34-2.72.58a4.68,4.68,0,0,0-.53,1.06,1.78,1.78,0,0,1-1.77,1.53,1.65,1.65,0,0,1-1.2-.51.58.58,0,0,0-1-.32H447a1.62,1.62,0,0,1-1-.51,1.89,1.89,0,0,1-.43-1.51,2.34,2.34,0,0,0,0-1c-.17-.57-.22-.72-1.43-1-.4-.09-4.13-.64-7.4-1.12l-8.48-1.26.17.94c.47,2.42,1.06,5.55,1.68,8.79,6.16.87,15.22,2.12,16,2.15a3,3,0,0,0,1-.08l.28-.24a2,2,0,0,1,1.32-.59h.16a1.53,1.53,0,0,1,1,.48,1.91,1.91,0,0,1,.49,1.43,7.61,7.61,0,0,1-.2,1c-.11.46-.27,1.15-.49,2.21-.19.81-.44,2.45-.48,2.72-.16,1.91-1.4,2.06-1.78,2.06H447a1.65,1.65,0,0,1-1.45-1.78c0-.17,0-.35,0-.54a9,9,0,0,0,0-.9c0-.16-.07-.43-.94-.61-.6-.13-7.89-1.22-13.62-2.07.71,3.63,1.34,7,1.76,9.15a5.5,5.5,0,0,0,.21.82A2.57,2.57,0,0,0,434,933l9,1.08a15.19,15.19,0,0,0,1.64.1,4,4,0,0,0,1.45-.19c.43-.15.83-.41,1.21-2l.05-.17a1.94,1.94,0,0,1,1.8-1.47h.22c.5.09,1.62.5,1.37,2.55a35.33,35.33,0,0,1-1.1,4.94,2.46,2.46,0,0,1-2.45,1.8,10.58,10.58,0,0,1-1.21-.09c-2.19-.23-4.17-.48-5.89-.71l-1.64-.2c-.83-.09-1.81-.23-2.86-.36l-2.2-.28c-1.79-.21-5.12-.6-7.08-.92-.63-.13-2.45-.47-2.2-2.1a1.65,1.65,0,0,1,1-1.36l-1.3-7.75-7.81-1.39-2.8,4.7a8.14,8.14,0,0,0-.8,1.8l.2,0,.58.11a1.78,1.78,0,0,1,1.59,2.05,1.76,1.76,0,0,1-1.79,1.54,3.24,3.24,0,0,1-.5,0c-.72-.13-1.59-.33-2.44-.52l-1.87-.41-.73-.09c-.89-.12-2.34-.3-3.79-.54a2,2,0,0,1-1.62-1.14,2.23,2.23,0,0,1-.82.14,7.46,7.46,0,0,1-2.12-.44c-2.32-.69-4.47-1.41-6.79-2.25-.81-.25-1.6-.53-2.36-.78s-1.73-.57-2.59-.83l-1.38-.39-.72-.2-1.29-.35c-.49-.13-1-.25-1.39-.38a2.22,2.22,0,0,1-1.39-1,1.69,1.69,0,0,1-.1-1.36,1.82,1.82,0,0,1,2.41-1.1,4,4,0,0,0,1,.19,3.86,3.86,0,0,0,.5-1c.58-1.38,1.39-4,2.33-7L390.58,905c1.44-4.66,1.74-5.63,2-6.78.21-.84.21-.84-.4-1.26a3.63,3.63,0,0,0-.84-.35,2,2,0,0,1-1.27-.95,1.74,1.74,0,0,1-.12-1.38,1.63,1.63,0,0,1,1.64-1.19,3.47,3.47,0,0,1,1,.18c1,.31,2.28.73,3.34,1.09l1.83.6,2.18.63c1.17.34,2.48.71,3.29,1a2.22,2.22,0,0,1,1.49,1,1.61,1.61,0,0,1,.12,1.29,1.86,1.86,0,0,1-2.53,1.11,6.27,6.27,0,0,0-1.2-.25h-.21c-.07,0-.23.14-.51.9-.38,1-.69,2-1.83,5.64l-.88,2.81-2.17,7.15c-1,3.11-2.2,7-1.94,7.73.14.24.85.81,3.95,1.77,1.81.55,2.92.84,3.7.36a4.12,4.12,0,0,0,1.11-1.5,2.07,2.07,0,0,1,1.79-1.37h.19l.31.08a1.67,1.67,0,0,1,1,.82,2.5,2.5,0,0,1,0,1.94c-.13.4-.83,2.14-1.48,3.52h0l.44.05.53.07c1,0,1.48-.52,2.66-2.46l14.87-24.4c.61-1.06,1.32-2.13,2.52-2.13l.26,0c.84.1,6.53,1,12,1.93,4.16.69,8.48,1.39,8.86,1.43h.13a9,9,0,0,0,1-.06l.23,0,.09,0a2.54,2.54,0,0,1,.78-.14l.24,0a1.62,1.62,0,0,1,1.12.81,1.71,1.71,0,0,1,.57-.1,3.06,3.06,0,0,1,1,.27,3.48,3.48,0,0,0,.91.29,32,32,0,0,0,3.75.29l16.54.42a13.15,13.15,0,0,0,2-.13,6,6,0,0,0,.66-.1,4.43,4.43,0,0,1,.59-.06h.12a1.6,1.6,0,0,1,1,.39,2.89,2.89,0,0,1,1.5-.45c1-.05,2.36-.08,3.56-.11l1.79,0,1.8-.13c1.09-.08,2.36-.17,3.27-.22h.25a1.92,1.92,0,0,1,1.7.77,1.65,1.65,0,0,1,1.5-1.41h.15a3.19,3.19,0,0,1,.8.13,3.48,3.48,0,0,0,1,.17h.14a28.82,28.82,0,0,0,3.57-.28l15.95-1.9a13.81,13.81,0,0,0,2.39-.44l.61-.2a3.16,3.16,0,0,1,.73-.19h.17A1.49,1.49,0,0,1,519,902a2.61,2.61,0,0,1,1.63-.77c.65-.13,1.55-.27,2.46-.41,1.08-.17,2.15-.35,2.74-.47s1.42-.28,2.38-.49l2.61-.53a4.34,4.34,0,0,1,.65-.06,1.76,1.76,0,0,1,1.52,2.75,1.88,1.88,0,0,1-1.35.78,5.2,5.2,0,0,0-.79.26,1.52,1.52,0,0,0-.31.14,3.68,3.68,0,0,0,0,1c.14,1.16.34,2.26,1.18,6.87l1.7,9.25c.69,3.73,1.35,7.26,1.84,8.94a1.87,1.87,0,0,0,.28.68.94.94,0,0,0,.23,0,13.15,13.15,0,0,0,1.88-.18,2,2,0,0,1,1,0l.13,0,.51-.16c.84-.39,1.12-1.08,1.36-3.28l3.65-28.39c.13-1.08.31-2.72,1.73-3.07a2,2,0,0,1,.56-.08c1.11,0,1.7.78,2.32,1.59s3.09,4.4,5.92,8.46c3.61,5.19,7.92,11.37,10.16,14.53,2,2.8,2.91,3,3.15,3a9.27,9.27,0,0,0,1.3-.18,2.54,2.54,0,0,1,.49,0,1.74,1.74,0,0,1,1.73,1.41,1.55,1.55,0,0,1-.18,1.22c-.4.68-1.17.92-2.37,1.22l-1,.24c-1.53.37-3.83.92-6.47,1.48l-.16,0a5.71,5.71,0,0,1-1,.13,1.6,1.6,0,0,1-1.64-1.18,1.71,1.71,0,0,1,.37-1.63l-4.35-6.55-7.71,1.9-.63,5.42a11.07,11.07,0,0,0,0,2l.23-.05.54-.14a2.35,2.35,0,0,1,.59-.08,1.73,1.73,0,0,1,1.74,1.37,1.81,1.81,0,0,1-1.44,2.22c-.77.18-1.61.35-2.42.51l-2,.41-.35.11c-.78.24-2.41.72-4.05,1.14a2.22,2.22,0,0,1-1.28,0c-1.51.28-3,.51-4.26.69l-2,.32c-.44.07-1.23.25-2.09.44-1,.23-2.16.49-3,.63a2,2,0,0,1-.53.06,1.8,1.8,0,0,1-1.86-1.43,1.87,1.87,0,0,1,1.66-2.16,2.63,2.63,0,0,0,.87-.25l.12-.06a3.52,3.52,0,0,0,0-.85c-.12-1.72-.78-5.24-1.46-9l-2.07-11.09c-.58-3.13-.75-4-1-5-.21-.84-.35-.86-.63-.92a3.26,3.26,0,0,0-.94.09,1.91,1.91,0,0,1-1.23-.08c0,.21,0,.43.07.65.11,1.23.26,2.71.34,3.4v.17c0,1.75-1.06,2-1.51,2.08h-.19c-1,0-1.56-.63-1.81-1.87l-.09-.41c-.14-.7-1.43-1-3.44-.81l-3.6.34,1.85,15.66c.42,3.52.87,7,1.27,8.84.15.69.26.87.31.91a.61.61,0,0,0,.21,0,12.37,12.37,0,0,0,1.79-.09l.27,0a1.86,1.86,0,0,1,1.91,1.56c.11.89-.43,1.85-1.86,2.06s-3,.31-4.22.41c-.92.08-1.67.15-2.14.21s-1.18.17-2,.31c-1,.16-2.21.35-3.08.45a2.44,2.44,0,0,1-.35,0,1.85,1.85,0,0,1-2-1.58v-.17A1.84,1.84,0,0,1,503.2,935a4.6,4.6,0,0,0,1-.2,5.51,5.51,0,0,0,.07-1.12c0-1.68-.43-5-.89-8.83l-1.86-15.66-4.44.64c-2.3.34-2.46.68-2.6,1a3.31,3.31,0,0,0-.38,1.12,1.77,1.77,0,0,1-1.7,1.77c-.34,0-1.64-.08-1.82-1.85a37.71,37.71,0,0,1,.12-3.93,2,2,0,0,1-1.42.58,3.17,3.17,0,0,0-.86.16,1.88,1.88,0,0,0-.28.09,4.47,4.47,0,0,0-.1,1c0,1.34.05,2.58.36,8.91l.36,7.45c.16,3.67.35,7.31.62,9.11.09.52.16.67.19.69s0,0,.29.07a11.68,11.68,0,0,0,1.81.06h.17a1.87,1.87,0,0,1,1.87,1.51l0,.25a1.91,1.91,0,0,1-2,1.85c-1.65.08-3.33.11-4.62.13-.74,0-1.37,0-1.75,0l-1.86.15c-1.1.09-2.39.2-3.31.25H480a1.88,1.88,0,0,1-2.07-1.61v-.17a1.89,1.89,0,0,1,1.88-1.82,3.5,3.5,0,0,0,1-.14s.11-.19.15-.91c.08-1.67-.09-5.09-.28-9.06l-.43-9.09c-.25-5-.3-6.09-.4-7.3-.09-.85-.22-.9-.51-1a2.9,2.9,0,0,0-.92-.06h-.21a2,2,0,0,1-.71-.11c0,.53-.05,1.17-.08,1.79-.05.89-.09,1.74-.11,2.21-.14,1.93-1.47,2-1.73,2-.75,0-1.67-.37-1.76-2.15l-.05-.41c0-.62-1.06-1.22-3.29-1.31l-3.6-.18-.42,15.75c-.08,2.88-.17,6.94,0,8.93a2.51,2.51,0,0,0,.17,1,.64.64,0,0,0,.21.07,11.2,11.2,0,0,0,1.79.17,1.86,1.86,0,0,1,1.93,1.8,1.91,1.91,0,0,1-2.12,1.81m-148.69-14.7a11.1,11.1,0,0,0,2.09.86,5.43,5.43,0,0,0,1.58.36,2,2,0,0,0,.66-.14c.86-.3,2.5-1.35,3.59-4.74,2-6.26-2.33-7.89-2.83-8.06s-.91-.27-1.22-.34Zm16.1,24.91a2.85,2.85,0,0,1-1-.19l-3.8-1.21c-2.43-.77-3.61-1.41-4.67-2.56-1.55-1.7-2.48-4.21-3.79-8.54-.38-1.25-.79-2.63-1.14-3.85s-.69-2.42-.89-3l-2.38-.82-.54,1.72c-.92,2.92-1.72,5.45-2,6.89-.27,1.18-.12,1.25.07,1.35a12.13,12.13,0,0,0,1.74.74,1.88,1.88,0,0,1,1.2,1,1.6,1.6,0,0,1,0,1.25,1.72,1.72,0,0,1-1.69,1.16,2.86,2.86,0,0,1-.9-.15c-1.9-.6-4.12-1.4-5.32-1.83l-.62-.21c-.21-.08-.7-.21-1.29-.37-1.11-.32-2.59-.73-3.64-1.07a2.43,2.43,0,0,1-1.47-1.1,1.73,1.73,0,0,1-.08-1.34,1.75,1.75,0,0,1,2.46-1,4.21,4.21,0,0,0,1.1.22,8.2,8.2,0,0,0,.7-1.19c.63-1.45,1.56-4.34,2.65-7.69l2.77-8.59c2.11-6.59,2.44-7.64,2.8-9,.27-1.08.17-1.14-.35-1.45a4.82,4.82,0,0,0-1.23-.49c-1.77-.66-1.6-1.9-1.5-2.26a1.76,1.76,0,0,1,1.7-1.26,3.78,3.78,0,0,1,1,.18c1.28.43,2.66.92,3.78,1.33l1.74.61c.68.22,1.78.53,2.87.85s2.22.64,2.86.84c2.64.85,5.59,2.07,7.5,4.68a9.2,9.2,0,0,1,1.07,7.95c-1.14,3.54-3.62,6.08-8,8.11l.63,1.78c1.59,4.55,2.84,8.15,4.12,10.9s2.46,3.42,3,3.71a4,4,0,0,0,.75.35l.2.06a2,2,0,0,1,.93.67,1.75,1.75,0,0,1-1.45,2.73m254.44-1,1.07,3a13.35,13.35,0,0,0,.28-2.26v0a4.25,4.25,0,0,0-1.35-.7M471.9,959.39l6.81.05c35.57,0,71-5.05,99.66-14.11,1.5-.48,3-1,4.46-1.47l.47-.15c.68-.23,1.36-.45,2-.69a9,9,0,0,1,1.35-.32,10.21,10.21,0,0,1,1.46-.08c-2.35-5.07-8.46-18.18-14.36-30.88-1.85-3.94-3.67-7.86-5.36-11.48l-8.32-17.91c-1.87-3.73-6.31-6.17-11.29-6.19l-3.59.42-.38.13-.16,0c-19.73,5.13-43,7.84-67.19,7.85l-5.58,0-5.6,0c-24.27,0-47.53-2.73-67.27-7.88l-.44-.12-3.62-.44c-5,0-9.43,2.52-11.41,6.37,0,0-3.17,6.8-7.4,15.92l-.58,1.26c-.35.74-.7,1.5-1,2.26l-8.21,17.68-10.67,23a8.25,8.25,0,0,1,2.81.4l3,1,3.15,1.05.86.26c28.68,9,64.05,14.06,99.61,14.09Zm-119.67-9.18v.08a53.5,53.5,0,0,0,2,8.65c.57-1.6,1.32-3.66,2.18-6a18.34,18.34,0,0,1,.8-2.19c.11-.32.26-.71.4-1.12-.42-.14-.84-.27-1.25-.42a1.68,1.68,0,0,0-.59-.07,7,7,0,0,0-3.51,1.11M728.62,860.5,731,866l3.12-3.2Zm-26.7,14.23,6.34,8a13.44,13.44,0,0,0,1.81-1.23c1.17-.91,1.28-1.17,1.4-1.6.37-1.12.44-2.83-1.18-4.89a5.3,5.3,0,0,0-4.12-2.36,5.41,5.41,0,0,0-3.13,1.11c-.44.35-.82.7-1.12,1M595.18,963.08c.37,1.2,2.54,6.89,11.4,6.89a27.57,27.57,0,0,0,5.6-.64c15.58-3.26,54.26-14.28,89.18-32.68a227.59,227.59,0,0,0,26.47-16.17l12-9.58a103.48,103.48,0,0,0,15.22-16.44,73.12,73.12,0,0,0,4.27-6.46c3-5.16,4.56-9.93,4.56-13.76a9.09,9.09,0,0,0-2.93-7.18l-5.56-5.39a11.11,11.11,0,0,1-.85.93c-.62.64-2.87,2.94-5.64,5.64l-.13.11a2.69,2.69,0,0,1-1.77.94,1.54,1.54,0,0,1-1-.41,1.71,1.71,0,0,1-.53-1.53l-6.5-2.61-5.91,6.06,1.88,4.6a7.49,7.49,0,0,0,.77,1.4l.17-.17.47-.45a2,2,0,0,1,1.42-.67A1.63,1.63,0,0,1,739,876a1.67,1.67,0,0,1,.5,1.18,2,2,0,0,1-.72,1.5c-.42.44-1,1-1.59,1.53s-1.1,1-1.54,1.5a3.39,3.39,0,0,1-.31.33,7.34,7.34,0,0,0-.53.59l-1.46,1.58-1,1.06c-1.9,1.51-2.71,2-4.2,2.32a7.66,7.66,0,0,1-1.75.18,31.26,31.26,0,0,1-7.18-1.24c-1.44-.34-3-.79-4.27-1.15-.67-.19-1.31-.38-1.69-.47l-2,1.54c1.56,2,3.62,4.53,4.81,5.74a2.88,2.88,0,0,0,.61.51s.08,0,.24-.13a13.13,13.13,0,0,0,1.5-1,1.84,1.84,0,0,1,2.65.31,1.91,1.91,0,0,1-.73,2.62c-1.47,1.16-3.49,2.66-4.55,3.44l-.59.45c-.17.13-.55.46-1,.84-.87.74-2,1.72-2.88,2.39a1.91,1.91,0,0,1-2.72,0,1.65,1.65,0,0,1-.38-1.29A2,2,0,0,1,709,899a5.34,5.34,0,0,0,.76-.73l.08-.1s-.09-.23-.42-.74a77.24,77.24,0,0,0-4.81-6.4L700,885.1c-3.16-4-3.81-4.84-4.56-5.7A1.54,1.54,0,0,0,695,879a2.25,2.25,0,0,0-.73.22,7.52,7.52,0,0,0-.85.58l.45.78c.45.76.9,1.53,1.16,1.93l.13.24c.56,1.48-.13,2.15-.6,2.41a1.67,1.67,0,0,1-.9.26,2.12,2.12,0,0,1-1.67-1.05l-.25-.32a.72.72,0,0,0-.46-.11,6.48,6.48,0,0,0-3,1.17l-3.29,2,7.43,12c1.5,2.41,3.35,5.34,4.42,6.73.36.44.49.51.53.52a1,1,0,0,0,.29-.08c.38-.18,1.15-.6,1.68-.92a1.86,1.86,0,0,1,2.63.49,1.66,1.66,0,0,1,.19,1.19,2.26,2.26,0,0,1-1.12,1.41c-1.41.88-2.9,1.74-4.06,2.41l-1.65,1-1.92,1.26c-.89.6-1.86,1.24-2.57,1.69a1.91,1.91,0,0,1-2.77-.35,1.74,1.74,0,0,1-.21-1.35,2,2,0,0,1,1.06-1.26,4.15,4.15,0,0,0,.78-.57l.1-.11s-.07-.22-.33-.8c-.6-1.28-2-3.56-3.64-6.18L678,891.42,674,894c-1.93,1.23-2.11,1.66-2.13,2a3.31,3.31,0,0,0,0,1.07,1.78,1.78,0,0,1-.82,2.22,1.57,1.57,0,0,1-.8.21,1.66,1.66,0,0,1-1.11-.44,1.91,1.91,0,0,1-.71,2.47l-.15.08a1.74,1.74,0,0,1-.71.15,1.93,1.93,0,0,1-1.74-1.21,2.75,2.75,0,0,0-1.37-1.13,4.35,4.35,0,0,0-3.8.4c-1.89.95-3.38,2.76-2.6,4.39.4.77.86,1.68,5,1.78l1.93.06c6.13.13,9.75,1.93,11.73,5.85,1.54,3.1,1.37,6.11-.52,9.51-1.38,2.51-4.11,4.08-6,5.06a18.88,18.88,0,0,1-7,2.25h-.35a2.37,2.37,0,0,1-2.21-1.59c-.79-1.56-1.56-3.4-1.94-4.28l-.18-.43c-.69-1.54-.06-2.51.67-2.86a1.84,1.84,0,0,1,.79-.18,1.87,1.87,0,0,1,1.66,1.1,4.72,4.72,0,0,0,1,1.29,3.51,3.51,0,0,0,2.68,1.1,7.38,7.38,0,0,0,3.32-.89,4.73,4.73,0,0,0,2.54-2.61,3.13,3.13,0,0,0-.21-2.48c-.43-.88-1-2.06-4.92-2.24l-2.74-.16c-5.72-.28-9-1.94-10.81-5.6-2.32-4.71.4-10.33,6.45-13.37a25.58,25.58,0,0,1,5.85-2.18,2,2,0,0,1,2.23.89l.06.15-.24-.72a1.88,1.88,0,0,1,.48-2.28,2.87,2.87,0,0,1,1.11-.42,3.36,3.36,0,0,0,.94-.28,39.06,39.06,0,0,0,3.44-1.93L687,880a19.15,19.15,0,0,0,2.19-1.53c.18-.15.33-.3.45-.41a3.74,3.74,0,0,1,.55-.45,1.8,1.8,0,0,1,.83-.24l.34-.27c1.11-.9,2.48-1.92,3.45-2.64.45-.33.8-.6,1-.77.53-.41,1.47-1.18,2.4-1.94s2.06-1.69,2.59-2.11c2-1.61,4.8-3.52,7.83-3.85a5.4,5.4,0,0,1,.56,0,7.91,7.91,0,0,1,6.19,2.93c1.85,2.33,2.27,5.35,1.31,9.94,4.92,1,8.84,1.81,11.91,2.12a13.28,13.28,0,0,0,2.07,0,8.27,8.27,0,0,0-.59-1.9l-9.66-24.56c-.4-1-1-2.37,0-3.41a2.15,2.15,0,0,1,1.59-.69,4.91,4.91,0,0,1,1.5.33c1.19.41,5.78,2.13,11.07,4.12,4.94,1.86,10.28,3.86,13.22,4.94a10.46,10.46,0,0,0,3.23.74,1.4,1.4,0,0,0,.94-.24,8.17,8.17,0,0,0,.95-.83v0l-33.2-32.15-.27-.27-.09.2L718,829.35c-5.45,8.69-13.82,17.28-24.9,25.52-26.14,19.46-65.34,35.42-116.52,47.45l18.71,40.22.75,1.62-5.58-20.33c-.5-1.72.23-2.8,1.19-3.1a1.82,1.82,0,0,1,.62-.09,5.25,5.25,0,0,1,2.25.75l.22.12c.61.33,8.2,4.42,15.62,8.15L616.7,933l1.94,1-4.25-13.27c-.59-1.86-.86-1.88-1.12-1.9a5,5,0,0,0-1.66.34,2.6,2.6,0,0,1-.74.11,1.7,1.7,0,0,1-1.55-2.43,2.52,2.52,0,0,1,1.67-1.12c1.11-.32,2.2-.61,3.12-.85s1.54-.4,1.95-.53c.59-.21,2-.7,3.86-1.23a3.83,3.83,0,0,1,1-.18,1.69,1.69,0,0,1,1.63,1.11,1.66,1.66,0,0,1-.08,1.29,2.21,2.21,0,0,1-1.35,1,3.56,3.56,0,0,0-.95.36c-.17.12-.33.23.12,1.92l6.33,23.3c.5,1.75-.32,2.72-1.16,3a3.81,3.81,0,0,1-2.83-.35c-3.57-1.68-10.74-5.28-14.7-7.28-3.41-1.67-6.86-3.58-9.15-4.84l3.85,11.78c.76,2.37,1.25,2.64,1.27,2.65a6,6,0,0,0,1.71-.28,1.9,1.9,0,0,1,2.46,1.14A1.55,1.55,0,0,1,608,949a2.3,2.3,0,0,1-1.61,1.09c-1.8.54-3.28.9-4.27,1.14l-.89.22-.64.23c-.64.21-1.6.55-2.67.89a49.17,49.17,0,0,1-2.71,10.47M228.49,826.82l-.3.29L187,867.05a9,9,0,0,0-3,7.19c0,3.83,1.58,8.6,4.58,13.77a71.17,71.17,0,0,0,4.26,6.46A104,104,0,0,0,208.13,911l4.82,3.82,7.13,5.66a225.58,225.58,0,0,0,26.43,16.16c34.9,18.41,73.62,29.46,89.22,32.72,6.4,1.35,11.34.54,14.43-2.34-.12-.28-.23-.56-.31-.78l-.12-.3c-2.09-5.35-4.44-12.61-3.82-17a6.84,6.84,0,0,1,.34-1.43l.35-.81,21-45.27c-49.34-11.91-87.29-27.58-112.8-46.54-11.09-8.25-19.46-16.85-24.9-25.55l-.44-.68-.87-1.55c0-.1-.1-.19-.14-.29m460.78,150a15.22,15.22,0,0,0,4,.6,8.36,8.36,0,0,0,3.78-.8l-10.24-6.11c-1.38-.81-2.61-1.54-3.62-2.15a12.81,12.81,0,0,0,1.25,4.18c.42.83,1.59,2.23,4.79,4.28m-438.48-.18a8.17,8.17,0,0,0,3.75.8,15.49,15.49,0,0,0,4.11-.62c3.22-2.06,4.38-3.45,4.79-4.27a12.5,12.5,0,0,0,1.24-4.2c-1.09.66-2.44,1.47-4,2.37l-9.92,5.92m449.07,5.89,3.18,1.86c8.72,5.11,18.45,11.12,22.11,13.39l1,.61c.33.22,8,5,16.45,5a17.86,17.86,0,0,0,11.45-3.86c7.27-5.82,11-17.42,11-34.49,0-22.48-6.38-48.17-9.79-60.33C743.71,917.88,726.83,930.43,705,942l-1.64.85c1.91,3.74,5.56,12.08,5.56,21a25.85,25.85,0,0,1-2.79,12.08c-.42.8-.81,1.47-1.23,2.11l-.1.18-.13.23c0,.05-.21.33-.3.44s-.22.26-.35.4l-.11.1a12.23,12.23,0,0,1-4,3.16M192.71,904.7c-3.42,12.19-9.79,37.93-9.79,60.33,0,17.07,3.69,28.66,11,34.48a17.88,17.88,0,0,0,11.45,3.86c8.46,0,16.13-4.77,16.45-5l.6-.37c8.9-5.51,16.46-10.1,22.49-13.63,1.06-.63,2.11-1.25,3.13-1.83a12,12,0,0,1-4-3.22,2.34,2.34,0,0,1-.31-.33s-.51-.69-.59-.82a21.85,21.85,0,0,1-1.33-2.27A25.88,25.88,0,0,1,239,963.86c0-8.64,3.45-16.74,5.4-20.65l-1.14-.9-.49-.39c-21.74-11.55-38.56-24.06-50-37.22M742.54,1010h0c-10.23,0-18.91-5.42-19.86-6-8-5-20.3-12.48-28.74-17.27a62.64,62.64,0,0,1-7.53-3.94s0,0-.06,0l-.17-.06a3.15,3.15,0,0,1-1.37-1c-3.06-2.09-5.13-4.16-6.13-6.16a19.54,19.54,0,0,1-1.44-13.58,3.36,3.36,0,0,1,2-2.08,3.23,3.23,0,0,1,2.85.25l19,11.3c3.69-9.4-1.34-21.25-3.48-25.54-33.79,16.76-68.62,26.64-84,29.86a34.7,34.7,0,0,1-7,.78c-10.36,0-14.88-5.81-16.64-9.28a14,14,0,0,1-1-2.48l-4.7-12.93c-.27-.45-.51-.87-.74-1.27l-2.64.87c-29.4,9.36-65.65,14.52-102.1,14.56l-6.81-.05-6.8.05c-36.15,0-72.1-5.12-101.35-14.32l-4.66,12.85c-.29,1.16-3.52,12-17.73,12a34,34,0,0,1-7-.78c-15.4-3.22-50.23-13.12-84-29.87-2.13,4.29-7.19,16.12-3.48,25.57l19-11.33a3.26,3.26,0,0,1,2.87-.23,3.16,3.16,0,0,1,1.9,2,19.43,19.43,0,0,1-1.37,13.61c-1.05,2-3.18,4.16-6.34,6.3-.14.09-.82.49-5.61,3.26-9,5.22-25.7,14.91-32,18.85-.34.24-9.32,6.06-19.87,6.06a24.37,24.37,0,0,1-15.58-5.36C163.66,983.67,183,914,187.72,898.5a76.89,76.89,0,0,1-4.8-7.23c-10.16-17.55-3.62-26.15-.33-29l43.52-42.16a23.66,23.66,0,0,1,2.36-2.29,19.37,19.37,0,0,1,2-1.45,14.51,14.51,0,0,1,6-2.38,12.31,12.31,0,0,1,9.57,2.9c6.92,5.63,9.56,21.54,10.53,30.94,31.41,24.28,79,39.28,113.89,47.64l7.42-15.94c3-6,9.79-9.84,17.21-9.84h.16l4.92.6s.48.14.61.16l-.14.56.18-.55c19.16,5,41.82,7.65,65.53,7.65l5.6,0,5.59,0c23.66,0,46.28-2.63,65.4-7.6l1-.28,4.8-.55c7.46,0,14.22,3.87,17.23,9.86l7.81,16.79c36.14-8.41,85.4-23.6,117.63-48.52,1-9.39,3.61-25.29,10.53-30.91a12.11,12.11,0,0,1,9.53-2.92,14.52,14.52,0,0,1,6,2.36,21.91,21.91,0,0,1,2.19,1.62,25.5,25.5,0,0,1,1.94,1.88l43.83,42.46c3.33,3,9.64,11.62-.41,29a77.56,77.56,0,0,1-4.79,7.23c4.73,15.53,24.08,85.15-2.1,106.1a24.36,24.36,0,0,1-15.57,5.36"/><path class="cls-1" d="M1095.43,328.38h14.34V561.06h-14.34Z"/><path class="cls-1" d="M1209.17,328.38h17.92l147,213.46h.65V328.39h14.34V561.07h-17L1224.16,346h-.66V561.06h-14.34Z"/><path class="cls-1" d="M1480,446A150.17,150.17,0,0,1,1487.3,399a119.35,119.35,0,0,1,21.35-39.27A102.22,102.22,0,0,1,1543,332.8q20.35-9.94,46.76-9.94a111.81,111.81,0,0,1,34.22,5.21,91.26,91.26,0,0,1,50.84,39.76,88.76,88.76,0,0,1,11.73,32.59h-13.69q-8.15-30.63-29.33-47.9t-53.44-17.28q-23.47,0-41.39,9.12a89.22,89.22,0,0,0-30,24.44,108.28,108.28,0,0,0-18.25,35.36,146.55,146.55,0,0,0-.16,83.75,100.36,100.36,0,0,0,17.93,34.38,85.4,85.4,0,0,0,29.81,23.3q17.93,8.64,42,8.64,20.85,0,37.48-6.84a79.33,79.33,0,0,0,28.19-19.23,80.69,80.69,0,0,0,17.43-29.81q5.87-17.43,4.89-39H1592.4V447h98.09V561.08h-12.39V511.54h-.65a71.09,71.09,0,0,1-12.71,23,78.62,78.62,0,0,1-20,17.27A101.52,101.52,0,0,1,1619,562.71a110.66,110.66,0,0,1-29.49,3.9q-26.38,0-46.76-9.45a100.45,100.45,0,0,1-34.38-25.74,110.35,110.35,0,0,1-21.19-38.3A151,151,0,0,1,1480,446Z"/><path class="cls-1" d="M1788.25,328.41h156.42V340.8H1802.59V434H1936.2v12.38H1802.59V548.7h143.71v12.38h-158Z"/><path class="cls-1" d="M2029.08,328.42H2047l147,213.45h.65V328.42H2209V561.1H2192L2044.07,346h-.65V561.09h-14.34Z"/><path class="cls-1" d="M2308.35,328.43h14.34V561.1h-14.34Z"/><path class="cls-1" d="M2422.09,328.43h156.42v12.38H2436.42V434H2570v12.39H2436.43V548.73h143.71v12.38h-158Z"/><path class="cls-1" d="M2662.91,328.44H2760a127.11,127.11,0,0,1,28.68,3.09,67.48,67.48,0,0,1,23.46,10.11A48.19,48.19,0,0,1,2828,360.06q5.7,11.42,5.7,28.35,0,23.46-13.19,39.59t-36.66,20v.65q16,2,25.25,8.48a41.4,41.4,0,0,1,13.85,16,64.49,64.49,0,0,1,5.87,20.85,202.94,202.94,0,0,1,1.3,22.81v13.37a106.54,106.54,0,0,0,.66,12.22,61.26,61.26,0,0,0,2.11,10.59,23.73,23.73,0,0,0,4.08,8.14h-16a42.11,42.11,0,0,1-5-19.06q-.49-10.92-.49-22.65t-1-23.3a49.62,49.62,0,0,0-6.19-20.69q-5.22-9.12-16.46-14.67T2760,455.21h-82.78V561.12h-14.34ZM2760,442.83a86,86,0,0,0,23.62-3.1,50.1,50.1,0,0,0,18.74-9.61,45.68,45.68,0,0,0,12.38-16.62q4.56-10.1,4.56-24.11,0-13-4.88-22.33a43.11,43.11,0,0,0-13-15.15,53.59,53.59,0,0,0-18.9-8.47,95.07,95.07,0,0,0-22.49-2.61h-82.77v102Z"/><path class="cls-1" d="M2964.34,261.32H2981l-43.66,45.62h-12.06Zm-37.8,67.13h14.34V561.13h-14.34Z"/><path class="cls-1" d="M3109.36,328.46H3125l91.91,232.68h-15.32l-29.33-74.63H3060.81l-29.65,74.62h-15.32Zm58.34,145.67-49.86-131.66h-.66l-51.81,131.65Z"/><path class="cls-1" d="M1095.14,625.92h14.34V858.6h-14.34Z"/><path class="cls-1" d="M1208.88,625.92h17.92l147,213.46h.65V625.93h14.34V858.61h-17l-148-215.09h-.66V858.6h-14.34Z"/><path class="cls-1" d="M1488.15,625.93h146v12.38H1502.49v93.2h118.62v12.39H1502.49V858.61h-14.34Z"/><path class="cls-1" d="M1924.83,742.29a149.18,149.18,0,0,1-7.49,47.74,114.61,114.61,0,0,1-21.67,38.78,100.62,100.62,0,0,1-34.71,25.9q-20.52,9.45-46.6,9.45t-46.76-9.45a100.23,100.23,0,0,1-34.87-25.91A114.35,114.35,0,0,1,1711.06,790a155.79,155.79,0,0,1,0-95.48,114.61,114.61,0,0,1,21.67-38.78,100.33,100.33,0,0,1,34.87-25.9q20.7-9.45,46.77-9.45t46.6,9.45a101,101,0,0,1,34.71,25.91,114.78,114.78,0,0,1,21.67,38.78A149.18,149.18,0,0,1,1924.83,742.29Zm-206.93,0a135,135,0,0,0,6.52,42.37,103.87,103.87,0,0,0,18.9,34.7A91.43,91.43,0,0,0,1773.63,843q17.91,8.81,40.73,8.8t40.57-8.8a91.89,91.89,0,0,0,30.15-23.62,104.18,104.18,0,0,0,18.9-34.71,141.1,141.1,0,0,0,0-84.73,104.26,104.26,0,0,0-18.91-34.7,92,92,0,0,0-30.14-23.63q-17.78-8.8-40.57-8.8t-40.74,8.8a91.37,91.37,0,0,0-30.3,23.62,104,104,0,0,0-18.9,34.71A135,135,0,0,0,1717.9,742.28Z"/><path class="cls-1" d="M2013.79,626h97.12a126.44,126.44,0,0,1,28.67,3.1,67.41,67.41,0,0,1,23.47,10.1,48.25,48.25,0,0,1,15.8,18.41q5.7,11.41,5.71,28.35,0,23.48-13.2,39.6t-36.66,20v.65q16,1.95,25.26,8.47a41.48,41.48,0,0,1,13.85,16,64.61,64.61,0,0,1,5.86,20.86,200.5,200.5,0,0,1,1.31,22.81v13.36a106.5,106.5,0,0,0,.65,12.22,60.32,60.32,0,0,0,2.12,10.59,23.86,23.86,0,0,0,4.07,8.15h-16a42.45,42.45,0,0,1-5-19.07q-.48-10.91-.49-22.64t-1-23.3a49.71,49.71,0,0,0-6.19-20.7q-5.22-9.12-16.46-14.66t-31.77-5.54h-82.77V858.63H2013.8Zm97.12,114.38a86.56,86.56,0,0,0,23.63-3.09,50.14,50.14,0,0,0,18.73-9.62A45.75,45.75,0,0,0,2165.66,711q4.56-10.11,4.56-24.12,0-13-4.89-22.32a43.14,43.14,0,0,0-13-15.16,53.59,53.59,0,0,0-18.9-8.47,95,95,0,0,0-22.48-2.61h-82.78v102Z"/><path class="cls-1" d="M2277.43,626H2298l90.92,216.71h.66L2479.47,626H2500V858.65h-14.34V643.57H2485l-88.63,215.08H2382l-89.62-215.09h-.65V858.64h-14.34Z"/><path class="cls-1" d="M2668.48,626h15.64L2776,858.66h-15.32L2731.38,784H2619.93l-29.65,74.62H2575Zm58.34,145.67L2677,640h-.65l-51.81,131.66Zm-19.56-212.8h16.62l-43.67,45.62h-12.06Z"/><path class="cls-1" d="M2825.88,638.37V626h178.25v12.38H2922V858.67h-14.34V638.37Z"/><path class="cls-1" d="M3078.43,626h14.34V858.67h-14.34Z"/><path class="cls-1" d="M3183.37,742.34a148.9,148.9,0,0,1,7.49-47.74,114.61,114.61,0,0,1,21.67-38.78,100.33,100.33,0,0,1,34.87-25.9q20.7-9.45,46.77-9.45,20.52,0,35.52,5.38a90.66,90.66,0,0,1,25.25,13.36,79.1,79.1,0,0,1,16.79,17.43,97.62,97.62,0,0,1,9.94,17.76,87.31,87.31,0,0,1,4.72,14.34q1.31,6,1.31,6.68h-14.34a69.83,69.83,0,0,0-9.45-26.23A72.63,72.63,0,0,0,3346,649.47,79.57,79.57,0,0,0,3322,637.09a90.76,90.76,0,0,0-27.86-4.24q-22.82,0-40.74,8.8a91.51,91.51,0,0,0-30.31,23.62,104.37,104.37,0,0,0-18.9,34.71,141,141,0,0,0,0,84.73,103.87,103.87,0,0,0,18.9,34.7A91.43,91.43,0,0,0,3253.44,843q17.91,8.81,40.73,8.8a73.27,73.27,0,0,0,31.77-7,86.81,86.81,0,0,0,25.91-18.57,93.15,93.15,0,0,0,25.42-58.17h14.34a114.51,114.51,0,0,1-10.27,38.46A107.47,107.47,0,0,1,3360.16,837a92.52,92.52,0,0,1-66,27.21q-26.07,0-46.76-9.45a100.35,100.35,0,0,1-34.87-25.91,114.44,114.44,0,0,1-21.67-38.78A148.91,148.91,0,0,1,3183.37,742.34Z"/><path class="cls-1" d="M3543.14,626h15.64l91.91,232.68h-15.32L3606,784.07H3494.59l-29.65,74.63h-15.32Zm58.34,145.67L3551.61,640H3551l-51.81,131.65Z"/><path class="cls-1" d="M1083.24,156.28h32.81q13.46,0,22.37,4.21a37.9,37.9,0,0,1,14.23,11.22,42.76,42.76,0,0,1,7.5,16,78.27,78.27,0,0,1,2.17,18.51,69.35,69.35,0,0,1-2.73,19.84,43,43,0,0,1-8.48,15.91,39.94,39.94,0,0,1-14.52,10.59q-8.76,3.85-20.82,3.86h-32.53Zm33.09,94.8a47.78,47.78,0,0,0,14.09-2.17,34.15,34.15,0,0,0,12.83-7.3,36.83,36.83,0,0,0,9.33-13.74q3.57-8.62,3.57-21.66a65.72,65.72,0,0,0-2-17.53,43.21,43.21,0,0,0-5.33-12.27,27.81,27.81,0,0,0-7.57-7.86,37.57,37.57,0,0,0-8.83-4.41,42.74,42.74,0,0,0-9.12-2,79.26,79.26,0,0,0-8.2-.49h-25.66v89.47Z"/><path class="cls-1" d="M1185,156.28h67.31v5.33h-61.14v40.11h57.49v5.33h-57.49v44h61.84v5.33h-68Z"/><path class="cls-1" d="M1271.84,156.28h42.63a49.44,49.44,0,0,1,9.32,1,25.16,25.16,0,0,1,9.54,4,23.33,23.33,0,0,1,7.36,8.56q2.94,5.53,2.94,14.51,0,13.18-8.13,20.33t-23.28,7.16H1278v44.59h-6.17Zm6.17,50.21h35.2a28.62,28.62,0,0,0,11.42-2A19.78,19.78,0,0,0,1336.2,192a25.51,25.51,0,0,0,1.26-7.85,32,32,0,0,0-.84-6.66,20.36,20.36,0,0,0-3.36-7.43,20.07,20.07,0,0,0-7.08-6q-4.56-2.46-12.13-2.46h-36Z"/><path class="cls-1" d="M1382.62,156.28h6.73l39.54,100.13h-6.59l-12.62-32.11h-48L1349,256.41h-6.59Zm25.1,62.69-21.46-56.66H1386L1363.69,219Z"/><path class="cls-1" d="M1444.31,156.28h41.79a54.47,54.47,0,0,1,12.34,1.34,29.09,29.09,0,0,1,10.1,4.34,21,21,0,0,1,6.8,7.93,27.22,27.22,0,0,1,2.45,12.2q0,10.09-5.68,17t-15.77,8.63V208q6.87.84,10.86,3.64a17.86,17.86,0,0,1,6,6.88,27.83,27.83,0,0,1,2.53,9,87.37,87.37,0,0,1,.56,9.82v5.75a45.79,45.79,0,0,0,.28,5.26,25.62,25.62,0,0,0,.91,4.55,10.31,10.31,0,0,0,1.75,3.51h-6.87a18.22,18.22,0,0,1-2.17-8.21q-.21-4.69-.21-9.74t-.42-10a21.3,21.3,0,0,0-2.67-8.9,15.89,15.89,0,0,0-7.08-6.31q-4.83-2.39-13.67-2.39h-35.62v45.58h-6.17Zm41.79,49.22a37.11,37.11,0,0,0,10.17-1.33,21.47,21.47,0,0,0,8.06-4.13,19.76,19.76,0,0,0,5.33-7.16,25,25,0,0,0,2-10.37,20.44,20.44,0,0,0-2.1-9.61,18.6,18.6,0,0,0-5.61-6.52,23.19,23.19,0,0,0-8.13-3.65,41.45,41.45,0,0,0-9.68-1.12h-35.62V205.5Z"/><path class="cls-1" d="M1530,161.61v-5.33h76.7v5.33h-35.33v94.8h-6.17v-94.8Z"/><path class="cls-1" d="M1640.63,156.28h6.73l39.54,100.13h-6.59l-12.62-32.11h-48L1607,256.41h-6.6Zm25.1,62.69-21.45-56.66H1644L1621.7,219Z"/><path class="cls-1" d="M1702.33,156.28h8.83l39.12,93.26h.28l38.71-93.26h8.83V256.41h-6.17V163.86h-.28l-38.14,92.55h-6.17l-38.56-92.55h-.28v92.55h-6.17Z"/><path class="cls-1" d="M1824,156.28h67.31v5.33h-61.14v40.11h57.49v5.33h-57.49v44h61.84v5.33h-68Z"/><path class="cls-1" d="M1910.84,156.28h7.71l63.24,91.85h.28V156.28h6.17V256.41H1981l-63.66-92.55H1917v92.55h-6.17Z"/><path class="cls-1" d="M2003.39,161.61v-5.33h76.7v5.33h-35.34v94.8h-6.17v-94.8Z"/><path class="cls-1" d="M2180.07,206.35a64.1,64.1,0,0,1-3.22,20.54,49.28,49.28,0,0,1-9.33,16.69,43.28,43.28,0,0,1-14.93,11.15,51.74,51.74,0,0,1-40.18,0,43.27,43.27,0,0,1-15-11.15,49.28,49.28,0,0,1-9.33-16.69,67.15,67.15,0,0,1,0-41.09,49.23,49.23,0,0,1,9.33-16.68,43.27,43.27,0,0,1,15-11.15,51.62,51.62,0,0,1,40.18,0,43.28,43.28,0,0,1,14.93,11.15,49.23,49.23,0,0,1,9.33,16.68A64.16,64.16,0,0,1,2180.07,206.35Zm-89,0a58.14,58.14,0,0,0,2.8,18.23,44.65,44.65,0,0,0,8.14,14.93,38.63,38.63,0,0,0,30.57,14,38.83,38.83,0,0,0,17.45-3.78,39.5,39.5,0,0,0,13-10.17,44.65,44.65,0,0,0,8.14-14.93,60.75,60.75,0,0,0,0-36.46,44.79,44.79,0,0,0-8.14-14.94A39.47,39.47,0,0,0,2150,163a38.7,38.7,0,0,0-17.45-3.79,38.71,38.71,0,0,0-30.57,14,44.79,44.79,0,0,0-8.14,14.94A58.14,58.14,0,0,0,2091,206.35Z"/><path class="cls-1" d="M2248.78,156.28h32.81q13.47,0,22.37,4.21a37.82,37.82,0,0,1,14.23,11.22,42.76,42.76,0,0,1,7.5,16,78.27,78.27,0,0,1,2.18,18.51,69,69,0,0,1-2.74,19.84,43,43,0,0,1-8.48,15.91,39.81,39.81,0,0,1-14.51,10.59q-8.78,3.85-20.83,3.86h-32.53Zm33.09,94.8a47.85,47.85,0,0,0,14.1-2.17,34.22,34.22,0,0,0,12.83-7.3,36.93,36.93,0,0,0,9.32-13.74q3.59-8.62,3.58-21.66a65.68,65.68,0,0,0-2-17.53,43.2,43.2,0,0,0-5.32-12.27,27.84,27.84,0,0,0-7.58-7.86,37.38,37.38,0,0,0-8.83-4.41,42.74,42.74,0,0,0-9.12-2,79.1,79.1,0,0,0-8.2-.49H2255v89.47Z"/><path class="cls-1" d="M2350.58,156.28h67.31v5.33h-61.14v40.11h57.5v5.33h-57.5v44h61.84v5.33h-68Z"/><path class="cls-1" d="M1080.57,918.07v60c0,2,.1,4.26.28,6.88a43.19,43.19,0,0,0,1.41,8.06,42.33,42.33,0,0,0,3.15,8.14,24.74,24.74,0,0,0,5.54,7.15,26.31,26.31,0,0,0,8.62,5.05,36.06,36.06,0,0,0,12.42,1.89q9.26,0,15.49-2.59a25,25,0,0,0,10.1-7.43,30.08,30.08,0,0,0,5.54-11.71,65.15,65.15,0,0,0,1.68-15.44v-60H1151v60a70.05,70.05,0,0,1-1.89,16.7,35.48,35.48,0,0,1-6.38,13.46,30.28,30.28,0,0,1-12,9q-7.51,3.3-18.72,3.3a45.54,45.54,0,0,1-15.15-2.25,32.46,32.46,0,0,1-10.45-5.82,27.2,27.2,0,0,1-6.52-8.2,47.13,47.13,0,0,1-3.64-9.33,46.61,46.61,0,0,1-1.55-9.1c-.18-3-.28-5.55-.28-7.8v-60Z"/><path class="cls-1" d="M1176.91,918.07h7.71l63.24,91.84h.28V918.07h6.17v100.12H1247l-63.66-92.55h-.28v92.55h-6.17Z"/><path class="cls-1" d="M1280.26,918.07h6.17v100.12h-6.17Z"/><path class="cls-1" d="M1342.38,1012.86h.28l34.63-94.79h6.18L1346,1018.19h-7.14l-37.31-100.12H1308Z"/><path class="cls-1" d="M1398.61,918.07h67.31v5.32h-61.14v40.1h57.49v5.34h-57.49v44h61.84v5.33h-68Z"/><path class="cls-1" d="M1485.42,918.07h41.79a54.49,54.49,0,0,1,12.34,1.32,29.16,29.16,0,0,1,10.09,4.35,20.69,20.69,0,0,1,6.8,7.92,27.12,27.12,0,0,1,2.46,12.21q0,10.08-5.68,17t-15.78,8.63v.27q6.87.84,10.88,3.65a17.74,17.74,0,0,1,6,6.87,27.89,27.89,0,0,1,2.53,9,87.31,87.31,0,0,1,.55,9.81v5.75a45.45,45.45,0,0,0,.29,5.26,26.47,26.47,0,0,0,.91,4.56,10.15,10.15,0,0,0,1.76,3.51h-6.88a18.25,18.25,0,0,1-2.17-8.21q-.21-4.69-.21-9.75c0-3.35-.15-6.69-.43-10a21.2,21.2,0,0,0-2.66-8.9,15.91,15.91,0,0,0-7.08-6.32c-3.22-1.59-7.79-2.38-13.67-2.38h-35.62v45.58h-6.17Zm41.79,49.21a37,37,0,0,0,10.16-1.32,22.05,22.05,0,0,0,8.07-4.14,19.84,19.84,0,0,0,5.33-7.16,25,25,0,0,0,2-10.37,20.32,20.32,0,0,0-2.11-9.61,18.47,18.47,0,0,0-5.6-6.52,22.79,22.79,0,0,0-8.14-3.64,40.21,40.21,0,0,0-9.67-1.13h-35.62v43.89Z"/><path class="cls-1" d="M1647.38,946.67a27.09,27.09,0,0,0-2.73-11.23,23.61,23.61,0,0,0-6.66-8,29.19,29.19,0,0,0-10-4.85,47.62,47.62,0,0,0-12.69-1.6,46.71,46.71,0,0,0-9,1,28.94,28.94,0,0,0-9,3.44,20.23,20.23,0,0,0-6.8,6.6,18.6,18.6,0,0,0-2.67,10.3,15.49,15.49,0,0,0,3,9.82,21.26,21.26,0,0,0,7.71,6.09,49.91,49.91,0,0,0,10.94,3.73q6.16,1.39,12.48,2.65c4.29.85,8.49,1.85,12.55,3a42.93,42.93,0,0,1,10.94,4.78,23.61,23.61,0,0,1,7.78,7.84,23,23,0,0,1,2.95,12.14,24.22,24.22,0,0,1-3.37,13.17,28.41,28.41,0,0,1-8.49,8.69,35,35,0,0,1-11.36,4.85,52.7,52.7,0,0,1-12,1.47,69.38,69.38,0,0,1-16.55-1.89,37,37,0,0,1-13.47-6.18,29.71,29.71,0,0,1-9-11q-3.3-6.72-3.16-16.4h6.17c-.28,5.51.51,10.17,2.38,13.95a25.18,25.18,0,0,0,7.79,9.33,31.9,31.9,0,0,0,11.71,5.25,59.72,59.72,0,0,0,14.16,1.62,44.78,44.78,0,0,0,9.6-1.12,30.31,30.31,0,0,0,9.4-3.78,23.42,23.42,0,0,0,7.15-7,19.53,19.53,0,0,0,2.88-10.94,17,17,0,0,0-3-10.32,21.91,21.91,0,0,0-7.78-6.45,51.11,51.11,0,0,0-10.94-3.93c-4.07-1-8.25-1.89-12.55-2.72s-8.37-1.82-12.48-3a42.72,42.72,0,0,1-10.94-4.56,23.33,23.33,0,0,1-7.71-7.43q-3-4.56-3-11.71a23.65,23.65,0,0,1,3-12.27,24.78,24.78,0,0,1,7.85-8.27,34.73,34.73,0,0,1,10.87-4.63,49.66,49.66,0,0,1,11.92-1.47,58,58,0,0,1,14.65,1.76,34.76,34.76,0,0,1,11.92,5.46,27.35,27.35,0,0,1,8.2,9.6,34,34,0,0,1,3.51,14.17Z"/><path class="cls-1" d="M1678.64,918.07h6.17v100.12h-6.17Z"/><path class="cls-1" d="M1710.76,918.07h32.82q13.45,0,22.37,4.2a37.82,37.82,0,0,1,14.23,11.22,42.64,42.64,0,0,1,7.5,16,78.33,78.33,0,0,1,2.18,18.51,69,69,0,0,1-2.74,19.84,43,43,0,0,1-8.48,15.92,39.63,39.63,0,0,1-14.52,10.58q-8.76,3.87-20.82,3.87h-32.54Zm33.1,94.79a47.91,47.91,0,0,0,14.1-2.18,34.39,34.39,0,0,0,12.83-7.28,37.21,37.21,0,0,0,9.32-13.75q3.59-8.64,3.58-21.67a65.73,65.73,0,0,0-2-17.53,43.2,43.2,0,0,0-5.32-12.27,27.75,27.75,0,0,0-7.58-7.84,37.15,37.15,0,0,0-8.84-4.43,42.46,42.46,0,0,0-9.11-2,76.78,76.78,0,0,0-8.2-.5h-25.67v89.47Z"/><path class="cls-1" d="M1838.94,918.07h6.73l39.54,100.12h-6.59L1866,986.07h-48l-12.76,32.12h-6.59Zm25.1,62.67-21.46-56.65h-.27L1820,980.74Z"/><path class="cls-1" d="M1900.63,918.07h32.82q13.46,0,22.36,4.2a37.86,37.86,0,0,1,14.24,11.22,42.62,42.62,0,0,1,7.49,16,77.82,77.82,0,0,1,2.18,18.51,69.3,69.3,0,0,1-2.73,19.84,43.29,43.29,0,0,1-8.48,15.92,39.8,39.8,0,0,1-14.52,10.58q-8.77,3.87-20.82,3.87h-32.54Zm33.1,94.79a47.8,47.8,0,0,0,14.09-2.18,34.23,34.23,0,0,0,12.83-7.28,37.11,37.11,0,0,0,9.33-13.75q3.57-8.64,3.57-21.67a66.18,66.18,0,0,0-2-17.53,43.49,43.49,0,0,0-5.33-12.27,27.72,27.72,0,0,0-7.57-7.84,37.34,37.34,0,0,0-8.84-4.43,42.46,42.46,0,0,0-9.11-2,77.1,77.1,0,0,0-8.21-.5H1906.8v89.47Z"/><path class="cls-1" d="M2049.69,918.07h32.82q13.45,0,22.36,4.2a37.78,37.78,0,0,1,14.24,11.22,42.79,42.79,0,0,1,7.5,16,78.33,78.33,0,0,1,2.17,18.51,69.3,69.3,0,0,1-2.73,19.84,43.14,43.14,0,0,1-8.48,15.92,39.8,39.8,0,0,1-14.52,10.58q-8.78,3.87-20.82,3.87h-32.54Zm33.1,94.79a47.8,47.8,0,0,0,14.09-2.18,34.23,34.23,0,0,0,12.83-7.28,37.11,37.11,0,0,0,9.33-13.75q3.57-8.64,3.57-21.67a65.77,65.77,0,0,0-2-17.53,43.21,43.21,0,0,0-5.33-12.27,27.59,27.59,0,0,0-7.57-7.84,37.15,37.15,0,0,0-8.84-4.43,42.46,42.46,0,0,0-9.11-2,76.8,76.8,0,0,0-8.21-.5h-25.66v89.47Z"/><path class="cls-1" d="M2151.5,918.07h67.31v5.32h-61.14v40.1h57.49v5.34h-57.49v44h61.84v5.33h-68Z"/><path class="cls-1" d="M2350.91,946.67a26.78,26.78,0,0,0-2.74-11.23,23.36,23.36,0,0,0-6.65-8,29.19,29.19,0,0,0-10-4.85,47.72,47.72,0,0,0-12.69-1.6,46.54,46.54,0,0,0-9,1,28.81,28.81,0,0,0-9,3.44A20.11,20.11,0,0,0,2294,932a18.52,18.52,0,0,0-2.68,10.3,15.55,15.55,0,0,0,3,9.82,21.26,21.26,0,0,0,7.71,6.09,50.09,50.09,0,0,0,10.94,3.73q6.16,1.39,12.48,2.65t12.55,3a42.56,42.56,0,0,1,10.93,4.78,23.64,23.64,0,0,1,7.79,7.84,23,23,0,0,1,3,12.14,24.13,24.13,0,0,1-3.37,13.17,28.37,28.37,0,0,1-8.48,8.69,35.14,35.14,0,0,1-11.36,4.85,53,53,0,0,1-12,1.47,69.5,69.5,0,0,1-16.55-1.89,36.9,36.9,0,0,1-13.46-6.18,29.66,29.66,0,0,1-9.05-11q-3.3-6.72-3.16-16.4h6.17c-.28,5.51.52,10.17,2.39,13.95a25.25,25.25,0,0,0,7.78,9.33,32.2,32.2,0,0,0,11.71,5.25,59.92,59.92,0,0,0,14.17,1.62,44.78,44.78,0,0,0,9.6-1.12,30.31,30.31,0,0,0,9.4-3.78,23.42,23.42,0,0,0,7.15-7,19.53,19.53,0,0,0,2.87-10.94c0-4.21-1-7.65-2.94-10.32a21.91,21.91,0,0,0-7.78-6.45,51.11,51.11,0,0,0-10.94-3.93c-4.07-1-8.25-1.89-12.55-2.72s-8.36-1.82-12.49-3a42.72,42.72,0,0,1-10.92-4.56,23.39,23.39,0,0,1-7.73-7.43q-2.94-4.56-2.94-11.71a23.65,23.65,0,0,1,3-12.27,24.59,24.59,0,0,1,7.85-8.27,34.69,34.69,0,0,1,10.88-4.63,49.52,49.52,0,0,1,11.91-1.47,58,58,0,0,1,14.65,1.76,34.67,34.67,0,0,1,11.92,5.46,27.47,27.47,0,0,1,8.21,9.6,34.11,34.11,0,0,1,3.51,14.17Z"/><path class="cls-1" d="M2411.91,918.07h6.73l39.54,100.12h-6.59L2439,986.07h-48l-12.76,32.12h-6.59Zm25.1,62.67-21.46-56.65h-.27L2393,980.74Z"/><path class="cls-1" d="M2473.6,918.07h7.71l63.25,91.84h.28V918.07H2551v100.12h-7.3l-63.66-92.55h-.27v92.55h-6.18Z"/><path class="cls-1" d="M2566.16,923.39v-5.32h76.7v5.32h-35.34v94.8h-6.17v-94.8Z"/><path class="cls-1" d="M2658,918.07h6.17v100.12H2658Z"/><path class="cls-1" d="M2719.85,918.07h6.74l39.53,100.12h-6.58l-12.63-32.12h-48l-12.76,32.12h-6.59Zm25.1,62.67-21.46-56.65h-.27l-22.29,56.65Z"/><path class="cls-1" d="M2775.38,968.68a64.83,64.83,0,0,1,3.15-20.25,51.26,51.26,0,0,1,9.19-16.9A43.84,43.84,0,0,1,2802.51,920a45.41,45.41,0,0,1,20.13-4.28,47.85,47.85,0,0,1,14.72,2.24,39.64,39.64,0,0,1,12.55,6.6,39.2,39.2,0,0,1,9.32,10.51,37.67,37.67,0,0,1,5.05,14h-5.88q-3.53-13.2-12.63-20.63t-23-7.42a37.72,37.72,0,0,0-30.72,14.43,47,47,0,0,0-7.85,15.22,62.82,62.82,0,0,0-.06,36,43,43,0,0,0,7.71,14.79,36.76,36.76,0,0,0,12.83,10,41.18,41.18,0,0,0,18.09,3.71,42.34,42.34,0,0,0,16.13-2.94A34.29,34.29,0,0,0,2851,1004a34.73,34.73,0,0,0,7.5-12.84,45.54,45.54,0,0,0,2.11-16.76h-36.88V969.1H2866v49.09h-5.33V996.88h-.29a30.42,30.42,0,0,1-5.46,9.87,34.28,34.28,0,0,1-8.63,7.44,43.43,43.43,0,0,1-11.08,4.69,50.46,50.46,0,0,1-32.81-2.38,43,43,0,0,1-14.79-11.08,47.54,47.54,0,0,1-9.12-16.47A65.28,65.28,0,0,1,2775.38,968.68Z"/><path class="cls-1" d="M2981.93,968.12a64.06,64.06,0,0,1-3.22,20.54,49.16,49.16,0,0,1-9.32,16.69,43.29,43.29,0,0,1-14.94,11.15,51.59,51.59,0,0,1-40.17,0,43.09,43.09,0,0,1-15-11.15,49.33,49.33,0,0,1-9.32-16.69,66.92,66.92,0,0,1,0-41.08,49.29,49.29,0,0,1,9.32-16.68,43.09,43.09,0,0,1,15-11.15,51.59,51.59,0,0,1,40.17,0,43.29,43.29,0,0,1,14.94,11.15,49.12,49.12,0,0,1,9.32,16.68A64.15,64.15,0,0,1,2981.93,968.12Zm-89,0a58,58,0,0,0,2.81,18.24,44.45,44.45,0,0,0,8.13,14.93,38.71,38.71,0,0,0,30.57,14,38.72,38.72,0,0,0,17.46-3.79,39.44,39.44,0,0,0,13-10.16,44.8,44.8,0,0,0,8.13-14.93,60.57,60.57,0,0,0,0-36.47,44.8,44.8,0,0,0-8.13-14.93,39.6,39.6,0,0,0-13-10.17A38.85,38.85,0,0,0,2934.4,921a38.63,38.63,0,0,0-30.57,14,44.45,44.45,0,0,0-8.13,14.93A57.9,57.9,0,0,0,2892.89,968.12Z"/><path class="cls-1" d="M3050.66,918.07h32.82q13.47,0,22.37,4.2a37.9,37.9,0,0,1,14.23,11.22,43,43,0,0,1,7.51,16,78.33,78.33,0,0,1,2.16,18.51,69,69,0,0,1-2.73,19.84,42.87,42.87,0,0,1-8.49,15.92,39.68,39.68,0,0,1-14.51,10.58q-8.76,3.87-20.82,3.87h-32.54Zm33.1,94.79a47.8,47.8,0,0,0,14.09-2.18,34.27,34.27,0,0,0,12.84-7.28,37,37,0,0,0,9.32-13.75q3.59-8.64,3.58-21.67a66.15,66.15,0,0,0-2-17.53,43.21,43.21,0,0,0-5.33-12.27,27.46,27.46,0,0,0-7.57-7.84,37.15,37.15,0,0,0-8.84-4.43,42.77,42.77,0,0,0-9.1-2,77,77,0,0,0-8.21-.5h-25.66v89.47Z"/><path class="cls-1" d="M3152.47,918.07h67.31v5.32h-61.14v40.1h57.49v5.34h-57.49v44h61.85v5.33h-68Z"/><path class="cls-1" d="M3282.74,968.12a64.15,64.15,0,0,1,3.22-20.54,49.14,49.14,0,0,1,9.33-16.68,43,43,0,0,1,15-11.15,47.89,47.89,0,0,1,20.12-4.07,45.1,45.1,0,0,1,15.28,2.32,38.88,38.88,0,0,1,10.88,5.74,34.11,34.11,0,0,1,7.21,7.5,41,41,0,0,1,4.29,7.64,38.15,38.15,0,0,1,2,6.18c.37,1.72.56,2.68.56,2.87h-6.16a30.18,30.18,0,0,0-4.07-11.29,31.27,31.27,0,0,0-7.72-8.48,34.42,34.42,0,0,0-10.3-5.33,39,39,0,0,0-12-1.82,38.59,38.59,0,0,0-30.56,14,44.47,44.47,0,0,0-8.14,14.93,60.57,60.57,0,0,0,0,36.47,44.47,44.47,0,0,0,8.14,14.93,38.67,38.67,0,0,0,30.56,14,31.65,31.65,0,0,0,13.68-3,37.32,37.32,0,0,0,11.15-8,39.4,39.4,0,0,0,7.64-11.5,38.92,38.92,0,0,0,3.29-13.53h6.17a48.84,48.84,0,0,1-4.42,16.55,46.49,46.49,0,0,1-9.11,13.11,39.74,39.74,0,0,1-28.4,11.71,47.89,47.89,0,0,1-20.12-4.07,43,43,0,0,1-15-11.15,49.18,49.18,0,0,1-9.33-16.69A64.06,64.06,0,0,1,3282.74,968.12Z"/><path class="cls-1" d="M3393.52,918.07h6.17v45.42h63.94V918.07h6.18v100.12h-6.18V968.83h-63.94v49.36h-6.17Z"/><path class="cls-1" d="M3495.76,918.07h6.17v100.12h-6.17Z"/><path class="cls-1" d="M3527.87,918.07h6.18v94.79h56.79v5.33h-63Z"/><path class="cls-1" d="M3606.26,918.07h67.3v5.32h-61.13v40.1h57.49v5.34h-57.49v44h61.85v5.33h-68Z"/><path class="cls-1" d="M957.92,1022a3.07,3.07,0,0,1-3.18-2.94V156.84a3.2,3.2,0,0,1,6.37,0V1019.1A3.08,3.08,0,0,1,957.92,1022Z"/></svg>