<svg id="Capa_1" data-name="Capa 1" xmlns="http://www.w3.org/2000/svg" viewBox="0 0 3856 1216"><defs><style>.cls-1{fill:#f18825;}.cls-2{fill:#706f6f;}.cls-3{fill:#1d1d1b;}.cls-4{fill:#e30613;}.cls-5,.cls-6{fill:#cd9d3f;}.cls-6{fill-rule:evenodd;}.cls-7{fill:#004f91;}.cls-8{fill:#c6c6c6;}.cls-9{fill:#fff;}.cls-10{fill:#ffed00;}</style></defs><title>isotipo-diinf-color</title><path class="cls-1" d="M1105.38,328.38h14.34V561.06h-14.33Z"/><path class="cls-1" d="M1219.11,328.38H1237l147,213.46h.65V328.39H1399V561.07h-16.94L1234.1,346h-.65V561.06h-14.34Z"/><path class="cls-1" d="M1489.92,446a149.88,149.88,0,0,1,7.33-47.09,119.51,119.51,0,0,1,21.34-39.27A102.09,102.09,0,0,1,1553,332.8q20.37-9.94,46.77-9.94a111.75,111.75,0,0,1,34.21,5.21,91.17,91.17,0,0,1,50.84,39.76,88.59,88.59,0,0,1,11.74,32.59h-13.69q-8.16-30.63-29.33-47.9t-53.45-17.28q-23.46,0-41.38,9.12a89.13,89.13,0,0,0-30,24.44,108.09,108.09,0,0,0-18.25,35.36,146.55,146.55,0,0,0-.16,83.75,100.51,100.51,0,0,0,17.92,34.38,85.53,85.53,0,0,0,29.82,23.3q17.92,8.64,42,8.64,20.85,0,37.48-6.84a79.29,79.29,0,0,0,28.18-19.23,80.71,80.71,0,0,0,17.44-29.81q5.86-17.43,4.88-39h-85.7V447h98.09V561.08h-12.38V511.54h-.66a71.07,71.07,0,0,1-12.7,23,78.83,78.83,0,0,1-20,17.27,101.6,101.6,0,0,1-25.74,10.92,110.66,110.66,0,0,1-29.49,3.9q-26.4,0-46.77-9.45a100.45,100.45,0,0,1-34.38-25.74,110.49,110.49,0,0,1-21.18-38.3A151,151,0,0,1,1489.92,446Z"/><path class="cls-1" d="M1798.2,328.41h156.42V340.8H1812.54V434h133.61v12.38H1812.54V548.7h143.71v12.38H1798.2Z"/><path class="cls-1" d="M2039,328.42h17.92l147,213.45h.65V328.42h14.34V561.1H2202L2054,346h-.65V561.09H2039Z"/><path class="cls-1" d="M2318.3,328.43h14.34V561.1h-14.33Z"/><path class="cls-1" d="M2432,328.43h156.42v12.38H2446.37V434H2580v12.39H2446.37V548.73h143.71v12.38H2432Z"/><path class="cls-1" d="M2672.85,328.44H2770a127.18,127.18,0,0,1,28.68,3.09,67.64,67.64,0,0,1,23.46,10.11,48.25,48.25,0,0,1,15.8,18.41q5.7,11.42,5.71,28.35,0,23.46-13.2,39.59t-36.66,20v.65q16,2,25.26,8.48a41.48,41.48,0,0,1,13.85,16,64.48,64.48,0,0,1,5.86,20.85A200.63,200.63,0,0,1,2840,516.8v13.37a106.63,106.63,0,0,0,.65,12.22,60.32,60.32,0,0,0,2.12,10.59,23.72,23.72,0,0,0,4.07,8.14h-16a42.37,42.37,0,0,1-5-19.06q-.48-10.92-.49-22.65t-1-23.3a49.48,49.48,0,0,0-6.19-20.69q-5.22-9.12-16.46-14.67T2770,455.21H2687.2V561.12h-14.34ZM2770,442.83a86.12,86.12,0,0,0,23.63-3.1,50.13,50.13,0,0,0,18.73-9.61,45.7,45.7,0,0,0,12.39-16.62q4.56-10.1,4.56-24.11,0-13-4.89-22.33a43.11,43.11,0,0,0-13-15.15,53.59,53.59,0,0,0-18.9-8.47,95,95,0,0,0-22.48-2.61h-82.78v102Z"/><path class="cls-1" d="M2974.29,261.32h16.62l-43.67,45.62h-12Zm-37.8,67.13h14.34V561.13H2936.5Z"/><path class="cls-1" d="M3119.31,328.46H3135l91.9,232.68h-15.31l-29.33-74.63H3070.76l-29.66,74.62h-15.31Zm58.33,145.67-49.86-131.66h-.65l-51.81,131.65Z"/><path class="cls-1" d="M1105.09,625.92h14.34V858.6H1105.1Z"/><path class="cls-1" d="M1218.82,625.92h17.92l147,213.46h.65V625.93h14.34V858.61h-16.94l-148-215.09h-.65V858.6h-14.34Z"/><path class="cls-1" d="M1498.1,625.93h146v12.38H1512.44v93.2h118.62v12.39H1512.44V858.61H1498.1Z"/><path class="cls-1" d="M1934.78,742.29a148.91,148.91,0,0,1-7.5,47.74,114.61,114.61,0,0,1-21.67,38.78,100.58,100.58,0,0,1-34.7,25.9q-20.54,9.45-46.6,9.45t-46.77-9.45a100.41,100.41,0,0,1-34.87-25.91A114.52,114.52,0,0,1,1721,790a155.89,155.89,0,0,1,0-95.48,114.44,114.44,0,0,1,21.67-38.78,100.33,100.33,0,0,1,34.87-25.9q20.68-9.45,46.76-9.45t46.6,9.45a100.77,100.77,0,0,1,34.71,25.91,114.61,114.61,0,0,1,21.67,38.78A148.91,148.91,0,0,1,1934.78,742.29Zm-206.94,0a135,135,0,0,0,6.52,42.37,104.07,104.07,0,0,0,18.91,34.7,91.4,91.4,0,0,0,30.3,23.63q17.92,8.81,40.74,8.8t40.57-8.8A91.85,91.85,0,0,0,1895,819.36a104,104,0,0,0,18.9-34.71,140.9,140.9,0,0,0,0-84.73,104.42,104.42,0,0,0-18.9-34.7,92,92,0,0,0-30.15-23.63q-17.76-8.8-40.57-8.8t-40.73,8.8a91.41,91.41,0,0,0-30.31,23.62,104,104,0,0,0-18.9,34.71A135,135,0,0,0,1727.84,742.28Z"/><path class="cls-1" d="M2023.74,626h97.11a126.53,126.53,0,0,1,28.68,3.1,67.36,67.36,0,0,1,23.46,10.1,48.37,48.37,0,0,1,15.81,18.41q5.7,11.41,5.7,28.35,0,23.48-13.2,39.6t-36.66,20v.65q16,1.95,25.26,8.47a41.4,41.4,0,0,1,13.85,16,64.55,64.55,0,0,1,5.87,20.86,202.81,202.81,0,0,1,1.3,22.81v13.36a108.82,108.82,0,0,0,.65,12.22,61.25,61.25,0,0,0,2.12,10.59,23.69,23.69,0,0,0,4.08,8.15h-16a42.19,42.19,0,0,1-5.05-19.07q-.49-10.91-.49-22.64t-1-23.31a49.71,49.71,0,0,0-6.19-20.69q-5.22-9.12-16.46-14.66t-31.78-5.54h-82.77V858.63h-14.33Zm97.11,114.38a86.46,86.46,0,0,0,23.63-3.09,50.19,50.19,0,0,0,18.74-9.62A45.72,45.72,0,0,0,2175.6,711q4.56-10.11,4.56-24.12,0-13-4.89-22.32a43.11,43.11,0,0,0-13-15.16,53.59,53.59,0,0,0-18.9-8.47,95.07,95.07,0,0,0-22.49-2.61h-82.77v102Z"/><path class="cls-1" d="M2287.37,626h20.53l90.93,216.71h.65L2489.42,626H2510V858.65h-14.34V643.57H2495l-88.63,215.08H2392l-89.63-215.09h-.65V858.64h-14.34Z"/><path class="cls-1" d="M2678.43,626h15.64L2786,858.66h-15.31L2741.33,784H2629.87l-29.65,74.62h-15.31Zm58.33,145.67L2686.9,640h-.65l-51.81,131.66Zm-19.56-212.8h16.62l-43.66,45.62H2678.1Z"/><path class="cls-1" d="M2835.82,638.37V626h178.26v12.38H2932V858.67h-14.34V638.37Z"/><path class="cls-1" d="M3088.38,626h14.34V858.67h-14.34Z"/><path class="cls-1" d="M3193.31,742.34a148.91,148.91,0,0,1,7.5-47.74,114.44,114.44,0,0,1,21.67-38.78,100.33,100.33,0,0,1,34.87-25.9q20.68-9.45,46.76-9.45,20.54,0,35.52,5.38a90.87,90.87,0,0,1,25.26,13.36,79.27,79.27,0,0,1,16.78,17.43,97,97,0,0,1,9.94,17.76,87.47,87.47,0,0,1,4.73,14.34c.86,4,1.3,6.25,1.3,6.68H3383.3a69.49,69.49,0,0,0-9.45-26.23,72.44,72.44,0,0,0-17.92-19.72,79.62,79.62,0,0,0-24-12.38,90.71,90.71,0,0,0-27.86-4.24q-22.82,0-40.73,8.8a91.41,91.41,0,0,0-30.31,23.62,104,104,0,0,0-18.9,34.71,140.9,140.9,0,0,0,0,84.73,104,104,0,0,0,18.9,34.7A91.53,91.53,0,0,0,3263.38,843q17.92,8.81,40.74,8.8a73.33,73.33,0,0,0,31.77-7,86.93,86.93,0,0,0,25.91-18.57,92.08,92.08,0,0,0,17.76-26.72,90.86,90.86,0,0,0,7.65-31.45h14.34a114.27,114.27,0,0,1-10.26,38.46A107.47,107.47,0,0,1,3370.11,837a92.88,92.88,0,0,1-29.82,20,91.89,91.89,0,0,1-36.17,7.17q-26.09,0-46.77-9.45a100.35,100.35,0,0,1-34.87-25.91,114.61,114.61,0,0,1-21.67-38.78A148.91,148.91,0,0,1,3193.31,742.34Z"/><path class="cls-1" d="M3553.08,626h15.65l91.9,232.68h-15.32L3616,784.07H3504.53l-29.65,74.63h-15.32Zm58.34,145.67L3561.56,640h-.65l-51.82,131.65Z"/><path class="cls-2" d="M1093.18,156.28H1126q13.45,0,22.36,4.21a37.75,37.75,0,0,1,14.23,11.22,42.63,42.63,0,0,1,7.51,16,78.79,78.79,0,0,1,2.17,18.51,69.35,69.35,0,0,1-2.73,19.84,43.19,43.19,0,0,1-8.49,15.91,39.81,39.81,0,0,1-14.51,10.59q-8.76,3.85-20.83,3.86h-32.53Zm33.1,94.8a47.78,47.78,0,0,0,14.09-2.17,34.22,34.22,0,0,0,12.83-7.3,36.93,36.93,0,0,0,9.32-13.74q3.59-8.62,3.58-21.66a66.13,66.13,0,0,0-2-17.53,43.49,43.49,0,0,0-5.33-12.27,27.81,27.81,0,0,0-7.57-7.86,37.64,37.64,0,0,0-8.84-4.41,42.79,42.79,0,0,0-9.11-2,79.44,79.44,0,0,0-8.21-.49h-25.66v89.47Z"/><path class="cls-2" d="M1195,156.28h67.3v5.33h-61.13v40.11h57.49v5.33h-57.49v44H1263v5.33h-68Z"/><path class="cls-2" d="M1281.78,156.28h42.63a49.54,49.54,0,0,1,9.33,1,25,25,0,0,1,9.53,4,23.24,23.24,0,0,1,7.36,8.56q3,5.53,2.95,14.51,0,13.18-8.13,20.33t-23.28,7.16H1288v44.59h-6.17Zm6.17,50.21h35.2a28.63,28.63,0,0,0,11.43-2A19.85,19.85,0,0,0,1346.15,192a25.51,25.51,0,0,0,1.26-7.85,32,32,0,0,0-.84-6.66,20.23,20.23,0,0,0-3.37-7.43,20,20,0,0,0-7.08-6q-4.56-2.46-12.13-2.46h-36Z"/><path class="cls-2" d="M1392.56,156.28h6.73l39.55,100.13h-6.59l-12.62-32.11h-48l-12.76,32.11h-6.59Zm25.1,62.69-21.45-56.66h-.28L1373.63,219Z"/><path class="cls-2" d="M1454.26,156.28h41.79a54.53,54.53,0,0,1,12.34,1.34,29,29,0,0,1,10.09,4.34,20.79,20.79,0,0,1,6.8,7.93,27.08,27.08,0,0,1,2.46,12.2q0,10.09-5.68,17t-15.78,8.63V208q6.87.84,10.87,3.64a17.86,17.86,0,0,1,6,6.88,27.58,27.58,0,0,1,2.52,9,85.09,85.09,0,0,1,.57,9.82v5.75a45.79,45.79,0,0,0,.28,5.26,25.62,25.62,0,0,0,.91,4.55,10.31,10.31,0,0,0,1.75,3.51h-6.87a18.22,18.22,0,0,1-2.17-8.21q-.21-4.69-.21-9.74t-.43-10a21.44,21.44,0,0,0-2.66-8.9,16,16,0,0,0-7.08-6.31q-4.85-2.39-13.67-2.39h-35.62v45.58h-6.17Zm41.79,49.22a37,37,0,0,0,10.16-1.33,21.59,21.59,0,0,0,8.07-4.13,19.74,19.74,0,0,0,5.32-7.16,25,25,0,0,0,2-10.37,20.32,20.32,0,0,0-2.11-9.61,18.57,18.57,0,0,0-5.6-6.52,23.16,23.16,0,0,0-8.14-3.65,41.3,41.3,0,0,0-9.67-1.12h-35.62V205.5Z"/><path class="cls-2" d="M1539.94,161.61v-5.33h76.7v5.33H1581.3v94.8h-6.17v-94.8Z"/><path class="cls-2" d="M1650.58,156.28h6.73l39.54,100.13h-6.59l-12.62-32.11h-48l-12.76,32.11h-6.59Zm25.1,62.69-21.46-56.66h-.28L1631.65,219Z"/><path class="cls-2" d="M1712.27,156.28h8.84l39.12,93.26h.28l38.7-93.26h8.84V256.41h-6.17V163.86h-.28l-38.14,92.55h-6.17l-38.57-92.55h-.28v92.55h-6.17Z"/><path class="cls-2" d="M1834,156.28h67.31v5.33h-61.14v40.11h57.49v5.33h-57.49v44H1902v5.33h-68Z"/><path class="cls-2" d="M1920.79,156.28h7.71l63.24,91.85h.28V156.28h6.17V256.41h-7.29l-63.66-92.55H1927v92.55h-6.17Z"/><path class="cls-2" d="M2013.33,161.61v-5.33H2090v5.33H2054.7v94.8h-6.17v-94.8Z"/><path class="cls-2" d="M2190,206.35a64.1,64.1,0,0,1-3.23,20.54,49.26,49.26,0,0,1-9.32,16.69,43.42,43.42,0,0,1-14.94,11.15,47.4,47.4,0,0,1-20.05,4.06,47.92,47.92,0,0,1-20.12-4.06,43.09,43.09,0,0,1-15-11.15,49.28,49.28,0,0,1-9.33-16.69,67.15,67.15,0,0,1,0-41.09,49.23,49.23,0,0,1,9.33-16.68,43.09,43.09,0,0,1,15-11.15,47.92,47.92,0,0,1,20.12-4.07,47.4,47.4,0,0,1,20.05,4.07,43.42,43.42,0,0,1,14.94,11.15,49.21,49.21,0,0,1,9.32,16.68A64.17,64.17,0,0,1,2190,206.35Zm-89,0a58.14,58.14,0,0,0,2.8,18.23,44.8,44.8,0,0,0,8.13,14.93,38.63,38.63,0,0,0,30.57,14,38.91,38.91,0,0,0,17.46-3.78,39.6,39.6,0,0,0,13-10.17,44.8,44.8,0,0,0,8.13-14.93,60.54,60.54,0,0,0,0-36.46,45,45,0,0,0-8.13-14.94,39.57,39.57,0,0,0-13-10.16,38.78,38.78,0,0,0-17.46-3.79,38.71,38.71,0,0,0-30.57,14,45,45,0,0,0-8.13,14.94A58.14,58.14,0,0,0,2101,206.35Z"/><path class="cls-2" d="M2258.73,156.28h32.81q13.47,0,22.37,4.21a37.82,37.82,0,0,1,14.23,11.22,42.76,42.76,0,0,1,7.5,16,78.27,78.27,0,0,1,2.18,18.51,69.34,69.34,0,0,1-2.74,19.84A43,43,0,0,1,2326.6,242a39.85,39.85,0,0,1-14.52,10.59q-8.76,3.85-20.82,3.86h-32.53Zm33.09,94.8a47.85,47.85,0,0,0,14.1-2.17,34.3,34.3,0,0,0,12.83-7.3,36.93,36.93,0,0,0,9.32-13.74q3.57-8.62,3.58-21.66a65.68,65.68,0,0,0-2-17.53,42.93,42.93,0,0,0-5.33-12.27,27.67,27.67,0,0,0-7.57-7.86,37.38,37.38,0,0,0-8.83-4.41,42.74,42.74,0,0,0-9.12-2,79.26,79.26,0,0,0-8.2-.49H2264.9v89.47Z"/><path class="cls-2" d="M2360.53,156.28h67.31v5.33H2366.7v40.11h57.49v5.33H2366.7v44h61.84v5.33h-68Z"/><path class="cls-2" d="M1090.52,918.07v60c0,2,.09,4.26.28,6.88a43.15,43.15,0,0,0,1.4,8.06,42.38,42.38,0,0,0,3.16,8.14,24.57,24.57,0,0,0,5.54,7.15,26.21,26.21,0,0,0,8.62,5.05,36,36,0,0,0,12.41,1.89q9.25,0,15.5-2.59a25.06,25.06,0,0,0,10.09-7.43,29.94,29.94,0,0,0,5.54-11.71,65.15,65.15,0,0,0,1.68-15.44v-60h6.17v60a70.05,70.05,0,0,1-1.89,16.7,35.34,35.34,0,0,1-6.38,13.46,30.28,30.28,0,0,1-12,9q-7.5,3.3-18.72,3.3a45.44,45.44,0,0,1-15.14-2.25,32.35,32.35,0,0,1-10.45-5.82,27.2,27.2,0,0,1-6.52-8.2,46.57,46.57,0,0,1-3.65-9.33,45.84,45.84,0,0,1-1.54-9.1q-.29-4.43-.28-7.8v-60Z"/><path class="cls-2" d="M1186.85,918.07h7.72l63.24,91.84h.28V918.07h6.17v100.12H1257l-63.67-92.55H1193v92.55h-6.17Z"/><path class="cls-2" d="M1290.2,918.07h6.17v100.12h-6.17Z"/><path class="cls-2" d="M1352.33,1012.86h.28l34.63-94.79h6.18L1356,1018.19h-7.15l-37.3-100.12H1318Z"/><path class="cls-2" d="M1408.55,918.07h67.32v5.32h-61.15v40.1h57.5v5.34h-57.5v44h61.85v5.33h-68Z"/><path class="cls-2" d="M1495.36,918.07h41.79a54.58,54.58,0,0,1,12.35,1.32,29.33,29.33,0,0,1,10.09,4.35,20.77,20.77,0,0,1,6.8,7.92,27.12,27.12,0,0,1,2.46,12.21q0,10.08-5.69,17t-15.77,8.63v.27q6.87.84,10.87,3.65a17.85,17.85,0,0,1,6,6.87,27.63,27.63,0,0,1,2.52,9,87.33,87.33,0,0,1,.56,9.81v5.75a47.89,47.89,0,0,0,.28,5.26,25.54,25.54,0,0,0,.92,4.56,10.31,10.31,0,0,0,1.75,3.51h-6.87a18.13,18.13,0,0,1-2.17-8.21q-.23-4.69-.22-9.75t-.42-10a21.21,21.21,0,0,0-2.67-8.9,15.93,15.93,0,0,0-7.07-6.32q-4.85-2.38-13.68-2.38h-35.62v45.58h-6.17Zm41.79,49.21a37.12,37.12,0,0,0,10.17-1.32,22.05,22.05,0,0,0,8.07-4.14,19.94,19.94,0,0,0,5.32-7.16,25,25,0,0,0,2-10.37,20.44,20.44,0,0,0-2.11-9.61,18.5,18.5,0,0,0-5.61-6.52,22.74,22.74,0,0,0-8.13-3.64,40.29,40.29,0,0,0-9.68-1.13h-35.62v43.89Z"/><path class="cls-2" d="M1657.33,946.67a27.24,27.24,0,0,0-2.74-11.23,23.5,23.5,0,0,0-6.66-8,29.19,29.19,0,0,0-10-4.85,47.62,47.62,0,0,0-12.69-1.6,46.62,46.62,0,0,0-9,1,28.9,28.9,0,0,0-9,3.44,20.23,20.23,0,0,0-6.8,6.6,18.68,18.68,0,0,0-2.66,10.3,15.55,15.55,0,0,0,2.94,9.82,21.43,21.43,0,0,0,7.71,6.09,50.28,50.28,0,0,0,10.94,3.73q6.17,1.39,12.49,2.65t12.55,3a42.71,42.71,0,0,1,10.93,4.78,23.64,23.64,0,0,1,7.79,7.84,23,23,0,0,1,2.94,12.14,24.13,24.13,0,0,1-3.37,13.17,28.26,28.26,0,0,1-8.48,8.69,35,35,0,0,1-11.36,4.85,52.85,52.85,0,0,1-12,1.47,69.24,69.24,0,0,1-16.54-1.89,37,37,0,0,1-13.47-6.18,29.64,29.64,0,0,1-9-11q-3.3-6.72-3.16-16.4h6.17c-.28,5.51.52,10.17,2.39,13.95a25.16,25.16,0,0,0,7.78,9.33,32.05,32.05,0,0,0,11.71,5.25,59.78,59.78,0,0,0,14.16,1.62,44.87,44.87,0,0,0,9.61-1.12,30.25,30.25,0,0,0,9.39-3.78,23.34,23.34,0,0,0,7.16-7,19.53,19.53,0,0,0,2.87-10.94,16.94,16.94,0,0,0-2.95-10.32,21.82,21.82,0,0,0-7.78-6.45,50.72,50.72,0,0,0-10.94-3.93c-4.07-1-8.25-1.89-12.55-2.72s-8.37-1.82-12.48-3a42.87,42.87,0,0,1-10.94-4.56,23.52,23.52,0,0,1-7.71-7.43q-2.94-4.56-2.94-11.71a23.75,23.75,0,0,1,3-12.27,24.71,24.71,0,0,1,7.86-8.27,34.57,34.57,0,0,1,10.86-4.63,49.73,49.73,0,0,1,11.92-1.47,58.15,58.15,0,0,1,14.66,1.76,34.76,34.76,0,0,1,11.92,5.46,27.35,27.35,0,0,1,8.2,9.6,34.11,34.11,0,0,1,3.5,14.17Z"/><path class="cls-2" d="M1688.59,918.07h6.17v100.12h-6.17Z"/><path class="cls-2" d="M1720.71,918.07h32.82q13.46,0,22.36,4.2a37.86,37.86,0,0,1,14.24,11.22,42.62,42.62,0,0,1,7.49,16A77.82,77.82,0,0,1,1799.8,968a69.3,69.3,0,0,1-2.73,19.84,43.29,43.29,0,0,1-8.48,15.92,39.8,39.8,0,0,1-14.52,10.58q-8.77,3.87-20.82,3.87h-32.54Zm33.1,94.79a47.8,47.8,0,0,0,14.09-2.18,34.23,34.23,0,0,0,12.83-7.28,37.11,37.11,0,0,0,9.33-13.75q3.57-8.64,3.57-21.67a66.18,66.18,0,0,0-2-17.53,43.49,43.49,0,0,0-5.33-12.27,27.72,27.72,0,0,0-7.57-7.84,37.34,37.34,0,0,0-8.84-4.43,42.46,42.46,0,0,0-9.11-2,77.1,77.1,0,0,0-8.21-.5h-25.66v89.47Z"/><path class="cls-2" d="M1848.88,918.07h6.73l39.54,100.12h-6.58L1876,986.07h-48l-12.75,32.12h-6.6Zm25.1,62.67-21.46-56.65h-.27L1830,980.74Z"/><path class="cls-2" d="M1910.57,918.07h32.82q13.45,0,22.37,4.2A37.82,37.82,0,0,1,1980,933.49a42.79,42.79,0,0,1,7.5,16,78.33,78.33,0,0,1,2.18,18.51,69,69,0,0,1-2.74,19.84,43,43,0,0,1-8.48,15.92,39.63,39.63,0,0,1-14.52,10.58q-8.76,3.87-20.82,3.87h-32.54Zm33.1,94.79a47.91,47.91,0,0,0,14.1-2.18,34.39,34.39,0,0,0,12.83-7.28,37.21,37.21,0,0,0,9.32-13.75q3.58-8.64,3.58-21.67a65.73,65.73,0,0,0-2-17.53,43.2,43.2,0,0,0-5.32-12.27,27.75,27.75,0,0,0-7.58-7.84,37.15,37.15,0,0,0-8.84-4.43,42.46,42.46,0,0,0-9.11-2,76.78,76.78,0,0,0-8.2-.5h-25.67v89.47Z"/><path class="cls-2" d="M2059.64,918.07h32.82q13.45,0,22.36,4.2a37.82,37.82,0,0,1,14.23,11.22,42.49,42.49,0,0,1,7.5,16,78.33,78.33,0,0,1,2.18,18.51,69.3,69.3,0,0,1-2.73,19.84,43.16,43.16,0,0,1-8.49,15.92,39.68,39.68,0,0,1-14.51,10.58q-8.77,3.87-20.83,3.87h-32.53Zm33.1,94.79a47.85,47.85,0,0,0,14.09-2.18,34.31,34.31,0,0,0,12.83-7.28,37.11,37.11,0,0,0,9.33-13.75q3.57-8.64,3.57-21.67a66.18,66.18,0,0,0-2-17.53,43.49,43.49,0,0,0-5.33-12.27,27.86,27.86,0,0,0-7.57-7.84,37.34,37.34,0,0,0-8.84-4.43,42.68,42.68,0,0,0-9.12-2,76.78,76.78,0,0,0-8.2-.5h-25.66v89.47Z"/><path class="cls-2" d="M2161.44,918.07h67.32v5.32h-61.15v40.1h57.5v5.34h-57.5v44h61.84v5.33h-68Z"/><path class="cls-2" d="M2360.86,946.67a26.94,26.94,0,0,0-2.74-11.23,23.38,23.38,0,0,0-6.66-8,29.14,29.14,0,0,0-10-4.85,47.75,47.75,0,0,0-12.7-1.6,46.44,46.44,0,0,0-9,1,28.77,28.77,0,0,0-9,3.44,20.29,20.29,0,0,0-6.79,6.6,18.6,18.6,0,0,0-2.67,10.3,15.61,15.61,0,0,0,2.94,9.82,21.35,21.35,0,0,0,7.71,6.09,50,50,0,0,0,11,3.73c4.1.93,8.27,1.82,12.47,2.65s8.49,1.85,12.56,3a42.56,42.56,0,0,1,10.93,4.78,23.64,23.64,0,0,1,7.79,7.84,23,23,0,0,1,2.94,12.14,24.13,24.13,0,0,1-3.37,13.17,28.23,28.23,0,0,1-8.47,8.69,35.28,35.28,0,0,1-11.37,4.85,52.84,52.84,0,0,1-12,1.47,69.53,69.53,0,0,1-16.56-1.89,37.05,37.05,0,0,1-13.46-6.18,29.74,29.74,0,0,1-9-11q-3.3-6.72-3.16-16.4h6.17c-.29,5.51.51,10.17,2.39,13.95a25.06,25.06,0,0,0,7.78,9.33,32.13,32.13,0,0,0,11.71,5.25,59.86,59.86,0,0,0,14.17,1.62,44.85,44.85,0,0,0,9.6-1.12,30.25,30.25,0,0,0,9.39-3.78,23.42,23.42,0,0,0,7.15-7,19.45,19.45,0,0,0,2.88-10.94,16.94,16.94,0,0,0-3-10.32,21.91,21.91,0,0,0-7.78-6.45,50.92,50.92,0,0,0-10.94-3.93c-4.06-1-8.24-1.89-12.54-2.72s-8.37-1.82-12.49-3a42.8,42.8,0,0,1-10.93-4.56A23.49,23.49,0,0,1,2298,954q-2.94-4.56-2.94-11.71a23.65,23.65,0,0,1,3-12.27,24.61,24.61,0,0,1,7.86-8.27,34.63,34.63,0,0,1,10.87-4.63,49.52,49.52,0,0,1,11.91-1.47,58.09,58.09,0,0,1,14.66,1.76,34.62,34.62,0,0,1,11.91,5.46,27.5,27.5,0,0,1,8.22,9.6,34.11,34.11,0,0,1,3.5,14.17Z"/><path class="cls-2" d="M2421.85,918.07h6.74l39.53,100.12h-6.58l-12.63-32.12h-48l-12.76,32.12h-6.59Zm25.1,62.67-21.46-56.65h-.27l-22.29,56.65Z"/><path class="cls-2" d="M2483.54,918.07h7.71l63.26,91.84h.27V918.07H2561v100.12h-7.3L2490,925.64h-.27v92.55h-6.18Z"/><path class="cls-2" d="M2576.1,923.39v-5.32h76.71v5.32h-35.35v94.8h-6.16v-94.8Z"/><path class="cls-2" d="M2668,918.07h6.18v100.12H2668Z"/><path class="cls-2" d="M2729.8,918.07h6.73l39.54,100.12h-6.59l-12.62-32.12h-48l-12.76,32.12h-6.59Zm25.1,62.67-21.46-56.65h-.28l-22.29,56.65Z"/><path class="cls-2" d="M2785.33,968.68a64.54,64.54,0,0,1,3.15-20.25,51.24,51.24,0,0,1,9.18-16.9A43.94,43.94,0,0,1,2812.45,920a45.42,45.42,0,0,1,20.14-4.28,47.9,47.9,0,0,1,14.72,2.24,39.49,39.49,0,0,1,12.54,6.6,39.07,39.07,0,0,1,9.33,10.51,37.85,37.85,0,0,1,5.05,14h-5.89q-3.51-13.2-12.63-20.63t-23-7.42A37.72,37.72,0,0,0,2802,935.44a46.77,46.77,0,0,0-7.85,15.22,62.93,62.93,0,0,0-.07,36,43.22,43.22,0,0,0,7.71,14.79,36.85,36.85,0,0,0,12.83,10,41.24,41.24,0,0,0,18.09,3.71,42.3,42.3,0,0,0,16.13-2.94A34.11,34.11,0,0,0,2861,1004a34.89,34.89,0,0,0,7.51-12.84,46,46,0,0,0,2.11-16.76h-36.88V969.1h42.2v49.09h-5.32V996.88h-.29a30.61,30.61,0,0,1-5.46,9.87,34.45,34.45,0,0,1-8.63,7.44,43.58,43.58,0,0,1-11.08,4.69,50.46,50.46,0,0,1-32.81-2.38,42.85,42.85,0,0,1-14.79-11.08,47.22,47.22,0,0,1-9.12-16.47A65,65,0,0,1,2785.33,968.68Z"/><path class="cls-2" d="M2991.88,968.12a64.06,64.06,0,0,1-3.22,20.54,49.18,49.18,0,0,1-9.33,16.69,43.2,43.2,0,0,1-14.94,11.15,51.57,51.57,0,0,1-40.16,0,43,43,0,0,1-15-11.15,49.18,49.18,0,0,1-9.33-16.69,66.92,66.92,0,0,1,0-41.08,49.14,49.14,0,0,1,9.33-16.68,43,43,0,0,1,15-11.15,51.57,51.57,0,0,1,40.16,0,43.2,43.2,0,0,1,14.94,11.15,49.14,49.14,0,0,1,9.33,16.68A64.15,64.15,0,0,1,2991.88,968.12Zm-89,0a58.24,58.24,0,0,0,2.8,18.24,44.65,44.65,0,0,0,8.14,14.93,38.71,38.71,0,0,0,30.56,14,38.72,38.72,0,0,0,17.46-3.79,39.24,39.24,0,0,0,13-10.16,45,45,0,0,0,8.14-14.93,60.78,60.78,0,0,0,0-36.47,45,45,0,0,0-8.14-14.93,39.4,39.4,0,0,0-13-10.17,38.85,38.85,0,0,0-17.46-3.78,38.63,38.63,0,0,0-30.56,14,44.65,44.65,0,0,0-8.14,14.93A58.18,58.18,0,0,0,2902.84,968.12Z"/><path class="cls-2" d="M3060.61,918.07h32.81q13.47,0,22.38,4.2A37.9,37.9,0,0,1,3130,933.49a43,43,0,0,1,7.5,16,78.33,78.33,0,0,1,2.16,18.51,69.3,69.3,0,0,1-2.72,19.84,43,43,0,0,1-8.49,15.92,39.71,39.71,0,0,1-14.52,10.58q-8.74,3.87-20.81,3.87h-32.54Zm33.1,94.79a47.8,47.8,0,0,0,14.09-2.18,34.23,34.23,0,0,0,12.83-7.28,37,37,0,0,0,9.33-13.75q3.57-8.64,3.57-21.67a65.73,65.73,0,0,0-2-17.53,42.65,42.65,0,0,0-5.33-12.27,27.46,27.46,0,0,0-7.57-7.84,37.09,37.09,0,0,0-8.83-4.43,42.73,42.73,0,0,0-9.11-2,76.93,76.93,0,0,0-8.2-.5h-25.66v89.47Z"/><path class="cls-2" d="M3162.41,918.07h67.31v5.32h-61.13v40.1h57.49v5.34h-57.49v44h61.84v5.33h-68Z"/><path class="cls-2" d="M3292.69,968.12a64.14,64.14,0,0,1,3.21-20.54,49.14,49.14,0,0,1,9.33-16.68,43.09,43.09,0,0,1,15-11.15,47.89,47.89,0,0,1,20.12-4.07,45.1,45.1,0,0,1,15.28,2.32,38.68,38.68,0,0,1,10.87,5.74,33.94,33.94,0,0,1,7.22,7.5,41.6,41.6,0,0,1,4.29,7.64,38,38,0,0,1,2,6.18c.37,1.72.56,2.68.56,2.87h-6.16a30,30,0,0,0-4.07-11.29,31,31,0,0,0-7.72-8.48,34.3,34.3,0,0,0-10.3-5.33,38.9,38.9,0,0,0-12-1.82,38.63,38.63,0,0,0-30.57,14,44.45,44.45,0,0,0-8.13,14.93,60.57,60.57,0,0,0,0,36.47,44.45,44.45,0,0,0,8.13,14.93,38.71,38.71,0,0,0,30.57,14,31.65,31.65,0,0,0,13.68-3,37.28,37.28,0,0,0,11.14-8,39.43,39.43,0,0,0,7.65-11.5,38.91,38.91,0,0,0,3.28-13.53h6.18a49.07,49.07,0,0,1-4.42,16.55,46.9,46.9,0,0,1-9.11,13.11,40.06,40.06,0,0,1-12.83,8.63,39.65,39.65,0,0,1-15.57,3.08,47.89,47.89,0,0,1-20.12-4.07,43.09,43.09,0,0,1-15-11.15,49.18,49.18,0,0,1-9.33-16.69A64.06,64.06,0,0,1,3292.69,968.12Z"/><path class="cls-2" d="M3403.46,918.07h6.18v45.42h63.93V918.07h6.18v100.12h-6.18V968.83h-63.93v49.36h-6.18Z"/><path class="cls-2" d="M3505.7,918.07h6.18v100.12h-6.18Z"/><path class="cls-2" d="M3537.81,918.07H3544v94.79h56.79v5.33h-63Z"/><path class="cls-2" d="M3616.2,918.07h67.31v5.32h-61.13v40.1h57.49v5.34h-57.49v44h61.84v5.33h-68Z"/><path class="cls-3" d="M791.57,325.77l-4.16-2.62A21.48,21.48,0,0,0,795.84,306a19.74,19.74,0,0,0-.31-3.66A22.09,22.09,0,0,0,760,288.64l-.07,0H760l-.19.1a2.06,2.06,0,0,0-.77,1.65,2.16,2.16,0,0,0,.39,1.23,2.12,2.12,0,0,0,2.89.51,8.47,8.47,0,0,1,11.61,12c-2.66,3.69-7.79,4.49-11.92,1.87l-30.09-21.54,22-30.73c.52-.69,5.32-6.74,13.93-.62a8.15,8.15,0,0,1,3.66,5.63c.28,2.74-1.11,5.91-4,9.17a2,2,0,0,0-.42,2.1,2.05,2.05,0,0,0,1.62,1.38c.41.05,10.05,1.52,17.6-8.61,7.31-9.81-.3-23.6-.61-24.17a56.71,56.71,0,0,1-3.35-36.27,2.11,2.11,0,0,0-.83-2.23,2.18,2.18,0,0,0-2.34-.06,56.91,56.91,0,0,1-35.52,8.51c-1.13-.21-16.19-2.74-23,7.15-7.14,10.4-2.66,19.08-2.46,19.46a2.11,2.11,0,0,0,3.68,0c2.14-3.84,4.67-6.2,7.37-6.8a7.88,7.88,0,0,1,6.47,1.69c3.21,2.29,5,4.78,5.41,7.4a5.82,5.82,0,0,1,.1,1.09,8.49,8.49,0,0,1-1.57,4.78s-19.88,27.74-22.07,30.84c-3.08-2.23-30-21.58-30-21.58a9.09,9.09,0,0,1-3.62-7.13,8.18,8.18,0,0,1,1.52-4.75,8.48,8.48,0,0,1,11.84-1.94,8.35,8.35,0,0,1,3.22,9.07,2.06,2.06,0,0,0,1.39,2.55,2.11,2.11,0,0,0,2.6-1.26,1.45,1.45,0,0,0,.07-.26h0a21.91,21.91,0,0,0,1.34-7.4A22,22,0,0,0,663,234l-3.82-3.09c-11.14-8-25.55-12.88-30.35-6.25a7.17,7.17,0,0,0-1.27,4.19c0,6.82,7.83,16,16.92,22.55,0,0,2.23,1.39,4.16,2.62a22.66,22.66,0,0,0-4.31,4.38A22.1,22.1,0,0,0,676.82,288a2.1,2.1,0,0,0-2.15-3.54c-2.32.88-6.12,0-8.62-2-3.82-3.08-4.7-8.21-2-11.9a8.47,8.47,0,0,1,11.83-2l5.28,3.78s20.43,14.63,24.26,17.4c-10,7.36-25.89,7.3-26,7.3a2.08,2.08,0,0,0-1.55.65,2,2,0,0,0-.59,1.58c.76,12-9.47,28.27-15.11,36.37H304.63l-18.35-24.51c2.52-3,5.85-7.13,5.85-7.13l1.59-2c2-2.63,2.75-7.33-1.87-11.89a8.69,8.69,0,0,0-6.59-2.29,7.29,7.29,0,0,0-5.46,2.67l-.12.14-3.25-4.52-4.15-5.77-3.41-4.68c1.58-1.93,4.53-5.61,4.53-5.61a7.14,7.14,0,0,0,1.45-4.53,10,10,0,0,0,0-1.07,9.87,9.87,0,0,0-3.55-6.54,9.38,9.38,0,0,0-6.87-2,7.32,7.32,0,0,0-3.87,1.57c1.44-8.27-2.56-16.25-12.4-29.06-4.87-6.4-7.46-13.36-11.75-27.52a2.13,2.13,0,0,0-2.05-1.48,2.08,2.08,0,0,0-2,1.51,139,139,0,0,0-4,16.86c-10.34-21.53-29.84-35.33-30.74-36a2.09,2.09,0,0,0-2.38,0,2.06,2.06,0,0,0-.93,1.74,1.77,1.77,0,0,0,0,.45,113.56,113.56,0,0,1,2.05,20.77c0,7.91-1,16.55-4.61,22.91a40.76,40.76,0,0,0-5.44,16.95,86,86,0,0,1-1.78-9,2.12,2.12,0,0,0-1.73-1.77,2.09,2.09,0,0,0-2.23,1.08c-5.93,11.09-7.81,20.56-7.81,28.13a41.18,41.18,0,0,0,1.64,11.68,43.71,43.71,0,0,1-2.82-4.28,2.13,2.13,0,0,0-4,1.21c1.63,17.68,7.09,29.83,16.21,36.1a25.28,25.28,0,0,0,10.93,4.3,7.18,7.18,0,0,0-3,4,9.63,9.63,0,0,0,.61,7.15,10.2,10.2,0,0,0,5.8,4.69,7.54,7.54,0,0,0,5.75-.34s4.18-2.23,6.35-3.41l4,4.21,4.88,5.19,3.82,4-.12.07c-4,2.12-4.7,7.8-2.75,11.58a9.64,9.64,0,0,0,5.6,4.56,7.77,7.77,0,0,0,5.89-.35l2.51-1.3,7.86-4.24,22.46,24.49V629.52a209.51,209.51,0,0,0,61.76,149c1.88,1.87,3.8,3.67,5.71,5.45l-2,2.94c-17.17,24-26.17,51.74-20.54,55.72a4.9,4.9,0,0,0,3.79.69c8.24-1.37,27.23-17,42.37-38.11l1.06-1.54A210.88,210.88,0,0,0,589,806.89c18.14,23.33,40.42,40.66,47.09,35.91,6.29-4.58-3.73-33.17-19.5-57,2.62-2.37,5.17-4.81,7.68-7.32a209.36,209.36,0,0,0,61.81-149V364.41l1.48-2.08c.11-.1,1.23-1.84,1.23-1.84s.13-.24.17-.24c4.06-6,18.41-25.81,32.1-29.54a2.19,2.19,0,0,0,1.3-1.07,2,2,0,0,0,.23-1,2.94,2.94,0,0,0-.09-.71,57.1,57.1,0,0,1-3-17.45,31.06,31.06,0,0,1,1.54-9.53l29.51,21.14a8.58,8.58,0,0,1,3.51,6.92,8.32,8.32,0,0,1-1.59,4.9c-2.64,3.72-7.79,4.51-11.91,1.88-2.73-1.72-4.75-5-4.62-7.5a2.11,2.11,0,0,0-4.05-.92,22.07,22.07,0,0,0,38.38,21.21,21.09,21.09,0,0,0,2.78-5.45l3.81,3.1c9.17,6.59,19,10.2,25.14,9.19a7.61,7.61,0,0,0,5.19-3,6.87,6.87,0,0,0,1.3-4.15C808.5,341.51,800.67,332.3,791.57,325.77Z"/><path class="cls-4" d="M186.15,304.32c-6.46-4.51-10.74-12.78-13-24.36,2,2.23,4.34,4.31,6.79,5a2.08,2.08,0,0,0,2.32-.82,1.93,1.93,0,0,0,.37-1.19,2,2,0,0,0-.43-1.28c-.33-.45-5.23-6.94-5.23-18.55a52.83,52.83,0,0,1,4.57-20.32c1.24,5.62,3.5,13.09,7,15.71a2.08,2.08,0,0,0,3.33-1.71,2.18,2.18,0,0,0-.15-.83,21.87,21.87,0,0,1-1.42-8.42,35.9,35.9,0,0,1,5.06-17.82c4-7.17,5.19-16.58,5.19-25.08a113.44,113.44,0,0,0-1.22-16.07c7.34,6.14,22.41,20.45,28.39,39.11a2.08,2.08,0,0,0,2.51,1.36,2.15,2.15,0,0,0,1.59-2c0-.12,0-.26,0-.4a4.59,4.59,0,0,1-.09-1.28c0-2.13.38-7.07,2.69-16.31,3.34,10.22,5.95,16.22,10.33,22,8.18,10.67,11.87,17.39,11.87,23.48,0,5.34-2.87,10.22-7.93,16.85a177.08,177.08,0,0,1-18.39,17.35,172.14,172.14,0,0,1-27.77,19.15A22.38,22.38,0,0,1,186.15,304.32Z"/><path class="cls-5" d="M209.55,319.82s-1,.56-2.32,1.23c-2.2,1.17-5.25,2.85-5.25,2.85a3.7,3.7,0,0,1-2.6,0,5.9,5.9,0,0,1-3.33-2.6,5.61,5.61,0,0,1-.3-3.95,2.9,2.9,0,0,1,1.38-1.81c2.38-1.27,4.64-2.47,6.88-3.72A177.44,177.44,0,0,0,232.9,292a186.78,186.78,0,0,0,19-17.85c3.79-4.18,7.28-8.38,10.93-13a3,3,0,0,1,2-1,5.49,5.49,0,0,1,3.81,1.1h0a5.81,5.81,0,0,1,1.95,3.76,3.51,3.51,0,0,1-.52,2.49s-2.2,2.72-3.76,4.68c-.94,1.13-1.61,2-1.61,2s-.2.24-.33.35c-1.76,2.12-3.56,4.17-5.41,6.22l-.36.38-2.53,2.7c-.18.2-.38.38-.57.59-.81.84-1.66,1.69-2.53,2.54-.1.11-.23.21-.33.33-4,4-8.4,7.86-13.48,12.07q-3.69,3.07-7.15,5.74c-.15.11-.28.24-.44.34-.71.54-1.37,1-2.08,1.54s-1.26,1-1.91,1.43c-.46.35-.94.67-1.37,1-.77.5-1.52,1-2.25,1.55s-1.23.82-1.85,1.26l-1.53,1C217.06,315.48,213.46,317.65,209.55,319.82Z"/><path class="cls-5" d="M222.18,330.71l-4.86-5.19L214,322.09a184.47,184.47,0,0,0,27.71-19.36A192.74,192.74,0,0,0,266.11,279l2.76,3.8,4.15,5.78,4,5.49-1.59,2c-.28.38-.56.7-.85,1.07l-1,1.25c-.36.45-.75.88-1.13,1.35l-.73.89c-.63.75-1.23,1.47-1.86,2.18l0,0c-.37.43-.77.86-1.14,1.3l-.1.06-1.12,1.25a.31.31,0,0,1-.16.14c-.36.4-.75.8-1.14,1.21L266,307c-.37.39-.75.78-1.15,1.18l-.3.28c-.36.36-.79.74-1.16,1.14-.12.12-.27.23-.39.36L261.84,311c-.18.15-.36.32-.55.5-.36.34-.73.67-1.13,1a5.9,5.9,0,0,1-.74.66c-.36.31-.68.62-1.06.94l-1.13,1c-.23.21-.55.45-.79.67-.68.59-1.4,1.19-2.13,1.81s-1.45,1.2-2.16,1.73c-.44.39-.87.73-1.31,1.08-.23.18-.47.37-.72.54-.45.38-.89.73-1.35,1.07a5.83,5.83,0,0,0-.53.43c-.53.37-1,.73-1.43,1.09a4.15,4.15,0,0,0-.41.27L245,324.87a2.23,2.23,0,0,0-.33.2c-.46.34-.9.67-1.41,1l-.25.16c-.45.32-.94.63-1.4.94a.91.91,0,0,1-.23.16c-.45.28-.88.59-1.35.91l-.22.11-1.35.84-.24.14-1.34.81a2.12,2.12,0,0,0-.2.12l-1.38.78-.17.12c-.47.27-1,.53-1.42.8l-.17.07c-.48.28-1,.55-1.51.83l0,0c-.92.5-1.88,1-2.84,1.5-.69.39-1.38.72-2.11,1.1l-.21.12C225.37,334.1,222.18,330.71,222.18,330.71Z"/><path class="cls-5" d="M239,344.75c-3.16,1.69-6.88,3.72-6.88,3.72l-2.55,1.27a3.45,3.45,0,0,1-2.66.07,5.69,5.69,0,0,1-3.13-2.44c-1-2-.81-5,1-6l2.29-1.15.29-.19c10.65-5.5,17.06-8.8,29.5-19.13s17.07-16.12,24.45-25.54l.08-.07.55-.73.34-.42h0l.83-1.1a3.27,3.27,0,0,1,2.44-1.06,4.45,4.45,0,0,1,3.39,1.11c1.67,1.66,2.19,3.09,2.19,4.2a3.3,3.3,0,0,1-.74,2.08l-1.55,2s-2.79,3.41-5.11,6.28c-1.69,2.1-3.16,3.88-3.16,3.88a123.17,123.17,0,0,1-11.9,12c-1.75,1.53-3.55,3.09-5.47,4.69l-.19.12c-1.84,1.54-3.7,3-5.51,4.43a121.09,121.09,0,0,1-14.07,9.56Z"/><path class="cls-5" d="M264.39,366.19c-5.69-6.15-15.17-16.58-18.63-20.31a142.6,142.6,0,0,0,19.95-14.24,139.43,139.43,0,0,0,17.85-17.09c3.22,4.25,11.15,14.86,15.81,21.13h-35Z"/><path class="cls-4" d="M352,802.74c-17,23.71-36.19,36.93-40.1,36.43a3.35,3.35,0,0,1-.21-1.34c0-6.13,5.89-26.66,21.61-48.52,0,0,.79-1.16,1.74-2.51a205.57,205.57,0,0,0,18.07,14.41Z"/><path class="cls-5" d="M633.41,837.48a3.58,3.58,0,0,1-.25,1.54c-3.76.64-22.42-11.88-40.19-34.7A215.78,215.78,0,0,0,613,788.88C627.73,811.13,633.41,831.21,633.41,837.48Z"/><path class="cls-4" d="M803.79,350.05a3.66,3.66,0,0,1-2.45,1.24c-4.16.69-12.56-1.66-22-8.43L773.38,338a2.19,2.19,0,0,0-3.52,1.17,16.81,16.81,0,0,1-3,7,17.88,17.88,0,0,1-32.44-10.33c0-.06,0-.11,0-.15a15.05,15.05,0,0,0,3.85,3.69c6,3.87,13.61,2.59,17.59-3a12.74,12.74,0,0,0-2.9-17.7l-31.9-22.85a2.11,2.11,0,0,0-1.74-.31,2,2,0,0,0-1.38,1.17,33.57,33.57,0,0,0-2.69,13.88,61.48,61.48,0,0,0,2.59,16.85c-13.45,4.92-26.25,21.49-31.81,29.56V335.68H667.2c5.8-8.62,13.87-22.62,14.17-34.43,5.44-.22,20-1.6,29-10a2.12,2.12,0,0,0,.65-1.52.3.3,0,0,0,0-.14,2.08,2.08,0,0,0-.85-1.58l-26.6-19.09-5.3-3.74a12.66,12.66,0,0,0-17.68,2.94,12.15,12.15,0,0,0-2.33,7.2,13.29,13.29,0,0,0,5.17,10.39,14.15,14.15,0,0,0,4.51,2.45,17.81,17.81,0,0,1-20.15-27.31,17.35,17.35,0,0,1,5.7-5.12,2.2,2.2,0,0,0,1-1.82,2.28,2.28,0,0,0-1-1.84l-6.52-4.1c-12.13-8.66-16.69-18-14.65-20.87s12.38-1.47,24.47,7.21l6,4.82a2.29,2.29,0,0,0,2.09.4,2.08,2.08,0,0,0,1.4-1.53,17.81,17.81,0,0,1,34.63-1.64c-.39-.35-.71-.74-1.12-1a12.53,12.53,0,0,0-9.41-2.2,12.71,12.71,0,0,0-8.31,5.13,12.85,12.85,0,0,0,2.83,17.61l32,22.94a2.17,2.17,0,0,0,1.56.35,1.94,1.94,0,0,0,1.35-.85L743,245.83a12.68,12.68,0,0,0,2.23-9c-.58-3.76-3-7.19-7.1-10.17a12.2,12.2,0,0,0-9.85-2.37,13.74,13.74,0,0,0-7.42,4.94c0-.43-.11-.83-.11-1.3a17.17,17.17,0,0,1,3.33-9.84c5.36-7.79,18.73-5.39,18.85-5.39s.07,0,.1,0a60.5,60.5,0,0,0,34.36-6.8,56.64,56.64,0,0,0-.9,9.5,59.69,59.69,0,0,0,5.43,25.19,27.88,27.88,0,0,1,3.31,12,12.47,12.47,0,0,1-2.33,7.6,16.45,16.45,0,0,1-9.5,6.61,14.55,14.55,0,0,0,2.31-7.41,7.52,7.52,0,0,0-.06-1.17,12,12,0,0,0-5.4-8.58c-4-2.84-7.89-4-11.67-3.34a13.41,13.41,0,0,0-8.11,4.95l-23.24,32.42a2,2,0,0,0-.36,1.57,2,2,0,0,0,.86,1.36l31.73,22.75c6.29,4,13.84,2.73,17.82-2.84a12.44,12.44,0,0,0,2.36-7.35,12.7,12.7,0,0,0-5.26-10.33c-.47-.31-1-.46-1.45-.72a17.8,17.8,0,0,1,15.33,28.19,17.49,17.49,0,0,1-5.67,5.11,2.07,2.07,0,0,0-1,1.8,2.14,2.14,0,0,0,1,1.87l6.49,4.05C801.23,337.9,805.85,347.2,803.79,350.05Z"/><path class="cls-3" d="M690.86,990l.17.08.34.14a63.78,63.78,0,0,0,7.46,3.89c8,4.56,20.24,12,29,17.43.79.48,19.47,12.41,34,.75,26.19-20.93,5.29-93.44,1.44-105.8a69.34,69.34,0,0,0,5.14-7.67c9.73-16.8,3.67-24.83.6-27.5a.12.12,0,0,1,.06.06L725,828.62a21,21,0,0,0-1.83-1.79,24.88,24.88,0,0,0-2.08-1.53,13.29,13.29,0,0,0-5.46-2.17,10.85,10.85,0,0,0-8.54,2.67c-6.79,5.51-9.28,22.06-10.14,30.69-20,15.61-56,34.78-120.27,49.64l-8.26-17.86c-2.82-5.59-9.1-9.16-16.14-9.16l-4.64.55s-.85.25-.85.25c-19.28,5-42.16,7.67-66.07,7.67l-5.58,0-5.65,0c-23.94,0-46.85-2.68-66.18-7.72l-.68-.16c-.07,0-4.75-.59-4.75-.59-6.93,0-13.24,3.57-16,9.09l-7.94,17C312,890.54,277,871.78,257.41,856.49c-.87-8.62-3.37-25.19-10.14-30.69a11,11,0,0,0-8.56-2.67,13.13,13.13,0,0,0-5.49,2.2,13.7,13.7,0,0,0-1.81,1.34,17.41,17.41,0,0,0-2.32,2.25l-43.79,42.4c-3.1,2.71-9.07,10.73.61,27.45a73.86,73.86,0,0,0,5.17,7.69c-3.84,12.4-24.75,84.86,1.44,105.79,14.57,11.66,33.25-.27,34-.79,8.72-5.42,37.35-21.87,37.8-22.16,2.53-1.74,4.83-3.76,5.91-5.83a18.35,18.35,0,0,0,1.32-12.65,2,2,0,0,0-1.17-1.2,1.88,1.88,0,0,0-1.65.13l-20.38,12.18c-5.61-11.25,1.76-26.19,3.54-29.46,33.25,16.67,68.64,27,85.28,30.49,19.74,4.18,23.21-10.18,23.23-10.32l4.06-11.21,1.1-3,.57.16c29.44,9.37,65.38,14.53,102.08,14.56l4.38,0,2.47,0,2.44,0,4.39,0c36.76,0,72.69-5.18,102.18-14.56,1.25-.4,2.46-.82,3.69-1.21.43.69.9,1.53,1.43,2.46l4.75,13a9.05,9.05,0,0,0,.89,2.28c2,3.86,7.65,10.92,22.27,7.85,16.62-3.51,52-13.84,85.3-30.51,1.79,3.34,9.14,18.21,3.52,29.45l-20.41-12.17a1.9,1.9,0,0,0-2.78,1.07,17.9,17.9,0,0,0,1.32,12.65c1.06,2.07,3.36,4.08,5.92,5.83A1.46,1.46,0,0,0,690.86,990Z"/><path class="cls-5" d="M268.27,974.5c0,.29.07.49.07.86a14.24,14.24,0,0,1-1.49,6.38c-.82,1.64-3,3.37-5.47,4.92-1.89.6-7.47,1.89-10.89-1.55C257.47,980.93,265.81,976,268.27,974.5Z"/><path class="cls-5" d="M242.45,972.39a24.82,24.82,0,0,0,2.63,11.49c.4.73.81,1.48,1.24,2.2.11.1.52.68.52.68a3.4,3.4,0,0,0,.32.33,10.67,10.67,0,0,0,6.16,3.76l.06,0c-1.77,1-3.7,2.15-5.68,3.32-9.85,5.77-21.2,12.82-23.19,14.06-.21.11-17.22,10.93-29.6,1-8.65-6.88-11.53-20.53-11.53-35.69,0-24.56,7.54-53,10.55-63.44,12.72,15.31,31.52,28.37,51.69,39.07,1.38,1.13,2.32,1.86,2.61,2.08C246.46,954.59,242.45,963.19,242.45,972.39Z"/><path class="cls-5" d="M338,979.22c-17.39-3.62-55.61-14.87-90-33a228.22,228.22,0,0,1-26.79-16.39l-12.07-9.58a103.49,103.49,0,0,1-15.57-16.8,74.84,74.84,0,0,1-4.37-6.62c-3.21-5.48-4.75-10.43-4.75-14.49a10.32,10.32,0,0,1,3.4-8.23s31.55-30.57,41.42-40.11l2.1-2a6,6,0,0,0,.47,2.32l.85,1.48.41.73c4.21,6.7,11.65,15.58,24.69,25.29,20.77,15.42,55.73,32.9,114.47,46.93l-21.83,47-.33.74a7.49,7.49,0,0,0-.25,1.14c-.6,4.26,1.93,11.7,3.75,16.33a17.27,17.27,0,0,0,.79,1.92C352,978.53,347.22,981.18,338,979.22Z"/><path class="cls-5" d="M361.06,959.76a18.44,18.44,0,0,0-.76,2.09c-2.09,5.82-3.52,9.71-3.52,9.71a1.32,1.32,0,0,1-.07.23c-1.38-4.25-3.22-11.22-3.22-13a2.8,2.8,0,0,1,.07-.7c.62-1,4.11-2.33,5.88-1.72.85.3,1.71.59,2.54.86C361.67,958.08,361.36,958.94,361.06,959.76Z"/><path class="cls-5" d="M589.54,952.76c-.84.29-1.7.55-2.54.84-1.5.51-3,1-4.49,1.47-29,9.18-64.4,14.22-100.58,14.26l-4.32,0-2.51,0-2.52,0-4.31,0c-36.14,0-71.48-5.08-100.5-14.22-.3-.08-.58-.2-.86-.28-1.24-.4-2.43-.79-3.61-1.19-.9-.31-1.78-.59-2.61-.88a9,9,0,0,0-4.63-.09c.12-.25.27-.59.42-.95,2.94-6.31,12.32-26.52,19.58-42.1.55-1.18,1.08-2.35,1.61-3.49,4.28-9.21,7.46-16.08,7.46-16.08,2.26-4.38,7.24-7.13,12.75-7.13l3.84.47.52.15c19.78,5.15,43,7.86,67.25,7.86l5.65,0,5.58,0c24.24,0,47.48-2.71,67.18-7.85.14,0,.61-.16.61-.16l3.77-.47c5.57,0,10.55,2.75,12.68,7,0,0,3.46,7.37,7.95,17.07,1.81,3.87,3.77,8.16,5.81,12.45,6.5,14,13.23,28.43,15,32.27a9.07,9.07,0,0,1,.44.95,10.47,10.47,0,0,0-3.5-.19A8.17,8.17,0,0,0,589.54,952.76Z"/><path class="cls-5" d="M595.42,965.72l-3.42-9.5c1.89,0,4.33,1.15,4.71,1.93v.05c0,.06.07.07.07.1a2.9,2.9,0,0,1,0,.45A29.74,29.74,0,0,1,595.42,965.72Z"/><path class="cls-5" d="M616.35,979.22c-15.94,3.38-18.61-7-18.74-7.45a1.94,1.94,0,0,0-.07-.19,46.22,46.22,0,0,0,2.91-11.51c2-.59,3.88-1.3,4.19-1.41.74-.21,2.67-.6,5.22-1.36.54-.16.88-.38.76-.65s-.34-.34-.76-.2a6.32,6.32,0,0,1-2.14.34c-.87,0-1.62-.78-2.54-3.59l-4.88-15,.16,0c1,.39,6.45,3.65,12,6.36,5.3,2.69,11.59,5.81,14.72,7.28a2.81,2.81,0,0,0,1.84.31c.33-.11.54-.55.33-1.38l-6.38-23.42c-.56-2.1-.45-2.83.53-3.47a3.92,3.92,0,0,1,1.2-.46c.46-.13.64-.41.56-.6s-.47-.23-1-.1c-1.94.58-3.41,1.12-3.85,1.23-.81.27-3,.79-5.08,1.39-.57.19-1,.35-.88.66s.21.34.71.18a8.21,8.21,0,0,1,2.17-.36c1.05.06,1.6.61,2.31,2.86L624.83,945l-.21,0c-.74-.31-7.54-4-11-5.77-7.38-3.7-15.07-7.85-15.71-8.2-.86-.44-1.59-.85-2.06-.71s-.51.74-.3,1.47l6,22c.93,3.2,1.06,4.24.11,4.79a6.57,6.57,0,0,1-1.21.54,8.6,8.6,0,0,0-.12-1.73s0,0,0-.07a.84.84,0,0,0-.06-.24.64.64,0,0,0-.07-.32,1,1,0,0,0,0-.19s-.06-.09-.08-.15,0,0,.07.08-.4-.84-.44-.85,0-.07,0-.12l-1.85-4-19.53-41.94c61-14.16,97-32.06,118.23-47.82,13.05-9.7,20.44-18.57,24.65-25.28l.6-.92.73-1.32A6.75,6.75,0,0,0,723,832c.49.48,1.21,1.15,2.06,2,9.85,9.51,41.44,40.11,41.45,40.11a10.43,10.43,0,0,1,3.38,8.22c0,4.07-1.59,9-4.76,14.51a74.82,74.82,0,0,1-4.38,6.61,103.41,103.41,0,0,1-15.56,16.8c-3.77,3-8,6.31-12.15,9.66a232.94,232.94,0,0,1-26.75,16.35C672,964.38,633.73,975.6,616.35,979.22Z"/><path class="cls-5" d="M707.2,987.1c.12-.15.3-.28.42-.44s.14-.22.17-.3.2-.33.28-.43a.48.48,0,0,0-.12.16s.08-.14.14-.19a22.73,22.73,0,0,0,1.14-2,24.6,24.6,0,0,0,2.66-11.48c0-9.21-4-17.8-5.76-21.1a5.81,5.81,0,0,1-.28-.56c.95-.49,1.9-1,2.83-1.47,20.18-10.7,39-23.79,51.74-39.12,3,10.43,10.58,38.86,10.58,63.45,0,15.16-2.88,28.79-11.53,35.68-12.39,9.93-29.42-.9-29.59-1-2-1.27-13.36-8.32-23.22-14.09l-5.77-3.35h.1A11.14,11.14,0,0,0,707.2,987.1Z"/><path class="cls-5" d="M687.49,981.74a14.41,14.41,0,0,1-1.48-6.43c0-.33,0-.52,0-.79,2.47,1.47,10.8,6.41,17.81,10.6-3.52,3.41-9,2.13-10.92,1.54C690.48,985.12,688.33,983.38,687.49,981.74Z"/><path class="cls-3" d="M637,917c-10.15,4-10.87,13.43-8.49,19.56,2.54,6.34,9.52,12.44,19.23,8.6,8.6-3.4,11.43-12,8.21-20.2S645.38,913.66,637,917Z"/><path class="cls-5" d="M648.31,942.66c-6.29,2.5-12.37-1.79-15.29-9.16-3.5-8.82,0-12.75,3.7-14.23,5.41-2.13,11.59,1,14.76,9C655.52,938.41,650.66,941.76,648.31,942.66Z"/><path class="cls-3" d="M495.05,945.77a9.48,9.48,0,0,1-2.07,0c-1.18-.15-1.5-.78-1.66-1.94-.28-1.79-.49-5.18-.67-9.27l-.35-7.5c-.31-6.45-.34-7.67-.34-9,0-1.51.3-2.11,1.38-2.37a4.26,4.26,0,0,1,1.18-.21c.38,0,.6-.15.58-.52s-.33-.34-.81-.3c-1.55,0-4.11.27-5.11.33-1.15.05-3.86.07-5.32.15-.64,0-.94.17-.94.42s.28.47.71.47a4.38,4.38,0,0,1,1.4.11c.86.27,1.32.75,1.45,2.2s.18,2.52.52,9l.32,7.53c.23,4.09.37,7.48.29,9.26-.06,1.26-.29,1.87-1.08,2.11a4.76,4.76,0,0,1-1.35.2c-.45.06-.62.29-.62.48s.3.45.76.44c1.59-.1,4.31-.38,5.2-.42,1.08-.05,3.79-.05,6.41-.15.46,0,.76-.2.76-.47A.57.57,0,0,0,495.05,945.77Z"/><path class="cls-3" d="M521.28,911.18c-.14,0-.46.17-1.08.36a15,15,0,0,1-2.67.49l-16,1.92a34.06,34.06,0,0,1-3.95.25,16,16,0,0,1-1.76-.28c-.23,0-.32.28-.35.84-.05.39-.32,4.55-.25,5.23,0,.45.2.68.42.65s.35-.22.41-.57a4.48,4.48,0,0,1,.5-1.56c.48-1,1.39-1.41,3.65-1.73l5.84-.85,2,17.1c.48,3.87.89,7.23.94,9,0,1.26-.15,2.09-.94,2.37a3.75,3.75,0,0,1-1.35.32c-.52,0-.58.32-.58.49,0,.33.34.45.8.4,1.61-.18,4.24-.66,5.15-.77,1.12-.14,3.79-.3,6.38-.62.45-.06.76-.22.7-.51s-.22-.44-.65-.39a18,18,0,0,1-2.06.08c-1.19-.05-1.49-.82-1.77-2-.4-1.8-.86-5.12-1.31-9l-2-17.1,5-.5c3.57-.35,4.71.79,4.95,1.91l.09.43c.14.63.23.81.57.78s.24-.25.24-.74c-.11-1.1-.39-4.24-.5-5.12C521.6,911.42,521.53,911.17,521.28,911.18Z"/><path class="cls-3" d="M452.32,940.11c-.25,0-.36.18-.52.62-.43,1.71-1,2.56-2.05,2.93a9,9,0,0,1-3.75.17l-9.29-1.11a3.7,3.7,0,0,1-2-2.27c-.12-.34-.17-.66-.28-1-.48-2.57-1.26-6.73-2.11-11.07,0,0,15,2.2,15.66,2.39,1.46.29,1.91,1,2,1.87.05.58,0,1.09,0,1.56a.32.32,0,0,0,.31.38c.39.06.45-.55.5-.89s.3-2,.51-2.83c.44-2.1.65-2.77.65-3.05s-.1-.47-.25-.47-.38.2-.72.47a2.68,2.68,0,0,1-1.95.47c-.79,0-17.17-2.32-17.17-2.32-1-5.13-1.94-10.11-2.43-12.64,3.13.52,17.35,2.53,17.95,2.69,2,.41,2.21,1.06,2.44,1.82a4.25,4.25,0,0,1,.1,1.58c0,.36,0,.57.27.57s.46-.45.51-.65a26.83,26.83,0,0,0,.53-2.76,14.55,14.55,0,0,1,.62-2.69c0-.18,0-.41-.22-.45a6.82,6.82,0,0,0-.69.15,13,13,0,0,1-1.69.08c-.71-.07-19.53-3.21-21-3.36h0c-.42-.08-.8.36-1.46,1.44l-14.93,24.53c-1.23,2-2.1,3.13-3.93,3.13l-1.2-.15a.39.39,0,0,0-.5.36c0,.32.15.48.64.57,2.06.36,4.16.59,4.54.67,1.26.22,3.06.68,4.34.91.42.09.66,0,.7-.33s0-.42-.47-.55l-.59-.09c-1.21-.23-1.49-.71-1.35-1.47a8.29,8.29,0,0,1,1-2.44l3.11-5.24c.11-.26.19-.3.42-.26l9.16,1.65c.21,0,.32.12.38.39l1.47,9a.67.67,0,0,1-.53.87c-.4,0-.52.11-.55.37s.34.42,1.08.55c2,.3,5.32.71,7.07.93l5.08.63c2.06.26,4.64.6,7.54.91,1.52.16,1.85.19,2.25-.87a29.71,29.71,0,0,0,1-4.6C452.63,940.7,452.63,940.16,452.32,940.11Z"/><path class="cls-5" d="M427.34,930.57l-7.57-1.35c-.12-.05-.2-.13-.06-.35l5.66-9.91c.08-.11.19-.37.3-.34s.08.27.12.44l1.74,11.29C427.58,930.52,427.53,930.62,427.34,930.57Z"/><path class="cls-3" d="M479.2,915.15a7.47,7.47,0,0,0-1.09.15,17.27,17.27,0,0,1-2.69.13L459.28,915a29.37,29.37,0,0,1-4-.29c-1-.18-1.41-.54-1.72-.55s-.36.23-.47.78c-.11.38-1,4.45-1,5.14,0,.49.07.72.33.72s.37-.19.47-.55a5.52,5.52,0,0,1,.7-1.43c.58-.93,1.58-1.18,3.86-1.18h5.93L463,934.86c-.07,3.89-.2,7.25-.42,9.06-.17,1.24-.42,2-1.23,2.2a4.15,4.15,0,0,1-1.42.13c-.48,0-.58.23-.58.42s.22.48.66.48c1.6,0,4.32,0,5.22,0,1.14,0,3.81.25,6.43.31.43,0,.74-.14.78-.44s-.19-.47-.61-.47a11.78,11.78,0,0,1-2-.2c-1.17-.23-1.4-1-1.46-2.26-.16-1.84-.11-5.19,0-9.13l.46-17.21,5,.25c3.57.15,4.55,1.45,4.63,2.57l0,.46c0,.65.1.86.4.86s.37-.24.42-.71c0-1.1.22-4.25.22-5.13C479.49,915.38,479.47,915.15,479.2,915.15Z"/><path class="cls-3" d="M407.13,932.92c-.32-.11-.46.11-.65.48a5.78,5.78,0,0,1-1.66,2.16c-1.31.82-2.78.4-4.84-.22-2.93-.89-4.31-1.61-4.77-2.42-.55-1,.19-3.62,1.84-8.83l2.18-7.2c1.93-6.13,2.27-7.29,2.76-8.54.51-1.41,1-1.92,2.11-1.78a7.29,7.29,0,0,1,1.49.3c.49.14.73.07.83-.23s-.14-.43-.71-.62c-1.47-.45-4.58-1.31-5.49-1.61s-3.43-1.15-5.19-1.68c-.57-.19-.87-.19-.94.12s.07.48.47.62a4.39,4.39,0,0,1,1.24.55c1.09.75,1.28,1.28,1,2.72s-.7,2.44-2.6,8.61l-2.23,7.19c-1.14,3.73-2.12,6.91-2.85,8.61-.46,1.17-.93,1.85-1.75,1.79a5.2,5.2,0,0,1-1.37-.27c-.52-.15-.7.05-.74.25s.1.51.6.67c.8.23,1.75.47,2.66.73s1.73.47,2.15.61c1.58.46,3.12,1,5,1.63s4,1.42,6.74,2.22c2,.62,2.22.51,2.77-.32a36.91,36.91,0,0,0,2-4.53C407.35,933.44,407.4,933,407.13,932.92Z"/><path class="cls-3" d="M573.37,931.86a12.32,12.32,0,0,1-1.5.21c-.74,0-2-.24-4.36-3.61-4-5.67-14.65-21-16.13-23.05-.59-.84-.87-1.18-1.49-1-.36.11-.57.68-.7,1.93l-3.66,28.5c-.28,2.31-.6,3.75-2.28,4.47l-1.13.33c-.07,0-.07,0-.11.06a.53.53,0,0,0-.62-.2,17.22,17.22,0,0,1-2,.22c-1.19,0-1.59-.58-1.95-1.69-.49-1.75-1.12-5.09-1.88-9.11l-1.34-7.38c-1.18-6.38-1.41-7.54-1.56-8.9s0-2.14,1-2.54a8,8,0,0,1,1.18-.38c.36,0,.57-.21.49-.59s-.36-.31-.82-.22c-1.54.3-4,.87-5,1s-3.81.63-5.29.88c-.63.13-.88.27-.81.51.07.43.28.46.68.42a4,4,0,0,1,1.46-.1c.88.14,1.38.57,1.74,2s.48,2.5,1.68,8.86l1.36,7.39c.77,4,1.38,7.38,1.52,9.12.1,1.26,0,1.92-.77,2.23a4.56,4.56,0,0,1-1.35.43c-.49.07-.61.36-.55.55s.37.4.8.31c1.57-.27,4.23-1,5.09-1.09,1.09-.2,3.79-.53,6.31-1a1.46,1.46,0,0,0,.46-.16c.14.26.32.32.76.23,2-.51,4-1.16,4.43-1.29,1.24-.27,3-.58,4.34-.89.37-.1.56-.25.49-.61s-.19-.41-.67-.29l-.57.15c-1.18.28-1.64-.06-1.85-.8a11.83,11.83,0,0,1-.06-2.67l.73-6c0-.28,0-.31.26-.37l9.06-2.24a.34.34,0,0,1,.47.2l5,7.56a.74.74,0,0,1-.13,1c-.36.12-.44.3-.36.54s.52.17,1.2,0c3.29-.7,6.07-1.39,7.41-1.73s1.64-.53,1.58-.84S573.73,931.76,573.37,931.86Z"/><path class="cls-5" d="M557.39,923.27l-7.46,1.83c-.11,0-.24,0-.18-.25l1.13-11.38c0-.15,0-.42.11-.46s.17.23.24.36l6.28,9.6C557.56,923.13,557.56,923.23,557.39,923.27Z"/><path class="cls-3" d="M715,904.91c.58,1,.88,1.69.29,2.36a5.22,5.22,0,0,1-1.06,1c-.38.32-.34.57-.23.71s.49.13.86-.17c1.29-1,3.31-2.77,3.91-3.25s3.28-2.4,5.14-3.88c.43-.34.59-.62.43-.83a.43.43,0,0,0-.64,0A14.61,14.61,0,0,1,722,902c-1.1.61-1.72.16-2.5-.63-1.15-1.16-3.07-3.47-5.28-6.31l-.34-.42a.29.29,0,0,1,.09-.44l2.93-2.23a1.09,1.09,0,0,1,.77-.25c.82.14,3.77,1.12,6.32,1.68,3.67.93,6.46,1.49,8.35,1.06,1.2-.24,1.84-.6,3.68-2.06l.81-.94c1-1,1.72-1.87,2-2.23a1,1,0,0,0,.23-.21c.92-1,2.32-2.21,3.25-3.16.31-.27.41-.54.19-.75s-.37-.22-.74.16l-.44.43c-.85.9-1.43.9-1.91.4a7.25,7.25,0,0,1-1.27-2.06L736,878.83c-.07-.26-.07-.28.08-.43l6.82-7a.37.37,0,0,1,.48-.09l7.78,3.1a.62.62,0,0,1,.32.89c-.24.32-.23.49-.07.66s.54-.15,1.09-.66c2.52-2.42,4.63-4.59,5.66-5.62s1.17-1.34.94-1.59-.43-.12-.68.16-.68.6-1.16,1c-.66.44-1.8.94-5.42-.37-6-2.2-22.11-8.29-24.34-9.07-.89-.29-1.31-.42-1.72,0s-.21.87.25,2l9.71,24.64a5.69,5.69,0,0,1,.6,3.62,11.83,11.83,0,0,1-3.51.12c-3.43-.34-7.87-1.27-13.44-2.41,1.22-5,1-8-.74-10.25a6.71,6.71,0,0,0-5.59-2.36c-2.61.28-5.13,2-7.18,3.6-1,.78-3.87,3.18-5,4.05-.64.5-2.83,2.08-4.51,3.41-.49.41-.69.67-.52.88s.47.16.8-.11a14,14,0,0,1,1.4-.92c1.25-.5,1.81-.43,2.68.54s1.45,1.78,5.1,6.36l4.18,5.34A77.66,77.66,0,0,1,715,904.91Z"/><path class="cls-5" d="M735.17,876.3c-.13.1-.23.1-.31-.1l-4.16-9.66c-.07-.15-.19-.33-.08-.44s.26.08.4.13l9.7,4.06c.15.05.15.15.06.28Z"/><path class="cls-5" d="M704.74,883.12a.49.49,0,0,1,0-.67,15.52,15.52,0,0,1,1.81-1.63c1.93-1.5,5.83-2.8,9.17,1.46a6.51,6.51,0,0,1,1.45,6.15c-.25.81-.64,1.29-1.92,2.3a11.76,11.76,0,0,1-2.66,1.67c-.31.09-.47,0-.75-.31Z"/><path class="cls-3" d="M669,915.69l-1.92,0c-4.17-.14-5.41-1.06-6.18-2.58-1.18-2.37.54-4.89,3.22-6.22a5.7,5.7,0,0,1,4.92-.46,4.34,4.34,0,0,1,2.14,1.79c.16.42.39.54.63.42s.31-.6-.06-1.32c-1.35-2.73-1.72-3.75-1.91-4.2-.13-.26-.37-.27-.74-.18a23.89,23.89,0,0,0-5.57,2.07c-5.13,2.57-8,7.37-5.86,11.58,1.52,3,4.12,4.64,9.69,4.92l2.78.13c4.21.21,5.34,1.54,6.07,3,1.25,2.41.28,5.35-2.91,6.93-2.3,1.19-5.55,1.74-7.61-.42a6.45,6.45,0,0,1-1.23-1.65c-.14-.22-.29-.51-.66-.34s-.27.6,0,1.11,1.17,2.79,2.1,4.68c.39.77.61.89,1.28.82a18.71,18.71,0,0,0,6.48-2.11c2-1,4.33-2.41,5.49-4.55,1.76-3.15,1.76-5.71.48-8.28C678.06,917.72,675.26,915.84,669,915.69Z"/><path class="cls-3" d="M704.32,914.77a16.48,16.48,0,0,1-1.88,1c-1.12.46-1.69,0-2.39-.85-1-1.34-2.67-3.89-4.53-6.88l-8.22-13.27,4.49-2.66c3.19-1.93,4.76-1.48,5.34-.7l.25.32c.36.5.51.58.79.43s.16-.37,0-.75c-.52-.84-1.92-3.33-2.39-4-.29-.53-.46-.7-.7-.55s-.33.32-.84.74a20.55,20.55,0,0,1-2.33,1.63l-14.29,8.85c-1.17.71-2.5,1.51-3.61,2s-1.45.35-1.78.54-.18.41,0,.88a44.16,44.16,0,0,0,1.7,4.43c.22.33.39.48.64.33s.22-.35.14-.67a4.41,4.41,0,0,1-.07-1.48c.07-1.05.74-1.81,2.73-3.08l5.19-3.4,8.2,13.24a80.87,80.87,0,0,1,4.16,7.08c.5,1,.67,1.79.06,2.39a7.4,7.4,0,0,1-1.18.89c-.48.25-.48.51-.37.66s.49.23,1,0c1.34-.89,3.69-2.49,4.48-3,1-.63,3.47-2,5.76-3.39.43-.25.61-.53.47-.78S704.73,914.54,704.32,914.77Z"/><path class="cls-5" d="M709.53,828.73a7,7,0,0,1,5.59-1.82,8.58,8.58,0,0,1,1.57.39c.61.31,3.66,2.11,2.35,5.46l-.45.79-.6,1c-2.77,4.41-7.85,10.94-16.77,18.53C702.37,844.06,704.85,832.53,709.53,828.73Z"/><path class="cls-3" d="M280.27,906.21c1.11-2.12,1.91-6.58-4.95-10.19-1.28-.63-2.82-1.3-4.67-2.3-.72-.35-3-1.72-5-2.8-.56-.26-.85-.34-1,0s0,.44.45.68a6.2,6.2,0,0,1,1.38.9c1.14.94,1.08,1.71.45,3.08s-1.17,2.44-4.35,8.51l-3.64,7c-1.89,3.68-3.57,6.8-4.63,8.38-.73,1.07-1.36,1.82-2.23,1.6a5.57,5.57,0,0,1-1.44-.54c-.42-.23-.63-.2-.77,0s.07.54.57.76c.74.43,1.76.85,2.62,1.32s1.77.89,2.17,1.07c.59.29,1.71.92,2.78,1.59s2.14,1.28,2.58,1.53c6.94,3.63,12.36.86,14.57-3.4,2.44-4.64.19-9.42-2.37-12.18C275.78,910.45,278.56,909.43,280.27,906.21Z"/><path class="cls-5" d="M269.55,922.66c-2.13,4.14-5.5,3.6-7.21,2.69a7.05,7.05,0,0,1-2.49-1.9c-1-1.14-.68-1.91.67-4.51l4.92-9.42c.11-.19.21-.23.37-.13.55.27.93.49,1.61.86a6.19,6.19,0,0,1,2.65,2.6A10.76,10.76,0,0,1,269.55,922.66Z"/><path class="cls-5" d="M268.48,908.69a17.9,17.9,0,0,1-1.73-1.06c-.1-.09-.2-.23,0-.59l5.11-9.78c.24-.48.42-.55.73-.5a6.69,6.69,0,0,1,1.27.54c3.24,1.72,2.91,6,1.47,8.65-1,1.93-2.31,3.09-3.72,3.41A4.17,4.17,0,0,1,268.48,908.69Z"/><path class="cls-3" d="M249.42,920.14a6.63,6.63,0,0,1-1.34-1.12c-.68-.68-1.35-1.88-.47-6.14,1.46-7.17,5.84-26.21,6.33-28.85.21-1.08.21-1.58-.11-1.78s-.84,0-2,.86l-24.41,17.66c-1.95,1.37-3.46,2.18-5.25,1.36-.35-.17-.84-.46-1.16-.64s-.42-.23-.6,0,0,.5.45.78c1.83,1.23,3.83,2.42,4.23,2.68,1.14.69,2.55,1.83,3.69,2.59.42.26.69.32.91,0s0-.36-.4-.63l-.52-.38c-1.06-.71-1.06-1.4-.66-2.08a9.52,9.52,0,0,1,2.05-1.94l5.42-4.09c.25-.17.38-.19.51-.1l8,5.24a.37.37,0,0,1,.18.5l-2.36,9.81a.76.76,0,0,1-.89.65c-.41-.18-.58-.18-.75,0s.27.56.87,1c2.82,1.93,5.41,3.66,6.71,4.52s1.7,1,1.86.68S249.7,920.36,249.42,920.14Z"/><path class="cls-5" d="M244.65,901.26l-6.56-4.32c-.15-.09-.09-.21,0-.35l9.34-7c.14-.15.31-.28.44-.19s0,.27-.07.44L245,901.19C245,901.3,244.83,901.38,244.65,901.26Z"/><path class="cls-3" d="M303,907.88c-11.22-4.55-19.46,2.88-22.51,10-3.2,7.29-2.78,17.94,8,22.27,9.48,3.86,18.71-1.2,22.92-10.67S312.31,911.64,303,907.88Z"/><path class="cls-5" d="M305.43,928.85c-5.26,12-11.95,10.91-14.56,9.82-7.15-2.89-8.49-11.43-4.71-20,4.5-10.26,10.56-10.93,14.86-9.19C307.12,911.91,309.47,919.59,305.43,928.85Z"/><path class="cls-3" d="M338.46,956.91a4.55,4.55,0,0,1-1.1-.46c-.6-.33-2.14-1.17-3.59-4.36-1.58-3.44-3.14-8.11-5.23-14.05,5.24-2.2,7.4-4.7,8.46-7.86a7.69,7.69,0,0,0-.94-6.73c-1.65-2.28-4.28-3.38-6.84-4.2-1.27-.43-4.37-1.27-5.76-1.72-.86-.27-3.37-1.22-5.54-1.92-.61-.19-.87-.19-1,.13s.11.41.54.58A8.19,8.19,0,0,1,319,917c1.21.74,1.33,1.53,1,3s-.77,2.58-2.81,9l-2.43,7.53c-1.27,3.92-2.34,7.27-3.12,9-.59,1.16-1.07,2-1.9,2a5.74,5.74,0,0,1-1.57-.3c-.47-.16-.68-.08-.75.13s.16.54.69.71c1.63.5,4.21,1.19,5,1.46.58.19,3.55,1.27,5.87,2,.54.17.85.15,1-.16s0-.38-.37-.49a14.57,14.57,0,0,1-1.93-.82c-1.15-.54-1.09-1.58-.81-2.84.35-1.86,1.47-5.23,2.69-9.19l.23-.63c.06-.23.24-.29.39-.21l3.52,1.21a.78.78,0,0,1,.63.53c.32.82,1.24,4.31,2.14,7.18,1.23,4,2.13,6.53,3.51,8,.87,1,1.82,1.49,4.12,2.21l3.85,1.22c.5.16.81.16.89-.17S338.75,957.05,338.46,956.91Z"/><path class="cls-5" d="M324,936.21a10.9,10.9,0,0,1-3-1.39c-.22-.21-.25-.44-.1-.89l4.18-13c.09-.34.2-.51.55-.51a10,10,0,0,1,2.19.52c2.41.76,5.64,3.77,3.7,9.79-1.13,3.55-2.92,5.1-4.45,5.65C326.14,936.74,325.56,936.74,324,936.21Z"/><path class="cls-3" d="M223.38,895.39c-.26-.26-.53-.13-.82.12a5.21,5.21,0,0,1-2.75,1.12c-1.68.12-3-1.12-4.87-2.8-2.69-2.52-3.35-3.58-3.45-4.64-.21-1.24,1.91-3.51,5.83-7.7l5.37-5.76c4.65-5,5.52-5.88,6.54-6.87s1.94-1.41,3-.69a12.48,12.48,0,0,1,1.43,1.13c.41.41.7.55.89.28s0-.48-.45-1c-1.36-1.26-3.94-3.5-4.8-4.26s-3-3-4.57-4.5c-.53-.5-.85-.64-1-.43s-.09.5.28.86a7,7,0,0,1,1.06,1.16c.91,1.3.7,2.06-.29,3.24s-1.76,2-6.4,7l-5.37,5.8c-2.81,3-5.23,5.57-6.69,6.78-1,.85-1.9,1.4-2.68.89a8.35,8.35,0,0,1-1.35-1c-.41-.38-.66-.42-.81-.28s-.06.57.4,1c.68.67,1.64,1.41,2.43,2.16s1.59,1.44,2,1.8c1.41,1.32,2.61,2.5,4.06,4s3.28,3.17,5.78,5.5c1.76,1.68,2.09,1.68,3,1.14a37.6,37.6,0,0,0,4-3.29C223.5,895.8,223.62,895.62,223.38,895.39Z"/><path class="cls-5" d="M237.62,827.32a8,8,0,0,1,1.6-.42,7.18,7.18,0,0,1,5.65,1.83c4.63,3.8,7.12,15.33,8.28,24.33-8.93-7.61-14-14.15-16.79-18.57,0,0-.45-.71-.45-.71l-.59-1a4.91,4.91,0,0,1-.33-1.18v-.08C234.78,829,237.05,827.62,237.62,827.32Z"/><path class="cls-6" d="M475.22,840.22h0c-116,0-210.84-94.88-210.84-210.83V335.68H686.07q0,146.83,0,293.71C686.07,745.34,591.19,840.21,475.22,840.22Z"/><path class="cls-7" d="M677.75,629.52A202.54,202.54,0,0,1,332,772.62a205.53,205.53,0,0,1-28.94-36.4c-4.33-7.22-8.16-14.38-11.53-21.29a201.9,201.9,0,0,1-18.89-85.41V344H677.75Z"/><path class="cls-8" d="M289.1,389.8c2.21-1.64,12.69-9.25,12.69-9.25l12.79,9.26-4.88-15s10.48-7.63,12.72-9.24H306.75s-4.07-12.5-4.91-15.13c-.83,2.63-4.91,15.13-4.91,15.13H281c2.23,1.63,12.9,9.35,12.9,9.35S289.94,387.17,289.1,389.8Z"/><path class="cls-8" d="M636.15,389.8c2.21-1.64,12.67-9.25,12.67-9.25s10.62,7.67,12.81,9.27c-.82-2.63-4.85-15.05-4.85-15.05l12.69-9.24h-15.7s-4-12.5-4.9-15.13C648,353,644,365.53,644,365.53H628.06c2.23,1.63,12.91,9.35,12.91,9.35S637,387.17,636.15,389.8Z"/><path class="cls-8" d="M410.44,783s-4-12.52-4.88-15.16c-.85,2.64-4.9,15.16-4.9,15.16h-16l12.93,9.34s-4,12.3-4.83,14.9C395,805.63,405.5,798,405.5,798s10.58,7.63,12.79,9.25c-.85-2.62-4.85-15-4.85-15s10.48-7.62,12.71-9.26Z"/><path class="cls-8" d="M549.71,783s-4.08-12.52-5-15.16c-.83,2.64-4.87,15.16-4.87,15.16H523.94l12.93,9.34s-4,12.3-4.84,14.9c2.26-1.6,12.71-9.23,12.71-9.23s10.58,7.63,12.79,9.25l-4.87-15s10.45-7.62,12.67-9.26Z"/><path class="cls-8" d="M634.74,685c2.2-1.62,12.66-9.25,12.66-9.25s10.6,7.66,12.81,9.27c-.82-2.61-4.82-15.07-4.82-15.07s10.46-7.59,12.67-9.21H652.38s-4.07-12.51-4.89-15.14l-4.94,15.14h-16c2.29,1.64,13,9.37,13,9.37S635.56,682.39,634.74,685Z"/><path class="cls-5" d="M475.23,776.42c81,0,147-65.91,147-146.95l0-230H328.11V629.52C328.18,710.54,394.17,776.42,475.23,776.42Z"/><path class="cls-9" d="M336.47,407.8H614V629.47c0,76.44-62.28,138.63-138.73,138.63S336.52,705.93,336.47,629.52Z"/><path class="cls-8" d="M308.15,660.76s-4-12.51-4.89-15.15c-.86,2.64-4.91,15.15-4.91,15.15H282.41c2.22,1.64,12.9,9.37,12.9,9.37s-4,12.26-4.81,14.89c2.2-1.62,12.68-9.27,12.68-9.27l12.82,9.3c-.85-2.62-4.86-15.07-4.86-15.07l12.72-9.22Z"/><path class="cls-3" d="M377,575.78a10.49,10.49,0,0,0,7.9.44,9.66,9.66,0,0,0,5.6-4.93,10.45,10.45,0,0,0,1-4.64,4.45,4.45,0,0,0-.05-.74c2.24-.6,7.21-.28,12.42,1.47l.23.08,5.37,1.6c2.9.86,7.51,2.17,13,3.31,1.42.38,1.42.38,2.87,2.87l2,3.3a12.24,12.24,0,0,0,14.24,5.34l1.72-.61a13.37,13.37,0,0,0,14.19,3.26l5-1.87-3.95-3.56c-3.41-3.05-4.58-4.85-5-5.75a66.74,66.74,0,0,0,9.14-1.17c3.67,5.08,9.94,11.34,20.49,17-3.9,1.72-12.46,5.28-19.85,6.37-3.21.44-13.65,2.65-20.26,11.08-7.05-.48-12,1.43-13.91,5.63a11.15,11.15,0,0,0,.69,10.73c4,6.08-1.41,14.12-1.41,14.12a16.87,16.87,0,0,0,10.78-4.44c.31,1.17.67,2.36,1.11,3.58a58,58,0,0,0,10.85,18.9c2.37,2.91,3.59,4.43,3.59,6.15a8.45,8.45,0,0,1-1.53,4c-.38.52-6.39,8.78-18.33,15.71a42.79,42.79,0,0,1-9.94,4.22c-5.62,1.41-7.49-.39-7.62-.9a10,10,0,0,0-10.86-8.18,10.16,10.16,0,0,0-6.65,3.53c-3.54.58-6.21,2.57-6.87,5.53a5.88,5.88,0,0,0-.29,2.24,13.15,13.15,0,0,0,3.38,8.46s1.13-3.25,3.2-4.27a9,9,0,0,0,1.78,2,9.76,9.76,0,0,0-4.55,7.22c-2.16,1.74-3.46,3.92-3.46,6.09,0,.25,0,.49,0,.74a10.86,10.86,0,0,0,6.8,8.73c.05-.14.57-5.31,1.95-6.07a10.76,10.76,0,0,0,5.77,1.08c.4,0,.83-.15,1.24-.22v.14a6.3,6.3,0,0,1,0,5.31,5.83,5.83,0,0,0,.43,2.59c3.63,7.46,11.83,5.86,11.83,5.86s-2.42-3.08-2.06-5.31v0c.22,0,.46,0,.68,0a10.28,10.28,0,0,0,6.87-3.73,9.61,9.61,0,0,0,2.2-6.08,6.35,6.35,0,0,0-.08-1,10.38,10.38,0,0,0-1.87-5c2.09-2.22,9-5.42,16.06-5.85a26.58,26.58,0,0,1,6.25.7c5.19,1,11.6,2.18,18.36-2.45l5.32-3.69a9.51,9.51,0,0,0,4.34-3.91s.51-.86,1-1.61a13.43,13.43,0,0,0,9.11-7.08s.68-1.23,1.35-2.42c2.55-1.17,5.08-3.41,6.9-7.75,0,0,.12-.24.12-.26a18.8,18.8,0,0,0,2.84,1.42,19.6,19.6,0,0,0,3.18,1.07,12.22,12.22,0,0,1,2.58,1.1c3.35,2.35,4.26,8.71,4.26,8.71s4.09-4.37,4.22-10.06a10.67,10.67,0,0,0-.45-3.3,60.93,60.93,0,0,0,8,2.9l3.61,1c8.6,2.71,12.69,4.6,12.69,8.07a3.71,3.71,0,0,1,0,.67c-1.15,8.5-9.73,22.79-17,28.33-2.77,2.07-4.25,2.14-4.8,2.07a10.15,10.15,0,0,1-3-.68c-1.4-2.35-3.59-5.82-8-6.4a9.83,9.83,0,0,0-6.25,1.2c-3.11-.6-5.84-.32-7.57,1.51-4.77,5.17-1.67,13.61-1.67,13.61s2.83-3,4.82-3.51a9.82,9.82,0,0,0,5,5.64,8.51,8.51,0,0,0-1.48,3.84c-.05.37-.05.71-.07,1a7.71,7.71,0,0,0-2.88,5.74v.24c.37,5.51,7,9.58,7,9.58s1-4.92,2.11-6.48a7.16,7.16,0,0,0,2.37.9,9.66,9.66,0,0,0,5.33-.79,9.94,9.94,0,0,0,4.5,5.24c0,.13.05.22.05.36-.1,3.28-3,6.36-3,6.36s7.55,2.46,12.86-2.15c1-.87,1.64-2.6,1.64-4.93,0-.17,0-.37,0-.57a9.45,9.45,0,0,0,3.11-6.22,7.76,7.76,0,0,0,.08-1.35,9.43,9.43,0,0,0-3.48-7.43,0,0,0,0,0,0,0,6,6,0,0,1,1.27-3.45c1.52-2,4.3-3.14,8.07-3.21a22.49,22.49,0,0,1,2.86.34c5.57.88,15.87,2.52,21.75-8.56,0,0,.8-1.48,1.31-2.44,2.83-.93,5.49-2.63,6-6.43,0,0,.1-.76.17-1.25a10.35,10.35,0,0,0,5.87-8.47s.16-1.11.24-1.83c7.62-2.73,8.16-15.22,8.16-15.22s-6.29,3.81-10.74,3.4c.13-1.15.32-2.36.32-2.36a32.81,32.81,0,0,0,.55-4.77,7.27,7.27,0,0,0-1.46-4.69c-2-2.65-5.78-3.52-10.84-4a32.47,32.47,0,0,1-5.8-1.1l-.06,0-.08-.11c-1.11-.26-4.59-1.49-5.58-3.51a2.4,2.4,0,0,1-.27-1.19,5.08,5.08,0,0,1,.5-2,11.83,11.83,0,0,1,1.67-2.5c12.4,4.36,18.64-2.07,20.82-5.21a7.21,7.21,0,0,0,1.57-3.7,2.93,2.93,0,0,0-.9-2.16l-.17-.19a12.55,12.55,0,0,0,5.88-8.29l1.23-6-5.69,2.43a16.32,16.32,0,0,1-6.68,1.09,39.53,39.53,0,0,0,.8-6.13c6.35,0,15.39-1.1,22.15-7,5.16-4.49,7.93-10.89,7.93-18.51a32.42,32.42,0,0,0-3.52-14.76,15.86,15.86,0,0,0,2.16-7.7,13.26,13.26,0,0,0-4.37-9.77,23.13,23.13,0,0,0-5.73-3.93c-2.75-1.43-4-2.11-4.64-7.28l-1-8.38L575,556.34a15.15,15.15,0,0,0-2.63,8c-8.85-7.11-11.93-13-11.93-22.76a17,17,0,0,1,3.6-9.92,22.63,22.63,0,0,0,15,3.17c6-.8,11.24-3.89,14.17-8.26a50.53,50.53,0,0,0,4.67-9.52c2.48-6.16,4.5-10.91,12.43-14.65-4.14-3.59-12.57-3-17.37.07a46.67,46.67,0,0,0,.33-5.51c0-1.81-.11-3.61-.25-5.24a5.23,5.23,0,0,1,0-.68c.14-8,10.75-16.77,10.75-16.77s-17.28-2.59-24.49,10.92a9.33,9.33,0,0,0-2.62-4.63s.32,6.73-12.38,12.6c-5.85,2.68-10.33,7.19-12.17,12.59a17.65,17.65,0,0,0-1,5.89A23,23,0,0,0,553,519.6c-5.38,6.25-8.24,12.65-8.7,19.81a39.15,39.15,0,0,1-6.13-2c-3.06-1.17-6.48-3.49-6.48-8a9.78,9.78,0,0,1,.21-1.6c6.8,3.26,15.27-.3,15.27-.3s-8.64-4.84-8.86-11.45a8.51,8.51,0,0,1,.36-2.31l1.41-3.69c.11-.28.22-.58.36-.87.91,3.05.58.84,1.59,8.05A27.25,27.25,0,0,0,550.37,498a24.73,24.73,0,0,0-.55-5.19c4.9.81,11.26-2.61,11.26-2.61s-9.17-4.82-11.77-13.88c11.82,1.21,18.05-9.93,18.05-9.93s-8.81.63-12.64-3.55a6.56,6.56,0,0,1-1.49-3.61c7.13-2.2,14.31,3.29,14.31,3.29S566.31,452,554.82,443a26.52,26.52,0,0,0,5.62-14.77s-9.73,4.83-14,5.13c2.13-4,3.43-7.93,3.28-11.85a26.41,26.41,0,0,0-2-9.06,31.26,31.26,0,0,1-11.18,11c-5.53,2.66-6.38,2.75-11.82,3.39,0,0-2,.25-4,.45a12.21,12.21,0,0,0-5.21-1.14A12.43,12.43,0,0,0,505,432.78c-9.58-1.72-16.23-1.84-19.74-.28-13.17-1.14-21-.15-23.3,3a7,7,0,0,0-1.29,4,8.06,8.06,0,0,0,1.13,4.1s.14.25.2.33a10.25,10.25,0,0,0-1.22,4.82c0,.35,0,.7,0,1a15.33,15.33,0,0,0,3.35,8,3.76,3.76,0,0,1-3.09-.57c-5.48-4-5.44-15.2-5.44-15.2s-9.92,7.82-8.36,18.63a12.81,12.81,0,0,0,7.43,10.25,15,15,0,0,0,7.2,1.33,14.6,14.6,0,0,0-.52,3.73,23.6,23.6,0,0,0,1.33,7.16c-19.53-5.36-25.66,8.43-27.34,14.12a19,19,0,0,1-3.11-2.33V477.62a1.66,1.66,0,0,0-.63-1.31l-9.07-6.5a1.65,1.65,0,0,0-.47-.25l-6.41-1.93-.32-.08a10.92,10.92,0,0,0,.18-2.14,10,10,0,0,0-10.08-10,10.19,10.19,0,0,0-7.73,3.08,10.63,10.63,0,0,0-17,.83,9.4,9.4,0,0,0-6.85-2.6,9.21,9.21,0,0,0-9.18,9.14c0,.15.06.29.06.43s-.61.14-1.44.39a123.35,123.35,0,0,0-12.56,4.37,1.6,1.6,0,0,0-.72.53l.27-.27-9.65,7.44a1.55,1.55,0,0,0-.63,1.26v64.12a1.57,1.57,0,0,0,1.57,1.6l26.6,0a9.65,9.65,0,0,0-1.19,1.28c-3.11.35-5.58,1.78-6.6,4a8.53,8.53,0,0,0-1,4.25,16.5,16.5,0,0,0,2.22,7.5,12.08,12.08,0,0,1,4.89-4.85,10.8,10.8,0,0,0,4.43,4,13.31,13.31,0,0,0,1.28.48c0,.06-.09.13-.12.18a8.74,8.74,0,0,0-.77,2.33,8.1,8.1,0,0,0-3.08,4.78,5.26,5.26,0,0,0-.22,1.73c.43,8.19,8.35,9.87,8.35,9.87-.54-3.27-.77-4.35,0-6.08C376.58,575.5,376.8,575.65,377,575.78Z"/><path class="cls-4" d="M475,680.26c.25.69,2.82.64,9.37.18-5.1,9.12-13.88,4.25-14.9,6.12,0,0-1,2,4.88,2.44-3.93,6.4-10.74.56-15,3.65,0,0-.72,2.2,6.25,3-8.31,5.76-16,.77-22.94,1.2-8.08.49-15.94,4.16-18.52,7.15a2.7,2.7,0,0,0-.67,2.91,8,8,0,0,1,2,4.37,6.77,6.77,0,0,1-6.12,7.17,7.85,7.85,0,0,1-2.59-.2,4.36,4.36,0,0,0-.15,5.7c-4.76-1.79-5.48-5.35-3.68-8.36A5.33,5.33,0,0,1,412,713a7.32,7.32,0,0,1,4.88-7.1,2.52,2.52,0,1,0-3.41-2.41c-.31,4.12-2.61,6.31-6.25,6.68a7.27,7.27,0,0,1-5.43-1.68c-2.39.75-4.05,3.52-3.55,4.88a6.42,6.42,0,0,1-1.94-4.14c-.25-1.8,1.44-3.6,3.35-4.71v-.13a6.77,6.77,0,0,1,6.22-7.2c3.94-.39,4.22,1.48,5.34,1.45a2.46,2.46,0,0,0,2.23-1,2.53,2.53,0,0,0-.34-3.37,2.27,2.27,0,0,0-2.77-.32,3.71,3.71,0,0,1-2.17.76,6.79,6.79,0,0,1-7.39-5.51c-1.63.1-4.22,1.66-4.44,3.11a9,9,0,0,1-.28-4.37c.54-2.18,3.07-3.19,5.52-3.26a6.93,6.93,0,0,1,5.22-3.3,6.66,6.66,0,0,1,7.33,5.52c.37,2.15,3.58,5.51,11.6,3.47a45.3,45.3,0,0,0,10.76-4.52v-.05C449.68,678.16,456,669,456,669c6.86-11.26-5.33-11-12.6-31.84-2.39-6.87-2.83-12.53-2-17.16-1.86-.08-3.65,1-2.76,5.52,1.34,7.05-5.55,9.53-5.55,9.53,4.4-8.21-3.8-13.16-.95-19.45,1.92-4.26,8.4-4.16,12.4-3.64,4.79-7.24,13.37-10.36,19.27-11.24,10.48-1.53,22.9-7.62,22.9-7.62s8.08,3.67,12.34,5.46c3.66,1.57,11.35,4,14.64,9.59s-1.46,12.13-1.46,12.13-11.85-4.27-16.08.72,1.62,8.87,1.62,8.87-4.77,4.61-12.6-1.69c0,0-2.48,2.49,2.68,6.5,0,0-4.59,4.17-12,0,0,0-.33.63-.76,1.69-1.52,7.24.31,12,2.8,15.74,5.69,7.27,12.7,10.51,4.05,18.68,1.72,1,3.49-.1,10.61-.16C487.57,682.48,477.43,674.23,475,680.26Z"/><path class="cls-9" d="M496,652.11a14.49,14.49,0,0,0-5.74,6l-.11.29-.22.59a8.91,8.91,0,0,0-.52,3.06,10,10,0,0,0,1.68,5.33c-1,0-2,.1-2.77.15a9.09,9.09,0,0,0,.87-3.66c0-4-2.93-7.21-5.49-10,0,0-3.08-3.52-3.2-3.68a14.79,14.79,0,0,1-2.71-8.71,23.75,23.75,0,0,1,.15-2.41c5.72,1.72,10.12-.25,12.07-2l2.63-2.38a13,13,0,0,0,4.25-.62,10.79,10.79,0,0,0,5.41-4.4s-4.35-1.66-4.42-4.83c0-.18-.11-.73.73-1.74,1.83-2.14,8.12-1.23,12.1.12a57.22,57.22,0,0,1-5.36,6.41c-4.89,5.06-9.48,12.72-9.48,20.47C495.87,650.75,496,651.43,496,652.11Z"/><path class="cls-4" d="M556.8,520.13c-5.2-9.59-.72-19.82,8.75-24,10.79-4.78,11.51-9.65,11.51-9.65.82,9.65-2.46,11.53-4.53,13.38a15.91,15.91,0,0,0-3.45,3.53c3.42-.47,8-2.89,8.89-6,2.73-9.89,6.4-18.68,20-20.87,0,0-9,7.43-8.2,15.54.82,8.53-.16,19.21-7.51,25.1a14.06,14.06,0,0,0,4.87-4.33c5.84-11,18.5-10.15,18.5-10.15-9.35,2.69-9.66,14-15.14,22.13-5,7.48-18.29,10-27.09,2.47-3.52,3.9-6.19,8.7-6.19,14.33,0,11.44,4,18.19,14,26,3.42,2.65,7,5.42,10.25,8.51.44-.82.76-2.73-3.07-6-5.73-4.83-.71-11.93-.71-11.93,1.22,10.27,5.93,8,11.3,13.18,6.52,6.23,1.94,13.34.77,14.92a29.77,29.77,0,0,1,4,15c0,6.65-2.36,12.21-6.78,16.05-7.4,6.39-18.37,6.4-23.18,6a35.89,35.89,0,0,1-1.61,11.77c5.1,2.57,11.91-.39,11.91-.39-1.57,7.71-11.1,9-15.82,9.11a10.25,10.25,0,0,0-1.3.16c1.88,1.31,5.62,2.88,12.26,2.06,0,0-4.71,11.68-20.06,5a17.05,17.05,0,0,0-3.75,5c-3.83,8.6,7.58,11.24,7.58,11.24l0,.06a37.4,37.4,0,0,0,6.41,1.22c12.88,1.28,9,4.67,8.12,15.27.14,1.19,5,1,10.44-1.13-1.49,11.18-13.18,5.66-14.12,12.45,0,0,2.62,1.69,6.44-.78-1.41,10.37-15.22,5.73-15.71,9.29.61.56,3.59,1.74,9.67.43-.92,6.77-14.17,2.55-15,8.71a10.89,10.89,0,0,0,8-.91c-6,11.34-17.36,6.37-21.78,6.45-13.06.31-13.37,11.1-11.88,12a6.36,6.36,0,0,1,2.82,6.38,6,6,0,0,1-3.4,5.07c1.91,7.36-6,6.78-6,6.78a6.77,6.77,0,0,0,.75-6.54,6.53,6.53,0,0,1-4.49-7.09,6.24,6.24,0,0,1,3.27-4.76A2.1,2.1,0,0,0,516,727c-1.15-.5-2.22-.29-2.71.72-.65.78-.11,2.29-.27,3.33a6.72,6.72,0,0,1-10.53,4.43,5,5,0,0,0-2.91,5s-6.3-5.09.24-9.15a6.22,6.22,0,0,1-.05-2.07c.45-3.59,3.73-5.82,8.77-5.42a2.06,2.06,0,0,0,2.2-3c-1.27-2-3.29-.22-3.29-.22a6.87,6.87,0,0,1-6,2.17,6.68,6.68,0,0,1-5.71-7.09,5.27,5.27,0,0,0-5.46,1.72s-1.17-8.83,7.78-6.17a6.69,6.69,0,0,1,5.17-1.49c2.88.38,4.4,2.81,5.81,5.18.51.78,1.77,1.47,5.17,1.93,8.85,1.2,23.74-21,25.4-33.16.93-7-6.37-9.6-15-12.32-1.15-.3-2.34-.64-3.6-1a59.43,59.43,0,0,1-7.94-2.91,29.88,29.88,0,0,1-8.81-5.44c-1.65.93-3.35,2.68.83,4.88,6.15,3.27,3.82,9.7,3.65,10.18v.05a6.66,6.66,0,0,0-2.79-4.58,14.79,14.79,0,0,0-3.69-1.58,14.85,14.85,0,0,1-2.73-.95,17.56,17.56,0,0,1-2.61-1.27,11.35,11.35,0,0,1-2.14-1.74,6.61,6.61,0,0,1-1.87-7c.06-.14.09-.26.13-.36s.09-.16.12-.23c1.17-2.64,4.12-4.53,6.31-5.57-2.16-8.5,3.63-17.32,8.13-22,7.78-8.1,10-14.4,10-14.4,1.56-5.13,5-13.83-23-24.61-17.35-6.68-26.1-15.31-30.5-22.28a56.73,56.73,0,0,1-10.44,1.55,10.83,10.83,0,0,1,2.93-4.87,7.7,7.7,0,0,1,5.61-1.55c7.52.51,14.71-3.05,19.85-9a13.5,13.5,0,0,0,1.58,5.24c1.52,2.69,5.27,7.32,13.76,8.35l5.79.74-2.46-5.31a18.55,18.55,0,0,1-1.62-6.55c0-1.86.61-2.27.81-2.4a33.07,33.07,0,0,0,7.59-6.43c6.8,11.95,21.21,9.37,21.21,9.37s-6.92-3.87-7.37-11.29a5.48,5.48,0,0,1,.28-2l.24-.32a24.91,24.91,0,0,0,2.17-3.55,12.1,12.1,0,0,0,3.18,2.09,10.3,10.3,0,0,0,1.42.54,68.1,68.1,0,0,0,2.67,11.19c8,24.28,12.78,22.83,21.8,32.38,7.1,6.54,9.79,15.45,10.58,19.56a5.64,5.64,0,0,0,5.59,4.78c3.74-.28,8.06-1.18,10.83-3.58,2.16-1.88,3.22-4.58,3.22-8.26,0-11.17-8.28-18.13-18.21-25.86-10.64-8.28-17.76-17.34-17.76-33.83C547.43,532.53,551.52,525.73,556.8,520.13Z"/><path class="cls-9" d="M563.17,578c9.67,7.5,17,13.72,17,23.3,0,3.56-1.22,5-2.11,5.8-1.71,1.49-4.81,2.46-8.73,2.77a2.4,2.4,0,0,1-2.39-2.12c-.56-3-3.12-13.61-11.57-21.34a76.65,76.65,0,0,0-6-5.61c-5.3-4.56-9.13-7.86-14.9-25.38a61.9,61.9,0,0,1-2.4-9.57c5.68.27,10.15-3.21,12.13-5.05v.81C544.2,560.74,553.7,570.6,563.17,578Z"/><path class="cls-4" d="M474,491.64c11.43,5.67,11.8-7,11.8-7,15.64,6,23.14-4.56,24-5.86a18.85,18.85,0,0,1-11.91,4.59h-.46c-.28,0-.6,0-.88,0s-.59,0-.84-.07c-.51-.05-1-.13-1.5-.21l-.32,0c-5-.91-10.69-3.43-17-4.91-7.92-1.87-9.29,8.29-9.29,8.29-7.56-15.59,2-18.95,2-18.95a7.83,7.83,0,0,0,.93,1.45h0A10.07,10.07,0,0,0,472.8,471a14.37,14.37,0,0,0,4.78,1.73c.34.07.71.12,1.06.17.19,0,.36.06.57.07.39,0,.78.07,1.17.07,6.05.26,12.59-2.28,13.94-8.31-2.36-1.49-9.56-4.83-21,.81-12.37,6.09-20.79,4.07-22.95-5.64-1.36-6.35,3.45-12.38,3.45-12.38S455,463.07,465,460.9c9.67-2.08,19.69-8.13,29.58,1.86.36-10-9.62-11.94-17.55-10-8.72,2.08-7.18,6.44-7.18,6.44a1,1,0,0,1-.14-.12c-.87-.75-5.35-4.79-5.69-9.49s2.48-6.87,5.16-7.8a17.08,17.08,0,0,0-4.61.22s-1.49-2.49,0-4.6c2.36-3.31,21.33-1.58,21.33-1.58,3.48-2.59,16.94-.17,21,.64a9.42,9.42,0,0,1,8.64-7.07c5.18-.09,9.48,4.48,9.56,10.18s-3.82,10.24-8.87,10.48c3.56,1.8,12.15-2.36,12.39-10.08.22-6.66-3.63-9.92-3.63-9.92,5.66-.66,6.88-.79,12.92-3.69,4.42-2.11,8.41-7,8.41-7,.86,7-2.56,13.14-5.94,17.39,2.61.8,7.55.46,16.71-4,0,0-1.21,5.66-7.53,10.92A31.23,31.23,0,0,1,562.88,457c-5.36-3.15-13.06-.14-13.06-.14-.78,12.23,12.25,11.77,12.25,11.77-5.37,5.66-11.62,5.4-16.94,3.37a23.56,23.56,0,0,0,9.36,17.17c-2.58.47-5.22,1.08-8.42-1-.47.49-.36,1.56-.05,2.54a24.42,24.42,0,0,1-2.27,19.76,16,16,0,0,0-5.17-11.6c.7,7.11-1.23,8.29-3,13.91-2.48,7.9,4.61,12.81,4.61,12.81-9.17,1.91-11.58-6.15-11.58-6.15a19.36,19.36,0,0,1,.15,7.15c-1.28,6.14,1.46,11.3,8.32,13.89h0a12.93,12.93,0,0,0,2.88.42c-13.54,6.11-17.19-6-17.19-6,0,5.82-3.8,9.47-4.09,10.39-2.19,7.16,3.73,11.93,3.73,11.93-4.68-.55-10.92-5-12.84-10.3-1.13-3.08-1.16-8.54-1.16-8.54.31,7.33-4,11.68-10.14,15.69-5,3.21-.34,13-.34,13-11.45-1.41-14.09-10.55-12.09-14.86s.17-11,.17-11c-2,11.87-12,22-23.46,21.25s-12,11.22-12,11.22c-5.36-13.56,4.46-22.31,10.32-25.06s5.49-11.72,5.49-11.72c-2.55,4.33-9.41,7.29-17.6,7.05s-13.7,8-13.7,8c-1.63-10,9.16-22,18.7-24.6a17.22,17.22,0,0,0,3.19-1.34c-4.51-1.41-11.34-1.06-20.43,6.76,0,0,.77-15,15.8-20.81a28.17,28.17,0,0,1-3.94-1c-6-2-12.23,1.67-12.23,1.67a23.94,23.94,0,0,1,5.31-8.58h0l.06-.08a13.58,13.58,0,0,1,5.4-3.36c2.64-.88,8.55-.17,9.14-.4-1.34-2.14-1.55-3-2.51-4-4.46-5-14.48-1.37-14.48-1.37C448.09,478,462.57,485.94,474,491.64Z"/><path class="cls-9" d="M470.84,486.45c.24-1.22,1-3.81,2.53-4.85a3.05,3.05,0,0,1,2.66-.31c2.26.53,4.43,1.22,6.57,1.89,0,.6,0,1.39,0,1.39-.08,1.24-.63,4.12-2.08,5s-3.73-.17-5-.81l-1.22-.59Z"/><path class="cls-9" d="M474.86,468.41c7.14-3.51,12.17-3.1,15.19-2.08-1.93,2.55-5.88,3.62-9.55,3.48l-1-.08-.45-.05-.94-.13A11.43,11.43,0,0,1,474.86,468.41Z"/><path class="cls-9" d="M448.53,497.05a10.17,10.17,0,0,0-2.67.47,18.44,18.44,0,0,0-4.55,2.43,28.77,28.77,0,0,1-3.91-1.65C440.07,497.22,444.5,495.91,448.53,497.05Z"/><path class="cls-4" d="M432.24,499.81a31.19,31.19,0,0,0,5.91,3.11,29.06,29.06,0,0,0-5.92,12.69Z"/><path class="cls-4" d="M432.23,517.75c1.44-.84,6.64-3.73,10.73-4A29.83,29.83,0,0,0,434,530.48a12.57,12.57,0,0,1-1.07-1l-.71-.59Z"/><path class="cls-9" d="M432.23,534l1.26.83.05,4.48a9.81,9.81,0,0,1,2-1.43,26,26,0,0,0-3.36,7.57Z"/><path class="cls-9" d="M432.12,545.86c-.13.56-.24,1.1-.32,1.65a81.33,81.33,0,0,1-22.17,1.4,45.25,45.25,0,0,1-9-1.44,23.63,23.63,0,0,1-4.08-1.63Z"/><path class="cls-10" d="M422.27,538.35A1.59,1.59,0,0,0,423,537V474c2.17,1.54,5.39,3.85,6.1,4.39V542.7H394.18a8.09,8.09,0,0,0,.38-2.61,10.46,10.46,0,0,0-1-4.46c5.39-1.69,14.7-2.72,27.27,2.87A1.62,1.62,0,0,0,422.27,538.35Z"/><path class="cls-10" d="M414.32,470.51c.31.1.76.25,1.34.41l4.16,1.28,0,62.49c-12.49-4.94-22.65-4.07-28.33-1.82a10.19,10.19,0,0,0-2.63-1.85,6.44,6.44,0,0,0-.8-.35V482.43a2.35,2.35,0,0,0,2-1.16c2.23-4.55,3.34-5,3.37-5s.14,0,.21-.08a11,11,0,0,0,4.5-3.34,13.11,13.11,0,0,0,2.67,1.45,1.8,1.8,0,0,1,.41.2c.24.22,1,1.13,2.75,4.87a1.61,1.61,0,0,0,1.25,1.15,1.47,1.47,0,0,0,1.36-.44,3,3,0,0,0,.49-.86c1.65-3.44,2.35-4.37,2.62-4.6A8.44,8.44,0,0,0,414.32,470.51Z"/><path class="cls-4" d="M373.89,459.84c2.81,0,4.88,1.18,5.7,3.23a1.52,1.52,0,0,0,1.49,1,1.56,1.56,0,0,0,1.38-1.13,7,7,0,0,1,7-5.16c3.22,0,5.66,1.53,6.73,4.21a1.5,1.5,0,0,0,1.38,1A1.54,1.54,0,0,0,399,462c1-2.25,3.35-3.53,6.45-3.53a7,7,0,0,1,7,6.91c0,.36,0,.67-.06,1a1,1,0,0,1-.07.36,2.62,2.62,0,0,1-.07.5,7.33,7.33,0,0,1-.31,1c-.07.22-.18.44-.27.65s-.08.15-.12.23a5,5,0,0,1-.39.64c-.1.13-.18.25-.25.36l-.26.29c-.13.11-.26.26-.4.36a.53.53,0,0,1-.17.16,3.81,3.81,0,0,1-.62.43c-.07,0-.14.06-.18.12a7.61,7.61,0,0,1-.75.28c-.83.29-1.63,1.05-3.13,3.82-1.39-2.69-2.16-3.5-2.89-3.83l-.54-.24c-1.56-.68-2.31-1-2.84-2.05a1.51,1.51,0,0,0-1.47-.8,1.49,1.49,0,0,0-1.33,1c-.62,1.89-1.93,2.76-4,3.73-1.12.42-2.25,1.65-3.59,3.85-1.35-3.21-2.1-3.6-2.49-3.8a6.28,6.28,0,0,1-3.77-4.28,1.44,1.44,0,0,0-1.38-1.11,1.49,1.49,0,0,0-1.49.95c-.44,1.1-1.21,1.5-2.84,2.24l-.24.15c-.52.23-1.17.71-2.83,3.46-1-2.43-1.62-3.13-2.31-3.46a7.35,7.35,0,0,1-.72-.39,2.39,2.39,0,0,0-.22-.16,4.58,4.58,0,0,0-.46-.33l-.23-.23c-.1-.1-.24-.19-.36-.33l-.21-.27-.27-.35a3.37,3.37,0,0,1-.21-.31c-.08-.12-.13-.26-.22-.39a1.53,1.53,0,0,0-.16-.31l-.16-.46a2.24,2.24,0,0,1-.11-.31,6.11,6.11,0,0,1-.17-.74,5.49,5.49,0,0,1-.06-.91A6.07,6.07,0,0,1,373.89,459.84Z"/><path class="cls-10" d="M363.33,470c1.13-.35,1.91-.56,2.16-.63a9.19,9.19,0,0,0,4.41,4.67A25.25,25.25,0,0,1,372,479c0,.08.07.16.1.22s0,.15.08.2.09.1.18.18a1.05,1.05,0,0,0,.39.3.22.22,0,0,0,.15.08l.24.08.11,0h.23a.81.81,0,0,0,.17,0,.62.62,0,0,0,.26-.06.58.58,0,0,0,.18-.08.71.71,0,0,0,.23-.14l.15-.12a1.08,1.08,0,0,0,.18-.23.38.38,0,0,0,.11-.11s0,0,.06-.06a34.59,34.59,0,0,1,3.11-5.12.62.62,0,0,1,.17-.07,12.66,12.66,0,0,0,2.57-1.49,9.72,9.72,0,0,0,4.06,3.52,6.6,6.6,0,0,1,.76,1.26v52.76a10.5,10.5,0,0,0-4.23.46c-3.37-1.44-6.73-1.09-8.9,1.05a2.65,2.65,0,0,0-.4.42,72.47,72.47,0,0,0-19.4,2.34V473.8h-.1C357.07,472,361,470.71,363.33,470Z"/><path class="cls-10" d="M343.2,542.6V480.84c.64-.53,1.87-1.47,4.23-3.31l1.93-1.42V536.5a1.62,1.62,0,0,0,.66,1.29,1.56,1.56,0,0,0,1.42.19,66.24,66.24,0,0,1,18.72-2.91,17,17,0,0,0-.95,6.3s3.42-1.31,5.17-1a8.17,8.17,0,0,0,.39,2.25H369.1a.7.7,0,0,0-.29,0Z"/><path class="cls-4" d="M373.12,576.13c-3.15-4.1-1.88-7.57,1.3-9.2a5.4,5.4,0,0,1,.58-2.76,7.52,7.52,0,0,1,8-3.55,2.56,2.56,0,1,0-1.64-3.94c-2.52,3.44-5.72,4.08-9,2.46a7.15,7.15,0,0,1-3.8-4.35c-2.49-.64-5.45.86-5.76,2.34a6.66,6.66,0,0,1,.56-4.66c.77-1.7,3.2-2.37,5.45-2.27,0-.08,0-.08.08-.13,1.56-3.31,5.77-4.55,9.27-2.91,3.62,1.79,2.85,3.56,3.84,4.12a2.44,2.44,0,0,0,2.46.31,2.55,2.55,0,0,0,1.54-3.11,2.39,2.39,0,0,0-2.26-1.77,3.41,3.41,0,0,1-2.27-.49,4.83,4.83,0,0,1-.66-.4c-.24-.18-.52-.37-.74-.57a6.06,6.06,0,0,1-.64-.6c-.27-.29-.5-.6-.74-.91,0,0,0,0-.05,0-.18-.34-.37-.71-.54-1.07a6.89,6.89,0,0,1-.1-5.15c-1.45-.79-4.56-.82-5.5.3a10.2,10.2,0,0,1,1.16-2.67,6.61,6.61,0,0,1,.95-1.25c1.61-1.62,4.34-1.14,6.52.14a9.69,9.69,0,0,1,1.36-.56,8.33,8.33,0,0,1,3-.15,7.26,7.26,0,0,1,2,.64,3.51,3.51,0,0,1,.61.32c.11.07.2.17.32.24a7.29,7.29,0,0,1,2.13,2.3,6.78,6.78,0,0,1,.32,5.84v.06c0,.14-.11.28-.12.4a.27.27,0,0,0,0,.12,2.1,2.1,0,0,0,0,.36v.07a3,3,0,0,0,.06.66,1.22,1.22,0,0,0,.08.17,1.08,1.08,0,0,1,0,.19,3.69,3.69,0,0,0,.23.51s0,.05,0,.09a5.53,5.53,0,0,0,.35.57c1.12,1.56,3.62,3.29,8.24,4.73a45.08,45.08,0,0,0,9.65,1.55,84.67,84.67,0,0,0,22.3-1.28,17.82,17.82,0,0,0,2.42,8.1s6-11.88,14.55-11.71a31,31,0,0,0,11-1.61.73.73,0,0,0-.13.1c-5.48,2.56-13.38,9.62-13.77,20.33-.38,9.52,4.68,12.12,6.19,12.69a30.54,30.54,0,0,0,4.52,4.78,10.38,10.38,0,0,1-12.71-5.19c-3-5.18-6.87-5.24-6.87-5.24s-1,4.58,3.77,7.71a9,9,0,0,1-10.47-4c-3.77-6.07-3.31-6.74-6.94-7.6-5.1-1.12-9.52-2.32-12.72-3.27-3-.91-4.92-1.49-5.37-1.6l-.1,0c-5.87-2-11.67-2.4-14.62-1.47-1.38.41-2.2,1.52-2.12,2.19a8.54,8.54,0,0,1-.64,4.83,6.9,6.9,0,0,1-9.14,3,7.5,7.5,0,0,1-2.15-1.57A4.44,4.44,0,0,0,373.12,576.13Z"/><path class="cls-3" d="M466.85,613.29c-.39,15.47-17.56,14.49-17.56,14.49,17.56,3.08,19.84-11.64,19.84-11.64a72.47,72.47,0,0,0,24.24-7.4C484.2,613.11,466.85,613.29,466.85,613.29Z"/><path class="cls-8" d="M289.1,536.35c2.2-1.65,12.69-9.24,12.69-9.24s10.6,7.63,12.79,9.25c-.85-2.6-4.88-15.06-4.88-15.06s10.48-7.63,12.72-9.2H306.75s-4.07-12.51-4.91-15.16c-.83,2.65-4.91,15.16-4.91,15.16H281c2.22,1.62,12.9,9.32,12.9,9.32Z"/><path class="cls-3" d="M532.31,611.25s20.13,16.46-10.78,39.7c0,0,19.27-9.16,20.41-24.33C542.75,615.54,532.31,611.25,532.31,611.25Z"/><path class="cls-3" d="M403.75,491.64c-6.59,0-12,5.85-12,13.09a13.43,13.43,0,0,0,1.36,5.72h-.67a1.74,1.74,0,1,0,0,3.48h3.58a1.72,1.72,0,0,0,1.54-.86,1.82,1.82,0,0,0-.07-1.82,12,12,0,0,1-2.24-6.52c0-5.29,3.81-9.62,8.47-9.62s8.44,4.33,8.44,9.62a12,12,0,0,1-2.32,6.62,1.78,1.78,0,0,0-.09,1.81,1.83,1.83,0,0,0,1.57.9h3.83a1.76,1.76,0,0,0,0-3.51h-.89a14.42,14.42,0,0,0,1.41-5.82C415.7,497.49,410.36,491.64,403.75,491.64Z"/><path class="cls-3" d="M495.55,471.55s8-5.52,1.21-16C496.76,455.58,498.6,465.28,495.55,471.55Z"/><path class="cls-3" d="M489.13,444.45c5.5-.05,11.8.58,11.8.58s-6-5.57-9.31-5.52S489.13,444.45,489.13,444.45Z"/><path class="cls-8" d="M636.14,536.35c2.22-1.65,12.68-9.24,12.68-9.24s10.62,7.61,12.81,9.25c-.83-2.6-4.85-15.06-4.85-15.06s10.48-7.63,12.69-9.2h-15.7s-4-12.51-4.9-15.16C648,499.59,644,512.1,644,512.1H628.05L641,521.43S637,533.74,636.14,536.35Z"/><path class="cls-3" d="M364,513.32a.75.75,0,0,1-.48-.12.41.41,0,0,1-.12-.31,1.4,1.4,0,0,1,.06-.25c0-.14.1-.33.16-.61s.21-.67.33-1.13.33-1.07.56-1.83h8.58c.05.13.1.41.23.79s.23.81.36,1.25a8.28,8.28,0,0,1,.36,1.15c.12.35.21.52.21.53,0,.34-.23.49-.65.53v.48H380v-.48a.51.51,0,0,1-.46-.25,2.9,2.9,0,0,1-.48-1c-.39-1-.76-2.21-1.21-3.55s-.91-2.7-1.39-4.07-.92-2.77-1.36-4.11-.82-2.57-1.18-3.6-.61-1.93-.79-2.58-.38-1.07-.38-1.14a.42.42,0,0,1,.2-.39,1.35,1.35,0,0,1,.44-.11V492H364.5v.49a1.43,1.43,0,0,1,.43.11.25.25,0,0,1,.21.29,4.5,4.5,0,0,1-.21.88c-.22.55-.43,1.27-.69,2.14s-.58,1.91-.92,3-.69,2.28-1.08,3.44-.72,2.35-1.06,3.47-.69,2.16-1,3.1-.52,1.67-.71,2.29a9.79,9.79,0,0,1-.34,1.13,2.83,2.83,0,0,1-.32.69,1.26,1.26,0,0,1-.57.26v.48H364Z"/><polygon class="cls-10" points="368.61 495.38 372.17 505.76 365.34 505.76 368.61 495.38"/><path class="cls-8" d="M462.63,389.8c2.22-1.64,12.68-9.25,12.68-9.25s10.6,7.67,12.87,9.27l-4.93-15.05s10.49-7.63,12.72-9.22H480.31s-4.07-12.52-4.92-15.15c-.81,2.63-4.89,15.15-4.89,15.15l-16,0,12.91,9.35Z"/><path class="cls-2" d="M957.92,1022a3.07,3.07,0,0,1-3.18-2.94V156.84a3.2,3.2,0,0,1,6.37,0V1019.1A3.08,3.08,0,0,1,957.92,1022Z"/></svg>