<svg id="Layer_1" data-name="Layer 1" xmlns="http://www.w3.org/2000/svg" viewBox="0 0 400 200"><defs><style>.cls-1,.cls-2{fill:#a84c2d;}.cls-1{stroke:#a84c2d;stroke-miterlimit:10;stroke-width:4px;}.cls-3{fill:#741c1e;}.cls-4{fill:#d25a2f;}</style></defs><title>imago-mundosenior-color</title><path class="cls-1" d="M90.8,52.78a8.15,8.15,0,0,0-4.32-5.05c-3.6-1.8-10.08,2.15-6.48,5.05s10.8,3.59,10.8,3.59Z"/><path class="cls-2" d="M146.11,171.12H53.2s4.55-10.93,14.57-17.31S27.12,126.23,33.16,80.94c5.87-44.09,11-43.58,13.22-47C56.2,19,86,19,98.74,26.28s14.58,30.06,10,33.71-7.49,1.7-9.11,0c-.63-.66.92-7.11-1.82-14.27-2.93-7.66-18.73-12.21-25.51,0-4.85,8.74-1.64,15.08,13.18,27C110.69,93,141.55,96.43,146.11,171.12Z"/><path class="cls-3" d="M144.42,171.12H116.33S42.27,126.38,37.73,84.3s69.17,64.13,69.17,64.13Z"/><path class="cls-4" d="M35.81,76.09a61.63,61.63,0,0,1,47.12,0c25.13,10.54,36.58,23.56,36.58,23.56s10.33,11.89,14.14,21.32,6.28,16.83,7.41,23.79,3.36,25.36,3.36,25.36S50.29,143.21,35.81,76.09Z"/><path class="cls-4" d="M198,90.88c-.14,0-.38.1-.72.14s-.81.15-1.39.24v25.21c.58.09,1.06.19,1.39.24s.58.14.72.14a1.6,1.6,0,0,1,.29.05,1.37,1.37,0,0,1,1.2,1.49v2.83H185.89v-2.83a1.37,1.37,0,0,1,1.2-1.49c.09,0,1.15-.15,3.12-.43V98.8c0-.43,0-.86,0-1.34s0-1,.09-1.54L179.89,115.6a3,3,0,0,1-1,1.06,2.48,2.48,0,0,1-1.35.38h-.86a2.43,2.43,0,0,1-1.34-.38,2.92,2.92,0,0,1-1-1.06l-10.6-19.73c0,.53,0,1.06.09,1.54a13.39,13.39,0,0,1,0,1.39v17.67c2,.28,3,.43,3.12.43a1.37,1.37,0,0,1,1.2,1.49v2.83H154.64v-2.83a1.37,1.37,0,0,1,1.2-1.49.79.79,0,0,0,.28-.05,3.94,3.94,0,0,1,.72-.14l1.45-.24V91.26L156.84,91c-.33,0-.57-.14-.72-.14a.79.79,0,0,0-.28,0,1.37,1.37,0,0,1-1.2-1.49V86.51h8.49c.29,0,.58,0,.77,0a2.07,2.07,0,0,1,.58.1c.19,0,.29.19.43.33a3.23,3.23,0,0,1,.43.58l10.37,19.25c.29.53.48,1.05.72,1.58s.48,1.11.72,1.68c.24-.57.43-1.1.67-1.68a16.28,16.28,0,0,1,.77-1.63l10.27-19.2a3.23,3.23,0,0,1,.39-.58,1,1,0,0,1,.48-.33,2.28,2.28,0,0,1,.57-.1c.2,0,.44,0,.72,0h8.5v2.83a1.37,1.37,0,0,1-1.2,1.49A1.6,1.6,0,0,1,198,90.88Z"/><path class="cls-4" d="M237.25,86.51v2.83a1.38,1.38,0,0,1-1.2,1.49,1.79,1.79,0,0,1-.29,0c-.14,0-.38.1-.72.14l-1.44.24v16a15.75,15.75,0,0,1-1,5.71,13.48,13.48,0,0,1-2.83,4.56,13.72,13.72,0,0,1-4.56,3,17.67,17.67,0,0,1-12,0,13.3,13.3,0,0,1-4.51-3A13.78,13.78,0,0,1,205.8,113a15.74,15.74,0,0,1-1-5.71v-16L203.41,91c-.34,0-.58-.14-.73-.14a1.43,1.43,0,0,1-.28,0,1.37,1.37,0,0,1-1.2-1.49V86.51h13.92v2.83a1.38,1.38,0,0,1-1.2,1.49,2.58,2.58,0,0,1-.34,0c-.14,0-.43.1-.81.14s-.92.15-1.49.24v16a10.4,10.4,0,0,0,.53,3.6,7.76,7.76,0,0,0,1.58,2.78,6.82,6.82,0,0,0,2.45,1.73,9.27,9.27,0,0,0,6.72,0,7,7,0,0,0,2.49-1.73,8.18,8.18,0,0,0,1.54-2.73,11.7,11.7,0,0,0,.58-3.6v-16c-.58-.09-1.11-.19-1.49-.24s-.67-.14-.82-.14a2.36,2.36,0,0,1-.33,0,1.37,1.37,0,0,1-1.2-1.49V86.51h13.92Z"/><path class="cls-4" d="M275.46,86.51v2.83a1.38,1.38,0,0,1-1.21,1.49,1.43,1.43,0,0,1-.28,0c-.15,0-.39.1-.72.14l-1.4.24v30h-3.36a3.07,3.07,0,0,1-1.24-.24,2.63,2.63,0,0,1-1-.87L248.09,97c0,.53.1,1,.1,1.49s.05,1,.05,1.39v16.57c2,.28,3,.43,3.12.43a1.38,1.38,0,0,1,1.2,1.49v2.83H238.92v-2.83a1.38,1.38,0,0,1,1.2-1.49.8.8,0,0,0,.29-.05,3.94,3.94,0,0,1,.72-.14l1.44-.24V91.26L241.13,91c-.33,0-.57-.14-.72-.14a1.79,1.79,0,0,1-.29,0,1.38,1.38,0,0,1-1.2-1.49V86.51h7c.29,0,.53,0,.72,0a1,1,0,0,1,.53.14,1.21,1.21,0,0,1,.43.29,7.05,7.05,0,0,1,.48.58l18.24,23.18c0-.57-.09-1.1-.14-1.63s-.05-1.06-.05-1.53V91.26c-2-.28-3-.43-3.12-.43a1.38,1.38,0,0,1-1.2-1.49V86.51h13.64Z"/><path class="cls-4" d="M311.07,103.84a18.27,18.27,0,0,1-1.3,7,16.47,16.47,0,0,1-3.55,5.52,16.11,16.11,0,0,1-5.57,3.55,18.85,18.85,0,0,1-7.15,1.3H277.13v-2.83a1.38,1.38,0,0,1,1.2-1.49,1.79,1.79,0,0,1,.29-.05c.14,0,.38-.1.72-.14l1.44-.24V91.26L279.34,91c-.34,0-.58-.14-.72-.14a1.79,1.79,0,0,1-.29,0,1.38,1.38,0,0,1-1.2-1.49V86.51H293.5a18.85,18.85,0,0,1,7.15,1.3,15.46,15.46,0,0,1,9.12,9A18.31,18.31,0,0,1,311.07,103.84Zm-6.62,0a15.29,15.29,0,0,0-.77-5.09,11.15,11.15,0,0,0-2.16-3.84,9.83,9.83,0,0,0-3.46-2.4,11.62,11.62,0,0,0-4.56-.86h-6.24v24.43h6.24a11.62,11.62,0,0,0,4.56-.86,9.83,9.83,0,0,0,3.46-2.4,10.79,10.79,0,0,0,2.16-3.84A15.59,15.59,0,0,0,304.45,103.84Z"/><path class="cls-4" d="M347.55,111a16.93,16.93,0,0,1-3.55,5.61,16,16,0,0,1-5.57,3.7,19,19,0,0,1-7.15,1.34,19.31,19.31,0,0,1-7.2-1.34,15.89,15.89,0,0,1-5.57-3.7,16.89,16.89,0,0,1-3.6-5.61,19,19,0,0,1-1.25-7.11,18.73,18.73,0,0,1,1.25-7.06,16.89,16.89,0,0,1,3.6-5.61,15.89,15.89,0,0,1,5.57-3.7,19.31,19.31,0,0,1,7.2-1.34,18.11,18.11,0,0,1,7.15,1.34,16.56,16.56,0,0,1,5.57,3.7,16.93,16.93,0,0,1,3.55,5.61,18.94,18.94,0,0,1,1.3,7.06A19.17,19.17,0,0,1,347.55,111Zm-6.1-12.2a9.87,9.87,0,0,0-5.61-6.29,11.65,11.65,0,0,0-4.56-.81,11.87,11.87,0,0,0-4.61.81,10,10,0,0,0-3.46,2.45A10.88,10.88,0,0,0,321,98.75a15.29,15.29,0,0,0-.76,5.09A15.6,15.6,0,0,0,321,109a10.88,10.88,0,0,0,2.21,3.84,10,10,0,0,0,3.46,2.45,11.87,11.87,0,0,0,4.61.81,11.65,11.65,0,0,0,4.56-.81,9.87,9.87,0,0,0,5.61-6.29,17,17,0,0,0,.77-5.14A16.69,16.69,0,0,0,341.45,98.75Z"/><path class="cls-4" d="M181.64,158.17a13.31,13.31,0,0,1-.92,4.91,10.74,10.74,0,0,1-2.64,4,12.18,12.18,0,0,1-4.27,2.7,15.64,15.64,0,0,1-5.73,1h-.8a35.12,35.12,0,0,1-11.18-2.06v-10h3.07a1.15,1.15,0,0,1,1.25,1c.11.49.27,2,.48,4.48a27.29,27.29,0,0,0,7.4.71,7.24,7.24,0,0,0,4.81-1.46,5.24,5.24,0,0,0,1.67-4.21,4.21,4.21,0,0,0-.75-2.54A5.68,5.68,0,0,0,172,155a17.21,17.21,0,0,0-2.86-1.14c-1.08-.32-2.21-.59-3.29-1s-2.22-.81-3.3-1.29a10.78,10.78,0,0,1-2.91-2,7.91,7.91,0,0,1-2-3,11.76,11.76,0,0,1-.81-4.48,10.91,10.91,0,0,1,3.35-7.78,13.05,13.05,0,0,1,4-2.48,14.23,14.23,0,0,1,5.46-1,29.67,29.67,0,0,1,11.18,2.21v10H177.7a1.18,1.18,0,0,1-1.24-1c-.11-.49-.27-2-.49-4.38a17.06,17.06,0,0,0-6.32-.86,9.4,9.4,0,0,0-2.59.32,5.76,5.76,0,0,0-1.89,1,4.77,4.77,0,0,0-1.19,1.56,4.92,4.92,0,0,0-.38,2,3.54,3.54,0,0,0,.81,2.27,6.26,6.26,0,0,0,2,1.57,18.31,18.31,0,0,0,2.92,1.18c1.08.33,2.16.71,3.29,1.08s2.21.87,3.3,1.36a10.35,10.35,0,0,1,2.91,1.94,8.29,8.29,0,0,1,2,2.86A9.73,9.73,0,0,1,181.64,158.17Z"/><path class="cls-4" d="M212.2,131.33v10.26h-3.13a1.18,1.18,0,0,1-1.24-1c-.05-.43-.22-1.56-.38-3.45H194.87v10.8H208.1v5.61H194.87v11h12.58c.16-1.89.33-3,.38-3.45a1.18,1.18,0,0,1,1.24-1h3.13v10.31H183.47v-3.18a1.56,1.56,0,0,1,1.35-1.68,2.36,2.36,0,0,1,.33,0c.16,0,.43-.11.81-.16l1.62-.27V136.68c-.65-.11-1.24-.22-1.62-.27s-.65-.16-.81-.16a2,2,0,0,1-.33-.06,1.55,1.55,0,0,1-1.35-1.67v-3.19H212.2Z"/><path class="cls-4" d="M255.56,131.33v3.19a1.54,1.54,0,0,1-1.35,1.67,1.64,1.64,0,0,1-.32.06c-.16,0-.43.1-.81.16s-.92.16-1.57.27v33.69h-3.78a3.29,3.29,0,0,1-1.4-.27,2.9,2.9,0,0,1-1.13-1l-20.42-26a16.5,16.5,0,0,1,.11,1.67c0,.54.06,1.08.06,1.57V165c2.26.32,3.4.48,3.51.48a1.56,1.56,0,0,1,1.35,1.68v3.18H214.47v-3.18a1.56,1.56,0,0,1,1.35-1.68,1,1,0,0,0,.32,0,5.68,5.68,0,0,1,.81-.16l1.62-.27V136.68c-.64-.11-1.24-.22-1.62-.27s-.64-.16-.81-.16a1.64,1.64,0,0,1-.32-.06,1.54,1.54,0,0,1-1.35-1.67v-3.19h7.88c.33,0,.6,0,.81,0a1.08,1.08,0,0,1,.6.17,1.22,1.22,0,0,1,.48.32,6,6,0,0,1,.54.65L245.3,158.6c-.05-.65-.1-1.24-.16-1.83s0-1.19,0-1.73V136.68c-2.27-.33-3.4-.49-3.51-.49a1.54,1.54,0,0,1-1.35-1.67v-3.19h15.33Z"/><path class="cls-4" d="M271.22,136.25c-.16,0-.43.1-.81.16s-.91.16-1.56.27V165l1.56.27c.38,0,.65.16.81.16a2.12,2.12,0,0,1,.33,0,1.56,1.56,0,0,1,1.35,1.68v3.18H257.45v-3.18a1.56,1.56,0,0,1,1.35-1.68,2.12,2.12,0,0,1,.33,0,5.13,5.13,0,0,1,.81-.16l1.62-.27V136.68c-.65-.11-1.24-.22-1.62-.27s-.65-.16-.81-.16a.89.89,0,0,0-.33-.06,1.54,1.54,0,0,1-1.35-1.67v-3.19H272.9v3.19a1.55,1.55,0,0,1-1.35,1.67A1.8,1.8,0,0,1,271.22,136.25Z"/><path class="cls-4" d="M312.86,158.82a19.29,19.29,0,0,1-4,6.32,17.9,17.9,0,0,1-6.26,4.15,21.22,21.22,0,0,1-8.05,1.52,21.48,21.48,0,0,1-8.1-1.52,17.9,17.9,0,0,1-6.26-4.15,19.25,19.25,0,0,1-4.05-6.32,21.49,21.49,0,0,1-1.41-8,21.19,21.19,0,0,1,1.41-7.94,19.14,19.14,0,0,1,4.05-6.32,17.93,17.93,0,0,1,6.26-4.16,21.68,21.68,0,0,1,8.1-1.51,20.3,20.3,0,0,1,8.05,1.51,18.79,18.79,0,0,1,6.26,4.16,19.18,19.18,0,0,1,4,6.32,21.2,21.2,0,0,1,1.46,7.94A21.5,21.5,0,0,1,312.86,158.82ZM306,145.1a11.26,11.26,0,0,0-2.43-4.32,11,11,0,0,0-3.89-2.75,12.92,12.92,0,0,0-5.13-.92,13.18,13.18,0,0,0-5.18.92,10.89,10.89,0,0,0-3.89,2.75A12,12,0,0,0,283,145.1a17.11,17.11,0,0,0-.87,5.73,17.36,17.36,0,0,0,.87,5.77,12,12,0,0,0,2.48,4.32,11,11,0,0,0,3.89,2.76,13.18,13.18,0,0,0,5.18.92,12.92,12.92,0,0,0,5.13-.92A11.11,11.11,0,0,0,306,156.6a19.06,19.06,0,0,0,.86-5.77A18.79,18.79,0,0,0,306,145.1Z"/><path class="cls-4" d="M351.14,167.19v3.18h-7.29a3,3,0,0,1-1.62-.37,3.58,3.58,0,0,1-1.08-1.08l-8.21-12.53a2.73,2.73,0,0,0-1-1,3.27,3.27,0,0,0-1.62-.33h-2.76V165l1.62.27c.38,0,.65.16.81.16a2.12,2.12,0,0,1,.33,0,1.56,1.56,0,0,1,1.35,1.68v3.18H316.2v-3.18a1.56,1.56,0,0,1,1.35-1.68,2.36,2.36,0,0,1,.33,0,5.13,5.13,0,0,1,.81-.16l1.62-.27V136.68c-.65-.11-1.24-.22-1.62-.27s-.65-.16-.81-.16a2,2,0,0,1-.33-.06,1.55,1.55,0,0,1-1.35-1.67v-3.19h15.61a25.41,25.41,0,0,1,6.86.81,12.94,12.94,0,0,1,4.64,2.32A9.14,9.14,0,0,1,346,138a11.19,11.19,0,0,1,.87,4.53,12.19,12.19,0,0,1-.6,3.73,11.42,11.42,0,0,1-1.67,3.19,9.91,9.91,0,0,1-2.7,2.48,15.33,15.33,0,0,1-3.67,1.73,7.3,7.3,0,0,1,2.37,2.27l6.16,9.07,1.67.27c.44,0,.7.16.92.16a2.91,2.91,0,0,1,.43,0A1.56,1.56,0,0,1,351.14,167.19ZM337.8,148a5.79,5.79,0,0,0,1.46-2.16,7.17,7.17,0,0,0,.49-2.7,5.61,5.61,0,0,0-1.95-4.59c-1.29-1.08-3.29-1.56-6-1.56h-4.27v13h4.16a12,12,0,0,0,3.57-.54A6.71,6.71,0,0,0,337.8,148Z"/></svg>