<svg id="Layer_1" data-name="Layer 1" xmlns="http://www.w3.org/2000/svg" xmlns:xlink="http://www.w3.org/1999/xlink" viewBox="0 0 756 333"><defs><style>.cls-1,.cls-11{fill:none;}.cls-2{isolation:isolate;}.cls-3{clip-path:url(#clip-path);}.cls-4{fill:#1a8e86;}.cls-5{fill:#f16861;}.cls-6{fill:#f26c22;}.cls-7{fill:#fff;}.cls-8{fill:#168e86;}.cls-9{fill:#c1c2c4;}.cls-10{fill:#f26d24;}.cls-11{stroke:#f26d26;stroke-miterlimit:10;stroke-width:2px;}.cls-12{fill:#6a6c6c;}</style><clipPath id="clip-path"><rect id="SVGID" class="cls-1" x="345.24" y="25" width="344.78" height="141.52"/></clipPath></defs><title>imago-ayllu-color</title><g class="cls-2"><g class="cls-3"><path class="cls-4" d="M377.05,40.62c1.86-.26,3.62-.46,5.3-.59s3.54-.2,5.57-.2c1.77,0,3.49.06,5.17.2s3.54.33,5.57.59L428.5,136a73.36,73.36,0,0,1-10.61.8,59.58,59.58,0,0,1-9.81-.8l-5.31-19.09H371.22L365.78,136a55.71,55.71,0,0,1-9.15.8A58.81,58.81,0,0,1,347,136Zm21.22,60.2-11-40-11.54,40Z"/><path class="cls-4" d="M429.69,67.41a29.42,29.42,0,0,1,5.37-.73c1.55,0,3-.07,4.31-.07,1.77,0,3.58,0,5.44.14a27.62,27.62,0,0,1,5,.66l14.32,59.8,16.17-59.8a50.36,50.36,0,0,1,9-.8c1.33,0,2.74,0,4.24.07a34.13,34.13,0,0,1,5.57.73l-25.59,84.73a33.38,33.38,0,0,1-3.78,8.35,17,17,0,0,1-11.2,7.76,36.36,36.36,0,0,1-7.43.73,45,45,0,0,1-6.69-.46,57,57,0,0,1-5.91-1.26,6.74,6.74,0,0,1-.13-1.13v-1a24.06,24.06,0,0,1,.73-6,44.75,44.75,0,0,1,1.79-5.5,22.58,22.58,0,0,0,3.18.73,24.38,24.38,0,0,0,4,.33,26.11,26.11,0,0,0,3.18-.2,7.33,7.33,0,0,0,3.12-1.19,9.93,9.93,0,0,0,2.85-3.12,23.19,23.19,0,0,0,2.39-6l2.25-8.22c-1,.09-2.05.16-3.25.2s-2.41.07-3.64.07h-2.79a9.62,9.62,0,0,1-2.38-.27Z"/><path class="cls-4" d="M509,39a57.3,57.3,0,0,1,9.42-.79,56.46,56.46,0,0,1,9.28.79v69.62a38,38,0,0,0,.46,6.63,9.84,9.84,0,0,0,1.46,3.91,5.09,5.09,0,0,0,2.59,1.92,12.57,12.57,0,0,0,4,.53,21.91,21.91,0,0,0,2.32-.13,21.58,21.58,0,0,0,2.45-.4,41,41,0,0,1,1.46,10.61v1.92a7.76,7.76,0,0,1-.27,1.92,24.17,24.17,0,0,1-5.1.93c-2,.18-3.83.27-5.5.27q-10.21,0-16.38-5.64T509,112.76Z"/><path class="cls-4" d="M552,39a57.1,57.1,0,0,1,9.41-.79,56.46,56.46,0,0,1,9.28.79v69.62a36.93,36.93,0,0,0,.47,6.63,9.7,9.7,0,0,0,1.45,3.91,5.09,5.09,0,0,0,2.59,1.92,12.57,12.57,0,0,0,4,.53,21.91,21.91,0,0,0,2.32-.13,21.22,21.22,0,0,0,2.45-.4,41,41,0,0,1,1.46,10.61v1.92a7.76,7.76,0,0,1-.27,1.92,24.17,24.17,0,0,1-5.1.93c-2,.18-3.82.27-5.5.27q-10.22,0-16.38-5.64T552,112.76Z"/><path class="cls-4" d="M594.24,67.41a55.8,55.8,0,0,1,18.83,0v36.33a38.73,38.73,0,0,0,.86,9,13.11,13.11,0,0,0,2.66,5.57,9.8,9.8,0,0,0,4.44,2.92,20.3,20.3,0,0,0,6.23.86,30.92,30.92,0,0,0,8.22-.93V67.41a56.5,56.5,0,0,1,9.28-.8,57.24,57.24,0,0,1,9.42.8v65.9A90.91,90.91,0,0,1,643,136.16a73.74,73.74,0,0,1-14.52,1.39,77,77,0,0,1-13-1.06A25.33,25.33,0,0,1,604.52,132,23.13,23.13,0,0,1,597,121.91q-2.79-6.63-2.79-17.64Z"/></g></g><path class="cls-5" d="M153.7,91.42a46.5,46.5,0,1,0,46.5-46.51c-25.56.35-46.5,20.94-46.5,46.51m4.61,0A41.89,41.89,0,1,1,200.2,133.3a42,42,0,0,1-41.89-41.88"/><path class="cls-6" d="M200.2,56.63a34.79,34.79,0,1,1-34.79,34.79A34.79,34.79,0,0,1,200.2,56.63"/><path class="cls-7" d="M200.2,69.4c5.88,0,10.65,5.72,10.65,12.78S206.08,95,200.2,95s-10.65-5.71-10.65-12.78S194.32,69.4,200.2,69.4"/><path class="cls-7" d="M176.77,113.42s-2.13-20.23,11.72-20.23c0,0,10.29,18.81,23.07-.36,0,0,14.55.36,11.71,21Z"/><path class="cls-8" d="M242.6,216.18a25.05,25.05,0,1,0,25-25,25.13,25.13,0,0,0-25,25m2.21,0a22.54,22.54,0,1,1,22.59,22.59,22.42,22.42,0,0,1-22.59-22.59"/><path class="cls-8" d="M267.62,197.35a18.83,18.83,0,1,1-18.82,18.83,18.83,18.83,0,0,1,18.82-18.83"/><path class="cls-7" d="M267.62,204.44c3.18,0,5.75,3.08,5.75,6.87s-2.57,6.86-5.75,6.86-5.76-3.07-5.76-6.86,2.58-6.87,5.76-6.87"/><path class="cls-7" d="M255,228.13s-1.11-10.84,6.42-10.84c0,0,5.54,10.18,12.39-.22,0,0,7.75.22,6.21,11.29Z"/><path class="cls-8" d="M37.69,228.36a41.55,41.55,0,0,0,83.1,0,41.45,41.45,0,0,0-41.55-41.55,41.64,41.64,0,0,0-41.55,41.55m3.74,0a38,38,0,0,1,37.81-37.82,35.64,35.64,0,0,1,26.61,11.2,37.46,37.46,0,0,1,11.21,26.62,38,38,0,0,1-37.82,37.8c-21-.46-37.81-17.27-37.81-37.8"/><path class="cls-8" d="M79.24,197.07A31.28,31.28,0,1,1,48,228.36a31.28,31.28,0,0,1,31.27-31.29"/><path class="cls-7" d="M79.24,208.28c5.16,0,9.34,5.23,9.34,11.67s-4.18,11.67-9.34,11.67S69.91,226.4,69.91,220s4.17-11.67,9.33-11.67"/><path class="cls-7" d="M58.24,248s-1.87-18.2,10.73-18.2c0,0,9.34,16.8,20.54-.47,0,0,13.07.47,10.27,18.67Z"/><path class="cls-5" d="M144.32,192.55a35.18,35.18,0,1,0,35.18-35.18,35.35,35.35,0,0,0-35.18,35.18m3.41,0a31.78,31.78,0,1,1,31.77,31.79c-17.59.56-31.77-13.63-31.77-31.79"/><path class="cls-5" d="M179.5,165.88a26.68,26.68,0,1,1-26.67,26.67,26.68,26.68,0,0,1,26.67-26.67"/><path class="cls-7" d="M193.69,203.33c0,3.41-4,6.82-8.51,6.82h-9.09c-4.54,0-8.51-2.84-8.51-6.82V181.78c0-3.41,4-6.82,8.51-6.82h8.52c4.53,0,8.51,2.85,8.51,6.82v21.55Z"/><path class="cls-7" d="M171,182.34a1.23,1.23,0,0,1-1.14,1.14H167a1.14,1.14,0,1,1,0-2.27h2.83c.57.57,1.14.57,1.14,1.13"/><path class="cls-7" d="M171,188a1.22,1.22,0,0,1-1.14,1.13H167a1.13,1.13,0,1,1,0-2.26h2.83A1.22,1.22,0,0,1,171,188"/><path class="cls-7" d="M171,193.12a1.23,1.23,0,0,1-1.14,1.14H167a1.14,1.14,0,1,1,0-2.27h2.83a1.22,1.22,0,0,1,1.14,1.13"/><path class="cls-7" d="M171,198.8a1.22,1.22,0,0,1-1.14,1.13H167a1.14,1.14,0,1,1,0-2.27h2.83c.57,0,1.14,0,1.14,1.14"/><path class="cls-7" d="M171,203.91a1.22,1.22,0,0,1-1.14,1.13H167a1.14,1.14,0,1,1,0-2.27h2.83a1.22,1.22,0,0,1,1.14,1.14"/><rect class="cls-9" x="170.42" y="181.78" width="20.43" height="2.27"/><rect class="cls-9" x="170.42" y="186.88" width="20.43" height="2.26"/><rect class="cls-9" x="170.42" y="191.99" width="20.43" height="2.27"/><rect class="cls-9" x="170.42" y="197.1" width="20.43" height="2.27"/><rect class="cls-9" x="170.42" y="202.2" width="20.43" height="2.27"/><line class="cls-10" x1="148.86" y1="199.93" x2="117.19" y2="211.31"/><line class="cls-11" x1="148.86" y1="199.93" x2="117.19" y2="211.31"/><line class="cls-11" x1="189.43" y1="160.77" x2="202.02" y2="136.98"/><line class="cls-11" x1="210.85" y1="202.2" x2="242.6" y2="216.18"/><path class="cls-12" d="M354.55,171.31v44.88h-9.87V171.31Z"/><path class="cls-12" d="M371.84,183.69v4.53H372a10.18,10.18,0,0,1,4.4-4.12,12.69,12.69,0,0,1,5.53-1.29,15.15,15.15,0,0,1,5.88,1,8.71,8.71,0,0,1,3.61,2.7,10.53,10.53,0,0,1,1.86,4.21,26.67,26.67,0,0,1,.53,5.5v20h-8.93V197.83a11.47,11.47,0,0,0-1.25-6q-1.26-2-4.47-2-3.65,0-5.28,2.17c-1.09,1.45-1.63,3.82-1.63,7.13v17h-8.93v-32.5Z"/><path class="cls-12" d="M419.55,183.69v6H413v16.09a3,3,0,0,0,3.77,3.78,13.55,13.55,0,0,0,1.45-.07,10.75,10.75,0,0,0,1.32-.19v6.92a22.38,22.38,0,0,1-2.52.25q-1.38.06-2.7.06a26,26,0,0,1-3.93-.28,9.22,9.22,0,0,1-3.27-1.1,5.83,5.83,0,0,1-2.23-2.33,8.33,8.33,0,0,1-.82-4V189.66h-5.4v-6h5.4V174H413v9.74Z"/><path class="cls-12" d="M434.44,208.4a9.18,9.18,0,0,0,10.44.59,5.62,5.62,0,0,0,2.39-2.86h7.85q-1.87,5.85-5.78,8.36a17,17,0,0,1-9.43,2.52,18.49,18.49,0,0,1-6.91-1.23,14.4,14.4,0,0,1-5.22-3.49,15.89,15.89,0,0,1-3.3-5.4,19.94,19.94,0,0,1-1.16-6.92,19.12,19.12,0,0,1,1.19-6.79,15.79,15.79,0,0,1,8.65-9.05,16.8,16.8,0,0,1,6.75-1.32,15.54,15.54,0,0,1,7.23,1.6,14.5,14.5,0,0,1,5.06,4.31,17.78,17.78,0,0,1,2.86,6.16,22.78,22.78,0,0,1,.63,7.23H432.24Q432.44,206.45,434.44,208.4Zm10.09-17.1a6.24,6.24,0,0,0-4.87-1.76,7.79,7.79,0,0,0-3.55.72,6.72,6.72,0,0,0-2.26,1.79,6.52,6.52,0,0,0-1.2,2.26,10.9,10.9,0,0,0-.41,2.14h14.52A10.29,10.29,0,0,0,444.53,191.3Z"/><path class="cls-12" d="M471.21,171.31v44.88h-8.92V171.31Z"/><path class="cls-12" d="M479.57,178.66v-7.35h8.93v7.35Zm8.93,5v32.5h-8.93v-32.5Z"/><path class="cls-12" d="M527.32,218.58a11.15,11.15,0,0,1-2.3,4.68,13.65,13.65,0,0,1-5.09,3.68,22.06,22.06,0,0,1-8.93,1.51,20.73,20.73,0,0,1-4.87-.6,15.49,15.49,0,0,1-4.52-1.86,10.92,10.92,0,0,1-3.4-3.23,9.46,9.46,0,0,1-1.54-4.75h8.87A5,5,0,0,0,508,221.5a8.75,8.75,0,0,0,4.21,1q3.76,0,5.5-2.27a8.83,8.83,0,0,0,1.66-5.72v-4.27h-.12a8.88,8.88,0,0,1-4.12,3.8,13.3,13.3,0,0,1-5.62,1.23,14.17,14.17,0,0,1-6.29-1.29,11.91,11.91,0,0,1-4.34-3.52,14.68,14.68,0,0,1-2.48-5.22,24.48,24.48,0,0,1-.79-6.32,20.5,20.5,0,0,1,.91-6.06,15.83,15.83,0,0,1,2.68-5.16,12.72,12.72,0,0,1,10.37-4.87,12.47,12.47,0,0,1,5.62,1.2,9.62,9.62,0,0,1,4.06,4h.12v-4.34h8.49v30.42A22.25,22.25,0,0,1,527.32,218.58Zm-12.23-10.81a7.11,7.11,0,0,0,2.39-2,8.69,8.69,0,0,0,1.41-2.86,11.56,11.56,0,0,0,.47-3.36,18.49,18.49,0,0,0-.37-3.8,9.46,9.46,0,0,0-1.26-3.18,6.56,6.56,0,0,0-2.33-2.2,7.37,7.37,0,0,0-3.64-.81,6.58,6.58,0,0,0-3.24.75,6.89,6.89,0,0,0-2.26,2,8.57,8.57,0,0,0-1.32,3,14.7,14.7,0,0,0-.41,3.49,17.15,17.15,0,0,0,.35,3.49,9.11,9.11,0,0,0,1.19,3.11,7,7,0,0,0,2.23,2.26,6.31,6.31,0,0,0,3.46.88A7.14,7.14,0,0,0,515.09,207.77Z"/><path class="cls-12" d="M545.64,208.4a9.17,9.17,0,0,0,10.43.59,5.57,5.57,0,0,0,2.39-2.86h7.86q-1.89,5.85-5.78,8.36a17,17,0,0,1-9.43,2.52,18.54,18.54,0,0,1-6.92-1.23,14.36,14.36,0,0,1-5.21-3.49,15.75,15.75,0,0,1-3.31-5.4,19.94,19.94,0,0,1-1.16-6.92,18.9,18.9,0,0,1,1.2-6.79,15.8,15.8,0,0,1,3.39-5.43,16,16,0,0,1,5.25-3.62,16.81,16.81,0,0,1,6.76-1.32,15.6,15.6,0,0,1,7.23,1.6,14.5,14.5,0,0,1,5.06,4.31,17.78,17.78,0,0,1,2.86,6.16,23.08,23.08,0,0,1,.62,7.23H543.44C543.56,205,544.3,207.1,545.64,208.4Zm10.09-17.1a6.26,6.26,0,0,0-4.87-1.76,7.83,7.83,0,0,0-3.56.72,6.82,6.82,0,0,0-2.26,1.79,6.66,6.66,0,0,0-1.19,2.26,10.21,10.21,0,0,0-.41,2.14H558A10.29,10.29,0,0,0,555.73,191.3Z"/><path class="cls-12" d="M581.72,183.69v4.53h.19a10.18,10.18,0,0,1,4.4-4.12,12.69,12.69,0,0,1,5.53-1.29,15.15,15.15,0,0,1,5.88,1,8.71,8.71,0,0,1,3.61,2.7,10.38,10.38,0,0,1,1.85,4.21,26,26,0,0,1,.54,5.5v20h-8.93V197.83a11.47,11.47,0,0,0-1.25-6q-1.26-2-4.47-2-3.65,0-5.28,2.17c-1.09,1.45-1.63,3.82-1.63,7.13v17h-8.93v-32.5Z"/><path class="cls-12" d="M627.1,189.54a6.26,6.26,0,0,0-3.58,1,7.7,7.7,0,0,0-2.36,2.52,10.65,10.65,0,0,0-1.29,3.39,18.52,18.52,0,0,0-.37,3.68,17.7,17.7,0,0,0,.37,3.58,10.84,10.84,0,0,0,1.23,3.3,7,7,0,0,0,2.29,2.42,6.31,6.31,0,0,0,3.52.94,6.54,6.54,0,0,0,4.94-1.79,8.53,8.53,0,0,0,2.17-4.81h8.61q-.89,6.48-5,9.87A16.26,16.26,0,0,1,627,217a17.72,17.72,0,0,1-6.7-1.23,14.93,14.93,0,0,1-5.19-3.43,15.65,15.65,0,0,1-3.33-5.24,18.39,18.39,0,0,1-1.19-6.7,21.78,21.78,0,0,1,1.1-7,15.6,15.6,0,0,1,3.24-5.59,14.8,14.8,0,0,1,5.21-3.68,17.75,17.75,0,0,1,7-1.32,20.14,20.14,0,0,1,5.57.76,14.65,14.65,0,0,1,4.77,2.29,11.84,11.84,0,0,1,4.94,9.27H633.7Q632.82,189.54,627.1,189.54Z"/><path class="cls-12" d="M649,178.66v-7.35h8.93v7.35Zm8.93,5v32.5H649v-32.5Z"/><path class="cls-12" d="M665.63,193.69a10.42,10.42,0,0,1,1.57-5.22,10.77,10.77,0,0,1,3.52-3.33,15.21,15.21,0,0,1,4.81-1.79,27,27,0,0,1,5.38-.54,36.41,36.41,0,0,1,5,.35,15.14,15.14,0,0,1,4.59,1.35,9,9,0,0,1,3.39,2.8,7.79,7.79,0,0,1,1.32,4.74V209a33.39,33.39,0,0,0,.26,4.21,7.49,7.49,0,0,0,.88,3h-9.06a13.39,13.39,0,0,1-.4-1.54,12.08,12.08,0,0,1-.22-1.6,11.81,11.81,0,0,1-5,3.08,20.44,20.44,0,0,1-5.91.88,15.87,15.87,0,0,1-4.34-.57,10,10,0,0,1-3.52-1.76,8.22,8.22,0,0,1-2.36-3,10.26,10.26,0,0,1-.84-4.33,9.45,9.45,0,0,1,1-4.56,8.13,8.13,0,0,1,2.51-2.86,11.21,11.21,0,0,1,3.52-1.6,36.47,36.47,0,0,1,4-.85q2-.32,4-.51a23.25,23.25,0,0,0,3.45-.56,6,6,0,0,0,2.39-1.1,2.42,2.42,0,0,0,.82-2.11,4.76,4.76,0,0,0-.47-2.29,3.48,3.48,0,0,0-1.26-1.32,4.91,4.91,0,0,0-1.82-.63,15.59,15.59,0,0,0-2.23-.16,6.8,6.8,0,0,0-4.15,1.13,5,5,0,0,0-1.76,3.78Zm20.62,6.6a4.12,4.12,0,0,1-1.42.78,13.05,13.05,0,0,1-1.82.47c-.65.13-1.33.23-2,.32s-1.43.19-2.14.31a19.12,19.12,0,0,0-2,.5,6.15,6.15,0,0,0-1.7.85,4.09,4.09,0,0,0-1.16,1.35,4.42,4.42,0,0,0-.44,2.08,4.21,4.21,0,0,0,.44,2,3.25,3.25,0,0,0,1.2,1.29,5.2,5.2,0,0,0,1.76.66,11.72,11.72,0,0,0,2.07.19,7.89,7.89,0,0,0,4.09-.88,5.9,5.9,0,0,0,2.13-2.11,6.66,6.66,0,0,0,.85-2.48,16.13,16.13,0,0,0,.16-2Z"/><path class="cls-12" d="M373.47,244.86a9.79,9.79,0,0,0-2.2-2.48,10.26,10.26,0,0,0-6.47-2.27,11.63,11.63,0,0,0-5.66,1.29,10.72,10.72,0,0,0-3.77,3.46,15,15,0,0,0-2.11,4.94,24.53,24.53,0,0,0-.66,5.72,22.94,22.94,0,0,0,.66,5.5,14.66,14.66,0,0,0,2.11,4.8,10.73,10.73,0,0,0,3.77,3.43,11.52,11.52,0,0,0,5.66,1.29,9.12,9.12,0,0,0,7.07-2.77,12.76,12.76,0,0,0,3.11-7.29h9.56a23.27,23.27,0,0,1-2,7.61,18.22,18.22,0,0,1-4.15,5.78,17.7,17.7,0,0,1-6,3.65,22.27,22.27,0,0,1-7.6,1.25,22.88,22.88,0,0,1-9.27-1.79,19.88,19.88,0,0,1-6.95-4.93,21.9,21.9,0,0,1-4.34-7.39,27.26,27.26,0,0,1-1.51-9.14,28.19,28.19,0,0,1,1.51-9.34,22.45,22.45,0,0,1,4.34-7.51,19.87,19.87,0,0,1,6.95-5,22.72,22.72,0,0,1,9.27-1.82,22.41,22.41,0,0,1,7,1.07,19,19,0,0,1,5.91,3.11,16.9,16.9,0,0,1,4.3,5.06,18,18,0,0,1,2.14,6.91H374.6A7.87,7.87,0,0,0,373.47,244.86Z"/><path class="cls-12" d="M391.58,254.48a15.08,15.08,0,0,1,3.39-5.41,15.43,15.43,0,0,1,5.28-3.46,18.71,18.71,0,0,1,6.92-1.22,18.93,18.93,0,0,1,6.94,1.22,14.84,14.84,0,0,1,8.71,8.87,20,20,0,0,1,1.19,7.07,19.84,19.84,0,0,1-1.19,7,15.16,15.16,0,0,1-3.4,5.37,14.8,14.8,0,0,1-5.31,3.43,19.14,19.14,0,0,1-6.94,1.19,18.92,18.92,0,0,1-6.92-1.19,14.77,14.77,0,0,1-8.67-8.8,19.62,19.62,0,0,1-1.2-7A19.82,19.82,0,0,1,391.58,254.48Zm8.1,10.87a10.41,10.41,0,0,0,1.29,3.33,6.92,6.92,0,0,0,2.42,2.36,7.39,7.39,0,0,0,3.78.88A7.55,7.55,0,0,0,411,271a6.84,6.84,0,0,0,2.45-2.36,10,10,0,0,0,1.29-3.33,19.06,19.06,0,0,0,.37-3.8,19.5,19.5,0,0,0-.37-3.83,9.78,9.78,0,0,0-1.29-3.34A7.17,7.17,0,0,0,411,252a7.35,7.35,0,0,0-3.8-.91,6.88,6.88,0,0,0-6.2,3.26,10.2,10.2,0,0,0-1.29,3.34,19.5,19.5,0,0,0-.37,3.83A19.06,19.06,0,0,0,399.68,265.35Z"/><path class="cls-12" d="M440,232.89v44.88h-8.93V232.89Z"/><path class="cls-12" d="M457.7,270a9.16,9.16,0,0,0,10.44.6,5.59,5.59,0,0,0,2.38-2.86h7.86q-1.89,5.85-5.78,8.36a17,17,0,0,1-9.43,2.51,18.45,18.45,0,0,1-6.91-1.22,14.31,14.31,0,0,1-5.22-3.49,15.53,15.53,0,0,1-3.3-5.41,19.65,19.65,0,0,1-1.16-6.91,18.9,18.9,0,0,1,1.19-6.79,15.65,15.65,0,0,1,8.64-9,16.88,16.88,0,0,1,6.76-1.32,15.42,15.42,0,0,1,7.23,1.6,14.5,14.5,0,0,1,5.06,4.31,17.69,17.69,0,0,1,2.86,6.16,23,23,0,0,1,.63,7.23H455.5Q455.7,268,457.7,270Zm10.09-17.09a6.24,6.24,0,0,0-4.87-1.76,7.76,7.76,0,0,0-3.55.72,6.77,6.77,0,0,0-2.27,1.79,6.66,6.66,0,0,0-1.19,2.26,10.21,10.21,0,0,0-.41,2.14H470A10.29,10.29,0,0,0,467.79,252.88Z"/><path class="cls-12" d="M500.82,251.12a6.26,6.26,0,0,0-3.58,1,7.77,7.77,0,0,0-2.36,2.51,10.8,10.8,0,0,0-1.29,3.4,18.45,18.45,0,0,0-.37,3.68,17.77,17.77,0,0,0,.37,3.58,11,11,0,0,0,1.23,3.3,7.07,7.07,0,0,0,2.29,2.42,6.31,6.31,0,0,0,3.52.94,6.58,6.58,0,0,0,4.94-1.79,8.53,8.53,0,0,0,2.17-4.81h8.61q-.89,6.48-5,9.87a16.25,16.25,0,0,1-10.62,3.39,17.72,17.72,0,0,1-6.7-1.22,14.8,14.8,0,0,1-5.18-3.43,15.46,15.46,0,0,1-3.34-5.25,18.3,18.3,0,0,1-1.19-6.69,21.78,21.78,0,0,1,1.1-7,15.6,15.6,0,0,1,3.24-5.59,14.67,14.67,0,0,1,5.21-3.68,17.75,17.75,0,0,1,7-1.32,20.52,20.52,0,0,1,5.57.75,14.87,14.87,0,0,1,4.77,2.3,11.84,11.84,0,0,1,4.94,9.27h-8.74Q506.54,251.12,500.82,251.12Z"/><path class="cls-12" d="M540.3,245.27v6h-6.54v16.09a3,3,0,0,0,3.77,3.77c.5,0,1,0,1.45-.06a10.75,10.75,0,0,0,1.32-.19v6.92a22.38,22.38,0,0,1-2.52.25q-1.38.06-2.7.06a26,26,0,0,1-3.93-.28,9.35,9.35,0,0,1-3.27-1.1,5.82,5.82,0,0,1-2.23-2.33,8.21,8.21,0,0,1-.82-4V251.24h-5.4v-6h5.4v-9.74h8.93v9.74Z"/><path class="cls-12" d="M545.89,240.24v-7.35h8.93v7.35Zm8.93,5v32.5h-8.93v-32.5Z"/><path class="cls-12" d="M571,277.77l-11.13-32.5h9.37l6.85,22.19h.13L583,245.27h8.86l-11,32.5Z"/><path class="cls-12" d="M596.3,255.26a10.41,10.41,0,0,1,1.57-5.21,10.57,10.57,0,0,1,3.52-3.33,15.46,15.46,0,0,1,4.81-1.8,27.8,27.8,0,0,1,5.38-.53,38,38,0,0,1,5,.34,15.44,15.44,0,0,1,4.59,1.36,9.07,9.07,0,0,1,3.39,2.79,7.84,7.84,0,0,1,1.32,4.75v16.91a33.39,33.39,0,0,0,.26,4.21,7.49,7.49,0,0,0,.88,3h-9.06a13.94,13.94,0,0,1-.4-1.54,12.23,12.23,0,0,1-.22-1.61,11.62,11.62,0,0,1-5,3.08,20.1,20.1,0,0,1-5.91.88A15.87,15.87,0,0,1,602,278a10,10,0,0,1-3.52-1.76,8.31,8.31,0,0,1-2.36-3,10.28,10.28,0,0,1-.84-4.34,9.44,9.44,0,0,1,1-4.55,8.13,8.13,0,0,1,2.51-2.86,11.23,11.23,0,0,1,3.52-1.61,38.92,38.92,0,0,1,4-.84q2-.32,4-.51a23.25,23.25,0,0,0,3.45-.56,6,6,0,0,0,2.39-1.1,2.42,2.42,0,0,0,.82-2.11,4.76,4.76,0,0,0-.47-2.29,3.48,3.48,0,0,0-1.26-1.32,4.74,4.74,0,0,0-1.82-.63,14.26,14.26,0,0,0-2.23-.16,6.8,6.8,0,0,0-4.15,1.13,5,5,0,0,0-1.76,3.77Zm20.62,6.6a4,4,0,0,1-1.42.79,13.05,13.05,0,0,1-1.82.47c-.65.13-1.33.23-2,.32s-1.43.18-2.14.31a16.87,16.87,0,0,0-2,.5,6.15,6.15,0,0,0-1.7.85,4.09,4.09,0,0,0-1.16,1.35,4.42,4.42,0,0,0-.44,2.08,4.26,4.26,0,0,0,.44,2,3.39,3.39,0,0,0,1.2,1.29,5.2,5.2,0,0,0,1.76.66,11.72,11.72,0,0,0,2.07.19,8,8,0,0,0,4.09-.88,5.9,5.9,0,0,0,2.13-2.11,6.66,6.66,0,0,0,.85-2.48,16.13,16.13,0,0,0,.16-2Z"/></svg>