<svg id="Layer_1" data-name="Layer 1" xmlns="http://www.w3.org/2000/svg" viewBox="0 0 754.27 333"><defs><style>.cls-1{fill:#fff;}</style></defs><title>imago-rimay-blanco</title><path class="cls-1" d="M343.11,134.29a14.37,14.37,0,0,1-5.62,1.17,19.88,19.88,0,0,1-8-1.55,17.32,17.32,0,0,1-6-4.28,18.91,18.91,0,0,1-3.76-6.41,23.37,23.37,0,0,1-1.31-7.94,24.14,24.14,0,0,1,1.31-8.1,19.27,19.27,0,0,1,3.76-6.51,17.28,17.28,0,0,1,6-4.37,19.72,19.72,0,0,1,8-1.58,18.92,18.92,0,0,1,5.81.9,16.41,16.41,0,0,1,5.08,2.65,14.28,14.28,0,0,1,5.53,10.19h-8.18a8.16,8.16,0,0,0-3-4.9,8.49,8.49,0,0,0-5.29-1.64,10,10,0,0,0-4.91,1.12,9.24,9.24,0,0,0-3.27,3,13.2,13.2,0,0,0-1.83,4.28,21.37,21.37,0,0,0-.57,5,20,20,0,0,0,.57,4.78,13.08,13.08,0,0,0,1.83,4.17,9.44,9.44,0,0,0,3.27,3,10,10,0,0,0,4.91,1.12,8.35,8.35,0,0,0,9.28-8.4h-8.62v-6.38h16.36v21h-5.45l-.88-4.42A12.68,12.68,0,0,1,343.11,134.29Z"/><path class="cls-1" d="M369.84,127.83a7.94,7.94,0,0,0,9.05.52,4.8,4.8,0,0,0,2.07-2.49h6.82q-1.63,5.08-5,7.26a14.79,14.79,0,0,1-8.18,2.18,16.07,16.07,0,0,1-6-1.06,12.54,12.54,0,0,1-4.53-3,13.66,13.66,0,0,1-2.86-4.69,17.25,17.25,0,0,1-1-6,16.47,16.47,0,0,1,1-5.89,13.61,13.61,0,0,1,7.5-7.86,14.65,14.65,0,0,1,5.86-1.14,13.36,13.36,0,0,1,6.27,1.39,12.49,12.49,0,0,1,4.4,3.74,15.41,15.41,0,0,1,2.48,5.34,19.74,19.74,0,0,1,.54,6.27H367.93C368,124.88,368.67,126.7,369.84,127.83ZM378.59,113a5.45,5.45,0,0,0-4.23-1.53,6.73,6.73,0,0,0-3.08.63,5.84,5.84,0,0,0-2,1.56,5.73,5.73,0,0,0-1,2,8.48,8.48,0,0,0-.35,1.85h12.6A9,9,0,0,0,378.59,113Z"/><path class="cls-1" d="M400.3,127.58a4.53,4.53,0,0,0,1.34,1.48,5.65,5.65,0,0,0,1.88.84,8.92,8.92,0,0,0,2.21.27,8.06,8.06,0,0,0,1.71-.19,5.44,5.44,0,0,0,1.64-.6,3.67,3.67,0,0,0,1.23-1.09,2.85,2.85,0,0,0,.49-1.72c0-1.16-.77-2-2.32-2.61a45.08,45.08,0,0,0-6.46-1.75q-1.69-.37-3.3-.9a11.54,11.54,0,0,1-2.87-1.36,6.7,6.7,0,0,1-2-2.13,6,6,0,0,1-.77-3.14,8.5,8.5,0,0,1,1.07-4.47,7.72,7.72,0,0,1,2.81-2.75,12,12,0,0,1,3.92-1.42,24.53,24.53,0,0,1,4.47-.41,21.74,21.74,0,0,1,4.45.44,11.77,11.77,0,0,1,3.85,1.47,8.85,8.85,0,0,1,2.8,2.75,9.27,9.27,0,0,1,1.34,4.34h-7.36a3.41,3.41,0,0,0-1.69-3,7.71,7.71,0,0,0-3.6-.79c-.44,0-.91,0-1.42.08a5,5,0,0,0-1.39.36,2.8,2.8,0,0,0-1.07.79,2.08,2.08,0,0,0-.43,1.39,2.12,2.12,0,0,0,.76,1.69,5.76,5.76,0,0,0,2,1.06,24.09,24.09,0,0,0,2.81.74c1.06.22,2.13.46,3.22.71a29.76,29.76,0,0,1,3.3.93,10.66,10.66,0,0,1,2.86,1.44,7,7,0,0,1,2,2.24,6.55,6.55,0,0,1,.76,3.3,8.54,8.54,0,0,1-4,7.69,12,12,0,0,1-4.12,1.61,24,24,0,0,1-4.72.46,23.27,23.27,0,0,1-4.8-.49,12.63,12.63,0,0,1-4.17-1.64,9.31,9.31,0,0,1-3-3,9.5,9.5,0,0,1-1.28-4.72h7.36A4.18,4.18,0,0,0,400.3,127.58Z"/><path class="cls-1" d="M439.49,106.39v5.18h-5.67v14a3.78,3.78,0,0,0,.65,2.62,3.84,3.84,0,0,0,2.62.65c.44,0,.85,0,1.25-.05a10.25,10.25,0,0,0,1.15-.17v6a19.09,19.09,0,0,1-2.18.22c-.8,0-1.58.05-2.35.05a23.1,23.1,0,0,1-3.41-.24,7.76,7.76,0,0,1-2.83-1,5,5,0,0,1-1.94-2,7.27,7.27,0,0,1-.71-3.44V111.57h-4.69v-5.18h4.69V97.94h7.75v8.45Z"/><path class="cls-1" d="M444.34,102V95.65h7.75V102Zm7.75,4.36v28.2h-7.75v-28.2Z"/><path class="cls-1" d="M459.29,114.38a12.87,12.87,0,0,1,7.52-7.69,17.6,17.6,0,0,1,12,0,13.15,13.15,0,0,1,4.61,3,13.29,13.29,0,0,1,2.95,4.69,17.39,17.39,0,0,1,1,6.14,17.14,17.14,0,0,1-1,6.11,13.25,13.25,0,0,1-2.95,4.66,12.81,12.81,0,0,1-4.61,3,17.91,17.91,0,0,1-12,0,13,13,0,0,1-4.58-3,13.23,13.23,0,0,1-2.94-4.66,17.14,17.14,0,0,1-1-6.11A17.38,17.38,0,0,1,459.29,114.38Zm7,9.44a9,9,0,0,0,1.12,2.89,6,6,0,0,0,2.1,2,6.43,6.43,0,0,0,3.27.76,6.55,6.55,0,0,0,3.3-.76,5.9,5.9,0,0,0,2.13-2,8.75,8.75,0,0,0,1.12-2.89,16.34,16.34,0,0,0,.33-3.3,16.79,16.79,0,0,0-.33-3.33,8.5,8.5,0,0,0-1.12-2.89,6.13,6.13,0,0,0-2.13-2,6.35,6.35,0,0,0-3.3-.8,6,6,0,0,0-5.37,2.84,8.71,8.71,0,0,0-1.12,2.89,17.56,17.56,0,0,0-.32,3.33A17.1,17.1,0,0,0,466.32,123.82Zm8.19-32-5.79,9.66h5.4L483,91.77Z"/><path class="cls-1" d="M500.74,106.39v3.93h.16a8.9,8.9,0,0,1,3.82-3.57,11,11,0,0,1,4.8-1.12,13.25,13.25,0,0,1,5.1.84,7.59,7.59,0,0,1,3.14,2.35,9.16,9.16,0,0,1,1.61,3.65,22.74,22.74,0,0,1,.46,4.78v17.34h-7.74V118.67a9.94,9.94,0,0,0-1.09-5.21c-.73-1.15-2-1.72-3.88-1.72a5.38,5.38,0,0,0-4.58,1.88c-1,1.25-1.42,3.32-1.42,6.19v14.78h-7.74v-28.2Z"/><path class="cls-1" d="M562.76,131a7.94,7.94,0,0,1-3.58,3.3,11.89,11.89,0,0,1-5,1,12,12,0,0,1-5.56-1.23,11,11,0,0,1-4-3.32,15.09,15.09,0,0,1-2.35-4.83,20.17,20.17,0,0,1-.79-5.67,19,19,0,0,1,.79-5.49,14.3,14.3,0,0,1,2.35-4.66,11.41,11.41,0,0,1,9.35-4.47,11.07,11.07,0,0,1,4.77,1.06,8.4,8.4,0,0,1,3.58,3.14h.1V95.65h7.75v38.94h-7.36V131Zm-.33-13.93a8.16,8.16,0,0,0-1.12-2.84,6.36,6.36,0,0,0-2-2,6,6,0,0,0-3.17-.77,6.32,6.32,0,0,0-3.22.77,6.07,6.07,0,0,0-2.1,2,9.11,9.11,0,0,0-1.14,2.86,15.29,15.29,0,0,0-.36,3.35,14.07,14.07,0,0,0,.39,3.28,9,9,0,0,0,1.22,2.92,7,7,0,0,0,2.13,2.07,5.74,5.74,0,0,0,3.08.79,6.1,6.1,0,0,0,3.19-.76,5.75,5.75,0,0,0,2.05-2,9.16,9.16,0,0,0,1.09-2.92,17.07,17.07,0,0,0,.33-3.38A16.62,16.62,0,0,0,562.43,117.06Z"/><path class="cls-1" d="M585.28,127.83a8,8,0,0,0,9.06.52,4.85,4.85,0,0,0,2.07-2.49h6.82q-1.63,5.08-5,7.26A14.79,14.79,0,0,1,590,135.3a16.07,16.07,0,0,1-6-1.06,12.54,12.54,0,0,1-4.53-3,13.51,13.51,0,0,1-2.86-4.69,17,17,0,0,1-1-6,16.25,16.25,0,0,1,1-5.89,13.61,13.61,0,0,1,7.5-7.86,14.62,14.62,0,0,1,5.86-1.14A13.36,13.36,0,0,1,596.3,107a12.46,12.46,0,0,1,4.39,3.74,15.23,15.23,0,0,1,2.48,5.34,20,20,0,0,1,.55,6.27H583.37Q583.54,126.14,585.28,127.83ZM594,113a5.45,5.45,0,0,0-4.23-1.53,6.7,6.7,0,0,0-3.08.63,6,6,0,0,0-2,1.56,5.7,5.7,0,0,0-1,2,9.2,9.2,0,0,0-.36,1.85H596A9,9,0,0,0,594,113Z"/><path class="cls-1" d="M345,153.31a8.66,8.66,0,0,0-1.91-2.15,8.87,8.87,0,0,0-2.59-1.45,9,9,0,0,0-3-.51,10.09,10.09,0,0,0-4.91,1.11,9.42,9.42,0,0,0-3.27,3,13.34,13.34,0,0,0-1.83,4.29,21.37,21.37,0,0,0-.57,5,19.84,19.84,0,0,0,.57,4.77,12.88,12.88,0,0,0,1.83,4.17,9.47,9.47,0,0,0,3.27,3,10.09,10.09,0,0,0,4.91,1.12,7.93,7.93,0,0,0,6.14-2.4,11.14,11.14,0,0,0,2.7-6.33h8.29a19.9,19.9,0,0,1-1.69,6.6,16,16,0,0,1-3.6,5,15.37,15.37,0,0,1-5.24,3.16,19.12,19.12,0,0,1-6.6,1.09,20.05,20.05,0,0,1-8-1.55,17.34,17.34,0,0,1-6-4.29,18.77,18.77,0,0,1-3.76-6.4,23.37,23.37,0,0,1-1.31-7.94,24.14,24.14,0,0,1,1.31-8.1,19.41,19.41,0,0,1,3.76-6.52,17.26,17.26,0,0,1,6-4.36,19.56,19.56,0,0,1,8-1.58,19.9,19.9,0,0,1,6.09.92,16.62,16.62,0,0,1,5.12,2.7,14.73,14.73,0,0,1,3.74,4.39,15.7,15.7,0,0,1,1.85,6H346A6.91,6.91,0,0,0,345,153.31Z"/><path class="cls-1" d="M360.73,161.66a12.85,12.85,0,0,1,7.53-7.69,16.07,16.07,0,0,1,6-1.06,16.29,16.29,0,0,1,6,1.06,12.87,12.87,0,0,1,7.56,7.69,17.35,17.35,0,0,1,1,6.14,17,17,0,0,1-1,6.1,13.15,13.15,0,0,1-2.95,4.67,12.81,12.81,0,0,1-4.61,3,16.71,16.71,0,0,1-6,1,16.49,16.49,0,0,1-6-1,12.9,12.9,0,0,1-4.59-3,13.27,13.27,0,0,1-2.94-4.67,17,17,0,0,1-1-6.1A17.34,17.34,0,0,1,360.73,161.66Zm7,9.44a8.83,8.83,0,0,0,1.11,2.89,6,6,0,0,0,2.1,2,6.45,6.45,0,0,0,3.28.77,6.55,6.55,0,0,0,3.3-.77,5.85,5.85,0,0,0,2.12-2,8.84,8.84,0,0,0,1.12-2.89,16.49,16.49,0,0,0,.33-3.3,16.79,16.79,0,0,0-.33-3.33,8.5,8.5,0,0,0-1.12-2.89,6.13,6.13,0,0,0-2.12-2.05,6.45,6.45,0,0,0-3.3-.79,5.95,5.95,0,0,0-5.38,2.84,8.49,8.49,0,0,0-1.11,2.89,16.79,16.79,0,0,0-.33,3.33A16.49,16.49,0,0,0,367.77,171.1Z"/><path class="cls-1" d="M402.35,153.67v3.82h.11a10.85,10.85,0,0,1,3.68-3.38,9.94,9.94,0,0,1,4.93-1.2,11.35,11.35,0,0,1,4.88,1,6.86,6.86,0,0,1,3.36,3.66,11.91,11.91,0,0,1,3.41-3.28,9.07,9.07,0,0,1,5.1-1.41,15.13,15.13,0,0,1,4.14.54,8.29,8.29,0,0,1,3.28,1.75,8.07,8.07,0,0,1,2.12,3.13,12.72,12.72,0,0,1,.77,4.67v18.87h-7.75v-16c0-.95,0-1.84-.11-2.68a5.61,5.61,0,0,0-.6-2.18,3.64,3.64,0,0,0-1.44-1.47,5.27,5.27,0,0,0-2.59-.55,4.93,4.93,0,0,0-2.65.63,4.59,4.59,0,0,0-1.58,1.64,6.38,6.38,0,0,0-.76,2.29,17.18,17.18,0,0,0-.2,2.59v15.71h-7.74V166.05c0-.84,0-1.66-.06-2.48a7,7,0,0,0-.46-2.27,3.5,3.5,0,0,0-1.36-1.66A5.15,5.15,0,0,0,408,159a6,6,0,0,0-1.45.25,4.62,4.62,0,0,0-1.74.93,5.34,5.34,0,0,0-1.45,2,7.94,7.94,0,0,0-.6,3.35v16.37H395v-28.2Z"/><path class="cls-1" d="M464.25,181.87v-3.93h-.16a8.73,8.73,0,0,1-3.82,3.55,11.35,11.35,0,0,1-4.8,1.09,13.67,13.67,0,0,1-5.1-.82,7.34,7.34,0,0,1-3.13-2.32,8.89,8.89,0,0,1-1.61-3.65,22.71,22.71,0,0,1-.47-4.78V153.67h7.75V169.6a9.83,9.83,0,0,0,1.09,5.2c.73,1.15,2,1.72,3.87,1.72,2.11,0,3.64-.62,4.58-1.88s1.42-3.32,1.42-6.19V153.67h7.75v28.2Z"/><path class="cls-1" d="M485.8,153.67v3.93H486a8.87,8.87,0,0,1,3.82-3.58,11.08,11.08,0,0,1,4.8-1.11,13.25,13.25,0,0,1,5.1.84,7.57,7.57,0,0,1,3.14,2.35,9.09,9.09,0,0,1,1.6,3.65,22.69,22.69,0,0,1,.47,4.77v17.35h-7.75V165.94a9.87,9.87,0,0,0-1.09-5.21,4.24,4.24,0,0,0-3.87-1.72,5.34,5.34,0,0,0-4.58,1.89q-1.43,1.88-1.42,6.19v14.78h-7.75v-28.2Z"/><path class="cls-1" d="M511.92,149.31v-6.39h7.75v6.39Zm7.75,4.36v28.2h-7.75v-28.2Z"/><path class="cls-1" d="M540.18,158.74a5.37,5.37,0,0,0-3.11.85,6.69,6.69,0,0,0-2.05,2.18,9.64,9.64,0,0,0-1.12,2.94,16.69,16.69,0,0,0-.32,3.2,15.84,15.84,0,0,0,.32,3.1,9.74,9.74,0,0,0,1.07,2.87,6.15,6.15,0,0,0,2,2.1,5.49,5.49,0,0,0,3,.82,5.65,5.65,0,0,0,4.28-1.56,7.38,7.38,0,0,0,1.89-4.17h7.47a12.77,12.77,0,0,1-4.36,8.56,14.07,14.07,0,0,1-9.22,3,15.41,15.41,0,0,1-5.81-1.07,12.81,12.81,0,0,1-4.5-3,13.45,13.45,0,0,1-2.89-4.55,15.84,15.84,0,0,1-1-5.81,18.67,18.67,0,0,1,1-6.08,13.68,13.68,0,0,1,2.8-4.86,12.91,12.91,0,0,1,4.53-3.19,15.45,15.45,0,0,1,6.11-1.14,17.6,17.6,0,0,1,4.83.65,12.92,12.92,0,0,1,4.14,2,10.29,10.29,0,0,1,4.29,8H545.9C545.39,160.36,543.49,158.74,540.18,158.74Z"/><path class="cls-1" d="M558.61,162.34a9,9,0,0,1,1.37-4.53,9.26,9.26,0,0,1,3-2.89,13.58,13.58,0,0,1,4.17-1.55,23.7,23.7,0,0,1,4.67-.46,31.66,31.66,0,0,1,4.31.3,13.26,13.26,0,0,1,4,1.17,7.82,7.82,0,0,1,2.94,2.42,6.75,6.75,0,0,1,1.15,4.12V175.6a28.52,28.52,0,0,0,.22,3.65,6.6,6.6,0,0,0,.76,2.62h-7.85a10.18,10.18,0,0,1-.36-1.34,12.57,12.57,0,0,1-.19-1.39,10.15,10.15,0,0,1-4.36,2.67,17.57,17.57,0,0,1-5.13.77,14.07,14.07,0,0,1-3.76-.49,8.63,8.63,0,0,1-3.06-1.53,7.07,7.07,0,0,1-2-2.62,8.85,8.85,0,0,1-.74-3.76,8.3,8.3,0,0,1,.84-4,7.23,7.23,0,0,1,2.19-2.48,9.78,9.78,0,0,1,3.05-1.39,34.55,34.55,0,0,1,3.47-.74c1.16-.18,2.3-.32,3.43-.43a20.43,20.43,0,0,0,3-.49,5.24,5.24,0,0,0,2.07-1,2.07,2.07,0,0,0,.71-1.82,4.08,4.08,0,0,0-.41-2,2.92,2.92,0,0,0-1.09-1.14,4.29,4.29,0,0,0-1.58-.55,13.16,13.16,0,0,0-1.94-.13,5.87,5.87,0,0,0-3.6,1,4.35,4.35,0,0,0-1.52,3.27Zm17.89,5.73a3.34,3.34,0,0,1-1.22.68,13.64,13.64,0,0,1-1.59.41q-.84.17-1.77.27c-.62.07-1.24.17-1.85.28a12.36,12.36,0,0,0-1.72.43,4.83,4.83,0,0,0-1.47.74,3.46,3.46,0,0,0-1,1.17,3.69,3.69,0,0,0-.39,1.8,3.62,3.62,0,0,0,.39,1.75,2.9,2.9,0,0,0,1,1.11,4.31,4.31,0,0,0,1.53.58,9.64,9.64,0,0,0,1.8.16,6.86,6.86,0,0,0,3.55-.76,5.15,5.15,0,0,0,1.85-1.83,5.87,5.87,0,0,0,.74-2.15,14.81,14.81,0,0,0,.13-1.75Z"/><path class="cls-1" d="M604.65,158.74a5.37,5.37,0,0,0-3.11.85,6.69,6.69,0,0,0-2,2.18,9.37,9.37,0,0,0-1.11,2.94,16,16,0,0,0-.33,3.2,15.14,15.14,0,0,0,.33,3.1,9.46,9.46,0,0,0,1.06,2.87,6.15,6.15,0,0,0,2,2.1,5.51,5.51,0,0,0,3.05.82,5.69,5.69,0,0,0,4.29-1.56,7.44,7.44,0,0,0,1.88-4.17h7.47a12.77,12.77,0,0,1-4.36,8.56,14.07,14.07,0,0,1-9.22,3,15.41,15.41,0,0,1-5.81-1.07,12.81,12.81,0,0,1-4.5-3,13.45,13.45,0,0,1-2.89-4.55,15.84,15.84,0,0,1-1-5.81,18.67,18.67,0,0,1,1-6.08,13.55,13.55,0,0,1,2.81-4.86,12.79,12.79,0,0,1,4.52-3.19,15.45,15.45,0,0,1,6.11-1.14,17.6,17.6,0,0,1,4.83.65,12.92,12.92,0,0,1,4.14,2,10.29,10.29,0,0,1,4.29,8h-7.59Q609.62,158.74,604.65,158.74Z"/><path class="cls-1" d="M623.63,149.31v-6.39h7.74v6.39Zm7.74,4.36v28.2h-7.74v-28.2Z"/><path class="cls-1" d="M638.57,161.66A12.93,12.93,0,0,1,646.1,154a16.07,16.07,0,0,1,6-1.06,16.31,16.31,0,0,1,6,1.06,12.82,12.82,0,0,1,7.55,7.69,17.34,17.34,0,0,1,1,6.14,17,17,0,0,1-1,6.1,13.27,13.27,0,0,1-2.94,4.67,12.9,12.9,0,0,1-4.61,3,16.73,16.73,0,0,1-6,1,16.49,16.49,0,0,1-6-1,12.86,12.86,0,0,1-4.58-3,13.29,13.29,0,0,1-2.95-4.67,17,17,0,0,1-1-6.1A17.35,17.35,0,0,1,638.57,161.66Zm7,9.44a8.84,8.84,0,0,0,1.12,2.89,5.87,5.87,0,0,0,2.1,2,6.38,6.38,0,0,0,3.27.77,6.55,6.55,0,0,0,3.3-.77,6,6,0,0,0,2.13-2,9.07,9.07,0,0,0,1.12-2.89,17.25,17.25,0,0,0,.32-3.3,17.56,17.56,0,0,0-.32-3.33,8.71,8.71,0,0,0-1.12-2.89,6.25,6.25,0,0,0-2.13-2.05,6.45,6.45,0,0,0-3.3-.79,6.28,6.28,0,0,0-3.27.79,6.15,6.15,0,0,0-2.1,2.05,8.5,8.5,0,0,0-1.12,2.89,16.79,16.79,0,0,0-.33,3.33A16.49,16.49,0,0,0,645.61,171.1Zm8.18-32L648,148.71h5.4l8.89-9.66Z"/><path class="cls-1" d="M680,153.67v3.93h.16A8.87,8.87,0,0,1,684,154a11.08,11.08,0,0,1,4.8-1.11,13.25,13.25,0,0,1,5.1.84A7.54,7.54,0,0,1,697,156.1a9,9,0,0,1,1.61,3.65,22.69,22.69,0,0,1,.47,4.77v17.35h-7.75V165.94a9.87,9.87,0,0,0-1.09-5.21,4.24,4.24,0,0,0-3.87-1.72,5.34,5.34,0,0,0-4.58,1.89q-1.43,1.88-1.42,6.19v14.78h-7.75v-28.2Z"/><path class="cls-1" d="M327.51,222.39a8,8,0,0,0,9.06.52,4.94,4.94,0,0,0,2.07-2.49h6.82q-1.63,5.07-5,7.26a14.81,14.81,0,0,1-8.18,2.18,16.28,16.28,0,0,1-6-1.06,12.45,12.45,0,0,1-4.53-3,13.51,13.51,0,0,1-2.86-4.69,17,17,0,0,1-1-6,16.46,16.46,0,0,1,1-5.89,13.69,13.69,0,0,1,7.5-7.86,14.7,14.7,0,0,1,5.87-1.14,13.36,13.36,0,0,1,6.27,1.39,12.62,12.62,0,0,1,4.39,3.73,15.36,15.36,0,0,1,2.48,5.35,20,20,0,0,1,.55,6.27H325.6Q325.77,220.7,327.51,222.39Zm8.76-14.84A5.45,5.45,0,0,0,332,206a6.7,6.7,0,0,0-3.08.63,5.88,5.88,0,0,0-2,1.56,5.61,5.61,0,0,0-1,2,9.2,9.2,0,0,0-.36,1.85h12.6A9,9,0,0,0,336.27,207.55Z"/><path class="cls-1" d="M358.82,201v3.93H359a8.84,8.84,0,0,1,3.82-3.57,11,11,0,0,1,4.8-1.12,13.25,13.25,0,0,1,5.1.84,7.66,7.66,0,0,1,3.14,2.35,9.16,9.16,0,0,1,1.61,3.65,23.43,23.43,0,0,1,.46,4.78v17.34h-7.74V213.22a9.88,9.88,0,0,0-1.1-5.21q-1.08-1.71-3.87-1.71c-2.11,0-3.64.62-4.58,1.88s-1.42,3.32-1.42,6.19v14.78h-7.74V201Z"/><path class="cls-1" d="M408.18,219.55a6.15,6.15,0,0,0,1.88,2.21,8.12,8.12,0,0,0,2.76,1.25,12.63,12.63,0,0,0,3.27.41,16.62,16.62,0,0,0,2.45-.19,8.35,8.35,0,0,0,2.46-.73,5.54,5.54,0,0,0,1.91-1.5,3.77,3.77,0,0,0,.76-2.43,3.44,3.44,0,0,0-1-2.57,8.08,8.08,0,0,0-2.64-1.63,26.32,26.32,0,0,0-3.71-1.15c-1.38-.32-2.78-.69-4.2-1.09a38.28,38.28,0,0,1-4.26-1.33,14.8,14.8,0,0,1-3.71-2.05,9.2,9.2,0,0,1-3.65-7.69,10.24,10.24,0,0,1,1.28-5.21,11.6,11.6,0,0,1,3.36-3.68,14.53,14.53,0,0,1,4.69-2.18,20,20,0,0,1,5.23-.71,25.09,25.09,0,0,1,5.87.68,14.76,14.76,0,0,1,5,2.21,11.2,11.2,0,0,1,3.46,3.9,11.89,11.89,0,0,1,1.28,5.75h-8.29a7,7,0,0,0-.73-2.89,4.91,4.91,0,0,0-1.67-1.8,7.11,7.11,0,0,0-2.37-.92,14,14,0,0,0-2.92-.28,10.4,10.4,0,0,0-2.07.22,5.49,5.49,0,0,0-1.88.77,4.51,4.51,0,0,0-1.39,1.36,4.16,4.16,0,0,0-.11,3.93,3.81,3.81,0,0,0,1.72,1.3,20.75,20.75,0,0,0,3.54,1.2c1.51.41,3.48.91,5.92,1.53.73.15,1.73.41,3,.79a14.3,14.3,0,0,1,3.84,1.83,11.84,11.84,0,0,1,3.3,3.35,9.56,9.56,0,0,1,1.39,5.38,11.91,11.91,0,0,1-1,5,10.72,10.72,0,0,1-3.09,3.95,14.78,14.78,0,0,1-5.07,2.6,26.12,26.12,0,0,1-13.25.13,15.57,15.57,0,0,1-5.35-2.48,12.31,12.31,0,0,1-3.68-4.31,12.8,12.8,0,0,1-1.31-6.22h8.29A7.19,7.19,0,0,0,408.18,219.55Z"/><path class="cls-1" d="M437.36,196.59v-6.38h7.75v6.38Zm7.75,4.36v28.2h-7.75V201Z"/><path class="cls-1" d="M467.63,201v5.18H462v14a2.63,2.63,0,0,0,3.27,3.27q.66,0,1.26-.06a9.78,9.78,0,0,0,1.14-.16v6a18.86,18.86,0,0,1-2.18.22c-.8,0-1.58,0-2.34,0a23.1,23.1,0,0,1-3.41-.24,8,8,0,0,1-2.84-1,5.08,5.08,0,0,1-1.94-2,7.27,7.27,0,0,1-.7-3.44V206.13h-4.7V201h4.7V192.5H462V201Z"/><path class="cls-1" d="M491.36,229.15v-3.93h-.16a8.79,8.79,0,0,1-3.82,3.55,11.27,11.27,0,0,1-4.8,1.09,13.47,13.47,0,0,1-5.1-.82,7.35,7.35,0,0,1-3.14-2.32,9.1,9.1,0,0,1-1.61-3.65,22.71,22.71,0,0,1-.46-4.77V201H480v15.93a9.86,9.86,0,0,0,1.1,5.21q1.08,1.71,3.87,1.71a5.35,5.35,0,0,0,4.58-1.88c.94-1.25,1.42-3.31,1.42-6.19V201h7.74v28.2Z"/><path class="cls-1" d="M505.21,209.62a9,9,0,0,1,1.37-4.52,9.16,9.16,0,0,1,3.05-2.89,13.34,13.34,0,0,1,4.17-1.56,23.7,23.7,0,0,1,4.67-.46,31.66,31.66,0,0,1,4.31.3,13.26,13.26,0,0,1,4,1.17,7.76,7.76,0,0,1,2.94,2.43,6.73,6.73,0,0,1,1.15,4.12v14.67a28.52,28.52,0,0,0,.22,3.65,6.55,6.55,0,0,0,.76,2.62H524a10.18,10.18,0,0,1-.36-1.34,12.25,12.25,0,0,1-.19-1.39,10.07,10.07,0,0,1-4.36,2.68,17.85,17.85,0,0,1-5.13.76,13.68,13.68,0,0,1-3.76-.49,8.63,8.63,0,0,1-3.06-1.53,7.07,7.07,0,0,1-2-2.62,8.85,8.85,0,0,1-.74-3.76,8.18,8.18,0,0,1,.85-4,7.1,7.1,0,0,1,2.18-2.48,10,10,0,0,1,3.05-1.39,31.94,31.94,0,0,1,3.47-.73c1.16-.19,2.3-.33,3.43-.44a20.43,20.43,0,0,0,3-.49,5.24,5.24,0,0,0,2.07-1,2.06,2.06,0,0,0,.71-1.82,4,4,0,0,0-.41-2,3,3,0,0,0-1.09-1.15,4.28,4.28,0,0,0-1.58-.54,13,13,0,0,0-1.94-.14,5.89,5.89,0,0,0-3.59,1,4.36,4.36,0,0,0-1.53,3.27Zm17.89,5.73a3.34,3.34,0,0,1-1.22.68,11.9,11.9,0,0,1-1.59.41q-.84.17-1.77.27c-.62.08-1.23.17-1.85.28a14,14,0,0,0-1.72.43,5.07,5.07,0,0,0-1.47.74,3.46,3.46,0,0,0-1,1.17,3.75,3.75,0,0,0-.39,1.8,3.59,3.59,0,0,0,.39,1.75,3,3,0,0,0,1,1.12,4.5,4.5,0,0,0,1.53.57,9.64,9.64,0,0,0,1.8.16,6.86,6.86,0,0,0,3.55-.76,5.15,5.15,0,0,0,1.85-1.83A5.87,5.87,0,0,0,523,220a14.81,14.81,0,0,0,.13-1.75Z"/><path class="cls-1" d="M551.25,206a5.45,5.45,0,0,0-3.11.85,6.69,6.69,0,0,0-2,2.18A9.34,9.34,0,0,0,545,212a15.78,15.78,0,0,0-.33,3.19,15.23,15.23,0,0,0,.33,3.11,9.4,9.4,0,0,0,1.06,2.86,6.15,6.15,0,0,0,2,2.1,5.51,5.51,0,0,0,3.05.82,5.67,5.67,0,0,0,4.29-1.56,7.35,7.35,0,0,0,1.88-4.17h7.47a12.75,12.75,0,0,1-4.36,8.56,14.07,14.07,0,0,1-9.22,3,15.6,15.6,0,0,1-5.81-1.06,12.88,12.88,0,0,1-4.5-3,13.45,13.45,0,0,1-2.89-4.55,15.8,15.8,0,0,1-1-5.81,18.67,18.67,0,0,1,1-6.08,13.64,13.64,0,0,1,2.81-4.86,12.91,12.91,0,0,1,4.52-3.19,15.45,15.45,0,0,1,6.11-1.14,18,18,0,0,1,4.83.65,13.08,13.08,0,0,1,4.15,2,10.8,10.8,0,0,1,3,3.33,10.68,10.68,0,0,1,1.31,4.72H557Q556.22,206,551.25,206Z"/><path class="cls-1" d="M570.23,196.59v-6.38H578v6.38ZM578,201v28.2h-7.74V201Z"/><path class="cls-1" d="M585.17,208.94a12.93,12.93,0,0,1,7.53-7.69,16.07,16.07,0,0,1,6-1.06,16.31,16.31,0,0,1,6,1.06,12.82,12.82,0,0,1,7.55,7.69,17.34,17.34,0,0,1,1,6.14,17.14,17.14,0,0,1-1,6.11,13.23,13.23,0,0,1-2.94,4.66,12.9,12.9,0,0,1-4.61,3,16.73,16.73,0,0,1-6,1,16.49,16.49,0,0,1-6-1,12.86,12.86,0,0,1-4.58-3,13.25,13.25,0,0,1-3-4.66,17.14,17.14,0,0,1-1-6.11A17.35,17.35,0,0,1,585.17,208.94Zm7,9.44a8.75,8.75,0,0,0,1.12,2.89,5.79,5.79,0,0,0,2.1,2,6.38,6.38,0,0,0,3.27.77,6.55,6.55,0,0,0,3.3-.77,5.87,5.87,0,0,0,2.13-2,9,9,0,0,0,1.12-2.89,17.1,17.1,0,0,0,.32-3.3,17.56,17.56,0,0,0-.32-3.33,8.71,8.71,0,0,0-1.12-2.89,6.25,6.25,0,0,0-2.13-2.05,6.45,6.45,0,0,0-3.3-.79,6.28,6.28,0,0,0-3.27.79,6.15,6.15,0,0,0-2.1,2.05,8.5,8.5,0,0,0-1.12,2.89,16.79,16.79,0,0,0-.33,3.33A16.34,16.34,0,0,0,592.21,218.38Z"/><path class="cls-1" d="M626.63,201v3.93h.16a8.79,8.79,0,0,1,3.82-3.57,11,11,0,0,1,4.8-1.12,13.25,13.25,0,0,1,5.1.84,7.66,7.66,0,0,1,3.14,2.35,9.15,9.15,0,0,1,1.6,3.65,22.71,22.71,0,0,1,.47,4.78v17.34H638V213.22a9.89,9.89,0,0,0-1.09-5.21q-1.1-1.71-3.87-1.71c-2.11,0-3.64.62-4.58,1.88S627,211.5,627,214.37v14.78h-7.75V201Z"/><path class="cls-1" d="M660.83,222.39a7.94,7.94,0,0,0,9,.52,4.84,4.84,0,0,0,2.07-2.49h6.82q-1.63,5.07-5,7.26a14.79,14.79,0,0,1-8.18,2.18,16.28,16.28,0,0,1-6-1.06,12.54,12.54,0,0,1-4.53-3,13.66,13.66,0,0,1-2.86-4.69,17.25,17.25,0,0,1-1-6,16.47,16.47,0,0,1,1-5.89,13.61,13.61,0,0,1,7.5-7.86,14.65,14.65,0,0,1,5.86-1.14,13.36,13.36,0,0,1,6.27,1.39,12.53,12.53,0,0,1,4.39,3.73,15.38,15.38,0,0,1,2.49,5.35,19.74,19.74,0,0,1,.54,6.27H658.92C659,219.44,659.66,221.26,660.83,222.39Zm8.75-14.84a5.45,5.45,0,0,0-4.23-1.53,6.73,6.73,0,0,0-3.08.63,5.84,5.84,0,0,0-2,1.56,5.64,5.64,0,0,0-1,2,8.48,8.48,0,0,0-.35,1.85h12.6A9,9,0,0,0,669.58,207.55Z"/><path class="cls-1" d="M691.29,222.14a4.48,4.48,0,0,0,1.33,1.47,5.61,5.61,0,0,0,1.89.85,8.84,8.84,0,0,0,2.2.27,8.08,8.08,0,0,0,1.72-.19,6,6,0,0,0,1.64-.6,3.67,3.67,0,0,0,1.23-1.09,2.91,2.91,0,0,0,.49-1.72c0-1.16-.78-2-2.32-2.62a46.66,46.66,0,0,0-6.46-1.74q-1.69-.39-3.3-.9a11.21,11.21,0,0,1-2.87-1.37,6.7,6.7,0,0,1-2-2.12,6,6,0,0,1-.76-3.14,8.55,8.55,0,0,1,1.06-4.47,8,8,0,0,1,2.81-2.76,12.42,12.42,0,0,1,3.93-1.41,23.6,23.6,0,0,1,4.47-.41,22.46,22.46,0,0,1,4.45.43,12,12,0,0,1,3.84,1.48,8.78,8.78,0,0,1,2.81,2.75,9.27,9.27,0,0,1,1.34,4.34h-7.36a3.4,3.4,0,0,0-1.7-3,7.64,7.64,0,0,0-3.59-.79c-.44,0-.91,0-1.42.08a4.58,4.58,0,0,0-1.39.36,2.8,2.8,0,0,0-1.07.79,2.08,2.08,0,0,0-.43,1.39,2.12,2.12,0,0,0,.76,1.69,5.93,5.93,0,0,0,2,1.06,25.65,25.65,0,0,0,2.81.74c1,.22,2.13.45,3.22.71a33.54,33.54,0,0,1,3.3.92,11.14,11.14,0,0,1,2.86,1.45,7,7,0,0,1,2,2.24,6.55,6.55,0,0,1,.76,3.3,8.6,8.6,0,0,1-4,7.69,12.11,12.11,0,0,1-4.12,1.61,24.76,24.76,0,0,1-4.72.46,23.13,23.13,0,0,1-4.8-.49,12.63,12.63,0,0,1-4.17-1.64,9.31,9.31,0,0,1-3-3,9.5,9.5,0,0,1-1.28-4.72h7.36A4.2,4.2,0,0,0,691.29,222.14Z"/><path class="cls-1" d="M339.24,272.83a8,8,0,0,1-3.57,3.3,13,13,0,0,1-10.56-.22,11.12,11.12,0,0,1-3.95-3.33,15,15,0,0,1-2.35-4.82,20.19,20.19,0,0,1-.79-5.68,19,19,0,0,1,.79-5.48,14.3,14.3,0,0,1,2.35-4.66,11.55,11.55,0,0,1,3.9-3.25,11.68,11.68,0,0,1,5.45-1.22,11.07,11.07,0,0,1,4.77,1.06,8.4,8.4,0,0,1,3.58,3.14H339V237.49h7.74v38.94h-7.36v-3.6Zm-.33-13.94a8.18,8.18,0,0,0-1.12-2.83,6.26,6.26,0,0,0-2-2,6,6,0,0,0-3.17-.77,6.25,6.25,0,0,0-3.21.77,6,6,0,0,0-2.1,2,9,9,0,0,0-1.15,2.87,15.29,15.29,0,0,0-.35,3.35,14.18,14.18,0,0,0,.38,3.28,8.64,8.64,0,0,0,1.23,2.91,6.78,6.78,0,0,0,2.12,2.08,5.83,5.83,0,0,0,3.08.79,6.16,6.16,0,0,0,3.2-.77,5.86,5.86,0,0,0,2-2,9.26,9.26,0,0,0,1.09-2.92,17.07,17.07,0,0,0,.33-3.38A16.72,16.72,0,0,0,338.91,258.89Z"/><path class="cls-1" d="M361.76,269.67a7,7,0,0,0,5,1.69,6.85,6.85,0,0,0,4-1.18,4.78,4.78,0,0,0,2.07-2.48h6.82q-1.63,5.07-5,7.26a14.79,14.79,0,0,1-8.18,2.18,16.28,16.28,0,0,1-6-1.06,12.54,12.54,0,0,1-4.53-3,13.66,13.66,0,0,1-2.86-4.69,17.25,17.25,0,0,1-1-6,16.47,16.47,0,0,1,1-5.89,13.61,13.61,0,0,1,7.5-7.86,14.62,14.62,0,0,1,5.86-1.14,13.36,13.36,0,0,1,6.27,1.39,12.53,12.53,0,0,1,4.39,3.73,15.38,15.38,0,0,1,2.49,5.35,20,20,0,0,1,.54,6.27H359.86C360,266.72,360.6,268.54,361.76,269.67Zm8.76-14.84a5.45,5.45,0,0,0-4.23-1.53,6.7,6.7,0,0,0-3.08.63,5.94,5.94,0,0,0-2,1.55,5.6,5.6,0,0,0-1,2,8.48,8.48,0,0,0-.35,1.85h12.6A9,9,0,0,0,370.52,254.83Z"/><path class="cls-1" d="M419.42,237.49a20.31,20.31,0,0,1,7,1.19,15.35,15.35,0,0,1,5.61,3.61,16.41,16.41,0,0,1,3.71,6,24.21,24.21,0,0,1,1.34,8.45,26.84,26.84,0,0,1-1.09,7.85,17.33,17.33,0,0,1-3.3,6.22,15.39,15.39,0,0,1-5.51,4.12,18.64,18.64,0,0,1-7.77,1.5h-16.8V237.49Zm-.6,31.74a11.05,11.05,0,0,0,3.6-.6,7.93,7.93,0,0,0,3.11-2,10.1,10.1,0,0,0,2.18-3.63,16.08,16.08,0,0,0,.82-5.45,22.23,22.23,0,0,0-.58-5.32,10.57,10.57,0,0,0-1.88-4.06,8.35,8.35,0,0,0-3.46-2.6,14,14,0,0,0-5.32-.9h-6.11v24.55Z"/><path class="cls-1" d="M451.44,269.67a6.93,6.93,0,0,0,5,1.69,6.85,6.85,0,0,0,4-1.18,4.78,4.78,0,0,0,2.07-2.48h6.82q-1.63,5.07-5,7.26a14.79,14.79,0,0,1-8.18,2.18,16.28,16.28,0,0,1-6-1.06,12.54,12.54,0,0,1-4.53-3,13.66,13.66,0,0,1-2.86-4.69,17.25,17.25,0,0,1-1-6,16.47,16.47,0,0,1,1-5.89,13.61,13.61,0,0,1,7.5-7.86,14.65,14.65,0,0,1,5.86-1.14,13.36,13.36,0,0,1,6.27,1.39,12.53,12.53,0,0,1,4.39,3.73,15.38,15.38,0,0,1,2.49,5.35,20,20,0,0,1,.54,6.27H449.53C449.64,266.72,450.27,268.54,451.44,269.67Zm8.75-14.84A5.45,5.45,0,0,0,456,253.3a6.73,6.73,0,0,0-3.08.63,5.94,5.94,0,0,0-2,1.55,5.77,5.77,0,0,0-1,2,8.48,8.48,0,0,0-.35,1.85h12.6A9,9,0,0,0,460.19,254.83Z"/><path class="cls-1" d="M481.9,269.42a4.48,4.48,0,0,0,1.33,1.47,5.61,5.61,0,0,0,1.89.85,8.84,8.84,0,0,0,2.2.27,8.08,8.08,0,0,0,1.72-.19,6,6,0,0,0,1.64-.6,3.78,3.78,0,0,0,1.23-1.09,2.91,2.91,0,0,0,.49-1.72c0-1.16-.78-2-2.32-2.62a46.66,46.66,0,0,0-6.46-1.74q-1.69-.39-3.3-.9a11.21,11.21,0,0,1-2.87-1.37,6.7,6.7,0,0,1-2-2.12,6,6,0,0,1-.76-3.14,8.45,8.45,0,0,1,1.06-4.47,7.9,7.9,0,0,1,2.81-2.76,12.33,12.33,0,0,1,3.93-1.41,23.6,23.6,0,0,1,4.47-.41,22.46,22.46,0,0,1,4.45.43,11.73,11.73,0,0,1,3.84,1.48,8.68,8.68,0,0,1,2.81,2.75,9.27,9.27,0,0,1,1.34,4.34H492a3.38,3.38,0,0,0-1.69-3,7.65,7.65,0,0,0-3.6-.79c-.43,0-.91,0-1.41.08a4.88,4.88,0,0,0-1.39.35,2.93,2.93,0,0,0-1.07.8,2.08,2.08,0,0,0-.43,1.39,2.12,2.12,0,0,0,.76,1.69,5.93,5.93,0,0,0,2,1.06,25.65,25.65,0,0,0,2.81.74c1,.22,2.13.45,3.22.71a33.54,33.54,0,0,1,3.3.92,11.14,11.14,0,0,1,2.86,1.45,6.88,6.88,0,0,1,2,2.24,6.55,6.55,0,0,1,.76,3.3,8.6,8.6,0,0,1-4,7.69,11.89,11.89,0,0,1-4.12,1.6,24,24,0,0,1-4.72.47,23.13,23.13,0,0,1-4.8-.49A12.54,12.54,0,0,1,478.3,275a9,9,0,0,1-4.28-7.74h7.36A4.2,4.2,0,0,0,481.9,269.42Z"/><path class="cls-1" d="M505.27,256.9a9,9,0,0,1,1.36-4.52,9.32,9.32,0,0,1,3.06-2.9,13.39,13.39,0,0,1,4.17-1.55,23.6,23.6,0,0,1,4.66-.46,31.55,31.55,0,0,1,4.31.3,13.17,13.17,0,0,1,4,1.17,7.79,7.79,0,0,1,3,2.43,6.79,6.79,0,0,1,1.14,4.11v14.68a30.47,30.47,0,0,0,.22,3.65,6.53,6.53,0,0,0,.77,2.62H524a12,12,0,0,1-.35-1.34,10.34,10.34,0,0,1-.19-1.39,10.11,10.11,0,0,1-4.37,2.68,17.78,17.78,0,0,1-5.12.76,13.8,13.8,0,0,1-3.77-.49,8.67,8.67,0,0,1-3.05-1.53,7,7,0,0,1-2.05-2.62,8.85,8.85,0,0,1-.73-3.76,8.3,8.3,0,0,1,.84-4,7.1,7.1,0,0,1,2.18-2.48,9.73,9.73,0,0,1,3.06-1.39,31.76,31.76,0,0,1,3.46-.73c1.16-.19,2.31-.33,3.44-.44a20.88,20.88,0,0,0,3-.49,5.24,5.24,0,0,0,2.07-1,2.06,2.06,0,0,0,.71-1.82,4.12,4.12,0,0,0-.41-2,3,3,0,0,0-1.09-1.15,4.35,4.35,0,0,0-1.58-.54,11.88,11.88,0,0,0-1.94-.14,5.9,5.9,0,0,0-3.6,1A4.43,4.43,0,0,0,513,256.9Zm17.89,5.73a3.47,3.47,0,0,1-1.23.68,11.75,11.75,0,0,1-1.58.41q-.84.16-1.77.27c-.62.08-1.24.17-1.86.28a14.91,14.91,0,0,0-1.72.43,5.07,5.07,0,0,0-1.47.74,3.57,3.57,0,0,0-1,1.17,3.81,3.81,0,0,0-.38,1.8,3.74,3.74,0,0,0,.38,1.75,3,3,0,0,0,1,1.12,4.42,4.42,0,0,0,1.53.57,9.64,9.64,0,0,0,1.8.16,6.85,6.85,0,0,0,3.54-.76,5.1,5.1,0,0,0,1.86-1.83,5.84,5.84,0,0,0,.73-2.15,15.19,15.19,0,0,0,.14-1.75Z"/><path class="cls-1" d="M544.35,269.42a4.4,4.4,0,0,0,1.34,1.47,5.47,5.47,0,0,0,1.88.85,8.92,8.92,0,0,0,2.21.27,8.06,8.06,0,0,0,1.71-.19,6,6,0,0,0,1.64-.6,3.78,3.78,0,0,0,1.23-1.09,2.85,2.85,0,0,0,.49-1.72c0-1.16-.77-2-2.32-2.62a46.66,46.66,0,0,0-6.46-1.74q-1.7-.39-3.3-.9a11.21,11.21,0,0,1-2.87-1.37,6.56,6.56,0,0,1-2-2.12,6,6,0,0,1-.77-3.14,8.45,8.45,0,0,1,1.07-4.47,7.74,7.74,0,0,1,2.81-2.76,12.27,12.27,0,0,1,3.92-1.41,23.68,23.68,0,0,1,4.47-.41,22.46,22.46,0,0,1,4.45.43,11.79,11.79,0,0,1,3.85,1.48,8.75,8.75,0,0,1,2.8,2.75,9.27,9.27,0,0,1,1.34,4.34h-7.36a3.41,3.41,0,0,0-1.69-3,7.71,7.71,0,0,0-3.6-.79c-.44,0-.91,0-1.42.08a5,5,0,0,0-1.39.35,2.93,2.93,0,0,0-1.07.8,2.08,2.08,0,0,0-.43,1.39,2.12,2.12,0,0,0,.76,1.69,5.93,5.93,0,0,0,2,1.06,26.27,26.27,0,0,0,2.81.74c1.06.22,2.13.45,3.22.71a32.07,32.07,0,0,1,3.3.92,11,11,0,0,1,2.86,1.45,6.88,6.88,0,0,1,2,2.24,6.55,6.55,0,0,1,.76,3.3,8.54,8.54,0,0,1-4,7.69,11.82,11.82,0,0,1-4.12,1.6,24,24,0,0,1-4.72.47,23.27,23.27,0,0,1-4.8-.49,12.63,12.63,0,0,1-4.17-1.64,9.24,9.24,0,0,1-3-3,9.43,9.43,0,0,1-1.28-4.71h7.36A4.2,4.2,0,0,0,544.35,269.42Z"/><path class="cls-1" d="M583.54,248.23v5.18h-5.67v14a2.62,2.62,0,0,0,3.27,3.27,12.47,12.47,0,0,0,1.25-.06,10.28,10.28,0,0,0,1.15-.16v6a19.09,19.09,0,0,1-2.18.22c-.8,0-1.58.05-2.35.05a23.1,23.1,0,0,1-3.41-.24,8,8,0,0,1-2.83-1,5,5,0,0,1-1.94-2,7.2,7.2,0,0,1-.71-3.43V253.41h-4.69v-5.18h4.69v-8.45h7.75v8.45Z"/><path class="cls-1" d="M595.54,248.23v5.24h.11a9.33,9.33,0,0,1,1.47-2.43,9.66,9.66,0,0,1,2.13-1.91,10.24,10.24,0,0,1,2.56-1.23,9.26,9.26,0,0,1,2.84-.43,6.1,6.1,0,0,1,1.69.27v7.2c-.37-.07-.8-.14-1.31-.19a12.52,12.52,0,0,0-1.47-.08,8.14,8.14,0,0,0-3.6.71,6.14,6.14,0,0,0-2.38,1.93,7.67,7.67,0,0,0-1.28,2.87,15.81,15.81,0,0,0-.38,3.54v12.71h-7.75v-28.2Z"/><path class="cls-1" d="M618.61,269.67a7,7,0,0,0,5,1.69,6.82,6.82,0,0,0,4-1.18,4.86,4.86,0,0,0,2.08-2.48h6.81q-1.63,5.07-5,7.26a14.85,14.85,0,0,1-8.19,2.18,16.35,16.35,0,0,1-6-1.06,12.41,12.41,0,0,1-4.52-3,13.68,13.68,0,0,1-2.87-4.69,17.25,17.25,0,0,1-1-6,16.46,16.46,0,0,1,1-5.89,13.73,13.73,0,0,1,3-4.72,13.92,13.92,0,0,1,4.55-3.14,14.65,14.65,0,0,1,5.86-1.14,13.43,13.43,0,0,1,6.28,1.39,12.62,12.62,0,0,1,4.39,3.73,15.54,15.54,0,0,1,2.48,5.35,19.74,19.74,0,0,1,.54,6.27H616.7Q616.86,268,618.61,269.67Zm8.75-14.84a5.41,5.41,0,0,0-4.22-1.53,6.74,6.74,0,0,0-3.09.63,6,6,0,0,0-2,1.55,5.77,5.77,0,0,0-1,2,9.12,9.12,0,0,0-.35,1.85h12.6A8.91,8.91,0,0,0,627.36,254.83Z"/><path class="cls-1" d="M205.39,30.33H117c-40,0-73.88,21.84-85.28,51.94H51.61q12,0,17.08,3.58T73.81,97.6a14.56,14.56,0,0,1-2.1,8.1,14,14,0,0,1-6.47,5.09,10.26,10.26,0,0,1,6.47,3.71q2,2.76,2.17,8.11l.29,7.41a.67.67,0,0,0,0,.18c.08,2.12.58,3.23,1.52,3.33v2H58.48c-.31-1.27-.55-2.39-.7-3.34a14.3,14.3,0,0,1-.24-2.22v-5.31c0-2.75-.54-4.69-1.62-5.8s-3-1.69-5.64-1.69H43v18.36h-9.1c13.14,27.43,45.37,46.83,83.09,46.83h48.19l-4.49,30.93c20.63,0,84.3-36.73,99.42-46.48,21.08-13.58,34.65-34.83,34.65-58.72V104.6C294.77,63.58,254.75,30.33,205.39,30.33ZM96.1,135.51H80.34V96.23H96.1Zm0-43.3H80.34V81H96.1ZM171,135.51h-15.4v-21q0-3.69-1.25-5.35a4.7,4.7,0,0,0-4-1.66,4.94,4.94,0,0,0-4.19,1.73q-1.34,1.74-1.34,5.42v20.89H129.42V115q0-4-1.28-5.8a4.88,4.88,0,0,0-4.22-1.75,4.67,4.67,0,0,0-4,1.77,8.34,8.34,0,0,0-1.36,5.17v21.1h-15.4V96.23h14.21V102a17.12,17.12,0,0,1,5.85-5.13,16.23,16.23,0,0,1,7.49-1.66,13,13,0,0,1,6.66,1.63,14.79,14.79,0,0,1,5,5.16,18.68,18.68,0,0,1,6.25-5.2,17.21,17.21,0,0,1,7.67-1.66q6.93,0,10.76,3.57t3.84,10Zm49.94,0H205.21l-1-3.75a20.24,20.24,0,0,1-6.47,3.9,22.76,22.76,0,0,1-7.81,1.27q-6.64,0-10.28-3.27c-2.42-2.19-3.63-5.26-3.63-9.24s1.19-6.75,3.58-8.6,6.89-3.21,13.51-4c.85-.12,2-.25,3.4-.4q7.41-.8,7.41-3.83a2.65,2.65,0,0,0-1.36-2.48,9.06,9.06,0,0,0-4.28-.77,6.2,6.2,0,0,0-3.72,1,4,4,0,0,0-1.52,2.94H177.81a11.32,11.32,0,0,1,5.42-10q5.31-3.39,15.61-3.38a41.75,41.75,0,0,1,8.95.9,19,19,0,0,1,6.38,2.42,10.88,10.88,0,0,1,3.9,4.25,16.27,16.27,0,0,1,1.12,6.78v21.9a4.16,4.16,0,0,0,.44,1.93,3.61,3.61,0,0,0,1.26,1.4Zm32.27-.21a86.09,86.09,0,0,1-3.34,9,12.51,12.51,0,0,1-2.51,3.71,9.91,9.91,0,0,1-4.27,2.51,31.11,31.11,0,0,1-8.1.74c-1.08,0-2.3,0-3.64-.07s-2.78-.12-4.27-.22V139.35h4.45a5.45,5.45,0,0,0,3.29-.78,3,3,0,0,0,1-2.55,8.48,8.48,0,0,0-.2-1.7,14.08,14.08,0,0,0-.64-2.13l-13.15-36h15.83l6.87,23.82,6.68-23.82h14.71Z"/><path class="cls-1" d="M203.76,118a60.22,60.22,0,0,1-6,1.84q-5.87,1.55-5.86,4.16a3.19,3.19,0,0,0,1.16,2.6,5.06,5.06,0,0,0,3.29.94q3.9,0,5.69-1.81c1.19-1.21,1.79-3.12,1.79-5.75,0-.55,0-1,0-1.24A3.84,3.84,0,0,0,203.76,118Z"/><path class="cls-1" d="M56.42,104.05c1-.73,1.56-2,1.56-3.85s-.52-3.18-1.56-3.92-3.06-1.1-6.07-1.1H43v10h7.77C53.51,105.15,55.38,104.79,56.42,104.05Z"/></svg>