<svg id="Layer_1" data-name="Layer 1" xmlns="http://www.w3.org/2000/svg" viewBox="0 0 756 333"><defs><style>.cls-1{fill:#6a6c6b;}.cls-2{fill:#007649;}.cls-3{fill:#e28f2d;}.cls-4{fill:#f3ac59;}.cls-5{fill:#28ab8f;}</style></defs><title>imago-jayma-color</title><path class="cls-1" d="M364.15,166.55,371,200.21h.14L378,166.55H392.2v47.69h-8.82V176.17h-.13l-8.48,38.07h-7.48l-8.48-38.07h-.14v38.07h-8.81V166.55Z"/><path class="cls-1" d="M407,200.54a19.69,19.69,0,0,0,.24,3.11,10.2,10.2,0,0,0,.76,2.67,5.11,5.11,0,0,0,1.41,1.87,3.27,3.27,0,0,0,2.13.7,3.73,3.73,0,0,0,3.41-1.67,12.36,12.36,0,0,0,1.47-5.07h8.28q-.27,6.27-3.34,9.55T411.64,215c-3.34,0-5.95-.55-7.82-1.67a10.33,10.33,0,0,1-4.14-4.41,17.33,17.33,0,0,1-1.63-6.14q-.3-3.41-.3-6.81a46,46,0,0,1,.5-6.95,16.61,16.61,0,0,1,2-5.94,10.91,10.91,0,0,1,4.31-4.15,15.63,15.63,0,0,1,7.48-1.53,14.54,14.54,0,0,1,6.58,1.3,10,10,0,0,1,4,3.67,15.27,15.27,0,0,1,2,5.75,47.73,47.73,0,0,1,.54,7.51v2.07H407Zm9.15-12a9.1,9.1,0,0,0-.7-2.68,3.74,3.74,0,0,0-1.4-1.67,4.33,4.33,0,0,0-2.3-.56,3.94,3.94,0,0,0-2.31.63A4.68,4.68,0,0,0,408,186a8.29,8.29,0,0,0-.76,2.3,13.73,13.73,0,0,0-.24,2.54v1.41h9.42C416.33,190.82,416.25,189.6,416.11,188.56Z"/><path class="cls-1" d="M439.09,178.3v4.21h.13A9.4,9.4,0,0,1,443,178.6a11.3,11.3,0,0,1,5.34-1.23q4.41,0,6.78,2.4c1.58,1.61,2.37,4.21,2.37,7.82v26.65h-9.21V189.46a6.19,6.19,0,0,0-.94-3.91,3.73,3.73,0,0,0-3-1.1q-4.87,0-4.88,5.94v23.85h-9.22V178.3Z"/><path class="cls-1" d="M470.68,203.68a5.57,5.57,0,0,0,1.24,3.78,4.43,4.43,0,0,0,3.57,1.43,5.13,5.13,0,0,0,3.41-1.06,4,4,0,0,0,1.27-3.21,3.36,3.36,0,0,0-1-2.64,7.75,7.75,0,0,0-2.33-1.44l-6.48-2.33a12.28,12.28,0,0,1-5.75-3.78,9.71,9.71,0,0,1-1.93-6.24,11.9,11.9,0,0,1,.73-4.18,8.8,8.8,0,0,1,2.34-3.44,11.8,11.8,0,0,1,4.11-2.33,18.49,18.49,0,0,1,6-.87c4.19,0,7.28.89,9.29,2.67a9.58,9.58,0,0,1,3,7.55v1.47H479.9A7.36,7.36,0,0,0,479,185a3.59,3.59,0,0,0-3.18-1.3,4.9,4.9,0,0,0-3,1,3.37,3.37,0,0,0-1.31,2.9,3.78,3.78,0,0,0,.84,2.4,6.32,6.32,0,0,0,3.17,1.81L481,193.6q4.35,1.47,6.15,3.84a10.41,10.41,0,0,1,1.8,6.44,11.43,11.43,0,0,1-1,5,9.85,9.85,0,0,1-2.77,3.51,10.9,10.9,0,0,1-4.21,2,22.49,22.49,0,0,1-5.38.6,23.84,23.84,0,0,1-6.44-.73A9.44,9.44,0,0,1,465.1,212a8,8,0,0,1-2.1-3.57,17.14,17.14,0,0,1-.6-4.71v-1.27h8.28Z"/><path class="cls-1" d="M493.79,188.46a12.17,12.17,0,0,1,1-5.25,9.08,9.08,0,0,1,2.71-3.4,10.55,10.55,0,0,1,4-1.87,20.46,20.46,0,0,1,4.91-.57,22.93,22.93,0,0,1,6.68.8,9,9,0,0,1,3.94,2.27,7.64,7.64,0,0,1,1.91,3.51,18.8,18.8,0,0,1,.5,4.44v18.9a26.25,26.25,0,0,0,.23,3.94,14.25,14.25,0,0,0,.9,3h-8.81a7.44,7.44,0,0,1-.7-1.84c-.16-.64-.3-1.28-.44-1.9h-.13a7.87,7.87,0,0,1-3.71,3.64,15.1,15.1,0,0,1-5.44.83,9.19,9.19,0,0,1-4.08-.83,7,7,0,0,1-2.67-2.31,10.28,10.28,0,0,1-1.47-3.3,14.82,14.82,0,0,1-.46-3.64,15.68,15.68,0,0,1,.53-4.38,8.47,8.47,0,0,1,1.64-3.14,8.9,8.9,0,0,1,2.8-2.17,21.94,21.94,0,0,1,4.11-1.53l5.21-1.41a5.45,5.45,0,0,0,2.87-1.47,4.06,4.06,0,0,0,.8-2.74,4.87,4.87,0,0,0-1-3.23,4.06,4.06,0,0,0-3.3-1.17,3.94,3.94,0,0,0-3.21,1.27,5.11,5.11,0,0,0-1.07,3.4v1h-8.28Zm14.83,9a12.35,12.35,0,0,1-1.94.63,7.09,7.09,0,0,0-4,2,5.64,5.64,0,0,0-1.2,3.8,7.29,7.29,0,0,0,.8,3.54,2.82,2.82,0,0,0,2.68,1.47,6.72,6.72,0,0,0,1.93-.3,5.34,5.34,0,0,0,1.84-1,5.06,5.06,0,0,0,1.37-1.73,5.7,5.7,0,0,0,.53-2.54v-7.08A8.25,8.25,0,0,1,508.62,197.44Z"/><path class="cls-1" d="M535.8,178.3v38.21a14.32,14.32,0,0,1-.5,4,6.47,6.47,0,0,1-1.7,2.9,7.63,7.63,0,0,1-3.24,1.77,18.4,18.4,0,0,1-5.11.6l-1.67,0c-.58,0-1.2-.06-1.87-.1V219a2.3,2.3,0,0,0,.73.13h.74c1.51,0,2.46-.45,2.84-1.37a11.5,11.5,0,0,0,.56-4.17V178.3Zm0-12.29v7.88h-9.22V166Z"/><path class="cls-1" d="M550.43,200.54a21,21,0,0,0,.23,3.11,10.2,10.2,0,0,0,.77,2.67,5.09,5.09,0,0,0,1.4,1.87,3.28,3.28,0,0,0,2.14.7,3.74,3.74,0,0,0,3.41-1.67,12.36,12.36,0,0,0,1.47-5.07h8.28q-.27,6.27-3.34,9.55T555.1,215c-3.34,0-5.94-.55-7.81-1.67a10.33,10.33,0,0,1-4.14-4.41,17.33,17.33,0,0,1-1.64-6.14q-.3-3.41-.3-6.81a47.36,47.36,0,0,1,.5-6.95,16.62,16.62,0,0,1,2-5.94,10.88,10.88,0,0,1,4.3-4.15,15.66,15.66,0,0,1,7.48-1.53,14.49,14.49,0,0,1,6.58,1.3,9.9,9.9,0,0,1,4,3.67,15.45,15.45,0,0,1,2,5.75,49,49,0,0,1,.53,7.51v2.07H550.43Zm9.15-12a9.42,9.42,0,0,0-.7-2.68,3.76,3.76,0,0,0-1.41-1.67,4.3,4.3,0,0,0-2.3-.56,3.93,3.93,0,0,0-2.3.63,4.68,4.68,0,0,0-1.44,1.67,8.3,8.3,0,0,0-.77,2.3,14.63,14.63,0,0,0-.23,2.54v1.41h9.42C559.8,190.82,559.71,189.6,559.58,188.56Z"/><path class="cls-1" d="M582.55,178.3v4.81h.14a13.05,13.05,0,0,1,3.4-4.17,7.67,7.67,0,0,1,4.88-1.57l.84,0c.28,0,.56.06.83.1v8.82c-.49,0-1-.08-1.44-.1s-.94,0-1.43,0a9.16,9.16,0,0,0-2.41.34,6.41,6.41,0,0,0-2.2,1.1,5.48,5.48,0,0,0-1.6,2,7,7,0,0,0-.6,3v21.58h-9.22V178.3Z"/><path class="cls-1" d="M605.8,178.3v35.94h-9.22V178.3Zm3.87-13.82-6.54,9.62h-6.28l3.61-9.62Z"/><path class="cls-1" d="M612.48,188.46a12.17,12.17,0,0,1,1-5.25,9.15,9.15,0,0,1,2.7-3.4,10.67,10.67,0,0,1,4-1.87,20.4,20.4,0,0,1,4.91-.57,22.93,22.93,0,0,1,6.68.8,9.06,9.06,0,0,1,3.94,2.27,7.54,7.54,0,0,1,1.9,3.51,18.29,18.29,0,0,1,.5,4.44v18.9a24.75,24.75,0,0,0,.24,3.94,13.69,13.69,0,0,0,.9,3h-8.82a7.86,7.86,0,0,1-.7-1.84c-.15-.64-.3-1.28-.43-1.9h-.13a7.87,7.87,0,0,1-3.71,3.64A15.12,15.12,0,0,1,620,215a9.11,9.11,0,0,1-4.07-.83,7,7,0,0,1-2.67-2.31,10.28,10.28,0,0,1-1.47-3.3,14.84,14.84,0,0,1-.47-3.64,15.65,15.65,0,0,1,.54-4.38,8.46,8.46,0,0,1,1.63-3.14,9,9,0,0,1,2.81-2.17,21.42,21.42,0,0,1,4.11-1.53l5.21-1.41a5.53,5.53,0,0,0,2.87-1.47,4.11,4.11,0,0,0,.8-2.74,4.87,4.87,0,0,0-1-3.23,4.09,4.09,0,0,0-3.31-1.17,3.93,3.93,0,0,0-3.2,1.27,5.11,5.11,0,0,0-1.07,3.4v1h-8.28Zm14.82,9a12.26,12.26,0,0,1-1.93.63,7.06,7.06,0,0,0-4,2,5.64,5.64,0,0,0-1.2,3.8,7.29,7.29,0,0,0,.8,3.54,2.79,2.79,0,0,0,2.67,1.47,6.79,6.79,0,0,0,1.94-.3,5.34,5.34,0,0,0,1.84-1,5,5,0,0,0,1.36-1.73,5.57,5.57,0,0,0,.54-2.54v-7.08A8.31,8.31,0,0,1,627.3,197.44Z"/><path class="cls-1" d="M669.12,200.54a19.71,19.71,0,0,0,.23,3.11,9.83,9.83,0,0,0,.77,2.67,5,5,0,0,0,1.4,1.87,3.28,3.28,0,0,0,2.14.7,3.73,3.73,0,0,0,3.4-1.67,12.06,12.06,0,0,0,1.47-5.07h8.28c-.17,4.18-1.29,7.37-3.33,9.55S678.2,215,673.79,215c-3.34,0-5.94-.55-7.81-1.67a10.35,10.35,0,0,1-4.15-4.41,17.33,17.33,0,0,1-1.63-6.14q-.3-3.41-.3-6.81a46,46,0,0,1,.5-6.95,16.61,16.61,0,0,1,2-5.94,10.91,10.91,0,0,1,4.31-4.15,15.63,15.63,0,0,1,7.48-1.53,14.51,14.51,0,0,1,6.58,1.3,10,10,0,0,1,4,3.67,15.27,15.27,0,0,1,2,5.75,47.73,47.73,0,0,1,.54,7.51v2.07H669.12Zm9.15-12a9.4,9.4,0,0,0-.71-2.68,3.74,3.74,0,0,0-1.4-1.67,4.33,4.33,0,0,0-2.3-.56,3.94,3.94,0,0,0-2.31.63,4.55,4.55,0,0,0-1.43,1.67,8,8,0,0,0-.77,2.3,13.71,13.71,0,0,0-.23,2.54v1.41h9.41C678.49,190.82,678.4,189.6,678.27,188.56Z"/><path class="cls-1" d="M701.24,178.3v4.21h.14a9.32,9.32,0,0,1,3.8-3.91,11.32,11.32,0,0,1,5.35-1.23,9.1,9.1,0,0,1,6.77,2.4c1.58,1.61,2.38,4.21,2.38,7.82v26.65h-9.22V189.46c0-1.87-.31-3.17-.94-3.91a3.73,3.73,0,0,0-3-1.1q-4.87,0-4.88,5.94v23.85h-9.22V178.3Z"/><path class="cls-1" d="M376.31,245.67h-17V256.9h16v7.88h-16V277.6H377v7.88H349.66V237.79h26.65Z"/><path class="cls-1" d="M390.6,249.55v3.67h.13a10.62,10.62,0,0,1,3.91-3.54,11.62,11.62,0,0,1,5.18-1.07,9.37,9.37,0,0,1,5.37,1.47,7.14,7.14,0,0,1,2.91,4.28h.13a8.16,8.16,0,0,1,3.44-4.31,10.65,10.65,0,0,1,5.64-1.44c3.08,0,5.34.93,6.78,2.77s2.17,4.51,2.17,8v26.11h-9.21V260.37a6,6,0,0,0-.84-3.47,3.11,3.11,0,0,0-2.77-1.21,4.46,4.46,0,0,0-3.51,1.47,7,7,0,0,0-1.3,4.68v23.64h-9.22V260.37a6,6,0,0,0-.83-3.47,3.12,3.12,0,0,0-2.77-1.21,4.46,4.46,0,0,0-3.51,1.47c-.87,1-1.3,2.54-1.3,4.68v23.64h-9.22V249.55Z"/><path class="cls-1" d="M440.56,271.79a21.07,21.07,0,0,0,.23,3.11,10.2,10.2,0,0,0,.77,2.67,5.09,5.09,0,0,0,1.4,1.87,3.28,3.28,0,0,0,2.14.7,3.77,3.77,0,0,0,3.41-1.67,12.41,12.41,0,0,0,1.47-5.08h8.28q-.27,6.28-3.34,9.55t-9.69,3.28a15.34,15.34,0,0,1-7.81-1.67,10.38,10.38,0,0,1-4.14-4.41,17.39,17.39,0,0,1-1.64-6.15q-.3-3.4-.3-6.81a47.23,47.23,0,0,1,.5-6.94,16.74,16.74,0,0,1,2-6,10.79,10.79,0,0,1,4.3-4.14,15.65,15.65,0,0,1,7.48-1.54,14.48,14.48,0,0,1,6.58,1.31,9.83,9.83,0,0,1,4,3.67,15.4,15.4,0,0,1,2,5.74,49.16,49.16,0,0,1,.53,7.52v2.07H440.56Zm9.15-12a9.25,9.25,0,0,0-.7-2.67,3.71,3.71,0,0,0-1.41-1.67,4.22,4.22,0,0,0-2.3-.57,3.86,3.86,0,0,0-2.3.64,4.59,4.59,0,0,0-1.44,1.67,8.3,8.3,0,0,0-.77,2.3,14.54,14.54,0,0,0-.23,2.54v1.4H450C449.93,262.06,449.84,260.85,449.71,259.8Z"/><path class="cls-1" d="M472.68,249.55v4.81h.14a13.1,13.1,0,0,1,3.4-4.18,7.73,7.73,0,0,1,4.88-1.57,8.13,8.13,0,0,1,.84,0,7.53,7.53,0,0,1,.83.1v8.81l-1.44-.1c-.46,0-.94,0-1.43,0a9.09,9.09,0,0,0-2.41.33,6.43,6.43,0,0,0-2.2,1.11,5.48,5.48,0,0,0-1.6,2,6.92,6.92,0,0,0-.6,3v21.57h-9.22V249.55Z"/><path class="cls-1" d="M513.29,283.68q0,6.94-3.44,10.42t-11.52,3.47c-3.92,0-6.93-.83-9.05-2.5a8.55,8.55,0,0,1-3.17-7.12h8.82a3.18,3.18,0,0,0,1.4,2.74,5.77,5.77,0,0,0,1.44.74,5.11,5.11,0,0,0,1.63.26,4.29,4.29,0,0,0,3.94-1.8,8.2,8.2,0,0,0,1.14-4.47v-4.75h-.14a10.85,10.85,0,0,1-3.44,3.21,8.21,8.21,0,0,1-4.24,1.2,9.26,9.26,0,0,1-8.25-4.17q-2.76-4.19-2.77-14a56.26,56.26,0,0,1,.37-6.41,19.88,19.88,0,0,1,1.54-5.91,10.63,10.63,0,0,1,3.4-4.31,9.8,9.8,0,0,1,6-1.67,8.77,8.77,0,0,1,4,1.07,8,8,0,0,1,3.4,3.88h.14v-4h8.81ZM495,272.19a11.59,11.59,0,0,0,.66,3,5.08,5.08,0,0,0,1.41,2.07,3.49,3.49,0,0,0,2.37.77,3.77,3.77,0,0,0,2.44-.77,5.26,5.26,0,0,0,1.53-2.1,11.81,11.81,0,0,0,.8-3.24,33.49,33.49,0,0,0,.24-4.17c0-4.37-.35-7.46-1-9.29a3.79,3.79,0,0,0-3.77-2.74,4.18,4.18,0,0,0-2.47.67,4.31,4.31,0,0,0-1.47,2.17,15.15,15.15,0,0,0-.7,4q-.16,2.5-.17,6.11C494.86,269.9,494.92,271.08,495,272.19Z"/><path class="cls-1" d="M527.92,271.79a19.79,19.79,0,0,0,.24,3.11,10.2,10.2,0,0,0,.76,2.67,5.11,5.11,0,0,0,1.41,1.87,3.25,3.25,0,0,0,2.13.7,3.75,3.75,0,0,0,3.41-1.67,12.41,12.41,0,0,0,1.47-5.08h8.28q-.27,6.28-3.34,9.55t-9.68,3.28a15.38,15.38,0,0,1-7.82-1.67,10.38,10.38,0,0,1-4.14-4.41A17.6,17.6,0,0,1,519,274q-.3-3.4-.3-6.81a45.87,45.87,0,0,1,.51-6.94,16.73,16.73,0,0,1,2-6,10.82,10.82,0,0,1,4.31-4.14,15.62,15.62,0,0,1,7.48-1.54,14.54,14.54,0,0,1,6.58,1.31,9.89,9.89,0,0,1,4,3.67,15.39,15.39,0,0,1,2,5.74,47.86,47.86,0,0,1,.54,7.52v2.07H527.92Zm9.15-12a8.94,8.94,0,0,0-.7-2.67,3.69,3.69,0,0,0-1.4-1.67,4.25,4.25,0,0,0-2.31-.57,3.86,3.86,0,0,0-2.3.64,4.59,4.59,0,0,0-1.44,1.67,8.29,8.29,0,0,0-.76,2.3,13.65,13.65,0,0,0-.24,2.54v1.4h9.42C537.29,262.06,537.21,260.85,537.07,259.8Z"/><path class="cls-1" d="M560.05,249.55v4.21h.13a9.34,9.34,0,0,1,3.81-3.91,11.31,11.31,0,0,1,5.34-1.24,9.11,9.11,0,0,1,6.78,2.41c1.58,1.6,2.37,4.21,2.37,7.81v26.65h-9.21V260.7a6.19,6.19,0,0,0-.94-3.91,3.76,3.76,0,0,0-3-1.1q-4.87,0-4.87,5.95v23.84h-9.22V249.55Z"/><path class="cls-1" d="M602,259.9a9.34,9.34,0,0,0-.6-2.3,4.14,4.14,0,0,0-1.24-1.67,3.31,3.31,0,0,0-2.14-.64,4.2,4.2,0,0,0-4.34,3,15.24,15.24,0,0,0-.73,3.81c-.14,1.53-.2,3.35-.2,5.44s.06,4.13.2,5.71a16,16,0,0,0,.73,3.91,4.57,4.57,0,0,0,1.5,2.24,4.17,4.17,0,0,0,2.51.7,3.58,3.58,0,0,0,3.4-2c.72-1.34,1.07-3.48,1.07-6.42H611q0,7.08-3.17,10.79t-10.52,3.71a19.56,19.56,0,0,1-6.05-.84,8.75,8.75,0,0,1-4.27-3,14.81,14.81,0,0,1-2.57-5.81,39.77,39.77,0,0,1-.87-9.05,33.34,33.34,0,0,1,1.07-9.19,15,15,0,0,1,3-5.81,10.39,10.39,0,0,1,4.61-3,18.9,18.9,0,0,1,5.88-.87q6.4,0,9.65,3.74T611,262.51h-8.82A20.33,20.33,0,0,0,602,259.9Z"/><path class="cls-1" d="M625.64,237.26v7.88h-9.22v-7.88Zm0,12.29v35.93h-9.22V249.55Z"/><path class="cls-1" d="M632.32,259.7a12.12,12.12,0,0,1,1-5.24,9.19,9.19,0,0,1,2.7-3.41,10.75,10.75,0,0,1,4-1.87,20.4,20.4,0,0,1,4.91-.57,22.55,22.55,0,0,1,6.68.81,9.12,9.12,0,0,1,3.94,2.27,7.5,7.5,0,0,1,1.9,3.5,18.29,18.29,0,0,1,.5,4.44v18.91a24.84,24.84,0,0,0,.24,3.94,13.24,13.24,0,0,0,.9,3h-8.82a8,8,0,0,1-.7-1.83c-.15-.65-.3-1.28-.43-1.91H649a7.76,7.76,0,0,1-3.7,3.64,14.93,14.93,0,0,1-5.45.84,9,9,0,0,1-4.07-.84,6.87,6.87,0,0,1-2.67-2.3,10.23,10.23,0,0,1-1.47-3.31,14.78,14.78,0,0,1-.47-3.64,16,16,0,0,1,.53-4.37,8.54,8.54,0,0,1,1.64-3.14,9,9,0,0,1,2.81-2.17,22.23,22.23,0,0,1,4.1-1.54l5.21-1.4a5.68,5.68,0,0,0,2.88-1.47,4.13,4.13,0,0,0,.8-2.74,5,5,0,0,0-1-3.24,4.09,4.09,0,0,0-3.31-1.17,4,4,0,0,0-3.2,1.27,5.09,5.09,0,0,0-1.07,3.41v1h-8.28Zm14.82,9a12.39,12.39,0,0,1-1.93.64,7.11,7.11,0,0,0-4,2,5.69,5.69,0,0,0-1.2,3.81,7.23,7.23,0,0,0,.8,3.54,2.79,2.79,0,0,0,2.67,1.47,6.79,6.79,0,0,0,1.94-.3,5.21,5.21,0,0,0,1.83-1,4.89,4.89,0,0,0,1.37-1.74,5.52,5.52,0,0,0,.54-2.53v-7.08A8,8,0,0,1,647.14,268.68Z"/><path class="cls-1" d="M671.52,274.93a5.53,5.53,0,0,0,1.24,3.77,4.44,4.44,0,0,0,3.57,1.44,5.14,5.14,0,0,0,3.41-1.07,4,4,0,0,0,1.27-3.21,3.35,3.35,0,0,0-1-2.63,7.56,7.56,0,0,0-2.33-1.44l-6.48-2.34a12.4,12.4,0,0,1-5.75-3.77,9.75,9.75,0,0,1-1.93-6.25,11.8,11.8,0,0,1,.73-4.17,8.8,8.8,0,0,1,2.34-3.44,11.66,11.66,0,0,1,4.11-2.34,18.49,18.49,0,0,1,6-.87c4.19,0,7.28.89,9.29,2.68a9.56,9.56,0,0,1,3,7.54v1.47h-8.28a7.36,7.36,0,0,0-.9-4.11,3.6,3.6,0,0,0-3.17-1.3,4.93,4.93,0,0,0-3,1,3.39,3.39,0,0,0-1.31,2.91,3.78,3.78,0,0,0,.84,2.4,6.39,6.39,0,0,0,3.17,1.8l5.55,1.87q4.33,1.47,6.14,3.84a10.44,10.44,0,0,1,1.8,6.45,11.5,11.5,0,0,1-1,5,9.73,9.73,0,0,1-2.77,3.5,10.91,10.91,0,0,1-4.21,2,22.49,22.49,0,0,1-5.38.6,23.8,23.8,0,0,1-6.44-.74,9.33,9.33,0,0,1-4.07-2.2,7.9,7.9,0,0,1-2.11-3.57,17.24,17.24,0,0,1-.6-4.71v-1.27h8.28Z"/><path class="cls-2" d="M373,61.21H357.14a33.23,33.23,0,0,1-.6-4.08c-.14-1.46-.2-2.91-.2-4.34a39.81,39.81,0,0,1,.8-8.15h35.4v70.54a30,30,0,0,1-2.34,12.49,22.59,22.59,0,0,1-6.41,8.41,25.61,25.61,0,0,1-9.62,4.75,47.58,47.58,0,0,1-12.09,1.46,49.56,49.56,0,0,1-5.68-.4,46,46,0,0,1-6.48-1.2c-.09-.62-.15-1.24-.2-1.87s-.06-1.29-.06-2a35.06,35.06,0,0,1,2.27-12.29c1,.18,2.05.4,3.2.67a16.44,16.44,0,0,0,3.61.4,45.6,45.6,0,0,0,4.81-.27,10,10,0,0,0,8.08-5.54,15.87,15.87,0,0,0,1.4-7.42Z"/><path class="cls-2" d="M445,95.27A11.11,11.11,0,0,0,444,90.06,8.16,8.16,0,0,0,441,86.92a12.28,12.28,0,0,0-4.61-1.53,41.82,41.82,0,0,0-6.08-.4A47.24,47.24,0,0,0,415,87.79a36.16,36.16,0,0,1-2.81-6.54,25.57,25.57,0,0,1-.93-7.35A72.19,72.19,0,0,1,434,70q13.89,0,21.71,6.67t7.81,21.38v40.07A111.31,111.31,0,0,1,452.12,141a77.53,77.53,0,0,1-15.1,1.33,60.52,60.52,0,0,1-12.49-1.2,26.82,26.82,0,0,1-9.75-4,18.83,18.83,0,0,1-6.28-7.21,24,24,0,0,1-2.2-10.82A19.73,19.73,0,0,1,409,108.3a21,21,0,0,1,7.08-7,31.27,31.27,0,0,1,9.68-3.74,51,51,0,0,1,10.69-1.13q3.87,0,8.55.4ZM445,109c-1.07-.18-2.23-.33-3.48-.47a32.74,32.74,0,0,0-3.34-.2q-6.54,0-10.35,2.34t-3.81,7.55a8.45,8.45,0,0,0,1.47,5.34,8.77,8.77,0,0,0,3.54,2.74,14.4,14.4,0,0,0,4.41,1.07c1.56.13,2.92.2,4.08.2a24.53,24.53,0,0,0,4-.33l3.48-.6Z"/><path class="cls-2" d="M472.29,71.63a29.91,29.91,0,0,1,5.41-.74c1.55,0,3-.06,4.34-.06,1.78,0,3.6,0,5.47.13a27.92,27.92,0,0,1,5.08.67L507,131.88l16.29-60.25a50.23,50.23,0,0,1,9.09-.8c1.33,0,2.76,0,4.27.06a34.71,34.71,0,0,1,5.61.74L516.5,157a33.69,33.69,0,0,1-3.81,8.41,18,18,0,0,1-5,5.21,17.82,17.82,0,0,1-6.27,2.61,36.16,36.16,0,0,1-7.48.73,44.39,44.39,0,0,1-6.75-.46,57,57,0,0,1-5.94-1.27,6,6,0,0,1-.14-1.14v-1a24.46,24.46,0,0,1,.74-6.08,45.39,45.39,0,0,1,1.8-5.54,21.17,21.17,0,0,0,3.21.73,24.55,24.55,0,0,0,4,.34,26.6,26.6,0,0,0,3.21-.2,7.5,7.5,0,0,0,3.14-1.21,9.85,9.85,0,0,0,2.87-3.14,23,23,0,0,0,2.4-6l2.28-8.28c-1,.09-2.07.16-3.28.2s-2.42.07-3.67.07H495a9.78,9.78,0,0,1-2.4-.27Z"/><path class="cls-2" d="M552.7,71.63a34.62,34.62,0,0,1,3.74-.6,37.53,37.53,0,0,1,4.14-.2,33.94,33.94,0,0,1,4,.2,36.19,36.19,0,0,1,3.61.6,7.93,7.93,0,0,1,.73,1.94q.33,1.26.6,2.67c.18.93.34,1.85.47,2.74s.25,1.64.33,2.27a21.87,21.87,0,0,1,2.81-4,20.5,20.5,0,0,1,4.14-3.61,22.59,22.59,0,0,1,5.41-2.6,21.19,21.19,0,0,1,6.75-1q16.15,0,20.7,12.29a26.57,26.57,0,0,1,7.55-8.62Q622.57,70,630.05,70q11.75,0,17.3,6.47t5.54,20.24v44a56.63,56.63,0,0,1-19,0v-39q0-7.22-1.8-11.09c-1.2-2.58-3.63-3.88-7.28-3.88a15.54,15.54,0,0,0-4.48.67,9.68,9.68,0,0,0-4,2.47,13.12,13.12,0,0,0-2.93,5.08,26.28,26.28,0,0,0-1.14,8.48v37.27a56.63,56.63,0,0,1-19,0v-39q0-7.22-1.8-11.09c-1.2-2.58-3.63-3.88-7.28-3.88a16.15,16.15,0,0,0-4.54.67A9,9,0,0,0,575.61,90a13.73,13.73,0,0,0-2.87,5.41,31.72,31.72,0,0,0-1.07,9.08v36.2a56.63,56.63,0,0,1-19,0Z"/><path class="cls-2" d="M704.59,95.27a11.11,11.11,0,0,0-1.07-5.21,8.16,8.16,0,0,0-2.94-3.14A12.28,12.28,0,0,0,696,85.39a41.82,41.82,0,0,0-6.08-.4,47.24,47.24,0,0,0-15.36,2.8,36.16,36.16,0,0,1-2.81-6.54,25.57,25.57,0,0,1-.93-7.35A72.06,72.06,0,0,1,693.5,70q13.89,0,21.71,6.67T723,98.08v40.07A111.31,111.31,0,0,1,711.67,141a77.53,77.53,0,0,1-15.1,1.33,60.52,60.52,0,0,1-12.49-1.2,26.67,26.67,0,0,1-9.75-4,18.83,18.83,0,0,1-6.28-7.21,24,24,0,0,1-2.2-10.82,19.82,19.82,0,0,1,2.73-10.75,21.13,21.13,0,0,1,7.09-7,31.27,31.27,0,0,1,9.68-3.74A51,51,0,0,1,696,96.48q3.87,0,8.55.4Zm0,13.76c-1.07-.18-2.23-.33-3.48-.47a32.74,32.74,0,0,0-3.34-.2q-6.54,0-10.35,2.34t-3.81,7.55a8.45,8.45,0,0,0,1.47,5.34,8.77,8.77,0,0,0,3.54,2.74A14.4,14.4,0,0,0,693,127.4c1.56.13,2.92.2,4.08.2a24.53,24.53,0,0,0,4-.33l3.48-.6Z"/><polygon class="cls-3" points="202.5 32.67 203.18 135.26 291.68 83.37 202.5 32.67"/><polygon class="cls-3" points="203.18 135.26 202.5 32.67 202.5 32.67 114 84.56 114 84.56 203.18 135.26 203.18 135.26"/><polygon class="cls-2" points="114 84.56 114.68 187.14 203.18 135.26 114 84.56"/><polygon class="cls-2" points="114.68 187.14 114.68 187.14 114 84.56 114 84.56 25.5 136.44 25.5 136.44 114.68 187.14"/><polygon class="cls-4" points="292.36 185.96 291.68 83.37 203.18 135.26 203.18 135.26 292.36 185.96 292.36 185.96"/><polygon class="cls-4" points="203.18 135.26 203.86 237.84 292.36 185.96 203.18 135.26"/><polygon class="cls-5" points="203.86 237.84 203.18 135.26 203.18 135.26 114.68 187.14 114.68 187.14 203.86 237.84 203.86 237.84"/><polygon class="cls-5" points="114.68 187.14 115.37 289.72 203.86 237.84 114.68 187.14"/></svg>